<?xml version="1.0" encoding="UTF-8" standalone="no"?>
<!DOCTYPE svg PUBLIC "-//W3C//DTD SVG 1.1//EN"
 "http://www.w3.org/Graphics/SVG/1.1/DTD/svg11.dtd">
<!-- Generated by graphviz version 2.36.0 (20140111.2315)
 -->
<!-- Title: /home/travis/build/AliceO2Group/AliceO2/Common/Field/include/Field/MagFieldFast.h Pages: 1 -->
<svg width="4200pt" height="320pt"
 viewBox="0.00 0.00 4200.00 320.00" xmlns="http://www.w3.org/2000/svg" xmlns:xlink="http://www.w3.org/1999/xlink">
<g id="graph0" class="graph" transform="scale(1 1) rotate(0) translate(4 316)">
<title>/home/travis/build/AliceO2Group/AliceO2/Common/Field/include/Field/MagFieldFast.h</title>
<!-- Node1 -->
<g id="node1" class="node"><title>Node1</title>
<polygon fill="#bfbfbf" stroke="black" points="378,-259 378,-311 496,-311 496,-259 378,-259"/>
<text text-anchor="start" x="386" y="-299" font-family="Helvetica,sans-Serif" font-size="10.00">/home/travis/build</text>
<text text-anchor="start" x="386" y="-288" font-family="Helvetica,sans-Serif" font-size="10.00">/AliceO2Group/AliceO2</text>
<text text-anchor="start" x="386" y="-277" font-family="Helvetica,sans-Serif" font-size="10.00">/Common/Field/include</text>
<text text-anchor="middle" x="437" y="-266" font-family="Helvetica,sans-Serif" font-size="10.00">/Field/MagFieldFast.h</text>
</g>
<!-- Node2 -->
<g id="node2" class="node"><title>Node2</title>
<g id="a_node2"><a xlink:href="../../db/d4b/MagneticField_8h.html" target="_top" xlink:title="Definition of the MagF class. ">
<polygon fill="none" stroke="black" points="1895,-169 1895,-221 2013,-221 2013,-169 1895,-169"/>
<text text-anchor="start" x="1903" y="-209" font-family="Helvetica,sans-Serif" font-size="10.00">/home/travis/build</text>
<text text-anchor="start" x="1903" y="-198" font-family="Helvetica,sans-Serif" font-size="10.00">/AliceO2Group/AliceO2</text>
<text text-anchor="start" x="1903" y="-187" font-family="Helvetica,sans-Serif" font-size="10.00">/Common/Field/include</text>
<text text-anchor="middle" x="1954" y="-176" font-family="Helvetica,sans-Serif" font-size="10.00">/Field/MagneticField.h</text>
</a>
</g>
</g>
<!-- Node1&#45;&gt;Node2 -->
<g id="edge1" class="edge"><title>Node1&#45;&gt;Node2</title>
<path fill="none" stroke="midnightblue" d="M506.3,-279.98C762.837,-265.098 1656.03,-213.285 1894.88,-199.429"/>
<polygon fill="midnightblue" stroke="midnightblue" points="505.783,-276.504 496.003,-280.577 506.189,-283.492 505.783,-276.504"/>
</g>
<!-- Node7 -->
<g id="node7" class="node"><title>Node7</title>
<g id="a_node7"><a xlink:href="../../d6/dda/testMagneticField_8cxx.html" target="_top" xlink:title="/home/travis/build\l/AliceO2Group/AliceO2\l/Common/Field/test/testMagnetic\lField.cxx">
<polygon fill="none" stroke="black" points="0,-79 0,-131 162,-131 162,-79 0,-79"/>
<text text-anchor="start" x="8" y="-119" font-family="Helvetica,sans-Serif" font-size="10.00">/home/travis/build</text>
<text text-anchor="start" x="8" y="-108" font-family="Helvetica,sans-Serif" font-size="10.00">/AliceO2Group/AliceO2</text>
<text text-anchor="start" x="8" y="-97" font-family="Helvetica,sans-Serif" font-size="10.00">/Common/Field/test/testMagnetic</text>
<text text-anchor="middle" x="81" y="-86" font-family="Helvetica,sans-Serif" font-size="10.00">Field.cxx</text>
</a>
</g>
</g>
<!-- Node1&#45;&gt;Node7 -->
<g id="edge33" class="edge"><title>Node1&#45;&gt;Node7</title>
<path fill="none" stroke="midnightblue" d="M377.734,-254.367C308.785,-219.892 196.14,-163.57 131.283,-131.141"/>
<polygon fill="midnightblue" stroke="midnightblue" points="376.239,-257.533 386.749,-258.874 379.37,-251.272 376.239,-257.533"/>
</g>
<!-- Node9 -->
<g id="node9" class="node"><title>Node9</title>
<g id="a_node9"><a xlink:href="../../d8/dee/Propagator_8cxx.html" target="_top" xlink:title="/home/travis/build\l/AliceO2Group/AliceO2\l/Detectors/Base/src/Propagator.cxx">
<polygon fill="none" stroke="black" points="180.5,-84.5 180.5,-125.5 353.5,-125.5 353.5,-84.5 180.5,-84.5"/>
<text text-anchor="start" x="188.5" y="-113.5" font-family="Helvetica,sans-Serif" font-size="10.00">/home/travis/build</text>
<text text-anchor="start" x="188.5" y="-102.5" font-family="Helvetica,sans-Serif" font-size="10.00">/AliceO2Group/AliceO2</text>
<text text-anchor="middle" x="267" y="-91.5" font-family="Helvetica,sans-Serif" font-size="10.00">/Detectors/Base/src/Propagator.cxx</text>
</a>
</g>
</g>
<!-- Node1&#45;&gt;Node9 -->
<g id="edge34" class="edge"><title>Node1&#45;&gt;Node9</title>
<path fill="none" stroke="midnightblue" d="M405.833,-251.366C370.659,-214.538 314.587,-155.827 285.642,-125.52"/>
<polygon fill="midnightblue" stroke="midnightblue" points="403.566,-254.06 413.004,-258.874 408.628,-249.225 403.566,-254.06"/>
</g>
<!-- Node11 -->
<g id="node11" class="node"><title>Node11</title>
<g id="a_node11"><a xlink:href="../../dc/d59/MatchTPCITS_8cxx.html" target="_top" xlink:title="/home/travis/build\l/AliceO2Group/AliceO2\l/Detectors/GlobalTracking\l/src/MatchTPCITS.cxx">
<polygon fill="none" stroke="black" points="371.5,-79 371.5,-131 502.5,-131 502.5,-79 371.5,-79"/>
<text text-anchor="start" x="379.5" y="-119" font-family="Helvetica,sans-Serif" font-size="10.00">/home/travis/build</text>
<text text-anchor="start" x="379.5" y="-108" font-family="Helvetica,sans-Serif" font-size="10.00">/AliceO2Group/AliceO2</text>
<text text-anchor="start" x="379.5" y="-97" font-family="Helvetica,sans-Serif" font-size="10.00">/Detectors/GlobalTracking</text>
<text text-anchor="middle" x="437" y="-86" font-family="Helvetica,sans-Serif" font-size="10.00">/src/MatchTPCITS.cxx</text>
</a>
</g>
</g>
<!-- Node1&#45;&gt;Node11 -->
<g id="edge35" class="edge"><title>Node1&#45;&gt;Node11</title>
<path fill="none" stroke="midnightblue" d="M437,-248.717C437,-214.052 437,-162.016 437,-131.285"/>
<polygon fill="midnightblue" stroke="midnightblue" points="433.5,-248.874 437,-258.874 440.5,-248.875 433.5,-248.874"/>
</g>
<!-- Node31 -->
<g id="node31" class="node"><title>Node31</title>
<g id="a_node31"><a xlink:href="../../d7/dd5/MagFieldFast_8cxx.html" target="_top" xlink:title="Implementation of the fast magnetic field parametrization MagFieldFast. ">
<polygon fill="none" stroke="black" points="2031.5,-174.5 2031.5,-215.5 2212.5,-215.5 2212.5,-174.5 2031.5,-174.5"/>
<text text-anchor="start" x="2039.5" y="-203.5" font-family="Helvetica,sans-Serif" font-size="10.00">/home/travis/build</text>
<text text-anchor="start" x="2039.5" y="-192.5" font-family="Helvetica,sans-Serif" font-size="10.00">/AliceO2Group/AliceO2</text>
<text text-anchor="middle" x="2122" y="-181.5" font-family="Helvetica,sans-Serif" font-size="10.00">/Common/Field/src/MagFieldFast.cxx</text>
</a>
</g>
</g>
<!-- Node1&#45;&gt;Node31 -->
<g id="edge32" class="edge"><title>Node1&#45;&gt;Node31</title>
<path fill="none" stroke="midnightblue" d="M506.446,-283.271C771.986,-280.174 1723.09,-266.177 2022,-222 2032.74,-220.413 2043.98,-218.124 2054.9,-215.554"/>
<polygon fill="midnightblue" stroke="midnightblue" points="506.133,-279.774 496.174,-283.389 506.213,-286.774 506.133,-279.774"/>
</g>
<!-- Node3 -->
<g id="node3" class="node"><title>Node3</title>
<g id="a_node3"><a xlink:href="../../da/d34/MagFieldFact_8h.html" target="_top" xlink:title="Definition of the MagFieldFact: factory for ALIDE mag. field from MagFieldParam. ">
<polygon fill="none" stroke="black" points="2759,-79 2759,-131 2877,-131 2877,-79 2759,-79"/>
<text text-anchor="start" x="2767" y="-119" font-family="Helvetica,sans-Serif" font-size="10.00">/home/travis/build</text>
<text text-anchor="start" x="2767" y="-108" font-family="Helvetica,sans-Serif" font-size="10.00">/AliceO2Group/AliceO2</text>
<text text-anchor="start" x="2767" y="-97" font-family="Helvetica,sans-Serif" font-size="10.00">/Common/Field/include</text>
<text text-anchor="middle" x="2818" y="-86" font-family="Helvetica,sans-Serif" font-size="10.00">/Field/MagFieldFact.h</text>
</a>
</g>
</g>
<!-- Node2&#45;&gt;Node3 -->
<g id="edge2" class="edge"><title>Node2&#45;&gt;Node3</title>
<path fill="none" stroke="midnightblue" d="M2022.69,-168.064C2022.8,-168.042 2022.9,-168.021 2023,-168 2339.74,-102.171 2433.42,-198.596 2750,-132 2752.97,-131.376 2755.98,-130.64 2758.99,-129.819"/>
<polygon fill="midnightblue" stroke="midnightblue" points="2022.01,-164.628 2013.12,-170.39 2023.66,-171.431 2022.01,-164.628"/>
</g>
<!-- Node4 -->
<g id="node4" class="node"><title>Node4</title>
<g id="a_node4"><a xlink:href="../../d0/dec/MagFieldFact_8cxx.html" target="_top" xlink:title="/home/travis/build\l/AliceO2Group/AliceO2\l/Common/Field/src/MagFieldFact.cxx">
<polygon fill="none" stroke="black" points="2770.5,-0.5 2770.5,-41.5 2951.5,-41.5 2951.5,-0.5 2770.5,-0.5"/>
<text text-anchor="start" x="2778.5" y="-29.5" font-family="Helvetica,sans-Serif" font-size="10.00">/home/travis/build</text>
<text text-anchor="start" x="2778.5" y="-18.5" font-family="Helvetica,sans-Serif" font-size="10.00">/AliceO2Group/AliceO2</text>
<text text-anchor="middle" x="2861" y="-7.5" font-family="Helvetica,sans-Serif" font-size="10.00">/Common/Field/src/MagFieldFact.cxx</text>
</a>
</g>
</g>
<!-- Node2&#45;&gt;Node4 -->
<g id="edge4" class="edge"><title>Node2&#45;&gt;Node4</title>
<path fill="none" stroke="midnightblue" d="M2022.69,-168.063C2022.8,-168.042 2022.9,-168.021 2023,-168 2070.02,-158.418 2852.78,-166.631 2886,-132 2909.32,-107.69 2890.02,-66.3907 2874.84,-41.9055"/>
<polygon fill="midnightblue" stroke="midnightblue" points="2022.02,-164.625 2013.11,-170.359 2023.65,-171.432 2022.02,-164.625"/>
</g>
<!-- Node5 -->
<g id="node5" class="node"><title>Node5</title>
<g id="a_node5"><a xlink:href="../../df/d54/MagFieldParam_8cxx.html" target="_top" xlink:title="Implementation of the MagFieldParam class. ">
<polygon fill="none" stroke="black" points="2933,-84.5 2933,-125.5 3123,-125.5 3123,-84.5 2933,-84.5"/>
<text text-anchor="start" x="2941" y="-113.5" font-family="Helvetica,sans-Serif" font-size="10.00">/home/travis/build</text>
<text text-anchor="start" x="2941" y="-102.5" font-family="Helvetica,sans-Serif" font-size="10.00">/AliceO2Group/AliceO2</text>
<text text-anchor="middle" x="3028" y="-91.5" font-family="Helvetica,sans-Serif" font-size="10.00">/Common/Field/src/MagFieldParam.cxx</text>
</a>
</g>
</g>
<!-- Node2&#45;&gt;Node5 -->
<g id="edge5" class="edge"><title>Node2&#45;&gt;Node5</title>
<path fill="none" stroke="midnightblue" d="M2022.69,-168.062C2022.8,-168.042 2022.9,-168.021 2023,-168 2413.58,-88.7211 2524.2,-186.492 2919,-132 2930.66,-130.391 2942.9,-128.09 2954.79,-125.514"/>
<polygon fill="midnightblue" stroke="midnightblue" points="2022.02,-164.624 2013.11,-170.353 2023.65,-171.432 2022.02,-164.624"/>
</g>
<!-- Node6 -->
<g id="node6" class="node"><title>Node6</title>
<g id="a_node6"><a xlink:href="../../d2/d78/MagneticField_8cxx.html" target="_top" xlink:title="/home/travis/build\l/AliceO2Group/AliceO2\l/Common/Field/src/MagneticField.cxx">
<polygon fill="none" stroke="black" points="3141,-84.5 3141,-125.5 3323,-125.5 3323,-84.5 3141,-84.5"/>
<text text-anchor="start" x="3149" y="-113.5" font-family="Helvetica,sans-Serif" font-size="10.00">/home/travis/build</text>
<text text-anchor="start" x="3149" y="-102.5" font-family="Helvetica,sans-Serif" font-size="10.00">/AliceO2Group/AliceO2</text>
<text text-anchor="middle" x="3232" y="-91.5" font-family="Helvetica,sans-Serif" font-size="10.00">/Common/Field/src/MagneticField.cxx</text>
</a>
</g>
</g>
<!-- Node2&#45;&gt;Node6 -->
<g id="edge6" class="edge"><title>Node2&#45;&gt;Node6</title>
<path fill="none" stroke="midnightblue" d="M2022.69,-168.061C2022.8,-168.041 2022.9,-168.02 2023,-168 2264.83,-119.883 2887.96,-167.24 3132,-132 3142.83,-130.436 3154.18,-128.141 3165.18,-125.553"/>
<polygon fill="midnightblue" stroke="midnightblue" points="2022.03,-164.621 2013.1,-170.323 2023.64,-171.434 2022.03,-164.621"/>
</g>
<!-- Node2&#45;&gt;Node7 -->
<g id="edge7" class="edge"><title>Node2&#45;&gt;Node7</title>
<path fill="none" stroke="midnightblue" d="M1884.57,-193.868C1598.45,-192.971 509.968,-186.006 171,-132 168.109,-131.539 165.18,-131.015 162.231,-130.438"/>
<polygon fill="midnightblue" stroke="midnightblue" points="1884.79,-197.368 1894.8,-193.898 1884.81,-190.368 1884.79,-197.368"/>
</g>
<!-- Node8 -->
<g id="node8" class="node"><title>Node8</title>
<g id="a_node8"><a xlink:href="../../d3/dee/Base_2src_2Detector_8cxx.html" target="_top" xlink:title="/home/travis/build\l/AliceO2Group/AliceO2\l/Detectors/Base/src/Detector.cxx">
<polygon fill="none" stroke="black" points="3341,-84.5 3341,-125.5 3505,-125.5 3505,-84.5 3341,-84.5"/>
<text text-anchor="start" x="3349" y="-113.5" font-family="Helvetica,sans-Serif" font-size="10.00">/home/travis/build</text>
<text text-anchor="start" x="3349" y="-102.5" font-family="Helvetica,sans-Serif" font-size="10.00">/AliceO2Group/AliceO2</text>
<text text-anchor="middle" x="3423" y="-91.5" font-family="Helvetica,sans-Serif" font-size="10.00">/Detectors/Base/src/Detector.cxx</text>
</a>
</g>
</g>
<!-- Node2&#45;&gt;Node8 -->
<g id="edge8" class="edge"><title>Node2&#45;&gt;Node8</title>
<path fill="none" stroke="midnightblue" d="M2022.69,-168.061C2022.8,-168.04 2022.9,-168.02 2023,-168 2308.54,-111.921 3044.4,-176.32 3332,-132 3341.91,-130.474 3352.26,-128.198 3362.28,-125.618"/>
<polygon fill="midnightblue" stroke="midnightblue" points="2022.04,-164.619 2013.1,-170.303 2023.63,-171.435 2022.04,-164.619"/>
</g>
<!-- Node2&#45;&gt;Node9 -->
<g id="edge9" class="edge"><title>Node2&#45;&gt;Node9</title>
<path fill="none" stroke="midnightblue" d="M1884.28,-193.372C1617.68,-190.649 662.814,-177.84 363,-132 352.588,-130.408 341.687,-128.099 331.122,-125.504"/>
<polygon fill="midnightblue" stroke="midnightblue" points="1884.56,-196.875 1894.59,-193.476 1884.63,-189.876 1884.56,-196.875"/>
</g>
<!-- Node10 -->
<g id="node10" class="node"><title>Node10</title>
<g id="a_node10"><a xlink:href="../../d3/d85/Detectors_2EMCAL_2testsimulation_2run__sim__emcal_8C.html" target="_top" xlink:title="/home/travis/build\l/AliceO2Group/AliceO2\l/Detectors/EMCAL/testsimulation\l/run_sim_emcal.C">
<polygon fill="none" stroke="black" points="3523,-79 3523,-131 3687,-131 3687,-79 3523,-79"/>
<text text-anchor="start" x="3531" y="-119" font-family="Helvetica,sans-Serif" font-size="10.00">/home/travis/build</text>
<text text-anchor="start" x="3531" y="-108" font-family="Helvetica,sans-Serif" font-size="10.00">/AliceO2Group/AliceO2</text>
<text text-anchor="start" x="3531" y="-97" font-family="Helvetica,sans-Serif" font-size="10.00">/Detectors/EMCAL/testsimulation</text>
<text text-anchor="middle" x="3605" y="-86" font-family="Helvetica,sans-Serif" font-size="10.00">/run_sim_emcal.C</text>
</a>
</g>
</g>
<!-- Node2&#45;&gt;Node10 -->
<g id="edge10" class="edge"><title>Node2&#45;&gt;Node10</title>
<path fill="none" stroke="midnightblue" d="M2022.69,-168.06C2022.8,-168.04 2022.9,-168.02 2023,-168 2348.32,-104.675 3186.35,-181.928 3514,-132 3516.92,-131.554 3519.89,-131.043 3522.87,-130.477"/>
<polygon fill="midnightblue" stroke="midnightblue" points="2022.05,-164.617 2013.1,-170.29 2023.63,-171.435 2022.05,-164.617"/>
</g>
<!-- Node2&#45;&gt;Node11 -->
<g id="edge11" class="edge"><title>Node2&#45;&gt;Node11</title>
<path fill="none" stroke="midnightblue" d="M1884.93,-193.682C1635.22,-192.119 779.971,-183.074 512,-132 508.886,-131.407 505.727,-130.71 502.555,-129.933"/>
<polygon fill="midnightblue" stroke="midnightblue" points="1884.94,-197.182 1894.96,-193.743 1884.98,-190.182 1884.94,-197.182"/>
</g>
<!-- Node12 -->
<g id="node12" class="node"><title>Node12</title>
<g id="a_node12"><a xlink:href="../../d7/dca/CookedTracker_8cxx.html" target="_top" xlink:title="Implementation of the &quot;Cooked Matrix&quot; ITS tracker. ">
<polygon fill="none" stroke="black" points="3705,-79 3705,-131 3891,-131 3891,-79 3705,-79"/>
<text text-anchor="start" x="3713" y="-119" font-family="Helvetica,sans-Serif" font-size="10.00">/home/travis/build</text>
<text text-anchor="start" x="3713" y="-108" font-family="Helvetica,sans-Serif" font-size="10.00">/AliceO2Group/AliceO2</text>
<text text-anchor="start" x="3713" y="-97" font-family="Helvetica,sans-Serif" font-size="10.00">/Detectors/ITSMFT/ITS</text>
<text text-anchor="middle" x="3798" y="-86" font-family="Helvetica,sans-Serif" font-size="10.00">/reconstruction/src/CookedTracker.cxx</text>
</a>
</g>
</g>
<!-- Node2&#45;&gt;Node12 -->
<g id="edge12" class="edge"><title>Node2&#45;&gt;Node12</title>
<path fill="none" stroke="midnightblue" d="M2022.69,-168.06C2022.8,-168.04 2022.9,-168.02 2023,-168 2388.11,-97.4283 3327.55,-182.252 3696,-132 3698.9,-131.605 3701.83,-131.158 3704.78,-130.666"/>
<polygon fill="midnightblue" stroke="midnightblue" points="2022.05,-164.616 2013.1,-170.28 2023.63,-171.436 2022.05,-164.616"/>
</g>
<!-- Node13 -->
<g id="node13" class="node"><title>Node13</title>
<g id="a_node13"><a xlink:href="../../dd/d56/run__simu_8C.html" target="_top" xlink:title="/home/travis/build\l/AliceO2Group/AliceO2\l/Detectors/ITSMFT/MFT\l/macros/run_simu.C">
<polygon fill="none" stroke="black" points="3908.5,-79 3908.5,-131 4033.5,-131 4033.5,-79 3908.5,-79"/>
<text text-anchor="start" x="3916.5" y="-119" font-family="Helvetica,sans-Serif" font-size="10.00">/home/travis/build</text>
<text text-anchor="start" x="3916.5" y="-108" font-family="Helvetica,sans-Serif" font-size="10.00">/AliceO2Group/AliceO2</text>
<text text-anchor="start" x="3916.5" y="-97" font-family="Helvetica,sans-Serif" font-size="10.00">/Detectors/ITSMFT/MFT</text>
<text text-anchor="middle" x="3971" y="-86" font-family="Helvetica,sans-Serif" font-size="10.00">/macros/run_simu.C</text>
</a>
</g>
</g>
<!-- Node2&#45;&gt;Node13 -->
<g id="edge13" class="edge"><title>Node2&#45;&gt;Node13</title>
<path fill="none" stroke="midnightblue" d="M2022.69,-168.059C2022.8,-168.039 2022.9,-168.02 2023,-168 2432.48,-89.3454 3488.99,-207.823 3899,-132 3902.01,-131.444 3905.05,-130.778 3908.11,-130.027"/>
<polygon fill="midnightblue" stroke="midnightblue" points="2022.05,-164.615 2013.09,-170.27 2023.62,-171.436 2022.05,-164.615"/>
</g>
<!-- Node14 -->
<g id="node14" class="node"><title>Node14</title>
<g id="a_node14"><a xlink:href="../../d0/d6b/ITSMFT_2MFT_2simulation_2src_2Detector_8cxx.html" target="_top" xlink:title="/home/travis/build\l/AliceO2Group/AliceO2\l/Detectors/ITSMFT/MFT\l/simulation/src/Detector.cxx">
<polygon fill="none" stroke="black" points="4052,-79 4052,-131 4192,-131 4192,-79 4052,-79"/>
<text text-anchor="start" x="4060" y="-119" font-family="Helvetica,sans-Serif" font-size="10.00">/home/travis/build</text>
<text text-anchor="start" x="4060" y="-108" font-family="Helvetica,sans-Serif" font-size="10.00">/AliceO2Group/AliceO2</text>
<text text-anchor="start" x="4060" y="-97" font-family="Helvetica,sans-Serif" font-size="10.00">/Detectors/ITSMFT/MFT</text>
<text text-anchor="middle" x="4122" y="-86" font-family="Helvetica,sans-Serif" font-size="10.00">/simulation/src/Detector.cxx</text>
</a>
</g>
</g>
<!-- Node2&#45;&gt;Node14 -->
<g id="edge14" class="edge"><title>Node2&#45;&gt;Node14</title>
<path fill="none" stroke="midnightblue" d="M2022.69,-168.059C2022.8,-168.039 2022.9,-168.02 2023,-168 2463.74,-83.6514 3599.43,-206.162 4042,-132 4045.17,-131.469 4048.38,-130.837 4051.61,-130.126"/>
<polygon fill="midnightblue" stroke="midnightblue" points="2022.06,-164.614 2013.09,-170.265 2023.62,-171.437 2022.06,-164.614"/>
</g>
<!-- Node15 -->
<g id="node15" class="node"><title>Node15</title>
<g id="a_node15"><a xlink:href="../../de/da5/FrameStructure_8cxx.html" target="_top" xlink:title="/home/travis/build\l/AliceO2Group/AliceO2\l/Detectors/Passive/src\l/FrameStructure.cxx">
<polygon fill="none" stroke="black" points="521,-79 521,-131 639,-131 639,-79 521,-79"/>
<text text-anchor="start" x="529" y="-119" font-family="Helvetica,sans-Serif" font-size="10.00">/home/travis/build</text>
<text text-anchor="start" x="529" y="-108" font-family="Helvetica,sans-Serif" font-size="10.00">/AliceO2Group/AliceO2</text>
<text text-anchor="start" x="529" y="-97" font-family="Helvetica,sans-Serif" font-size="10.00">/Detectors/Passive/src</text>
<text text-anchor="middle" x="580" y="-86" font-family="Helvetica,sans-Serif" font-size="10.00">/FrameStructure.cxx</text>
</a>
</g>
</g>
<!-- Node2&#45;&gt;Node15 -->
<g id="edge15" class="edge"><title>Node2&#45;&gt;Node15</title>
<path fill="none" stroke="midnightblue" d="M1884.81,-193.602C1650.4,-191.803 887.584,-182.144 648,-132 645.031,-131.379 642.021,-130.645 639.004,-129.826"/>
<polygon fill="midnightblue" stroke="midnightblue" points="1884.88,-197.103 1894.91,-193.677 1884.93,-190.103 1884.88,-197.103"/>
</g>
<!-- Node16 -->
<g id="node16" class="node"><title>Node16</title>
<g id="a_node16"><a xlink:href="../../d5/d3a/run__sim__phos_8C.html" target="_top" xlink:title="/home/travis/build\l/AliceO2Group/AliceO2\l/Detectors/PHOS/testsimulation\l/run_sim_phos.C">
<polygon fill="none" stroke="black" points="657,-79 657,-131 815,-131 815,-79 657,-79"/>
<text text-anchor="start" x="665" y="-119" font-family="Helvetica,sans-Serif" font-size="10.00">/home/travis/build</text>
<text text-anchor="start" x="665" y="-108" font-family="Helvetica,sans-Serif" font-size="10.00">/AliceO2Group/AliceO2</text>
<text text-anchor="start" x="665" y="-97" font-family="Helvetica,sans-Serif" font-size="10.00">/Detectors/PHOS/testsimulation</text>
<text text-anchor="middle" x="736" y="-86" font-family="Helvetica,sans-Serif" font-size="10.00">/run_sim_phos.C</text>
</a>
</g>
</g>
<!-- Node2&#45;&gt;Node16 -->
<g id="edge16" class="edge"><title>Node2&#45;&gt;Node16</title>
<path fill="none" stroke="midnightblue" d="M1884.78,-192.278C1672.15,-186.661 1030.48,-167.176 825,-132 821.827,-131.457 818.606,-130.84 815.365,-130.164"/>
<polygon fill="midnightblue" stroke="midnightblue" points="1884.79,-195.779 1894.88,-192.543 1884.97,-188.782 1884.79,-195.779"/>
</g>
<!-- Node17 -->
<g id="node17" class="node"><title>Node17</title>
<g id="a_node17"><a xlink:href="../../dd/d2b/o2__sim__its__ALP3_8cxx.html" target="_top" xlink:title="/home/travis/build\l/AliceO2Group/AliceO2\l/Framework/TestWorkflows\l/src/o2_sim_its_ALP3.cxx">
<polygon fill="none" stroke="black" points="833.5,-79 833.5,-131 970.5,-131 970.5,-79 833.5,-79"/>
<text text-anchor="start" x="841.5" y="-119" font-family="Helvetica,sans-Serif" font-size="10.00">/home/travis/build</text>
<text text-anchor="start" x="841.5" y="-108" font-family="Helvetica,sans-Serif" font-size="10.00">/AliceO2Group/AliceO2</text>
<text text-anchor="start" x="841.5" y="-97" font-family="Helvetica,sans-Serif" font-size="10.00">/Framework/TestWorkflows</text>
<text text-anchor="middle" x="902" y="-86" font-family="Helvetica,sans-Serif" font-size="10.00">/src/o2_sim_its_ALP3.cxx</text>
</a>
</g>
</g>
<!-- Node2&#45;&gt;Node17 -->
<g id="edge17" class="edge"><title>Node2&#45;&gt;Node17</title>
<path fill="none" stroke="midnightblue" d="M1884.54,-191.907C1691.89,-185.732 1153.61,-165.867 980,-132 976.918,-131.399 973.789,-130.709 970.645,-129.95"/>
<polygon fill="midnightblue" stroke="midnightblue" points="1884.71,-195.414 1894.82,-192.234 1884.93,-188.418 1884.71,-195.414"/>
</g>
<!-- Node18 -->
<g id="node18" class="node"><title>Node18</title>
<g id="a_node18"><a xlink:href="../../d7/d11/o2__sim__tpc_8cxx.html" target="_top" xlink:title="/home/travis/build\l/AliceO2Group/AliceO2\l/Framework/TestWorkflows\l/src/o2_sim_tpc.cxx">
<polygon fill="none" stroke="black" points="988.5,-79 988.5,-131 1125.5,-131 1125.5,-79 988.5,-79"/>
<text text-anchor="start" x="996.5" y="-119" font-family="Helvetica,sans-Serif" font-size="10.00">/home/travis/build</text>
<text text-anchor="start" x="996.5" y="-108" font-family="Helvetica,sans-Serif" font-size="10.00">/AliceO2Group/AliceO2</text>
<text text-anchor="start" x="996.5" y="-97" font-family="Helvetica,sans-Serif" font-size="10.00">/Framework/TestWorkflows</text>
<text text-anchor="middle" x="1057" y="-86" font-family="Helvetica,sans-Serif" font-size="10.00">/src/o2_sim_tpc.cxx</text>
</a>
</g>
</g>
<!-- Node2&#45;&gt;Node18 -->
<g id="edge18" class="edge"><title>Node2&#45;&gt;Node18</title>
<path fill="none" stroke="midnightblue" d="M1884.68,-194.467C1742.58,-194.178 1408.61,-187.08 1135,-132 1131.92,-131.38 1128.8,-130.675 1125.65,-129.904"/>
<polygon fill="midnightblue" stroke="midnightblue" points="1884.98,-197.968 1894.98,-194.477 1884.99,-190.968 1884.98,-197.968"/>
</g>
<!-- Node19 -->
<g id="node19" class="node"><title>Node19</title>
<g id="a_node19"><a xlink:href="../../d0/d17/initSimGeomAndField_8C.html" target="_top" xlink:title="/home/travis/build\l/AliceO2Group/AliceO2\l/macro/initSimGeomAndField.C">
<polygon fill="none" stroke="black" points="1143.5,-84.5 1143.5,-125.5 1298.5,-125.5 1298.5,-84.5 1143.5,-84.5"/>
<text text-anchor="start" x="1151.5" y="-113.5" font-family="Helvetica,sans-Serif" font-size="10.00">/home/travis/build</text>
<text text-anchor="start" x="1151.5" y="-102.5" font-family="Helvetica,sans-Serif" font-size="10.00">/AliceO2Group/AliceO2</text>
<text text-anchor="middle" x="1221" y="-91.5" font-family="Helvetica,sans-Serif" font-size="10.00">/macro/initSimGeomAndField.C</text>
</a>
</g>
</g>
<!-- Node2&#45;&gt;Node19 -->
<g id="edge19" class="edge"><title>Node2&#45;&gt;Node19</title>
<path fill="none" stroke="midnightblue" d="M1884.59,-191.766C1765.59,-186.953 1515.37,-172.535 1308,-132 1299.18,-130.276 1289.98,-128.031 1280.99,-125.582"/>
<polygon fill="midnightblue" stroke="midnightblue" points="1884.53,-195.266 1894.66,-192.163 1884.81,-188.272 1884.53,-195.266"/>
</g>
<!-- Node20 -->
<g id="node20" class="node"><title>Node20</title>
<g id="a_node20"><a xlink:href="../../d3/db7/run__digi__tpc_8C.html" target="_top" xlink:title="/home/travis/build\l/AliceO2Group/AliceO2\l/macro/run_digi_tpc.C">
<polygon fill="none" stroke="black" points="1453,-84.5 1453,-125.5 1571,-125.5 1571,-84.5 1453,-84.5"/>
<text text-anchor="start" x="1461" y="-113.5" font-family="Helvetica,sans-Serif" font-size="10.00">/home/travis/build</text>
<text text-anchor="start" x="1461" y="-102.5" font-family="Helvetica,sans-Serif" font-size="10.00">/AliceO2Group/AliceO2</text>
<text text-anchor="middle" x="1512" y="-91.5" font-family="Helvetica,sans-Serif" font-size="10.00">/macro/run_digi_tpc.C</text>
</a>
</g>
</g>
<!-- Node2&#45;&gt;Node20 -->
<g id="edge20" class="edge"><title>Node2&#45;&gt;Node20</title>
<path fill="none" stroke="midnightblue" d="M1884.44,-186.565C1808.86,-177.535 1684.99,-159.947 1581,-132 1574.2,-130.173 1567.14,-127.93 1560.24,-125.536"/>
<polygon fill="midnightblue" stroke="midnightblue" points="1884.43,-190.088 1894.77,-187.782 1885.25,-183.136 1884.43,-190.088"/>
</g>
<!-- Node22 -->
<g id="node22" class="node"><title>Node22</title>
<g id="a_node22"><a xlink:href="../../d9/d84/run__match__TPCITS_8C.html" target="_top" xlink:title="/home/travis/build\l/AliceO2Group/AliceO2\l/macro/run_match_TPCITS.C">
<polygon fill="none" stroke="black" points="1589.5,-84.5 1589.5,-125.5 1736.5,-125.5 1736.5,-84.5 1589.5,-84.5"/>
<text text-anchor="start" x="1597.5" y="-113.5" font-family="Helvetica,sans-Serif" font-size="10.00">/home/travis/build</text>
<text text-anchor="start" x="1597.5" y="-102.5" font-family="Helvetica,sans-Serif" font-size="10.00">/AliceO2Group/AliceO2</text>
<text text-anchor="middle" x="1663" y="-91.5" font-family="Helvetica,sans-Serif" font-size="10.00">/macro/run_match_TPCITS.C</text>
</a>
</g>
</g>
<!-- Node2&#45;&gt;Node22 -->
<g id="edge22" class="edge"><title>Node2&#45;&gt;Node22</title>
<path fill="none" stroke="midnightblue" d="M1884.98,-173.689C1844.46,-161.698 1792.27,-146.144 1746,-132 1739.21,-129.926 1732.12,-127.736 1725.06,-125.545"/>
<polygon fill="midnightblue" stroke="midnightblue" points="1884.18,-177.101 1894.76,-176.58 1886.16,-170.388 1884.18,-177.101"/>
</g>
<!-- Node23 -->
<g id="node23" class="node"><title>Node23</title>
<g id="a_node23"><a xlink:href="../../d9/d71/run__sim_8C.html" target="_top" xlink:title="/home/travis/build\l/AliceO2Group/AliceO2\l/macro/run_sim.C">
<polygon fill="none" stroke="black" points="1755,-84.5 1755,-125.5 1873,-125.5 1873,-84.5 1755,-84.5"/>
<text text-anchor="start" x="1763" y="-113.5" font-family="Helvetica,sans-Serif" font-size="10.00">/home/travis/build</text>
<text text-anchor="start" x="1763" y="-102.5" font-family="Helvetica,sans-Serif" font-size="10.00">/AliceO2Group/AliceO2</text>
<text text-anchor="middle" x="1814" y="-91.5" font-family="Helvetica,sans-Serif" font-size="10.00">/macro/run_sim.C</text>
</a>
</g>
</g>
<!-- Node2&#45;&gt;Node23 -->
<g id="edge23" class="edge"><title>Node2&#45;&gt;Node23</title>
<path fill="none" stroke="midnightblue" d="M1905.23,-163.345C1885.32,-150.828 1862.87,-136.719 1845.23,-125.628"/>
<polygon fill="midnightblue" stroke="midnightblue" points="1903.55,-166.424 1913.88,-168.783 1907.28,-160.498 1903.55,-166.424"/>
</g>
<!-- Node24 -->
<g id="node24" class="node"><title>Node24</title>
<g id="a_node24"><a xlink:href="../../db/df3/macro_2run__sim__emcal_8C.html" target="_top" xlink:title="/home/travis/build\l/AliceO2Group/AliceO2\l/macro/run_sim_emcal.C">
<polygon fill="none" stroke="black" points="1891,-84.5 1891,-125.5 2017,-125.5 2017,-84.5 1891,-84.5"/>
<text text-anchor="start" x="1899" y="-113.5" font-family="Helvetica,sans-Serif" font-size="10.00">/home/travis/build</text>
<text text-anchor="start" x="1899" y="-102.5" font-family="Helvetica,sans-Serif" font-size="10.00">/AliceO2Group/AliceO2</text>
<text text-anchor="middle" x="1954" y="-91.5" font-family="Helvetica,sans-Serif" font-size="10.00">/macro/run_sim_emcal.C</text>
</a>
</g>
</g>
<!-- Node2&#45;&gt;Node24 -->
<g id="edge24" class="edge"><title>Node2&#45;&gt;Node24</title>
<path fill="none" stroke="midnightblue" d="M1954,-158.515C1954,-147.257 1954,-135.227 1954,-125.525"/>
<polygon fill="midnightblue" stroke="midnightblue" points="1950.5,-158.547 1954,-168.547 1957.5,-158.547 1950.5,-158.547"/>
</g>
<!-- Node25 -->
<g id="node25" class="node"><title>Node25</title>
<g id="a_node25"><a xlink:href="../../d5/dd2/run__sim__its__ALP3_8C.html" target="_top" xlink:title="/home/travis/build\l/AliceO2Group/AliceO2\l/macro/run_sim_its_ALP3.C">
<polygon fill="none" stroke="black" points="2035,-84.5 2035,-125.5 2175,-125.5 2175,-84.5 2035,-84.5"/>
<text text-anchor="start" x="2043" y="-113.5" font-family="Helvetica,sans-Serif" font-size="10.00">/home/travis/build</text>
<text text-anchor="start" x="2043" y="-102.5" font-family="Helvetica,sans-Serif" font-size="10.00">/AliceO2Group/AliceO2</text>
<text text-anchor="middle" x="2105" y="-91.5" font-family="Helvetica,sans-Serif" font-size="10.00">/macro/run_sim_its_ALP3.C</text>
</a>
</g>
</g>
<!-- Node2&#45;&gt;Node25 -->
<g id="edge25" class="edge"><title>Node2&#45;&gt;Node25</title>
<path fill="none" stroke="midnightblue" d="M2006.02,-163.682C2027.64,-151.081 2052.12,-136.819 2071.32,-125.628"/>
<polygon fill="midnightblue" stroke="midnightblue" points="2004.15,-160.724 1997.27,-168.783 2007.67,-166.771 2004.15,-160.724"/>
</g>
<!-- Node26 -->
<g id="node26" class="node"><title>Node26</title>
<g id="a_node26"><a xlink:href="../../d4/d5f/run__sim__mft_8C.html" target="_top" xlink:title="/home/travis/build\l/AliceO2Group/AliceO2\l/macro/run_sim_mft.C">
<polygon fill="none" stroke="black" points="2193,-84.5 2193,-125.5 2311,-125.5 2311,-84.5 2193,-84.5"/>
<text text-anchor="start" x="2201" y="-113.5" font-family="Helvetica,sans-Serif" font-size="10.00">/home/travis/build</text>
<text text-anchor="start" x="2201" y="-102.5" font-family="Helvetica,sans-Serif" font-size="10.00">/AliceO2Group/AliceO2</text>
<text text-anchor="middle" x="2252" y="-91.5" font-family="Helvetica,sans-Serif" font-size="10.00">/macro/run_sim_mft.C</text>
</a>
</g>
</g>
<!-- Node2&#45;&gt;Node26 -->
<g id="edge26" class="edge"><title>Node2&#45;&gt;Node26</title>
<path fill="none" stroke="midnightblue" d="M2022.7,-168.089C2022.8,-168.06 2022.9,-168.03 2023,-168 2093.26,-147.021 2113.79,-153.149 2184,-132 2190.29,-130.104 2196.84,-127.906 2203.27,-125.606"/>
<polygon fill="midnightblue" stroke="midnightblue" points="2021.77,-164.712 2013.29,-171.056 2023.88,-171.389 2021.77,-164.712"/>
</g>
<!-- Node27 -->
<g id="node27" class="node"><title>Node27</title>
<g id="a_node27"><a xlink:href="../../d3/dcc/run__sim__pythia8hi_8C.html" target="_top" xlink:title="/home/travis/build\l/AliceO2Group/AliceO2\l/macro/run_sim_pythia8hi.C">
<polygon fill="none" stroke="black" points="2329.5,-84.5 2329.5,-125.5 2468.5,-125.5 2468.5,-84.5 2329.5,-84.5"/>
<text text-anchor="start" x="2337.5" y="-113.5" font-family="Helvetica,sans-Serif" font-size="10.00">/home/travis/build</text>
<text text-anchor="start" x="2337.5" y="-102.5" font-family="Helvetica,sans-Serif" font-size="10.00">/AliceO2Group/AliceO2</text>
<text text-anchor="middle" x="2399" y="-91.5" font-family="Helvetica,sans-Serif" font-size="10.00">/macro/run_sim_pythia8hi.C</text>
</a>
</g>
</g>
<!-- Node2&#45;&gt;Node27 -->
<g id="edge27" class="edge"><title>Node2&#45;&gt;Node27</title>
<path fill="none" stroke="midnightblue" d="M2022.7,-168.075C2022.8,-168.05 2022.9,-168.025 2023,-168 2152.14,-136.33 2190.22,-160.924 2320,-132 2327.89,-130.241 2336.11,-128.008 2344.14,-125.591"/>
<polygon fill="midnightblue" stroke="midnightblue" points="2021.91,-164.662 2013.18,-170.67 2023.75,-171.415 2021.91,-164.662"/>
</g>
<!-- Node28 -->
<g id="node28" class="node"><title>Node28</title>
<g id="a_node28"><a xlink:href="../../dc/d6a/run__sim__tof_8C.html" target="_top" xlink:title="/home/travis/build\l/AliceO2Group/AliceO2\l/macro/run_sim_tof.C">
<polygon fill="none" stroke="black" points="2487,-84.5 2487,-125.5 2605,-125.5 2605,-84.5 2487,-84.5"/>
<text text-anchor="start" x="2495" y="-113.5" font-family="Helvetica,sans-Serif" font-size="10.00">/home/travis/build</text>
<text text-anchor="start" x="2495" y="-102.5" font-family="Helvetica,sans-Serif" font-size="10.00">/AliceO2Group/AliceO2</text>
<text text-anchor="middle" x="2546" y="-91.5" font-family="Helvetica,sans-Serif" font-size="10.00">/macro/run_sim_tof.C</text>
</a>
</g>
</g>
<!-- Node2&#45;&gt;Node28 -->
<g id="edge28" class="edge"><title>Node2&#45;&gt;Node28</title>
<path fill="none" stroke="midnightblue" d="M2022.7,-168.068C2022.8,-168.045 2022.9,-168.023 2023,-168 2220.54,-123.879 2279.46,-176.121 2477,-132 2484.37,-130.354 2492.01,-128.085 2499.4,-125.569"/>
<polygon fill="midnightblue" stroke="midnightblue" points="2021.97,-164.642 2013.14,-170.507 2023.7,-171.424 2021.97,-164.642"/>
</g>
<!-- Node29 -->
<g id="node29" class="node"><title>Node29</title>
<g id="a_node29"><a xlink:href="../../d7/d08/run__sim__tpc_8C.html" target="_top" xlink:title="/home/travis/build\l/AliceO2Group/AliceO2\l/macro/run_sim_tpc.C">
<polygon fill="none" stroke="black" points="1317,-84.5 1317,-125.5 1435,-125.5 1435,-84.5 1317,-84.5"/>
<text text-anchor="start" x="1325" y="-113.5" font-family="Helvetica,sans-Serif" font-size="10.00">/home/travis/build</text>
<text text-anchor="start" x="1325" y="-102.5" font-family="Helvetica,sans-Serif" font-size="10.00">/AliceO2Group/AliceO2</text>
<text text-anchor="middle" x="1376" y="-91.5" font-family="Helvetica,sans-Serif" font-size="10.00">/macro/run_sim_tpc.C</text>
</a>
</g>
</g>
<!-- Node2&#45;&gt;Node29 -->
<g id="edge29" class="edge"><title>Node2&#45;&gt;Node29</title>
<path fill="none" stroke="midnightblue" d="M1884.46,-190.924C1785.38,-185.335 1598.47,-170.308 1444,-132 1437.01,-130.266 1429.76,-128.015 1422.71,-125.564"/>
<polygon fill="midnightblue" stroke="midnightblue" points="1884.46,-194.43 1894.64,-191.483 1884.85,-187.44 1884.46,-194.43"/>
</g>
<!-- Node30 -->
<g id="node30" class="node"><title>Node30</title>
<g id="a_node30"><a xlink:href="../../dd/d4e/run__trac__its_8C.html" target="_top" xlink:title="/home/travis/build\l/AliceO2Group/AliceO2\l/macro/run_trac_its.C">
<polygon fill="none" stroke="black" points="2623,-84.5 2623,-125.5 2741,-125.5 2741,-84.5 2623,-84.5"/>
<text text-anchor="start" x="2631" y="-113.5" font-family="Helvetica,sans-Serif" font-size="10.00">/home/travis/build</text>
<text text-anchor="start" x="2631" y="-102.5" font-family="Helvetica,sans-Serif" font-size="10.00">/AliceO2Group/AliceO2</text>
<text text-anchor="middle" x="2682" y="-91.5" font-family="Helvetica,sans-Serif" font-size="10.00">/macro/run_trac_its.C</text>
</a>
</g>
</g>
<!-- Node2&#45;&gt;Node30 -->
<g id="edge31" class="edge"><title>Node2&#45;&gt;Node30</title>
<path fill="none" stroke="midnightblue" d="M2022.69,-168.066C2022.8,-168.044 2022.9,-168.022 2023,-168 2280.34,-112.989 2356.79,-187.634 2614,-132 2621.41,-130.397 2629.09,-128.117 2636.49,-125.565"/>
<polygon fill="midnightblue" stroke="midnightblue" points="2021.99,-164.634 2013.13,-170.435 2023.68,-171.428 2021.99,-164.634"/>
</g>
<!-- Node3&#45;&gt;Node4 -->
<g id="edge3" class="edge"><title>Node3&#45;&gt;Node4</title>
<path fill="none" stroke="midnightblue" d="M2835.85,-69.9541C2840.9,-60.3259 2846.23,-50.1706 2850.67,-41.6965"/>
<polygon fill="midnightblue" stroke="midnightblue" points="2832.68,-68.4701 2831.14,-78.9517 2838.88,-71.721 2832.68,-68.4701"/>
</g>
<!-- Node21 -->
<g id="node21" class="node"><title>Node21</title>
<g id="a_node21"><a xlink:href="../../d3/d56/runTPC_8cxx.html" target="_top" xlink:title="/home/travis/build\l/AliceO2Group/AliceO2\l/run/runTPC.cxx">
<polygon fill="none" stroke="black" points="1385,-0.5 1385,-41.5 1503,-41.5 1503,-0.5 1385,-0.5"/>
<text text-anchor="start" x="1393" y="-29.5" font-family="Helvetica,sans-Serif" font-size="10.00">/home/travis/build</text>
<text text-anchor="start" x="1393" y="-18.5" font-family="Helvetica,sans-Serif" font-size="10.00">/AliceO2Group/AliceO2</text>
<text text-anchor="middle" x="1444" y="-7.5" font-family="Helvetica,sans-Serif" font-size="10.00">/run/runTPC.cxx</text>
</a>
</g>
</g>
<!-- Node20&#45;&gt;Node21 -->
<g id="edge21" class="edge"><title>Node20&#45;&gt;Node21</title>
<path fill="none" stroke="midnightblue" d="M1488.96,-76.2137C1479.55,-64.8686 1468.89,-52.0121 1460.31,-41.6671"/>
<polygon fill="midnightblue" stroke="midnightblue" points="1486.46,-78.6867 1495.54,-84.1501 1491.85,-74.2183 1486.46,-78.6867"/>
</g>
<!-- Node29&#45;&gt;Node21 -->
<g id="edge30" class="edge"><title>Node29&#45;&gt;Node21</title>
<path fill="none" stroke="midnightblue" d="M1399.04,-76.2137C1408.45,-64.8686 1419.11,-52.0121 1427.69,-41.6671"/>
<polygon fill="midnightblue" stroke="midnightblue" points="1396.15,-74.2183 1392.46,-84.1501 1401.54,-78.6867 1396.15,-74.2183"/>
</g>
</g>
</svg>
