<?xml version="1.0" encoding="UTF-8" standalone="no"?>
<!DOCTYPE svg PUBLIC "-//W3C//DTD SVG 1.1//EN"
 "http://www.w3.org/Graphics/SVG/1.1/DTD/svg11.dtd">
<!-- Generated by graphviz version 2.36.0 (20140111.2315)
 -->
<!-- Title: o2::header::NameHeader&lt; N &gt; Pages: 1 -->
<!--zoomable 954 -->
<svg id="main" version="1.1" xmlns="http://www.w3.org/2000/svg" xmlns:xlink="http://www.w3.org/1999/xlink" xml:space="preserve" onload="init(evt)">
<style type="text/css"><![CDATA[
.edge:hover path { stroke: red; }
.edge:hover polygon { stroke: red; fill: red; }
]]></style>
<script type="text/javascript"><![CDATA[
var edges = document.getElementsByTagName('g');
if (edges && edges.length) {
  for (var i=0;i<edges.length;i++) {
    if (edges[i].id.substr(0,4)=='edge') {
      edges[i].setAttribute('class','edge');
    }
  }
}
]]></script>
        <defs>
                <circle id="rim" cx="0" cy="0" r="7"/>
                <circle id="rim2" cx="0" cy="0" r="3.5"/>
                <g id="zoomPlus">
                        <use xlink:href="#rim" fill="#404040">
                                <set attributeName="fill" to="#808080" begin="zoomplus.mouseover" end="zoomplus.mouseout"/>
                        </use>
                        <path d="M-4,0h8M0,-4v8" fill="none" stroke="white" stroke-width="1.5" pointer-events="none"/>
                </g>
                <g id="zoomMin">
                        <use xlink:href="#rim" fill="#404040">
                                <set attributeName="fill" to="#808080" begin="zoomminus.mouseover" end="zoomminus.mouseout"/>
                        </use>
                        <path d="M-4,0h8" fill="none" stroke="white" stroke-width="1.5" pointer-events="none"/>
                </g>
                <g id="dirArrow">
                        <path fill="none" stroke="white" stroke-width="1.5" d="M0,-3.0v7 M-2.5,-0.5L0,-3.0L2.5,-0.5"/>
                </g>
               <g id="resetDef">
                       <use xlink:href="#rim2" fill="#404040">
                               <set attributeName="fill" to="#808080" begin="reset.mouseover" end="reset.mouseout"/>
                       </use>
               </g>
        </defs>

<script type="text/javascript">
var viewWidth = 921;
var viewHeight = 954;
var sectionId = 'dynsection-1';
</script>
<script xlink:href="../../svgpan.js"/>
<svg id="graph" class="graph">
<g id="viewport">
<title>o2::header::NameHeader&lt; N &gt;</title>
<!-- Node1 -->
<g id="node1" class="node"><title>Node1</title>
<polygon fill="#bfbfbf" stroke="black" points="576.922,-1 576.922,-91 728.922,-91 728.922,-1 576.922,-1"/>
<text text-anchor="middle" x="652.922" y="-79" font-family="Helvetica,sans-Serif" font-size="10.00">o2::header::NameHeader&lt; N &gt;</text>
<polyline fill="none" stroke="black" points="576.922,-72 728.922,-72 "/>
<text text-anchor="middle" x="652.922" y="-60" font-family="Helvetica,sans-Serif" font-size="10.00"> </text>
<polyline fill="none" stroke="black" points="576.922,-53 728.922,-53 "/>
<text text-anchor="start" x="584.922" y="-41" font-family="Helvetica,sans-Serif" font-size="10.00">+ NameHeader()</text>
<text text-anchor="start" x="584.922" y="-30" font-family="Helvetica,sans-Serif" font-size="10.00">+ NameHeader()</text>
<text text-anchor="start" x="584.922" y="-19" font-family="Helvetica,sans-Serif" font-size="10.00">+ sHeaderType()</text>
<text text-anchor="start" x="584.922" y="-8" font-family="Helvetica,sans-Serif" font-size="10.00">+ sHeaderType()</text>
</g>
<!-- Node2 -->
<g id="node2" class="node"><title>Node2</title>
<g id="a_node2"><a xlink:href="../../d8/dbd/structo2_1_1header_1_1BaseHeader.html" target="_top" xlink:title="the base header struct Every header type must begin (i.e. derive) with this. Don&#39;t use this struct di...">
<polygon fill="none" stroke="black" points="591.922,-130.5 591.922,-253.5 713.922,-253.5 713.922,-130.5 591.922,-130.5"/>
<text text-anchor="middle" x="652.922" y="-241.5" font-family="Helvetica,sans-Serif" font-size="10.00">o2::header::BaseHeader</text>
<polyline fill="none" stroke="black" points="591.922,-234.5 713.922,-234.5 "/>
<text text-anchor="middle" x="652.922" y="-222.5" font-family="Helvetica,sans-Serif" font-size="10.00"> </text>
<polyline fill="none" stroke="black" points="591.922,-215.5 713.922,-215.5 "/>
<text text-anchor="start" x="599.922" y="-203.5" font-family="Helvetica,sans-Serif" font-size="10.00">+ BaseHeader()</text>
<text text-anchor="start" x="599.922" y="-192.5" font-family="Helvetica,sans-Serif" font-size="10.00">+ BaseHeader()</text>
<text text-anchor="start" x="599.922" y="-181.5" font-family="Helvetica,sans-Serif" font-size="10.00">+ BaseHeader()</text>
<text text-anchor="start" x="599.922" y="-170.5" font-family="Helvetica,sans-Serif" font-size="10.00">+ size()</text>
<text text-anchor="start" x="599.922" y="-159.5" font-family="Helvetica,sans-Serif" font-size="10.00">+ data()</text>
<text text-anchor="start" x="599.922" y="-148.5" font-family="Helvetica,sans-Serif" font-size="10.00">+ next()</text>
<text text-anchor="start" x="599.922" y="-137.5" font-family="Helvetica,sans-Serif" font-size="10.00">+ get()</text>
</a>
</g>
</g>
<!-- Node2&#45;&gt;Node1 -->
<g id="edge1" class="edge"><title>Node2&#45;&gt;Node1</title>
<path fill="none" stroke="midnightblue" d="M652.922,-120.171C652.922,-110.365 652.922,-100.53 652.922,-91.3936"/>
<polygon fill="none" stroke="midnightblue" points="649.422,-120.348 652.922,-130.348 656.422,-120.348 649.422,-120.348"/>
</g>
<!-- Node3 -->
<g id="node3" class="node"><title>Node3</title>
<g id="a_node3"><a xlink:href="../../d9/db3/structo2_1_1header_1_1Descriptor.html" target="_top" xlink:title="{o2::header::Descriptor\l\&lt; gSizeHeaderDescriptionString \&gt;\n||+ Descriptor()\l+ Descriptor()\l+ Descriptor()\l+ Descriptor()\l+ operator=()\l+ operator ItgType()\l+ runtimeInit()\l+ operator==()\l+ operator==()\l+ operator!=()\l+ operator!=()\l+ print()\l}">
<polygon fill="none" stroke="black" points="458.922,-378.5 458.922,-567.5 624.922,-567.5 624.922,-378.5 458.922,-378.5"/>
<text text-anchor="start" x="466.922" y="-555.5" font-family="Helvetica,sans-Serif" font-size="10.00">o2::header::Descriptor</text>
<text text-anchor="middle" x="541.922" y="-544.5" font-family="Helvetica,sans-Serif" font-size="10.00">&lt; gSizeHeaderDescriptionString &gt;</text>
<polyline fill="none" stroke="black" points="458.922,-537.5 624.922,-537.5 "/>
<text text-anchor="middle" x="541.922" y="-525.5" font-family="Helvetica,sans-Serif" font-size="10.00"> </text>
<polyline fill="none" stroke="black" points="458.922,-518.5 624.922,-518.5 "/>
<text text-anchor="start" x="466.922" y="-506.5" font-family="Helvetica,sans-Serif" font-size="10.00">+ Descriptor()</text>
<text text-anchor="start" x="466.922" y="-495.5" font-family="Helvetica,sans-Serif" font-size="10.00">+ Descriptor()</text>
<text text-anchor="start" x="466.922" y="-484.5" font-family="Helvetica,sans-Serif" font-size="10.00">+ Descriptor()</text>
<text text-anchor="start" x="466.922" y="-473.5" font-family="Helvetica,sans-Serif" font-size="10.00">+ Descriptor()</text>
<text text-anchor="start" x="466.922" y="-462.5" font-family="Helvetica,sans-Serif" font-size="10.00">+ operator=()</text>
<text text-anchor="start" x="466.922" y="-451.5" font-family="Helvetica,sans-Serif" font-size="10.00">+ operator ItgType()</text>
<text text-anchor="start" x="466.922" y="-440.5" font-family="Helvetica,sans-Serif" font-size="10.00">+ runtimeInit()</text>
<text text-anchor="start" x="466.922" y="-429.5" font-family="Helvetica,sans-Serif" font-size="10.00">+ operator==()</text>
<text text-anchor="start" x="466.922" y="-418.5" font-family="Helvetica,sans-Serif" font-size="10.00">+ operator==()</text>
<text text-anchor="start" x="466.922" y="-407.5" font-family="Helvetica,sans-Serif" font-size="10.00">+ operator!=()</text>
<text text-anchor="start" x="466.922" y="-396.5" font-family="Helvetica,sans-Serif" font-size="10.00">+ operator!=()</text>
<text text-anchor="start" x="466.922" y="-385.5" font-family="Helvetica,sans-Serif" font-size="10.00">+ print()</text>
</a>
</g>
</g>
<!-- Node3&#45;&gt;Node2 -->
<g id="edge2" class="edge"><title>Node3&#45;&gt;Node2</title>
<path fill="none" stroke="#404040" d="M550.148,-378.265C555.86,-343.536 565.535,-304.683 581.922,-272 583.296,-269.259 584.791,-266.542 586.385,-263.855"/>
<polygon fill="none" stroke="#404040" points="586.46,-263.74 586.364,-256.529 592.983,-253.667 593.079,-260.878 586.46,-263.74"/>
<text text-anchor="middle" x="610.422" y="-313.5" font-family="Helvetica,sans-Serif" font-size="10.00"> +description</text>
</g>
<!-- Node4 -->
<g id="node4" class="node"><title>Node4</title>
<polygon fill="none" stroke="#bfbfbf" points="644.422,-887 644.422,-945 673.422,-945 673.422,-887 644.422,-887"/>
<polyline fill="none" stroke="#bfbfbf" points="644.422,-925 673.422,-925 "/>
<text text-anchor="middle" x="658.922" y="-913" font-family="Helvetica,sans-Serif" font-size="10.00"> </text>
<polyline fill="none" stroke="#bfbfbf" points="644.422,-906 673.422,-906 "/>
<text text-anchor="middle" x="658.922" y="-894" font-family="Helvetica,sans-Serif" font-size="10.00"> </text>
</g>
<!-- Node4&#45;&gt;Node2 -->
<g id="edge12" class="edge"><title>Node4&#45;&gt;Node2</title>
<path fill="none" stroke="#404040" d="M673.308,-886.83C682.364,-867.468 693.201,-840.864 697.922,-816 735.237,-619.467 695.408,-382.68 670.237,-265.702"/>
<polygon fill="none" stroke="#404040" points="670.185,-265.464 664.997,-260.456 667.624,-253.74 672.813,-258.748 670.185,-265.464"/>
<text text-anchor="middle" x="725.422" y="-594.5" font-family="Helvetica,sans-Serif" font-size="10.00"> +@8</text>
</g>
<!-- Node4&#45;&gt;Node2 -->
<g id="edge13" class="edge"><title>Node4&#45;&gt;Node2</title>
<path fill="none" stroke="#404040" d="M673.745,-901.827C682.913,-893.013 694.339,-880.733 701.922,-868 714.435,-846.987 714.829,-839.92 719.922,-816 760.463,-625.593 745.978,-570.341 715.922,-378 708.493,-330.462 710.044,-317.334 693.922,-272 693.126,-269.762 692.277,-267.507 691.386,-265.246"/>
<polygon fill="none" stroke="#404040" points="691.279,-264.994 685.261,-261.022 686.612,-253.939 692.631,-257.911 691.279,-264.994"/>
<text text-anchor="middle" x="760.422" y="-594.5" font-family="Helvetica,sans-Serif" font-size="10.00"> +@10</text>
</g>
<!-- Node4&#45;&gt;Node3 -->
<g id="edge3" class="edge"><title>Node4&#45;&gt;Node3</title>
<path fill="none" stroke="#404040" d="M660.776,-886.967C665.518,-812.419 676.9,-613.106 664.922,-586 657.549,-569.314 646.326,-554.044 633.602,-540.507"/>
<polygon fill="none" stroke="#404040" points="633.49,-540.393 626.426,-538.942 625.049,-531.864 632.113,-533.315 633.49,-540.393"/>
<text text-anchor="middle" x="683.422" y="-718.5" font-family="Helvetica,sans-Serif" font-size="10.00"> +@6</text>
</g>
<!-- Node8 -->
<g id="node8" class="node"><title>Node8</title>
<g id="a_node8"><a xlink:href="../../d9/db3/structo2_1_1header_1_1Descriptor.html" target="_top" xlink:title="{o2::header::Descriptor\l\&lt; N, PrinterPolicy \&gt;\n||+ Descriptor()\l+ Descriptor()\l+ Descriptor()\l+ operator=()\l+ operator ItgType()\l+ Descriptor()\l+ runtimeInit()\l+ operator==()\l+ operator!=()\l+ operator==()\l+ operator!=()\l+ print()\l}">
<polygon fill="none" stroke="black" points="230.422,-626.5 230.422,-815.5 343.422,-815.5 343.422,-626.5 230.422,-626.5"/>
<text text-anchor="start" x="238.422" y="-803.5" font-family="Helvetica,sans-Serif" font-size="10.00">o2::header::Descriptor</text>
<text text-anchor="middle" x="286.922" y="-792.5" font-family="Helvetica,sans-Serif" font-size="10.00">&lt; N, PrinterPolicy &gt;</text>
<polyline fill="none" stroke="black" points="230.422,-785.5 343.422,-785.5 "/>
<text text-anchor="middle" x="286.922" y="-773.5" font-family="Helvetica,sans-Serif" font-size="10.00"> </text>
<polyline fill="none" stroke="black" points="230.422,-766.5 343.422,-766.5 "/>
<text text-anchor="start" x="238.422" y="-754.5" font-family="Helvetica,sans-Serif" font-size="10.00">+ Descriptor()</text>
<text text-anchor="start" x="238.422" y="-743.5" font-family="Helvetica,sans-Serif" font-size="10.00">+ Descriptor()</text>
<text text-anchor="start" x="238.422" y="-732.5" font-family="Helvetica,sans-Serif" font-size="10.00">+ Descriptor()</text>
<text text-anchor="start" x="238.422" y="-721.5" font-family="Helvetica,sans-Serif" font-size="10.00">+ operator=()</text>
<text text-anchor="start" x="238.422" y="-710.5" font-family="Helvetica,sans-Serif" font-size="10.00">+ operator ItgType()</text>
<text text-anchor="start" x="238.422" y="-699.5" font-family="Helvetica,sans-Serif" font-size="10.00">+ Descriptor()</text>
<text text-anchor="start" x="238.422" y="-688.5" font-family="Helvetica,sans-Serif" font-size="10.00">+ runtimeInit()</text>
<text text-anchor="start" x="238.422" y="-677.5" font-family="Helvetica,sans-Serif" font-size="10.00">+ operator==()</text>
<text text-anchor="start" x="238.422" y="-666.5" font-family="Helvetica,sans-Serif" font-size="10.00">+ operator!=()</text>
<text text-anchor="start" x="238.422" y="-655.5" font-family="Helvetica,sans-Serif" font-size="10.00">+ operator==()</text>
<text text-anchor="start" x="238.422" y="-644.5" font-family="Helvetica,sans-Serif" font-size="10.00">+ operator!=()</text>
<text text-anchor="start" x="238.422" y="-633.5" font-family="Helvetica,sans-Serif" font-size="10.00">+ print()</text>
</a>
</g>
</g>
<!-- Node4&#45;&gt;Node8 -->
<g id="edge8" class="edge"><title>Node4&#45;&gt;Node8</title>
<path fill="none" stroke="#404040" d="M644.199,-910.721C587.14,-894.064 382.532,-833.6 357.922,-816 356.206,-814.773 354.514,-813.493 352.845,-812.165"/>
<polygon fill="none" stroke="#404040" points="352.611,-811.961 345.459,-811.041 343.557,-804.085 350.709,-805.005 352.611,-811.961"/>
<text text-anchor="middle" x="515.422" y="-848.5" font-family="Helvetica,sans-Serif" font-size="10.00"> +@6</text>
</g>
<!-- Node9 -->
<g id="node9" class="node"><title>Node9</title>
<g id="a_node9"><a xlink:href="../../d9/db3/structo2_1_1header_1_1Descriptor.html" target="_top" xlink:title="{o2::header::Descriptor\l\&lt; gSizeSerializationMethodString \&gt;\n||+ Descriptor()\l+ Descriptor()\l+ Descriptor()\l+ Descriptor()\l+ operator=()\l+ operator ItgType()\l+ runtimeInit()\l+ operator==()\l+ operator==()\l+ operator!=()\l+ operator!=()\l+ print()\l}">
<polygon fill="none" stroke="black" points="270.922,-378.5 270.922,-567.5 440.922,-567.5 440.922,-378.5 270.922,-378.5"/>
<text text-anchor="start" x="278.922" y="-555.5" font-family="Helvetica,sans-Serif" font-size="10.00">o2::header::Descriptor</text>
<text text-anchor="middle" x="355.922" y="-544.5" font-family="Helvetica,sans-Serif" font-size="10.00">&lt; gSizeSerializationMethodString &gt;</text>
<polyline fill="none" stroke="black" points="270.922,-537.5 440.922,-537.5 "/>
<text text-anchor="middle" x="355.922" y="-525.5" font-family="Helvetica,sans-Serif" font-size="10.00"> </text>
<polyline fill="none" stroke="black" points="270.922,-518.5 440.922,-518.5 "/>
<text text-anchor="start" x="278.922" y="-506.5" font-family="Helvetica,sans-Serif" font-size="10.00">+ Descriptor()</text>
<text text-anchor="start" x="278.922" y="-495.5" font-family="Helvetica,sans-Serif" font-size="10.00">+ Descriptor()</text>
<text text-anchor="start" x="278.922" y="-484.5" font-family="Helvetica,sans-Serif" font-size="10.00">+ Descriptor()</text>
<text text-anchor="start" x="278.922" y="-473.5" font-family="Helvetica,sans-Serif" font-size="10.00">+ Descriptor()</text>
<text text-anchor="start" x="278.922" y="-462.5" font-family="Helvetica,sans-Serif" font-size="10.00">+ operator=()</text>
<text text-anchor="start" x="278.922" y="-451.5" font-family="Helvetica,sans-Serif" font-size="10.00">+ operator ItgType()</text>
<text text-anchor="start" x="278.922" y="-440.5" font-family="Helvetica,sans-Serif" font-size="10.00">+ runtimeInit()</text>
<text text-anchor="start" x="278.922" y="-429.5" font-family="Helvetica,sans-Serif" font-size="10.00">+ operator==()</text>
<text text-anchor="start" x="278.922" y="-418.5" font-family="Helvetica,sans-Serif" font-size="10.00">+ operator==()</text>
<text text-anchor="start" x="278.922" y="-407.5" font-family="Helvetica,sans-Serif" font-size="10.00">+ operator!=()</text>
<text text-anchor="start" x="278.922" y="-396.5" font-family="Helvetica,sans-Serif" font-size="10.00">+ operator!=()</text>
<text text-anchor="start" x="278.922" y="-385.5" font-family="Helvetica,sans-Serif" font-size="10.00">+ print()</text>
</a>
</g>
</g>
<!-- Node4&#45;&gt;Node9 -->
<g id="edge16" class="edge"><title>Node4&#45;&gt;Node9</title>
<path fill="none" stroke="#404040" d="M649.361,-886.941C624.328,-815.042 555.324,-626.977 504.922,-586 487.46,-571.803 475.226,-578.976 451.881,-568.122"/>
<polygon fill="none" stroke="#404040" points="451.677,-568.011 444.493,-568.641 441.149,-562.252 448.332,-561.622 451.677,-568.011"/>
<text text-anchor="middle" x="635.422" y="-718.5" font-family="Helvetica,sans-Serif" font-size="10.00"> +@6</text>
</g>
<!-- Node5 -->
<g id="node5" class="node"><title>Node5</title>
<polygon fill="none" stroke="#bfbfbf" points="270.922,-887.5 270.922,-944.5 308.922,-944.5 308.922,-887.5 270.922,-887.5"/>
<text text-anchor="middle" x="289.922" y="-932.5" font-family="Helvetica,sans-Serif" font-size="10.00">Type</text>
<polyline fill="none" stroke="#bfbfbf" points="270.922,-925.5 308.922,-925.5 "/>
<text text-anchor="middle" x="289.922" y="-913.5" font-family="Helvetica,sans-Serif" font-size="10.00"> </text>
<polyline fill="none" stroke="#bfbfbf" points="270.922,-906.5 308.922,-906.5 "/>
<text text-anchor="middle" x="289.922" y="-894.5" font-family="Helvetica,sans-Serif" font-size="10.00"> </text>
</g>
<!-- Node5&#45;&gt;Node3 -->
<g id="edge4" class="edge"><title>Node5&#45;&gt;Node3</title>
<path fill="none" stroke="#404040" d="M309.004,-904.849C324.726,-896.071 347.231,-882.534 364.922,-868 380.956,-854.827 382.472,-848.894 396.922,-834 404.8,-825.88 409.533,-825.948 414.922,-816 456.025,-740.122 394.763,-687.87 454.922,-626 478.819,-601.423 507.518,-633.945 529.922,-608 537.076,-599.715 542.012,-589.973 545.304,-579.585"/>
<polygon fill="none" stroke="#404040" points="545.389,-579.254 542.994,-572.452 548.352,-567.626 550.746,-574.428 545.389,-579.254"/>
<text text-anchor="middle" x="464.922" y="-718.5" font-family="Helvetica,sans-Serif" font-size="10.00"> +itg</text>
</g>
<!-- Node5&#45;&gt;Node8 -->
<g id="edge9" class="edge"><title>Node5&#45;&gt;Node8</title>
<path fill="none" stroke="#404040" d="M289.492,-887.348C289.243,-871.342 288.912,-850.063 288.571,-828.114"/>
<polygon fill="none" stroke="#404040" points="288.568,-827.879 284.475,-821.942 288.381,-815.881 292.474,-821.818 288.568,-827.879"/>
<text text-anchor="middle" x="299.922" y="-848.5" font-family="Helvetica,sans-Serif" font-size="10.00"> +itg</text>
</g>
<!-- Node5&#45;&gt;Node9 -->
<g id="edge17" class="edge"><title>Node5&#45;&gt;Node9</title>
<path fill="none" stroke="#404040" d="M270.798,-910.862C233.181,-901.548 150.486,-874.978 118.922,-816 79.076,-741.547 72.7623,-696.712 118.922,-626 155.289,-570.289 200.647,-603.488 256.922,-568 258.075,-567.273 259.225,-566.531 260.374,-565.776"/>
<polygon fill="none" stroke="#404040" points="260.786,-565.49 263.425,-558.779 270.635,-558.634 267.995,-565.345 260.786,-565.49"/>
<text text-anchor="middle" x="128.922" y="-718.5" font-family="Helvetica,sans-Serif" font-size="10.00"> +itg</text>
</g>
<!-- Node6 -->
<g id="node6" class="node"><title>Node6</title>
<polygon fill="none" stroke="#bfbfbf" points="430.422,-887.5 430.422,-944.5 465.422,-944.5 465.422,-887.5 430.422,-887.5"/>
<text text-anchor="middle" x="447.922" y="-932.5" font-family="Helvetica,sans-Serif" font-size="10.00">char</text>
<polyline fill="none" stroke="#bfbfbf" points="430.422,-925.5 465.422,-925.5 "/>
<text text-anchor="middle" x="447.922" y="-913.5" font-family="Helvetica,sans-Serif" font-size="10.00"> </text>
<polyline fill="none" stroke="#bfbfbf" points="430.422,-906.5 465.422,-906.5 "/>
<text text-anchor="middle" x="447.922" y="-894.5" font-family="Helvetica,sans-Serif" font-size="10.00"> </text>
</g>
<!-- Node6&#45;&gt;Node2 -->
<g id="edge14" class="edge"><title>Node6&#45;&gt;Node2</title>
<path fill="none" stroke="#404040" d="M465.581,-907.992C496.124,-894.888 558.46,-863.622 588.922,-816 646.207,-726.444 653.319,-410.188 653.484,-265.826"/>
<polygon fill="none" stroke="#404040" points="653.484,-265.651 649.483,-259.652 653.482,-253.651 657.483,-259.65 653.484,-265.651"/>
<text text-anchor="middle" x="670.422" y="-594.5" font-family="Helvetica,sans-Serif" font-size="10.00"> +magicString</text>
</g>
<!-- Node6&#45;&gt;Node3 -->
<g id="edge5" class="edge"><title>Node6&#45;&gt;Node3</title>
<path fill="none" stroke="#404040" d="M465.676,-892.729C470.764,-885.264 475.779,-876.634 478.922,-868 515.96,-766.259 440.23,-711.295 506.922,-626 520.956,-608.051 541.944,-626.727 554.922,-608 560.855,-599.439 564.328,-589.798 566.018,-579.713"/>
<polygon fill="none" stroke="#404040" points="566.025,-579.647 562.645,-573.278 567.224,-567.707 570.604,-574.077 566.025,-579.647"/>
<text text-anchor="middle" x="517.422" y="-718.5" font-family="Helvetica,sans-Serif" font-size="10.00"> +str</text>
</g>
<!-- Node6&#45;&gt;Node8 -->
<g id="edge10" class="edge"><title>Node6&#45;&gt;Node8</title>
<path fill="none" stroke="#404040" d="M430.122,-907.694C412.823,-899.896 386.639,-886.165 368.922,-868 356.882,-855.656 346.02,-841.195 336.435,-826.26"/>
<polygon fill="none" stroke="#404040" points="336.318,-826.071 329.76,-823.072 330.005,-815.865 336.563,-818.864 336.318,-826.071"/>
<text text-anchor="middle" x="379.422" y="-848.5" font-family="Helvetica,sans-Serif" font-size="10.00"> +str</text>
</g>
<!-- Node6&#45;&gt;Node9 -->
<g id="edge18" class="edge"><title>Node6&#45;&gt;Node9</title>
<path fill="none" stroke="#404040" d="M430.3,-890.328C417.624,-871.089 401.483,-843.159 393.922,-816 372.382,-738.634 362.986,-648.216 358.919,-579.786"/>
<polygon fill="none" stroke="#404040" points="358.914,-579.687 354.584,-573.92 358.243,-567.706 362.572,-573.473 358.914,-579.687"/>
<text text-anchor="middle" x="404.422" y="-718.5" font-family="Helvetica,sans-Serif" font-size="10.00"> +str</text>
</g>
<!-- Node7 -->
<g id="node7" class="node"><title>Node7</title>
<polygon fill="none" stroke="#bfbfbf" points="143.422,-887.5 143.422,-944.5 172.422,-944.5 172.422,-887.5 143.422,-887.5"/>
<text text-anchor="middle" x="157.922" y="-932.5" font-family="Helvetica,sans-Serif" font-size="10.00">int</text>
<polyline fill="none" stroke="#bfbfbf" points="143.422,-925.5 172.422,-925.5 "/>
<text text-anchor="middle" x="157.922" y="-913.5" font-family="Helvetica,sans-Serif" font-size="10.00"> </text>
<polyline fill="none" stroke="#bfbfbf" points="143.422,-906.5 172.422,-906.5 "/>
<text text-anchor="middle" x="157.922" y="-894.5" font-family="Helvetica,sans-Serif" font-size="10.00"> </text>
</g>
<!-- Node7&#45;&gt;Node3 -->
<g id="edge6" class="edge"><title>Node7&#45;&gt;Node3</title>
<path fill="none" stroke="#404040" d="M152.67,-887.232C143.936,-833.943 130.983,-714.752 169.922,-626 219.435,-513.145 327.87,-615.042 447.549,-568.23"/>
<polygon fill="none" stroke="#404040" points="447.763,-568.138 451.697,-562.094 458.789,-563.4 454.855,-569.444 447.763,-568.138"/>
<text text-anchor="middle" x="195.422" y="-729.5" font-family="Helvetica,sans-Serif" font-size="10.00"> +arraySize</text>
<text text-anchor="middle" x="195.422" y="-718.5" font-family="Helvetica,sans-Serif" font-size="10.00">+size</text>
<text text-anchor="middle" x="195.422" y="-707.5" font-family="Helvetica,sans-Serif" font-size="10.00">+bitcount</text>
</g>
<!-- Node7&#45;&gt;Node8 -->
<g id="edge11" class="edge"><title>Node7&#45;&gt;Node8</title>
<path fill="none" stroke="#404040" d="M172.469,-893.236C185.142,-874.276 204.443,-845.398 223.605,-816.729"/>
<polygon fill="none" stroke="#404040" points="223.698,-816.591 223.706,-809.38 230.366,-806.614 230.358,-813.825 223.698,-816.591"/>
<text text-anchor="middle" x="236.422" y="-859.5" font-family="Helvetica,sans-Serif" font-size="10.00"> +arraySize</text>
<text text-anchor="middle" x="236.422" y="-848.5" font-family="Helvetica,sans-Serif" font-size="10.00">+size</text>
<text text-anchor="middle" x="236.422" y="-837.5" font-family="Helvetica,sans-Serif" font-size="10.00">+bitcount</text>
</g>
<!-- Node7&#45;&gt;Node9 -->
<g id="edge19" class="edge"><title>Node7&#45;&gt;Node9</title>
<path fill="none" stroke="#404040" d="M143.049,-908.738C115.089,-896.037 55.3925,-864.29 31.9218,-816 -4.99202,-740.051 -15.4202,-695.926 31.9218,-626 89.8174,-540.486 163.99,-613.035 256.922,-568 257.948,-567.503 258.971,-566.991 259.99,-566.465"/>
<polygon fill="none" stroke="#404040" points="260.323,-566.275 263.558,-559.83 270.751,-560.337 267.516,-566.782 260.323,-566.275"/>
<text text-anchor="middle" x="57.4218" y="-729.5" font-family="Helvetica,sans-Serif" font-size="10.00"> +arraySize</text>
<text text-anchor="middle" x="57.4218" y="-718.5" font-family="Helvetica,sans-Serif" font-size="10.00">+size</text>
<text text-anchor="middle" x="57.4218" y="-707.5" font-family="Helvetica,sans-Serif" font-size="10.00">+bitcount</text>
</g>
<!-- Node8&#45;&gt;Node1 -->
<g id="edge24" class="edge"><title>Node8&#45;&gt;Node1</title>
<path fill="none" stroke="#404040" d="M230.389,-630.494C228.605,-628.93 226.783,-627.429 224.922,-626 204.855,-610.595 192.357,-621.436 170.922,-608 149.884,-594.813 142.636,-590.399 131.922,-568 74.9505,-448.901 33.4736,-381.707 106.922,-272 209.592,-118.645 437.829,-69.7086 564.287,-54.1688"/>
<polygon fill="none" stroke="#404040" points="564.655,-54.1256 570.147,-49.4525 576.573,-52.7248 571.081,-57.3979 564.655,-54.1256"/>
<text text-anchor="middle" x="155.422" y="-319" font-family="Helvetica,sans-Serif" font-size="10.00"> +sHeaderType</text>
<text text-anchor="middle" x="155.422" y="-308" font-family="Helvetica,sans-Serif" font-size="10.00">+sSerializationMethod</text>
</g>
<!-- Node8&#45;&gt;Node2 -->
<g id="edge22" class="edge"><title>Node8&#45;&gt;Node2</title>
<path fill="none" stroke="#404040" d="M230.245,-643.947C225.455,-637.832 220.639,-631.785 215.922,-626 194.229,-599.397 177.034,-600.118 164.922,-568 135.124,-488.988 118.138,-448.301 164.922,-378 176.4,-360.752 188.833,-368.053 207.922,-360 300.03,-321.143 321.405,-307.331 414.922,-272 469.737,-251.29 532.701,-230.52 580.094,-215.477"/>
<polygon fill="none" stroke="#404040" points="580.351,-215.396 584.866,-209.774 591.793,-211.78 587.277,-217.402 580.351,-215.396"/>
<text text-anchor="middle" x="213.422" y="-476" font-family="Helvetica,sans-Serif" font-size="10.00"> +sHeaderType</text>
<text text-anchor="middle" x="213.422" y="-465" font-family="Helvetica,sans-Serif" font-size="10.00">+sSerializationMethod</text>
</g>
<!-- Node8&#45;&gt;Node3 -->
<g id="edge7" class="edge"><title>Node8&#45;&gt;Node3</title>
<path fill="none" stroke="orange" d="M350.78,-633.357C353.141,-630.834 355.525,-628.375 357.922,-626 379.14,-604.98 386.304,-601.355 411.922,-586 427.951,-576.393 434.704,-578.847 449.922,-568 452.897,-565.879 455.86,-563.657 458.8,-561.353"/>
<polygon fill="orange" stroke="orange" points="347.89,-631.334 343.772,-641.096 353.079,-636.033 347.89,-631.334"/>
<text text-anchor="start" x="411.922" y="-600" font-family="Helvetica,sans-Serif" font-size="10.00"> &lt; gSizeHeaderDescription</text>
<text text-anchor="middle" x="470.922" y="-589" font-family="Helvetica,sans-Serif" font-size="10.00">String &gt;</text>
</g>
<!-- Node8&#45;&gt;Node9 -->
<g id="edge20" class="edge"><title>Node8&#45;&gt;Node9</title>
<path fill="none" stroke="orange" d="M225.377,-631.83C215.343,-612.554 209.929,-595.175 215.922,-586 226.804,-569.338 240.348,-579.016 256.922,-568 261.56,-564.917 266.182,-561.608 270.75,-558.14"/>
<polygon fill="orange" stroke="orange" points="222.415,-633.708 230.289,-640.798 228.555,-630.346 222.415,-633.708"/>
<text text-anchor="start" x="215.922" y="-600" font-family="Helvetica,sans-Serif" font-size="10.00"> &lt; gSizeSerializationMethod</text>
<text text-anchor="middle" x="277.422" y="-589" font-family="Helvetica,sans-Serif" font-size="10.00">String &gt;</text>
</g>
<!-- Node9&#45;&gt;Node2 -->
<g id="edge15" class="edge"><title>Node9&#45;&gt;Node2</title>
<path fill="none" stroke="#404040" d="M404.348,-378.457C426.694,-341.849 455.864,-301.624 489.922,-272 516.221,-249.124 550.303,-231.248 580.498,-218.33"/>
<polygon fill="none" stroke="#404040" points="580.771,-218.217 584.782,-212.225 591.856,-213.622 587.845,-219.615 580.771,-218.217"/>
<text text-anchor="middle" x="520.422" y="-313.5" font-family="Helvetica,sans-Serif" font-size="10.00"> +serialization</text>
</g>
<!-- Node10 -->
<g id="node10" class="node"><title>Node10</title>
<polygon fill="none" stroke="#bfbfbf" points="825.422,-444.5 825.422,-501.5 876.422,-501.5 876.422,-444.5 825.422,-444.5"/>
<text text-anchor="middle" x="850.922" y="-489.5" font-family="Helvetica,sans-Serif" font-size="10.00">uint32_t</text>
<polyline fill="none" stroke="#bfbfbf" points="825.422,-482.5 876.422,-482.5 "/>
<text text-anchor="middle" x="850.922" y="-470.5" font-family="Helvetica,sans-Serif" font-size="10.00"> </text>
<polyline fill="none" stroke="#bfbfbf" points="825.422,-463.5 876.422,-463.5 "/>
<text text-anchor="middle" x="850.922" y="-451.5" font-family="Helvetica,sans-Serif" font-size="10.00"> </text>
</g>
<!-- Node10&#45;&gt;Node1 -->
<g id="edge23" class="edge"><title>Node10&#45;&gt;Node1</title>
<path fill="none" stroke="#404040" d="M862.34,-444.319C876.923,-404.616 897.604,-329.907 873.922,-272 844.569,-200.226 780.057,-139.005 728.27,-98.6264"/>
<polygon fill="none" stroke="#404040" points="727.952,-98.3827 720.757,-97.9068 718.429,-91.0818 725.624,-91.5578 727.952,-98.3827"/>
<text text-anchor="middle" x="888.922" y="-189.5" font-family="Helvetica,sans-Serif" font-size="10.00"> +sVersion</text>
</g>
<!-- Node10&#45;&gt;Node2 -->
<g id="edge21" class="edge"><title>Node10&#45;&gt;Node2</title>
<path fill="none" stroke="#404040" d="M834.662,-444.227C822.187,-422.017 805.239,-389.776 793.922,-360 779.56,-322.212 794.352,-304.942 770.922,-272 758.798,-254.954 741.748,-240.529 724.37,-228.861"/>
<polygon fill="none" stroke="#404040" points="724.242,-228.779 717.032,-228.913 714.134,-222.31 721.344,-222.175 724.242,-228.779"/>
<text text-anchor="middle" x="833.922" y="-352" font-family="Helvetica,sans-Serif" font-size="10.00"> +headerVersion</text>
<text text-anchor="middle" x="833.922" y="-341" font-family="Helvetica,sans-Serif" font-size="10.00">+headerSize</text>
<text text-anchor="middle" x="833.922" y="-330" font-family="Helvetica,sans-Serif" font-size="10.00">+sMagicString</text>
<text text-anchor="middle" x="833.922" y="-319" font-family="Helvetica,sans-Serif" font-size="10.00">+flagsNextHeader</text>
<text text-anchor="middle" x="833.922" y="-308" font-family="Helvetica,sans-Serif" font-size="10.00">+magicStringInt</text>
<text text-anchor="middle" x="833.922" y="-297" font-family="Helvetica,sans-Serif" font-size="10.00">+flagsUnused</text>
<text text-anchor="middle" x="833.922" y="-286" font-family="Helvetica,sans-Serif" font-size="10.00">+flags</text>
<text text-anchor="middle" x="833.922" y="-275" font-family="Helvetica,sans-Serif" font-size="10.00">+sVersion</text>
</g>
</g>
</svg>
        <g id="navigator" transform="translate(0 0)" fill="#404254">
                <rect fill="#f2f5e9" fill-opacity="0.5" stroke="#606060" stroke-width=".5" x="0" y="0" width="60" height="60"/>
                <use id="zoomplus" xlink:href="#zoomPlus" x="17" y="9" onmousedown="handleZoom(evt,'in')"/>
                <use id="zoomminus" xlink:href="#zoomMin" x="42" y="9" onmousedown="handleZoom(evt,'out')"/>
                <use id="reset" xlink:href="#resetDef" x="30" y="36" onmousedown="handleReset()"/>
                <g id="arrowUp" xlink:href="#dirArrow" transform="translate(30 24)" onmousedown="handlePan(0,-1)">
                  <use xlink:href="#rim" fill="#404040">
                        <set attributeName="fill" to="#808080" begin="arrowUp.mouseover" end="arrowUp.mouseout"/>
                  </use>
                  <path fill="none" stroke="white" stroke-width="1.5" d="M0,-3.0v7 M-2.5,-0.5L0,-3.0L2.5,-0.5"/>
                </g>
                <g id="arrowRight" xlink:href="#dirArrow" transform="rotate(90) translate(36 -43)" onmousedown="handlePan(1,0)">
                  <use xlink:href="#rim" fill="#404040">
                        <set attributeName="fill" to="#808080" begin="arrowRight.mouseover" end="arrowRight.mouseout"/>
                  </use>
                  <path fill="none" stroke="white" stroke-width="1.5" d="M0,-3.0v7 M-2.5,-0.5L0,-3.0L2.5,-0.5"/>
                </g>
                <g id="arrowDown" xlink:href="#dirArrow" transform="rotate(180) translate(-30 -48)" onmousedown="handlePan(0,1)">
                  <use xlink:href="#rim" fill="#404040">
                        <set attributeName="fill" to="#808080" begin="arrowDown.mouseover" end="arrowDown.mouseout"/>
                  </use>
                  <path fill="none" stroke="white" stroke-width="1.5" d="M0,-3.0v7 M-2.5,-0.5L0,-3.0L2.5,-0.5"/>
                </g>
                <g id="arrowLeft" xlink:href="#dirArrow" transform="rotate(270) translate(-36 17)" onmousedown="handlePan(-1,0)">
                  <use xlink:href="#rim" fill="#404040">
                        <set attributeName="fill" to="#808080" begin="arrowLeft.mouseover" end="arrowLeft.mouseout"/>
                  </use>
                  <path fill="none" stroke="white" stroke-width="1.5" d="M0,-3.0v7 M-2.5,-0.5L0,-3.0L2.5,-0.5"/>
                </g>
        </g>
        <svg viewBox="0 0 15 15" width="100%" height="30px" preserveAspectRatio="xMaxYMin meet">
         <g id="arrow_out" transform="scale(0.3 0.3)">
          <a xlink:href="structo2_1_1header_1_1NameHeader__coll__graph_org.svg" target="_base">
           <rect id="button" ry="5" rx="5" y="6" x="6" height="38" width="38"
                fill="#f2f5e9" fill-opacity="0.5" stroke="#606060" stroke-width="1.0"/>
           <path id="arrow"
             d="M 11.500037,31.436501 C 11.940474,20.09759 22.043105,11.32322 32.158766,21.979434 L 37.068811,17.246167 C 37.068811,17.246167 37.088388,32 37.088388,32 L 22.160133,31.978069 C 22.160133,31.978069 26.997745,27.140456 26.997745,27.140456 C 18.528582,18.264221 13.291696,25.230495 11.500037,31.436501 z"
             style="fill:#404040;"/>
          </a>
         </g>
        </svg>
</svg>
