<?xml version="1.0" encoding="UTF-8" standalone="no"?>
<!DOCTYPE svg PUBLIC "-//W3C//DTD SVG 1.1//EN"
 "http://www.w3.org/Graphics/SVG/1.1/DTD/svg11.dtd">
<!-- Generated by graphviz version 2.36.0 (20140111.2315)
 -->
<!-- Title: /home/travis/build/AliceO2Group/AliceO2/Detectors/ITSMFT/common/simulation Pages: 1 -->
<svg width="278pt" height="303pt"
 viewBox="0.00 0.00 278.00 303.00" xmlns="http://www.w3.org/2000/svg" xmlns:xlink="http://www.w3.org/1999/xlink">
<g id="graph0" class="graph" transform="scale(1 1) rotate(0) translate(4 299)">
<title>/home/travis/build/AliceO2Group/AliceO2/Detectors/ITSMFT/common/simulation</title>
<g id="clust1" class="cluster"><title>clusterdir_85bf31a2e8d306e7598ffcb73f8df6bf</title>
<g id="a_clust1"><a xlink:href="dir_85bf31a2e8d306e7598ffcb73f8df6bf.html" target="_top" xlink:title="common">
<polygon fill="#ddddee" stroke="black" points="24,-128 24,-287 262,-287 262,-128 24,-128"/>
<text text-anchor="middle" x="143" y="-275" font-family="Helvetica,sans-Serif" font-size="10.00">common</text>
</a>
</g>
</g>
<g id="clust2" class="cluster"><title>clusterdir_948e043a2a9c0d8c3d26178da976c005</title>
<g id="a_clust2"><a xlink:href="dir_948e043a2a9c0d8c3d26178da976c005.html" target="_top">
<polygon fill="#eeeeff" stroke="black" points="32,-136 32,-260 254,-260 254,-136 32,-136"/>
</a>
</g>
</g>
<!-- dir_948e043a2a9c0d8c3d26178da976c005 -->
<g id="node1" class="node"><title>dir_948e043a2a9c0d8c3d26178da976c005</title>
<text text-anchor="middle" x="215" y="-231.5" font-family="Helvetica,sans-Serif" font-size="10.00">simulation</text>
</g>
<!-- dir_aece0de4a924a7db153b75165d0988be -->
<g id="node2" class="node"><title>dir_aece0de4a924a7db153b75165d0988be</title>
<g id="a_node2"><a xlink:href="dir_aece0de4a924a7db153b75165d0988be.html" target="_top" xlink:title="include">
<polygon fill="white" stroke="red" points="111,-180 57,-180 57,-144 111,-144 111,-180"/>
<text text-anchor="middle" x="84" y="-159.5" font-family="Helvetica,sans-Serif" font-size="10.00">include</text>
</a>
</g>
</g>
<!-- dir_4ab6b4cc6a7edbff49100e9123df213f -->
<g id="node5" class="node"><title>dir_4ab6b4cc6a7edbff49100e9123df213f</title>
<g id="a_node5"><a xlink:href="dir_4ab6b4cc6a7edbff49100e9123df213f.html" target="_top" xlink:title="Common">
<polygon fill="none" stroke="red" points="55.5,-108 0.5,-108 0.5,-72 55.5,-72 55.5,-108"/>
<text text-anchor="middle" x="28" y="-87.5" font-family="Helvetica,sans-Serif" font-size="10.00">Common</text>
</a>
</g>
</g>
<!-- dir_aece0de4a924a7db153b75165d0988be&#45;&gt;dir_4ab6b4cc6a7edbff49100e9123df213f -->
<g id="edge7" class="edge"><title>dir_aece0de4a924a7db153b75165d0988be&#45;&gt;dir_4ab6b4cc6a7edbff49100e9123df213f</title>
<path fill="none" stroke="black" d="M70.1573,-143.697C63.5115,-135.389 55.4216,-125.277 48.1126,-116.141"/>
<polygon fill="black" stroke="black" points="50.6635,-113.727 41.6835,-108.104 45.1974,-118.099 50.6635,-113.727"/>
<g id="a_edge7&#45;headlabel"><a xlink:href="dir_000181_000016.html" target="_top" xlink:title="1">
<text text-anchor="middle" x="55.1261" y="-112.26" font-family="Helvetica,sans-Serif" font-size="10.00">1</text>
</a>
</g>
</g>
<!-- dir_7c9998090bca7c4aa89c05dd66fe73f5 -->
<g id="node6" class="node"><title>dir_7c9998090bca7c4aa89c05dd66fe73f5</title>
<g id="a_node6"><a xlink:href="dir_7c9998090bca7c4aa89c05dd66fe73f5.html" target="_top" xlink:title="base">
<polygon fill="none" stroke="red" points="166,-108 112,-108 112,-72 166,-72 166,-108"/>
<text text-anchor="middle" x="139" y="-87.5" font-family="Helvetica,sans-Serif" font-size="10.00">base</text>
</a>
</g>
</g>
<!-- dir_aece0de4a924a7db153b75165d0988be&#45;&gt;dir_7c9998090bca7c4aa89c05dd66fe73f5 -->
<g id="edge8" class="edge"><title>dir_aece0de4a924a7db153b75165d0988be&#45;&gt;dir_7c9998090bca7c4aa89c05dd66fe73f5</title>
<path fill="none" stroke="black" d="M97.5955,-143.697C104.123,-135.389 112.068,-125.277 119.247,-116.141"/>
<polygon fill="black" stroke="black" points="122.135,-118.13 125.561,-108.104 116.631,-113.805 122.135,-118.13"/>
<g id="a_edge8&#45;headlabel"><a xlink:href="dir_000181_000165.html" target="_top" xlink:title="2">
<text text-anchor="middle" x="122.147" y="-120.211" font-family="Helvetica,sans-Serif" font-size="10.00">2</text>
</a>
</g>
</g>
<!-- dir_2171f7ec022c5423887b07c69b2f5b48 -->
<g id="node7" class="node"><title>dir_2171f7ec022c5423887b07c69b2f5b48</title>
<g id="a_node7"><a xlink:href="dir_2171f7ec022c5423887b07c69b2f5b48.html" target="_top" xlink:title="DataFormats">
<polygon fill="none" stroke="red" points="121,-36 47,-36 47,-0 121,-0 121,-36"/>
<text text-anchor="middle" x="84" y="-15.5" font-family="Helvetica,sans-Serif" font-size="10.00">DataFormats</text>
</a>
</g>
</g>
<!-- dir_aece0de4a924a7db153b75165d0988be&#45;&gt;dir_2171f7ec022c5423887b07c69b2f5b48 -->
<g id="edge9" class="edge"><title>dir_aece0de4a924a7db153b75165d0988be&#45;&gt;dir_2171f7ec022c5423887b07c69b2f5b48</title>
<path fill="none" stroke="black" d="M84,-143.871C84,-119.67 84,-75.2108 84,-46.3932"/>
<polygon fill="black" stroke="black" points="87.5001,-46.1892 84,-36.1893 80.5001,-46.1893 87.5001,-46.1892"/>
<g id="a_edge9&#45;headlabel"><a xlink:href="dir_000181_000043.html" target="_top" xlink:title="3">
<text text-anchor="middle" x="90.3393" y="-47.2839" font-family="Helvetica,sans-Serif" font-size="10.00">3</text>
</a>
</g>
</g>
<!-- dir_36f9785b6e7879c93ce113c7573e321a -->
<g id="node3" class="node"><title>dir_36f9785b6e7879c93ce113c7573e321a</title>
<g id="a_node3"><a xlink:href="dir_36f9785b6e7879c93ce113c7573e321a.html" target="_top" xlink:title="src">
<polygon fill="white" stroke="black" points="166,-252 112,-252 112,-216 166,-216 166,-252"/>
<text text-anchor="middle" x="139" y="-231.5" font-family="Helvetica,sans-Serif" font-size="10.00">src</text>
</a>
</g>
</g>
<!-- dir_36f9785b6e7879c93ce113c7573e321a&#45;&gt;dir_aece0de4a924a7db153b75165d0988be -->
<g id="edge2" class="edge"><title>dir_36f9785b6e7879c93ce113c7573e321a&#45;&gt;dir_aece0de4a924a7db153b75165d0988be</title>
<path fill="none" stroke="black" d="M125.404,-215.697C118.877,-207.389 110.932,-197.277 103.753,-188.141"/>
<polygon fill="black" stroke="black" points="106.369,-185.805 97.4391,-180.104 100.865,-190.13 106.369,-185.805"/>
<g id="a_edge2&#45;headlabel"><a xlink:href="dir_000190_000181.html" target="_top" xlink:title="16">
<text text-anchor="middle" x="110.823" y="-184.377" font-family="Helvetica,sans-Serif" font-size="10.00">16</text>
</a>
</g>
</g>
<!-- dir_36f9785b6e7879c93ce113c7573e321a&#45;&gt;dir_4ab6b4cc6a7edbff49100e9123df213f -->
<g id="edge1" class="edge"><title>dir_36f9785b6e7879c93ce113c7573e321a&#45;&gt;dir_4ab6b4cc6a7edbff49100e9123df213f</title>
<path fill="none" stroke="black" d="M111.593,-220.098C87.9669,-208.449 56.3732,-191.43 48,-180 34.8742,-162.082 30.1276,-137.083 28.5187,-118.14"/>
<polygon fill="black" stroke="black" points="32.006,-117.824 27.9042,-108.055 25.019,-118.25 32.006,-117.824"/>
<g id="a_edge1&#45;headlabel"><a xlink:href="dir_000190_000016.html" target="_top" xlink:title="1">
<text text-anchor="middle" x="35.0585" y="-118.739" font-family="Helvetica,sans-Serif" font-size="10.00">1</text>
</a>
</g>
</g>
<!-- dir_36f9785b6e7879c93ce113c7573e321a&#45;&gt;dir_7c9998090bca7c4aa89c05dd66fe73f5 -->
<g id="edge3" class="edge"><title>dir_36f9785b6e7879c93ce113c7573e321a&#45;&gt;dir_7c9998090bca7c4aa89c05dd66fe73f5</title>
<path fill="none" stroke="black" d="M139,-215.871C139,-191.67 139,-147.211 139,-118.393"/>
<polygon fill="black" stroke="black" points="142.5,-118.189 139,-108.189 135.5,-118.189 142.5,-118.189"/>
<g id="a_edge3&#45;headlabel"><a xlink:href="dir_000190_000165.html" target="_top" xlink:title="5">
<text text-anchor="middle" x="145.339" y="-119.284" font-family="Helvetica,sans-Serif" font-size="10.00">5</text>
</a>
</g>
</g>
<!-- dir_36f9785b6e7879c93ce113c7573e321a&#45;&gt;dir_2171f7ec022c5423887b07c69b2f5b48 -->
<g id="edge4" class="edge"><title>dir_36f9785b6e7879c93ce113c7573e321a&#45;&gt;dir_2171f7ec022c5423887b07c69b2f5b48</title>
<path fill="none" stroke="black" d="M150.352,-215.822C169.153,-185.013 202.12,-119.18 175,-72 165.237,-55.015 147.703,-42.9631 130.614,-34.6904"/>
<polygon fill="black" stroke="black" points="131.775,-31.3752 121.218,-30.4759 128.91,-37.7621 131.775,-31.3752"/>
<g id="a_edge4&#45;headlabel"><a xlink:href="dir_000190_000043.html" target="_top" xlink:title="1">
<text text-anchor="middle" x="136.217" y="-27.7557" font-family="Helvetica,sans-Serif" font-size="10.00">1</text>
</a>
</g>
</g>
<!-- dir_74a2cd511ae2b2930045e15d010bedac -->
<g id="node4" class="node"><title>dir_74a2cd511ae2b2930045e15d010bedac</title>
<g id="a_node4"><a xlink:href="dir_74a2cd511ae2b2930045e15d010bedac.html" target="_top" xlink:title="test">
<polygon fill="white" stroke="black" points="94,-252 40,-252 40,-216 94,-216 94,-252"/>
<text text-anchor="middle" x="67" y="-231.5" font-family="Helvetica,sans-Serif" font-size="10.00">test</text>
</a>
</g>
</g>
<!-- dir_74a2cd511ae2b2930045e15d010bedac&#45;&gt;dir_aece0de4a924a7db153b75165d0988be -->
<g id="edge6" class="edge"><title>dir_74a2cd511ae2b2930045e15d010bedac&#45;&gt;dir_aece0de4a924a7db153b75165d0988be</title>
<path fill="none" stroke="black" d="M71.2022,-215.697C73.0962,-207.898 75.3765,-198.509 77.4843,-189.829"/>
<polygon fill="black" stroke="black" points="80.8872,-190.648 79.8461,-180.104 74.0849,-188.996 80.8872,-190.648"/>
<g id="a_edge6&#45;headlabel"><a xlink:href="dir_000209_000181.html" target="_top" xlink:title="1">
<text text-anchor="middle" x="82.798" y="-192.311" font-family="Helvetica,sans-Serif" font-size="10.00">1</text>
</a>
</g>
</g>
<!-- dir_4ab6b4cc6a7edbff49100e9123df213f&#45;&gt;dir_2171f7ec022c5423887b07c69b2f5b48 -->
<g id="edge5" class="edge"><title>dir_4ab6b4cc6a7edbff49100e9123df213f&#45;&gt;dir_2171f7ec022c5423887b07c69b2f5b48</title>
<path fill="none" stroke="black" d="M35.927,-71.6966C41.775,-63.3046 49.7702,-53.0705 57.6192,-43.8613"/>
<polygon fill="black" stroke="black" points="60.4598,-45.9306 64.4215,-36.1043 55.1967,-41.3153 60.4598,-45.9306"/>
<g id="a_edge5&#45;headlabel"><a xlink:href="dir_000016_000043.html" target="_top" xlink:title="1">
<text text-anchor="middle" x="60.2245" y="-48.0052" font-family="Helvetica,sans-Serif" font-size="10.00">1</text>
</a>
</g>
</g>
<!-- dir_7c9998090bca7c4aa89c05dd66fe73f5&#45;&gt;dir_2171f7ec022c5423887b07c69b2f5b48 -->
<g id="edge10" class="edge"><title>dir_7c9998090bca7c4aa89c05dd66fe73f5&#45;&gt;dir_2171f7ec022c5423887b07c69b2f5b48</title>
<path fill="none" stroke="black" d="M125.404,-71.6966C118.877,-63.3893 110.932,-53.2771 103.753,-44.1407"/>
<polygon fill="black" stroke="black" points="106.369,-41.8051 97.4391,-36.1043 100.865,-46.1299 106.369,-41.8051"/>
<g id="a_edge10&#45;headlabel"><a xlink:href="dir_000165_000043.html" target="_top" xlink:title="3">
<text text-anchor="middle" x="110.823" y="-40.3775" font-family="Helvetica,sans-Serif" font-size="10.00">3</text>
</a>
</g>
</g>
<!-- dir_2171f7ec022c5423887b07c69b2f5b48&#45;&gt;dir_4ab6b4cc6a7edbff49100e9123df213f -->
<g id="edge11" class="edge"><title>dir_2171f7ec022c5423887b07c69b2f5b48&#45;&gt;dir_4ab6b4cc6a7edbff49100e9123df213f</title>
<path fill="none" stroke="black" d="M76.2116,-36.1043C70.3977,-44.467 62.4185,-54.6945 54.5673,-63.9197"/>
<polygon fill="black" stroke="black" points="51.7124,-61.8672 47.7584,-71.6966 56.9791,-66.4783 51.7124,-61.8672"/>
<g id="a_edge11&#45;headlabel"><a xlink:href="dir_000043_000016.html" target="_top" xlink:title="15">
<text text-anchor="middle" x="51.944" y="-54.7924" font-family="Helvetica,sans-Serif" font-size="10.00">15</text>
</a>
</g>
</g>
</g>
</svg>
