<?xml version="1.0" encoding="UTF-8" standalone="no"?>
<!DOCTYPE svg PUBLIC "-//W3C//DTD SVG 1.1//EN"
 "http://www.w3.org/Graphics/SVG/1.1/DTD/svg11.dtd">
<!-- Generated by graphviz version 2.36.0 (20140111.2315)
 -->
<!-- Title: /home/travis/build/AliceO2Group/AliceO2/DataFormats/Detectors Pages: 1 -->
<svg width="395pt" height="323pt"
 viewBox="0.00 0.00 395.00 323.12" xmlns="http://www.w3.org/2000/svg" xmlns:xlink="http://www.w3.org/1999/xlink">
<g id="graph0" class="graph" transform="scale(1 1) rotate(0) translate(4 319.12)">
<title>/home/travis/build/AliceO2Group/AliceO2/DataFormats/Detectors</title>
<g id="clust1" class="cluster"><title>clusterdir_2171f7ec022c5423887b07c69b2f5b48</title>
<g id="a_clust1"><a xlink:href="dir_2171f7ec022c5423887b07c69b2f5b48.html" target="_top" xlink:title="DataFormats">
<polygon fill="#ddddee" stroke="black" points="69,-200 69,-287 379,-287 379,-200 69,-200"/>
<text text-anchor="middle" x="224" y="-275" font-family="Helvetica,sans-Serif" font-size="10.00">DataFormats</text>
</a>
</g>
</g>
<g id="clust2" class="cluster"><title>clusterdir_2801adc79bf3c286b1b479858d2cade4</title>
<g id="a_clust2"><a xlink:href="dir_2801adc79bf3c286b1b479858d2cade4.html" target="_top">
<polygon fill="#eeeeff" stroke="black" points="77,-208 77,-260 371,-260 371,-208 77,-208"/>
</a>
</g>
</g>
<!-- dir_2801adc79bf3c286b1b479858d2cade4 -->
<g id="node1" class="node"><title>dir_2801adc79bf3c286b1b479858d2cade4</title>
<text text-anchor="middle" x="333" y="-231.5" font-family="Helvetica,sans-Serif" font-size="10.00">Detectors</text>
</g>
<!-- dir_74593c7a91e03746ae2a516888bf9494 -->
<g id="node2" class="node"><title>dir_74593c7a91e03746ae2a516888bf9494</title>
<g id="a_node2"><a xlink:href="dir_74593c7a91e03746ae2a516888bf9494.html" target="_top" xlink:title="Common">
<polygon fill="white" stroke="red" points="212.5,-252 157.5,-252 157.5,-216 212.5,-216 212.5,-252"/>
<text text-anchor="middle" x="185" y="-231.5" font-family="Helvetica,sans-Serif" font-size="10.00">Common</text>
</a>
</g>
</g>
<!-- dir_4ab6b4cc6a7edbff49100e9123df213f -->
<g id="node6" class="node"><title>dir_4ab6b4cc6a7edbff49100e9123df213f</title>
<g id="a_node6"><a xlink:href="dir_4ab6b4cc6a7edbff49100e9123df213f.html" target="_top" xlink:title="Common">
<polygon fill="none" stroke="red" points="174.5,-180 119.5,-180 119.5,-144 174.5,-144 174.5,-180"/>
<text text-anchor="middle" x="147" y="-159.5" font-family="Helvetica,sans-Serif" font-size="10.00">Common</text>
</a>
</g>
</g>
<!-- dir_74593c7a91e03746ae2a516888bf9494&#45;&gt;dir_4ab6b4cc6a7edbff49100e9123df213f -->
<g id="edge13" class="edge"><title>dir_74593c7a91e03746ae2a516888bf9494&#45;&gt;dir_4ab6b4cc6a7edbff49100e9123df213f</title>
<path fill="none" stroke="black" d="M175.607,-215.697C171.235,-207.644 165.943,-197.894 161.105,-188.982"/>
<polygon fill="black" stroke="black" points="164.132,-187.223 156.285,-180.104 157.98,-190.563 164.132,-187.223"/>
<g id="a_edge13&#45;headlabel"><a xlink:href="dir_000054_000016.html" target="_top" xlink:title="3">
<text text-anchor="middle" x="168.342" y="-186.528" font-family="Helvetica,sans-Serif" font-size="10.00">3</text>
</a>
</g>
</g>
<!-- dir_ff53c4a4c37940dfaa1ef75e68c4ec2e -->
<g id="node3" class="node"><title>dir_ff53c4a4c37940dfaa1ef75e68c4ec2e</title>
<g id="a_node3"><a xlink:href="dir_ff53c4a4c37940dfaa1ef75e68c4ec2e.html" target="_top" xlink:title="ITSMFT">
<polygon fill="white" stroke="red" points="139,-252 85,-252 85,-216 139,-216 139,-252"/>
<text text-anchor="middle" x="112" y="-231.5" font-family="Helvetica,sans-Serif" font-size="10.00">ITSMFT</text>
</a>
</g>
</g>
<!-- dir_d269712cc31e133b892a3b3f6424741a -->
<g id="node5" class="node"><title>dir_d269712cc31e133b892a3b3f6424741a</title>
<g id="a_node5"><a xlink:href="dir_d269712cc31e133b892a3b3f6424741a.html" target="_top" xlink:title="Reconstruction">
<polygon fill="none" stroke="red" points="216.25,-108 133.75,-108 133.75,-72 216.25,-72 216.25,-108"/>
<text text-anchor="middle" x="175" y="-87.5" font-family="Helvetica,sans-Serif" font-size="10.00">Reconstruction</text>
</a>
</g>
</g>
<!-- dir_ff53c4a4c37940dfaa1ef75e68c4ec2e&#45;&gt;dir_d269712cc31e133b892a3b3f6424741a -->
<g id="edge5" class="edge"><title>dir_ff53c4a4c37940dfaa1ef75e68c4ec2e&#45;&gt;dir_d269712cc31e133b892a3b3f6424741a</title>
<path fill="none" stroke="black" d="M107.275,-215.99C103.053,-197.349 99.0603,-167.036 110,-144 115.569,-132.273 125.144,-122.285 135.259,-114.248"/>
<polygon fill="black" stroke="black" points="137.453,-116.979 143.42,-108.224 133.296,-111.347 137.453,-116.979"/>
<g id="a_edge5&#45;headlabel"><a xlink:href="dir_000059_000092.html" target="_top" xlink:title="2">
<text text-anchor="middle" x="136.247" y="-118.898" font-family="Helvetica,sans-Serif" font-size="10.00">2</text>
</a>
</g>
</g>
<!-- dir_ff53c4a4c37940dfaa1ef75e68c4ec2e&#45;&gt;dir_4ab6b4cc6a7edbff49100e9123df213f -->
<g id="edge6" class="edge"><title>dir_ff53c4a4c37940dfaa1ef75e68c4ec2e&#45;&gt;dir_4ab6b4cc6a7edbff49100e9123df213f</title>
<path fill="none" stroke="black" d="M120.652,-215.697C124.636,-207.728 129.45,-198.1 133.868,-189.264"/>
<polygon fill="black" stroke="black" points="137.106,-190.614 138.448,-180.104 130.845,-187.483 137.106,-190.614"/>
<g id="a_edge6&#45;headlabel"><a xlink:href="dir_000059_000016.html" target="_top" xlink:title="1">
<text text-anchor="middle" x="138.038" y="-192.599" font-family="Helvetica,sans-Serif" font-size="10.00">1</text>
</a>
</g>
</g>
<!-- dir_87e4e27fa2128902da5e37b3e7ab3f52 -->
<g id="node4" class="node"><title>dir_87e4e27fa2128902da5e37b3e7ab3f52</title>
<g id="a_node4"><a xlink:href="dir_87e4e27fa2128902da5e37b3e7ab3f52.html" target="_top" xlink:title="TPC">
<polygon fill="white" stroke="red" points="285,-252 231,-252 231,-216 285,-216 285,-252"/>
<text text-anchor="middle" x="258" y="-231.5" font-family="Helvetica,sans-Serif" font-size="10.00">TPC</text>
</a>
</g>
</g>
<!-- dir_87e4e27fa2128902da5e37b3e7ab3f52&#45;&gt;dir_d269712cc31e133b892a3b3f6424741a -->
<g id="edge9" class="edge"><title>dir_87e4e27fa2128902da5e37b3e7ab3f52&#45;&gt;dir_d269712cc31e133b892a3b3f6424741a</title>
<path fill="none" stroke="black" d="M247.988,-215.871C233.593,-191.244 206.936,-145.638 190.13,-116.885"/>
<polygon fill="black" stroke="black" points="193.115,-115.056 185.047,-108.189 187.072,-118.589 193.115,-115.056"/>
<g id="a_edge9&#45;headlabel"><a xlink:href="dir_000063_000092.html" target="_top" xlink:title="1">
<text text-anchor="middle" x="197.38" y="-114.227" font-family="Helvetica,sans-Serif" font-size="10.00">1</text>
</a>
</g>
</g>
<!-- dir_87e4e27fa2128902da5e37b3e7ab3f52&#45;&gt;dir_4ab6b4cc6a7edbff49100e9123df213f -->
<g id="edge10" class="edge"><title>dir_87e4e27fa2128902da5e37b3e7ab3f52&#45;&gt;dir_4ab6b4cc6a7edbff49100e9123df213f</title>
<path fill="none" stroke="black" d="M240.721,-215.877C234.751,-210.438 227.838,-204.638 221,-200 209.443,-192.162 195.992,-184.941 183.752,-178.998"/>
<polygon fill="black" stroke="black" points="185.216,-175.819 174.679,-174.715 182.227,-182.149 185.216,-175.819"/>
<g id="a_edge10&#45;headlabel"><a xlink:href="dir_000063_000016.html" target="_top" xlink:title="2">
<text text-anchor="middle" x="189.679" y="-172.287" font-family="Helvetica,sans-Serif" font-size="10.00">2</text>
</a>
</g>
</g>
<!-- dir_047746f9f311f49446db9474b7431d0d -->
<g id="node7" class="node"><title>dir_047746f9f311f49446db9474b7431d0d</title>
<g id="a_node7"><a xlink:href="dir_047746f9f311f49446db9474b7431d0d.html" target="_top" xlink:title="simulation">
<polygon fill="none" stroke="red" points="60.25,-252 -0.25,-252 -0.25,-216 60.25,-216 60.25,-252"/>
<text text-anchor="middle" x="30" y="-231.5" font-family="Helvetica,sans-Serif" font-size="10.00">simulation</text>
</a>
</g>
</g>
<!-- dir_87e4e27fa2128902da5e37b3e7ab3f52&#45;&gt;dir_047746f9f311f49446db9474b7431d0d -->
<g id="edge11" class="edge"><title>dir_87e4e27fa2128902da5e37b3e7ab3f52&#45;&gt;dir_047746f9f311f49446db9474b7431d0d</title>
<path fill="none" stroke="black" d="M252.029,-252.052C245.293,-269.159 232.517,-293.846 212,-305 186.619,-318.798 107.765,-318.066 82,-305 63.8882,-295.815 50.5662,-277.029 41.9426,-261.087"/>
<polygon fill="black" stroke="black" points="45.0451,-259.466 37.4074,-252.123 38.7991,-262.626 45.0451,-259.466"/>
<g id="a_edge11&#45;headlabel"><a xlink:href="dir_000063_000112.html" target="_top" xlink:title="2">
<text text-anchor="middle" x="49.2013" y="-258.892" font-family="Helvetica,sans-Serif" font-size="10.00">2</text>
</a>
</g>
</g>
<!-- dir_7924ba4398ae4560cd37376e44666c6d -->
<g id="node8" class="node"><title>dir_7924ba4398ae4560cd37376e44666c6d</title>
<g id="a_node8"><a xlink:href="dir_7924ba4398ae4560cd37376e44666c6d.html" target="_top" xlink:title="common">
<polygon fill="none" stroke="red" points="254,-36 200,-36 200,-0 254,-0 254,-36"/>
<text text-anchor="middle" x="227" y="-15.5" font-family="Helvetica,sans-Serif" font-size="10.00">common</text>
</a>
</g>
</g>
<!-- dir_87e4e27fa2128902da5e37b3e7ab3f52&#45;&gt;dir_7924ba4398ae4560cd37376e44666c6d -->
<g id="edge12" class="edge"><title>dir_87e4e27fa2128902da5e37b3e7ab3f52&#45;&gt;dir_7924ba4398ae4560cd37376e44666c6d</title>
<path fill="none" stroke="black" d="M255.516,-215.849C250.153,-178.832 237.456,-91.1809 230.967,-46.3863"/>
<polygon fill="black" stroke="black" points="234.394,-45.6274 229.496,-36.2325 227.466,-46.631 234.394,-45.6274"/>
<g id="a_edge12&#45;headlabel"><a xlink:href="dir_000063_000044.html" target="_top" xlink:title="1">
<text text-anchor="middle" x="237.719" y="-46.2778" font-family="Helvetica,sans-Serif" font-size="10.00">1</text>
</a>
</g>
</g>
<!-- dir_d269712cc31e133b892a3b3f6424741a&#45;&gt;dir_74593c7a91e03746ae2a516888bf9494 -->
<g id="edge2" class="edge"><title>dir_d269712cc31e133b892a3b3f6424741a&#45;&gt;dir_74593c7a91e03746ae2a516888bf9494</title>
<path fill="none" stroke="black" d="M178.15,-108.12C179.912,-118.469 181.959,-131.948 183,-144 184.784,-164.657 185.247,-188.106 185.284,-205.746"/>
<polygon fill="black" stroke="black" points="181.784,-205.895 185.26,-215.903 188.784,-205.911 181.784,-205.895"/>
<g id="a_edge2&#45;headlabel"><a xlink:href="dir_000092_000054.html" target="_top" xlink:title="1">
<text text-anchor="middle" x="178.953" y="-199.794" font-family="Helvetica,sans-Serif" font-size="10.00">1</text>
</a>
</g>
</g>
<!-- dir_d269712cc31e133b892a3b3f6424741a&#45;&gt;dir_4ab6b4cc6a7edbff49100e9123df213f -->
<g id="edge1" class="edge"><title>dir_d269712cc31e133b892a3b3f6424741a&#45;&gt;dir_4ab6b4cc6a7edbff49100e9123df213f</title>
<path fill="none" stroke="black" d="M174.053,-108.104C171.709,-116.045 168.085,-125.666 164.163,-134.515"/>
<polygon fill="black" stroke="black" points="160.933,-133.159 159.837,-143.697 167.266,-136.142 160.933,-133.159"/>
<g id="a_edge1&#45;headlabel"><a xlink:href="dir_000092_000016.html" target="_top" xlink:title="5">
<text text-anchor="middle" x="159.897" y="-126.197" font-family="Helvetica,sans-Serif" font-size="10.00">5</text>
</a>
</g>
</g>
<!-- dir_d269712cc31e133b892a3b3f6424741a&#45;&gt;dir_7924ba4398ae4560cd37376e44666c6d -->
<g id="edge3" class="edge"><title>dir_d269712cc31e133b892a3b3f6424741a&#45;&gt;dir_7924ba4398ae4560cd37376e44666c6d</title>
<path fill="none" stroke="black" d="M187.854,-71.6966C194.025,-63.3893 201.537,-53.2771 208.324,-44.1407"/>
<polygon fill="black" stroke="black" points="211.14,-46.2189 214.294,-36.1043 205.521,-42.0446 211.14,-46.2189"/>
<g id="a_edge3&#45;headlabel"><a xlink:href="dir_000092_000044.html" target="_top" xlink:title="4">
<text text-anchor="middle" x="211.276" y="-48.2976" font-family="Helvetica,sans-Serif" font-size="10.00">4</text>
</a>
</g>
</g>
<!-- dir_4ab6b4cc6a7edbff49100e9123df213f&#45;&gt;dir_d269712cc31e133b892a3b3f6424741a -->
<g id="edge4" class="edge"><title>dir_4ab6b4cc6a7edbff49100e9123df213f&#45;&gt;dir_d269712cc31e133b892a3b3f6424741a</title>
<path fill="none" stroke="black" d="M148.006,-143.697C150.371,-135.728 154.008,-126.1 157.935,-117.264"/>
<polygon fill="black" stroke="black" points="161.155,-118.641 162.263,-108.104 154.826,-115.65 161.155,-118.641"/>
<g id="a_edge4&#45;headlabel"><a xlink:href="dir_000016_000092.html" target="_top" xlink:title="1">
<text text-anchor="middle" x="162.187" y="-120.604" font-family="Helvetica,sans-Serif" font-size="10.00">1</text>
</a>
</g>
</g>
<!-- dir_047746f9f311f49446db9474b7431d0d&#45;&gt;dir_74593c7a91e03746ae2a516888bf9494 -->
<g id="edge8" class="edge"><title>dir_047746f9f311f49446db9474b7431d0d&#45;&gt;dir_74593c7a91e03746ae2a516888bf9494</title>
<path fill="none" stroke="black" d="M37.4074,-252.123C45.5215,-269.285 60.3335,-294.012 82,-305 104.594,-316.458 116.743,-317.1 139,-305 155.991,-295.763 167.672,-277.245 175.012,-261.437"/>
<polygon fill="black" stroke="black" points="178.312,-262.622 179.029,-252.052 171.876,-259.868 178.312,-262.622"/>
<g id="a_edge8&#45;headlabel"><a xlink:href="dir_000112_000054.html" target="_top" xlink:title="4">
<text text-anchor="middle" x="179.507" y="-264.544" font-family="Helvetica,sans-Serif" font-size="10.00">4</text>
</a>
</g>
</g>
<!-- dir_047746f9f311f49446db9474b7431d0d&#45;&gt;dir_4ab6b4cc6a7edbff49100e9123df213f -->
<g id="edge7" class="edge"><title>dir_047746f9f311f49446db9474b7431d0d&#45;&gt;dir_4ab6b4cc6a7edbff49100e9123df213f</title>
<path fill="none" stroke="black" d="M50.8563,-215.717C57.7119,-210.388 65.5013,-204.692 73,-200 84.6257,-192.726 97.8727,-185.731 109.915,-179.819"/>
<polygon fill="black" stroke="black" points="111.764,-182.813 119.26,-175.325 108.731,-176.505 111.764,-182.813"/>
<g id="a_edge7&#45;headlabel"><a xlink:href="dir_000112_000016.html" target="_top" xlink:title="1">
<text text-anchor="middle" x="109.755" y="-184.43" font-family="Helvetica,sans-Serif" font-size="10.00">1</text>
</a>
</g>
</g>
</g>
</svg>
