<?xml version="1.0" encoding="UTF-8" standalone="no"?>
<!DOCTYPE svg PUBLIC "-//W3C//DTD SVG 1.1//EN"
 "http://www.w3.org/Graphics/SVG/1.1/DTD/svg11.dtd">
<!-- Generated by graphviz version 2.36.0 (20140111.2315)
 -->
<!-- Title: /home/travis/build/AliceO2Group/AliceO2/Detectors/ITSMFT Pages: 1 -->
<svg width="454pt" height="447pt"
 viewBox="0.00 0.00 453.70 447.00" xmlns="http://www.w3.org/2000/svg" xmlns:xlink="http://www.w3.org/1999/xlink">
<g id="graph0" class="graph" transform="scale(1 1) rotate(0) translate(4 443)">
<title>/home/travis/build/AliceO2Group/AliceO2/Detectors/ITSMFT</title>
<g id="clust1" class="cluster"><title>clusterdir_051dca18e802f8e9474f2e30d29c04e0</title>
<g id="a_clust1"><a xlink:href="dir_051dca18e802f8e9474f2e30d29c04e0.html" target="_top" xlink:title="Detectors">
<polygon fill="#ddddee" stroke="black" points="160,-200 160,-431 338,-431 338,-200 160,-200"/>
<text text-anchor="middle" x="249" y="-419" font-family="Helvetica,sans-Serif" font-size="10.00">Detectors</text>
</a>
</g>
</g>
<g id="clust2" class="cluster"><title>clusterdir_1306292b77b40360479b729ac9ee7efe</title>
<g id="a_clust2"><a xlink:href="dir_1306292b77b40360479b729ac9ee7efe.html" target="_top">
<polygon fill="#eeeeff" stroke="black" points="168,-208 168,-404 330,-404 330,-208 168,-208"/>
</a>
</g>
</g>
<!-- dir_1306292b77b40360479b729ac9ee7efe -->
<g id="node1" class="node"><title>dir_1306292b77b40360479b729ac9ee7efe</title>
<text text-anchor="middle" x="285" y="-375.5" font-family="Helvetica,sans-Serif" font-size="10.00">ITSMFT</text>
</g>
<!-- dir_85bf31a2e8d306e7598ffcb73f8df6bf -->
<g id="node2" class="node"><title>dir_85bf31a2e8d306e7598ffcb73f8df6bf</title>
<g id="a_node2"><a xlink:href="dir_85bf31a2e8d306e7598ffcb73f8df6bf.html" target="_top" xlink:title="common">
<polygon fill="white" stroke="red" points="240,-252 186,-252 186,-216 240,-216 240,-252"/>
<text text-anchor="middle" x="213" y="-231.5" font-family="Helvetica,sans-Serif" font-size="10.00">common</text>
</a>
</g>
</g>
<!-- dir_4ab6b4cc6a7edbff49100e9123df213f -->
<g id="node6" class="node"><title>dir_4ab6b4cc6a7edbff49100e9123df213f</title>
<g id="a_node6"><a xlink:href="dir_4ab6b4cc6a7edbff49100e9123df213f.html" target="_top" xlink:title="Common">
<polygon fill="none" stroke="red" points="201.5,-180 146.5,-180 146.5,-144 201.5,-144 201.5,-180"/>
<text text-anchor="middle" x="174" y="-159.5" font-family="Helvetica,sans-Serif" font-size="10.00">Common</text>
</a>
</g>
</g>
<!-- dir_85bf31a2e8d306e7598ffcb73f8df6bf&#45;&gt;dir_4ab6b4cc6a7edbff49100e9123df213f -->
<g id="edge17" class="edge"><title>dir_85bf31a2e8d306e7598ffcb73f8df6bf&#45;&gt;dir_4ab6b4cc6a7edbff49100e9123df213f</title>
<path fill="none" stroke="black" d="M203.36,-215.697C198.873,-207.644 193.441,-197.894 188.476,-188.982"/>
<polygon fill="black" stroke="black" points="191.454,-187.137 183.53,-180.104 185.339,-190.544 191.454,-187.137"/>
<g id="a_edge17&#45;headlabel"><a xlink:href="dir_000164_000016.html" target="_top" xlink:title="2">
<text text-anchor="middle" x="195.684" y="-186.395" font-family="Helvetica,sans-Serif" font-size="10.00">2</text>
</a>
</g>
</g>
<!-- dir_2171f7ec022c5423887b07c69b2f5b48 -->
<g id="node10" class="node"><title>dir_2171f7ec022c5423887b07c69b2f5b48</title>
<g id="a_node10"><a xlink:href="dir_2171f7ec022c5423887b07c69b2f5b48.html" target="_top" xlink:title="DataFormats">
<polygon fill="none" stroke="red" points="332,-108 258,-108 258,-72 332,-72 332,-108"/>
<text text-anchor="middle" x="295" y="-87.5" font-family="Helvetica,sans-Serif" font-size="10.00">DataFormats</text>
</a>
</g>
</g>
<!-- dir_85bf31a2e8d306e7598ffcb73f8df6bf&#45;&gt;dir_2171f7ec022c5423887b07c69b2f5b48 -->
<g id="edge18" class="edge"><title>dir_85bf31a2e8d306e7598ffcb73f8df6bf&#45;&gt;dir_2171f7ec022c5423887b07c69b2f5b48</title>
<path fill="none" stroke="black" d="M222.891,-215.871C237.113,-191.244 263.449,-145.638 280.053,-116.885"/>
<polygon fill="black" stroke="black" points="283.104,-118.599 285.074,-108.189 277.042,-115.099 283.104,-118.599"/>
<g id="a_edge18&#45;headlabel"><a xlink:href="dir_000164_000043.html" target="_top" xlink:title="17">
<text text-anchor="middle" x="283.765" y="-120.632" font-family="Helvetica,sans-Serif" font-size="10.00">17</text>
</a>
</g>
</g>
<!-- dir_871aad07cbf94d6cd423c3d8d5bdf4e9 -->
<g id="node3" class="node"><title>dir_871aad07cbf94d6cd423c3d8d5bdf4e9</title>
<g id="a_node3"><a xlink:href="dir_871aad07cbf94d6cd423c3d8d5bdf4e9.html" target="_top" xlink:title="ITS">
<polygon fill="white" stroke="red" points="322,-324 268,-324 268,-288 322,-288 322,-324"/>
<text text-anchor="middle" x="295" y="-303.5" font-family="Helvetica,sans-Serif" font-size="10.00">ITS</text>
</a>
</g>
</g>
<!-- dir_871aad07cbf94d6cd423c3d8d5bdf4e9&#45;&gt;dir_85bf31a2e8d306e7598ffcb73f8df6bf -->
<g id="edge4" class="edge"><title>dir_871aad07cbf94d6cd423c3d8d5bdf4e9&#45;&gt;dir_85bf31a2e8d306e7598ffcb73f8df6bf</title>
<path fill="none" stroke="black" d="M274.73,-287.697C264.502,-278.965 251.939,-268.24 240.822,-258.75"/>
<polygon fill="black" stroke="black" points="242.915,-255.935 233.037,-252.104 238.37,-261.259 242.915,-255.935"/>
<g id="a_edge4&#45;headlabel"><a xlink:href="dir_000132_000164.html" target="_top" xlink:title="27">
<text text-anchor="middle" x="247.492" y="-253.609" font-family="Helvetica,sans-Serif" font-size="10.00">27</text>
</a>
</g>
</g>
<!-- dir_871aad07cbf94d6cd423c3d8d5bdf4e9&#45;&gt;dir_4ab6b4cc6a7edbff49100e9123df213f -->
<g id="edge1" class="edge"><title>dir_871aad07cbf94d6cd423c3d8d5bdf4e9&#45;&gt;dir_4ab6b4cc6a7edbff49100e9123df213f</title>
<path fill="none" stroke="black" d="M267.91,-292.11C264.909,-290.711 261.893,-289.318 259,-288 222.779,-271.501 199.323,-284.953 177,-252 164.839,-234.048 165.103,-209.052 167.827,-190.12"/>
<polygon fill="black" stroke="black" points="171.315,-190.493 169.585,-180.041 164.419,-189.291 171.315,-190.493"/>
<g id="a_edge1&#45;headlabel"><a xlink:href="dir_000132_000016.html" target="_top" xlink:title="24">
<text text-anchor="middle" x="173.494" y="-192.022" font-family="Helvetica,sans-Serif" font-size="10.00">24</text>
</a>
</g>
</g>
<!-- dir_a597e8e061b11201a1dff411feb10d0b -->
<g id="node7" class="node"><title>dir_a597e8e061b11201a1dff411feb10d0b</title>
<g id="a_node7"><a xlink:href="dir_a597e8e061b11201a1dff411feb10d0b.html" target="_top" xlink:title="TPC">
<polygon fill="none" stroke="red" points="426,-252 372,-252 372,-216 426,-216 426,-252"/>
<text text-anchor="middle" x="399" y="-231.5" font-family="Helvetica,sans-Serif" font-size="10.00">TPC</text>
</a>
</g>
</g>
<!-- dir_871aad07cbf94d6cd423c3d8d5bdf4e9&#45;&gt;dir_a597e8e061b11201a1dff411feb10d0b -->
<g id="edge2" class="edge"><title>dir_871aad07cbf94d6cd423c3d8d5bdf4e9&#45;&gt;dir_a597e8e061b11201a1dff411feb10d0b</title>
<path fill="none" stroke="black" d="M320.441,-287.876C333.787,-278.893 350.324,-267.763 364.778,-258.034"/>
<polygon fill="black" stroke="black" points="367.119,-260.677 373.461,-252.19 363.211,-254.87 367.119,-260.677"/>
<g id="a_edge2&#45;headlabel"><a xlink:href="dir_000132_000147.html" target="_top" xlink:title="1">
<text text-anchor="middle" x="365.723" y="-262.54" font-family="Helvetica,sans-Serif" font-size="10.00">1</text>
</a>
</g>
</g>
<!-- dir_37c90836491b695b472bf98d1be8336b -->
<g id="node8" class="node"><title>dir_37c90836491b695b472bf98d1be8336b</title>
<g id="a_node8"><a xlink:href="dir_37c90836491b695b472bf98d1be8336b.html" target="_top" xlink:title="Base">
<polygon fill="none" stroke="red" points="322,-36 268,-36 268,-0 322,-0 322,-36"/>
<text text-anchor="middle" x="295" y="-15.5" font-family="Helvetica,sans-Serif" font-size="10.00">Base</text>
</a>
</g>
</g>
<!-- dir_871aad07cbf94d6cd423c3d8d5bdf4e9&#45;&gt;dir_37c90836491b695b472bf98d1be8336b -->
<g id="edge3" class="edge"><title>dir_871aad07cbf94d6cd423c3d8d5bdf4e9&#45;&gt;dir_37c90836491b695b472bf98d1be8336b</title>
<path fill="none" stroke="black" d="M322.122,-303.506C355.13,-300.062 409.596,-288.781 435,-252 475.851,-192.855 381.448,-87.5658 368,-72 357.435,-59.7708 343.527,-48.7893 330.687,-40.0365"/>
<polygon fill="black" stroke="black" points="332.302,-36.91 322.022,-34.345 328.459,-42.7607 332.302,-36.91"/>
<g id="a_edge3&#45;headlabel"><a xlink:href="dir_000132_000122.html" target="_top" xlink:title="4">
<text text-anchor="middle" x="336.865" y="-34.0105" font-family="Helvetica,sans-Serif" font-size="10.00">4</text>
</a>
</g>
</g>
<!-- dir_871aad07cbf94d6cd423c3d8d5bdf4e9&#45;&gt;dir_2171f7ec022c5423887b07c69b2f5b48 -->
<g id="edge5" class="edge"><title>dir_871aad07cbf94d6cd423c3d8d5bdf4e9&#45;&gt;dir_2171f7ec022c5423887b07c69b2f5b48</title>
<path fill="none" stroke="black" d="M305.625,-287.556C311.098,-277.543 317.198,-264.509 320,-252 330.493,-205.161 330.493,-190.839 320,-144 317.986,-135.009 314.268,-125.747 310.304,-117.53"/>
<polygon fill="black" stroke="black" points="313.315,-115.732 305.625,-108.444 307.092,-118.937 313.315,-115.732"/>
<g id="a_edge5&#45;headlabel"><a xlink:href="dir_000132_000043.html" target="_top" xlink:title="42">
<text text-anchor="middle" x="317.485" y="-115.128" font-family="Helvetica,sans-Serif" font-size="10.00">42</text>
</a>
</g>
</g>
<!-- dir_f39d1cd569ca2d16022b762a0e4a53c8 -->
<g id="node4" class="node"><title>dir_f39d1cd569ca2d16022b762a0e4a53c8</title>
<g id="a_node4"><a xlink:href="dir_f39d1cd569ca2d16022b762a0e4a53c8.html" target="_top" xlink:title="MFT">
<polygon fill="white" stroke="red" points="250,-324 196,-324 196,-288 250,-288 250,-324"/>
<text text-anchor="middle" x="223" y="-303.5" font-family="Helvetica,sans-Serif" font-size="10.00">MFT</text>
</a>
</g>
</g>
<!-- dir_f39d1cd569ca2d16022b762a0e4a53c8&#45;&gt;dir_85bf31a2e8d306e7598ffcb73f8df6bf -->
<g id="edge8" class="edge"><title>dir_f39d1cd569ca2d16022b762a0e4a53c8&#45;&gt;dir_85bf31a2e8d306e7598ffcb73f8df6bf</title>
<path fill="none" stroke="black" d="M220.528,-287.697C219.426,-279.983 218.102,-270.712 216.873,-262.112"/>
<polygon fill="black" stroke="black" points="220.323,-261.509 215.443,-252.104 213.393,-262.499 220.323,-261.509"/>
<g id="a_edge8&#45;headlabel"><a xlink:href="dir_000078_000164.html" target="_top" xlink:title="18">
<text text-anchor="middle" x="223.642" y="-262.166" font-family="Helvetica,sans-Serif" font-size="10.00">18</text>
</a>
</g>
</g>
<!-- dir_f39d1cd569ca2d16022b762a0e4a53c8&#45;&gt;dir_4ab6b4cc6a7edbff49100e9123df213f -->
<g id="edge6" class="edge"><title>dir_f39d1cd569ca2d16022b762a0e4a53c8&#45;&gt;dir_4ab6b4cc6a7edbff49100e9123df213f</title>
<path fill="none" stroke="black" d="M195.741,-294.783C177.487,-286.34 154.881,-272.402 144,-252 133.125,-231.608 136.279,-221.783 144,-200 145.43,-195.966 147.507,-192.051 149.913,-188.372"/>
<polygon fill="black" stroke="black" points="152.785,-190.375 155.968,-180.27 147.178,-186.185 152.785,-190.375"/>
<g id="a_edge6&#45;headlabel"><a xlink:href="dir_000078_000016.html" target="_top" xlink:title="8">
<text text-anchor="middle" x="152.907" y="-192.454" font-family="Helvetica,sans-Serif" font-size="10.00">8</text>
</a>
</g>
</g>
<!-- dir_f39d1cd569ca2d16022b762a0e4a53c8&#45;&gt;dir_37c90836491b695b472bf98d1be8336b -->
<g id="edge7" class="edge"><title>dir_f39d1cd569ca2d16022b762a0e4a53c8&#45;&gt;dir_37c90836491b695b472bf98d1be8336b</title>
<path fill="none" stroke="black" d="M234.046,-287.611C239.737,-277.615 246.081,-264.579 249,-252 267.085,-174.071 221.013,-146.945 249,-72 252.876,-61.6206 259.803,-51.9274 267.124,-43.7427"/>
<polygon fill="black" stroke="black" points="269.784,-46.0256 274.177,-36.3845 264.731,-41.1816 269.784,-46.0256"/>
<g id="a_edge7&#45;headlabel"><a xlink:href="dir_000078_000122.html" target="_top" xlink:title="3">
<text text-anchor="middle" x="269.346" y="-48.0853" font-family="Helvetica,sans-Serif" font-size="10.00">3</text>
</a>
</g>
</g>
<!-- dir_f01815b857f9009bea48e2cb39492245 -->
<g id="node9" class="node"><title>dir_f01815b857f9009bea48e2cb39492245</title>
<g id="a_node9"><a xlink:href="dir_f01815b857f9009bea48e2cb39492245.html" target="_top" xlink:title="Passive">
<polygon fill="none" stroke="red" points="54,-252 0,-252 0,-216 54,-216 54,-252"/>
<text text-anchor="middle" x="27" y="-231.5" font-family="Helvetica,sans-Serif" font-size="10.00">Passive</text>
</a>
</g>
</g>
<!-- dir_f39d1cd569ca2d16022b762a0e4a53c8&#45;&gt;dir_f01815b857f9009bea48e2cb39492245 -->
<g id="edge9" class="edge"><title>dir_f39d1cd569ca2d16022b762a0e4a53c8&#45;&gt;dir_f01815b857f9009bea48e2cb39492245</title>
<path fill="none" stroke="black" d="M195.747,-295.267C161.372,-282.99 102.132,-261.833 63.7723,-248.133"/>
<polygon fill="black" stroke="black" points="64.6161,-244.718 54.0215,-244.651 62.2617,-251.31 64.6161,-244.718"/>
<g id="a_edge9&#45;headlabel"><a xlink:href="dir_000078_000241.html" target="_top" xlink:title="1">
<text text-anchor="middle" x="68.9562" y="-240.753" font-family="Helvetica,sans-Serif" font-size="10.00">1</text>
</a>
</g>
</g>
<!-- dir_f39d1cd569ca2d16022b762a0e4a53c8&#45;&gt;dir_2171f7ec022c5423887b07c69b2f5b48 -->
<g id="edge10" class="edge"><title>dir_f39d1cd569ca2d16022b762a0e4a53c8&#45;&gt;dir_2171f7ec022c5423887b07c69b2f5b48</title>
<path fill="none" stroke="black" d="M249.971,-287.861C261.914,-278.748 274.852,-266.437 282,-252 303.24,-209.101 301.935,-151.827 298.706,-118.423"/>
<polygon fill="black" stroke="black" points="302.139,-117.622 297.567,-108.065 295.181,-118.387 302.139,-117.622"/>
<g id="a_edge10&#45;headlabel"><a xlink:href="dir_000078_000043.html" target="_top" xlink:title="8">
<text text-anchor="middle" x="305.354" y="-118.385" font-family="Helvetica,sans-Serif" font-size="10.00">8</text>
</a>
</g>
</g>
<!-- dir_8a13aabf51651f1b5f53d57129f566b6 -->
<g id="node5" class="node"><title>dir_8a13aabf51651f1b5f53d57129f566b6</title>
<g id="a_node5"><a xlink:href="dir_8a13aabf51651f1b5f53d57129f566b6.html" target="_top" xlink:title="test">
<polygon fill="white" stroke="red" points="230,-396 176,-396 176,-360 230,-360 230,-396"/>
<text text-anchor="middle" x="203" y="-375.5" font-family="Helvetica,sans-Serif" font-size="10.00">test</text>
</a>
</g>
</g>
<!-- dir_8a13aabf51651f1b5f53d57129f566b6&#45;&gt;dir_85bf31a2e8d306e7598ffcb73f8df6bf -->
<g id="edge21" class="edge"><title>dir_8a13aabf51651f1b5f53d57129f566b6&#45;&gt;dir_85bf31a2e8d306e7598ffcb73f8df6bf</title>
<path fill="none" stroke="black" d="M195.787,-359.834C189.185,-341.834 181.251,-312.774 187,-288 189.098,-278.959 192.966,-269.681 197.088,-261.467"/>
<polygon fill="black" stroke="black" points="200.314,-262.857 201.954,-252.389 194.145,-259.55 200.314,-262.857"/>
<g id="a_edge21&#45;headlabel"><a xlink:href="dir_000224_000164.html" target="_top" xlink:title="4">
<text text-anchor="middle" x="201.119" y="-264.866" font-family="Helvetica,sans-Serif" font-size="10.00">4</text>
</a>
</g>
</g>
<!-- dir_8a13aabf51651f1b5f53d57129f566b6&#45;&gt;dir_871aad07cbf94d6cd423c3d8d5bdf4e9 -->
<g id="edge19" class="edge"><title>dir_8a13aabf51651f1b5f53d57129f566b6&#45;&gt;dir_871aad07cbf94d6cd423c3d8d5bdf4e9</title>
<path fill="none" stroke="black" d="M225.742,-359.697C237.44,-350.796 251.861,-339.823 264.51,-330.199"/>
<polygon fill="black" stroke="black" points="266.681,-332.945 272.52,-324.104 262.442,-327.374 266.681,-332.945"/>
<g id="a_edge19&#45;headlabel"><a xlink:href="dir_000224_000132.html" target="_top" xlink:title="1">
<text text-anchor="middle" x="265.54" y="-334.881" font-family="Helvetica,sans-Serif" font-size="10.00">1</text>
</a>
</g>
</g>
<!-- dir_8a13aabf51651f1b5f53d57129f566b6&#45;&gt;dir_4ab6b4cc6a7edbff49100e9123df213f -->
<g id="edge20" class="edge"><title>dir_8a13aabf51651f1b5f53d57129f566b6&#45;&gt;dir_4ab6b4cc6a7edbff49100e9123df213f</title>
<path fill="none" stroke="black" d="M189.418,-359.63C172.338,-336.574 143.927,-293.876 133,-252 127.165,-229.638 123.612,-221.118 133,-200 134.989,-195.526 137.815,-191.365 141.067,-187.57"/>
<polygon fill="black" stroke="black" points="143.689,-189.895 148.204,-180.311 138.697,-184.988 143.689,-189.895"/>
<g id="a_edge20&#45;headlabel"><a xlink:href="dir_000224_000016.html" target="_top" xlink:title="2">
<text text-anchor="middle" x="143.193" y="-191.949" font-family="Helvetica,sans-Serif" font-size="10.00">2</text>
</a>
</g>
</g>
<!-- dir_4ab6b4cc6a7edbff49100e9123df213f&#45;&gt;dir_2171f7ec022c5423887b07c69b2f5b48 -->
<g id="edge11" class="edge"><title>dir_4ab6b4cc6a7edbff49100e9123df213f&#45;&gt;dir_2171f7ec022c5423887b07c69b2f5b48</title>
<path fill="none" stroke="black" d="M197.703,-143.876C212.704,-134.639 232.451,-123.131 250.273,-113.212"/>
<polygon fill="black" stroke="black" points="252.315,-116.083 259.382,-108.19 248.935,-109.953 252.315,-116.083"/>
<g id="a_edge11&#45;headlabel"><a xlink:href="dir_000016_000043.html" target="_top" xlink:title="1">
<text text-anchor="middle" x="250.538" y="-117.805" font-family="Helvetica,sans-Serif" font-size="10.00">1</text>
</a>
</g>
</g>
<!-- dir_a597e8e061b11201a1dff411feb10d0b&#45;&gt;dir_4ab6b4cc6a7edbff49100e9123df213f -->
<g id="edge12" class="edge"><title>dir_a597e8e061b11201a1dff411feb10d0b&#45;&gt;dir_4ab6b4cc6a7edbff49100e9123df213f</title>
<path fill="none" stroke="black" d="M371.826,-217.345C360.422,-211.27 346.846,-204.668 334,-200 293.378,-185.24 244.76,-174.986 211.861,-169.078"/>
<polygon fill="black" stroke="black" points="212.215,-165.587 201.762,-167.312 211.01,-172.482 212.215,-165.587"/>
<g id="a_edge12&#45;headlabel"><a xlink:href="dir_000147_000016.html" target="_top" xlink:title="4">
<text text-anchor="middle" x="216.245" y="-160.909" font-family="Helvetica,sans-Serif" font-size="10.00">4</text>
</a>
</g>
</g>
<!-- dir_a597e8e061b11201a1dff411feb10d0b&#45;&gt;dir_37c90836491b695b472bf98d1be8336b -->
<g id="edge13" class="edge"><title>dir_a597e8e061b11201a1dff411feb10d0b&#45;&gt;dir_37c90836491b695b472bf98d1be8336b</title>
<path fill="none" stroke="black" d="M397.702,-215.804C395.914,-197.528 391.846,-168.012 383,-144 368.74,-105.292 339.357,-67.5088 318.471,-43.7958"/>
<polygon fill="black" stroke="black" points="321.034,-41.4122 311.748,-36.3125 315.827,-46.0904 321.034,-41.4122"/>
<g id="a_edge13&#45;headlabel"><a xlink:href="dir_000147_000122.html" target="_top" xlink:title="1">
<text text-anchor="middle" x="325.549" y="-39.6886" font-family="Helvetica,sans-Serif" font-size="10.00">1</text>
</a>
</g>
</g>
<!-- dir_a597e8e061b11201a1dff411feb10d0b&#45;&gt;dir_2171f7ec022c5423887b07c69b2f5b48 -->
<g id="edge14" class="edge"><title>dir_a597e8e061b11201a1dff411feb10d0b&#45;&gt;dir_2171f7ec022c5423887b07c69b2f5b48</title>
<path fill="none" stroke="black" d="M393.594,-215.718C387.134,-196.84 375.022,-166.32 358,-144 349.724,-133.149 338.859,-123.02 328.486,-114.583"/>
<polygon fill="black" stroke="black" points="330.363,-111.608 320.332,-108.199 326.048,-117.119 330.363,-111.608"/>
<g id="a_edge14&#45;headlabel"><a xlink:href="dir_000147_000043.html" target="_top" xlink:title="73">
<text text-anchor="middle" x="334.944" y="-109.088" font-family="Helvetica,sans-Serif" font-size="10.00">73</text>
</a>
</g>
</g>
<!-- dir_37c90836491b695b472bf98d1be8336b&#45;&gt;dir_4ab6b4cc6a7edbff49100e9123df213f -->
<g id="edge15" class="edge"><title>dir_37c90836491b695b472bf98d1be8336b&#45;&gt;dir_4ab6b4cc6a7edbff49100e9123df213f</title>
<path fill="none" stroke="black" d="M267.734,-32.4153C251.088,-41.6926 230.325,-55.3475 216,-72 200.322,-90.2256 189.19,-115.304 182.343,-134.196"/>
<polygon fill="black" stroke="black" points="179.015,-133.112 179.065,-143.707 185.633,-135.393 179.015,-133.112"/>
<g id="a_edge15&#45;headlabel"><a xlink:href="dir_000122_000016.html" target="_top" xlink:title="5">
<text text-anchor="middle" x="177.502" y="-126.288" font-family="Helvetica,sans-Serif" font-size="10.00">5</text>
</a>
</g>
</g>
<!-- dir_37c90836491b695b472bf98d1be8336b&#45;&gt;dir_2171f7ec022c5423887b07c69b2f5b48 -->
<g id="edge16" class="edge"><title>dir_37c90836491b695b472bf98d1be8336b&#45;&gt;dir_2171f7ec022c5423887b07c69b2f5b48</title>
<path fill="none" stroke="black" d="M300.895,-36.1043C301.701,-43.7913 301.937,-53.0537 301.604,-61.6651"/>
<polygon fill="black" stroke="black" points="298.109,-61.4805 300.916,-71.6966 305.092,-61.9597 298.109,-61.4805"/>
<g id="a_edge16&#45;headlabel"><a xlink:href="dir_000122_000043.html" target="_top" xlink:title="5">
<text text-anchor="middle" x="295.522" y="-55.2" font-family="Helvetica,sans-Serif" font-size="10.00">5</text>
</a>
</g>
</g>
<!-- dir_f01815b857f9009bea48e2cb39492245&#45;&gt;dir_4ab6b4cc6a7edbff49100e9123df213f -->
<g id="edge22" class="edge"><title>dir_f01815b857f9009bea48e2cb39492245&#45;&gt;dir_4ab6b4cc6a7edbff49100e9123df213f</title>
<path fill="none" stroke="black" d="M45.6283,-215.772C52.3276,-210.201 60.1709,-204.346 68,-200 89.5287,-188.049 115.622,-178.883 136.533,-172.663"/>
<polygon fill="black" stroke="black" points="137.693,-175.972 146.339,-169.848 135.761,-169.244 137.693,-175.972"/>
<g id="a_edge22&#45;headlabel"><a xlink:href="dir_000241_000016.html" target="_top" xlink:title="1">
<text text-anchor="middle" x="135.022" y="-177.193" font-family="Helvetica,sans-Serif" font-size="10.00">1</text>
</a>
</g>
</g>
<!-- dir_f01815b857f9009bea48e2cb39492245&#45;&gt;dir_37c90836491b695b472bf98d1be8336b -->
<g id="edge23" class="edge"><title>dir_f01815b857f9009bea48e2cb39492245&#45;&gt;dir_37c90836491b695b472bf98d1be8336b</title>
<path fill="none" stroke="black" d="M41.3858,-215.741C68.2963,-184.225 129.142,-116.511 191,-72 211.874,-56.9795 237.609,-43.827 258.256,-34.3815"/>
<polygon fill="black" stroke="black" points="259.946,-37.4598 267.644,-30.18 257.087,-31.0706 259.946,-37.4598"/>
<g id="a_edge23&#45;headlabel"><a xlink:href="dir_000241_000122.html" target="_top" xlink:title="16">
<text text-anchor="middle" x="257.825" y="-39.0198" font-family="Helvetica,sans-Serif" font-size="10.00">16</text>
</a>
</g>
</g>
<!-- dir_2171f7ec022c5423887b07c69b2f5b48&#45;&gt;dir_4ab6b4cc6a7edbff49100e9123df213f -->
<g id="edge24" class="edge"><title>dir_2171f7ec022c5423887b07c69b2f5b48&#45;&gt;dir_4ab6b4cc6a7edbff49100e9123df213f</title>
<path fill="none" stroke="black" d="M271.106,-108.242C253.784,-118.902 230.203,-132.553 210.556,-143.298"/>
<polygon fill="black" stroke="black" points="208.691,-140.327 201.557,-148.161 212.019,-146.485 208.691,-140.327"/>
<g id="a_edge24&#45;headlabel"><a xlink:href="dir_000043_000016.html" target="_top" xlink:title="15">
<text text-anchor="middle" x="210.503" y="-133.62" font-family="Helvetica,sans-Serif" font-size="10.00">15</text>
</a>
</g>
</g>
<!-- dir_2171f7ec022c5423887b07c69b2f5b48&#45;&gt;dir_37c90836491b695b472bf98d1be8336b -->
<g id="edge25" class="edge"><title>dir_2171f7ec022c5423887b07c69b2f5b48&#45;&gt;dir_37c90836491b695b472bf98d1be8336b</title>
<path fill="none" stroke="black" d="M289.084,-71.6966C288.289,-63.9827 288.062,-54.7125 288.405,-46.1124"/>
<polygon fill="black" stroke="black" points="291.898,-46.3243 289.105,-36.1043 284.915,-45.8356 291.898,-46.3243"/>
<g id="a_edge25&#45;headlabel"><a xlink:href="dir_000043_000122.html" target="_top" xlink:title="1">
<text text-anchor="middle" x="294.48" y="-47.6083" font-family="Helvetica,sans-Serif" font-size="10.00">1</text>
</a>
</g>
</g>
</g>
</svg>
