<?xml version="1.0" encoding="UTF-8" standalone="no"?>
<!DOCTYPE svg PUBLIC "-//W3C//DTD SVG 1.1//EN"
 "http://www.w3.org/Graphics/SVG/1.1/DTD/svg11.dtd">
<!-- Generated by graphviz version 2.36.0 (20140111.2315)
 -->
<!-- Title: /home/travis/build/AliceO2Group/AliceO2/Detectors/TPC/reconstruction Pages: 1 -->
<!--zoomable 303 -->
<svg id="main" version="1.1" xmlns="http://www.w3.org/2000/svg" xmlns:xlink="http://www.w3.org/1999/xlink" xml:space="preserve" onload="init(evt)">
<style type="text/css"><![CDATA[
.edge:hover path { stroke: red; }
.edge:hover polygon { stroke: red; fill: red; }
]]></style>
<script type="text/javascript"><![CDATA[
var edges = document.getElementsByTagName('g');
if (edges && edges.length) {
  for (var i=0;i<edges.length;i++) {
    if (edges[i].id.substr(0,4)=='edge') {
      edges[i].setAttribute('class','edge');
    }
  }
}
]]></script>
        <defs>
                <circle id="rim" cx="0" cy="0" r="7"/>
                <circle id="rim2" cx="0" cy="0" r="3.5"/>
                <g id="zoomPlus">
                        <use xlink:href="#rim" fill="#404040">
                                <set attributeName="fill" to="#808080" begin="zoomplus.mouseover" end="zoomplus.mouseout"/>
                        </use>
                        <path d="M-4,0h8M0,-4v8" fill="none" stroke="white" stroke-width="1.5" pointer-events="none"/>
                </g>
                <g id="zoomMin">
                        <use xlink:href="#rim" fill="#404040">
                                <set attributeName="fill" to="#808080" begin="zoomminus.mouseover" end="zoomminus.mouseout"/>
                        </use>
                        <path d="M-4,0h8" fill="none" stroke="white" stroke-width="1.5" pointer-events="none"/>
                </g>
                <g id="dirArrow">
                        <path fill="none" stroke="white" stroke-width="1.5" d="M0,-3.0v7 M-2.5,-0.5L0,-3.0L2.5,-0.5"/>
                </g>
               <g id="resetDef">
                       <use xlink:href="#rim2" fill="#404040">
                               <set attributeName="fill" to="#808080" begin="reset.mouseover" end="reset.mouseout"/>
                       </use>
               </g>
        </defs>

<script type="text/javascript">
var viewWidth = 603;
var viewHeight = 303;
var sectionId = 'dynsection-0';
</script>
<script xlink:href="svgpan.js"/>
<svg id="graph" class="graph">
<g id="viewport">
<title>/home/travis/build/AliceO2Group/AliceO2/Detectors/TPC/reconstruction</title>
<g id="clust1" class="cluster"><title>clusterdir_a597e8e061b11201a1dff411feb10d0b</title>
<g id="a_clust1"><a xlink:href="dir_a597e8e061b11201a1dff411feb10d0b.html" target="_top" xlink:title="TPC">
<polygon fill="#ddddee" stroke="black" points="8,-128 8,-287 406,-287 406,-128 8,-128"/>
<text text-anchor="middle" x="207" y="-275" font-family="Helvetica,sans-Serif" font-size="10.00">TPC</text>
</a>
</g>
</g>
<g id="clust2" class="cluster"><title>clusterdir_a5de047958dd458e809773c6ffaa8478</title>
<g id="a_clust2"><a xlink:href="dir_a5de047958dd458e809773c6ffaa8478.html" target="_top">
<polygon fill="#eeeeff" stroke="black" points="16,-136 16,-260 398,-260 398,-136 16,-136"/>
</a>
</g>
</g>
<!-- dir_a5de047958dd458e809773c6ffaa8478 -->
<g id="node1" class="node"><title>dir_a5de047958dd458e809773c6ffaa8478</title>
<text text-anchor="middle" x="351" y="-231.5" font-family="Helvetica,sans-Serif" font-size="10.00">reconstruction</text>
</g>
<!-- dir_396d171119822f66a36fe1ebf998d1a3 -->
<g id="node2" class="node"><title>dir_396d171119822f66a36fe1ebf998d1a3</title>
<g id="a_node2"><a xlink:href="dir_396d171119822f66a36fe1ebf998d1a3.html" target="_top" xlink:title="include">
<polygon fill="white" stroke="red" points="275,-180 221,-180 221,-144 275,-144 275,-180"/>
<text text-anchor="middle" x="248" y="-159.5" font-family="Helvetica,sans-Serif" font-size="10.00">include</text>
</a>
</g>
</g>
<!-- dir_677b030cc750909e4cd27413873678d8 -->
<g id="node9" class="node"><title>dir_677b030cc750909e4cd27413873678d8</title>
<g id="a_node9"><a xlink:href="dir_677b030cc750909e4cd27413873678d8.html" target="_top" xlink:title="base">
<polygon fill="none" stroke="red" points="423,-108 369,-108 369,-72 423,-72 423,-108"/>
<text text-anchor="middle" x="396" y="-87.5" font-family="Helvetica,sans-Serif" font-size="10.00">base</text>
</a>
</g>
</g>
<!-- dir_396d171119822f66a36fe1ebf998d1a3&#45;&gt;dir_677b030cc750909e4cd27413873678d8 -->
<g id="edge14" class="edge"><title>dir_396d171119822f66a36fe1ebf998d1a3&#45;&gt;dir_677b030cc750909e4cd27413873678d8</title>
<path fill="none" stroke="black" d="M266.621,-143.759C273.32,-138.187 281.165,-132.335 289,-128 311.123,-115.761 338.028,-106.48 359.324,-100.274"/>
<polygon fill="black" stroke="black" points="360.3,-103.636 368.979,-97.5579 358.404,-96.8972 360.3,-103.636"/>
<g id="a_edge14&#45;headlabel"><a xlink:href="dir_000206_000171.html" target="_top" xlink:title="7">
<text text-anchor="middle" x="357.609" y="-104.842" font-family="Helvetica,sans-Serif" font-size="10.00">7</text>
</a>
</g>
</g>
<!-- dir_2171f7ec022c5423887b07c69b2f5b48 -->
<g id="node10" class="node"><title>dir_2171f7ec022c5423887b07c69b2f5b48</title>
<g id="a_node10"><a xlink:href="dir_2171f7ec022c5423887b07c69b2f5b48.html" target="_top" xlink:title="DataFormats">
<polygon fill="none" stroke="red" points="460,-36 386,-36 386,-0 460,-0 460,-36"/>
<text text-anchor="middle" x="423" y="-15.5" font-family="Helvetica,sans-Serif" font-size="10.00">DataFormats</text>
</a>
</g>
</g>
<!-- dir_396d171119822f66a36fe1ebf998d1a3&#45;&gt;dir_2171f7ec022c5423887b07c69b2f5b48 -->
<g id="edge15" class="edge"><title>dir_396d171119822f66a36fe1ebf998d1a3&#45;&gt;dir_2171f7ec022c5423887b07c69b2f5b48</title>
<path fill="none" stroke="black" d="M260.496,-143.677C274.951,-124.484 300.217,-93.4222 327,-72 342.053,-59.9598 360.216,-49.153 376.674,-40.4874"/>
<polygon fill="black" stroke="black" points="378.314,-43.58 385.611,-35.8992 375.117,-37.3526 378.314,-43.58"/>
<g id="a_edge15&#45;headlabel"><a xlink:href="dir_000206_000043.html" target="_top" xlink:title="16">
<text text-anchor="middle" x="376.412" y="-45.2475" font-family="Helvetica,sans-Serif" font-size="10.00">16</text>
</a>
</g>
</g>
<!-- dir_4cbbc7f21c16d130545e15f2205651b3 -->
<g id="node3" class="node"><title>dir_4cbbc7f21c16d130545e15f2205651b3</title>
<g id="a_node3"><a xlink:href="dir_4cbbc7f21c16d130545e15f2205651b3.html" target="_top" xlink:title="macro">
<polygon fill="white" stroke="black" points="222,-252 168,-252 168,-216 222,-216 222,-252"/>
<text text-anchor="middle" x="195" y="-231.5" font-family="Helvetica,sans-Serif" font-size="10.00">macro</text>
</a>
</g>
</g>
<!-- dir_4cbbc7f21c16d130545e15f2205651b3&#45;&gt;dir_396d171119822f66a36fe1ebf998d1a3 -->
<g id="edge12" class="edge"><title>dir_4cbbc7f21c16d130545e15f2205651b3&#45;&gt;dir_396d171119822f66a36fe1ebf998d1a3</title>
<path fill="none" stroke="black" d="M208.101,-215.697C214.391,-207.389 222.047,-197.277 228.965,-188.141"/>
<polygon fill="black" stroke="black" points="231.804,-190.19 235.05,-180.104 226.223,-185.964 231.804,-190.19"/>
<g id="a_edge12&#45;headlabel"><a xlink:href="dir_000261_000206.html" target="_top" xlink:title="9">
<text text-anchor="middle" x="231.897" y="-192.269" font-family="Helvetica,sans-Serif" font-size="10.00">9</text>
</a>
</g>
</g>
<!-- dir_7f309bec8670bb3fb666e7e061b24659 -->
<g id="node7" class="node"><title>dir_7f309bec8670bb3fb666e7e061b24659</title>
<g id="a_node7"><a xlink:href="dir_7f309bec8670bb3fb666e7e061b24659.html" target="_top" xlink:title="simulation">
<polygon fill="none" stroke="red" points="475.25,-180 414.75,-180 414.75,-144 475.25,-144 475.25,-180"/>
<text text-anchor="middle" x="445" y="-159.5" font-family="Helvetica,sans-Serif" font-size="10.00">simulation</text>
</a>
</g>
</g>
<!-- dir_4cbbc7f21c16d130545e15f2205651b3&#45;&gt;dir_7f309bec8670bb3fb666e7e061b24659 -->
<g id="edge9" class="edge"><title>dir_4cbbc7f21c16d130545e15f2205651b3&#45;&gt;dir_7f309bec8670bb3fb666e7e061b24659</title>
<path fill="none" stroke="black" d="M222.244,-219.328C225.162,-218.107 228.117,-216.969 231,-216 304.617,-191.249 327.621,-202.357 402,-180 403.038,-179.688 404.086,-179.362 405.14,-179.023"/>
<polygon fill="black" stroke="black" points="406.382,-182.297 414.687,-175.719 404.092,-175.682 406.382,-182.297"/>
<g id="a_edge9&#45;headlabel"><a xlink:href="dir_000261_000148.html" target="_top" xlink:title="1">
<text text-anchor="middle" x="403.913" y="-183.656" font-family="Helvetica,sans-Serif" font-size="10.00">1</text>
</a>
</g>
</g>
<!-- dir_4995562033b321477cfe3c34a14a5189 -->
<g id="node8" class="node"><title>dir_4995562033b321477cfe3c34a14a5189</title>
<g id="a_node8"><a xlink:href="dir_4995562033b321477cfe3c34a14a5189.html" target="_top" xlink:title="calibration">
<polygon fill="none" stroke="red" points="554.25,-180 493.75,-180 493.75,-144 554.25,-144 554.25,-180"/>
<text text-anchor="middle" x="524" y="-159.5" font-family="Helvetica,sans-Serif" font-size="10.00">calibration</text>
</a>
</g>
</g>
<!-- dir_4cbbc7f21c16d130545e15f2205651b3&#45;&gt;dir_4995562033b321477cfe3c34a14a5189 -->
<g id="edge10" class="edge"><title>dir_4cbbc7f21c16d130545e15f2205651b3&#45;&gt;dir_4995562033b321477cfe3c34a14a5189</title>
<path fill="none" stroke="black" d="M222.182,-219.131C225.112,-217.949 228.087,-216.873 231,-216 339.793,-183.385 374.587,-210.47 484,-180 484.1,-179.972 484.2,-179.944 484.3,-179.916"/>
<polygon fill="black" stroke="black" points="485.304,-183.27 493.719,-176.834 483.126,-176.617 485.304,-183.27"/>
<g id="a_edge10&#45;headlabel"><a xlink:href="dir_000261_000250.html" target="_top" xlink:title="1">
<text text-anchor="middle" x="482.77" y="-184.587" font-family="Helvetica,sans-Serif" font-size="10.00">1</text>
</a>
</g>
</g>
<!-- dir_4cbbc7f21c16d130545e15f2205651b3&#45;&gt;dir_677b030cc750909e4cd27413873678d8 -->
<g id="edge11" class="edge"><title>dir_4cbbc7f21c16d130545e15f2205651b3&#45;&gt;dir_677b030cc750909e4cd27413873678d8</title>
<path fill="none" stroke="black" d="M222.323,-219.549C225.226,-218.285 228.156,-217.077 231,-216 284.67,-195.684 311.511,-217.443 355,-180 373.554,-164.026 384.204,-137.885 389.974,-118.057"/>
<polygon fill="black" stroke="black" points="393.367,-118.915 392.562,-108.351 386.603,-117.111 393.367,-118.915"/>
<g id="a_edge11&#45;headlabel"><a xlink:href="dir_000261_000171.html" target="_top" xlink:title="9">
<text text-anchor="middle" x="395.184" y="-120.62" font-family="Helvetica,sans-Serif" font-size="10.00">9</text>
</a>
</g>
</g>
<!-- dir_4cbbc7f21c16d130545e15f2205651b3&#45;&gt;dir_2171f7ec022c5423887b07c69b2f5b48 -->
<g id="edge13" class="edge"><title>dir_4cbbc7f21c16d130545e15f2205651b3&#45;&gt;dir_2171f7ec022c5423887b07c69b2f5b48</title>
<path fill="none" stroke="black" d="M222.167,-218.465C244.479,-206.233 273.975,-189.29 284,-180 327.051,-140.106 320.324,-115.252 360,-72 369.624,-61.5083 381.297,-51.1571 391.967,-42.4255"/>
<polygon fill="black" stroke="black" points="394.262,-45.0713 399.88,-36.0886 389.887,-39.6073 394.262,-45.0713"/>
<g id="a_edge13&#45;headlabel"><a xlink:href="dir_000261_000043.html" target="_top" xlink:title="20">
<text text-anchor="middle" x="393.231" y="-47.0344" font-family="Helvetica,sans-Serif" font-size="10.00">20</text>
</a>
</g>
</g>
<!-- dir_f9c1a6d4eb662f0614520771b81d0fc2 -->
<g id="node4" class="node"><title>dir_f9c1a6d4eb662f0614520771b81d0fc2</title>
<g id="a_node4"><a xlink:href="dir_f9c1a6d4eb662f0614520771b81d0fc2.html" target="_top" xlink:title="run">
<polygon fill="white" stroke="black" points="150,-252 96,-252 96,-216 150,-216 150,-252"/>
<text text-anchor="middle" x="123" y="-231.5" font-family="Helvetica,sans-Serif" font-size="10.00">run</text>
</a>
</g>
</g>
<!-- dir_f9c1a6d4eb662f0614520771b81d0fc2&#45;&gt;dir_396d171119822f66a36fe1ebf998d1a3 -->
<g id="edge2" class="edge"><title>dir_f9c1a6d4eb662f0614520771b81d0fc2&#45;&gt;dir_396d171119822f66a36fe1ebf998d1a3</title>
<path fill="none" stroke="black" d="M150.123,-217.811C168.305,-207.629 192.443,-194.112 212.199,-183.049"/>
<polygon fill="black" stroke="black" points="213.915,-186.099 220.93,-178.159 210.495,-179.992 213.915,-186.099"/>
<g id="a_edge2&#45;headlabel"><a xlink:href="dir_000262_000206.html" target="_top" xlink:title="4">
<text text-anchor="middle" x="212.166" y="-187.833" font-family="Helvetica,sans-Serif" font-size="10.00">4</text>
</a>
</g>
</g>
<!-- dir_f9c1a6d4eb662f0614520771b81d0fc2&#45;&gt;dir_677b030cc750909e4cd27413873678d8 -->
<g id="edge1" class="edge"><title>dir_f9c1a6d4eb662f0614520771b81d0fc2&#45;&gt;dir_677b030cc750909e4cd27413873678d8</title>
<path fill="none" stroke="black" d="M150.321,-219.543C153.224,-218.28 156.155,-217.074 159,-216 213.091,-195.591 232.612,-206.489 284,-180 288.623,-177.617 335.16,-140.238 366.773,-114.688"/>
<polygon fill="black" stroke="black" points="369.276,-117.165 374.85,-108.155 364.874,-111.722 369.276,-117.165"/>
<g id="a_edge1&#45;headlabel"><a xlink:href="dir_000262_000171.html" target="_top" xlink:title="2">
<text text-anchor="middle" x="368.267" y="-119.133" font-family="Helvetica,sans-Serif" font-size="10.00">2</text>
</a>
</g>
</g>
<!-- dir_0c8c50542de1d83a040084fab225b0f7 -->
<g id="node5" class="node"><title>dir_0c8c50542de1d83a040084fab225b0f7</title>
<g id="a_node5"><a xlink:href="dir_0c8c50542de1d83a040084fab225b0f7.html" target="_top" xlink:title="src">
<polygon fill="white" stroke="black" points="294,-252 240,-252 240,-216 294,-216 294,-252"/>
<text text-anchor="middle" x="267" y="-231.5" font-family="Helvetica,sans-Serif" font-size="10.00">src</text>
</a>
</g>
</g>
<!-- dir_0c8c50542de1d83a040084fab225b0f7&#45;&gt;dir_396d171119822f66a36fe1ebf998d1a3 -->
<g id="edge18" class="edge"><title>dir_0c8c50542de1d83a040084fab225b0f7&#45;&gt;dir_396d171119822f66a36fe1ebf998d1a3</title>
<path fill="none" stroke="black" d="M262.303,-215.697C260.187,-207.898 257.638,-198.509 255.282,-189.829"/>
<polygon fill="black" stroke="black" points="258.64,-188.838 252.643,-180.104 251.884,-190.672 258.64,-188.838"/>
<g id="a_edge18&#45;headlabel"><a xlink:href="dir_000217_000206.html" target="_top" xlink:title="22">
<text text-anchor="middle" x="262.322" y="-189.064" font-family="Helvetica,sans-Serif" font-size="10.00">22</text>
</a>
</g>
</g>
<!-- dir_0c8c50542de1d83a040084fab225b0f7&#45;&gt;dir_677b030cc750909e4cd27413873678d8 -->
<g id="edge17" class="edge"><title>dir_0c8c50542de1d83a040084fab225b0f7&#45;&gt;dir_677b030cc750909e4cd27413873678d8</title>
<path fill="none" stroke="black" d="M294.178,-219.119C297.109,-217.94 300.085,-216.868 303,-216 358.904,-199.355 524.688,-223.982 563,-180 578.18,-162.573 577.467,-146.023 563,-128 547.038,-108.115 477.34,-98.2583 433.184,-93.924"/>
<polygon fill="black" stroke="black" points="433.379,-90.4271 423.097,-92.9857 432.73,-97.397 433.379,-90.4271"/>
<g id="a_edge17&#45;headlabel"><a xlink:href="dir_000217_000171.html" target="_top" xlink:title="20">
<text text-anchor="middle" x="437.221" y="-85.4329" font-family="Helvetica,sans-Serif" font-size="10.00">20</text>
</a>
</g>
</g>
<!-- dir_0c8c50542de1d83a040084fab225b0f7&#45;&gt;dir_2171f7ec022c5423887b07c69b2f5b48 -->
<g id="edge19" class="edge"><title>dir_0c8c50542de1d83a040084fab225b0f7&#45;&gt;dir_2171f7ec022c5423887b07c69b2f5b48</title>
<path fill="none" stroke="black" d="M294.17,-219.092C297.102,-217.917 300.081,-216.854 303,-216 362.997,-198.439 540.721,-226.947 582,-180 628.633,-126.963 531.364,-69.0208 469.302,-39.2165"/>
<polygon fill="black" stroke="black" points="470.584,-35.9518 460.047,-34.8535 467.6,-42.2835 470.584,-35.9518"/>
<g id="a_edge19&#45;headlabel"><a xlink:href="dir_000217_000043.html" target="_top" xlink:title="11">
<text text-anchor="middle" x="475.047" y="-32.4163" font-family="Helvetica,sans-Serif" font-size="10.00">11</text>
</a>
</g>
</g>
<!-- dir_064d7f478c030df51e47c94b08ab25b1 -->
<g id="node6" class="node"><title>dir_064d7f478c030df51e47c94b08ab25b1</title>
<g id="a_node6"><a xlink:href="dir_064d7f478c030df51e47c94b08ab25b1.html" target="_top" xlink:title="test">
<polygon fill="white" stroke="black" points="78,-252 24,-252 24,-216 78,-216 78,-252"/>
<text text-anchor="middle" x="51" y="-231.5" font-family="Helvetica,sans-Serif" font-size="10.00">test</text>
</a>
</g>
</g>
<!-- dir_064d7f478c030df51e47c94b08ab25b1&#45;&gt;dir_396d171119822f66a36fe1ebf998d1a3 -->
<g id="edge16" class="edge"><title>dir_064d7f478c030df51e47c94b08ab25b1&#45;&gt;dir_396d171119822f66a36fe1ebf998d1a3</title>
<path fill="none" stroke="black" d="M78.3637,-219.652C81.2581,-218.369 84.1753,-217.127 87,-216 128.861,-199.3 178.259,-183.612 211.194,-173.703"/>
<polygon fill="black" stroke="black" points="212.278,-177.032 220.859,-170.818 210.276,-170.324 212.278,-177.032"/>
<g id="a_edge16&#45;headlabel"><a xlink:href="dir_000263_000206.html" target="_top" xlink:title="2">
<text text-anchor="middle" x="209.645" y="-178.28" font-family="Helvetica,sans-Serif" font-size="10.00">2</text>
</a>
</g>
</g>
<!-- dir_7f309bec8670bb3fb666e7e061b24659&#45;&gt;dir_677b030cc750909e4cd27413873678d8 -->
<g id="edge3" class="edge"><title>dir_7f309bec8670bb3fb666e7e061b24659&#45;&gt;dir_677b030cc750909e4cd27413873678d8</title>
<path fill="none" stroke="black" d="M432.888,-143.697C427.132,-135.474 420.138,-125.483 413.794,-116.421"/>
<polygon fill="black" stroke="black" points="416.575,-114.29 407.973,-108.104 410.84,-118.304 416.575,-114.29"/>
<g id="a_edge3&#45;headlabel"><a xlink:href="dir_000148_000171.html" target="_top" xlink:title="44">
<text text-anchor="middle" x="420.962" y="-113.106" font-family="Helvetica,sans-Serif" font-size="10.00">44</text>
</a>
</g>
</g>
<!-- dir_7f309bec8670bb3fb666e7e061b24659&#45;&gt;dir_2171f7ec022c5423887b07c69b2f5b48 -->
<g id="edge4" class="edge"><title>dir_7f309bec8670bb3fb666e7e061b24659&#45;&gt;dir_2171f7ec022c5423887b07c69b2f5b48</title>
<path fill="none" stroke="black" d="M442.625,-143.92C440.104,-125.99 435.946,-96.9872 432,-72 430.669,-63.5734 429.141,-54.4074 427.727,-46.1043"/>
<polygon fill="black" stroke="black" points="431.163,-45.4317 426.019,-36.1693 424.264,-46.6177 431.163,-45.4317"/>
<g id="a_edge4&#45;headlabel"><a xlink:href="dir_000148_000043.html" target="_top" xlink:title="9">
<text text-anchor="middle" x="434.57" y="-45.9934" font-family="Helvetica,sans-Serif" font-size="10.00">9</text>
</a>
</g>
</g>
<!-- dir_4995562033b321477cfe3c34a14a5189&#45;&gt;dir_396d171119822f66a36fe1ebf998d1a3 -->
<g id="edge6" class="edge"><title>dir_4995562033b321477cfe3c34a14a5189&#45;&gt;dir_396d171119822f66a36fe1ebf998d1a3</title>
<path fill="none" stroke="black" d="M505.133,-180.242C496.632,-187.227 486.034,-194.382 475,-198 410.003,-219.31 330.268,-195.939 284.677,-178.17"/>
<polygon fill="black" stroke="black" points="285.796,-174.848 275.212,-174.369 283.187,-181.344 285.796,-174.848"/>
<g id="a_edge6&#45;headlabel"><a xlink:href="dir_000250_000206.html" target="_top" xlink:title="3">
<text text-anchor="middle" x="290.19" y="-171.053" font-family="Helvetica,sans-Serif" font-size="10.00">3</text>
</a>
</g>
</g>
<!-- dir_4995562033b321477cfe3c34a14a5189&#45;&gt;dir_677b030cc750909e4cd27413873678d8 -->
<g id="edge5" class="edge"><title>dir_4995562033b321477cfe3c34a14a5189&#45;&gt;dir_677b030cc750909e4cd27413873678d8</title>
<path fill="none" stroke="black" d="M505.323,-143.682C498.869,-138.231 491.395,-132.472 484,-128 468.028,-118.341 449.077,-110.019 432.86,-103.728"/>
<polygon fill="black" stroke="black" points="433.759,-100.327 423.167,-100.079 431.293,-106.878 433.759,-100.327"/>
<g id="a_edge5&#45;headlabel"><a xlink:href="dir_000250_000171.html" target="_top" xlink:title="10">
<text text-anchor="middle" x="438.123" y="-96.4356" font-family="Helvetica,sans-Serif" font-size="10.00">10</text>
</a>
</g>
</g>
<!-- dir_4995562033b321477cfe3c34a14a5189&#45;&gt;dir_2171f7ec022c5423887b07c69b2f5b48 -->
<g id="edge7" class="edge"><title>dir_4995562033b321477cfe3c34a14a5189&#45;&gt;dir_2171f7ec022c5423887b07c69b2f5b48</title>
<path fill="none" stroke="black" d="M511.817,-143.871C494.224,-119.137 461.581,-73.2424 441.146,-44.5121"/>
<polygon fill="black" stroke="black" points="443.874,-42.3096 435.226,-36.1893 438.17,-46.3669 443.874,-42.3096"/>
<g id="a_edge7&#45;headlabel"><a xlink:href="dir_000250_000043.html" target="_top" xlink:title="3">
<text text-anchor="middle" x="448.272" y="-41.0932" font-family="Helvetica,sans-Serif" font-size="10.00">3</text>
</a>
</g>
</g>
<!-- dir_677b030cc750909e4cd27413873678d8&#45;&gt;dir_2171f7ec022c5423887b07c69b2f5b48 -->
<g id="edge8" class="edge"><title>dir_677b030cc750909e4cd27413873678d8&#45;&gt;dir_2171f7ec022c5423887b07c69b2f5b48</title>
<path fill="none" stroke="black" d="M402.674,-71.6966C405.715,-63.8132 409.383,-54.3042 412.761,-45.5464"/>
<polygon fill="black" stroke="black" points="416.069,-46.6939 416.403,-36.1043 409.538,-44.1748 416.069,-46.6939"/>
<g id="a_edge8&#45;headlabel"><a xlink:href="dir_000171_000043.html" target="_top" xlink:title="13">
<text text-anchor="middle" x="417.425" y="-48.5695" font-family="Helvetica,sans-Serif" font-size="10.00">13</text>
</a>
</g>
</g>
</g>
</svg>
        <g id="navigator" transform="translate(0 0)" fill="#404254">
                <rect fill="#f2f5e9" fill-opacity="0.5" stroke="#606060" stroke-width=".5" x="0" y="0" width="60" height="60"/>
                <use id="zoomplus" xlink:href="#zoomPlus" x="17" y="9" onmousedown="handleZoom(evt,'in')"/>
                <use id="zoomminus" xlink:href="#zoomMin" x="42" y="9" onmousedown="handleZoom(evt,'out')"/>
                <use id="reset" xlink:href="#resetDef" x="30" y="36" onmousedown="handleReset()"/>
                <g id="arrowUp" xlink:href="#dirArrow" transform="translate(30 24)" onmousedown="handlePan(0,-1)">
                  <use xlink:href="#rim" fill="#404040">
                        <set attributeName="fill" to="#808080" begin="arrowUp.mouseover" end="arrowUp.mouseout"/>
                  </use>
                  <path fill="none" stroke="white" stroke-width="1.5" d="M0,-3.0v7 M-2.5,-0.5L0,-3.0L2.5,-0.5"/>
                </g>
                <g id="arrowRight" xlink:href="#dirArrow" transform="rotate(90) translate(36 -43)" onmousedown="handlePan(1,0)">
                  <use xlink:href="#rim" fill="#404040">
                        <set attributeName="fill" to="#808080" begin="arrowRight.mouseover" end="arrowRight.mouseout"/>
                  </use>
                  <path fill="none" stroke="white" stroke-width="1.5" d="M0,-3.0v7 M-2.5,-0.5L0,-3.0L2.5,-0.5"/>
                </g>
                <g id="arrowDown" xlink:href="#dirArrow" transform="rotate(180) translate(-30 -48)" onmousedown="handlePan(0,1)">
                  <use xlink:href="#rim" fill="#404040">
                        <set attributeName="fill" to="#808080" begin="arrowDown.mouseover" end="arrowDown.mouseout"/>
                  </use>
                  <path fill="none" stroke="white" stroke-width="1.5" d="M0,-3.0v7 M-2.5,-0.5L0,-3.0L2.5,-0.5"/>
                </g>
                <g id="arrowLeft" xlink:href="#dirArrow" transform="rotate(270) translate(-36 17)" onmousedown="handlePan(-1,0)">
                  <use xlink:href="#rim" fill="#404040">
                        <set attributeName="fill" to="#808080" begin="arrowLeft.mouseover" end="arrowLeft.mouseout"/>
                  </use>
                  <path fill="none" stroke="white" stroke-width="1.5" d="M0,-3.0v7 M-2.5,-0.5L0,-3.0L2.5,-0.5"/>
                </g>
        </g>
        <svg viewBox="0 0 15 15" width="100%" height="30px" preserveAspectRatio="xMaxYMin meet">
         <g id="arrow_out" transform="scale(0.3 0.3)">
          <a xlink:href="dir_a5de047958dd458e809773c6ffaa8478_dep_org.svg" target="_base">
           <rect id="button" ry="5" rx="5" y="6" x="6" height="38" width="38"
                fill="#f2f5e9" fill-opacity="0.5" stroke="#606060" stroke-width="1.0"/>
           <path id="arrow"
             d="M 11.500037,31.436501 C 11.940474,20.09759 22.043105,11.32322 32.158766,21.979434 L 37.068811,17.246167 C 37.068811,17.246167 37.088388,32 37.088388,32 L 22.160133,31.978069 C 22.160133,31.978069 26.997745,27.140456 26.997745,27.140456 C 18.528582,18.264221 13.291696,25.230495 11.500037,31.436501 z"
             style="fill:#404040;"/>
          </a>
         </g>
        </svg>
</svg>
