<?xml version="1.0" encoding="UTF-8" standalone="no"?>
<!DOCTYPE svg PUBLIC "-//W3C//DTD SVG 1.1//EN"
 "http://www.w3.org/Graphics/SVG/1.1/DTD/svg11.dtd">
<!-- Generated by graphviz version 2.36.0 (20140111.2315)
 -->
<!-- Title: /home/travis/build/AliceO2Group/AliceO2/Detectors/ITSMFT/ITS/base/include Pages: 1 -->
<svg width="184pt" height="375pt"
 viewBox="0.00 0.00 184.00 375.00" xmlns="http://www.w3.org/2000/svg" xmlns:xlink="http://www.w3.org/1999/xlink">
<g id="graph0" class="graph" transform="scale(1 1) rotate(0) translate(4 371)">
<title>/home/travis/build/AliceO2Group/AliceO2/Detectors/ITSMFT/ITS/base/include</title>
<g id="clust1" class="cluster"><title>clusterdir_eedff867f3c4e67d20b227cb6e0f96ab</title>
<g id="a_clust1"><a xlink:href="dir_eedff867f3c4e67d20b227cb6e0f96ab.html" target="_top" xlink:title="base">
<polygon fill="#ddddee" stroke="black" points="8,-272 8,-359 168,-359 168,-272 8,-272"/>
<text text-anchor="middle" x="88" y="-347" font-family="Helvetica,sans-Serif" font-size="10.00">base</text>
</a>
</g>
</g>
<g id="clust2" class="cluster"><title>clusterdir_7c7589ac5e0cc6a282d368c91949af0d</title>
<g id="a_clust2"><a xlink:href="dir_7c7589ac5e0cc6a282d368c91949af0d.html" target="_top">
<polygon fill="#eeeeff" stroke="black" points="16,-280 16,-332 160,-332 160,-280 16,-280"/>
</a>
</g>
</g>
<!-- dir_7c7589ac5e0cc6a282d368c91949af0d -->
<g id="node1" class="node"><title>dir_7c7589ac5e0cc6a282d368c91949af0d</title>
<text text-anchor="middle" x="125" y="-303.5" font-family="Helvetica,sans-Serif" font-size="10.00">include</text>
</g>
<!-- dir_d8e9890f0d3106b34fa6b23d6fff1d5d -->
<g id="node2" class="node"><title>dir_d8e9890f0d3106b34fa6b23d6fff1d5d</title>
<g id="a_node2"><a xlink:href="dir_d8e9890f0d3106b34fa6b23d6fff1d5d.html" target="_top" xlink:title="ITSBase">
<polygon fill="white" stroke="black" points="79.25,-324 24.75,-324 24.75,-288 79.25,-288 79.25,-324"/>
<text text-anchor="middle" x="52" y="-303.5" font-family="Helvetica,sans-Serif" font-size="10.00">ITSBase</text>
</a>
</g>
</g>
<!-- dir_4ab6b4cc6a7edbff49100e9123df213f -->
<g id="node3" class="node"><title>dir_4ab6b4cc6a7edbff49100e9123df213f</title>
<g id="a_node3"><a xlink:href="dir_4ab6b4cc6a7edbff49100e9123df213f.html" target="_top" xlink:title="Common">
<polygon fill="none" stroke="red" points="68.5,-180 13.5,-180 13.5,-144 68.5,-144 68.5,-180"/>
<text text-anchor="middle" x="41" y="-159.5" font-family="Helvetica,sans-Serif" font-size="10.00">Common</text>
</a>
</g>
</g>
<!-- dir_d8e9890f0d3106b34fa6b23d6fff1d5d&#45;&gt;dir_4ab6b4cc6a7edbff49100e9123df213f -->
<g id="edge6" class="edge"><title>dir_d8e9890f0d3106b34fa6b23d6fff1d5d&#45;&gt;dir_4ab6b4cc6a7edbff49100e9123df213f</title>
<path fill="none" stroke="black" d="M48.8993,-287.876C47.1541,-277.525 45.1084,-264.046 44,-252 42.0996,-231.346 41.3671,-207.898 41.1004,-190.256"/>
<polygon fill="black" stroke="black" points="44.5985,-190.059 40.9882,-180.099 37.599,-190.137 44.5985,-190.059"/>
<g id="a_edge6&#45;headlabel"><a xlink:href="dir_000200_000016.html" target="_top" xlink:title="1">
<text text-anchor="middle" x="47.4772" y="-191.123" font-family="Helvetica,sans-Serif" font-size="10.00">1</text>
</a>
</g>
</g>
<!-- dir_37c90836491b695b472bf98d1be8336b -->
<g id="node4" class="node"><title>dir_37c90836491b695b472bf98d1be8336b</title>
<g id="a_node4"><a xlink:href="dir_37c90836491b695b472bf98d1be8336b.html" target="_top" xlink:title="Base">
<polygon fill="none" stroke="red" points="86,-36 32,-36 32,-0 86,-0 86,-36"/>
<text text-anchor="middle" x="59" y="-15.5" font-family="Helvetica,sans-Serif" font-size="10.00">Base</text>
</a>
</g>
</g>
<!-- dir_d8e9890f0d3106b34fa6b23d6fff1d5d&#45;&gt;dir_37c90836491b695b472bf98d1be8336b -->
<g id="edge7" class="edge"><title>dir_d8e9890f0d3106b34fa6b23d6fff1d5d&#45;&gt;dir_37c90836491b695b472bf98d1be8336b</title>
<path fill="none" stroke="black" d="M40.9725,-287.849C23.5619,-258.68 -7.2234,-197.375 4,-144 11.5803,-107.95 30.2194,-69.614 43.701,-45.0464"/>
<polygon fill="black" stroke="black" points="46.9198,-46.4622 48.7592,-36.0283 40.8146,-43.0378 46.9198,-46.4622"/>
<g id="a_edge7&#45;headlabel"><a xlink:href="dir_000200_000122.html" target="_top" xlink:title="1">
<text text-anchor="middle" x="47.6377" y="-48.4863" font-family="Helvetica,sans-Serif" font-size="10.00">1</text>
</a>
</g>
</g>
<!-- dir_85bf31a2e8d306e7598ffcb73f8df6bf -->
<g id="node5" class="node"><title>dir_85bf31a2e8d306e7598ffcb73f8df6bf</title>
<g id="a_node5"><a xlink:href="dir_85bf31a2e8d306e7598ffcb73f8df6bf.html" target="_top" xlink:title="common">
<polygon fill="none" stroke="red" points="107,-252 53,-252 53,-216 107,-216 107,-252"/>
<text text-anchor="middle" x="80" y="-231.5" font-family="Helvetica,sans-Serif" font-size="10.00">common</text>
</a>
</g>
</g>
<!-- dir_d8e9890f0d3106b34fa6b23d6fff1d5d&#45;&gt;dir_85bf31a2e8d306e7598ffcb73f8df6bf -->
<g id="edge8" class="edge"><title>dir_d8e9890f0d3106b34fa6b23d6fff1d5d&#45;&gt;dir_85bf31a2e8d306e7598ffcb73f8df6bf</title>
<path fill="none" stroke="black" d="M58.9214,-287.697C62.0747,-279.813 65.8783,-270.304 69.3814,-261.546"/>
<polygon fill="black" stroke="black" points="72.694,-262.689 73.1583,-252.104 66.1946,-260.089 72.694,-262.689"/>
<g id="a_edge8&#45;headlabel"><a xlink:href="dir_000200_000164.html" target="_top" xlink:title="1">
<text text-anchor="middle" x="73.9952" y="-264.581" font-family="Helvetica,sans-Serif" font-size="10.00">1</text>
</a>
</g>
</g>
<!-- dir_2171f7ec022c5423887b07c69b2f5b48 -->
<g id="node6" class="node"><title>dir_2171f7ec022c5423887b07c69b2f5b48</title>
<g id="a_node6"><a xlink:href="dir_2171f7ec022c5423887b07c69b2f5b48.html" target="_top" xlink:title="DataFormats">
<polygon fill="none" stroke="red" points="129,-108 55,-108 55,-72 129,-72 129,-108"/>
<text text-anchor="middle" x="92" y="-87.5" font-family="Helvetica,sans-Serif" font-size="10.00">DataFormats</text>
</a>
</g>
</g>
<!-- dir_d8e9890f0d3106b34fa6b23d6fff1d5d&#45;&gt;dir_2171f7ec022c5423887b07c69b2f5b48 -->
<g id="edge9" class="edge"><title>dir_d8e9890f0d3106b34fa6b23d6fff1d5d&#45;&gt;dir_2171f7ec022c5423887b07c69b2f5b48</title>
<path fill="none" stroke="black" d="M70.5359,-287.875C76.351,-282.665 82.8572,-276.997 89,-272 100.584,-262.576 109.282,-265.337 116,-252 137.891,-208.542 119.476,-150.708 105.072,-117.497"/>
<polygon fill="black" stroke="black" points="108.095,-115.688 100.78,-108.024 101.719,-118.577 108.095,-115.688"/>
<g id="a_edge9&#45;headlabel"><a xlink:href="dir_000200_000043.html" target="_top" xlink:title="1">
<text text-anchor="middle" x="112.165" y="-115.29" font-family="Helvetica,sans-Serif" font-size="10.00">1</text>
</a>
</g>
</g>
<!-- dir_4ab6b4cc6a7edbff49100e9123df213f&#45;&gt;dir_2171f7ec022c5423887b07c69b2f5b48 -->
<g id="edge1" class="edge"><title>dir_4ab6b4cc6a7edbff49100e9123df213f&#45;&gt;dir_2171f7ec022c5423887b07c69b2f5b48</title>
<path fill="none" stroke="black" d="M47.691,-143.697C52.8866,-135.389 60.0573,-125.277 67.1771,-116.141"/>
<polygon fill="black" stroke="black" points="70.1013,-118.09 73.6432,-108.104 64.6475,-113.701 70.1013,-118.09"/>
<g id="a_edge1&#45;headlabel"><a xlink:href="dir_000016_000043.html" target="_top" xlink:title="1">
<text text-anchor="middle" x="70.06" y="-120.17" font-family="Helvetica,sans-Serif" font-size="10.00">1</text>
</a>
</g>
</g>
<!-- dir_37c90836491b695b472bf98d1be8336b&#45;&gt;dir_4ab6b4cc6a7edbff49100e9123df213f -->
<g id="edge2" class="edge"><title>dir_37c90836491b695b472bf98d1be8336b&#45;&gt;dir_4ab6b4cc6a7edbff49100e9123df213f</title>
<path fill="none" stroke="black" d="M53.9751,-36.0264C51.1441,-46.3419 47.8202,-59.8189 46,-72 42.9317,-92.5337 41.7062,-115.988 41.2346,-133.662"/>
<polygon fill="black" stroke="black" points="37.7317,-133.774 41.0287,-143.843 44.7303,-133.916 37.7317,-133.774"/>
<g id="a_edge2&#45;headlabel"><a xlink:href="dir_000122_000016.html" target="_top" xlink:title="5">
<text text-anchor="middle" x="34.9657" y="-127.623" font-family="Helvetica,sans-Serif" font-size="10.00">5</text>
</a>
</g>
</g>
<!-- dir_37c90836491b695b472bf98d1be8336b&#45;&gt;dir_2171f7ec022c5423887b07c69b2f5b48 -->
<g id="edge3" class="edge"><title>dir_37c90836491b695b472bf98d1be8336b&#45;&gt;dir_2171f7ec022c5423887b07c69b2f5b48</title>
<path fill="none" stroke="black" d="M72.9585,-36.1043C77.4852,-43.9602 82.1932,-53.4616 85.962,-62.232"/>
<polygon fill="black" stroke="black" points="82.7871,-63.7184 89.7584,-71.6966 89.284,-61.1124 82.7871,-63.7184"/>
<g id="a_edge3&#45;headlabel"><a xlink:href="dir_000122_000043.html" target="_top" xlink:title="5">
<text text-anchor="middle" x="78.8138" y="-58.9392" font-family="Helvetica,sans-Serif" font-size="10.00">5</text>
</a>
</g>
</g>
<!-- dir_85bf31a2e8d306e7598ffcb73f8df6bf&#45;&gt;dir_4ab6b4cc6a7edbff49100e9123df213f -->
<g id="edge4" class="edge"><title>dir_85bf31a2e8d306e7598ffcb73f8df6bf&#45;&gt;dir_4ab6b4cc6a7edbff49100e9123df213f</title>
<path fill="none" stroke="black" d="M70.3595,-215.697C65.8729,-207.644 60.4412,-197.894 55.4759,-188.982"/>
<polygon fill="black" stroke="black" points="58.4541,-187.137 50.5296,-180.104 52.3391,-190.544 58.4541,-187.137"/>
<g id="a_edge4&#45;headlabel"><a xlink:href="dir_000164_000016.html" target="_top" xlink:title="2">
<text text-anchor="middle" x="62.6839" y="-186.395" font-family="Helvetica,sans-Serif" font-size="10.00">2</text>
</a>
</g>
</g>
<!-- dir_85bf31a2e8d306e7598ffcb73f8df6bf&#45;&gt;dir_2171f7ec022c5423887b07c69b2f5b48 -->
<g id="edge5" class="edge"><title>dir_85bf31a2e8d306e7598ffcb73f8df6bf&#45;&gt;dir_2171f7ec022c5423887b07c69b2f5b48</title>
<path fill="none" stroke="black" d="M81.4475,-215.871C83.4927,-191.67 87.2498,-147.211 89.6851,-118.393"/>
<polygon fill="black" stroke="black" points="93.1928,-118.449 90.5474,-108.189 86.2177,-117.859 93.1928,-118.449"/>
<g id="a_edge5&#45;headlabel"><a xlink:href="dir_000164_000043.html" target="_top" xlink:title="17">
<text text-anchor="middle" x="95.7194" y="-119.769" font-family="Helvetica,sans-Serif" font-size="10.00">17</text>
</a>
</g>
</g>
<!-- dir_2171f7ec022c5423887b07c69b2f5b48&#45;&gt;dir_4ab6b4cc6a7edbff49100e9123df213f -->
<g id="edge10" class="edge"><title>dir_2171f7ec022c5423887b07c69b2f5b48&#45;&gt;dir_4ab6b4cc6a7edbff49100e9123df213f</title>
<path fill="none" stroke="black" d="M85.4333,-108.104C80.2695,-116.383 73.1143,-126.488 65.9938,-135.64"/>
<polygon fill="black" stroke="black" points="63.056,-133.708 59.5225,-143.697 68.5135,-138.092 63.056,-133.708"/>
<g id="a_edge10&#45;headlabel"><a xlink:href="dir_000043_000016.html" target="_top" xlink:title="15">
<text text-anchor="middle" x="63.0933" y="-126.628" font-family="Helvetica,sans-Serif" font-size="10.00">15</text>
</a>
</g>
</g>
<!-- dir_2171f7ec022c5423887b07c69b2f5b48&#45;&gt;dir_37c90836491b695b472bf98d1be8336b -->
<g id="edge11" class="edge"><title>dir_2171f7ec022c5423887b07c69b2f5b48&#45;&gt;dir_37c90836491b695b472bf98d1be8336b</title>
<path fill="none" stroke="black" d="M77.927,-71.6966C73.3973,-63.8132 68.6958,-54.3042 64.9429,-45.5464"/>
<polygon fill="black" stroke="black" points="68.1303,-44.0907 61.1684,-36.1043 61.6304,-46.6891 68.1303,-44.0907"/>
<g id="a_edge11&#45;headlabel"><a xlink:href="dir_000043_000122.html" target="_top" xlink:title="1">
<text text-anchor="middle" x="72.101" y="-43.8747" font-family="Helvetica,sans-Serif" font-size="10.00">1</text>
</a>
</g>
</g>
</g>
</svg>
