<?xml version="1.0" encoding="UTF-8" standalone="no"?>
<!DOCTYPE svg PUBLIC "-//W3C//DTD SVG 1.1//EN"
 "http://www.w3.org/Graphics/SVG/1.1/DTD/svg11.dtd">
<!-- Generated by graphviz version 2.36.0 (20140111.2315)
 -->
<!-- Title: /home/travis/build/AliceO2Group/AliceO2/Detectors/ITSMFT/ITS/reconstruction/src Pages: 1 -->
<!--zoomable 511 -->
<svg id="main" version="1.1" xmlns="http://www.w3.org/2000/svg" xmlns:xlink="http://www.w3.org/1999/xlink" xml:space="preserve" onload="init(evt)">
<style type="text/css"><![CDATA[
.edge:hover path { stroke: red; }
.edge:hover polygon { stroke: red; fill: red; }
]]></style>
<script type="text/javascript"><![CDATA[
var edges = document.getElementsByTagName('g');
if (edges && edges.length) {
  for (var i=0;i<edges.length;i++) {
    if (edges[i].id.substr(0,4)=='edge') {
      edges[i].setAttribute('class','edge');
    }
  }
}
]]></script>
        <defs>
                <circle id="rim" cx="0" cy="0" r="7"/>
                <circle id="rim2" cx="0" cy="0" r="3.5"/>
                <g id="zoomPlus">
                        <use xlink:href="#rim" fill="#404040">
                                <set attributeName="fill" to="#808080" begin="zoomplus.mouseover" end="zoomplus.mouseout"/>
                        </use>
                        <path d="M-4,0h8M0,-4v8" fill="none" stroke="white" stroke-width="1.5" pointer-events="none"/>
                </g>
                <g id="zoomMin">
                        <use xlink:href="#rim" fill="#404040">
                                <set attributeName="fill" to="#808080" begin="zoomminus.mouseover" end="zoomminus.mouseout"/>
                        </use>
                        <path d="M-4,0h8" fill="none" stroke="white" stroke-width="1.5" pointer-events="none"/>
                </g>
                <g id="dirArrow">
                        <path fill="none" stroke="white" stroke-width="1.5" d="M0,-3.0v7 M-2.5,-0.5L0,-3.0L2.5,-0.5"/>
                </g>
               <g id="resetDef">
                       <use xlink:href="#rim2" fill="#404040">
                               <set attributeName="fill" to="#808080" begin="reset.mouseover" end="reset.mouseout"/>
                       </use>
               </g>
        </defs>

<script type="text/javascript">
var viewWidth = 336;
var viewHeight = 511;
var sectionId = 'dynsection-0';
</script>
<script xlink:href="svgpan.js"/>
<svg id="graph" class="graph">
<g id="viewport">
<title>/home/travis/build/AliceO2Group/AliceO2/Detectors/ITSMFT/ITS/reconstruction/src</title>
<g id="clust1" class="cluster"><title>clusterdir_5125ceb2b58f632ed0a3019fe2d5cbbc</title>
<g id="a_clust1"><a xlink:href="dir_5125ceb2b58f632ed0a3019fe2d5cbbc.html" target="_top" xlink:title="reconstruction">
<polygon fill="#ddddee" stroke="black" points="127,-424 127,-495 205,-495 205,-424 127,-424"/>
<text text-anchor="middle" x="166" y="-483" font-family="Helvetica,sans-Serif" font-size="10.00">reconstruction</text>
</a>
</g>
</g>
<!-- dir_912fdeb75838ec7e9173df897dc72438 -->
<g id="node1" class="node"><title>dir_912fdeb75838ec7e9173df897dc72438</title>
<g id="a_node1"><a xlink:href="dir_912fdeb75838ec7e9173df897dc72438.html" target="_top" xlink:title="src">
<polygon fill="#eeeeff" stroke="black" points="193,-468 139,-468 139,-432 193,-432 193,-468"/>
<text text-anchor="middle" x="166" y="-447.5" font-family="Helvetica,sans-Serif" font-size="10.00">src</text>
</a>
</g>
</g>
<!-- dir_eedff867f3c4e67d20b227cb6e0f96ab -->
<g id="node2" class="node"><title>dir_eedff867f3c4e67d20b227cb6e0f96ab</title>
<g id="a_node2"><a xlink:href="dir_eedff867f3c4e67d20b227cb6e0f96ab.html" target="_top" xlink:title="base">
<polygon fill="none" stroke="red" points="158,-324 104,-324 104,-288 158,-288 158,-324"/>
<text text-anchor="middle" x="131" y="-303.5" font-family="Helvetica,sans-Serif" font-size="10.00">base</text>
</a>
</g>
</g>
<!-- dir_912fdeb75838ec7e9173df897dc72438&#45;&gt;dir_eedff867f3c4e67d20b227cb6e0f96ab -->
<g id="edge8" class="edge"><title>dir_912fdeb75838ec7e9173df897dc72438&#45;&gt;dir_eedff867f3c4e67d20b227cb6e0f96ab</title>
<path fill="none" stroke="black" d="M161.778,-431.871C155.787,-407.564 144.758,-362.819 137.658,-334.013"/>
<polygon fill="black" stroke="black" points="141.028,-333.061 135.237,-324.189 134.232,-334.736 141.028,-333.061"/>
<g id="a_edge8&#45;headlabel"><a xlink:href="dir_000216_000198.html" target="_top" xlink:title="1">
<text text-anchor="middle" x="144.645" y="-333.372" font-family="Helvetica,sans-Serif" font-size="10.00">1</text>
</a>
</g>
</g>
<!-- dir_4ab6b4cc6a7edbff49100e9123df213f -->
<g id="node3" class="node"><title>dir_4ab6b4cc6a7edbff49100e9123df213f</title>
<g id="a_node3"><a xlink:href="dir_4ab6b4cc6a7edbff49100e9123df213f.html" target="_top" xlink:title="Common">
<polygon fill="none" stroke="red" points="327.5,-180 272.5,-180 272.5,-144 327.5,-144 327.5,-180"/>
<text text-anchor="middle" x="300" y="-159.5" font-family="Helvetica,sans-Serif" font-size="10.00">Common</text>
</a>
</g>
</g>
<!-- dir_912fdeb75838ec7e9173df897dc72438&#45;&gt;dir_4ab6b4cc6a7edbff49100e9123df213f -->
<g id="edge9" class="edge"><title>dir_912fdeb75838ec7e9173df897dc72438&#45;&gt;dir_4ab6b4cc6a7edbff49100e9123df213f</title>
<path fill="none" stroke="black" d="M193.367,-442.937C218.712,-435.906 255.616,-421.822 277,-396 326.171,-336.625 315.109,-237.343 306.074,-189.872"/>
<polygon fill="black" stroke="black" points="309.496,-189.139 304.085,-180.03 302.635,-190.525 309.496,-189.139"/>
<g id="a_edge9&#45;headlabel"><a xlink:href="dir_000216_000016.html" target="_top" xlink:title="12">
<text text-anchor="middle" x="312.991" y="-189.6" font-family="Helvetica,sans-Serif" font-size="10.00">12</text>
</a>
</g>
</g>
<!-- dir_37c90836491b695b472bf98d1be8336b -->
<g id="node4" class="node"><title>dir_37c90836491b695b472bf98d1be8336b</title>
<g id="a_node4"><a xlink:href="dir_37c90836491b695b472bf98d1be8336b.html" target="_top" xlink:title="Base">
<polygon fill="none" stroke="red" points="233,-36 179,-36 179,-0 233,-0 233,-36"/>
<text text-anchor="middle" x="206" y="-15.5" font-family="Helvetica,sans-Serif" font-size="10.00">Base</text>
</a>
</g>
</g>
<!-- dir_912fdeb75838ec7e9173df897dc72438&#45;&gt;dir_37c90836491b695b472bf98d1be8336b -->
<g id="edge10" class="edge"><title>dir_912fdeb75838ec7e9173df897dc72438&#45;&gt;dir_37c90836491b695b472bf98d1be8336b</title>
<path fill="none" stroke="black" d="M138.96,-440.058C91.9217,-422.602 0,-379.247 0,-307 0,-307 0,-307 0,-161 0,-79.9026 109.565,-41.5674 168.885,-26.7552"/>
<polygon fill="black" stroke="black" points="169.735,-30.1506 178.645,-24.417 168.105,-23.3432 169.735,-30.1506"/>
<g id="a_edge10&#45;headlabel"><a xlink:href="dir_000216_000122.html" target="_top" xlink:title="1">
<text text-anchor="middle" x="166.901" y="-31.2491" font-family="Helvetica,sans-Serif" font-size="10.00">1</text>
</a>
</g>
</g>
<!-- dir_85bf31a2e8d306e7598ffcb73f8df6bf -->
<g id="node5" class="node"><title>dir_85bf31a2e8d306e7598ffcb73f8df6bf</title>
<g id="a_node5"><a xlink:href="dir_85bf31a2e8d306e7598ffcb73f8df6bf.html" target="_top" xlink:title="common">
<polygon fill="none" stroke="red" points="234,-252 180,-252 180,-216 234,-216 234,-252"/>
<text text-anchor="middle" x="207" y="-231.5" font-family="Helvetica,sans-Serif" font-size="10.00">common</text>
</a>
</g>
</g>
<!-- dir_912fdeb75838ec7e9173df897dc72438&#45;&gt;dir_85bf31a2e8d306e7598ffcb73f8df6bf -->
<g id="edge11" class="edge"><title>dir_912fdeb75838ec7e9173df897dc72438&#45;&gt;dir_85bf31a2e8d306e7598ffcb73f8df6bf</title>
<path fill="none" stroke="black" d="M169.286,-431.849C176.393,-394.753 193.242,-306.81 201.807,-262.103"/>
<polygon fill="black" stroke="black" points="205.254,-262.712 203.698,-252.232 198.379,-261.395 205.254,-262.712"/>
<g id="a_edge11&#45;headlabel"><a xlink:href="dir_000216_000164.html" target="_top" xlink:title="4">
<text text-anchor="middle" x="207.366" y="-264.277" font-family="Helvetica,sans-Serif" font-size="10.00">4</text>
</a>
</g>
</g>
<!-- dir_a7418508cffd1c8afbbd736339058404 -->
<g id="node6" class="node"><title>dir_a7418508cffd1c8afbbd736339058404</title>
<g id="a_node6"><a xlink:href="dir_a7418508cffd1c8afbbd736339058404.html" target="_top" xlink:title="include">
<polygon fill="none" stroke="red" points="268,-396 214,-396 214,-360 268,-360 268,-396"/>
<text text-anchor="middle" x="241" y="-375.5" font-family="Helvetica,sans-Serif" font-size="10.00">include</text>
</a>
</g>
</g>
<!-- dir_912fdeb75838ec7e9173df897dc72438&#45;&gt;dir_a7418508cffd1c8afbbd736339058404 -->
<g id="edge12" class="edge"><title>dir_912fdeb75838ec7e9173df897dc72438&#45;&gt;dir_a7418508cffd1c8afbbd736339058404</title>
<path fill="none" stroke="black" d="M184.539,-431.697C193.803,-423.05 205.162,-412.449 215.257,-403.027"/>
<polygon fill="black" stroke="black" points="217.751,-405.486 222.674,-396.104 212.975,-400.369 217.751,-405.486"/>
<g id="a_edge12&#45;headlabel"><a xlink:href="dir_000216_000214.html" target="_top" xlink:title="9">
<text text-anchor="middle" x="217.061" y="-407.515" font-family="Helvetica,sans-Serif" font-size="10.00">9</text>
</a>
</g>
</g>
<!-- dir_2171f7ec022c5423887b07c69b2f5b48 -->
<g id="node7" class="node"><title>dir_2171f7ec022c5423887b07c69b2f5b48</title>
<g id="a_node7"><a xlink:href="dir_2171f7ec022c5423887b07c69b2f5b48.html" target="_top" xlink:title="DataFormats">
<polygon fill="none" stroke="red" points="243,-108 169,-108 169,-72 243,-72 243,-108"/>
<text text-anchor="middle" x="206" y="-87.5" font-family="Helvetica,sans-Serif" font-size="10.00">DataFormats</text>
</a>
</g>
</g>
<!-- dir_912fdeb75838ec7e9173df897dc72438&#45;&gt;dir_2171f7ec022c5423887b07c69b2f5b48 -->
<g id="edge13" class="edge"><title>dir_912fdeb75838ec7e9173df897dc72438&#45;&gt;dir_2171f7ec022c5423887b07c69b2f5b48</title>
<path fill="none" stroke="black" d="M146.026,-431.955C119.511,-407.31 76,-358.953 76,-307 76,-307 76,-307 76,-233 76,-179.623 126.589,-137.582 164.651,-113.505"/>
<polygon fill="black" stroke="black" points="166.833,-116.273 173.531,-108.065 163.176,-110.305 166.833,-116.273"/>
<g id="a_edge13&#45;headlabel"><a xlink:href="dir_000216_000043.html" target="_top" xlink:title="18">
<text text-anchor="middle" x="165.251" y="-118.072" font-family="Helvetica,sans-Serif" font-size="10.00">18</text>
</a>
</g>
</g>
<!-- dir_eedff867f3c4e67d20b227cb6e0f96ab&#45;&gt;dir_4ab6b4cc6a7edbff49100e9123df213f -->
<g id="edge1" class="edge"><title>dir_eedff867f3c4e67d20b227cb6e0f96ab&#45;&gt;dir_4ab6b4cc6a7edbff49100e9123df213f</title>
<path fill="none" stroke="black" d="M134.681,-287.697C139.715,-267.937 150.551,-235.794 171,-216 196.178,-191.628 234.117,-177.874 262.342,-170.522"/>
<polygon fill="black" stroke="black" points="263.378,-173.871 272.259,-168.095 261.714,-167.072 263.378,-173.871"/>
<g id="a_edge1&#45;headlabel"><a xlink:href="dir_000198_000016.html" target="_top" xlink:title="2">
<text text-anchor="middle" x="260.561" y="-174.984" font-family="Helvetica,sans-Serif" font-size="10.00">2</text>
</a>
</g>
</g>
<!-- dir_eedff867f3c4e67d20b227cb6e0f96ab&#45;&gt;dir_37c90836491b695b472bf98d1be8336b -->
<g id="edge2" class="edge"><title>dir_eedff867f3c4e67d20b227cb6e0f96ab&#45;&gt;dir_37c90836491b695b472bf98d1be8336b</title>
<path fill="none" stroke="black" d="M129.525,-287.872C126.819,-247.843 124.267,-145.959 160,-72 164.9,-61.8575 172.261,-52.1283 179.665,-43.8367"/>
<polygon fill="black" stroke="black" points="182.396,-46.0424 186.699,-36.3609 177.298,-41.2456 182.396,-46.0424"/>
<g id="a_edge2&#45;headlabel"><a xlink:href="dir_000198_000122.html" target="_top" xlink:title="2">
<text text-anchor="middle" x="182" y="-48.1059" font-family="Helvetica,sans-Serif" font-size="10.00">2</text>
</a>
</g>
</g>
<!-- dir_eedff867f3c4e67d20b227cb6e0f96ab&#45;&gt;dir_85bf31a2e8d306e7598ffcb73f8df6bf -->
<g id="edge3" class="edge"><title>dir_eedff867f3c4e67d20b227cb6e0f96ab&#45;&gt;dir_85bf31a2e8d306e7598ffcb73f8df6bf</title>
<path fill="none" stroke="black" d="M149.787,-287.697C159.174,-279.05 170.684,-268.449 180.913,-259.027"/>
<polygon fill="black" stroke="black" points="183.445,-261.454 188.43,-252.104 178.703,-256.305 183.445,-261.454"/>
<g id="a_edge3&#45;headlabel"><a xlink:href="dir_000198_000164.html" target="_top" xlink:title="2">
<text text-anchor="middle" x="182.725" y="-263.477" font-family="Helvetica,sans-Serif" font-size="10.00">2</text>
</a>
</g>
</g>
<!-- dir_eedff867f3c4e67d20b227cb6e0f96ab&#45;&gt;dir_2171f7ec022c5423887b07c69b2f5b48 -->
<g id="edge4" class="edge"><title>dir_eedff867f3c4e67d20b227cb6e0f96ab&#45;&gt;dir_2171f7ec022c5423887b07c69b2f5b48</title>
<path fill="none" stroke="black" d="M131.896,-287.916C133.216,-269.734 136.411,-240.295 144,-216 155.271,-179.914 175.841,-141.371 190.184,-116.778"/>
<polygon fill="black" stroke="black" points="193.258,-118.457 195.344,-108.069 187.235,-114.888 193.258,-118.457"/>
<g id="a_edge4&#45;headlabel"><a xlink:href="dir_000198_000043.html" target="_top" xlink:title="1">
<text text-anchor="middle" x="193.868" y="-120.496" font-family="Helvetica,sans-Serif" font-size="10.00">1</text>
</a>
</g>
</g>
<!-- dir_4ab6b4cc6a7edbff49100e9123df213f&#45;&gt;dir_2171f7ec022c5423887b07c69b2f5b48 -->
<g id="edge5" class="edge"><title>dir_4ab6b4cc6a7edbff49100e9123df213f&#45;&gt;dir_2171f7ec022c5423887b07c69b2f5b48</title>
<path fill="none" stroke="black" d="M272.397,-144.765C259.285,-135.753 243.816,-124.385 231.047,-114.426"/>
<polygon fill="black" stroke="black" points="233.108,-111.594 223.098,-108.124 228.76,-117.079 233.108,-111.594"/>
<g id="a_edge5&#45;headlabel"><a xlink:href="dir_000016_000043.html" target="_top" xlink:title="1">
<text text-anchor="middle" x="237.689" y="-109.102" font-family="Helvetica,sans-Serif" font-size="10.00">1</text>
</a>
</g>
</g>
<!-- dir_37c90836491b695b472bf98d1be8336b&#45;&gt;dir_4ab6b4cc6a7edbff49100e9123df213f -->
<g id="edge6" class="edge"><title>dir_37c90836491b695b472bf98d1be8336b&#45;&gt;dir_4ab6b4cc6a7edbff49100e9123df213f</title>
<path fill="none" stroke="black" d="M222.787,-36.3508C231.993,-46.3343 243.272,-59.3708 252,-72 265.875,-92.0769 278.835,-116.594 287.782,-134.808"/>
<polygon fill="black" stroke="black" points="284.7,-136.472 292.2,-143.955 291.003,-133.428 284.7,-136.472"/>
<g id="a_edge6&#45;headlabel"><a xlink:href="dir_000122_000016.html" target="_top" xlink:title="5">
<text text-anchor="middle" x="280.58" y="-131.97" font-family="Helvetica,sans-Serif" font-size="10.00">5</text>
</a>
</g>
</g>
<!-- dir_37c90836491b695b472bf98d1be8336b&#45;&gt;dir_2171f7ec022c5423887b07c69b2f5b48 -->
<g id="edge7" class="edge"><title>dir_37c90836491b695b472bf98d1be8336b&#45;&gt;dir_2171f7ec022c5423887b07c69b2f5b48</title>
<path fill="none" stroke="black" d="M211.895,-36.1043C212.701,-43.7913 212.937,-53.0537 212.604,-61.6651"/>
<polygon fill="black" stroke="black" points="209.109,-61.4805 211.916,-71.6966 216.092,-61.9597 209.109,-61.4805"/>
<g id="a_edge7&#45;headlabel"><a xlink:href="dir_000122_000043.html" target="_top" xlink:title="5">
<text text-anchor="middle" x="206.522" y="-55.2" font-family="Helvetica,sans-Serif" font-size="10.00">5</text>
</a>
</g>
</g>
<!-- dir_85bf31a2e8d306e7598ffcb73f8df6bf&#45;&gt;dir_4ab6b4cc6a7edbff49100e9123df213f -->
<g id="edge14" class="edge"><title>dir_85bf31a2e8d306e7598ffcb73f8df6bf&#45;&gt;dir_4ab6b4cc6a7edbff49100e9123df213f</title>
<path fill="none" stroke="black" d="M229.989,-215.697C241.814,-206.796 256.392,-195.823 269.179,-186.199"/>
<polygon fill="black" stroke="black" points="271.391,-188.915 277.276,-180.104 267.181,-183.322 271.391,-188.915"/>
<g id="a_edge14&#45;headlabel"><a xlink:href="dir_000164_000016.html" target="_top" xlink:title="2">
<text text-anchor="middle" x="270.226" y="-190.845" font-family="Helvetica,sans-Serif" font-size="10.00">2</text>
</a>
</g>
</g>
<!-- dir_85bf31a2e8d306e7598ffcb73f8df6bf&#45;&gt;dir_2171f7ec022c5423887b07c69b2f5b48 -->
<g id="edge15" class="edge"><title>dir_85bf31a2e8d306e7598ffcb73f8df6bf&#45;&gt;dir_2171f7ec022c5423887b07c69b2f5b48</title>
<path fill="none" stroke="black" d="M206.879,-215.871C206.709,-191.67 206.396,-147.211 206.193,-118.393"/>
<polygon fill="black" stroke="black" points="209.691,-118.164 206.121,-108.189 202.692,-118.214 209.691,-118.164"/>
<g id="a_edge15&#45;headlabel"><a xlink:href="dir_000164_000043.html" target="_top" xlink:title="17">
<text text-anchor="middle" x="212.556" y="-119.239" font-family="Helvetica,sans-Serif" font-size="10.00">17</text>
</a>
</g>
</g>
<!-- dir_a7418508cffd1c8afbbd736339058404&#45;&gt;dir_eedff867f3c4e67d20b227cb6e0f96ab -->
<g id="edge16" class="edge"><title>dir_a7418508cffd1c8afbbd736339058404&#45;&gt;dir_eedff867f3c4e67d20b227cb6e0f96ab</title>
<path fill="none" stroke="black" d="M214.091,-359.876C199.842,-350.808 182.154,-339.552 166.764,-329.759"/>
<polygon fill="black" stroke="black" points="168.328,-326.606 158.012,-324.19 164.57,-332.511 168.328,-326.606"/>
<g id="a_edge16&#45;headlabel"><a xlink:href="dir_000214_000198.html" target="_top" xlink:title="4">
<text text-anchor="middle" x="172.885" y="-323.64" font-family="Helvetica,sans-Serif" font-size="10.00">4</text>
</a>
</g>
</g>
<!-- dir_a7418508cffd1c8afbbd736339058404&#45;&gt;dir_4ab6b4cc6a7edbff49100e9123df213f -->
<g id="edge17" class="edge"><title>dir_a7418508cffd1c8afbbd736339058404&#45;&gt;dir_4ab6b4cc6a7edbff49100e9123df213f</title>
<path fill="none" stroke="black" d="M255.065,-359.916C262.474,-350.016 271.03,-336.974 276,-324 293.165,-279.188 298.118,-222.989 299.508,-190.225"/>
<polygon fill="black" stroke="black" points="303.011,-190.176 299.855,-180.062 296.015,-189.937 303.011,-190.176"/>
<g id="a_edge17&#45;headlabel"><a xlink:href="dir_000214_000016.html" target="_top" xlink:title="2">
<text text-anchor="middle" x="305.726" y="-191.365" font-family="Helvetica,sans-Serif" font-size="10.00">2</text>
</a>
</g>
</g>
<!-- dir_a7418508cffd1c8afbbd736339058404&#45;&gt;dir_85bf31a2e8d306e7598ffcb73f8df6bf -->
<g id="edge18" class="edge"><title>dir_a7418508cffd1c8afbbd736339058404&#45;&gt;dir_85bf31a2e8d306e7598ffcb73f8df6bf</title>
<path fill="none" stroke="black" d="M236.899,-359.871C231.079,-335.564 220.365,-290.819 213.468,-262.013"/>
<polygon fill="black" stroke="black" points="216.848,-261.099 211.116,-252.189 210.041,-262.729 216.848,-261.099"/>
<g id="a_edge18&#45;headlabel"><a xlink:href="dir_000214_000164.html" target="_top" xlink:title="3">
<text text-anchor="middle" x="220.446" y="-261.434" font-family="Helvetica,sans-Serif" font-size="10.00">3</text>
</a>
</g>
</g>
<!-- dir_a7418508cffd1c8afbbd736339058404&#45;&gt;dir_2171f7ec022c5423887b07c69b2f5b48 -->
<g id="edge19" class="edge"><title>dir_a7418508cffd1c8afbbd736339058404&#45;&gt;dir_2171f7ec022c5423887b07c69b2f5b48</title>
<path fill="none" stroke="black" d="M242.943,-359.965C245.925,-330.458 250.536,-268.01 243,-216 237.951,-181.156 225.375,-142.5 216.285,-117.533"/>
<polygon fill="black" stroke="black" points="219.52,-116.192 212.755,-108.038 212.959,-118.631 219.52,-116.192"/>
<g id="a_edge19&#45;headlabel"><a xlink:href="dir_000214_000043.html" target="_top" xlink:title="3">
<text text-anchor="middle" x="223.434" y="-116.071" font-family="Helvetica,sans-Serif" font-size="10.00">3</text>
</a>
</g>
</g>
<!-- dir_2171f7ec022c5423887b07c69b2f5b48&#45;&gt;dir_4ab6b4cc6a7edbff49100e9123df213f -->
<g id="edge20" class="edge"><title>dir_2171f7ec022c5423887b07c69b2f5b48&#45;&gt;dir_4ab6b4cc6a7edbff49100e9123df213f</title>
<path fill="none" stroke="black" d="M234.864,-108.104C247.581,-116.889 262.319,-127.732 274.613,-137.309"/>
<polygon fill="black" stroke="black" points="272.667,-140.233 282.68,-143.697 277.013,-134.745 272.667,-140.233"/>
<g id="a_edge20&#45;headlabel"><a xlink:href="dir_000043_000016.html" target="_top" xlink:title="15">
<text text-anchor="middle" x="268.087" y="-137.727" font-family="Helvetica,sans-Serif" font-size="10.00">15</text>
</a>
</g>
</g>
<!-- dir_2171f7ec022c5423887b07c69b2f5b48&#45;&gt;dir_37c90836491b695b472bf98d1be8336b -->
<g id="edge21" class="edge"><title>dir_2171f7ec022c5423887b07c69b2f5b48&#45;&gt;dir_37c90836491b695b472bf98d1be8336b</title>
<path fill="none" stroke="black" d="M200.084,-71.6966C199.289,-63.9827 199.062,-54.7125 199.405,-46.1124"/>
<polygon fill="black" stroke="black" points="202.898,-46.3243 200.105,-36.1043 195.915,-45.8356 202.898,-46.3243"/>
<g id="a_edge21&#45;headlabel"><a xlink:href="dir_000043_000122.html" target="_top" xlink:title="1">
<text text-anchor="middle" x="205.48" y="-47.6083" font-family="Helvetica,sans-Serif" font-size="10.00">1</text>
</a>
</g>
</g>
</g>
</svg>
        <g id="navigator" transform="translate(0 0)" fill="#404254">
                <rect fill="#f2f5e9" fill-opacity="0.5" stroke="#606060" stroke-width=".5" x="0" y="0" width="60" height="60"/>
                <use id="zoomplus" xlink:href="#zoomPlus" x="17" y="9" onmousedown="handleZoom(evt,'in')"/>
                <use id="zoomminus" xlink:href="#zoomMin" x="42" y="9" onmousedown="handleZoom(evt,'out')"/>
                <use id="reset" xlink:href="#resetDef" x="30" y="36" onmousedown="handleReset()"/>
                <g id="arrowUp" xlink:href="#dirArrow" transform="translate(30 24)" onmousedown="handlePan(0,-1)">
                  <use xlink:href="#rim" fill="#404040">
                        <set attributeName="fill" to="#808080" begin="arrowUp.mouseover" end="arrowUp.mouseout"/>
                  </use>
                  <path fill="none" stroke="white" stroke-width="1.5" d="M0,-3.0v7 M-2.5,-0.5L0,-3.0L2.5,-0.5"/>
                </g>
                <g id="arrowRight" xlink:href="#dirArrow" transform="rotate(90) translate(36 -43)" onmousedown="handlePan(1,0)">
                  <use xlink:href="#rim" fill="#404040">
                        <set attributeName="fill" to="#808080" begin="arrowRight.mouseover" end="arrowRight.mouseout"/>
                  </use>
                  <path fill="none" stroke="white" stroke-width="1.5" d="M0,-3.0v7 M-2.5,-0.5L0,-3.0L2.5,-0.5"/>
                </g>
                <g id="arrowDown" xlink:href="#dirArrow" transform="rotate(180) translate(-30 -48)" onmousedown="handlePan(0,1)">
                  <use xlink:href="#rim" fill="#404040">
                        <set attributeName="fill" to="#808080" begin="arrowDown.mouseover" end="arrowDown.mouseout"/>
                  </use>
                  <path fill="none" stroke="white" stroke-width="1.5" d="M0,-3.0v7 M-2.5,-0.5L0,-3.0L2.5,-0.5"/>
                </g>
                <g id="arrowLeft" xlink:href="#dirArrow" transform="rotate(270) translate(-36 17)" onmousedown="handlePan(-1,0)">
                  <use xlink:href="#rim" fill="#404040">
                        <set attributeName="fill" to="#808080" begin="arrowLeft.mouseover" end="arrowLeft.mouseout"/>
                  </use>
                  <path fill="none" stroke="white" stroke-width="1.5" d="M0,-3.0v7 M-2.5,-0.5L0,-3.0L2.5,-0.5"/>
                </g>
        </g>
        <svg viewBox="0 0 15 15" width="100%" height="30px" preserveAspectRatio="xMaxYMin meet">
         <g id="arrow_out" transform="scale(0.3 0.3)">
          <a xlink:href="dir_912fdeb75838ec7e9173df897dc72438_dep_org.svg" target="_base">
           <rect id="button" ry="5" rx="5" y="6" x="6" height="38" width="38"
                fill="#f2f5e9" fill-opacity="0.5" stroke="#606060" stroke-width="1.0"/>
           <path id="arrow"
             d="M 11.500037,31.436501 C 11.940474,20.09759 22.043105,11.32322 32.158766,21.979434 L 37.068811,17.246167 C 37.068811,17.246167 37.088388,32 37.088388,32 L 22.160133,31.978069 C 22.160133,31.978069 26.997745,27.140456 26.997745,27.140456 C 18.528582,18.264221 13.291696,25.230495 11.500037,31.436501 z"
             style="fill:#404040;"/>
          </a>
         </g>
        </svg>
</svg>
