<?xml version="1.0" encoding="UTF-8" standalone="no"?>
<!DOCTYPE svg PUBLIC "-//W3C//DTD SVG 1.1//EN"
 "http://www.w3.org/Graphics/SVG/1.1/DTD/svg11.dtd">
<!-- Generated by graphviz version 2.36.0 (20140111.2315)
 -->
<!-- Title: /home/travis/build/AliceO2Group/AliceO2/Detectors/ITSMFT/MFT Pages: 1 -->
<svg width="424pt" height="519pt"
 viewBox="0.00 0.00 424.00 519.00" xmlns="http://www.w3.org/2000/svg" xmlns:xlink="http://www.w3.org/1999/xlink">
<g id="graph0" class="graph" transform="scale(1 1) rotate(0) translate(4 515)">
<title>/home/travis/build/AliceO2Group/AliceO2/Detectors/ITSMFT/MFT</title>
<g id="clust1" class="cluster"><title>clusterdir_1306292b77b40360479b729ac9ee7efe</title>
<g id="a_clust1"><a xlink:href="dir_1306292b77b40360479b729ac9ee7efe.html" target="_top" xlink:title="ITSMFT">
<polygon fill="#ddddee" stroke="black" points="86,-200 86,-503 244,-503 244,-200 86,-200"/>
<text text-anchor="middle" x="165" y="-491" font-family="Helvetica,sans-Serif" font-size="10.00">ITSMFT</text>
</a>
</g>
</g>
<g id="clust2" class="cluster"><title>clusterdir_f39d1cd569ca2d16022b762a0e4a53c8</title>
<g id="a_clust2"><a xlink:href="dir_f39d1cd569ca2d16022b762a0e4a53c8.html" target="_top">
<polygon fill="#eeeeff" stroke="black" points="94,-208 94,-476 236,-476 236,-208 94,-208"/>
</a>
</g>
</g>
<!-- dir_f39d1cd569ca2d16022b762a0e4a53c8 -->
<g id="node1" class="node"><title>dir_f39d1cd569ca2d16022b762a0e4a53c8</title>
<text text-anchor="middle" x="201" y="-447.5" font-family="Helvetica,sans-Serif" font-size="10.00">MFT</text>
</g>
<!-- dir_7e732ae97f4f941436b6909b27d4da36 -->
<g id="node2" class="node"><title>dir_7e732ae97f4f941436b6909b27d4da36</title>
<g id="a_node2"><a xlink:href="dir_7e732ae97f4f941436b6909b27d4da36.html" target="_top" xlink:title="base">
<polygon fill="white" stroke="red" points="196,-252 142,-252 142,-216 196,-216 196,-252"/>
<text text-anchor="middle" x="169" y="-231.5" font-family="Helvetica,sans-Serif" font-size="10.00">base</text>
</a>
</g>
</g>
<!-- dir_4ab6b4cc6a7edbff49100e9123df213f -->
<g id="node6" class="node"><title>dir_4ab6b4cc6a7edbff49100e9123df213f</title>
<g id="a_node6"><a xlink:href="dir_4ab6b4cc6a7edbff49100e9123df213f.html" target="_top" xlink:title="Common">
<polygon fill="none" stroke="red" points="311.5,-180 256.5,-180 256.5,-144 311.5,-144 311.5,-180"/>
<text text-anchor="middle" x="284" y="-159.5" font-family="Helvetica,sans-Serif" font-size="10.00">Common</text>
</a>
</g>
</g>
<!-- dir_7e732ae97f4f941436b6909b27d4da36&#45;&gt;dir_4ab6b4cc6a7edbff49100e9123df213f -->
<g id="edge15" class="edge"><title>dir_7e732ae97f4f941436b6909b27d4da36&#45;&gt;dir_4ab6b4cc6a7edbff49100e9123df213f</title>
<path fill="none" stroke="black" d="M188.377,-215.994C195.007,-210.564 202.618,-204.739 210,-200 221.541,-192.592 234.766,-185.563 246.814,-179.661"/>
<polygon fill="black" stroke="black" points="248.661,-182.657 256.17,-175.183 245.639,-176.343 248.661,-182.657"/>
<g id="a_edge15&#45;headlabel"><a xlink:href="dir_000079_000016.html" target="_top" xlink:title="2">
<text text-anchor="middle" x="246.644" y="-184.27" font-family="Helvetica,sans-Serif" font-size="10.00">2</text>
</a>
</g>
</g>
<!-- dir_37c90836491b695b472bf98d1be8336b -->
<g id="node7" class="node"><title>dir_37c90836491b695b472bf98d1be8336b</title>
<g id="a_node7"><a xlink:href="dir_37c90836491b695b472bf98d1be8336b.html" target="_top" xlink:title="Base">
<polygon fill="none" stroke="red" points="222,-36 168,-36 168,-0 222,-0 222,-36"/>
<text text-anchor="middle" x="195" y="-15.5" font-family="Helvetica,sans-Serif" font-size="10.00">Base</text>
</a>
</g>
</g>
<!-- dir_7e732ae97f4f941436b6909b27d4da36&#45;&gt;dir_37c90836491b695b472bf98d1be8336b -->
<g id="edge16" class="edge"><title>dir_7e732ae97f4f941436b6909b27d4da36&#45;&gt;dir_37c90836491b695b472bf98d1be8336b</title>
<path fill="none" stroke="black" d="M177.663,-215.857C191.395,-186.698 215.935,-125.41 209,-72 207.897,-63.506 205.839,-54.4338 203.634,-46.2397"/>
<polygon fill="black" stroke="black" points="206.945,-45.0872 200.824,-36.4397 200.216,-47.0172 206.945,-45.0872"/>
<g id="a_edge16&#45;headlabel"><a xlink:href="dir_000079_000122.html" target="_top" xlink:title="2">
<text text-anchor="middle" x="210.665" y="-45.2597" font-family="Helvetica,sans-Serif" font-size="10.00">2</text>
</a>
</g>
</g>
<!-- dir_85bf31a2e8d306e7598ffcb73f8df6bf -->
<g id="node8" class="node"><title>dir_85bf31a2e8d306e7598ffcb73f8df6bf</title>
<g id="a_node8"><a xlink:href="dir_85bf31a2e8d306e7598ffcb73f8df6bf.html" target="_top" xlink:title="common">
<polygon fill="none" stroke="red" points="306,-252 252,-252 252,-216 306,-216 306,-252"/>
<text text-anchor="middle" x="279" y="-231.5" font-family="Helvetica,sans-Serif" font-size="10.00">common</text>
</a>
</g>
</g>
<!-- dir_7e732ae97f4f941436b6909b27d4da36&#45;&gt;dir_85bf31a2e8d306e7598ffcb73f8df6bf -->
<g id="edge17" class="edge"><title>dir_7e732ae97f4f941436b6909b27d4da36&#45;&gt;dir_85bf31a2e8d306e7598ffcb73f8df6bf</title>
<path fill="none" stroke="black" d="M196.07,-234C211.306,-234 226.541,-234 241.777,-234"/>
<polygon fill="black" stroke="black" points="241.789,-237.5 251.789,-234 241.789,-230.5 241.789,-237.5"/>
<g id="a_edge17&#45;headlabel"><a xlink:href="dir_000079_000164.html" target="_top" xlink:title="7">
<text text-anchor="middle" x="238.194" y="-237.839" font-family="Helvetica,sans-Serif" font-size="10.00">7</text>
</a>
</g>
</g>
<!-- dir_2171f7ec022c5423887b07c69b2f5b48 -->
<g id="node10" class="node"><title>dir_2171f7ec022c5423887b07c69b2f5b48</title>
<g id="a_node10"><a xlink:href="dir_2171f7ec022c5423887b07c69b2f5b48.html" target="_top" xlink:title="DataFormats">
<polygon fill="none" stroke="red" points="200,-108 126,-108 126,-72 200,-72 200,-108"/>
<text text-anchor="middle" x="163" y="-87.5" font-family="Helvetica,sans-Serif" font-size="10.00">DataFormats</text>
</a>
</g>
</g>
<!-- dir_7e732ae97f4f941436b6909b27d4da36&#45;&gt;dir_2171f7ec022c5423887b07c69b2f5b48 -->
<g id="edge18" class="edge"><title>dir_7e732ae97f4f941436b6909b27d4da36&#45;&gt;dir_2171f7ec022c5423887b07c69b2f5b48</title>
<path fill="none" stroke="black" d="M168.276,-215.871C167.254,-191.67 165.375,-147.211 164.157,-118.393"/>
<polygon fill="black" stroke="black" points="167.645,-118.033 163.726,-108.189 160.652,-118.328 167.645,-118.033"/>
<g id="a_edge18&#45;headlabel"><a xlink:href="dir_000079_000043.html" target="_top" xlink:title="1">
<text text-anchor="middle" x="170.634" y="-119.004" font-family="Helvetica,sans-Serif" font-size="10.00">1</text>
</a>
</g>
</g>
<!-- dir_5b6015b386f827cc0d1582f414a67114 -->
<g id="node3" class="node"><title>dir_5b6015b386f827cc0d1582f414a67114</title>
<g id="a_node3"><a xlink:href="dir_5b6015b386f827cc0d1582f414a67114.html" target="_top" xlink:title="macros">
<polygon fill="white" stroke="black" points="156,-468 102,-468 102,-432 156,-432 156,-468"/>
<text text-anchor="middle" x="129" y="-447.5" font-family="Helvetica,sans-Serif" font-size="10.00">macros</text>
</a>
</g>
</g>
<!-- dir_3d8e691f27a9a1a3f5b37028248bc44b -->
<g id="node4" class="node"><title>dir_3d8e691f27a9a1a3f5b37028248bc44b</title>
<g id="a_node4"><a xlink:href="dir_3d8e691f27a9a1a3f5b37028248bc44b.html" target="_top" xlink:title="reconstruction">
<polygon fill="white" stroke="red" points="180,-396 102,-396 102,-360 180,-360 180,-396"/>
<text text-anchor="middle" x="141" y="-375.5" font-family="Helvetica,sans-Serif" font-size="10.00">reconstruction</text>
</a>
</g>
</g>
<!-- dir_5b6015b386f827cc0d1582f414a67114&#45;&gt;dir_3d8e691f27a9a1a3f5b37028248bc44b -->
<g id="edge21" class="edge"><title>dir_5b6015b386f827cc0d1582f414a67114&#45;&gt;dir_3d8e691f27a9a1a3f5b37028248bc44b</title>
<path fill="none" stroke="black" d="M131.966,-431.697C133.289,-423.983 134.878,-414.712 136.352,-406.112"/>
<polygon fill="black" stroke="black" points="139.828,-406.552 138.068,-396.104 132.928,-405.369 139.828,-406.552"/>
<g id="a_edge21&#45;headlabel"><a xlink:href="dir_000212_000095.html" target="_top" xlink:title="1">
<text text-anchor="middle" x="142.019" y="-408.075" font-family="Helvetica,sans-Serif" font-size="10.00">1</text>
</a>
</g>
</g>
<!-- dir_a336bf94aab96007822cb34c9e2cb8a5 -->
<g id="node5" class="node"><title>dir_a336bf94aab96007822cb34c9e2cb8a5</title>
<g id="a_node5"><a xlink:href="dir_a336bf94aab96007822cb34c9e2cb8a5.html" target="_top" xlink:title="simulation">
<polygon fill="white" stroke="red" points="212.25,-324 151.75,-324 151.75,-288 212.25,-288 212.25,-324"/>
<text text-anchor="middle" x="182" y="-303.5" font-family="Helvetica,sans-Serif" font-size="10.00">simulation</text>
</a>
</g>
</g>
<!-- dir_5b6015b386f827cc0d1582f414a67114&#45;&gt;dir_a336bf94aab96007822cb34c9e2cb8a5 -->
<g id="edge23" class="edge"><title>dir_5b6015b386f827cc0d1582f414a67114&#45;&gt;dir_a336bf94aab96007822cb34c9e2cb8a5</title>
<path fill="none" stroke="black" d="M156.004,-432.892C168.532,-423.8 182.144,-411.204 189,-396 197.775,-376.539 195.082,-352.257 190.72,-333.974"/>
<polygon fill="black" stroke="black" points="194.082,-332.996 188.111,-324.244 187.321,-334.809 194.082,-332.996"/>
<g id="a_edge23&#45;headlabel"><a xlink:href="dir_000212_000136.html" target="_top" xlink:title="2">
<text text-anchor="middle" x="197.755" y="-333.232" font-family="Helvetica,sans-Serif" font-size="10.00">2</text>
</a>
</g>
</g>
<!-- dir_5b6015b386f827cc0d1582f414a67114&#45;&gt;dir_4ab6b4cc6a7edbff49100e9123df213f -->
<g id="edge22" class="edge"><title>dir_5b6015b386f827cc0d1582f414a67114&#45;&gt;dir_4ab6b4cc6a7edbff49100e9123df213f</title>
<path fill="none" stroke="black" d="M156.215,-436.269C181.182,-424.24 215.914,-406.516 227,-396 281.417,-344.382 294.685,-324.201 315,-252 321.26,-229.753 322.896,-221.72 315,-200 313.518,-195.924 311.369,-191.984 308.882,-188.292"/>
<polygon fill="black" stroke="black" points="311.502,-185.958 302.623,-180.178 305.96,-190.234 311.502,-185.958"/>
<g id="a_edge22&#45;headlabel"><a xlink:href="dir_000212_000016.html" target="_top" xlink:title="4">
<text text-anchor="middle" x="315.946" y="-184.57" font-family="Helvetica,sans-Serif" font-size="10.00">4</text>
</a>
</g>
</g>
<!-- dir_5b6015b386f827cc0d1582f414a67114&#45;&gt;dir_85bf31a2e8d306e7598ffcb73f8df6bf -->
<g id="edge24" class="edge"><title>dir_5b6015b386f827cc0d1582f414a67114&#45;&gt;dir_85bf31a2e8d306e7598ffcb73f8df6bf</title>
<path fill="none" stroke="black" d="M154.319,-431.916C167.762,-422.214 184.118,-409.362 197,-396 224.397,-367.583 230.937,-359.098 249,-324 259.229,-304.124 267.106,-280.012 272.216,-261.902"/>
<polygon fill="black" stroke="black" points="275.66,-262.577 274.902,-252.009 268.904,-260.743 275.66,-262.577"/>
<g id="a_edge24&#45;headlabel"><a xlink:href="dir_000212_000164.html" target="_top" xlink:title="4">
<text text-anchor="middle" x="277.458" y="-264.29" font-family="Helvetica,sans-Serif" font-size="10.00">4</text>
</a>
</g>
</g>
<!-- dir_f01815b857f9009bea48e2cb39492245 -->
<g id="node9" class="node"><title>dir_f01815b857f9009bea48e2cb39492245</title>
<g id="a_node9"><a xlink:href="dir_f01815b857f9009bea48e2cb39492245.html" target="_top" xlink:title="Passive">
<polygon fill="none" stroke="red" points="416,-252 362,-252 362,-216 416,-216 416,-252"/>
<text text-anchor="middle" x="389" y="-231.5" font-family="Helvetica,sans-Serif" font-size="10.00">Passive</text>
</a>
</g>
</g>
<!-- dir_5b6015b386f827cc0d1582f414a67114&#45;&gt;dir_f01815b857f9009bea48e2cb39492245 -->
<g id="edge25" class="edge"><title>dir_5b6015b386f827cc0d1582f414a67114&#45;&gt;dir_f01815b857f9009bea48e2cb39492245</title>
<path fill="none" stroke="black" d="M156.231,-435.289C159.152,-434.076 162.111,-432.95 165,-432 243.744,-406.105 287.794,-452.976 348,-396 384.737,-361.234 390.383,-298.552 390.294,-262.513"/>
<polygon fill="black" stroke="black" points="393.789,-262.179 390.111,-252.244 386.79,-262.305 393.789,-262.179"/>
<g id="a_edge25&#45;headlabel"><a xlink:href="dir_000212_000241.html" target="_top" xlink:title="1">
<text text-anchor="middle" x="396.692" y="-263.223" font-family="Helvetica,sans-Serif" font-size="10.00">1</text>
</a>
</g>
</g>
<!-- dir_5b6015b386f827cc0d1582f414a67114&#45;&gt;dir_2171f7ec022c5423887b07c69b2f5b48 -->
<g id="edge26" class="edge"><title>dir_5b6015b386f827cc0d1582f414a67114&#45;&gt;dir_2171f7ec022c5423887b07c69b2f5b48</title>
<path fill="none" stroke="black" d="M101.957,-434.919C64.1304,-413.054 0,-367.118 0,-307 0,-307 0,-307 0,-233 0,-170.898 68.0988,-129.751 116.263,-108.416"/>
<polygon fill="black" stroke="black" points="117.792,-111.569 125.605,-104.413 115.034,-105.135 117.792,-111.569"/>
<g id="a_edge26&#45;headlabel"><a xlink:href="dir_000212_000043.html" target="_top" xlink:title="3">
<text text-anchor="middle" x="115.606" y="-113.095" font-family="Helvetica,sans-Serif" font-size="10.00">3</text>
</a>
</g>
</g>
<!-- dir_3d8e691f27a9a1a3f5b37028248bc44b&#45;&gt;dir_7e732ae97f4f941436b6909b27d4da36 -->
<g id="edge3" class="edge"><title>dir_3d8e691f27a9a1a3f5b37028248bc44b&#45;&gt;dir_7e732ae97f4f941436b6909b27d4da36</title>
<path fill="none" stroke="black" d="M138.918,-359.981C137.223,-341.852 135.984,-312.458 142,-288 144.258,-278.82 148.354,-269.428 152.685,-261.149"/>
<polygon fill="black" stroke="black" points="155.779,-262.786 157.588,-252.346 149.664,-259.379 155.779,-262.786"/>
<g id="a_edge3&#45;headlabel"><a xlink:href="dir_000095_000079.html" target="_top" xlink:title="2">
<text text-anchor="middle" x="156.511" y="-264.808" font-family="Helvetica,sans-Serif" font-size="10.00">2</text>
</a>
</g>
</g>
<!-- dir_3d8e691f27a9a1a3f5b37028248bc44b&#45;&gt;dir_a336bf94aab96007822cb34c9e2cb8a5 -->
<g id="edge1" class="edge"><title>dir_3d8e691f27a9a1a3f5b37028248bc44b&#45;&gt;dir_a336bf94aab96007822cb34c9e2cb8a5</title>
<path fill="none" stroke="black" d="M151.135,-359.697C155.852,-351.644 161.562,-341.894 166.782,-332.982"/>
<polygon fill="black" stroke="black" points="169.948,-334.502 171.982,-324.104 163.908,-330.964 169.948,-334.502"/>
<g id="a_edge1&#45;headlabel"><a xlink:href="dir_000095_000136.html" target="_top" xlink:title="1">
<text text-anchor="middle" x="170.581" y="-336.539" font-family="Helvetica,sans-Serif" font-size="10.00">1</text>
</a>
</g>
</g>
<!-- dir_3d8e691f27a9a1a3f5b37028248bc44b&#45;&gt;dir_85bf31a2e8d306e7598ffcb73f8df6bf -->
<g id="edge2" class="edge"><title>dir_3d8e691f27a9a1a3f5b37028248bc44b&#45;&gt;dir_85bf31a2e8d306e7598ffcb73f8df6bf</title>
<path fill="none" stroke="black" d="M173.213,-359.8C188.766,-350.513 207.034,-338.072 221,-324 239.449,-305.411 255.278,-280.059 265.716,-261.167"/>
<polygon fill="black" stroke="black" points="268.879,-262.674 270.531,-252.209 262.714,-259.359 268.879,-262.674"/>
<g id="a_edge2&#45;headlabel"><a xlink:href="dir_000095_000164.html" target="_top" xlink:title="2">
<text text-anchor="middle" x="269.678" y="-264.684" font-family="Helvetica,sans-Serif" font-size="10.00">2</text>
</a>
</g>
</g>
<!-- dir_3d8e691f27a9a1a3f5b37028248bc44b&#45;&gt;dir_2171f7ec022c5423887b07c69b2f5b48 -->
<g id="edge4" class="edge"><title>dir_3d8e691f27a9a1a3f5b37028248bc44b&#45;&gt;dir_2171f7ec022c5423887b07c69b2f5b48</title>
<path fill="none" stroke="black" d="M135.454,-359.992C123.559,-320.638 98.7995,-220.801 126,-144 129.448,-134.265 135.199,-124.68 141.151,-116.395"/>
<polygon fill="black" stroke="black" points="144.058,-118.354 147.338,-108.28 138.492,-114.11 144.058,-118.354"/>
<g id="a_edge4&#45;headlabel"><a xlink:href="dir_000095_000043.html" target="_top" xlink:title="2">
<text text-anchor="middle" x="144.136" y="-120.434" font-family="Helvetica,sans-Serif" font-size="10.00">2</text>
</a>
</g>
</g>
<!-- dir_a336bf94aab96007822cb34c9e2cb8a5&#45;&gt;dir_7e732ae97f4f941436b6909b27d4da36 -->
<g id="edge9" class="edge"><title>dir_a336bf94aab96007822cb34c9e2cb8a5&#45;&gt;dir_7e732ae97f4f941436b6909b27d4da36</title>
<path fill="none" stroke="black" d="M178.787,-287.697C177.354,-279.983 175.632,-270.712 174.035,-262.112"/>
<polygon fill="black" stroke="black" points="177.444,-261.297 172.177,-252.104 170.561,-262.575 177.444,-261.297"/>
<g id="a_edge9&#45;headlabel"><a xlink:href="dir_000136_000079.html" target="_top" xlink:title="1">
<text text-anchor="middle" x="180.891" y="-261.813" font-family="Helvetica,sans-Serif" font-size="10.00">1</text>
</a>
</g>
</g>
<!-- dir_a336bf94aab96007822cb34c9e2cb8a5&#45;&gt;dir_4ab6b4cc6a7edbff49100e9123df213f -->
<g id="edge6" class="edge"><title>dir_a336bf94aab96007822cb34c9e2cb8a5&#45;&gt;dir_4ab6b4cc6a7edbff49100e9123df213f</title>
<path fill="none" stroke="black" d="M189.833,-287.978C200.245,-266.319 220.025,-228.326 243,-200 246.548,-195.625 250.627,-191.31 254.807,-187.257"/>
<polygon fill="black" stroke="black" points="257.377,-189.647 262.345,-180.289 252.626,-184.506 257.377,-189.647"/>
<g id="a_edge6&#45;headlabel"><a xlink:href="dir_000136_000016.html" target="_top" xlink:title="2">
<text text-anchor="middle" x="256.665" y="-191.672" font-family="Helvetica,sans-Serif" font-size="10.00">2</text>
</a>
</g>
</g>
<!-- dir_a336bf94aab96007822cb34c9e2cb8a5&#45;&gt;dir_37c90836491b695b472bf98d1be8336b -->
<g id="edge7" class="edge"><title>dir_a336bf94aab96007822cb34c9e2cb8a5&#45;&gt;dir_37c90836491b695b472bf98d1be8336b</title>
<path fill="none" stroke="black" d="M153.968,-287.866C141.846,-278.829 128.882,-266.58 122,-252 87.8402,-179.626 79.5485,-142.727 117,-72 125.902,-55.188 142.792,-42.7188 158.585,-34.1136"/>
<polygon fill="black" stroke="black" points="160.357,-37.1391 167.688,-29.4899 157.187,-30.898 160.357,-37.1391"/>
<g id="a_edge7&#45;headlabel"><a xlink:href="dir_000136_000122.html" target="_top" xlink:title="1">
<text text-anchor="middle" x="158.438" y="-38.7983" font-family="Helvetica,sans-Serif" font-size="10.00">1</text>
</a>
</g>
</g>
<!-- dir_a336bf94aab96007822cb34c9e2cb8a5&#45;&gt;dir_85bf31a2e8d306e7598ffcb73f8df6bf -->
<g id="edge8" class="edge"><title>dir_a336bf94aab96007822cb34c9e2cb8a5&#45;&gt;dir_85bf31a2e8d306e7598ffcb73f8df6bf</title>
<path fill="none" stroke="black" d="M205.978,-287.697C218.311,-278.796 233.516,-267.823 246.853,-258.199"/>
<polygon fill="black" stroke="black" points="249.237,-260.794 255.298,-252.104 245.141,-255.118 249.237,-260.794"/>
<g id="a_edge8&#45;headlabel"><a xlink:href="dir_000136_000164.html" target="_top" xlink:title="5">
<text text-anchor="middle" x="247.984" y="-262.7" font-family="Helvetica,sans-Serif" font-size="10.00">5</text>
</a>
</g>
</g>
<!-- dir_a336bf94aab96007822cb34c9e2cb8a5&#45;&gt;dir_2171f7ec022c5423887b07c69b2f5b48 -->
<g id="edge10" class="edge"><title>dir_a336bf94aab96007822cb34c9e2cb8a5&#45;&gt;dir_2171f7ec022c5423887b07c69b2f5b48</title>
<path fill="none" stroke="black" d="M159.847,-287.875C149.59,-278.524 138.481,-266.003 133,-252 115.249,-206.651 134.681,-149.913 149.486,-117.327"/>
<polygon fill="black" stroke="black" points="152.772,-118.565 153.886,-108.029 146.445,-115.571 152.772,-118.565"/>
<g id="a_edge10&#45;headlabel"><a xlink:href="dir_000136_000043.html" target="_top" xlink:title="2">
<text text-anchor="middle" x="153.801" y="-120.528" font-family="Helvetica,sans-Serif" font-size="10.00">2</text>
</a>
</g>
</g>
<!-- dir_4ab6b4cc6a7edbff49100e9123df213f&#45;&gt;dir_2171f7ec022c5423887b07c69b2f5b48 -->
<g id="edge5" class="edge"><title>dir_4ab6b4cc6a7edbff49100e9123df213f&#45;&gt;dir_2171f7ec022c5423887b07c69b2f5b48</title>
<path fill="none" stroke="black" d="M256.443,-148.161C238.297,-138.484 214.604,-124.968 195.555,-113.508"/>
<polygon fill="black" stroke="black" points="197.257,-110.447 186.894,-108.242 193.62,-116.428 197.257,-110.447"/>
<g id="a_edge5&#45;headlabel"><a xlink:href="dir_000016_000043.html" target="_top" xlink:title="1">
<text text-anchor="middle" x="201.803" y="-107.389" font-family="Helvetica,sans-Serif" font-size="10.00">1</text>
</a>
</g>
</g>
<!-- dir_37c90836491b695b472bf98d1be8336b&#45;&gt;dir_4ab6b4cc6a7edbff49100e9123df213f -->
<g id="edge11" class="edge"><title>dir_37c90836491b695b472bf98d1be8336b&#45;&gt;dir_4ab6b4cc6a7edbff49100e9123df213f</title>
<path fill="none" stroke="black" d="M212.449,-36.1147C221.948,-46.0243 233.467,-59.0656 242,-72 255.02,-91.7342 266.235,-116.138 273.794,-134.397"/>
<polygon fill="black" stroke="black" points="270.616,-135.877 277.604,-143.84 277.108,-133.257 270.616,-135.877"/>
<g id="a_edge11&#45;headlabel"><a xlink:href="dir_000122_000016.html" target="_top" xlink:title="5">
<text text-anchor="middle" x="266.638" y="-131.106" font-family="Helvetica,sans-Serif" font-size="10.00">5</text>
</a>
</g>
</g>
<!-- dir_37c90836491b695b472bf98d1be8336b&#45;&gt;dir_2171f7ec022c5423887b07c69b2f5b48 -->
<g id="edge12" class="edge"><title>dir_37c90836491b695b472bf98d1be8336b&#45;&gt;dir_2171f7ec022c5423887b07c69b2f5b48</title>
<path fill="none" stroke="black" d="M193.076,-36.1043C190.248,-44.1291 186.015,-53.871 181.535,-62.7967"/>
<polygon fill="black" stroke="black" points="178.41,-61.2208 176.826,-71.6966 184.597,-64.4949 178.41,-61.2208"/>
<g id="a_edge12&#45;headlabel"><a xlink:href="dir_000122_000043.html" target="_top" xlink:title="5">
<text text-anchor="middle" x="177.581" y="-54.2157" font-family="Helvetica,sans-Serif" font-size="10.00">5</text>
</a>
</g>
</g>
<!-- dir_85bf31a2e8d306e7598ffcb73f8df6bf&#45;&gt;dir_4ab6b4cc6a7edbff49100e9123df213f -->
<g id="edge13" class="edge"><title>dir_85bf31a2e8d306e7598ffcb73f8df6bf&#45;&gt;dir_4ab6b4cc6a7edbff49100e9123df213f</title>
<path fill="none" stroke="black" d="M280.236,-215.697C280.787,-207.983 281.449,-198.712 282.063,-190.112"/>
<polygon fill="black" stroke="black" points="285.557,-190.328 282.778,-180.104 278.575,-189.83 285.557,-190.328"/>
<g id="a_edge13&#45;headlabel"><a xlink:href="dir_000164_000016.html" target="_top" xlink:title="2">
<text text-anchor="middle" x="288.133" y="-191.616" font-family="Helvetica,sans-Serif" font-size="10.00">2</text>
</a>
</g>
</g>
<!-- dir_85bf31a2e8d306e7598ffcb73f8df6bf&#45;&gt;dir_2171f7ec022c5423887b07c69b2f5b48 -->
<g id="edge14" class="edge"><title>dir_85bf31a2e8d306e7598ffcb73f8df6bf&#45;&gt;dir_2171f7ec022c5423887b07c69b2f5b48</title>
<path fill="none" stroke="black" d="M265.008,-215.871C244.715,-191.031 206.987,-144.846 183.538,-116.142"/>
<polygon fill="black" stroke="black" points="186.079,-113.719 177.042,-108.189 180.658,-118.148 186.079,-113.719"/>
<g id="a_edge14&#45;headlabel"><a xlink:href="dir_000164_000043.html" target="_top" xlink:title="17">
<text text-anchor="middle" x="190.552" y="-112.207" font-family="Helvetica,sans-Serif" font-size="10.00">17</text>
</a>
</g>
</g>
<!-- dir_f01815b857f9009bea48e2cb39492245&#45;&gt;dir_4ab6b4cc6a7edbff49100e9123df213f -->
<g id="edge19" class="edge"><title>dir_f01815b857f9009bea48e2cb39492245&#45;&gt;dir_4ab6b4cc6a7edbff49100e9123df213f</title>
<path fill="none" stroke="black" d="M369.035,-215.915C362.494,-210.596 355.084,-204.856 348,-200 339.346,-194.068 329.693,-188.151 320.561,-182.845"/>
<polygon fill="black" stroke="black" points="322.079,-179.682 311.659,-177.765 318.609,-185.761 322.079,-179.682"/>
<g id="a_edge19&#45;headlabel"><a xlink:href="dir_000241_000016.html" target="_top" xlink:title="1">
<text text-anchor="middle" x="326.608" y="-176.497" font-family="Helvetica,sans-Serif" font-size="10.00">1</text>
</a>
</g>
</g>
<!-- dir_f01815b857f9009bea48e2cb39492245&#45;&gt;dir_37c90836491b695b472bf98d1be8336b -->
<g id="edge20" class="edge"><title>dir_f01815b857f9009bea48e2cb39492245&#45;&gt;dir_37c90836491b695b472bf98d1be8336b</title>
<path fill="none" stroke="black" d="M378.165,-215.785C358.256,-184.917 313.52,-118.994 266,-72 255.087,-61.2077 241.894,-50.7766 229.858,-42.0648"/>
<polygon fill="black" stroke="black" points="231.532,-38.9618 221.346,-36.0445 227.489,-44.6767 231.532,-38.9618"/>
<g id="a_edge20&#45;headlabel"><a xlink:href="dir_000241_000122.html" target="_top" xlink:title="16">
<text text-anchor="middle" x="236.106" y="-36.2195" font-family="Helvetica,sans-Serif" font-size="10.00">16</text>
</a>
</g>
</g>
<!-- dir_2171f7ec022c5423887b07c69b2f5b48&#45;&gt;dir_4ab6b4cc6a7edbff49100e9123df213f -->
<g id="edge27" class="edge"><title>dir_2171f7ec022c5423887b07c69b2f5b48&#45;&gt;dir_4ab6b4cc6a7edbff49100e9123df213f</title>
<path fill="none" stroke="black" d="M198.618,-108.19C215.411,-117.353 235.235,-128.736 251.602,-138.586"/>
<polygon fill="black" stroke="black" points="249.935,-141.669 260.297,-143.876 253.573,-135.688 249.935,-141.669"/>
<g id="a_edge27&#45;headlabel"><a xlink:href="dir_000043_000016.html" target="_top" xlink:title="15">
<text text-anchor="middle" x="245.388" y="-139.726" font-family="Helvetica,sans-Serif" font-size="10.00">15</text>
</a>
</g>
</g>
<!-- dir_2171f7ec022c5423887b07c69b2f5b48&#45;&gt;dir_37c90836491b695b472bf98d1be8336b -->
<g id="edge28" class="edge"><title>dir_2171f7ec022c5423887b07c69b2f5b48&#45;&gt;dir_37c90836491b695b472bf98d1be8336b</title>
<path fill="none" stroke="black" d="M164.994,-71.6966C167.845,-63.6436 172.091,-53.8945 176.576,-44.9824"/>
<polygon fill="black" stroke="black" points="179.691,-46.5784 181.286,-36.1043 173.507,-43.2977 179.691,-46.5784"/>
<g id="a_edge28&#45;headlabel"><a xlink:href="dir_000043_000122.html" target="_top" xlink:title="1">
<text text-anchor="middle" x="180.514" y="-48.5845" font-family="Helvetica,sans-Serif" font-size="10.00">1</text>
</a>
</g>
</g>
</g>
</svg>
