<?xml version="1.0" encoding="UTF-8" standalone="no"?>
<!DOCTYPE svg PUBLIC "-//W3C//DTD SVG 1.1//EN"
 "http://www.w3.org/Graphics/SVG/1.1/DTD/svg11.dtd">
<!-- Generated by graphviz version 2.36.0 (20140111.2315)
 -->
<!-- Title: /home/travis/build/AliceO2Group/AliceO2/Detectors/ITSMFT/MFT/base/include/MFTBase Pages: 1 -->
<svg width="136pt" height="367pt"
 viewBox="0.00 0.00 135.55 367.00" xmlns="http://www.w3.org/2000/svg" xmlns:xlink="http://www.w3.org/1999/xlink">
<g id="graph0" class="graph" transform="scale(1 1) rotate(0) translate(4 363)">
<title>/home/travis/build/AliceO2Group/AliceO2/Detectors/ITSMFT/MFT/base/include/MFTBase</title>
<g id="clust1" class="cluster"><title>clusterdir_f22caf943fb99f64e502dc27cedd1b22</title>
<g id="a_clust1"><a xlink:href="dir_f22caf943fb99f64e502dc27cedd1b22.html" target="_top" xlink:title="include">
<polygon fill="#ddddee" stroke="black" points="12.5461,-280 12.5461,-351 88.5461,-351 88.5461,-280 12.5461,-280"/>
<text text-anchor="middle" x="50.5461" y="-339" font-family="Helvetica,sans-Serif" font-size="10.00">include</text>
</a>
</g>
</g>
<!-- dir_f74068efc4603b01d0ea8bb1c8c2c67e -->
<g id="node1" class="node"><title>dir_f74068efc4603b01d0ea8bb1c8c2c67e</title>
<g id="a_node1"><a xlink:href="dir_f74068efc4603b01d0ea8bb1c8c2c67e.html" target="_top" xlink:title="MFTBase">
<polygon fill="#eeeeff" stroke="black" points="79.7961,-324 21.2961,-324 21.2961,-288 79.7961,-288 79.7961,-324"/>
<text text-anchor="middle" x="50.5461" y="-303.5" font-family="Helvetica,sans-Serif" font-size="10.00">MFTBase</text>
</a>
</g>
</g>
<!-- dir_4ab6b4cc6a7edbff49100e9123df213f -->
<g id="node2" class="node"><title>dir_4ab6b4cc6a7edbff49100e9123df213f</title>
<g id="a_node2"><a xlink:href="dir_4ab6b4cc6a7edbff49100e9123df213f.html" target="_top" xlink:title="Common">
<polygon fill="none" stroke="red" points="67.0461,-180 12.0461,-180 12.0461,-144 67.0461,-144 67.0461,-180"/>
<text text-anchor="middle" x="39.5461" y="-159.5" font-family="Helvetica,sans-Serif" font-size="10.00">Common</text>
</a>
</g>
</g>
<!-- dir_f74068efc4603b01d0ea8bb1c8c2c67e&#45;&gt;dir_4ab6b4cc6a7edbff49100e9123df213f -->
<g id="edge8" class="edge"><title>dir_f74068efc4603b01d0ea8bb1c8c2c67e&#45;&gt;dir_4ab6b4cc6a7edbff49100e9123df213f</title>
<path fill="none" stroke="black" d="M47.4454,-287.876C45.7002,-277.525 43.6545,-264.046 42.5461,-252 40.6457,-231.346 39.9133,-207.898 39.6465,-190.256"/>
<polygon fill="black" stroke="black" points="43.1446,-190.059 39.5343,-180.099 36.1451,-190.137 43.1446,-190.059"/>
<g id="a_edge8&#45;headlabel"><a xlink:href="dir_000081_000016.html" target="_top" xlink:title="1">
<text text-anchor="middle" x="46.0233" y="-191.123" font-family="Helvetica,sans-Serif" font-size="10.00">1</text>
</a>
</g>
</g>
<!-- dir_37c90836491b695b472bf98d1be8336b -->
<g id="node3" class="node"><title>dir_37c90836491b695b472bf98d1be8336b</title>
<g id="a_node3"><a xlink:href="dir_37c90836491b695b472bf98d1be8336b.html" target="_top" xlink:title="Base">
<polygon fill="none" stroke="red" points="84.5461,-36 30.5461,-36 30.5461,-0 84.5461,-0 84.5461,-36"/>
<text text-anchor="middle" x="57.5461" y="-15.5" font-family="Helvetica,sans-Serif" font-size="10.00">Base</text>
</a>
</g>
</g>
<!-- dir_f74068efc4603b01d0ea8bb1c8c2c67e&#45;&gt;dir_37c90836491b695b472bf98d1be8336b -->
<g id="edge9" class="edge"><title>dir_f74068efc4603b01d0ea8bb1c8c2c67e&#45;&gt;dir_37c90836491b695b472bf98d1be8336b</title>
<path fill="none" stroke="black" d="M39.5186,-287.849C22.1081,-258.68 -8.67729,-197.375 2.54611,-144 10.1264,-107.95 28.7655,-69.614 42.2471,-45.0464"/>
<polygon fill="black" stroke="black" points="45.4659,-46.4622 47.3053,-36.0283 39.3607,-43.0378 45.4659,-46.4622"/>
<g id="a_edge9&#45;headlabel"><a xlink:href="dir_000081_000122.html" target="_top" xlink:title="1">
<text text-anchor="middle" x="46.1839" y="-48.4863" font-family="Helvetica,sans-Serif" font-size="10.00">1</text>
</a>
</g>
</g>
<!-- dir_85bf31a2e8d306e7598ffcb73f8df6bf -->
<g id="node4" class="node"><title>dir_85bf31a2e8d306e7598ffcb73f8df6bf</title>
<g id="a_node4"><a xlink:href="dir_85bf31a2e8d306e7598ffcb73f8df6bf.html" target="_top" xlink:title="common">
<polygon fill="none" stroke="red" points="105.546,-252 51.5461,-252 51.5461,-216 105.546,-216 105.546,-252"/>
<text text-anchor="middle" x="78.5461" y="-231.5" font-family="Helvetica,sans-Serif" font-size="10.00">common</text>
</a>
</g>
</g>
<!-- dir_f74068efc4603b01d0ea8bb1c8c2c67e&#45;&gt;dir_85bf31a2e8d306e7598ffcb73f8df6bf -->
<g id="edge10" class="edge"><title>dir_f74068efc4603b01d0ea8bb1c8c2c67e&#45;&gt;dir_85bf31a2e8d306e7598ffcb73f8df6bf</title>
<path fill="none" stroke="black" d="M57.4675,-287.697C60.6208,-279.813 64.4244,-270.304 67.9276,-261.546"/>
<polygon fill="black" stroke="black" points="71.2401,-262.689 71.7044,-252.104 64.7407,-260.089 71.2401,-262.689"/>
<g id="a_edge10&#45;headlabel"><a xlink:href="dir_000081_000164.html" target="_top" xlink:title="1">
<text text-anchor="middle" x="72.5413" y="-264.581" font-family="Helvetica,sans-Serif" font-size="10.00">1</text>
</a>
</g>
</g>
<!-- dir_2171f7ec022c5423887b07c69b2f5b48 -->
<g id="node5" class="node"><title>dir_2171f7ec022c5423887b07c69b2f5b48</title>
<g id="a_node5"><a xlink:href="dir_2171f7ec022c5423887b07c69b2f5b48.html" target="_top" xlink:title="DataFormats">
<polygon fill="none" stroke="red" points="127.546,-108 53.5461,-108 53.5461,-72 127.546,-72 127.546,-108"/>
<text text-anchor="middle" x="90.5461" y="-87.5" font-family="Helvetica,sans-Serif" font-size="10.00">DataFormats</text>
</a>
</g>
</g>
<!-- dir_f74068efc4603b01d0ea8bb1c8c2c67e&#45;&gt;dir_2171f7ec022c5423887b07c69b2f5b48 -->
<g id="edge11" class="edge"><title>dir_f74068efc4603b01d0ea8bb1c8c2c67e&#45;&gt;dir_2171f7ec022c5423887b07c69b2f5b48</title>
<path fill="none" stroke="black" d="M79.9732,-288.83C93.1383,-279.869 107.302,-267.405 114.546,-252 135.145,-208.197 117.436,-150.937 103.459,-117.835"/>
<polygon fill="black" stroke="black" points="106.526,-116.116 99.2881,-108.379 100.122,-118.941 106.526,-116.116"/>
<g id="a_edge11&#45;headlabel"><a xlink:href="dir_000081_000043.html" target="_top" xlink:title="1">
<text text-anchor="middle" x="110.575" y="-115.759" font-family="Helvetica,sans-Serif" font-size="10.00">1</text>
</a>
</g>
</g>
<!-- dir_4ab6b4cc6a7edbff49100e9123df213f&#45;&gt;dir_2171f7ec022c5423887b07c69b2f5b48 -->
<g id="edge1" class="edge"><title>dir_4ab6b4cc6a7edbff49100e9123df213f&#45;&gt;dir_2171f7ec022c5423887b07c69b2f5b48</title>
<path fill="none" stroke="black" d="M46.2371,-143.697C51.4327,-135.389 58.6034,-125.277 65.7232,-116.141"/>
<polygon fill="black" stroke="black" points="68.6474,-118.09 72.1893,-108.104 63.1936,-113.701 68.6474,-118.09"/>
<g id="a_edge1&#45;headlabel"><a xlink:href="dir_000016_000043.html" target="_top" xlink:title="1">
<text text-anchor="middle" x="68.6061" y="-120.17" font-family="Helvetica,sans-Serif" font-size="10.00">1</text>
</a>
</g>
</g>
<!-- dir_37c90836491b695b472bf98d1be8336b&#45;&gt;dir_4ab6b4cc6a7edbff49100e9123df213f -->
<g id="edge2" class="edge"><title>dir_37c90836491b695b472bf98d1be8336b&#45;&gt;dir_4ab6b4cc6a7edbff49100e9123df213f</title>
<path fill="none" stroke="black" d="M52.5212,-36.0264C49.6902,-46.3419 46.3663,-59.8189 44.5461,-72 41.4779,-92.5337 40.2523,-115.988 39.7807,-133.662"/>
<polygon fill="black" stroke="black" points="36.2779,-133.774 39.5748,-143.843 43.2764,-133.916 36.2779,-133.774"/>
<g id="a_edge2&#45;headlabel"><a xlink:href="dir_000122_000016.html" target="_top" xlink:title="5">
<text text-anchor="middle" x="33.5118" y="-127.623" font-family="Helvetica,sans-Serif" font-size="10.00">5</text>
</a>
</g>
</g>
<!-- dir_37c90836491b695b472bf98d1be8336b&#45;&gt;dir_2171f7ec022c5423887b07c69b2f5b48 -->
<g id="edge3" class="edge"><title>dir_37c90836491b695b472bf98d1be8336b&#45;&gt;dir_2171f7ec022c5423887b07c69b2f5b48</title>
<path fill="none" stroke="black" d="M71.5046,-36.1043C76.0313,-43.9602 80.7393,-53.4616 84.5081,-62.232"/>
<polygon fill="black" stroke="black" points="81.3332,-63.7184 88.3045,-71.6966 87.8301,-61.1124 81.3332,-63.7184"/>
<g id="a_edge3&#45;headlabel"><a xlink:href="dir_000122_000043.html" target="_top" xlink:title="5">
<text text-anchor="middle" x="77.3599" y="-58.9392" font-family="Helvetica,sans-Serif" font-size="10.00">5</text>
</a>
</g>
</g>
<!-- dir_85bf31a2e8d306e7598ffcb73f8df6bf&#45;&gt;dir_4ab6b4cc6a7edbff49100e9123df213f -->
<g id="edge4" class="edge"><title>dir_85bf31a2e8d306e7598ffcb73f8df6bf&#45;&gt;dir_4ab6b4cc6a7edbff49100e9123df213f</title>
<path fill="none" stroke="black" d="M68.9057,-215.697C64.419,-207.644 58.9873,-197.894 54.022,-188.982"/>
<polygon fill="black" stroke="black" points="57.0002,-187.137 49.0757,-180.104 50.8852,-190.544 57.0002,-187.137"/>
<g id="a_edge4&#45;headlabel"><a xlink:href="dir_000164_000016.html" target="_top" xlink:title="2">
<text text-anchor="middle" x="61.23" y="-186.395" font-family="Helvetica,sans-Serif" font-size="10.00">2</text>
</a>
</g>
</g>
<!-- dir_85bf31a2e8d306e7598ffcb73f8df6bf&#45;&gt;dir_2171f7ec022c5423887b07c69b2f5b48 -->
<g id="edge5" class="edge"><title>dir_85bf31a2e8d306e7598ffcb73f8df6bf&#45;&gt;dir_2171f7ec022c5423887b07c69b2f5b48</title>
<path fill="none" stroke="black" d="M79.9936,-215.871C82.0388,-191.67 85.7959,-147.211 88.2312,-118.393"/>
<polygon fill="black" stroke="black" points="91.7389,-118.449 89.0935,-108.189 84.7638,-117.859 91.7389,-118.449"/>
<g id="a_edge5&#45;headlabel"><a xlink:href="dir_000164_000043.html" target="_top" xlink:title="17">
<text text-anchor="middle" x="94.2655" y="-119.769" font-family="Helvetica,sans-Serif" font-size="10.00">17</text>
</a>
</g>
</g>
<!-- dir_2171f7ec022c5423887b07c69b2f5b48&#45;&gt;dir_4ab6b4cc6a7edbff49100e9123df213f -->
<g id="edge6" class="edge"><title>dir_2171f7ec022c5423887b07c69b2f5b48&#45;&gt;dir_4ab6b4cc6a7edbff49100e9123df213f</title>
<path fill="none" stroke="black" d="M83.9794,-108.104C78.8156,-116.383 71.6604,-126.488 64.5399,-135.64"/>
<polygon fill="black" stroke="black" points="61.6021,-133.708 58.0686,-143.697 67.0596,-138.092 61.6021,-133.708"/>
<g id="a_edge6&#45;headlabel"><a xlink:href="dir_000043_000016.html" target="_top" xlink:title="15">
<text text-anchor="middle" x="61.6394" y="-126.628" font-family="Helvetica,sans-Serif" font-size="10.00">15</text>
</a>
</g>
</g>
<!-- dir_2171f7ec022c5423887b07c69b2f5b48&#45;&gt;dir_37c90836491b695b472bf98d1be8336b -->
<g id="edge7" class="edge"><title>dir_2171f7ec022c5423887b07c69b2f5b48&#45;&gt;dir_37c90836491b695b472bf98d1be8336b</title>
<path fill="none" stroke="black" d="M76.4731,-71.6966C71.9434,-63.8132 67.2419,-54.3042 63.489,-45.5464"/>
<polygon fill="black" stroke="black" points="66.6764,-44.0907 59.7145,-36.1043 60.1765,-46.6891 66.6764,-44.0907"/>
<g id="a_edge7&#45;headlabel"><a xlink:href="dir_000043_000122.html" target="_top" xlink:title="1">
<text text-anchor="middle" x="70.6471" y="-43.8747" font-family="Helvetica,sans-Serif" font-size="10.00">1</text>
</a>
</g>
</g>
</g>
</svg>
