<?xml version="1.0" encoding="UTF-8" standalone="no"?>
<!DOCTYPE svg PUBLIC "-//W3C//DTD SVG 1.1//EN"
 "http://www.w3.org/Graphics/SVG/1.1/DTD/svg11.dtd">
<!-- Generated by graphviz version 2.36.0 (20140111.2315)
 -->
<!-- Title: /home/travis/build/AliceO2Group/AliceO2/Detectors/ITSMFT/MFT/simulation Pages: 1 -->
<svg width="265pt" height="375pt"
 viewBox="0.00 0.00 264.76 375.00" xmlns="http://www.w3.org/2000/svg" xmlns:xlink="http://www.w3.org/1999/xlink">
<g id="graph0" class="graph" transform="scale(1 1) rotate(0) translate(4 371)">
<title>/home/travis/build/AliceO2Group/AliceO2/Detectors/ITSMFT/MFT/simulation</title>
<g id="clust1" class="cluster"><title>clusterdir_f39d1cd569ca2d16022b762a0e4a53c8</title>
<g id="a_clust1"><a xlink:href="dir_f39d1cd569ca2d16022b762a0e4a53c8.html" target="_top" xlink:title="MFT">
<polygon fill="#ddddee" stroke="black" points="8,-200 8,-359 174,-359 174,-200 8,-200"/>
<text text-anchor="middle" x="91" y="-347" font-family="Helvetica,sans-Serif" font-size="10.00">MFT</text>
</a>
</g>
</g>
<g id="clust2" class="cluster"><title>clusterdir_a336bf94aab96007822cb34c9e2cb8a5</title>
<g id="a_clust2"><a xlink:href="dir_a336bf94aab96007822cb34c9e2cb8a5.html" target="_top">
<polygon fill="#eeeeff" stroke="black" points="16,-208 16,-332 166,-332 166,-208 16,-208"/>
</a>
</g>
</g>
<!-- dir_a336bf94aab96007822cb34c9e2cb8a5 -->
<g id="node1" class="node"><title>dir_a336bf94aab96007822cb34c9e2cb8a5</title>
<text text-anchor="middle" x="127" y="-303.5" font-family="Helvetica,sans-Serif" font-size="10.00">simulation</text>
</g>
<!-- dir_4ea160d701b771c477e65d0fdf48e88e -->
<g id="node2" class="node"><title>dir_4ea160d701b771c477e65d0fdf48e88e</title>
<g id="a_node2"><a xlink:href="dir_4ea160d701b771c477e65d0fdf48e88e.html" target="_top" xlink:title="include">
<polygon fill="white" stroke="red" points="87,-252 33,-252 33,-216 87,-216 87,-252"/>
<text text-anchor="middle" x="60" y="-231.5" font-family="Helvetica,sans-Serif" font-size="10.00">include</text>
</a>
</g>
</g>
<!-- dir_37c90836491b695b472bf98d1be8336b -->
<g id="node5" class="node"><title>dir_37c90836491b695b472bf98d1be8336b</title>
<g id="a_node5"><a xlink:href="dir_37c90836491b695b472bf98d1be8336b.html" target="_top" xlink:title="Base">
<polygon fill="none" stroke="red" points="99,-180 45,-180 45,-144 99,-144 99,-180"/>
<text text-anchor="middle" x="72" y="-159.5" font-family="Helvetica,sans-Serif" font-size="10.00">Base</text>
</a>
</g>
</g>
<!-- dir_4ea160d701b771c477e65d0fdf48e88e&#45;&gt;dir_37c90836491b695b472bf98d1be8336b -->
<g id="edge1" class="edge"><title>dir_4ea160d701b771c477e65d0fdf48e88e&#45;&gt;dir_37c90836491b695b472bf98d1be8336b</title>
<path fill="none" stroke="black" d="M62.9663,-215.697C64.2887,-207.983 65.8779,-198.712 67.3522,-190.112"/>
<polygon fill="black" stroke="black" points="70.8278,-190.552 69.0678,-180.104 63.9284,-189.369 70.8278,-190.552"/>
<g id="a_edge1&#45;headlabel"><a xlink:href="dir_000137_000122.html" target="_top" xlink:title="1">
<text text-anchor="middle" x="73.019" y="-192.075" font-family="Helvetica,sans-Serif" font-size="10.00">1</text>
</a>
</g>
</g>
<!-- dir_85bf31a2e8d306e7598ffcb73f8df6bf -->
<g id="node6" class="node"><title>dir_85bf31a2e8d306e7598ffcb73f8df6bf</title>
<g id="a_node6"><a xlink:href="dir_85bf31a2e8d306e7598ffcb73f8df6bf.html" target="_top" xlink:title="common">
<polygon fill="none" stroke="red" points="171,-180 117,-180 117,-144 171,-144 171,-180"/>
<text text-anchor="middle" x="144" y="-159.5" font-family="Helvetica,sans-Serif" font-size="10.00">common</text>
</a>
</g>
</g>
<!-- dir_4ea160d701b771c477e65d0fdf48e88e&#45;&gt;dir_85bf31a2e8d306e7598ffcb73f8df6bf -->
<g id="edge2" class="edge"><title>dir_4ea160d701b771c477e65d0fdf48e88e&#45;&gt;dir_85bf31a2e8d306e7598ffcb73f8df6bf</title>
<path fill="none" stroke="black" d="M80.7641,-215.697C91.2414,-206.965 104.111,-196.24 115.5,-186.75"/>
<polygon fill="black" stroke="black" points="118.033,-189.195 123.475,-180.104 113.552,-183.817 118.033,-189.195"/>
<g id="a_edge2&#45;headlabel"><a xlink:href="dir_000137_000164.html" target="_top" xlink:title="3">
<text text-anchor="middle" x="117.089" y="-191.177" font-family="Helvetica,sans-Serif" font-size="10.00">3</text>
</a>
</g>
</g>
<!-- dir_2171f7ec022c5423887b07c69b2f5b48 -->
<g id="node8" class="node"><title>dir_2171f7ec022c5423887b07c69b2f5b48</title>
<g id="a_node8"><a xlink:href="dir_2171f7ec022c5423887b07c69b2f5b48.html" target="_top" xlink:title="DataFormats">
<polygon fill="none" stroke="red" points="132,-36 58,-36 58,-0 132,-0 132,-36"/>
<text text-anchor="middle" x="95" y="-15.5" font-family="Helvetica,sans-Serif" font-size="10.00">DataFormats</text>
</a>
</g>
</g>
<!-- dir_4ea160d701b771c477e65d0fdf48e88e&#45;&gt;dir_2171f7ec022c5423887b07c69b2f5b48 -->
<g id="edge3" class="edge"><title>dir_4ea160d701b771c477e65d0fdf48e88e&#45;&gt;dir_2171f7ec022c5423887b07c69b2f5b48</title>
<path fill="none" stroke="black" d="M50.0461,-215.978C44.7281,-205.888 38.7281,-192.638 36,-180 32.6239,-164.36 32.5005,-159.613 36,-144 44.1446,-107.664 64.0934,-69.4502 78.5436,-44.9861"/>
<polygon fill="black" stroke="black" points="81.6057,-46.6859 83.7765,-36.3158 75.6126,-43.0688 81.6057,-46.6859"/>
<g id="a_edge3&#45;headlabel"><a xlink:href="dir_000137_000043.html" target="_top" xlink:title="1">
<text text-anchor="middle" x="82.1792" y="-48.7305" font-family="Helvetica,sans-Serif" font-size="10.00">1</text>
</a>
</g>
</g>
<!-- dir_a2acb30c8e273b0bd9a81b3e5dc220f6 -->
<g id="node3" class="node"><title>dir_a2acb30c8e273b0bd9a81b3e5dc220f6</title>
<g id="a_node3"><a xlink:href="dir_a2acb30c8e273b0bd9a81b3e5dc220f6.html" target="_top" xlink:title="src">
<polygon fill="white" stroke="black" points="78,-324 24,-324 24,-288 78,-288 78,-324"/>
<text text-anchor="middle" x="51" y="-303.5" font-family="Helvetica,sans-Serif" font-size="10.00">src</text>
</a>
</g>
</g>
<!-- dir_a2acb30c8e273b0bd9a81b3e5dc220f6&#45;&gt;dir_4ea160d701b771c477e65d0fdf48e88e -->
<g id="edge13" class="edge"><title>dir_a2acb30c8e273b0bd9a81b3e5dc220f6&#45;&gt;dir_4ea160d701b771c477e65d0fdf48e88e</title>
<path fill="none" stroke="black" d="M53.2247,-287.697C54.2165,-279.983 55.4084,-270.712 56.5141,-262.112"/>
<polygon fill="black" stroke="black" points="59.997,-262.469 57.8009,-252.104 53.0541,-261.576 59.997,-262.469"/>
<g id="a_edge13&#45;headlabel"><a xlink:href="dir_000159_000137.html" target="_top" xlink:title="3">
<text text-anchor="middle" x="62.3548" y="-263.896" font-family="Helvetica,sans-Serif" font-size="10.00">3</text>
</a>
</g>
</g>
<!-- dir_4ab6b4cc6a7edbff49100e9123df213f -->
<g id="node4" class="node"><title>dir_4ab6b4cc6a7edbff49100e9123df213f</title>
<g id="a_node4"><a xlink:href="dir_4ab6b4cc6a7edbff49100e9123df213f.html" target="_top" xlink:title="Common">
<polygon fill="none" stroke="red" points="202.5,-108 147.5,-108 147.5,-72 202.5,-72 202.5,-108"/>
<text text-anchor="middle" x="175" y="-87.5" font-family="Helvetica,sans-Serif" font-size="10.00">Common</text>
</a>
</g>
</g>
<!-- dir_a2acb30c8e273b0bd9a81b3e5dc220f6&#45;&gt;dir_4ab6b4cc6a7edbff49100e9123df213f -->
<g id="edge14" class="edge"><title>dir_a2acb30c8e273b0bd9a81b3e5dc220f6&#45;&gt;dir_4ab6b4cc6a7edbff49100e9123df213f</title>
<path fill="none" stroke="black" d="M78.2612,-291.377C81.1756,-290.147 84.1255,-288.993 87,-288 155.075,-264.485 200.084,-308.301 245,-252 278.61,-209.87 232.394,-149.128 200.591,-115.585"/>
<polygon fill="black" stroke="black" points="202.752,-112.788 193.268,-108.066 197.737,-117.672 202.752,-112.788"/>
<g id="a_edge14&#45;headlabel"><a xlink:href="dir_000159_000016.html" target="_top" xlink:title="2">
<text text-anchor="middle" x="207.294" y="-110.883" font-family="Helvetica,sans-Serif" font-size="10.00">2</text>
</a>
</g>
</g>
<!-- dir_a2acb30c8e273b0bd9a81b3e5dc220f6&#45;&gt;dir_85bf31a2e8d306e7598ffcb73f8df6bf -->
<g id="edge15" class="edge"><title>dir_a2acb30c8e273b0bd9a81b3e5dc220f6&#45;&gt;dir_85bf31a2e8d306e7598ffcb73f8df6bf</title>
<path fill="none" stroke="black" d="M67.3907,-287.595C76.3862,-277.594 87.4214,-264.559 96,-252 109.702,-231.941 122.615,-207.564 131.59,-189.397"/>
<polygon fill="black" stroke="black" points="134.928,-190.535 136.15,-180.01 128.632,-187.476 134.928,-190.535"/>
<g id="a_edge15&#45;headlabel"><a xlink:href="dir_000159_000164.html" target="_top" xlink:title="2">
<text text-anchor="middle" x="135.911" y="-192.508" font-family="Helvetica,sans-Serif" font-size="10.00">2</text>
</a>
</g>
</g>
<!-- dir_7e732ae97f4f941436b6909b27d4da36 -->
<g id="node7" class="node"><title>dir_7e732ae97f4f941436b6909b27d4da36</title>
<g id="a_node7"><a xlink:href="dir_7e732ae97f4f941436b6909b27d4da36.html" target="_top" xlink:title="base">
<polygon fill="none" stroke="red" points="236,-252 182,-252 182,-216 236,-216 236,-252"/>
<text text-anchor="middle" x="209" y="-231.5" font-family="Helvetica,sans-Serif" font-size="10.00">base</text>
</a>
</g>
</g>
<!-- dir_a2acb30c8e273b0bd9a81b3e5dc220f6&#45;&gt;dir_7e732ae97f4f941436b6909b27d4da36 -->
<g id="edge16" class="edge"><title>dir_a2acb30c8e273b0bd9a81b3e5dc220f6&#45;&gt;dir_7e732ae97f4f941436b6909b27d4da36</title>
<path fill="none" stroke="black" d="M78.0838,-292.097C81.0859,-290.701 84.1037,-289.312 87,-288 123.629,-271.413 133.126,-268.034 170,-252 170.83,-251.639 171.669,-251.274 172.516,-250.906"/>
<polygon fill="black" stroke="black" points="173.956,-254.096 181.728,-246.895 171.162,-247.678 173.956,-254.096"/>
<g id="a_edge16&#45;headlabel"><a xlink:href="dir_000159_000079.html" target="_top" xlink:title="1">
<text text-anchor="middle" x="171.793" y="-255.634" font-family="Helvetica,sans-Serif" font-size="10.00">1</text>
</a>
</g>
</g>
<!-- dir_a2acb30c8e273b0bd9a81b3e5dc220f6&#45;&gt;dir_2171f7ec022c5423887b07c69b2f5b48 -->
<g id="edge17" class="edge"><title>dir_a2acb30c8e273b0bd9a81b3e5dc220f6&#45;&gt;dir_2171f7ec022c5423887b07c69b2f5b48</title>
<path fill="none" stroke="black" d="M39.5331,-287.667C33.6252,-277.689 27.037,-264.652 24,-252 5.21229,-173.731 6.89396,-143.429 44,-72 49.4534,-61.5022 57.6386,-51.6616 65.8643,-43.3772"/>
<polygon fill="black" stroke="black" points="68.5336,-45.668 73.3527,-36.2325 63.7014,-40.6034 68.5336,-45.668"/>
<g id="a_edge17&#45;headlabel"><a xlink:href="dir_000159_000043.html" target="_top" xlink:title="1">
<text text-anchor="middle" x="67.8928" y="-47.7036" font-family="Helvetica,sans-Serif" font-size="10.00">1</text>
</a>
</g>
</g>
<!-- dir_4ab6b4cc6a7edbff49100e9123df213f&#45;&gt;dir_2171f7ec022c5423887b07c69b2f5b48 -->
<g id="edge4" class="edge"><title>dir_4ab6b4cc6a7edbff49100e9123df213f&#45;&gt;dir_2171f7ec022c5423887b07c69b2f5b48</title>
<path fill="none" stroke="black" d="M149.309,-71.6966C138.536,-63.0503 126.243,-52.4486 116.013,-43.027"/>
<polygon fill="black" stroke="black" points="118.335,-40.4059 108.653,-36.1043 113.539,-45.505 118.335,-40.4059"/>
<g id="a_edge4&#45;headlabel"><a xlink:href="dir_000016_000043.html" target="_top" xlink:title="1">
<text text-anchor="middle" x="122.899" y="-38.3003" font-family="Helvetica,sans-Serif" font-size="10.00">1</text>
</a>
</g>
</g>
<!-- dir_37c90836491b695b472bf98d1be8336b&#45;&gt;dir_4ab6b4cc6a7edbff49100e9123df213f -->
<g id="edge5" class="edge"><title>dir_37c90836491b695b472bf98d1be8336b&#45;&gt;dir_4ab6b4cc6a7edbff49100e9123df213f</title>
<path fill="none" stroke="black" d="M97.1966,-143.876C110.414,-134.893 126.792,-123.763 141.107,-114.034"/>
<polygon fill="black" stroke="black" points="143.403,-116.705 149.707,-108.19 139.468,-110.916 143.403,-116.705"/>
<g id="a_edge5&#45;headlabel"><a xlink:href="dir_000122_000016.html" target="_top" xlink:title="5">
<text text-anchor="middle" x="142.026" y="-118.574" font-family="Helvetica,sans-Serif" font-size="10.00">5</text>
</a>
</g>
</g>
<!-- dir_37c90836491b695b472bf98d1be8336b&#45;&gt;dir_2171f7ec022c5423887b07c69b2f5b48 -->
<g id="edge6" class="edge"><title>dir_37c90836491b695b472bf98d1be8336b&#45;&gt;dir_2171f7ec022c5423887b07c69b2f5b48</title>
<path fill="none" stroke="black" d="M70.1898,-143.871C71.5574,-119.564 78.5221,-74.8187 85.1919,-46.0132"/>
<polygon fill="black" stroke="black" points="88.6182,-46.7374 87.6249,-36.1893 81.8235,-45.0546 88.6182,-46.7374"/>
<g id="a_edge6&#45;headlabel"><a xlink:href="dir_000122_000043.html" target="_top" xlink:title="5">
<text text-anchor="middle" x="90.5101" y="-48.4092" font-family="Helvetica,sans-Serif" font-size="10.00">5</text>
</a>
</g>
</g>
<!-- dir_85bf31a2e8d306e7598ffcb73f8df6bf&#45;&gt;dir_4ab6b4cc6a7edbff49100e9123df213f -->
<g id="edge7" class="edge"><title>dir_85bf31a2e8d306e7598ffcb73f8df6bf&#45;&gt;dir_4ab6b4cc6a7edbff49100e9123df213f</title>
<path fill="none" stroke="black" d="M151.663,-143.697C155.192,-135.728 159.456,-126.1 163.369,-117.264"/>
<polygon fill="black" stroke="black" points="166.576,-118.665 167.425,-108.104 160.176,-115.831 166.576,-118.665"/>
<g id="a_edge7&#45;headlabel"><a xlink:href="dir_000164_000016.html" target="_top" xlink:title="2">
<text text-anchor="middle" x="167.717" y="-120.602" font-family="Helvetica,sans-Serif" font-size="10.00">2</text>
</a>
</g>
</g>
<!-- dir_85bf31a2e8d306e7598ffcb73f8df6bf&#45;&gt;dir_2171f7ec022c5423887b07c69b2f5b48 -->
<g id="edge8" class="edge"><title>dir_85bf31a2e8d306e7598ffcb73f8df6bf&#45;&gt;dir_2171f7ec022c5423887b07c69b2f5b48</title>
<path fill="none" stroke="black" d="M138.089,-143.871C129.702,-119.564 114.261,-74.8187 104.321,-46.0132"/>
<polygon fill="black" stroke="black" points="107.502,-44.5006 100.932,-36.1893 100.885,-46.784 107.502,-44.5006"/>
<g id="a_edge8&#45;headlabel"><a xlink:href="dir_000164_000043.html" target="_top" xlink:title="17">
<text text-anchor="middle" x="111.359" y="-44.4724" font-family="Helvetica,sans-Serif" font-size="10.00">17</text>
</a>
</g>
</g>
<!-- dir_7e732ae97f4f941436b6909b27d4da36&#45;&gt;dir_4ab6b4cc6a7edbff49100e9123df213f -->
<g id="edge9" class="edge"><title>dir_7e732ae97f4f941436b6909b27d4da36&#45;&gt;dir_4ab6b4cc6a7edbff49100e9123df213f</title>
<path fill="none" stroke="black" d="M204.899,-215.871C199.079,-191.564 188.365,-146.819 181.468,-118.013"/>
<polygon fill="black" stroke="black" points="184.848,-117.099 179.116,-108.189 178.041,-118.729 184.848,-117.099"/>
<g id="a_edge9&#45;headlabel"><a xlink:href="dir_000079_000016.html" target="_top" xlink:title="2">
<text text-anchor="middle" x="188.446" y="-117.434" font-family="Helvetica,sans-Serif" font-size="10.00">2</text>
</a>
</g>
</g>
<!-- dir_7e732ae97f4f941436b6909b27d4da36&#45;&gt;dir_37c90836491b695b472bf98d1be8336b -->
<g id="edge10" class="edge"><title>dir_7e732ae97f4f941436b6909b27d4da36&#45;&gt;dir_37c90836491b695b472bf98d1be8336b</title>
<path fill="none" stroke="black" d="M191.841,-215.971C185.4,-210.286 177.753,-204.308 170,-200 147.063,-187.256 136.892,-189.93 108.714,-179.912"/>
<polygon fill="black" stroke="black" points="109.948,-176.637 99.3568,-176.365 107.467,-183.183 109.948,-176.637"/>
<g id="a_edge10&#45;headlabel"><a xlink:href="dir_000079_000122.html" target="_top" xlink:title="2">
<text text-anchor="middle" x="114.316" y="-172.757" font-family="Helvetica,sans-Serif" font-size="10.00">2</text>
</a>
</g>
</g>
<!-- dir_7e732ae97f4f941436b6909b27d4da36&#45;&gt;dir_85bf31a2e8d306e7598ffcb73f8df6bf -->
<g id="edge11" class="edge"><title>dir_7e732ae97f4f941436b6909b27d4da36&#45;&gt;dir_85bf31a2e8d306e7598ffcb73f8df6bf</title>
<path fill="none" stroke="black" d="M192.933,-215.697C185.061,-207.22 175.445,-196.864 166.827,-187.583"/>
<polygon fill="black" stroke="black" points="169.252,-185.051 159.883,-180.104 164.122,-189.814 169.252,-185.051"/>
<g id="a_edge11&#45;headlabel"><a xlink:href="dir_000079_000164.html" target="_top" xlink:title="7">
<text text-anchor="middle" x="173.778" y="-183.253" font-family="Helvetica,sans-Serif" font-size="10.00">7</text>
</a>
</g>
</g>
<!-- dir_7e732ae97f4f941436b6909b27d4da36&#45;&gt;dir_2171f7ec022c5423887b07c69b2f5b48 -->
<g id="edge12" class="edge"><title>dir_7e732ae97f4f941436b6909b27d4da36&#45;&gt;dir_2171f7ec022c5423887b07c69b2f5b48</title>
<path fill="none" stroke="black" d="M214.903,-215.82C224.543,-184.432 239.862,-116.918 211,-72 195.732,-48.2375 166.876,-34.9966 141.766,-27.6918"/>
<polygon fill="black" stroke="black" points="142.569,-24.2838 132.005,-25.0859 140.763,-31.0469 142.569,-24.2838"/>
<g id="a_edge12&#45;headlabel"><a xlink:href="dir_000079_000043.html" target="_top" xlink:title="1">
<text text-anchor="middle" x="146.774" y="-19.9677" font-family="Helvetica,sans-Serif" font-size="10.00">1</text>
</a>
</g>
</g>
<!-- dir_2171f7ec022c5423887b07c69b2f5b48&#45;&gt;dir_4ab6b4cc6a7edbff49100e9123df213f -->
<g id="edge18" class="edge"><title>dir_2171f7ec022c5423887b07c69b2f5b48&#45;&gt;dir_4ab6b4cc6a7edbff49100e9123df213f</title>
<path fill="none" stroke="black" d="M120.443,-36.1043C131.193,-44.7205 143.49,-55.316 153.75,-64.7555"/>
<polygon fill="black" stroke="black" points="151.455,-67.4016 161.14,-71.6966 156.248,-62.2992 151.455,-67.4016"/>
<g id="a_edge18&#45;headlabel"><a xlink:href="dir_000043_000016.html" target="_top" xlink:title="15">
<text text-anchor="middle" x="146.891" y="-64.5102" font-family="Helvetica,sans-Serif" font-size="10.00">15</text>
</a>
</g>
</g>
<!-- dir_2171f7ec022c5423887b07c69b2f5b48&#45;&gt;dir_37c90836491b695b472bf98d1be8336b -->
<g id="edge19" class="edge"><title>dir_2171f7ec022c5423887b07c69b2f5b48&#45;&gt;dir_37c90836491b695b472bf98d1be8336b</title>
<path fill="none" stroke="black" d="M96.8067,-36.1893C95.4299,-60.5311 88.4608,-105.28 81.7915,-134.059"/>
<polygon fill="black" stroke="black" points="78.3679,-133.323 79.3588,-143.871 85.1623,-135.007 78.3679,-133.323"/>
<g id="a_edge19&#45;headlabel"><a xlink:href="dir_000043_000122.html" target="_top" xlink:title="1">
<text text-anchor="middle" x="76.477" y="-126.651" font-family="Helvetica,sans-Serif" font-size="10.00">1</text>
</a>
</g>
</g>
</g>
</svg>
