<?xml version="1.0" encoding="UTF-8" standalone="no"?>
<!DOCTYPE svg PUBLIC "-//W3C//DTD SVG 1.1//EN"
 "http://www.w3.org/Graphics/SVG/1.1/DTD/svg11.dtd">
<!-- Generated by graphviz version 2.36.0 (20140111.2315)
 -->
<!-- Title: /home/travis/build/AliceO2Group/AliceO2/Detectors/ITSMFT/common Pages: 1 -->
<svg width="286pt" height="303pt"
 viewBox="0.00 0.00 286.00 303.00" xmlns="http://www.w3.org/2000/svg" xmlns:xlink="http://www.w3.org/1999/xlink">
<g id="graph0" class="graph" transform="scale(1 1) rotate(0) translate(4 299)">
<title>/home/travis/build/AliceO2Group/AliceO2/Detectors/ITSMFT/common</title>
<g id="clust1" class="cluster"><title>clusterdir_1306292b77b40360479b729ac9ee7efe</title>
<g id="a_clust1"><a xlink:href="dir_1306292b77b40360479b729ac9ee7efe.html" target="_top" xlink:title="ITSMFT">
<polygon fill="#ddddee" stroke="black" points="8,-128 8,-287 270,-287 270,-128 8,-128"/>
<text text-anchor="middle" x="139" y="-275" font-family="Helvetica,sans-Serif" font-size="10.00">ITSMFT</text>
</a>
</g>
</g>
<g id="clust2" class="cluster"><title>clusterdir_85bf31a2e8d306e7598ffcb73f8df6bf</title>
<g id="a_clust2"><a xlink:href="dir_85bf31a2e8d306e7598ffcb73f8df6bf.html" target="_top">
<polygon fill="#eeeeff" stroke="black" points="16,-136 16,-260 262,-260 262,-136 16,-136"/>
</a>
</g>
</g>
<!-- dir_85bf31a2e8d306e7598ffcb73f8df6bf -->
<g id="node1" class="node"><title>dir_85bf31a2e8d306e7598ffcb73f8df6bf</title>
<text text-anchor="middle" x="227" y="-231.5" font-family="Helvetica,sans-Serif" font-size="10.00">common</text>
</g>
<!-- dir_7c9998090bca7c4aa89c05dd66fe73f5 -->
<g id="node2" class="node"><title>dir_7c9998090bca7c4aa89c05dd66fe73f5</title>
<g id="a_node2"><a xlink:href="dir_7c9998090bca7c4aa89c05dd66fe73f5.html" target="_top" xlink:title="base">
<polygon fill="white" stroke="red" points="85,-180 31,-180 31,-144 85,-144 85,-180"/>
<text text-anchor="middle" x="58" y="-159.5" font-family="Helvetica,sans-Serif" font-size="10.00">base</text>
</a>
</g>
</g>
<!-- dir_2171f7ec022c5423887b07c69b2f5b48 -->
<g id="node6" class="node"><title>dir_2171f7ec022c5423887b07c69b2f5b48</title>
<g id="a_node6"><a xlink:href="dir_2171f7ec022c5423887b07c69b2f5b48.html" target="_top" xlink:title="DataFormats">
<polygon fill="none" stroke="red" points="155,-108 81,-108 81,-72 155,-72 155,-108"/>
<text text-anchor="middle" x="118" y="-87.5" font-family="Helvetica,sans-Serif" font-size="10.00">DataFormats</text>
</a>
</g>
</g>
<!-- dir_7c9998090bca7c4aa89c05dd66fe73f5&#45;&gt;dir_2171f7ec022c5423887b07c69b2f5b48 -->
<g id="edge4" class="edge"><title>dir_7c9998090bca7c4aa89c05dd66fe73f5&#45;&gt;dir_2171f7ec022c5423887b07c69b2f5b48</title>
<path fill="none" stroke="black" d="M72.8315,-143.697C80.0247,-135.305 88.7967,-125.07 96.6903,-115.861"/>
<polygon fill="black" stroke="black" points="99.4886,-117.975 103.339,-108.104 94.1738,-113.419 99.4886,-117.975"/>
<g id="a_edge4&#45;headlabel"><a xlink:href="dir_000165_000043.html" target="_top" xlink:title="3">
<text text-anchor="middle" x="99.305" y="-120.052" font-family="Helvetica,sans-Serif" font-size="10.00">3</text>
</a>
</g>
</g>
<!-- dir_2174d8cbbd82d5c404dd04814f845a3a -->
<g id="node3" class="node"><title>dir_2174d8cbbd82d5c404dd04814f845a3a</title>
<g id="a_node3"><a xlink:href="dir_2174d8cbbd82d5c404dd04814f845a3a.html" target="_top" xlink:title="reconstruction">
<polygon fill="white" stroke="red" points="102,-252 24,-252 24,-216 102,-216 102,-252"/>
<text text-anchor="middle" x="63" y="-231.5" font-family="Helvetica,sans-Serif" font-size="10.00">reconstruction</text>
</a>
</g>
</g>
<!-- dir_2174d8cbbd82d5c404dd04814f845a3a&#45;&gt;dir_7c9998090bca7c4aa89c05dd66fe73f5 -->
<g id="edge1" class="edge"><title>dir_2174d8cbbd82d5c404dd04814f845a3a&#45;&gt;dir_7c9998090bca7c4aa89c05dd66fe73f5</title>
<path fill="none" stroke="black" d="M61.764,-215.697C61.2131,-207.983 60.5509,-198.712 59.9366,-190.112"/>
<polygon fill="black" stroke="black" points="63.4254,-189.83 59.2217,-180.104 56.4432,-190.328 63.4254,-189.83"/>
<g id="a_edge1&#45;headlabel"><a xlink:href="dir_000202_000165.html" target="_top" xlink:title="4">
<text text-anchor="middle" x="66.5135" y="-190.713" font-family="Helvetica,sans-Serif" font-size="10.00">4</text>
</a>
</g>
</g>
<!-- dir_2174d8cbbd82d5c404dd04814f845a3a&#45;&gt;dir_2171f7ec022c5423887b07c69b2f5b48 -->
<g id="edge2" class="edge"><title>dir_2174d8cbbd82d5c404dd04814f845a3a&#45;&gt;dir_2171f7ec022c5423887b07c69b2f5b48</title>
<path fill="none" stroke="black" d="M74.5496,-215.94C80.9828,-205.837 88.7328,-192.587 94,-180 102.418,-159.884 108.674,-135.969 112.685,-117.997"/>
<polygon fill="black" stroke="black" points="116.116,-118.687 114.786,-108.176 109.271,-117.222 116.116,-118.687"/>
<g id="a_edge2&#45;headlabel"><a xlink:href="dir_000202_000043.html" target="_top" xlink:title="10">
<text text-anchor="middle" x="118.14" y="-120.296" font-family="Helvetica,sans-Serif" font-size="10.00">10</text>
</a>
</g>
</g>
<!-- dir_948e043a2a9c0d8c3d26178da976c005 -->
<g id="node4" class="node"><title>dir_948e043a2a9c0d8c3d26178da976c005</title>
<g id="a_node4"><a xlink:href="dir_948e043a2a9c0d8c3d26178da976c005.html" target="_top" xlink:title="simulation">
<polygon fill="white" stroke="red" points="181.25,-252 120.75,-252 120.75,-216 181.25,-216 181.25,-252"/>
<text text-anchor="middle" x="151" y="-231.5" font-family="Helvetica,sans-Serif" font-size="10.00">simulation</text>
</a>
</g>
</g>
<!-- dir_948e043a2a9c0d8c3d26178da976c005&#45;&gt;dir_7c9998090bca7c4aa89c05dd66fe73f5 -->
<g id="edge6" class="edge"><title>dir_948e043a2a9c0d8c3d26178da976c005&#45;&gt;dir_7c9998090bca7c4aa89c05dd66fe73f5</title>
<path fill="none" stroke="black" d="M128.011,-215.697C116.186,-206.796 101.608,-195.823 88.8214,-186.199"/>
<polygon fill="black" stroke="black" points="90.8188,-183.322 80.7243,-180.104 86.6092,-188.915 90.8188,-183.322"/>
<g id="a_edge6&#45;headlabel"><a xlink:href="dir_000180_000165.html" target="_top" xlink:title="7">
<text text-anchor="middle" x="95.3983" y="-180.715" font-family="Helvetica,sans-Serif" font-size="10.00">7</text>
</a>
</g>
</g>
<!-- dir_4ab6b4cc6a7edbff49100e9123df213f -->
<g id="node5" class="node"><title>dir_4ab6b4cc6a7edbff49100e9123df213f</title>
<g id="a_node5"><a xlink:href="dir_4ab6b4cc6a7edbff49100e9123df213f.html" target="_top" xlink:title="Common">
<polygon fill="none" stroke="red" points="145.5,-36 90.5,-36 90.5,-0 145.5,-0 145.5,-36"/>
<text text-anchor="middle" x="118" y="-15.5" font-family="Helvetica,sans-Serif" font-size="10.00">Common</text>
</a>
</g>
</g>
<!-- dir_948e043a2a9c0d8c3d26178da976c005&#45;&gt;dir_4ab6b4cc6a7edbff49100e9123df213f -->
<g id="edge5" class="edge"><title>dir_948e043a2a9c0d8c3d26178da976c005&#45;&gt;dir_4ab6b4cc6a7edbff49100e9123df213f</title>
<path fill="none" stroke="black" d="M157.015,-215.891C166.62,-185.744 182.542,-121.651 164,-72 160.124,-61.6206 153.197,-51.9274 145.876,-43.7427"/>
<polygon fill="black" stroke="black" points="148.269,-41.1816 138.823,-36.3845 143.216,-46.0256 148.269,-41.1816"/>
<g id="a_edge5&#45;headlabel"><a xlink:href="dir_000180_000016.html" target="_top" xlink:title="2">
<text text-anchor="middle" x="152.806" y="-39.3118" font-family="Helvetica,sans-Serif" font-size="10.00">2</text>
</a>
</g>
</g>
<!-- dir_948e043a2a9c0d8c3d26178da976c005&#45;&gt;dir_2171f7ec022c5423887b07c69b2f5b48 -->
<g id="edge7" class="edge"><title>dir_948e043a2a9c0d8c3d26178da976c005&#45;&gt;dir_2171f7ec022c5423887b07c69b2f5b48</title>
<path fill="none" stroke="black" d="M147.165,-215.887C142.487,-195.09 134.299,-158.94 127,-128 126.241,-124.783 125.435,-121.411 124.63,-118.067"/>
<polygon fill="black" stroke="black" points="128.021,-117.199 122.262,-108.306 121.218,-118.849 128.021,-117.199"/>
<g id="a_edge7&#45;headlabel"><a xlink:href="dir_000180_000043.html" target="_top" xlink:title="4">
<text text-anchor="middle" x="131.627" y="-117.523" font-family="Helvetica,sans-Serif" font-size="10.00">4</text>
</a>
</g>
</g>
<!-- dir_4ab6b4cc6a7edbff49100e9123df213f&#45;&gt;dir_2171f7ec022c5423887b07c69b2f5b48 -->
<g id="edge3" class="edge"><title>dir_4ab6b4cc6a7edbff49100e9123df213f&#45;&gt;dir_2171f7ec022c5423887b07c69b2f5b48</title>
<path fill="none" stroke="black" d="M123.895,-36.1043C124.701,-43.7913 124.937,-53.0537 124.604,-61.6651"/>
<polygon fill="black" stroke="black" points="121.109,-61.4805 123.916,-71.6966 128.092,-61.9597 121.109,-61.4805"/>
<g id="a_edge3&#45;headlabel"><a xlink:href="dir_000016_000043.html" target="_top" xlink:title="1">
<text text-anchor="middle" x="118.522" y="-55.2" font-family="Helvetica,sans-Serif" font-size="10.00">1</text>
</a>
</g>
</g>
<!-- dir_2171f7ec022c5423887b07c69b2f5b48&#45;&gt;dir_4ab6b4cc6a7edbff49100e9123df213f -->
<g id="edge8" class="edge"><title>dir_2171f7ec022c5423887b07c69b2f5b48&#45;&gt;dir_4ab6b4cc6a7edbff49100e9123df213f</title>
<path fill="none" stroke="black" d="M112.084,-71.6966C111.289,-63.9827 111.062,-54.7125 111.405,-46.1124"/>
<polygon fill="black" stroke="black" points="114.898,-46.3243 112.105,-36.1043 107.915,-45.8356 114.898,-46.3243"/>
<g id="a_edge8&#45;headlabel"><a xlink:href="dir_000043_000016.html" target="_top" xlink:title="15">
<text text-anchor="middle" x="117.48" y="-47.6083" font-family="Helvetica,sans-Serif" font-size="10.00">15</text>
</a>
</g>
</g>
</g>
</svg>
