<?xml version="1.0" encoding="UTF-8" standalone="no"?>
<!DOCTYPE svg PUBLIC "-//W3C//DTD SVG 1.1//EN"
 "http://www.w3.org/Graphics/SVG/1.1/DTD/svg11.dtd">
<!-- Generated by graphviz version 2.36.0 (20140111.2315)
 -->
<!-- Title: /home/travis/build/AliceO2Group/AliceO2/Detectors/ITSMFT/ITS/reconstruction Pages: 1 -->
<svg width="308pt" height="519pt"
 viewBox="0.00 0.00 308.00 519.00" xmlns="http://www.w3.org/2000/svg" xmlns:xlink="http://www.w3.org/1999/xlink">
<g id="graph0" class="graph" transform="scale(1 1) rotate(0) translate(4 515)">
<title>/home/travis/build/AliceO2Group/AliceO2/Detectors/ITSMFT/ITS/reconstruction</title>
<g id="clust1" class="cluster"><title>clusterdir_871aad07cbf94d6cd423c3d8d5bdf4e9</title>
<g id="a_clust1"><a xlink:href="dir_871aad07cbf94d6cd423c3d8d5bdf4e9.html" target="_top" xlink:title="ITS">
<polygon fill="#ddddee" stroke="black" points="94,-344 94,-503 276,-503 276,-344 94,-344"/>
<text text-anchor="middle" x="185" y="-491" font-family="Helvetica,sans-Serif" font-size="10.00">ITS</text>
</a>
</g>
</g>
<g id="clust2" class="cluster"><title>clusterdir_5125ceb2b58f632ed0a3019fe2d5cbbc</title>
<g id="a_clust2"><a xlink:href="dir_5125ceb2b58f632ed0a3019fe2d5cbbc.html" target="_top">
<polygon fill="#eeeeff" stroke="black" points="102,-352 102,-476 268,-476 268,-352 102,-352"/>
</a>
</g>
</g>
<!-- dir_5125ceb2b58f632ed0a3019fe2d5cbbc -->
<g id="node1" class="node"><title>dir_5125ceb2b58f632ed0a3019fe2d5cbbc</title>
<text text-anchor="middle" x="221" y="-447.5" font-family="Helvetica,sans-Serif" font-size="10.00">reconstruction</text>
</g>
<!-- dir_a7418508cffd1c8afbbd736339058404 -->
<g id="node2" class="node"><title>dir_a7418508cffd1c8afbbd736339058404</title>
<g id="a_node2"><a xlink:href="dir_a7418508cffd1c8afbbd736339058404.html" target="_top" xlink:title="include">
<polygon fill="white" stroke="red" points="192,-396 138,-396 138,-360 192,-360 192,-396"/>
<text text-anchor="middle" x="165" y="-375.5" font-family="Helvetica,sans-Serif" font-size="10.00">include</text>
</a>
</g>
</g>
<!-- dir_eedff867f3c4e67d20b227cb6e0f96ab -->
<g id="node4" class="node"><title>dir_eedff867f3c4e67d20b227cb6e0f96ab</title>
<g id="a_node4"><a xlink:href="dir_eedff867f3c4e67d20b227cb6e0f96ab.html" target="_top" xlink:title="base">
<polygon fill="none" stroke="red" points="82,-324 28,-324 28,-288 82,-288 82,-324"/>
<text text-anchor="middle" x="55" y="-303.5" font-family="Helvetica,sans-Serif" font-size="10.00">base</text>
</a>
</g>
</g>
<!-- dir_a7418508cffd1c8afbbd736339058404&#45;&gt;dir_eedff867f3c4e67d20b227cb6e0f96ab -->
<g id="edge16" class="edge"><title>dir_a7418508cffd1c8afbbd736339058404&#45;&gt;dir_eedff867f3c4e67d20b227cb6e0f96ab</title>
<path fill="none" stroke="black" d="M138.091,-359.876C123.842,-350.808 106.154,-339.552 90.7644,-329.759"/>
<polygon fill="black" stroke="black" points="92.3282,-326.606 82.0125,-324.19 88.57,-332.511 92.3282,-326.606"/>
<g id="a_edge16&#45;headlabel"><a xlink:href="dir_000214_000198.html" target="_top" xlink:title="4">
<text text-anchor="middle" x="96.8851" y="-323.64" font-family="Helvetica,sans-Serif" font-size="10.00">4</text>
</a>
</g>
</g>
<!-- dir_4ab6b4cc6a7edbff49100e9123df213f -->
<g id="node5" class="node"><title>dir_4ab6b4cc6a7edbff49100e9123df213f</title>
<g id="a_node5"><a xlink:href="dir_4ab6b4cc6a7edbff49100e9123df213f.html" target="_top" xlink:title="Common">
<polygon fill="none" stroke="red" points="252.5,-180 197.5,-180 197.5,-144 252.5,-144 252.5,-180"/>
<text text-anchor="middle" x="225" y="-159.5" font-family="Helvetica,sans-Serif" font-size="10.00">Common</text>
</a>
</g>
</g>
<!-- dir_a7418508cffd1c8afbbd736339058404&#45;&gt;dir_4ab6b4cc6a7edbff49100e9123df213f -->
<g id="edge17" class="edge"><title>dir_a7418508cffd1c8afbbd736339058404&#45;&gt;dir_4ab6b4cc6a7edbff49100e9123df213f</title>
<path fill="none" stroke="black" d="M179.035,-359.904C186.434,-350.001 194.991,-336.959 200,-324 217.317,-279.199 222.661,-222.996 224.296,-190.228"/>
<polygon fill="black" stroke="black" points="227.8,-190.202 224.72,-180.065 220.806,-189.91 227.8,-190.202"/>
<g id="a_edge17&#45;headlabel"><a xlink:href="dir_000214_000016.html" target="_top" xlink:title="2">
<text text-anchor="middle" x="230.487" y="-191.412" font-family="Helvetica,sans-Serif" font-size="10.00">2</text>
</a>
</g>
</g>
<!-- dir_85bf31a2e8d306e7598ffcb73f8df6bf -->
<g id="node7" class="node"><title>dir_85bf31a2e8d306e7598ffcb73f8df6bf</title>
<g id="a_node7"><a xlink:href="dir_85bf31a2e8d306e7598ffcb73f8df6bf.html" target="_top" xlink:title="common">
<polygon fill="none" stroke="red" points="158,-252 104,-252 104,-216 158,-216 158,-252"/>
<text text-anchor="middle" x="131" y="-231.5" font-family="Helvetica,sans-Serif" font-size="10.00">common</text>
</a>
</g>
</g>
<!-- dir_a7418508cffd1c8afbbd736339058404&#45;&gt;dir_85bf31a2e8d306e7598ffcb73f8df6bf -->
<g id="edge18" class="edge"><title>dir_a7418508cffd1c8afbbd736339058404&#45;&gt;dir_85bf31a2e8d306e7598ffcb73f8df6bf</title>
<path fill="none" stroke="black" d="M160.899,-359.871C155.079,-335.564 144.365,-290.819 137.468,-262.013"/>
<polygon fill="black" stroke="black" points="140.848,-261.099 135.116,-252.189 134.041,-262.729 140.848,-261.099"/>
<g id="a_edge18&#45;headlabel"><a xlink:href="dir_000214_000164.html" target="_top" xlink:title="3">
<text text-anchor="middle" x="144.446" y="-261.434" font-family="Helvetica,sans-Serif" font-size="10.00">3</text>
</a>
</g>
</g>
<!-- dir_2171f7ec022c5423887b07c69b2f5b48 -->
<g id="node8" class="node"><title>dir_2171f7ec022c5423887b07c69b2f5b48</title>
<g id="a_node8"><a xlink:href="dir_2171f7ec022c5423887b07c69b2f5b48.html" target="_top" xlink:title="DataFormats">
<polygon fill="none" stroke="red" points="197,-108 123,-108 123,-72 197,-72 197,-108"/>
<text text-anchor="middle" x="160" y="-87.5" font-family="Helvetica,sans-Serif" font-size="10.00">DataFormats</text>
</a>
</g>
</g>
<!-- dir_a7418508cffd1c8afbbd736339058404&#45;&gt;dir_2171f7ec022c5423887b07c69b2f5b48 -->
<g id="edge19" class="edge"><title>dir_a7418508cffd1c8afbbd736339058404&#45;&gt;dir_2171f7ec022c5423887b07c69b2f5b48</title>
<path fill="none" stroke="black" d="M165.676,-359.604C166.721,-330.075 168.462,-268.253 167,-216 166.063,-182.501 163.715,-144.011 161.996,-118.693"/>
<polygon fill="black" stroke="black" points="165.464,-118.112 161.281,-108.378 158.481,-118.596 165.464,-118.112"/>
<g id="a_edge19&#45;headlabel"><a xlink:href="dir_000214_000043.html" target="_top" xlink:title="3">
<text text-anchor="middle" x="168.545" y="-119.001" font-family="Helvetica,sans-Serif" font-size="10.00">3</text>
</a>
</g>
</g>
<!-- dir_912fdeb75838ec7e9173df897dc72438 -->
<g id="node3" class="node"><title>dir_912fdeb75838ec7e9173df897dc72438</title>
<g id="a_node3"><a xlink:href="dir_912fdeb75838ec7e9173df897dc72438.html" target="_top" xlink:title="src">
<polygon fill="white" stroke="black" points="164,-468 110,-468 110,-432 164,-432 164,-468"/>
<text text-anchor="middle" x="137" y="-447.5" font-family="Helvetica,sans-Serif" font-size="10.00">src</text>
</a>
</g>
</g>
<!-- dir_912fdeb75838ec7e9173df897dc72438&#45;&gt;dir_a7418508cffd1c8afbbd736339058404 -->
<g id="edge12" class="edge"><title>dir_912fdeb75838ec7e9173df897dc72438&#45;&gt;dir_a7418508cffd1c8afbbd736339058404</title>
<path fill="none" stroke="black" d="M143.921,-431.697C147.075,-423.813 150.878,-414.304 154.381,-405.546"/>
<polygon fill="black" stroke="black" points="157.694,-406.689 158.158,-396.104 151.195,-404.089 157.694,-406.689"/>
<g id="a_edge12&#45;headlabel"><a xlink:href="dir_000216_000214.html" target="_top" xlink:title="9">
<text text-anchor="middle" x="158.995" y="-408.581" font-family="Helvetica,sans-Serif" font-size="10.00">9</text>
</a>
</g>
</g>
<!-- dir_912fdeb75838ec7e9173df897dc72438&#45;&gt;dir_eedff867f3c4e67d20b227cb6e0f96ab -->
<g id="edge8" class="edge"><title>dir_912fdeb75838ec7e9173df897dc72438&#45;&gt;dir_eedff867f3c4e67d20b227cb6e0f96ab</title>
<path fill="none" stroke="black" d="M121.899,-431.575C113.651,-421.569 103.6,-408.534 96,-396 83.8694,-375.993 72.9393,-351.796 65.421,-333.685"/>
<polygon fill="black" stroke="black" points="68.6194,-332.259 61.6092,-324.315 62.1354,-334.897 68.6194,-332.259"/>
<g id="a_edge8&#45;headlabel"><a xlink:href="dir_000216_000198.html" target="_top" xlink:title="1">
<text text-anchor="middle" x="72.6039" y="-332.019" font-family="Helvetica,sans-Serif" font-size="10.00">1</text>
</a>
</g>
</g>
<!-- dir_912fdeb75838ec7e9173df897dc72438&#45;&gt;dir_4ab6b4cc6a7edbff49100e9123df213f -->
<g id="edge9" class="edge"><title>dir_912fdeb75838ec7e9173df897dc72438&#45;&gt;dir_4ab6b4cc6a7edbff49100e9123df213f</title>
<path fill="none" stroke="black" d="M164.104,-432.37C177.034,-423.145 191.679,-410.588 201,-396 244.836,-327.394 242.58,-297.061 235,-216 234.203,-207.478 232.7,-198.285 231.097,-189.986"/>
<polygon fill="black" stroke="black" points="234.501,-189.161 229.059,-180.071 227.645,-190.571 234.501,-189.161"/>
<g id="a_edge9&#45;headlabel"><a xlink:href="dir_000216_000016.html" target="_top" xlink:title="12">
<text text-anchor="middle" x="238.006" y="-189.61" font-family="Helvetica,sans-Serif" font-size="10.00">12</text>
</a>
</g>
</g>
<!-- dir_37c90836491b695b472bf98d1be8336b -->
<g id="node6" class="node"><title>dir_37c90836491b695b472bf98d1be8336b</title>
<g id="a_node6"><a xlink:href="dir_37c90836491b695b472bf98d1be8336b.html" target="_top" xlink:title="Base">
<polygon fill="none" stroke="red" points="187,-36 133,-36 133,-0 187,-0 187,-36"/>
<text text-anchor="middle" x="160" y="-15.5" font-family="Helvetica,sans-Serif" font-size="10.00">Base</text>
</a>
</g>
</g>
<!-- dir_912fdeb75838ec7e9173df897dc72438&#45;&gt;dir_37c90836491b695b472bf98d1be8336b -->
<g id="edge10" class="edge"><title>dir_912fdeb75838ec7e9173df897dc72438&#45;&gt;dir_37c90836491b695b472bf98d1be8336b</title>
<path fill="none" stroke="black" d="M164.051,-434.87C187.13,-422.552 218.237,-405.252 229,-396 267.372,-363.015 300,-357.6 300,-307 300,-307 300,-307 300,-161 300,-101.94 237.828,-58.5345 196.347,-36.1472"/>
<polygon fill="black" stroke="black" points="197.809,-32.9625 187.326,-31.4308 194.566,-39.1658 197.809,-32.9625"/>
<g id="a_edge10&#45;headlabel"><a xlink:href="dir_000216_000122.html" target="_top" xlink:title="1">
<text text-anchor="middle" x="202.31" y="-29.6118" font-family="Helvetica,sans-Serif" font-size="10.00">1</text>
</a>
</g>
</g>
<!-- dir_912fdeb75838ec7e9173df897dc72438&#45;&gt;dir_85bf31a2e8d306e7598ffcb73f8df6bf -->
<g id="edge11" class="edge"><title>dir_912fdeb75838ec7e9173df897dc72438&#45;&gt;dir_85bf31a2e8d306e7598ffcb73f8df6bf</title>
<path fill="none" stroke="black" d="M133.752,-431.888C131.954,-421.542 129.905,-408.063 129,-396 125.501,-349.371 127.428,-294.938 129.185,-262.808"/>
<polygon fill="black" stroke="black" points="132.702,-262.61 129.79,-252.423 125.714,-262.203 132.702,-262.61"/>
<g id="a_edge11&#45;headlabel"><a xlink:href="dir_000216_000164.html" target="_top" xlink:title="4">
<text text-anchor="middle" x="135.328" y="-263.863" font-family="Helvetica,sans-Serif" font-size="10.00">4</text>
</a>
</g>
</g>
<!-- dir_912fdeb75838ec7e9173df897dc72438&#45;&gt;dir_2171f7ec022c5423887b07c69b2f5b48 -->
<g id="edge13" class="edge"><title>dir_912fdeb75838ec7e9173df897dc72438&#45;&gt;dir_2171f7ec022c5423887b07c69b2f5b48</title>
<path fill="none" stroke="black" d="M109.933,-436.238C70.0072,-415.314 0,-369.688 0,-307 0,-307 0,-307 0,-233 0,-200.047 76.8806,-144.547 124.057,-113.593"/>
<polygon fill="black" stroke="black" points="126.017,-116.494 132.495,-108.11 122.203,-110.624 126.017,-116.494"/>
<g id="a_edge13&#45;headlabel"><a xlink:href="dir_000216_000043.html" target="_top" xlink:title="18">
<text text-anchor="middle" x="124.55" y="-118.333" font-family="Helvetica,sans-Serif" font-size="10.00">18</text>
</a>
</g>
</g>
<!-- dir_eedff867f3c4e67d20b227cb6e0f96ab&#45;&gt;dir_4ab6b4cc6a7edbff49100e9123df213f -->
<g id="edge1" class="edge"><title>dir_eedff867f3c4e67d20b227cb6e0f96ab&#45;&gt;dir_4ab6b4cc6a7edbff49100e9123df213f</title>
<path fill="none" stroke="black" d="M58.6717,-287.687C63.6964,-267.918 74.5244,-235.766 95,-216 120.457,-191.426 158.847,-177.679 187.315,-170.382"/>
<polygon fill="black" stroke="black" points="188.408,-173.719 197.312,-167.977 186.771,-166.913 188.408,-173.719"/>
<g id="a_edge1&#45;headlabel"><a xlink:href="dir_000198_000016.html" target="_top" xlink:title="2">
<text text-anchor="middle" x="185.577" y="-174.82" font-family="Helvetica,sans-Serif" font-size="10.00">2</text>
</a>
</g>
</g>
<!-- dir_eedff867f3c4e67d20b227cb6e0f96ab&#45;&gt;dir_37c90836491b695b472bf98d1be8336b -->
<g id="edge2" class="edge"><title>dir_eedff867f3c4e67d20b227cb6e0f96ab&#45;&gt;dir_37c90836491b695b472bf98d1be8336b</title>
<path fill="none" stroke="black" d="M53.0735,-287.753C51.5022,-269.687 50.237,-240.574 55,-216 68.1606,-148.1 77.5665,-130.789 114,-72 120.191,-62.0095 128.249,-52.0223 135.886,-43.4547"/>
<polygon fill="black" stroke="black" points="138.525,-45.7563 142.717,-36.0262 133.372,-41.0182 138.525,-45.7563"/>
<g id="a_edge2&#45;headlabel"><a xlink:href="dir_000198_000122.html" target="_top" xlink:title="2">
<text text-anchor="middle" x="138.182" y="-47.8241" font-family="Helvetica,sans-Serif" font-size="10.00">2</text>
</a>
</g>
</g>
<!-- dir_eedff867f3c4e67d20b227cb6e0f96ab&#45;&gt;dir_85bf31a2e8d306e7598ffcb73f8df6bf -->
<g id="edge3" class="edge"><title>dir_eedff867f3c4e67d20b227cb6e0f96ab&#45;&gt;dir_85bf31a2e8d306e7598ffcb73f8df6bf</title>
<path fill="none" stroke="black" d="M73.7865,-287.697C83.174,-279.05 94.6844,-268.449 104.913,-259.027"/>
<polygon fill="black" stroke="black" points="107.445,-261.454 112.43,-252.104 102.703,-256.305 107.445,-261.454"/>
<g id="a_edge3&#45;headlabel"><a xlink:href="dir_000198_000164.html" target="_top" xlink:title="2">
<text text-anchor="middle" x="106.725" y="-263.477" font-family="Helvetica,sans-Serif" font-size="10.00">2</text>
</a>
</g>
</g>
<!-- dir_eedff867f3c4e67d20b227cb6e0f96ab&#45;&gt;dir_2171f7ec022c5423887b07c69b2f5b48 -->
<g id="edge4" class="edge"><title>dir_eedff867f3c4e67d20b227cb6e0f96ab&#45;&gt;dir_2171f7ec022c5423887b07c69b2f5b48</title>
<path fill="none" stroke="black" d="M55.06,-287.957C55.6709,-269.552 58.2693,-239.688 68,-216 83.9136,-177.26 114.417,-139.483 135.928,-115.781"/>
<polygon fill="black" stroke="black" points="138.625,-118.019 142.844,-108.301 133.485,-113.267 138.625,-118.019"/>
<g id="a_edge4&#45;headlabel"><a xlink:href="dir_000198_000043.html" target="_top" xlink:title="1">
<text text-anchor="middle" x="138.269" y="-120.086" font-family="Helvetica,sans-Serif" font-size="10.00">1</text>
</a>
</g>
</g>
<!-- dir_4ab6b4cc6a7edbff49100e9123df213f&#45;&gt;dir_2171f7ec022c5423887b07c69b2f5b48 -->
<g id="edge5" class="edge"><title>dir_4ab6b4cc6a7edbff49100e9123df213f&#45;&gt;dir_2171f7ec022c5423887b07c69b2f5b48</title>
<path fill="none" stroke="black" d="M203.017,-143.697C194.359,-135.305 184.664,-125.07 176.594,-115.861"/>
<polygon fill="black" stroke="black" points="179.136,-113.448 169.988,-108.104 173.807,-117.987 179.136,-113.448"/>
<g id="a_edge5&#45;headlabel"><a xlink:href="dir_000016_000043.html" target="_top" xlink:title="1">
<text text-anchor="middle" x="183.628" y="-111.844" font-family="Helvetica,sans-Serif" font-size="10.00">1</text>
</a>
</g>
</g>
<!-- dir_37c90836491b695b472bf98d1be8336b&#45;&gt;dir_4ab6b4cc6a7edbff49100e9123df213f -->
<g id="edge6" class="edge"><title>dir_37c90836491b695b472bf98d1be8336b&#45;&gt;dir_4ab6b4cc6a7edbff49100e9123df213f</title>
<path fill="none" stroke="black" d="M179.164,-36.4281C188.609,-46.0375 199.367,-58.6979 206,-72 215.666,-91.3839 220.428,-115.531 222.767,-133.78"/>
<polygon fill="black" stroke="black" points="219.293,-134.213 223.882,-143.763 226.25,-133.436 219.293,-134.213"/>
<g id="a_edge6&#45;headlabel"><a xlink:href="dir_000122_000016.html" target="_top" xlink:title="5">
<text text-anchor="middle" x="216.072" y="-128.456" font-family="Helvetica,sans-Serif" font-size="10.00">5</text>
</a>
</g>
</g>
<!-- dir_37c90836491b695b472bf98d1be8336b&#45;&gt;dir_2171f7ec022c5423887b07c69b2f5b48 -->
<g id="edge7" class="edge"><title>dir_37c90836491b695b472bf98d1be8336b&#45;&gt;dir_2171f7ec022c5423887b07c69b2f5b48</title>
<path fill="none" stroke="black" d="M165.895,-36.1043C166.701,-43.7913 166.937,-53.0537 166.604,-61.6651"/>
<polygon fill="black" stroke="black" points="163.109,-61.4805 165.916,-71.6966 170.092,-61.9597 163.109,-61.4805"/>
<g id="a_edge7&#45;headlabel"><a xlink:href="dir_000122_000043.html" target="_top" xlink:title="5">
<text text-anchor="middle" x="160.522" y="-55.2" font-family="Helvetica,sans-Serif" font-size="10.00">5</text>
</a>
</g>
</g>
<!-- dir_85bf31a2e8d306e7598ffcb73f8df6bf&#45;&gt;dir_4ab6b4cc6a7edbff49100e9123df213f -->
<g id="edge14" class="edge"><title>dir_85bf31a2e8d306e7598ffcb73f8df6bf&#45;&gt;dir_4ab6b4cc6a7edbff49100e9123df213f</title>
<path fill="none" stroke="black" d="M154.236,-215.697C166.188,-206.796 180.923,-195.823 193.847,-186.199"/>
<polygon fill="black" stroke="black" points="196.101,-188.884 202.031,-180.104 191.92,-183.27 196.101,-188.884"/>
<g id="a_edge14&#45;headlabel"><a xlink:href="dir_000164_000016.html" target="_top" xlink:title="2">
<text text-anchor="middle" x="194.914" y="-190.808" font-family="Helvetica,sans-Serif" font-size="10.00">2</text>
</a>
</g>
</g>
<!-- dir_85bf31a2e8d306e7598ffcb73f8df6bf&#45;&gt;dir_2171f7ec022c5423887b07c69b2f5b48 -->
<g id="edge15" class="edge"><title>dir_85bf31a2e8d306e7598ffcb73f8df6bf&#45;&gt;dir_2171f7ec022c5423887b07c69b2f5b48</title>
<path fill="none" stroke="black" d="M134.498,-215.871C139.462,-191.564 148.6,-146.819 154.483,-118.013"/>
<polygon fill="black" stroke="black" points="157.918,-118.687 156.49,-108.189 151.059,-117.287 157.918,-118.687"/>
<g id="a_edge15&#45;headlabel"><a xlink:href="dir_000164_000043.html" target="_top" xlink:title="17">
<text text-anchor="middle" x="159.98" y="-120.277" font-family="Helvetica,sans-Serif" font-size="10.00">17</text>
</a>
</g>
</g>
<!-- dir_2171f7ec022c5423887b07c69b2f5b48&#45;&gt;dir_4ab6b4cc6a7edbff49100e9123df213f -->
<g id="edge20" class="edge"><title>dir_2171f7ec022c5423887b07c69b2f5b48&#45;&gt;dir_4ab6b4cc6a7edbff49100e9123df213f</title>
<path fill="none" stroke="black" d="M181.778,-108.104C190.419,-116.467 200.119,-126.694 208.214,-135.92"/>
<polygon fill="black" stroke="black" points="205.696,-138.36 214.848,-143.697 211.021,-133.817 205.696,-138.36"/>
<g id="a_edge20&#45;headlabel"><a xlink:href="dir_000043_000016.html" target="_top" xlink:title="15">
<text text-anchor="middle" x="201.203" y="-134.968" font-family="Helvetica,sans-Serif" font-size="10.00">15</text>
</a>
</g>
</g>
<!-- dir_2171f7ec022c5423887b07c69b2f5b48&#45;&gt;dir_37c90836491b695b472bf98d1be8336b -->
<g id="edge21" class="edge"><title>dir_2171f7ec022c5423887b07c69b2f5b48&#45;&gt;dir_37c90836491b695b472bf98d1be8336b</title>
<path fill="none" stroke="black" d="M154.084,-71.6966C153.289,-63.9827 153.062,-54.7125 153.405,-46.1124"/>
<polygon fill="black" stroke="black" points="156.898,-46.3243 154.105,-36.1043 149.915,-45.8356 156.898,-46.3243"/>
<g id="a_edge21&#45;headlabel"><a xlink:href="dir_000043_000122.html" target="_top" xlink:title="1">
<text text-anchor="middle" x="159.48" y="-47.6083" font-family="Helvetica,sans-Serif" font-size="10.00">1</text>
</a>
</g>
</g>
</g>
</svg>
