<?xml version="1.0" encoding="UTF-8" standalone="no"?>
<!DOCTYPE svg PUBLIC "-//W3C//DTD SVG 1.1//EN"
 "http://www.w3.org/Graphics/SVG/1.1/DTD/svg11.dtd">
<!-- Generated by graphviz version 2.36.0 (20140111.2315)
 -->
<!-- Title: /home/travis/build/AliceO2Group/AliceO2/Detectors/ITSMFT/ITS Pages: 1 -->
<!--zoomable 375 -->
<svg id="main" version="1.1" xmlns="http://www.w3.org/2000/svg" xmlns:xlink="http://www.w3.org/1999/xlink" xml:space="preserve" onload="init(evt)">
<style type="text/css"><![CDATA[
.edge:hover path { stroke: red; }
.edge:hover polygon { stroke: red; fill: red; }
]]></style>
<script type="text/javascript"><![CDATA[
var edges = document.getElementsByTagName('g');
if (edges && edges.length) {
  for (var i=0;i<edges.length;i++) {
    if (edges[i].id.substr(0,4)=='edge') {
      edges[i].setAttribute('class','edge');
    }
  }
}
]]></script>
        <defs>
                <circle id="rim" cx="0" cy="0" r="7"/>
                <circle id="rim2" cx="0" cy="0" r="3.5"/>
                <g id="zoomPlus">
                        <use xlink:href="#rim" fill="#404040">
                                <set attributeName="fill" to="#808080" begin="zoomplus.mouseover" end="zoomplus.mouseout"/>
                        </use>
                        <path d="M-4,0h8M0,-4v8" fill="none" stroke="white" stroke-width="1.5" pointer-events="none"/>
                </g>
                <g id="zoomMin">
                        <use xlink:href="#rim" fill="#404040">
                                <set attributeName="fill" to="#808080" begin="zoomminus.mouseover" end="zoomminus.mouseout"/>
                        </use>
                        <path d="M-4,0h8" fill="none" stroke="white" stroke-width="1.5" pointer-events="none"/>
                </g>
                <g id="dirArrow">
                        <path fill="none" stroke="white" stroke-width="1.5" d="M0,-3.0v7 M-2.5,-0.5L0,-3.0L2.5,-0.5"/>
                </g>
               <g id="resetDef">
                       <use xlink:href="#rim2" fill="#404040">
                               <set attributeName="fill" to="#808080" begin="reset.mouseover" end="reset.mouseout"/>
                       </use>
               </g>
        </defs>

<script type="text/javascript">
var viewWidth = 598;
var viewHeight = 375;
var sectionId = 'dynsection-0';
</script>
<script xlink:href="svgpan.js"/>
<svg id="graph" class="graph">
<g id="viewport">
<title>/home/travis/build/AliceO2Group/AliceO2/Detectors/ITSMFT/ITS</title>
<g id="clust1" class="cluster"><title>clusterdir_1306292b77b40360479b729ac9ee7efe</title>
<g id="a_clust1"><a xlink:href="dir_1306292b77b40360479b729ac9ee7efe.html" target="_top" xlink:title="ITSMFT">
<polygon fill="#ddddee" stroke="black" points="8,-200 8,-359 342,-359 342,-200 8,-200"/>
<text text-anchor="middle" x="175" y="-347" font-family="Helvetica,sans-Serif" font-size="10.00">ITSMFT</text>
</a>
</g>
</g>
<g id="clust2" class="cluster"><title>clusterdir_871aad07cbf94d6cd423c3d8d5bdf4e9</title>
<g id="a_clust2"><a xlink:href="dir_871aad07cbf94d6cd423c3d8d5bdf4e9.html" target="_top">
<polygon fill="#eeeeff" stroke="black" points="16,-208 16,-332 334,-332 334,-208 16,-208"/>
</a>
</g>
</g>
<!-- dir_871aad07cbf94d6cd423c3d8d5bdf4e9 -->
<g id="node1" class="node"><title>dir_871aad07cbf94d6cd423c3d8d5bdf4e9</title>
<text text-anchor="middle" x="299" y="-303.5" font-family="Helvetica,sans-Serif" font-size="10.00">ITS</text>
</g>
<!-- dir_eedff867f3c4e67d20b227cb6e0f96ab -->
<g id="node2" class="node"><title>dir_eedff867f3c4e67d20b227cb6e0f96ab</title>
<g id="a_node2"><a xlink:href="dir_eedff867f3c4e67d20b227cb6e0f96ab.html" target="_top" xlink:title="base">
<polygon fill="white" stroke="red" points="218,-252 164,-252 164,-216 218,-216 218,-252"/>
<text text-anchor="middle" x="191" y="-231.5" font-family="Helvetica,sans-Serif" font-size="10.00">base</text>
</a>
</g>
</g>
<!-- dir_4ab6b4cc6a7edbff49100e9123df213f -->
<g id="node6" class="node"><title>dir_4ab6b4cc6a7edbff49100e9123df213f</title>
<g id="a_node6"><a xlink:href="dir_4ab6b4cc6a7edbff49100e9123df213f.html" target="_top" xlink:title="Common">
<polygon fill="none" stroke="red" points="443.5,-180 388.5,-180 388.5,-144 443.5,-144 443.5,-180"/>
<text text-anchor="middle" x="416" y="-159.5" font-family="Helvetica,sans-Serif" font-size="10.00">Common</text>
</a>
</g>
</g>
<!-- dir_eedff867f3c4e67d20b227cb6e0f96ab&#45;&gt;dir_4ab6b4cc6a7edbff49100e9123df213f -->
<g id="edge1" class="edge"><title>dir_eedff867f3c4e67d20b227cb6e0f96ab&#45;&gt;dir_4ab6b4cc6a7edbff49100e9123df213f</title>
<path fill="none" stroke="black" d="M218.043,-220.538C233.127,-213.884 252.375,-205.879 270,-200 306.279,-187.899 348.759,-177.548 378.513,-170.898"/>
<polygon fill="black" stroke="black" points="379.463,-174.272 388.475,-168.703 377.956,-167.436 379.463,-174.272"/>
<g id="a_edge1&#45;headlabel"><a xlink:href="dir_000198_000016.html" target="_top" xlink:title="2">
<text text-anchor="middle" x="376.563" y="-175.318" font-family="Helvetica,sans-Serif" font-size="10.00">2</text>
</a>
</g>
</g>
<!-- dir_37c90836491b695b472bf98d1be8336b -->
<g id="node8" class="node"><title>dir_37c90836491b695b472bf98d1be8336b</title>
<g id="a_node8"><a xlink:href="dir_37c90836491b695b472bf98d1be8336b.html" target="_top" xlink:title="Base">
<polygon fill="none" stroke="red" points="378,-36 324,-36 324,-0 378,-0 378,-36"/>
<text text-anchor="middle" x="351" y="-15.5" font-family="Helvetica,sans-Serif" font-size="10.00">Base</text>
</a>
</g>
</g>
<!-- dir_eedff867f3c4e67d20b227cb6e0f96ab&#45;&gt;dir_37c90836491b695b472bf98d1be8336b -->
<g id="edge2" class="edge"><title>dir_eedff867f3c4e67d20b227cb6e0f96ab&#45;&gt;dir_37c90836491b695b472bf98d1be8336b</title>
<path fill="none" stroke="black" d="M190.775,-215.794C191.253,-196.982 194.199,-166.519 207,-144 232.831,-98.5587 281.575,-61.621 315.143,-39.9831"/>
<polygon fill="black" stroke="black" points="317.161,-42.8489 323.752,-34.5537 313.426,-36.9281 317.161,-42.8489"/>
<g id="a_edge2&#45;headlabel"><a xlink:href="dir_000198_000122.html" target="_top" xlink:title="2">
<text text-anchor="middle" x="315.635" y="-44.668" font-family="Helvetica,sans-Serif" font-size="10.00">2</text>
</a>
</g>
</g>
<!-- dir_85bf31a2e8d306e7598ffcb73f8df6bf -->
<g id="node9" class="node"><title>dir_85bf31a2e8d306e7598ffcb73f8df6bf</title>
<g id="a_node9"><a xlink:href="dir_85bf31a2e8d306e7598ffcb73f8df6bf.html" target="_top" xlink:title="common">
<polygon fill="none" stroke="red" points="404,-252 350,-252 350,-216 404,-216 404,-252"/>
<text text-anchor="middle" x="377" y="-231.5" font-family="Helvetica,sans-Serif" font-size="10.00">common</text>
</a>
</g>
</g>
<!-- dir_eedff867f3c4e67d20b227cb6e0f96ab&#45;&gt;dir_85bf31a2e8d306e7598ffcb73f8df6bf -->
<g id="edge3" class="edge"><title>dir_eedff867f3c4e67d20b227cb6e0f96ab&#45;&gt;dir_85bf31a2e8d306e7598ffcb73f8df6bf</title>
<path fill="none" stroke="black" d="M218.246,-234C258.731,-234 299.215,-234 339.7,-234"/>
<polygon fill="black" stroke="black" points="339.714,-237.5 349.714,-234 339.714,-230.5 339.714,-237.5"/>
<g id="a_edge3&#45;headlabel"><a xlink:href="dir_000198_000164.html" target="_top" xlink:title="2">
<text text-anchor="middle" x="336.12" y="-237.839" font-family="Helvetica,sans-Serif" font-size="10.00">2</text>
</a>
</g>
</g>
<!-- dir_2171f7ec022c5423887b07c69b2f5b48 -->
<g id="node10" class="node"><title>dir_2171f7ec022c5423887b07c69b2f5b48</title>
<g id="a_node10"><a xlink:href="dir_2171f7ec022c5423887b07c69b2f5b48.html" target="_top" xlink:title="DataFormats">
<polygon fill="none" stroke="red" points="388,-108 314,-108 314,-72 388,-72 388,-108"/>
<text text-anchor="middle" x="351" y="-87.5" font-family="Helvetica,sans-Serif" font-size="10.00">DataFormats</text>
</a>
</g>
</g>
<!-- dir_eedff867f3c4e67d20b227cb6e0f96ab&#45;&gt;dir_2171f7ec022c5423887b07c69b2f5b48 -->
<g id="edge4" class="edge"><title>dir_eedff867f3c4e67d20b227cb6e0f96ab&#45;&gt;dir_2171f7ec022c5423887b07c69b2f5b48</title>
<path fill="none" stroke="black" d="M195.874,-215.838C202.225,-196.211 215.062,-164.192 236,-144 255.038,-125.64 281.582,-112.831 304.372,-104.411"/>
<polygon fill="black" stroke="black" points="305.604,-107.688 313.876,-101.067 303.281,-101.084 305.604,-107.688"/>
<g id="a_edge4&#45;headlabel"><a xlink:href="dir_000198_000043.html" target="_top" xlink:title="1">
<text text-anchor="middle" x="303.155" y="-109.059" font-family="Helvetica,sans-Serif" font-size="10.00">1</text>
</a>
</g>
</g>
<!-- dir_d1915fc52ae3a2d414030e7b83b60b4d -->
<g id="node3" class="node"><title>dir_d1915fc52ae3a2d414030e7b83b60b4d</title>
<g id="a_node3"><a xlink:href="dir_d1915fc52ae3a2d414030e7b83b60b4d.html" target="_top" xlink:title="macros">
<polygon fill="white" stroke="red" points="254,-324 200,-324 200,-288 254,-288 254,-324"/>
<text text-anchor="middle" x="227" y="-303.5" font-family="Helvetica,sans-Serif" font-size="10.00">macros</text>
</a>
</g>
</g>
<!-- dir_d1915fc52ae3a2d414030e7b83b60b4d&#45;&gt;dir_eedff867f3c4e67d20b227cb6e0f96ab -->
<g id="edge23" class="edge"><title>dir_d1915fc52ae3a2d414030e7b83b60b4d&#45;&gt;dir_eedff867f3c4e67d20b227cb6e0f96ab</title>
<path fill="none" stroke="black" d="M218.101,-287.697C214.003,-279.728 209.051,-270.1 204.507,-261.264"/>
<polygon fill="black" stroke="black" points="207.483,-259.396 199.797,-252.104 201.258,-262.598 207.483,-259.396"/>
<g id="a_edge23&#45;headlabel"><a xlink:href="dir_000210_000198.html" target="_top" xlink:title="5">
<text text-anchor="middle" x="211.651" y="-258.795" font-family="Helvetica,sans-Serif" font-size="10.00">5</text>
</a>
</g>
</g>
<!-- dir_d1915fc52ae3a2d414030e7b83b60b4d&#45;&gt;dir_4ab6b4cc6a7edbff49100e9123df213f -->
<g id="edge24" class="edge"><title>dir_d1915fc52ae3a2d414030e7b83b60b4d&#45;&gt;dir_4ab6b4cc6a7edbff49100e9123df213f</title>
<path fill="none" stroke="black" d="M254.231,-291.289C257.152,-290.076 260.111,-288.95 263,-288 341.744,-262.105 393.346,-316.021 446,-252 460.68,-234.15 453.721,-221.783 446,-200 444.57,-195.966 442.493,-192.051 440.087,-188.372"/>
<polygon fill="black" stroke="black" points="442.822,-186.185 434.032,-180.27 437.215,-190.375 442.822,-186.185"/>
<g id="a_edge24&#45;headlabel"><a xlink:href="dir_000210_000016.html" target="_top" xlink:title="7">
<text text-anchor="middle" x="447.248" y="-184.864" font-family="Helvetica,sans-Serif" font-size="10.00">7</text>
</a>
</g>
</g>
<!-- dir_a597e8e061b11201a1dff411feb10d0b -->
<g id="node7" class="node"><title>dir_a597e8e061b11201a1dff411feb10d0b</title>
<g id="a_node7"><a xlink:href="dir_a597e8e061b11201a1dff411feb10d0b.html" target="_top" xlink:title="TPC">
<polygon fill="none" stroke="red" points="590,-252 536,-252 536,-216 590,-216 590,-252"/>
<text text-anchor="middle" x="563" y="-231.5" font-family="Helvetica,sans-Serif" font-size="10.00">TPC</text>
</a>
</g>
</g>
<!-- dir_d1915fc52ae3a2d414030e7b83b60b4d&#45;&gt;dir_a597e8e061b11201a1dff411feb10d0b -->
<g id="edge25" class="edge"><title>dir_d1915fc52ae3a2d414030e7b83b60b4d&#45;&gt;dir_a597e8e061b11201a1dff411feb10d0b</title>
<path fill="none" stroke="black" d="M254.179,-291.121C257.109,-289.941 260.085,-288.869 263,-288 374.377,-254.807 409.857,-282.504 522,-252 523.441,-251.608 524.898,-251.178 526.361,-250.718"/>
<polygon fill="black" stroke="black" points="527.72,-253.951 535.992,-247.331 525.397,-247.347 527.72,-253.951"/>
<g id="a_edge25&#45;headlabel"><a xlink:href="dir_000210_000147.html" target="_top" xlink:title="1">
<text text-anchor="middle" x="525.271" y="-255.322" font-family="Helvetica,sans-Serif" font-size="10.00">1</text>
</a>
</g>
</g>
<!-- dir_d1915fc52ae3a2d414030e7b83b60b4d&#45;&gt;dir_85bf31a2e8d306e7598ffcb73f8df6bf -->
<g id="edge26" class="edge"><title>dir_d1915fc52ae3a2d414030e7b83b60b4d&#45;&gt;dir_85bf31a2e8d306e7598ffcb73f8df6bf</title>
<path fill="none" stroke="black" d="M254.119,-292.173C257.114,-290.762 260.121,-289.349 263,-288 288.94,-275.845 318.247,-262.223 340.65,-251.832"/>
<polygon fill="black" stroke="black" points="342.199,-254.972 349.799,-247.591 339.254,-248.621 342.199,-254.972"/>
<g id="a_edge26&#45;headlabel"><a xlink:href="dir_000210_000164.html" target="_top" xlink:title="10">
<text text-anchor="middle" x="340.132" y="-256.56" font-family="Helvetica,sans-Serif" font-size="10.00">10</text>
</a>
</g>
</g>
<!-- dir_d1915fc52ae3a2d414030e7b83b60b4d&#45;&gt;dir_2171f7ec022c5423887b07c69b2f5b48 -->
<g id="edge27" class="edge"><title>dir_d1915fc52ae3a2d414030e7b83b60b4d&#45;&gt;dir_2171f7ec022c5423887b07c69b2f5b48</title>
<path fill="none" stroke="black" d="M254.215,-291.238C257.138,-290.035 260.103,-288.925 263,-288 349.451,-260.383 405.758,-321.601 464,-252 494.994,-214.962 481.201,-182.467 452,-144 438.418,-126.108 417.041,-113.666 397.444,-105.357"/>
<polygon fill="black" stroke="black" points="398.595,-102.048 388.009,-101.604 396.008,-108.552 398.595,-102.048"/>
<g id="a_edge27&#45;headlabel"><a xlink:href="dir_000210_000043.html" target="_top" xlink:title="17">
<text text-anchor="middle" x="402.984" y="-98.238" font-family="Helvetica,sans-Serif" font-size="10.00">17</text>
</a>
</g>
</g>
<!-- dir_5125ceb2b58f632ed0a3019fe2d5cbbc -->
<g id="node4" class="node"><title>dir_5125ceb2b58f632ed0a3019fe2d5cbbc</title>
<g id="a_node4"><a xlink:href="dir_5125ceb2b58f632ed0a3019fe2d5cbbc.html" target="_top" xlink:title="reconstruction">
<polygon fill="white" stroke="red" points="102,-324 24,-324 24,-288 102,-288 102,-324"/>
<text text-anchor="middle" x="63" y="-303.5" font-family="Helvetica,sans-Serif" font-size="10.00">reconstruction</text>
</a>
</g>
</g>
<!-- dir_5125ceb2b58f632ed0a3019fe2d5cbbc&#45;&gt;dir_eedff867f3c4e67d20b227cb6e0f96ab -->
<g id="edge18" class="edge"><title>dir_5125ceb2b58f632ed0a3019fe2d5cbbc&#45;&gt;dir_eedff867f3c4e67d20b227cb6e0f96ab</title>
<path fill="none" stroke="black" d="M94.3123,-287.876C112.63,-277.858 135.832,-265.17 154.915,-254.734"/>
<polygon fill="black" stroke="black" points="156.819,-257.682 163.913,-249.813 153.46,-251.54 156.819,-257.682"/>
<g id="a_edge18&#45;headlabel"><a xlink:href="dir_000213_000198.html" target="_top" xlink:title="5">
<text text-anchor="middle" x="155.027" y="-259.398" font-family="Helvetica,sans-Serif" font-size="10.00">5</text>
</a>
</g>
</g>
<!-- dir_5125ceb2b58f632ed0a3019fe2d5cbbc&#45;&gt;dir_4ab6b4cc6a7edbff49100e9123df213f -->
<g id="edge19" class="edge"><title>dir_5125ceb2b58f632ed0a3019fe2d5cbbc&#45;&gt;dir_4ab6b4cc6a7edbff49100e9123df213f</title>
<path fill="none" stroke="black" d="M102.184,-290.751C105.156,-289.784 108.119,-288.856 111,-288 176.308,-268.602 197.354,-278.774 260,-252 299.338,-235.188 303.759,-221.052 341,-200 353.187,-193.111 366.834,-186.162 379.111,-180.176"/>
<polygon fill="black" stroke="black" points="380.697,-183.297 388.186,-175.803 377.658,-176.991 380.697,-183.297"/>
<g id="a_edge19&#45;headlabel"><a xlink:href="dir_000213_000016.html" target="_top" xlink:title="14">
<text text-anchor="middle" x="378.691" y="-184.916" font-family="Helvetica,sans-Serif" font-size="10.00">14</text>
</a>
</g>
</g>
<!-- dir_5125ceb2b58f632ed0a3019fe2d5cbbc&#45;&gt;dir_37c90836491b695b472bf98d1be8336b -->
<g id="edge20" class="edge"><title>dir_5125ceb2b58f632ed0a3019fe2d5cbbc&#45;&gt;dir_37c90836491b695b472bf98d1be8336b</title>
<path fill="none" stroke="black" d="M67.9007,-287.858C81.0079,-245.05 120.934,-132.561 194,-72 228.625,-43.3008 279.508,-29.8885 313.88,-23.795"/>
<polygon fill="black" stroke="black" points="314.684,-27.2099 323.982,-22.1301 313.545,-20.3031 314.684,-27.2099"/>
<g id="a_edge20&#45;headlabel"><a xlink:href="dir_000213_000122.html" target="_top" xlink:title="1">
<text text-anchor="middle" x="311.599" y="-28.0959" font-family="Helvetica,sans-Serif" font-size="10.00">1</text>
</a>
</g>
</g>
<!-- dir_5125ceb2b58f632ed0a3019fe2d5cbbc&#45;&gt;dir_85bf31a2e8d306e7598ffcb73f8df6bf -->
<g id="edge21" class="edge"><title>dir_5125ceb2b58f632ed0a3019fe2d5cbbc&#45;&gt;dir_85bf31a2e8d306e7598ffcb73f8df6bf</title>
<path fill="none" stroke="black" d="M102.113,-290.49C105.101,-289.584 108.087,-288.74 111,-288 210.004,-262.843 239.947,-280.639 338,-252 338.718,-251.79 339.44,-251.571 340.165,-251.342"/>
<polygon fill="black" stroke="black" points="341.386,-254.622 349.625,-247.961 339.03,-248.031 341.386,-254.622"/>
<g id="a_edge21&#45;headlabel"><a xlink:href="dir_000213_000164.html" target="_top" xlink:title="7">
<text text-anchor="middle" x="338.957" y="-256.006" font-family="Helvetica,sans-Serif" font-size="10.00">7</text>
</a>
</g>
</g>
<!-- dir_5125ceb2b58f632ed0a3019fe2d5cbbc&#45;&gt;dir_2171f7ec022c5423887b07c69b2f5b48 -->
<g id="edge22" class="edge"><title>dir_5125ceb2b58f632ed0a3019fe2d5cbbc&#45;&gt;dir_2171f7ec022c5423887b07c69b2f5b48</title>
<path fill="none" stroke="black" d="M102.249,-290.957C105.206,-289.943 108.147,-288.947 111,-288 162.23,-270.986 184.128,-284.802 227,-252 248.739,-235.367 243.861,-222.108 260,-200 281.91,-169.986 309.569,-137.525 328.61,-115.906"/>
<polygon fill="black" stroke="black" points="331.445,-117.985 335.456,-108.179 326.205,-113.343 331.445,-117.985"/>
<g id="a_edge22&#45;headlabel"><a xlink:href="dir_000213_000043.html" target="_top" xlink:title="21">
<text text-anchor="middle" x="331.186" y="-120.058" font-family="Helvetica,sans-Serif" font-size="10.00">21</text>
</a>
</g>
</g>
<!-- dir_e6f6998399f381fa585023934f76a907 -->
<g id="node5" class="node"><title>dir_e6f6998399f381fa585023934f76a907</title>
<g id="a_node5"><a xlink:href="dir_e6f6998399f381fa585023934f76a907.html" target="_top" xlink:title="simulation">
<polygon fill="white" stroke="red" points="181.25,-324 120.75,-324 120.75,-288 181.25,-288 181.25,-324"/>
<text text-anchor="middle" x="151" y="-303.5" font-family="Helvetica,sans-Serif" font-size="10.00">simulation</text>
</a>
</g>
</g>
<!-- dir_e6f6998399f381fa585023934f76a907&#45;&gt;dir_eedff867f3c4e67d20b227cb6e0f96ab -->
<g id="edge13" class="edge"><title>dir_e6f6998399f381fa585023934f76a907&#45;&gt;dir_eedff867f3c4e67d20b227cb6e0f96ab</title>
<path fill="none" stroke="black" d="M160.888,-287.697C165.489,-279.644 171.06,-269.894 176.153,-260.982"/>
<polygon fill="black" stroke="black" points="179.304,-262.523 181.226,-252.104 173.226,-259.05 179.304,-262.523"/>
<g id="a_edge13&#45;headlabel"><a xlink:href="dir_000133_000198.html" target="_top" xlink:title="5">
<text text-anchor="middle" x="179.985" y="-264.553" font-family="Helvetica,sans-Serif" font-size="10.00">5</text>
</a>
</g>
</g>
<!-- dir_e6f6998399f381fa585023934f76a907&#45;&gt;dir_4ab6b4cc6a7edbff49100e9123df213f -->
<g id="edge14" class="edge"><title>dir_e6f6998399f381fa585023934f76a907&#45;&gt;dir_4ab6b4cc6a7edbff49100e9123df213f</title>
<path fill="none" stroke="black" d="M181.299,-291.23C184.536,-290.029 187.81,-288.922 191,-288 239.013,-274.125 379.975,-289.512 413,-252 427.635,-235.377 426.83,-209.489 423.283,-189.91"/>
<polygon fill="black" stroke="black" points="426.69,-189.104 421.178,-180.056 419.844,-190.566 426.69,-189.104"/>
<g id="a_edge14&#45;headlabel"><a xlink:href="dir_000133_000016.html" target="_top" xlink:title="1">
<text text-anchor="middle" x="430.217" y="-189.526" font-family="Helvetica,sans-Serif" font-size="10.00">1</text>
</a>
</g>
</g>
<!-- dir_e6f6998399f381fa585023934f76a907&#45;&gt;dir_37c90836491b695b472bf98d1be8336b -->
<g id="edge15" class="edge"><title>dir_e6f6998399f381fa585023934f76a907&#45;&gt;dir_37c90836491b695b472bf98d1be8336b</title>
<path fill="none" stroke="black" d="M149.082,-287.847C147.295,-266.7 146.085,-229.894 155,-200 173.973,-136.38 182.269,-115.981 232,-72 255.631,-51.1016 288.838,-37.2424 314.172,-28.9557"/>
<polygon fill="black" stroke="black" points="315.301,-32.2696 323.803,-25.9469 313.214,-25.5881 315.301,-32.2696"/>
<g id="a_edge15&#45;headlabel"><a xlink:href="dir_000133_000122.html" target="_top" xlink:title="1">
<text text-anchor="middle" x="312.717" y="-33.5515" font-family="Helvetica,sans-Serif" font-size="10.00">1</text>
</a>
</g>
</g>
<!-- dir_e6f6998399f381fa585023934f76a907&#45;&gt;dir_85bf31a2e8d306e7598ffcb73f8df6bf -->
<g id="edge16" class="edge"><title>dir_e6f6998399f381fa585023934f76a907&#45;&gt;dir_85bf31a2e8d306e7598ffcb73f8df6bf</title>
<path fill="none" stroke="black" d="M181.38,-291.489C184.6,-290.237 187.85,-289.048 191,-288 254.828,-266.776 274.271,-273.517 338,-252 338.857,-251.711 339.722,-251.41 340.591,-251.1"/>
<polygon fill="black" stroke="black" points="341.884,-254.353 349.958,-247.493 339.368,-247.82 341.884,-254.353"/>
<g id="a_edge16&#45;headlabel"><a xlink:href="dir_000133_000164.html" target="_top" xlink:title="8">
<text text-anchor="middle" x="339.549" y="-255.794" font-family="Helvetica,sans-Serif" font-size="10.00">8</text>
</a>
</g>
</g>
<!-- dir_e6f6998399f381fa585023934f76a907&#45;&gt;dir_2171f7ec022c5423887b07c69b2f5b48 -->
<g id="edge17" class="edge"><title>dir_e6f6998399f381fa585023934f76a907&#45;&gt;dir_2171f7ec022c5423887b07c69b2f5b48</title>
<path fill="none" stroke="black" d="M181.507,-291.297C211.531,-277.632 253.771,-257.855 260,-252 300.882,-213.572 328.354,-152.587 341.673,-117.746"/>
<polygon fill="black" stroke="black" points="345.003,-118.833 345.203,-108.24 338.441,-116.396 345.003,-118.833"/>
<g id="a_edge17&#45;headlabel"><a xlink:href="dir_000133_000043.html" target="_top" xlink:title="3">
<text text-anchor="middle" x="346.414" y="-120.691" font-family="Helvetica,sans-Serif" font-size="10.00">3</text>
</a>
</g>
</g>
<!-- dir_4ab6b4cc6a7edbff49100e9123df213f&#45;&gt;dir_2171f7ec022c5423887b07c69b2f5b48 -->
<g id="edge5" class="edge"><title>dir_4ab6b4cc6a7edbff49100e9123df213f&#45;&gt;dir_2171f7ec022c5423887b07c69b2f5b48</title>
<path fill="none" stroke="black" d="M394.017,-143.697C385.359,-135.305 375.664,-125.07 367.594,-115.861"/>
<polygon fill="black" stroke="black" points="370.136,-113.448 360.988,-108.104 364.807,-117.987 370.136,-113.448"/>
<g id="a_edge5&#45;headlabel"><a xlink:href="dir_000016_000043.html" target="_top" xlink:title="1">
<text text-anchor="middle" x="374.628" y="-111.844" font-family="Helvetica,sans-Serif" font-size="10.00">1</text>
</a>
</g>
</g>
<!-- dir_a597e8e061b11201a1dff411feb10d0b&#45;&gt;dir_4ab6b4cc6a7edbff49100e9123df213f -->
<g id="edge6" class="edge"><title>dir_a597e8e061b11201a1dff411feb10d0b&#45;&gt;dir_4ab6b4cc6a7edbff49100e9123df213f</title>
<path fill="none" stroke="black" d="M535.695,-219.998C512.327,-208.87 478.483,-192.754 452.741,-180.496"/>
<polygon fill="black" stroke="black" points="454.191,-177.31 443.658,-176.17 451.181,-183.63 454.191,-177.31"/>
<g id="a_edge6&#45;headlabel"><a xlink:href="dir_000147_000016.html" target="_top" xlink:title="4">
<text text-anchor="middle" x="458.657" y="-173.792" font-family="Helvetica,sans-Serif" font-size="10.00">4</text>
</a>
</g>
</g>
<!-- dir_a597e8e061b11201a1dff411feb10d0b&#45;&gt;dir_37c90836491b695b472bf98d1be8336b -->
<g id="edge7" class="edge"><title>dir_a597e8e061b11201a1dff411feb10d0b&#45;&gt;dir_37c90836491b695b472bf98d1be8336b</title>
<path fill="none" stroke="black" d="M564.077,-215.769C564.424,-196.658 562.389,-165.669 548,-144 509.277,-85.6847 433.058,-49.138 387.615,-31.5449"/>
<polygon fill="black" stroke="black" points="388.728,-28.2241 378.136,-27.9772 386.262,-34.7754 388.728,-28.2241"/>
<g id="a_edge7&#45;headlabel"><a xlink:href="dir_000147_000122.html" target="_top" xlink:title="1">
<text text-anchor="middle" x="393.092" y="-24.3329" font-family="Helvetica,sans-Serif" font-size="10.00">1</text>
</a>
</g>
</g>
<!-- dir_a597e8e061b11201a1dff411feb10d0b&#45;&gt;dir_2171f7ec022c5423887b07c69b2f5b48 -->
<g id="edge8" class="edge"><title>dir_a597e8e061b11201a1dff411feb10d0b&#45;&gt;dir_2171f7ec022c5423887b07c69b2f5b48</title>
<path fill="none" stroke="black" d="M559.503,-215.717C554.562,-195.669 543.618,-162.954 522,-144 487.501,-113.752 435.928,-100.765 398.445,-95.1906"/>
<polygon fill="black" stroke="black" points="398.652,-91.6867 388.272,-93.8066 397.709,-98.6228 398.652,-91.6867"/>
<g id="a_edge8&#45;headlabel"><a xlink:href="dir_000147_000043.html" target="_top" xlink:title="73">
<text text-anchor="middle" x="402.597" y="-86.8578" font-family="Helvetica,sans-Serif" font-size="10.00">73</text>
</a>
</g>
</g>
<!-- dir_37c90836491b695b472bf98d1be8336b&#45;&gt;dir_4ab6b4cc6a7edbff49100e9123df213f -->
<g id="edge9" class="edge"><title>dir_37c90836491b695b472bf98d1be8336b&#45;&gt;dir_4ab6b4cc6a7edbff49100e9123df213f</title>
<path fill="none" stroke="black" d="M370.164,-36.4281C379.609,-46.0375 390.367,-58.6979 397,-72 406.666,-91.3839 411.428,-115.531 413.767,-133.78"/>
<polygon fill="black" stroke="black" points="410.293,-134.213 414.882,-143.763 417.25,-133.436 410.293,-134.213"/>
<g id="a_edge9&#45;headlabel"><a xlink:href="dir_000122_000016.html" target="_top" xlink:title="5">
<text text-anchor="middle" x="407.072" y="-128.456" font-family="Helvetica,sans-Serif" font-size="10.00">5</text>
</a>
</g>
</g>
<!-- dir_37c90836491b695b472bf98d1be8336b&#45;&gt;dir_2171f7ec022c5423887b07c69b2f5b48 -->
<g id="edge10" class="edge"><title>dir_37c90836491b695b472bf98d1be8336b&#45;&gt;dir_2171f7ec022c5423887b07c69b2f5b48</title>
<path fill="none" stroke="black" d="M356.895,-36.1043C357.701,-43.7913 357.937,-53.0537 357.604,-61.6651"/>
<polygon fill="black" stroke="black" points="354.109,-61.4805 356.916,-71.6966 361.092,-61.9597 354.109,-61.4805"/>
<g id="a_edge10&#45;headlabel"><a xlink:href="dir_000122_000043.html" target="_top" xlink:title="5">
<text text-anchor="middle" x="351.522" y="-55.2" font-family="Helvetica,sans-Serif" font-size="10.00">5</text>
</a>
</g>
</g>
<!-- dir_85bf31a2e8d306e7598ffcb73f8df6bf&#45;&gt;dir_4ab6b4cc6a7edbff49100e9123df213f -->
<g id="edge11" class="edge"><title>dir_85bf31a2e8d306e7598ffcb73f8df6bf&#45;&gt;dir_4ab6b4cc6a7edbff49100e9123df213f</title>
<path fill="none" stroke="black" d="M386.64,-215.697C391.127,-207.644 396.559,-197.894 401.524,-188.982"/>
<polygon fill="black" stroke="black" points="404.661,-190.544 406.47,-180.104 398.546,-187.137 404.661,-190.544"/>
<g id="a_edge11&#45;headlabel"><a xlink:href="dir_000164_000016.html" target="_top" xlink:title="2">
<text text-anchor="middle" x="405.392" y="-192.565" font-family="Helvetica,sans-Serif" font-size="10.00">2</text>
</a>
</g>
</g>
<!-- dir_85bf31a2e8d306e7598ffcb73f8df6bf&#45;&gt;dir_2171f7ec022c5423887b07c69b2f5b48 -->
<g id="edge12" class="edge"><title>dir_85bf31a2e8d306e7598ffcb73f8df6bf&#45;&gt;dir_2171f7ec022c5423887b07c69b2f5b48</title>
<path fill="none" stroke="black" d="M373.864,-215.871C369.433,-191.67 361.292,-147.211 356.016,-118.393"/>
<polygon fill="black" stroke="black" points="359.391,-117.395 354.147,-108.189 352.506,-118.656 359.391,-117.395"/>
<g id="a_edge12&#45;headlabel"><a xlink:href="dir_000164_000043.html" target="_top" xlink:title="17">
<text text-anchor="middle" x="362.831" y="-117.92" font-family="Helvetica,sans-Serif" font-size="10.00">17</text>
</a>
</g>
</g>
<!-- dir_2171f7ec022c5423887b07c69b2f5b48&#45;&gt;dir_4ab6b4cc6a7edbff49100e9123df213f -->
<g id="edge28" class="edge"><title>dir_2171f7ec022c5423887b07c69b2f5b48&#45;&gt;dir_4ab6b4cc6a7edbff49100e9123df213f</title>
<path fill="none" stroke="black" d="M372.778,-108.104C381.419,-116.467 391.119,-126.694 399.214,-135.92"/>
<polygon fill="black" stroke="black" points="396.696,-138.36 405.848,-143.697 402.021,-133.817 396.696,-138.36"/>
<g id="a_edge28&#45;headlabel"><a xlink:href="dir_000043_000016.html" target="_top" xlink:title="15">
<text text-anchor="middle" x="392.203" y="-134.968" font-family="Helvetica,sans-Serif" font-size="10.00">15</text>
</a>
</g>
</g>
<!-- dir_2171f7ec022c5423887b07c69b2f5b48&#45;&gt;dir_37c90836491b695b472bf98d1be8336b -->
<g id="edge29" class="edge"><title>dir_2171f7ec022c5423887b07c69b2f5b48&#45;&gt;dir_37c90836491b695b472bf98d1be8336b</title>
<path fill="none" stroke="black" d="M345.084,-71.6966C344.289,-63.9827 344.062,-54.7125 344.405,-46.1124"/>
<polygon fill="black" stroke="black" points="347.898,-46.3243 345.105,-36.1043 340.915,-45.8356 347.898,-46.3243"/>
<g id="a_edge29&#45;headlabel"><a xlink:href="dir_000043_000122.html" target="_top" xlink:title="1">
<text text-anchor="middle" x="350.48" y="-47.6083" font-family="Helvetica,sans-Serif" font-size="10.00">1</text>
</a>
</g>
</g>
</g>
</svg>
        <g id="navigator" transform="translate(0 0)" fill="#404254">
                <rect fill="#f2f5e9" fill-opacity="0.5" stroke="#606060" stroke-width=".5" x="0" y="0" width="60" height="60"/>
                <use id="zoomplus" xlink:href="#zoomPlus" x="17" y="9" onmousedown="handleZoom(evt,'in')"/>
                <use id="zoomminus" xlink:href="#zoomMin" x="42" y="9" onmousedown="handleZoom(evt,'out')"/>
                <use id="reset" xlink:href="#resetDef" x="30" y="36" onmousedown="handleReset()"/>
                <g id="arrowUp" xlink:href="#dirArrow" transform="translate(30 24)" onmousedown="handlePan(0,-1)">
                  <use xlink:href="#rim" fill="#404040">
                        <set attributeName="fill" to="#808080" begin="arrowUp.mouseover" end="arrowUp.mouseout"/>
                  </use>
                  <path fill="none" stroke="white" stroke-width="1.5" d="M0,-3.0v7 M-2.5,-0.5L0,-3.0L2.5,-0.5"/>
                </g>
                <g id="arrowRight" xlink:href="#dirArrow" transform="rotate(90) translate(36 -43)" onmousedown="handlePan(1,0)">
                  <use xlink:href="#rim" fill="#404040">
                        <set attributeName="fill" to="#808080" begin="arrowRight.mouseover" end="arrowRight.mouseout"/>
                  </use>
                  <path fill="none" stroke="white" stroke-width="1.5" d="M0,-3.0v7 M-2.5,-0.5L0,-3.0L2.5,-0.5"/>
                </g>
                <g id="arrowDown" xlink:href="#dirArrow" transform="rotate(180) translate(-30 -48)" onmousedown="handlePan(0,1)">
                  <use xlink:href="#rim" fill="#404040">
                        <set attributeName="fill" to="#808080" begin="arrowDown.mouseover" end="arrowDown.mouseout"/>
                  </use>
                  <path fill="none" stroke="white" stroke-width="1.5" d="M0,-3.0v7 M-2.5,-0.5L0,-3.0L2.5,-0.5"/>
                </g>
                <g id="arrowLeft" xlink:href="#dirArrow" transform="rotate(270) translate(-36 17)" onmousedown="handlePan(-1,0)">
                  <use xlink:href="#rim" fill="#404040">
                        <set attributeName="fill" to="#808080" begin="arrowLeft.mouseover" end="arrowLeft.mouseout"/>
                  </use>
                  <path fill="none" stroke="white" stroke-width="1.5" d="M0,-3.0v7 M-2.5,-0.5L0,-3.0L2.5,-0.5"/>
                </g>
        </g>
        <svg viewBox="0 0 15 15" width="100%" height="30px" preserveAspectRatio="xMaxYMin meet">
         <g id="arrow_out" transform="scale(0.3 0.3)">
          <a xlink:href="dir_871aad07cbf94d6cd423c3d8d5bdf4e9_dep_org.svg" target="_base">
           <rect id="button" ry="5" rx="5" y="6" x="6" height="38" width="38"
                fill="#f2f5e9" fill-opacity="0.5" stroke="#606060" stroke-width="1.0"/>
           <path id="arrow"
             d="M 11.500037,31.436501 C 11.940474,20.09759 22.043105,11.32322 32.158766,21.979434 L 37.068811,17.246167 C 37.068811,17.246167 37.088388,32 37.088388,32 L 22.160133,31.978069 C 22.160133,31.978069 26.997745,27.140456 26.997745,27.140456 C 18.528582,18.264221 13.291696,25.230495 11.500037,31.436501 z"
             style="fill:#404040;"/>
          </a>
         </g>
        </svg>
</svg>
