<?xml version="1.0" encoding="UTF-8" standalone="no"?>
<!DOCTYPE svg PUBLIC "-//W3C//DTD SVG 1.1//EN"
 "http://www.w3.org/Graphics/SVG/1.1/DTD/svg11.dtd">
<!-- Generated by graphviz version 2.36.0 (20140111.2315)
 -->
<!-- Title: /home/travis/build/AliceO2Group/AliceO2/Detectors/ITSMFT/MFT/base/src Pages: 1 -->
<svg width="185pt" height="295pt"
 viewBox="0.00 0.00 185.30 295.00" xmlns="http://www.w3.org/2000/svg" xmlns:xlink="http://www.w3.org/1999/xlink">
<g id="graph0" class="graph" transform="scale(1 1) rotate(0) translate(4 291)">
<title>/home/travis/build/AliceO2Group/AliceO2/Detectors/ITSMFT/MFT/base/src</title>
<g id="clust1" class="cluster"><title>clusterdir_7e732ae97f4f941436b6909b27d4da36</title>
<g id="a_clust1"><a xlink:href="dir_7e732ae97f4f941436b6909b27d4da36.html" target="_top" xlink:title="base">
<polygon fill="#ddddee" stroke="black" points="32.3016,-208 32.3016,-279 102.302,-279 102.302,-208 32.3016,-208"/>
<text text-anchor="middle" x="67.3016" y="-267" font-family="Helvetica,sans-Serif" font-size="10.00">base</text>
</a>
</g>
</g>
<!-- dir_a39be7dbb5064f10e7f9feb561d713d1 -->
<g id="node1" class="node"><title>dir_a39be7dbb5064f10e7f9feb561d713d1</title>
<g id="a_node1"><a xlink:href="dir_a39be7dbb5064f10e7f9feb561d713d1.html" target="_top" xlink:title="src">
<polygon fill="#eeeeff" stroke="black" points="94.3016,-252 40.3016,-252 40.3016,-216 94.3016,-216 94.3016,-252"/>
<text text-anchor="middle" x="67.3016" y="-231.5" font-family="Helvetica,sans-Serif" font-size="10.00">src</text>
</a>
</g>
</g>
<!-- dir_4ab6b4cc6a7edbff49100e9123df213f -->
<g id="node2" class="node"><title>dir_4ab6b4cc6a7edbff49100e9123df213f</title>
<g id="a_node2"><a xlink:href="dir_4ab6b4cc6a7edbff49100e9123df213f.html" target="_top" xlink:title="Common">
<polygon fill="none" stroke="red" points="94.8016,-36 39.8016,-36 39.8016,-0 94.8016,-0 94.8016,-36"/>
<text text-anchor="middle" x="67.3016" y="-15.5" font-family="Helvetica,sans-Serif" font-size="10.00">Common</text>
</a>
</g>
</g>
<!-- dir_a39be7dbb5064f10e7f9feb561d713d1&#45;&gt;dir_4ab6b4cc6a7edbff49100e9123df213f -->
<g id="edge2" class="edge"><title>dir_a39be7dbb5064f10e7f9feb561d713d1&#45;&gt;dir_4ab6b4cc6a7edbff49100e9123df213f</title>
<path fill="none" stroke="black" d="M55.3259,-215.803C39.9665,-192.595 14.1386,-149.375 4.30156,-108 0.600646,-92.4339 -2.4511,-86.5052 4.30156,-72 10.1661,-59.4025 20.6621,-48.7296 31.4262,-40.3362"/>
<polygon fill="black" stroke="black" points="33.6062,-43.0785 39.6375,-34.3679 29.4906,-37.4162 33.6062,-43.0785"/>
<g id="a_edge2&#45;headlabel"><a xlink:href="dir_000188_000016.html" target="_top" xlink:title="1">
<text text-anchor="middle" x="32.3679" y="-44.9886" font-family="Helvetica,sans-Serif" font-size="10.00">1</text>
</a>
</g>
</g>
<!-- dir_37c90836491b695b472bf98d1be8336b -->
<g id="node3" class="node"><title>dir_37c90836491b695b472bf98d1be8336b</title>
<g id="a_node3"><a xlink:href="dir_37c90836491b695b472bf98d1be8336b.html" target="_top" xlink:title="Base">
<polygon fill="none" stroke="red" points="67.3016,-108 13.3016,-108 13.3016,-72 67.3016,-72 67.3016,-108"/>
<text text-anchor="middle" x="40.3016" y="-87.5" font-family="Helvetica,sans-Serif" font-size="10.00">Base</text>
</a>
</g>
</g>
<!-- dir_a39be7dbb5064f10e7f9feb561d713d1&#45;&gt;dir_37c90836491b695b472bf98d1be8336b -->
<g id="edge3" class="edge"><title>dir_a39be7dbb5064f10e7f9feb561d713d1&#45;&gt;dir_37c90836491b695b472bf98d1be8336b</title>
<path fill="none" stroke="black" d="M64.0447,-215.871C59.4431,-191.67 50.9895,-147.211 45.5101,-118.393"/>
<polygon fill="black" stroke="black" points="48.8764,-117.359 43.5699,-108.189 41.9996,-118.667 48.8764,-117.359"/>
<g id="a_edge3&#45;headlabel"><a xlink:href="dir_000188_000122.html" target="_top" xlink:title="1">
<text text-anchor="middle" x="52.337" y="-117.86" font-family="Helvetica,sans-Serif" font-size="10.00">1</text>
</a>
</g>
</g>
<!-- dir_85bf31a2e8d306e7598ffcb73f8df6bf -->
<g id="node4" class="node"><title>dir_85bf31a2e8d306e7598ffcb73f8df6bf</title>
<g id="a_node4"><a xlink:href="dir_85bf31a2e8d306e7598ffcb73f8df6bf.html" target="_top" xlink:title="common">
<polygon fill="none" stroke="red" points="177.302,-108 123.302,-108 123.302,-72 177.302,-72 177.302,-108"/>
<text text-anchor="middle" x="150.302" y="-87.5" font-family="Helvetica,sans-Serif" font-size="10.00">common</text>
</a>
</g>
</g>
<!-- dir_a39be7dbb5064f10e7f9feb561d713d1&#45;&gt;dir_85bf31a2e8d306e7598ffcb73f8df6bf -->
<g id="edge4" class="edge"><title>dir_a39be7dbb5064f10e7f9feb561d713d1&#45;&gt;dir_85bf31a2e8d306e7598ffcb73f8df6bf</title>
<path fill="none" stroke="black" d="M94.3775,-216.784C107.464,-207.586 122.256,-194.93 131.302,-180 142.594,-161.362 147.234,-136.972 149.111,-118.438"/>
<polygon fill="black" stroke="black" points="152.614,-118.539 149.927,-108.291 145.637,-117.978 152.614,-118.539"/>
<g id="a_edge4&#45;headlabel"><a xlink:href="dir_000188_000164.html" target="_top" xlink:title="6">
<text text-anchor="middle" x="155.156" y="-119.849" font-family="Helvetica,sans-Serif" font-size="10.00">6</text>
</a>
</g>
</g>
<!-- dir_f22caf943fb99f64e502dc27cedd1b22 -->
<g id="node5" class="node"><title>dir_f22caf943fb99f64e502dc27cedd1b22</title>
<g id="a_node5"><a xlink:href="dir_f22caf943fb99f64e502dc27cedd1b22.html" target="_top" xlink:title="include">
<polygon fill="none" stroke="red" points="122.302,-180 68.3016,-180 68.3016,-144 122.302,-144 122.302,-180"/>
<text text-anchor="middle" x="95.3016" y="-159.5" font-family="Helvetica,sans-Serif" font-size="10.00">include</text>
</a>
</g>
</g>
<!-- dir_a39be7dbb5064f10e7f9feb561d713d1&#45;&gt;dir_f22caf943fb99f64e502dc27cedd1b22 -->
<g id="edge5" class="edge"><title>dir_a39be7dbb5064f10e7f9feb561d713d1&#45;&gt;dir_f22caf943fb99f64e502dc27cedd1b22</title>
<path fill="none" stroke="black" d="M74.2229,-215.697C77.3763,-207.813 81.1799,-198.304 84.683,-189.546"/>
<polygon fill="black" stroke="black" points="87.9955,-190.689 88.4598,-180.104 81.4962,-188.089 87.9955,-190.689"/>
<g id="a_edge5&#45;headlabel"><a xlink:href="dir_000188_000080.html" target="_top" xlink:title="64">
<text text-anchor="middle" x="89.2968" y="-192.581" font-family="Helvetica,sans-Serif" font-size="10.00">64</text>
</a>
</g>
</g>
<!-- dir_37c90836491b695b472bf98d1be8336b&#45;&gt;dir_4ab6b4cc6a7edbff49100e9123df213f -->
<g id="edge1" class="edge"><title>dir_37c90836491b695b472bf98d1be8336b&#45;&gt;dir_4ab6b4cc6a7edbff49100e9123df213f</title>
<path fill="none" stroke="black" d="M46.9757,-71.6966C50.0165,-63.8132 53.6842,-54.3042 57.0622,-45.5464"/>
<polygon fill="black" stroke="black" points="60.3709,-46.6939 60.7042,-36.1043 53.8399,-44.1748 60.3709,-46.6939"/>
<g id="a_edge1&#45;headlabel"><a xlink:href="dir_000122_000016.html" target="_top" xlink:title="5">
<text text-anchor="middle" x="61.7264" y="-48.5695" font-family="Helvetica,sans-Serif" font-size="10.00">5</text>
</a>
</g>
</g>
<!-- dir_85bf31a2e8d306e7598ffcb73f8df6bf&#45;&gt;dir_4ab6b4cc6a7edbff49100e9123df213f -->
<g id="edge6" class="edge"><title>dir_85bf31a2e8d306e7598ffcb73f8df6bf&#45;&gt;dir_4ab6b4cc6a7edbff49100e9123df213f</title>
<path fill="none" stroke="black" d="M129.785,-71.6966C119.432,-62.9655 106.715,-52.2405 95.4626,-42.7503"/>
<polygon fill="black" stroke="black" points="97.4832,-39.8759 87.5824,-36.1043 92.9703,-45.2269 97.4832,-39.8759"/>
<g id="a_edge6&#45;headlabel"><a xlink:href="dir_000164_000016.html" target="_top" xlink:title="2">
<text text-anchor="middle" x="102.062" y="-37.5229" font-family="Helvetica,sans-Serif" font-size="10.00">2</text>
</a>
</g>
</g>
<!-- dir_f22caf943fb99f64e502dc27cedd1b22&#45;&gt;dir_4ab6b4cc6a7edbff49100e9123df213f -->
<g id="edge7" class="edge"><title>dir_f22caf943fb99f64e502dc27cedd1b22&#45;&gt;dir_4ab6b4cc6a7edbff49100e9123df213f</title>
<path fill="none" stroke="black" d="M91.9241,-143.871C87.131,-119.564 78.3081,-74.8187 72.6281,-46.0132"/>
<polygon fill="black" stroke="black" points="76.0595,-45.3232 70.691,-36.1893 69.1918,-46.6775 76.0595,-45.3232"/>
<g id="a_edge7&#45;headlabel"><a xlink:href="dir_000080_000016.html" target="_top" xlink:title="1">
<text text-anchor="middle" x="79.5405" y="-45.8007" font-family="Helvetica,sans-Serif" font-size="10.00">1</text>
</a>
</g>
</g>
<!-- dir_f22caf943fb99f64e502dc27cedd1b22&#45;&gt;dir_37c90836491b695b472bf98d1be8336b -->
<g id="edge8" class="edge"><title>dir_f22caf943fb99f64e502dc27cedd1b22&#45;&gt;dir_37c90836491b695b472bf98d1be8336b</title>
<path fill="none" stroke="black" d="M81.7061,-143.697C75.1789,-135.389 67.2335,-125.277 60.055,-116.141"/>
<polygon fill="black" stroke="black" points="62.6711,-113.805 53.7407,-108.104 57.1668,-118.13 62.6711,-113.805"/>
<g id="a_edge8&#45;headlabel"><a xlink:href="dir_000080_000122.html" target="_top" xlink:title="1">
<text text-anchor="middle" x="67.1244" y="-112.377" font-family="Helvetica,sans-Serif" font-size="10.00">1</text>
</a>
</g>
</g>
<!-- dir_f22caf943fb99f64e502dc27cedd1b22&#45;&gt;dir_85bf31a2e8d306e7598ffcb73f8df6bf -->
<g id="edge9" class="edge"><title>dir_f22caf943fb99f64e502dc27cedd1b22&#45;&gt;dir_85bf31a2e8d306e7598ffcb73f8df6bf</title>
<path fill="none" stroke="black" d="M108.897,-143.697C115.424,-135.389 123.37,-125.277 130.548,-116.141"/>
<polygon fill="black" stroke="black" points="133.436,-118.13 136.862,-108.104 127.932,-113.805 133.436,-118.13"/>
<g id="a_edge9&#45;headlabel"><a xlink:href="dir_000080_000164.html" target="_top" xlink:title="1">
<text text-anchor="middle" x="133.448" y="-120.211" font-family="Helvetica,sans-Serif" font-size="10.00">1</text>
</a>
</g>
</g>
</g>
</svg>
