<?xml version="1.0" encoding="UTF-8" standalone="no"?>
<!DOCTYPE svg PUBLIC "-//W3C//DTD SVG 1.1//EN"
 "http://www.w3.org/Graphics/SVG/1.1/DTD/svg11.dtd">
<!-- Generated by graphviz version 2.36.0 (20140111.2315)
 -->
<!-- Title: /home/travis/build/AliceO2Group/AliceO2/Detectors Pages: 1 -->
<!--zoomable 348 -->
<svg id="main" version="1.1" xmlns="http://www.w3.org/2000/svg" xmlns:xlink="http://www.w3.org/1999/xlink" xml:space="preserve" onload="init(evt)">
<style type="text/css"><![CDATA[
.edge:hover path { stroke: red; }
.edge:hover polygon { stroke: red; fill: red; }
]]></style>
<script type="text/javascript"><![CDATA[
var edges = document.getElementsByTagName('g');
if (edges && edges.length) {
  for (var i=0;i<edges.length;i++) {
    if (edges[i].id.substr(0,4)=='edge') {
      edges[i].setAttribute('class','edge');
    }
  }
}
]]></script>
        <defs>
                <circle id="rim" cx="0" cy="0" r="7"/>
                <circle id="rim2" cx="0" cy="0" r="3.5"/>
                <g id="zoomPlus">
                        <use xlink:href="#rim" fill="#404040">
                                <set attributeName="fill" to="#808080" begin="zoomplus.mouseover" end="zoomplus.mouseout"/>
                        </use>
                        <path d="M-4,0h8M0,-4v8" fill="none" stroke="white" stroke-width="1.5" pointer-events="none"/>
                </g>
                <g id="zoomMin">
                        <use xlink:href="#rim" fill="#404040">
                                <set attributeName="fill" to="#808080" begin="zoomminus.mouseover" end="zoomminus.mouseout"/>
                        </use>
                        <path d="M-4,0h8" fill="none" stroke="white" stroke-width="1.5" pointer-events="none"/>
                </g>
                <g id="dirArrow">
                        <path fill="none" stroke="white" stroke-width="1.5" d="M0,-3.0v7 M-2.5,-0.5L0,-3.0L2.5,-0.5"/>
                </g>
               <g id="resetDef">
                       <use xlink:href="#rim2" fill="#404040">
                               <set attributeName="fill" to="#808080" begin="reset.mouseover" end="reset.mouseout"/>
                       </use>
               </g>
        </defs>

<script type="text/javascript">
var viewWidth = 893;
var viewHeight = 348;
var sectionId = 'dynsection-0';
</script>
<script xlink:href="svgpan.js"/>
<svg id="graph" class="graph">
<g id="viewport">
<title>/home/travis/build/AliceO2Group/AliceO2/Detectors</title>
<g id="clust1" class="cluster"><title>clusterdir_051dca18e802f8e9474f2e30d29c04e0</title>
<g id="a_clust1"><a xlink:href="dir_051dca18e802f8e9474f2e30d29c04e0.html" target="_top">
<polygon fill="#eeeeff" stroke="black" points="245.155,-64 245.155,-332 631.155,-332 631.155,-64 245.155,-64"/>
</a>
</g>
</g>
<!-- dir_051dca18e802f8e9474f2e30d29c04e0 -->
<g id="node1" class="node"><title>dir_051dca18e802f8e9474f2e30d29c04e0</title>
<text text-anchor="middle" x="593.155" y="-303.5" font-family="Helvetica,sans-Serif" font-size="10.00">Detectors</text>
</g>
<!-- dir_37c90836491b695b472bf98d1be8336b -->
<g id="node2" class="node"><title>dir_37c90836491b695b472bf98d1be8336b</title>
<g id="a_node2"><a xlink:href="dir_37c90836491b695b472bf98d1be8336b.html" target="_top" xlink:title="Base">
<polygon fill="white" stroke="red" points="578.155,-108 524.155,-108 524.155,-72 578.155,-72 578.155,-108"/>
<text text-anchor="middle" x="551.155" y="-87.5" font-family="Helvetica,sans-Serif" font-size="10.00">Base</text>
</a>
</g>
</g>
<!-- dir_4ab6b4cc6a7edbff49100e9123df213f -->
<g id="node15" class="node"><title>dir_4ab6b4cc6a7edbff49100e9123df213f</title>
<g id="a_node15"><a xlink:href="dir_4ab6b4cc6a7edbff49100e9123df213f.html" target="_top" xlink:title="Common">
<polygon fill="none" stroke="red" points="236.655,-108 181.655,-108 181.655,-72 236.655,-72 236.655,-108"/>
<text text-anchor="middle" x="209.155" y="-87.5" font-family="Helvetica,sans-Serif" font-size="10.00">Common</text>
</a>
</g>
</g>
<!-- dir_37c90836491b695b472bf98d1be8336b&#45;&gt;dir_4ab6b4cc6a7edbff49100e9123df213f -->
<g id="edge17" class="edge"><title>dir_37c90836491b695b472bf98d1be8336b&#45;&gt;dir_4ab6b4cc6a7edbff49100e9123df213f</title>
<path fill="none" stroke="black" d="M524.147,-90C431.756,-90 339.366,-90 246.975,-90"/>
<polygon fill="black" stroke="black" points="246.876,-86.5001 236.876,-90 246.876,-93.5001 246.876,-86.5001"/>
<g id="a_edge17&#45;headlabel"><a xlink:href="dir_000122_000016.html" target="_top" xlink:title="5">
<text text-anchor="middle" x="250.47" y="-81.1607" font-family="Helvetica,sans-Serif" font-size="10.00">5</text>
</a>
</g>
</g>
<!-- dir_2171f7ec022c5423887b07c69b2f5b48 -->
<g id="node17" class="node"><title>dir_2171f7ec022c5423887b07c69b2f5b48</title>
<g id="a_node17"><a xlink:href="dir_2171f7ec022c5423887b07c69b2f5b48.html" target="_top" xlink:title="DataFormats">
<polygon fill="none" stroke="red" points="638.155,-36 564.155,-36 564.155,-0 638.155,-0 638.155,-36"/>
<text text-anchor="middle" x="601.155" y="-15.5" font-family="Helvetica,sans-Serif" font-size="10.00">DataFormats</text>
</a>
</g>
</g>
<!-- dir_37c90836491b695b472bf98d1be8336b&#45;&gt;dir_2171f7ec022c5423887b07c69b2f5b48 -->
<g id="edge18" class="edge"><title>dir_37c90836491b695b472bf98d1be8336b&#45;&gt;dir_2171f7ec022c5423887b07c69b2f5b48</title>
<path fill="none" stroke="black" d="M557.599,-71.6966C562.676,-63.3893 569.702,-53.2771 576.691,-44.1407"/>
<polygon fill="black" stroke="black" points="579.588,-46.1201 583.043,-36.1043 574.096,-41.7797 579.588,-46.1201"/>
<g id="a_edge18&#45;headlabel"><a xlink:href="dir_000122_000043.html" target="_top" xlink:title="5">
<text text-anchor="middle" x="579.587" y="-48.2008" font-family="Helvetica,sans-Serif" font-size="10.00">5</text>
</a>
</g>
</g>
<!-- dir_088378b58cb1ba39db48039cbd66d10f -->
<g id="node3" class="node"><title>dir_088378b58cb1ba39db48039cbd66d10f</title>
<g id="a_node3"><a xlink:href="dir_088378b58cb1ba39db48039cbd66d10f.html" target="_top" xlink:title="EMCAL">
<polygon fill="white" stroke="red" points="340.155,-252 286.155,-252 286.155,-216 340.155,-216 340.155,-252"/>
<text text-anchor="middle" x="313.155" y="-231.5" font-family="Helvetica,sans-Serif" font-size="10.00">EMCAL</text>
</a>
</g>
</g>
<!-- dir_088378b58cb1ba39db48039cbd66d10f&#45;&gt;dir_37c90836491b695b472bf98d1be8336b -->
<g id="edge6" class="edge"><title>dir_088378b58cb1ba39db48039cbd66d10f&#45;&gt;dir_37c90836491b695b472bf98d1be8336b</title>
<path fill="none" stroke="black" d="M340.386,-219.289C343.307,-218.076 346.266,-216.95 349.155,-216 427.899,-190.105 473.072,-238.14 532.155,-180 540.807,-171.486 545.918,-141.126 548.622,-118.214"/>
<polygon fill="black" stroke="black" points="552.13,-118.324 549.73,-108.005 545.171,-117.569 552.13,-118.324"/>
<g id="a_edge6&#45;headlabel"><a xlink:href="dir_000073_000122.html" target="_top" xlink:title="1">
<text text-anchor="middle" x="554.565" y="-119.704" font-family="Helvetica,sans-Serif" font-size="10.00">1</text>
</a>
</g>
</g>
<!-- dir_f01815b857f9009bea48e2cb39492245 -->
<g id="node9" class="node"><title>dir_f01815b857f9009bea48e2cb39492245</title>
<g id="a_node9"><a xlink:href="dir_f01815b857f9009bea48e2cb39492245.html" target="_top" xlink:title="Passive">
<polygon fill="white" stroke="red" points="379.155,-180 325.155,-180 325.155,-144 379.155,-144 379.155,-180"/>
<text text-anchor="middle" x="352.155" y="-159.5" font-family="Helvetica,sans-Serif" font-size="10.00">Passive</text>
</a>
</g>
</g>
<!-- dir_088378b58cb1ba39db48039cbd66d10f&#45;&gt;dir_f01815b857f9009bea48e2cb39492245 -->
<g id="edge7" class="edge"><title>dir_088378b58cb1ba39db48039cbd66d10f&#45;&gt;dir_f01815b857f9009bea48e2cb39492245</title>
<path fill="none" stroke="black" d="M322.795,-215.697C327.282,-207.644 332.714,-197.894 337.679,-188.982"/>
<polygon fill="black" stroke="black" points="340.816,-190.544 342.625,-180.104 334.701,-187.137 340.816,-190.544"/>
<g id="a_edge7&#45;headlabel"><a xlink:href="dir_000073_000241.html" target="_top" xlink:title="5">
<text text-anchor="middle" x="341.547" y="-192.565" font-family="Helvetica,sans-Serif" font-size="10.00">5</text>
</a>
</g>
</g>
<!-- dir_a597e8e061b11201a1dff411feb10d0b -->
<g id="node12" class="node"><title>dir_a597e8e061b11201a1dff411feb10d0b</title>
<g id="a_node12"><a xlink:href="dir_a597e8e061b11201a1dff411feb10d0b.html" target="_top" xlink:title="TPC">
<polygon fill="white" stroke="red" points="307.155,-180 253.155,-180 253.155,-144 307.155,-144 307.155,-180"/>
<text text-anchor="middle" x="280.155" y="-159.5" font-family="Helvetica,sans-Serif" font-size="10.00">TPC</text>
</a>
</g>
</g>
<!-- dir_088378b58cb1ba39db48039cbd66d10f&#45;&gt;dir_a597e8e061b11201a1dff411feb10d0b -->
<g id="edge5" class="edge"><title>dir_088378b58cb1ba39db48039cbd66d10f&#45;&gt;dir_a597e8e061b11201a1dff411feb10d0b</title>
<path fill="none" stroke="black" d="M304.998,-215.697C301.241,-207.728 296.702,-198.1 292.537,-189.264"/>
<polygon fill="black" stroke="black" points="295.649,-187.657 288.219,-180.104 289.317,-190.642 295.649,-187.657"/>
<g id="a_edge5&#45;headlabel"><a xlink:href="dir_000073_000147.html" target="_top" xlink:title="1">
<text text-anchor="middle" x="299.75" y="-187.198" font-family="Helvetica,sans-Serif" font-size="10.00">1</text>
</a>
</g>
</g>
<!-- dir_0b342c6c6b7d2278121a0bb9c4985063 -->
<g id="node14" class="node"><title>dir_0b342c6c6b7d2278121a0bb9c4985063</title>
<g id="a_node14"><a xlink:href="dir_0b342c6c6b7d2278121a0bb9c4985063.html" target="_top" xlink:title="Generators">
<polygon fill="none" stroke="red" points="82.405,-180 17.905,-180 17.905,-144 82.405,-144 82.405,-180"/>
<text text-anchor="middle" x="50.155" y="-159.5" font-family="Helvetica,sans-Serif" font-size="10.00">Generators</text>
</a>
</g>
</g>
<!-- dir_088378b58cb1ba39db48039cbd66d10f&#45;&gt;dir_0b342c6c6b7d2278121a0bb9c4985063 -->
<g id="edge3" class="edge"><title>dir_088378b58cb1ba39db48039cbd66d10f&#45;&gt;dir_0b342c6c6b7d2278121a0bb9c4985063</title>
<path fill="none" stroke="black" d="M285.965,-227.304C244.771,-218.455 164.233,-200.298 97.155,-180 95.5278,-179.508 93.8742,-178.991 92.208,-178.457"/>
<polygon fill="black" stroke="black" points="93.2146,-175.103 82.6208,-175.25 90.9942,-181.741 93.2146,-175.103"/>
<g id="a_edge3&#45;headlabel"><a xlink:href="dir_000073_000322.html" target="_top" xlink:title="1">
<text text-anchor="middle" x="97.5242" y="-171.05" font-family="Helvetica,sans-Serif" font-size="10.00">1</text>
</a>
</g>
</g>
<!-- dir_088378b58cb1ba39db48039cbd66d10f&#45;&gt;dir_4ab6b4cc6a7edbff49100e9123df213f -->
<g id="edge4" class="edge"><title>dir_088378b58cb1ba39db48039cbd66d10f&#45;&gt;dir_4ab6b4cc6a7edbff49100e9123df213f</title>
<path fill="none" stroke="black" d="M285.985,-228.911C240.777,-221.492 153.272,-204.298 135.155,-180 125.591,-167.173 127.843,-158.231 135.155,-144 143.169,-128.403 158.14,-116.369 172.53,-107.74"/>
<polygon fill="black" stroke="black" points="174.331,-110.743 181.348,-102.805 170.912,-104.634 174.331,-110.743"/>
<g id="a_edge4&#45;headlabel"><a xlink:href="dir_000073_000016.html" target="_top" xlink:title="4">
<text text-anchor="middle" x="172.58" y="-112.476" font-family="Helvetica,sans-Serif" font-size="10.00">4</text>
</a>
</g>
</g>
<!-- dir_088378b58cb1ba39db48039cbd66d10f&#45;&gt;dir_2171f7ec022c5423887b07c69b2f5b48 -->
<g id="edge8" class="edge"><title>dir_088378b58cb1ba39db48039cbd66d10f&#45;&gt;dir_2171f7ec022c5423887b07c69b2f5b48</title>
<path fill="none" stroke="black" d="M340.375,-219.254C343.298,-218.048 346.261,-216.933 349.155,-216 433.035,-188.958 471.792,-230.306 544.155,-180 587.476,-149.884 598.113,-83.8522 600.572,-46.3813"/>
<polygon fill="black" stroke="black" points="604.078,-46.3449 601.084,-36.1817 597.087,-45.9934 604.078,-46.3449"/>
<g id="a_edge8&#45;headlabel"><a xlink:href="dir_000073_000043.html" target="_top" xlink:title="4">
<text text-anchor="middle" x="606.733" y="-47.5775" font-family="Helvetica,sans-Serif" font-size="10.00">4</text>
</a>
</g>
</g>
<!-- dir_d14e88a79bca429480864605ee348cef -->
<g id="node4" class="node"><title>dir_d14e88a79bca429480864605ee348cef</title>
<g id="a_node4"><a xlink:href="dir_d14e88a79bca429480864605ee348cef.html" target="_top" xlink:title="FIT">
<polygon fill="white" stroke="red" points="451.155,-180 397.155,-180 397.155,-144 451.155,-144 451.155,-180"/>
<text text-anchor="middle" x="424.155" y="-159.5" font-family="Helvetica,sans-Serif" font-size="10.00">FIT</text>
</a>
</g>
</g>
<!-- dir_d14e88a79bca429480864605ee348cef&#45;&gt;dir_37c90836491b695b472bf98d1be8336b -->
<g id="edge11" class="edge"><title>dir_d14e88a79bca429480864605ee348cef&#45;&gt;dir_37c90836491b695b472bf98d1be8336b</title>
<path fill="none" stroke="black" d="M451.4,-145.983C469.982,-135.741 494.793,-122.066 515.022,-110.916"/>
<polygon fill="black" stroke="black" points="516.887,-113.884 523.955,-105.992 513.508,-107.754 516.887,-113.884"/>
<g id="a_edge11&#45;headlabel"><a xlink:href="dir_000128_000122.html" target="_top" xlink:title="1">
<text text-anchor="middle" x="515.11" y="-115.606" font-family="Helvetica,sans-Serif" font-size="10.00">1</text>
</a>
</g>
</g>
<!-- dir_d14e88a79bca429480864605ee348cef&#45;&gt;dir_2171f7ec022c5423887b07c69b2f5b48 -->
<g id="edge12" class="edge"><title>dir_d14e88a79bca429480864605ee348cef&#45;&gt;dir_2171f7ec022c5423887b07c69b2f5b48</title>
<path fill="none" stroke="black" d="M432.985,-143.724C444.644,-122.419 467.024,-86.2964 495.155,-64 512.512,-50.2427 534.698,-39.9651 554.282,-32.7319"/>
<polygon fill="black" stroke="black" points="555.682,-35.9496 563.95,-29.3243 553.355,-29.3477 555.682,-35.9496"/>
<g id="a_edge12&#45;headlabel"><a xlink:href="dir_000128_000043.html" target="_top" xlink:title="1">
<text text-anchor="middle" x="553.235" y="-37.3223" font-family="Helvetica,sans-Serif" font-size="10.00">1</text>
</a>
</g>
</g>
<!-- dir_fda58d415f46ed5554e220ec8997f6b0 -->
<g id="node5" class="node"><title>dir_fda58d415f46ed5554e220ec8997f6b0</title>
<g id="a_node5"><a xlink:href="dir_fda58d415f46ed5554e220ec8997f6b0.html" target="_top" xlink:title="gconfig">
<polygon fill="white" stroke="black" points="545.155,-324 491.155,-324 491.155,-288 545.155,-288 545.155,-324"/>
<text text-anchor="middle" x="518.155" y="-303.5" font-family="Helvetica,sans-Serif" font-size="10.00">gconfig</text>
</a>
</g>
</g>
<!-- dir_18e0e8b4b629c3c13e7ad1457bcd5f89 -->
<g id="node6" class="node"><title>dir_18e0e8b4b629c3c13e7ad1457bcd5f89</title>
<g id="a_node6"><a xlink:href="dir_18e0e8b4b629c3c13e7ad1457bcd5f89.html" target="_top" xlink:title="GlobalTracking">
<polygon fill="white" stroke="red" points="401.155,-324 319.155,-324 319.155,-288 401.155,-288 401.155,-324"/>
<text text-anchor="middle" x="360.155" y="-303.5" font-family="Helvetica,sans-Serif" font-size="10.00">GlobalTracking</text>
</a>
</g>
</g>
<!-- dir_18e0e8b4b629c3c13e7ad1457bcd5f89&#45;&gt;dir_37c90836491b695b472bf98d1be8336b -->
<g id="edge30" class="edge"><title>dir_18e0e8b4b629c3c13e7ad1457bcd5f89&#45;&gt;dir_37c90836491b695b472bf98d1be8336b</title>
<path fill="none" stroke="black" d="M401.216,-290.529C404.227,-289.625 407.229,-288.771 410.155,-288 493.268,-266.113 545.329,-318.189 600.155,-252 609.871,-240.27 604.326,-169.291 594.155,-144 590.11,-133.941 583.463,-124.302 576.591,-116.068"/>
<polygon fill="black" stroke="black" points="578.987,-113.495 569.732,-108.338 573.751,-118.141 578.987,-113.495"/>
<g id="a_edge30&#45;headlabel"><a xlink:href="dir_000194_000122.html" target="_top" xlink:title="2">
<text text-anchor="middle" x="583.497" y="-111.799" font-family="Helvetica,sans-Serif" font-size="10.00">2</text>
</a>
</g>
</g>
<!-- dir_1306292b77b40360479b729ac9ee7efe -->
<g id="node7" class="node"><title>dir_1306292b77b40360479b729ac9ee7efe</title>
<g id="a_node7"><a xlink:href="dir_1306292b77b40360479b729ac9ee7efe.html" target="_top" xlink:title="ITSMFT">
<polygon fill="white" stroke="red" points="412.155,-252 358.155,-252 358.155,-216 412.155,-216 412.155,-252"/>
<text text-anchor="middle" x="385.155" y="-231.5" font-family="Helvetica,sans-Serif" font-size="10.00">ITSMFT</text>
</a>
</g>
</g>
<!-- dir_18e0e8b4b629c3c13e7ad1457bcd5f89&#45;&gt;dir_1306292b77b40360479b729ac9ee7efe -->
<g id="edge31" class="edge"><title>dir_18e0e8b4b629c3c13e7ad1457bcd5f89&#45;&gt;dir_1306292b77b40360479b729ac9ee7efe</title>
<path fill="none" stroke="black" d="M366.335,-287.697C369.15,-279.813 372.546,-270.304 375.674,-261.546"/>
<polygon fill="black" stroke="black" points="378.979,-262.699 379.046,-252.104 372.387,-260.345 378.979,-262.699"/>
<g id="a_edge31&#45;headlabel"><a xlink:href="dir_000194_000077.html" target="_top" xlink:title="1">
<text text-anchor="middle" x="380.444" y="-264.539" font-family="Helvetica,sans-Serif" font-size="10.00">1</text>
</a>
</g>
</g>
<!-- dir_18e0e8b4b629c3c13e7ad1457bcd5f89&#45;&gt;dir_a597e8e061b11201a1dff411feb10d0b -->
<g id="edge29" class="edge"><title>dir_18e0e8b4b629c3c13e7ad1457bcd5f89&#45;&gt;dir_a597e8e061b11201a1dff411feb10d0b</title>
<path fill="none" stroke="black" d="M318.777,-289.04C302.787,-280.598 286.192,-268.493 277.155,-252 266.86,-233.212 268.59,-208.686 272.342,-190.139"/>
<polygon fill="black" stroke="black" points="275.783,-190.795 274.641,-180.262 268.965,-189.209 275.783,-190.795"/>
<g id="a_edge29&#45;headlabel"><a xlink:href="dir_000194_000147.html" target="_top" xlink:title="3">
<text text-anchor="middle" x="277.734" y="-192.44" font-family="Helvetica,sans-Serif" font-size="10.00">3</text>
</a>
</g>
</g>
<!-- dir_18e0e8b4b629c3c13e7ad1457bcd5f89&#45;&gt;dir_4ab6b4cc6a7edbff49100e9123df213f -->
<g id="edge28" class="edge"><title>dir_18e0e8b4b629c3c13e7ad1457bcd5f89&#45;&gt;dir_4ab6b4cc6a7edbff49100e9123df213f</title>
<path fill="none" stroke="black" d="M318.919,-304.553C242.486,-301.22 80.0651,-281.846 8.15505,-180 -34.4525,-119.655 102.283,-99.6835 171.515,-93.5312"/>
<polygon fill="black" stroke="black" points="171.936,-97.0084 181.61,-92.6894 171.354,-90.0326 171.936,-97.0084"/>
<g id="a_edge28&#45;headlabel"><a xlink:href="dir_000194_000016.html" target="_top" xlink:title="8">
<text text-anchor="middle" x="168.589" y="-97.6364" font-family="Helvetica,sans-Serif" font-size="10.00">8</text>
</a>
</g>
</g>
<!-- dir_18e0e8b4b629c3c13e7ad1457bcd5f89&#45;&gt;dir_2171f7ec022c5423887b07c69b2f5b48 -->
<g id="edge32" class="edge"><title>dir_18e0e8b4b629c3c13e7ad1457bcd5f89&#45;&gt;dir_2171f7ec022c5423887b07c69b2f5b48</title>
<path fill="none" stroke="black" d="M401.21,-290.504C404.222,-289.606 407.226,-288.76 410.155,-288 569.378,-246.699 674.541,-317.939 764.155,-180 792.243,-136.765 796.418,-104.997 765.155,-64 750.984,-45.4167 691.624,-32.6086 648.384,-25.5393"/>
<polygon fill="black" stroke="black" points="648.75,-22.0539 638.327,-23.9498 647.657,-28.9681 648.75,-22.0539"/>
<g id="a_edge32&#45;headlabel"><a xlink:href="dir_000194_000043.html" target="_top" xlink:title="10">
<text text-anchor="middle" x="652.744" y="-17.3105" font-family="Helvetica,sans-Serif" font-size="10.00">10</text>
</a>
</g>
</g>
<!-- dir_1306292b77b40360479b729ac9ee7efe&#45;&gt;dir_37c90836491b695b472bf98d1be8336b -->
<g id="edge21" class="edge"><title>dir_1306292b77b40360479b729ac9ee7efe&#45;&gt;dir_37c90836491b695b472bf98d1be8336b</title>
<path fill="none" stroke="black" d="M412.26,-223.216C419.066,-220.811 426.365,-218.274 433.155,-216 483.538,-199.128 514.792,-222.14 547.155,-180 560.509,-162.612 560.301,-137.193 557.455,-117.967"/>
<polygon fill="black" stroke="black" points="560.881,-117.24 555.673,-108.014 553.991,-118.475 560.881,-117.24"/>
<g id="a_edge21&#45;headlabel"><a xlink:href="dir_000077_000122.html" target="_top" xlink:title="7">
<text text-anchor="middle" x="564.309" y="-117.778" font-family="Helvetica,sans-Serif" font-size="10.00">7</text>
</a>
</g>
</g>
<!-- dir_1306292b77b40360479b729ac9ee7efe&#45;&gt;dir_f01815b857f9009bea48e2cb39492245 -->
<g id="edge22" class="edge"><title>dir_1306292b77b40360479b729ac9ee7efe&#45;&gt;dir_f01815b857f9009bea48e2cb39492245</title>
<path fill="none" stroke="black" d="M376.998,-215.697C373.241,-207.728 368.702,-198.1 364.537,-189.264"/>
<polygon fill="black" stroke="black" points="367.649,-187.657 360.219,-180.104 361.317,-190.642 367.649,-187.657"/>
<g id="a_edge22&#45;headlabel"><a xlink:href="dir_000077_000241.html" target="_top" xlink:title="1">
<text text-anchor="middle" x="371.75" y="-187.198" font-family="Helvetica,sans-Serif" font-size="10.00">1</text>
</a>
</g>
</g>
<!-- dir_1306292b77b40360479b729ac9ee7efe&#45;&gt;dir_a597e8e061b11201a1dff411feb10d0b -->
<g id="edge20" class="edge"><title>dir_1306292b77b40360479b729ac9ee7efe&#45;&gt;dir_a597e8e061b11201a1dff411feb10d0b</title>
<path fill="none" stroke="black" d="M359.469,-215.876C345.868,-206.808 328.984,-195.552 314.294,-185.759"/>
<polygon fill="black" stroke="black" points="316.202,-182.825 305.94,-180.19 312.319,-188.649 316.202,-182.825"/>
<g id="a_edge20&#45;headlabel"><a xlink:href="dir_000077_000147.html" target="_top" xlink:title="1">
<text text-anchor="middle" x="320.767" y="-179.956" font-family="Helvetica,sans-Serif" font-size="10.00">1</text>
</a>
</g>
</g>
<!-- dir_1306292b77b40360479b729ac9ee7efe&#45;&gt;dir_4ab6b4cc6a7edbff49100e9123df213f -->
<g id="edge19" class="edge"><title>dir_1306292b77b40360479b729ac9ee7efe&#45;&gt;dir_4ab6b4cc6a7edbff49100e9123df213f</title>
<path fill="none" stroke="black" d="M357.916,-219.311C354.997,-218.094 352.04,-216.961 349.155,-216 273.403,-190.773 223.639,-241.855 173.155,-180 157.916,-161.328 171.378,-135.354 185.98,-116.284"/>
<polygon fill="black" stroke="black" points="188.862,-118.287 192.448,-108.318 183.428,-113.875 188.862,-118.287"/>
<g id="a_edge19&#45;headlabel"><a xlink:href="dir_000077_000016.html" target="_top" xlink:title="36">
<text text-anchor="middle" x="188.801" y="-120.368" font-family="Helvetica,sans-Serif" font-size="10.00">36</text>
</a>
</g>
</g>
<!-- dir_1306292b77b40360479b729ac9ee7efe&#45;&gt;dir_2171f7ec022c5423887b07c69b2f5b48 -->
<g id="edge23" class="edge"><title>dir_1306292b77b40360479b729ac9ee7efe&#45;&gt;dir_2171f7ec022c5423887b07c69b2f5b48</title>
<path fill="none" stroke="black" d="M412.299,-222.396C419.038,-220.039 426.298,-217.73 433.155,-216 483.742,-203.236 631.21,-219.619 665.155,-180 698.699,-140.849 688.916,-109.754 665.155,-64 660.742,-55.5018 653.905,-48.2714 646.315,-42.2551"/>
<polygon fill="black" stroke="black" points="648.03,-39.1783 637.862,-36.2007 643.954,-44.8692 648.03,-39.1783"/>
<g id="a_edge23&#45;headlabel"><a xlink:href="dir_000077_000043.html" target="_top" xlink:title="67">
<text text-anchor="middle" x="652.606" y="-36.4632" font-family="Helvetica,sans-Serif" font-size="10.00">67</text>
</a>
</g>
</g>
<!-- dir_1cc233fd3b1202b9dad36810b41b97af -->
<g id="node8" class="node"><title>dir_1cc233fd3b1202b9dad36810b41b97af</title>
<g id="a_node8"><a xlink:href="dir_1cc233fd3b1202b9dad36810b41b97af.html" target="_top" xlink:title="MUON">
<polygon fill="white" stroke="red" points="473.155,-324 419.155,-324 419.155,-288 473.155,-288 473.155,-324"/>
<text text-anchor="middle" x="446.155" y="-303.5" font-family="Helvetica,sans-Serif" font-size="10.00">MUON</text>
</a>
</g>
</g>
<!-- dir_b05a5fa85f84bfc9013183c9d87f9a36 -->
<g id="node16" class="node"><title>dir_b05a5fa85f84bfc9013183c9d87f9a36</title>
<g id="a_node16"><a xlink:href="dir_b05a5fa85f84bfc9013183c9d87f9a36.html" target="_top" xlink:title="Utilities">
<polygon fill="none" stroke="red" points="885.155,-252 831.155,-252 831.155,-216 885.155,-216 885.155,-252"/>
<text text-anchor="middle" x="858.155" y="-231.5" font-family="Helvetica,sans-Serif" font-size="10.00">Utilities</text>
</a>
</g>
</g>
<!-- dir_1cc233fd3b1202b9dad36810b41b97af&#45;&gt;dir_b05a5fa85f84bfc9013183c9d87f9a36 -->
<g id="edge10" class="edge"><title>dir_1cc233fd3b1202b9dad36810b41b97af&#45;&gt;dir_b05a5fa85f84bfc9013183c9d87f9a36</title>
<path fill="none" stroke="black" d="M473.307,-291.028C476.243,-289.866 479.227,-288.823 482.155,-288 626.31,-247.464 672.066,-289.056 817.155,-252 818.415,-251.678 819.687,-251.325 820.964,-250.946"/>
<polygon fill="black" stroke="black" points="822.392,-254.157 830.734,-247.624 820.139,-247.53 822.392,-254.157"/>
<g id="a_edge10&#45;headlabel"><a xlink:href="dir_000102_000296.html" target="_top" xlink:title="4">
<text text-anchor="middle" x="819.903" y="-255.502" font-family="Helvetica,sans-Serif" font-size="10.00">4</text>
</a>
</g>
</g>
<!-- dir_f01815b857f9009bea48e2cb39492245&#45;&gt;dir_37c90836491b695b472bf98d1be8336b -->
<g id="edge38" class="edge"><title>dir_f01815b857f9009bea48e2cb39492245&#45;&gt;dir_37c90836491b695b472bf98d1be8336b</title>
<path fill="none" stroke="black" d="M379.514,-147.642C382.41,-146.36 385.328,-145.122 388.155,-144 430.641,-127.14 480.828,-111.431 514.177,-101.562"/>
<polygon fill="black" stroke="black" points="515.349,-104.866 523.959,-98.6917 513.378,-98.1488 515.349,-104.866"/>
<g id="a_edge38&#45;headlabel"><a xlink:href="dir_000241_000122.html" target="_top" xlink:title="16">
<text text-anchor="middle" x="512.699" y="-106.102" font-family="Helvetica,sans-Serif" font-size="10.00">16</text>
</a>
</g>
</g>
<!-- dir_f01815b857f9009bea48e2cb39492245&#45;&gt;dir_4ab6b4cc6a7edbff49100e9123df213f -->
<g id="edge37" class="edge"><title>dir_f01815b857f9009bea48e2cb39492245&#45;&gt;dir_4ab6b4cc6a7edbff49100e9123df213f</title>
<path fill="none" stroke="black" d="M324.932,-148.077C299.925,-136.195 264.391,-119.285 245.82,-110.233"/>
<polygon fill="black" stroke="black" points="247.211,-107.016 236.695,-105.727 244.112,-113.292 247.211,-107.016"/>
<g id="a_edge37&#45;headlabel"><a xlink:href="dir_000241_000016.html" target="_top" xlink:title="1">
<text text-anchor="middle" x="251.691" y="-103.562" font-family="Helvetica,sans-Serif" font-size="10.00">1</text>
</a>
</g>
</g>
<!-- dir_cd3c152a7db0580c86a4c50ad0325149 -->
<g id="node10" class="node"><title>dir_cd3c152a7db0580c86a4c50ad0325149</title>
<g id="a_node10"><a xlink:href="dir_cd3c152a7db0580c86a4c50ad0325149.html" target="_top" xlink:title="PHOS">
<polygon fill="white" stroke="red" points="496.155,-252 442.155,-252 442.155,-216 496.155,-216 496.155,-252"/>
<text text-anchor="middle" x="469.155" y="-231.5" font-family="Helvetica,sans-Serif" font-size="10.00">PHOS</text>
</a>
</g>
</g>
<!-- dir_cd3c152a7db0580c86a4c50ad0325149&#45;&gt;dir_37c90836491b695b472bf98d1be8336b -->
<g id="edge34" class="edge"><title>dir_cd3c152a7db0580c86a4c50ad0325149&#45;&gt;dir_37c90836491b695b472bf98d1be8336b</title>
<path fill="none" stroke="black" d="M496.167,-226.649C519.538,-219.569 551.904,-205.587 567.155,-180 578.397,-161.139 572.579,-136.322 564.987,-117.686"/>
<polygon fill="black" stroke="black" points="568.076,-116.019 560.81,-108.308 561.682,-118.867 568.076,-116.019"/>
<g id="a_edge34&#45;headlabel"><a xlink:href="dir_000139_000122.html" target="_top" xlink:title="1">
<text text-anchor="middle" x="572.132" y="-115.647" font-family="Helvetica,sans-Serif" font-size="10.00">1</text>
</a>
</g>
</g>
<!-- dir_cd3c152a7db0580c86a4c50ad0325149&#45;&gt;dir_f01815b857f9009bea48e2cb39492245 -->
<g id="edge35" class="edge"><title>dir_cd3c152a7db0580c86a4c50ad0325149&#45;&gt;dir_f01815b857f9009bea48e2cb39492245</title>
<path fill="none" stroke="black" d="M442.019,-216.765C426.038,-207.203 405.623,-194.99 388.292,-184.62"/>
<polygon fill="black" stroke="black" points="389.928,-181.521 379.549,-179.39 386.334,-187.527 389.928,-181.521"/>
<g id="a_edge35&#45;headlabel"><a xlink:href="dir_000139_000241.html" target="_top" xlink:title="4">
<text text-anchor="middle" x="394.47" y="-178.43" font-family="Helvetica,sans-Serif" font-size="10.00">4</text>
</a>
</g>
</g>
<!-- dir_cd3c152a7db0580c86a4c50ad0325149&#45;&gt;dir_4ab6b4cc6a7edbff49100e9123df213f -->
<g id="edge33" class="edge"><title>dir_cd3c152a7db0580c86a4c50ad0325149&#45;&gt;dir_4ab6b4cc6a7edbff49100e9123df213f</title>
<path fill="none" stroke="black" d="M441.992,-222.473C435.252,-220.114 427.999,-217.785 421.155,-216 375.34,-204.053 242.08,-215.853 211.155,-180 196.78,-163.334 197.779,-137.669 201.496,-118.175"/>
<polygon fill="black" stroke="black" points="204.926,-118.872 203.69,-108.35 198.094,-117.347 204.926,-118.872"/>
<g id="a_edge33&#45;headlabel"><a xlink:href="dir_000139_000016.html" target="_top" xlink:title="2">
<text text-anchor="middle" x="206.914" y="-120.499" font-family="Helvetica,sans-Serif" font-size="10.00">2</text>
</a>
</g>
</g>
<!-- dir_cd3c152a7db0580c86a4c50ad0325149&#45;&gt;dir_2171f7ec022c5423887b07c69b2f5b48 -->
<g id="edge36" class="edge"><title>dir_cd3c152a7db0580c86a4c50ad0325149&#45;&gt;dir_2171f7ec022c5423887b07c69b2f5b48</title>
<path fill="none" stroke="black" d="M496.354,-224.685C506.313,-221.767 517.702,-218.577 528.155,-216 605.253,-196.993 652.981,-241.546 703.155,-180 735.731,-140.04 731.307,-107.191 703.155,-64 690.792,-45.0329 668.431,-34.0038 647.79,-27.6184"/>
<polygon fill="black" stroke="black" points="648.732,-24.2478 638.159,-24.921 646.844,-30.9884 648.732,-24.2478"/>
<g id="a_edge36&#45;headlabel"><a xlink:href="dir_000139_000043.html" target="_top" xlink:title="2">
<text text-anchor="middle" x="652.959" y="-19.9831" font-family="Helvetica,sans-Serif" font-size="10.00">2</text>
</a>
</g>
</g>
<!-- dir_577c839d346a264df4e9e588ca2a45dd -->
<g id="node11" class="node"><title>dir_577c839d346a264df4e9e588ca2a45dd</title>
<g id="a_node11"><a xlink:href="dir_577c839d346a264df4e9e588ca2a45dd.html" target="_top" xlink:title="TOF">
<polygon fill="white" stroke="red" points="591.155,-252 537.155,-252 537.155,-216 591.155,-216 591.155,-252"/>
<text text-anchor="middle" x="564.155" y="-231.5" font-family="Helvetica,sans-Serif" font-size="10.00">TOF</text>
</a>
</g>
</g>
<!-- dir_577c839d346a264df4e9e588ca2a45dd&#45;&gt;dir_37c90836491b695b472bf98d1be8336b -->
<g id="edge25" class="edge"><title>dir_577c839d346a264df4e9e588ca2a45dd&#45;&gt;dir_37c90836491b695b472bf98d1be8336b</title>
<path fill="none" stroke="black" d="M574.254,-215.809C583.525,-197.788 594.754,-168.712 587.155,-144 584.146,-134.215 578.648,-124.616 572.839,-116.334"/>
<polygon fill="black" stroke="black" points="575.562,-114.131 566.765,-108.226 569.96,-118.328 575.562,-114.131"/>
<g id="a_edge25&#45;headlabel"><a xlink:href="dir_000143_000122.html" target="_top" xlink:title="2">
<text text-anchor="middle" x="579.99" y="-112.805" font-family="Helvetica,sans-Serif" font-size="10.00">2</text>
</a>
</g>
</g>
<!-- dir_577c839d346a264df4e9e588ca2a45dd&#45;&gt;dir_f01815b857f9009bea48e2cb39492245 -->
<g id="edge26" class="edge"><title>dir_577c839d346a264df4e9e588ca2a45dd&#45;&gt;dir_f01815b857f9009bea48e2cb39492245</title>
<path fill="none" stroke="black" d="M536.827,-225.014C495.996,-213.049 421.101,-190.969 389.168,-179.944"/>
<polygon fill="black" stroke="black" points="390.084,-176.553 379.49,-176.422 387.69,-183.131 390.084,-176.553"/>
<g id="a_edge26&#45;headlabel"><a xlink:href="dir_000143_000241.html" target="_top" xlink:title="2">
<text text-anchor="middle" x="394.432" y="-172.614" font-family="Helvetica,sans-Serif" font-size="10.00">2</text>
</a>
</g>
</g>
<!-- dir_577c839d346a264df4e9e588ca2a45dd&#45;&gt;dir_4ab6b4cc6a7edbff49100e9123df213f -->
<g id="edge24" class="edge"><title>dir_577c839d346a264df4e9e588ca2a45dd&#45;&gt;dir_4ab6b4cc6a7edbff49100e9123df213f</title>
<path fill="none" stroke="black" d="M537.043,-224.305C527.093,-221.349 515.688,-218.232 505.155,-216 447.878,-203.863 290.171,-216.202 244.155,-180 225.153,-165.051 216.444,-138.312 212.467,-118.033"/>
<polygon fill="black" stroke="black" points="215.908,-117.39 210.788,-108.114 209.006,-118.558 215.908,-117.39"/>
<g id="a_edge24&#45;headlabel"><a xlink:href="dir_000143_000016.html" target="_top" xlink:title="1">
<text text-anchor="middle" x="219.307" y="-117.96" font-family="Helvetica,sans-Serif" font-size="10.00">1</text>
</a>
</g>
</g>
<!-- dir_577c839d346a264df4e9e588ca2a45dd&#45;&gt;dir_2171f7ec022c5423887b07c69b2f5b48 -->
<g id="edge27" class="edge"><title>dir_577c839d346a264df4e9e588ca2a45dd&#45;&gt;dir_2171f7ec022c5423887b07c69b2f5b48</title>
<path fill="none" stroke="black" d="M591.175,-228.888C636.132,-221.432 723.15,-204.187 741.155,-180 771.941,-138.645 771.525,-105.661 741.155,-64 720.121,-35.1452 680.282,-24.3876 648.465,-20.5655"/>
<polygon fill="black" stroke="black" points="648.751,-17.0767 638.45,-19.5541 648.048,-24.0412 648.751,-17.0767"/>
<g id="a_edge27&#45;headlabel"><a xlink:href="dir_000143_000043.html" target="_top" xlink:title="6">
<text text-anchor="middle" x="652.613" y="-12.1129" font-family="Helvetica,sans-Serif" font-size="10.00">6</text>
</a>
</g>
</g>
<!-- dir_a597e8e061b11201a1dff411feb10d0b&#45;&gt;dir_37c90836491b695b472bf98d1be8336b -->
<g id="edge14" class="edge"><title>dir_a597e8e061b11201a1dff411feb10d0b&#45;&gt;dir_37c90836491b695b472bf98d1be8336b</title>
<path fill="none" stroke="black" d="M307.414,-147.37C310.329,-146.142 313.279,-144.99 316.155,-144 384.172,-120.589 466.868,-104.712 513.818,-96.813"/>
<polygon fill="black" stroke="black" points="514.54,-100.241 523.836,-95.1579 513.399,-93.335 514.54,-100.241"/>
<g id="a_edge14&#45;headlabel"><a xlink:href="dir_000147_000122.html" target="_top" xlink:title="1">
<text text-anchor="middle" x="511.456" y="-101.129" font-family="Helvetica,sans-Serif" font-size="10.00">1</text>
</a>
</g>
</g>
<!-- dir_a597e8e061b11201a1dff411feb10d0b&#45;&gt;dir_4ab6b4cc6a7edbff49100e9123df213f -->
<g id="edge13" class="edge"><title>dir_a597e8e061b11201a1dff411feb10d0b&#45;&gt;dir_4ab6b4cc6a7edbff49100e9123df213f</title>
<path fill="none" stroke="black" d="M262.604,-143.697C253.921,-135.135 243.292,-124.656 233.807,-115.304"/>
<polygon fill="black" stroke="black" points="236.082,-112.633 226.504,-108.104 231.168,-117.617 236.082,-112.633"/>
<g id="a_edge13&#45;headlabel"><a xlink:href="dir_000147_000016.html" target="_top" xlink:title="4">
<text text-anchor="middle" x="240.635" y="-110.635" font-family="Helvetica,sans-Serif" font-size="10.00">4</text>
</a>
</g>
</g>
<!-- dir_a597e8e061b11201a1dff411feb10d0b&#45;&gt;dir_2171f7ec022c5423887b07c69b2f5b48 -->
<g id="edge15" class="edge"><title>dir_a597e8e061b11201a1dff411feb10d0b&#45;&gt;dir_2171f7ec022c5423887b07c69b2f5b48</title>
<path fill="none" stroke="black" d="M306.041,-143.999C338.921,-122.977 397.922,-87.1467 452.155,-64 485.313,-49.8478 524.38,-38.2243 554.19,-30.3377"/>
<polygon fill="black" stroke="black" points="555.125,-33.7111 563.923,-27.8081 553.364,-26.9362 555.125,-33.7111"/>
<g id="a_edge15&#45;headlabel"><a xlink:href="dir_000147_000043.html" target="_top" xlink:title="73">
<text text-anchor="middle" x="552.36" y="-34.8632" font-family="Helvetica,sans-Serif" font-size="10.00">73</text>
</a>
</g>
</g>
<!-- dir_69dd0583e11051991bf4c0cf23c50933 -->
<g id="node13" class="node"><title>dir_69dd0583e11051991bf4c0cf23c50933</title>
<g id="a_node13"><a xlink:href="dir_69dd0583e11051991bf4c0cf23c50933.html" target="_top" xlink:title="TRD">
<polygon fill="white" stroke="red" points="523.155,-180 469.155,-180 469.155,-144 523.155,-144 523.155,-180"/>
<text text-anchor="middle" x="496.155" y="-159.5" font-family="Helvetica,sans-Serif" font-size="10.00">TRD</text>
</a>
</g>
</g>
<!-- dir_69dd0583e11051991bf4c0cf23c50933&#45;&gt;dir_37c90836491b695b472bf98d1be8336b -->
<g id="edge1" class="edge"><title>dir_69dd0583e11051991bf4c0cf23c50933&#45;&gt;dir_37c90836491b695b472bf98d1be8336b</title>
<path fill="none" stroke="black" d="M509.751,-143.697C516.278,-135.389 524.223,-125.277 531.402,-116.141"/>
<polygon fill="black" stroke="black" points="534.29,-118.13 537.716,-108.104 528.786,-113.805 534.29,-118.13"/>
<g id="a_edge1&#45;headlabel"><a xlink:href="dir_000151_000122.html" target="_top" xlink:title="1">
<text text-anchor="middle" x="534.302" y="-120.211" font-family="Helvetica,sans-Serif" font-size="10.00">1</text>
</a>
</g>
</g>
<!-- dir_69dd0583e11051991bf4c0cf23c50933&#45;&gt;dir_2171f7ec022c5423887b07c69b2f5b48 -->
<g id="edge2" class="edge"><title>dir_69dd0583e11051991bf4c0cf23c50933&#45;&gt;dir_2171f7ec022c5423887b07c69b2f5b48</title>
<path fill="none" stroke="black" d="M495.244,-143.798C495.024,-122.897 497.606,-87.518 515.155,-64 524.993,-50.8165 539.833,-41.144 554.429,-34.2219"/>
<polygon fill="black" stroke="black" points="556.175,-37.2784 563.931,-30.061 553.367,-30.8663 556.175,-37.2784"/>
<g id="a_edge2&#45;headlabel"><a xlink:href="dir_000151_000043.html" target="_top" xlink:title="2">
<text text-anchor="middle" x="554.021" y="-38.8211" font-family="Helvetica,sans-Serif" font-size="10.00">2</text>
</a>
</g>
</g>
<!-- dir_4ab6b4cc6a7edbff49100e9123df213f&#45;&gt;dir_2171f7ec022c5423887b07c69b2f5b48 -->
<g id="edge9" class="edge"><title>dir_4ab6b4cc6a7edbff49100e9123df213f&#45;&gt;dir_2171f7ec022c5423887b07c69b2f5b48</title>
<path fill="none" stroke="black" d="M218.921,-71.8386C222.886,-68.7772 227.468,-65.9476 232.155,-64 288.817,-40.458 467.747,-26.6853 553.988,-21.4476"/>
<polygon fill="black" stroke="black" points="554.256,-24.9379 564.031,-20.8511 553.841,-17.9502 554.256,-24.9379"/>
<g id="a_edge9&#45;headlabel"><a xlink:href="dir_000016_000043.html" target="_top" xlink:title="1">
<text text-anchor="middle" x="550.836" y="-25.4852" font-family="Helvetica,sans-Serif" font-size="10.00">1</text>
</a>
</g>
</g>
<!-- dir_b05a5fa85f84bfc9013183c9d87f9a36&#45;&gt;dir_2171f7ec022c5423887b07c69b2f5b48 -->
<g id="edge16" class="edge"><title>dir_b05a5fa85f84bfc9013183c9d87f9a36&#45;&gt;dir_2171f7ec022c5423887b07c69b2f5b48</title>
<path fill="none" stroke="black" d="M859.486,-215.761C861.104,-181.569 859.458,-104.945 817.155,-64 793.576,-41.1775 704.805,-28.7472 648.667,-23.0215"/>
<polygon fill="black" stroke="black" points="648.882,-19.5259 638.587,-22.0294 648.196,-26.4922 648.882,-19.5259"/>
<g id="a_edge16&#45;headlabel"><a xlink:href="dir_000296_000043.html" target="_top" xlink:title="45">
<text text-anchor="middle" x="652.738" y="-14.5523" font-family="Helvetica,sans-Serif" font-size="10.00">45</text>
</a>
</g>
</g>
<!-- dir_2171f7ec022c5423887b07c69b2f5b48&#45;&gt;dir_37c90836491b695b472bf98d1be8336b -->
<g id="edge40" class="edge"><title>dir_2171f7ec022c5423887b07c69b2f5b48&#45;&gt;dir_37c90836491b695b472bf98d1be8336b</title>
<path fill="none" stroke="black" d="M594.833,-36.1043C589.787,-44.3826 582.776,-54.488 575.787,-63.6398"/>
<polygon fill="black" stroke="black" points="572.876,-61.6778 569.43,-71.6966 578.372,-66.0135 572.876,-61.6778"/>
<g id="a_edge40&#45;headlabel"><a xlink:href="dir_000043_000122.html" target="_top" xlink:title="1">
<text text-anchor="middle" x="572.874" y="-54.5972" font-family="Helvetica,sans-Serif" font-size="10.00">1</text>
</a>
</g>
</g>
<!-- dir_2171f7ec022c5423887b07c69b2f5b48&#45;&gt;dir_4ab6b4cc6a7edbff49100e9123df213f -->
<g id="edge39" class="edge"><title>dir_2171f7ec022c5423887b07c69b2f5b48&#45;&gt;dir_4ab6b4cc6a7edbff49100e9123df213f</title>
<path fill="none" stroke="black" d="M563.957,-21.4541C485.6,-26.6966 306.794,-40.4677 250.155,-64 248.544,-64.6695 246.945,-65.4432 245.363,-66.2947"/>
<polygon fill="black" stroke="black" points="243.134,-63.5613 236.52,-71.8386 246.852,-69.4921 243.134,-63.5613"/>
<g id="a_edge39&#45;headlabel"><a xlink:href="dir_000043_000016.html" target="_top" xlink:title="15">
<text text-anchor="middle" x="244.671" y="-56.7464" font-family="Helvetica,sans-Serif" font-size="10.00">15</text>
</a>
</g>
</g>
</g>
</svg>
        <g id="navigator" transform="translate(0 0)" fill="#404254">
                <rect fill="#f2f5e9" fill-opacity="0.5" stroke="#606060" stroke-width=".5" x="0" y="0" width="60" height="60"/>
                <use id="zoomplus" xlink:href="#zoomPlus" x="17" y="9" onmousedown="handleZoom(evt,'in')"/>
                <use id="zoomminus" xlink:href="#zoomMin" x="42" y="9" onmousedown="handleZoom(evt,'out')"/>
                <use id="reset" xlink:href="#resetDef" x="30" y="36" onmousedown="handleReset()"/>
                <g id="arrowUp" xlink:href="#dirArrow" transform="translate(30 24)" onmousedown="handlePan(0,-1)">
                  <use xlink:href="#rim" fill="#404040">
                        <set attributeName="fill" to="#808080" begin="arrowUp.mouseover" end="arrowUp.mouseout"/>
                  </use>
                  <path fill="none" stroke="white" stroke-width="1.5" d="M0,-3.0v7 M-2.5,-0.5L0,-3.0L2.5,-0.5"/>
                </g>
                <g id="arrowRight" xlink:href="#dirArrow" transform="rotate(90) translate(36 -43)" onmousedown="handlePan(1,0)">
                  <use xlink:href="#rim" fill="#404040">
                        <set attributeName="fill" to="#808080" begin="arrowRight.mouseover" end="arrowRight.mouseout"/>
                  </use>
                  <path fill="none" stroke="white" stroke-width="1.5" d="M0,-3.0v7 M-2.5,-0.5L0,-3.0L2.5,-0.5"/>
                </g>
                <g id="arrowDown" xlink:href="#dirArrow" transform="rotate(180) translate(-30 -48)" onmousedown="handlePan(0,1)">
                  <use xlink:href="#rim" fill="#404040">
                        <set attributeName="fill" to="#808080" begin="arrowDown.mouseover" end="arrowDown.mouseout"/>
                  </use>
                  <path fill="none" stroke="white" stroke-width="1.5" d="M0,-3.0v7 M-2.5,-0.5L0,-3.0L2.5,-0.5"/>
                </g>
                <g id="arrowLeft" xlink:href="#dirArrow" transform="rotate(270) translate(-36 17)" onmousedown="handlePan(-1,0)">
                  <use xlink:href="#rim" fill="#404040">
                        <set attributeName="fill" to="#808080" begin="arrowLeft.mouseover" end="arrowLeft.mouseout"/>
                  </use>
                  <path fill="none" stroke="white" stroke-width="1.5" d="M0,-3.0v7 M-2.5,-0.5L0,-3.0L2.5,-0.5"/>
                </g>
        </g>
        <svg viewBox="0 0 15 15" width="100%" height="30px" preserveAspectRatio="xMaxYMin meet">
         <g id="arrow_out" transform="scale(0.3 0.3)">
          <a xlink:href="dir_051dca18e802f8e9474f2e30d29c04e0_dep_org.svg" target="_base">
           <rect id="button" ry="5" rx="5" y="6" x="6" height="38" width="38"
                fill="#f2f5e9" fill-opacity="0.5" stroke="#606060" stroke-width="1.0"/>
           <path id="arrow"
             d="M 11.500037,31.436501 C 11.940474,20.09759 22.043105,11.32322 32.158766,21.979434 L 37.068811,17.246167 C 37.068811,17.246167 37.088388,32 37.088388,32 L 22.160133,31.978069 C 22.160133,31.978069 26.997745,27.140456 26.997745,27.140456 C 18.528582,18.264221 13.291696,25.230495 11.500037,31.436501 z"
             style="fill:#404040;"/>
          </a>
         </g>
        </svg>
</svg>
