<?xml version="1.0" encoding="UTF-8" standalone="no"?>
<!DOCTYPE svg PUBLIC "-//W3C//DTD SVG 1.1//EN"
 "http://www.w3.org/Graphics/SVG/1.1/DTD/svg11.dtd">
<!-- Generated by graphviz version 2.36.0 (20140111.2315)
 -->
<!-- Title: /home/travis/build/AliceO2Group/AliceO2/Detectors/ITSMFT/MFT/base/include Pages: 1 -->
<svg width="188pt" height="375pt"
 viewBox="0.00 0.00 188.00 375.00" xmlns="http://www.w3.org/2000/svg" xmlns:xlink="http://www.w3.org/1999/xlink">
<g id="graph0" class="graph" transform="scale(1 1) rotate(0) translate(4 371)">
<title>/home/travis/build/AliceO2Group/AliceO2/Detectors/ITSMFT/MFT/base/include</title>
<g id="clust1" class="cluster"><title>clusterdir_7e732ae97f4f941436b6909b27d4da36</title>
<g id="a_clust1"><a xlink:href="dir_7e732ae97f4f941436b6909b27d4da36.html" target="_top" xlink:title="base">
<polygon fill="#ddddee" stroke="black" points="8,-272 8,-359 172,-359 172,-272 8,-272"/>
<text text-anchor="middle" x="90" y="-347" font-family="Helvetica,sans-Serif" font-size="10.00">base</text>
</a>
</g>
</g>
<g id="clust2" class="cluster"><title>clusterdir_f22caf943fb99f64e502dc27cedd1b22</title>
<g id="a_clust2"><a xlink:href="dir_f22caf943fb99f64e502dc27cedd1b22.html" target="_top">
<polygon fill="#eeeeff" stroke="black" points="16,-280 16,-332 164,-332 164,-280 16,-280"/>
</a>
</g>
</g>
<!-- dir_f22caf943fb99f64e502dc27cedd1b22 -->
<g id="node1" class="node"><title>dir_f22caf943fb99f64e502dc27cedd1b22</title>
<text text-anchor="middle" x="129" y="-303.5" font-family="Helvetica,sans-Serif" font-size="10.00">include</text>
</g>
<!-- dir_f74068efc4603b01d0ea8bb1c8c2c67e -->
<g id="node2" class="node"><title>dir_f74068efc4603b01d0ea8bb1c8c2c67e</title>
<g id="a_node2"><a xlink:href="dir_f74068efc4603b01d0ea8bb1c8c2c67e.html" target="_top" xlink:title="MFTBase">
<polygon fill="white" stroke="black" points="83.25,-324 24.75,-324 24.75,-288 83.25,-288 83.25,-324"/>
<text text-anchor="middle" x="54" y="-303.5" font-family="Helvetica,sans-Serif" font-size="10.00">MFTBase</text>
</a>
</g>
</g>
<!-- dir_4ab6b4cc6a7edbff49100e9123df213f -->
<g id="node3" class="node"><title>dir_4ab6b4cc6a7edbff49100e9123df213f</title>
<g id="a_node3"><a xlink:href="dir_4ab6b4cc6a7edbff49100e9123df213f.html" target="_top" xlink:title="Common">
<polygon fill="none" stroke="red" points="70.5,-180 15.5,-180 15.5,-144 70.5,-144 70.5,-180"/>
<text text-anchor="middle" x="43" y="-159.5" font-family="Helvetica,sans-Serif" font-size="10.00">Common</text>
</a>
</g>
</g>
<!-- dir_f74068efc4603b01d0ea8bb1c8c2c67e&#45;&gt;dir_4ab6b4cc6a7edbff49100e9123df213f -->
<g id="edge8" class="edge"><title>dir_f74068efc4603b01d0ea8bb1c8c2c67e&#45;&gt;dir_4ab6b4cc6a7edbff49100e9123df213f</title>
<path fill="none" stroke="black" d="M50.8993,-287.876C49.1541,-277.525 47.1084,-264.046 46,-252 44.0996,-231.346 43.3671,-207.898 43.1004,-190.256"/>
<polygon fill="black" stroke="black" points="46.5985,-190.059 42.9882,-180.099 39.599,-190.137 46.5985,-190.059"/>
<g id="a_edge8&#45;headlabel"><a xlink:href="dir_000081_000016.html" target="_top" xlink:title="1">
<text text-anchor="middle" x="49.4772" y="-191.123" font-family="Helvetica,sans-Serif" font-size="10.00">1</text>
</a>
</g>
</g>
<!-- dir_37c90836491b695b472bf98d1be8336b -->
<g id="node4" class="node"><title>dir_37c90836491b695b472bf98d1be8336b</title>
<g id="a_node4"><a xlink:href="dir_37c90836491b695b472bf98d1be8336b.html" target="_top" xlink:title="Base">
<polygon fill="none" stroke="red" points="88,-36 34,-36 34,-0 88,-0 88,-36"/>
<text text-anchor="middle" x="61" y="-15.5" font-family="Helvetica,sans-Serif" font-size="10.00">Base</text>
</a>
</g>
</g>
<!-- dir_f74068efc4603b01d0ea8bb1c8c2c67e&#45;&gt;dir_37c90836491b695b472bf98d1be8336b -->
<g id="edge9" class="edge"><title>dir_f74068efc4603b01d0ea8bb1c8c2c67e&#45;&gt;dir_37c90836491b695b472bf98d1be8336b</title>
<path fill="none" stroke="black" d="M42.9725,-287.849C25.5619,-258.68 -5.2234,-197.375 6,-144 13.5803,-107.95 32.2194,-69.614 45.701,-45.0464"/>
<polygon fill="black" stroke="black" points="48.9198,-46.4622 50.7592,-36.0283 42.8146,-43.0378 48.9198,-46.4622"/>
<g id="a_edge9&#45;headlabel"><a xlink:href="dir_000081_000122.html" target="_top" xlink:title="1">
<text text-anchor="middle" x="49.6377" y="-48.4863" font-family="Helvetica,sans-Serif" font-size="10.00">1</text>
</a>
</g>
</g>
<!-- dir_85bf31a2e8d306e7598ffcb73f8df6bf -->
<g id="node5" class="node"><title>dir_85bf31a2e8d306e7598ffcb73f8df6bf</title>
<g id="a_node5"><a xlink:href="dir_85bf31a2e8d306e7598ffcb73f8df6bf.html" target="_top" xlink:title="common">
<polygon fill="none" stroke="red" points="109,-252 55,-252 55,-216 109,-216 109,-252"/>
<text text-anchor="middle" x="82" y="-231.5" font-family="Helvetica,sans-Serif" font-size="10.00">common</text>
</a>
</g>
</g>
<!-- dir_f74068efc4603b01d0ea8bb1c8c2c67e&#45;&gt;dir_85bf31a2e8d306e7598ffcb73f8df6bf -->
<g id="edge10" class="edge"><title>dir_f74068efc4603b01d0ea8bb1c8c2c67e&#45;&gt;dir_85bf31a2e8d306e7598ffcb73f8df6bf</title>
<path fill="none" stroke="black" d="M60.9214,-287.697C64.0747,-279.813 67.8783,-270.304 71.3814,-261.546"/>
<polygon fill="black" stroke="black" points="74.694,-262.689 75.1583,-252.104 68.1946,-260.089 74.694,-262.689"/>
<g id="a_edge10&#45;headlabel"><a xlink:href="dir_000081_000164.html" target="_top" xlink:title="1">
<text text-anchor="middle" x="75.9952" y="-264.581" font-family="Helvetica,sans-Serif" font-size="10.00">1</text>
</a>
</g>
</g>
<!-- dir_2171f7ec022c5423887b07c69b2f5b48 -->
<g id="node6" class="node"><title>dir_2171f7ec022c5423887b07c69b2f5b48</title>
<g id="a_node6"><a xlink:href="dir_2171f7ec022c5423887b07c69b2f5b48.html" target="_top" xlink:title="DataFormats">
<polygon fill="none" stroke="red" points="131,-108 57,-108 57,-72 131,-72 131,-108"/>
<text text-anchor="middle" x="94" y="-87.5" font-family="Helvetica,sans-Serif" font-size="10.00">DataFormats</text>
</a>
</g>
</g>
<!-- dir_f74068efc4603b01d0ea8bb1c8c2c67e&#45;&gt;dir_2171f7ec022c5423887b07c69b2f5b48 -->
<g id="edge11" class="edge"><title>dir_f74068efc4603b01d0ea8bb1c8c2c67e&#45;&gt;dir_2171f7ec022c5423887b07c69b2f5b48</title>
<path fill="none" stroke="black" d="M74.153,-287.766C80.1857,-282.656 86.8359,-277.072 93,-272 103.988,-262.959 111.836,-264.825 118,-252 138.968,-208.373 121.135,-151.053 107.035,-117.893"/>
<polygon fill="black" stroke="black" points="110.084,-116.137 102.826,-108.419 103.687,-118.979 110.084,-116.137"/>
<g id="a_edge11&#45;headlabel"><a xlink:href="dir_000081_000043.html" target="_top" xlink:title="1">
<text text-anchor="middle" x="114.139" y="-115.769" font-family="Helvetica,sans-Serif" font-size="10.00">1</text>
</a>
</g>
</g>
<!-- dir_4ab6b4cc6a7edbff49100e9123df213f&#45;&gt;dir_2171f7ec022c5423887b07c69b2f5b48 -->
<g id="edge1" class="edge"><title>dir_4ab6b4cc6a7edbff49100e9123df213f&#45;&gt;dir_2171f7ec022c5423887b07c69b2f5b48</title>
<path fill="none" stroke="black" d="M49.691,-143.697C54.8866,-135.389 62.0573,-125.277 69.1771,-116.141"/>
<polygon fill="black" stroke="black" points="72.1013,-118.09 75.6432,-108.104 66.6475,-113.701 72.1013,-118.09"/>
<g id="a_edge1&#45;headlabel"><a xlink:href="dir_000016_000043.html" target="_top" xlink:title="1">
<text text-anchor="middle" x="72.06" y="-120.17" font-family="Helvetica,sans-Serif" font-size="10.00">1</text>
</a>
</g>
</g>
<!-- dir_37c90836491b695b472bf98d1be8336b&#45;&gt;dir_4ab6b4cc6a7edbff49100e9123df213f -->
<g id="edge2" class="edge"><title>dir_37c90836491b695b472bf98d1be8336b&#45;&gt;dir_4ab6b4cc6a7edbff49100e9123df213f</title>
<path fill="none" stroke="black" d="M55.9751,-36.0264C53.1441,-46.3419 49.8202,-59.8189 48,-72 44.9317,-92.5337 43.7062,-115.988 43.2346,-133.662"/>
<polygon fill="black" stroke="black" points="39.7317,-133.774 43.0287,-143.843 46.7303,-133.916 39.7317,-133.774"/>
<g id="a_edge2&#45;headlabel"><a xlink:href="dir_000122_000016.html" target="_top" xlink:title="5">
<text text-anchor="middle" x="36.9657" y="-127.623" font-family="Helvetica,sans-Serif" font-size="10.00">5</text>
</a>
</g>
</g>
<!-- dir_37c90836491b695b472bf98d1be8336b&#45;&gt;dir_2171f7ec022c5423887b07c69b2f5b48 -->
<g id="edge3" class="edge"><title>dir_37c90836491b695b472bf98d1be8336b&#45;&gt;dir_2171f7ec022c5423887b07c69b2f5b48</title>
<path fill="none" stroke="black" d="M74.9585,-36.1043C79.4852,-43.9602 84.1932,-53.4616 87.962,-62.232"/>
<polygon fill="black" stroke="black" points="84.7871,-63.7184 91.7584,-71.6966 91.284,-61.1124 84.7871,-63.7184"/>
<g id="a_edge3&#45;headlabel"><a xlink:href="dir_000122_000043.html" target="_top" xlink:title="5">
<text text-anchor="middle" x="80.8138" y="-58.9392" font-family="Helvetica,sans-Serif" font-size="10.00">5</text>
</a>
</g>
</g>
<!-- dir_85bf31a2e8d306e7598ffcb73f8df6bf&#45;&gt;dir_4ab6b4cc6a7edbff49100e9123df213f -->
<g id="edge4" class="edge"><title>dir_85bf31a2e8d306e7598ffcb73f8df6bf&#45;&gt;dir_4ab6b4cc6a7edbff49100e9123df213f</title>
<path fill="none" stroke="black" d="M72.3595,-215.697C67.8729,-207.644 62.4412,-197.894 57.4759,-188.982"/>
<polygon fill="black" stroke="black" points="60.4541,-187.137 52.5296,-180.104 54.3391,-190.544 60.4541,-187.137"/>
<g id="a_edge4&#45;headlabel"><a xlink:href="dir_000164_000016.html" target="_top" xlink:title="2">
<text text-anchor="middle" x="64.6839" y="-186.395" font-family="Helvetica,sans-Serif" font-size="10.00">2</text>
</a>
</g>
</g>
<!-- dir_85bf31a2e8d306e7598ffcb73f8df6bf&#45;&gt;dir_2171f7ec022c5423887b07c69b2f5b48 -->
<g id="edge5" class="edge"><title>dir_85bf31a2e8d306e7598ffcb73f8df6bf&#45;&gt;dir_2171f7ec022c5423887b07c69b2f5b48</title>
<path fill="none" stroke="black" d="M83.4475,-215.871C85.4927,-191.67 89.2498,-147.211 91.6851,-118.393"/>
<polygon fill="black" stroke="black" points="95.1928,-118.449 92.5474,-108.189 88.2177,-117.859 95.1928,-118.449"/>
<g id="a_edge5&#45;headlabel"><a xlink:href="dir_000164_000043.html" target="_top" xlink:title="17">
<text text-anchor="middle" x="97.7194" y="-119.769" font-family="Helvetica,sans-Serif" font-size="10.00">17</text>
</a>
</g>
</g>
<!-- dir_2171f7ec022c5423887b07c69b2f5b48&#45;&gt;dir_4ab6b4cc6a7edbff49100e9123df213f -->
<g id="edge6" class="edge"><title>dir_2171f7ec022c5423887b07c69b2f5b48&#45;&gt;dir_4ab6b4cc6a7edbff49100e9123df213f</title>
<path fill="none" stroke="black" d="M87.4333,-108.104C82.2695,-116.383 75.1143,-126.488 67.9938,-135.64"/>
<polygon fill="black" stroke="black" points="65.056,-133.708 61.5225,-143.697 70.5135,-138.092 65.056,-133.708"/>
<g id="a_edge6&#45;headlabel"><a xlink:href="dir_000043_000016.html" target="_top" xlink:title="15">
<text text-anchor="middle" x="65.0933" y="-126.628" font-family="Helvetica,sans-Serif" font-size="10.00">15</text>
</a>
</g>
</g>
<!-- dir_2171f7ec022c5423887b07c69b2f5b48&#45;&gt;dir_37c90836491b695b472bf98d1be8336b -->
<g id="edge7" class="edge"><title>dir_2171f7ec022c5423887b07c69b2f5b48&#45;&gt;dir_37c90836491b695b472bf98d1be8336b</title>
<path fill="none" stroke="black" d="M79.927,-71.6966C75.3973,-63.8132 70.6958,-54.3042 66.9429,-45.5464"/>
<polygon fill="black" stroke="black" points="70.1303,-44.0907 63.1684,-36.1043 63.6304,-46.6891 70.1303,-44.0907"/>
<g id="a_edge7&#45;headlabel"><a xlink:href="dir_000043_000122.html" target="_top" xlink:title="1">
<text text-anchor="middle" x="74.101" y="-43.8747" font-family="Helvetica,sans-Serif" font-size="10.00">1</text>
</a>
</g>
</g>
</g>
</svg>
