<?xml version="1.0" encoding="UTF-8" standalone="no"?>
<!DOCTYPE svg PUBLIC "-//W3C//DTD SVG 1.1//EN"
 "http://www.w3.org/Graphics/SVG/1.1/DTD/svg11.dtd">
<!-- Generated by graphviz version 2.36.0 (20140111.2315)
 -->
<!-- Title: /home/travis/build/AliceO2Group/AliceO2/Detectors/ITSMFT/MFT/base Pages: 1 -->
<svg width="242pt" height="447pt"
 viewBox="0.00 0.00 242.00 447.00" xmlns="http://www.w3.org/2000/svg" xmlns:xlink="http://www.w3.org/1999/xlink">
<g id="graph0" class="graph" transform="scale(1 1) rotate(0) translate(4 443)">
<title>/home/travis/build/AliceO2Group/AliceO2/Detectors/ITSMFT/MFT/base</title>
<g id="clust1" class="cluster"><title>clusterdir_f39d1cd569ca2d16022b762a0e4a53c8</title>
<g id="a_clust1"><a xlink:href="dir_f39d1cd569ca2d16022b762a0e4a53c8.html" target="_top" xlink:title="MFT">
<polygon fill="#ddddee" stroke="black" points="35,-272 35,-431 193,-431 193,-272 35,-272"/>
<text text-anchor="middle" x="114" y="-419" font-family="Helvetica,sans-Serif" font-size="10.00">MFT</text>
</a>
</g>
</g>
<g id="clust2" class="cluster"><title>clusterdir_7e732ae97f4f941436b6909b27d4da36</title>
<g id="a_clust2"><a xlink:href="dir_7e732ae97f4f941436b6909b27d4da36.html" target="_top">
<polygon fill="#eeeeff" stroke="black" points="43,-280 43,-404 185,-404 185,-280 43,-280"/>
</a>
</g>
</g>
<!-- dir_7e732ae97f4f941436b6909b27d4da36 -->
<g id="node1" class="node"><title>dir_7e732ae97f4f941436b6909b27d4da36</title>
<text text-anchor="middle" x="150" y="-375.5" font-family="Helvetica,sans-Serif" font-size="10.00">base</text>
</g>
<!-- dir_f22caf943fb99f64e502dc27cedd1b22 -->
<g id="node2" class="node"><title>dir_f22caf943fb99f64e502dc27cedd1b22</title>
<g id="a_node2"><a xlink:href="dir_f22caf943fb99f64e502dc27cedd1b22.html" target="_top" xlink:title="include">
<polygon fill="white" stroke="red" points="141,-324 87,-324 87,-288 141,-288 141,-324"/>
<text text-anchor="middle" x="114" y="-303.5" font-family="Helvetica,sans-Serif" font-size="10.00">include</text>
</a>
</g>
</g>
<!-- dir_4ab6b4cc6a7edbff49100e9123df213f -->
<g id="node4" class="node"><title>dir_4ab6b4cc6a7edbff49100e9123df213f</title>
<g id="a_node4"><a xlink:href="dir_4ab6b4cc6a7edbff49100e9123df213f.html" target="_top" xlink:title="Common">
<polygon fill="none" stroke="red" points="140.5,-180 85.5,-180 85.5,-144 140.5,-144 140.5,-180"/>
<text text-anchor="middle" x="113" y="-159.5" font-family="Helvetica,sans-Serif" font-size="10.00">Common</text>
</a>
</g>
</g>
<!-- dir_f22caf943fb99f64e502dc27cedd1b22&#45;&gt;dir_4ab6b4cc6a7edbff49100e9123df213f -->
<g id="edge10" class="edge"><title>dir_f22caf943fb99f64e502dc27cedd1b22&#45;&gt;dir_4ab6b4cc6a7edbff49100e9123df213f</title>
<path fill="none" stroke="black" d="M113.879,-287.871C113.709,-263.67 113.396,-219.211 113.193,-190.393"/>
<polygon fill="black" stroke="black" points="116.691,-190.164 113.121,-180.189 109.692,-190.214 116.691,-190.164"/>
<g id="a_edge10&#45;headlabel"><a xlink:href="dir_000080_000016.html" target="_top" xlink:title="1">
<text text-anchor="middle" x="119.556" y="-191.239" font-family="Helvetica,sans-Serif" font-size="10.00">1</text>
</a>
</g>
</g>
<!-- dir_37c90836491b695b472bf98d1be8336b -->
<g id="node5" class="node"><title>dir_37c90836491b695b472bf98d1be8336b</title>
<g id="a_node5"><a xlink:href="dir_37c90836491b695b472bf98d1be8336b.html" target="_top" xlink:title="Base">
<polygon fill="none" stroke="red" points="122,-36 68,-36 68,-0 122,-0 122,-36"/>
<text text-anchor="middle" x="95" y="-15.5" font-family="Helvetica,sans-Serif" font-size="10.00">Base</text>
</a>
</g>
</g>
<!-- dir_f22caf943fb99f64e502dc27cedd1b22&#45;&gt;dir_37c90836491b695b472bf98d1be8336b -->
<g id="edge11" class="edge"><title>dir_f22caf943fb99f64e502dc27cedd1b22&#45;&gt;dir_37c90836491b695b472bf98d1be8336b</title>
<path fill="none" stroke="black" d="M107.064,-287.981C97.8087,-264.264 81.9027,-219.711 76,-180 69.0477,-133.227 79.4041,-78.5034 87.3448,-46.4098"/>
<polygon fill="black" stroke="black" points="90.8084,-46.9948 89.9167,-36.4376 84.0302,-45.2467 90.8084,-46.9948"/>
<g id="a_edge11&#45;headlabel"><a xlink:href="dir_000080_000122.html" target="_top" xlink:title="1">
<text text-anchor="middle" x="92.6601" y="-48.6846" font-family="Helvetica,sans-Serif" font-size="10.00">1</text>
</a>
</g>
</g>
<!-- dir_85bf31a2e8d306e7598ffcb73f8df6bf -->
<g id="node6" class="node"><title>dir_85bf31a2e8d306e7598ffcb73f8df6bf</title>
<g id="a_node6"><a xlink:href="dir_85bf31a2e8d306e7598ffcb73f8df6bf.html" target="_top" xlink:title="common">
<polygon fill="none" stroke="red" points="234,-252 180,-252 180,-216 234,-216 234,-252"/>
<text text-anchor="middle" x="207" y="-231.5" font-family="Helvetica,sans-Serif" font-size="10.00">common</text>
</a>
</g>
</g>
<!-- dir_f22caf943fb99f64e502dc27cedd1b22&#45;&gt;dir_85bf31a2e8d306e7598ffcb73f8df6bf -->
<g id="edge12" class="edge"><title>dir_f22caf943fb99f64e502dc27cedd1b22&#45;&gt;dir_85bf31a2e8d306e7598ffcb73f8df6bf</title>
<path fill="none" stroke="black" d="M136.989,-287.697C148.814,-278.796 163.392,-267.823 176.179,-258.199"/>
<polygon fill="black" stroke="black" points="178.391,-260.915 184.276,-252.104 174.181,-255.322 178.391,-260.915"/>
<g id="a_edge12&#45;headlabel"><a xlink:href="dir_000080_000164.html" target="_top" xlink:title="1">
<text text-anchor="middle" x="177.226" y="-262.845" font-family="Helvetica,sans-Serif" font-size="10.00">1</text>
</a>
</g>
</g>
<!-- dir_2171f7ec022c5423887b07c69b2f5b48 -->
<g id="node7" class="node"><title>dir_2171f7ec022c5423887b07c69b2f5b48</title>
<g id="a_node7"><a xlink:href="dir_2171f7ec022c5423887b07c69b2f5b48.html" target="_top" xlink:title="DataFormats">
<polygon fill="none" stroke="red" points="197,-108 123,-108 123,-72 197,-72 197,-108"/>
<text text-anchor="middle" x="160" y="-87.5" font-family="Helvetica,sans-Serif" font-size="10.00">DataFormats</text>
</a>
</g>
</g>
<!-- dir_f22caf943fb99f64e502dc27cedd1b22&#45;&gt;dir_2171f7ec022c5423887b07c69b2f5b48 -->
<g id="edge13" class="edge"><title>dir_f22caf943fb99f64e502dc27cedd1b22&#45;&gt;dir_2171f7ec022c5423887b07c69b2f5b48</title>
<path fill="none" stroke="black" d="M119.7,-287.809C127.426,-263.893 141.154,-219.11 149,-180 153.108,-159.521 155.932,-136.065 157.689,-118.375"/>
<polygon fill="black" stroke="black" points="161.195,-118.468 158.647,-108.184 154.226,-117.813 161.195,-118.468"/>
<g id="a_edge13&#45;headlabel"><a xlink:href="dir_000080_000043.html" target="_top" xlink:title="1">
<text text-anchor="middle" x="163.686" y="-119.812" font-family="Helvetica,sans-Serif" font-size="10.00">1</text>
</a>
</g>
</g>
<!-- dir_a39be7dbb5064f10e7f9feb561d713d1 -->
<g id="node3" class="node"><title>dir_a39be7dbb5064f10e7f9feb561d713d1</title>
<g id="a_node3"><a xlink:href="dir_a39be7dbb5064f10e7f9feb561d713d1.html" target="_top" xlink:title="src">
<polygon fill="white" stroke="black" points="105,-396 51,-396 51,-360 105,-360 105,-396"/>
<text text-anchor="middle" x="78" y="-375.5" font-family="Helvetica,sans-Serif" font-size="10.00">src</text>
</a>
</g>
</g>
<!-- dir_a39be7dbb5064f10e7f9feb561d713d1&#45;&gt;dir_f22caf943fb99f64e502dc27cedd1b22 -->
<g id="edge7" class="edge"><title>dir_a39be7dbb5064f10e7f9feb561d713d1&#45;&gt;dir_f22caf943fb99f64e502dc27cedd1b22</title>
<path fill="none" stroke="black" d="M86.8989,-359.697C90.9968,-351.728 95.9488,-342.1 100.493,-333.264"/>
<polygon fill="black" stroke="black" points="103.742,-334.598 105.203,-324.104 97.5174,-331.396 103.742,-334.598"/>
<g id="a_edge7&#45;headlabel"><a xlink:href="dir_000188_000080.html" target="_top" xlink:title="64">
<text text-anchor="middle" x="104.623" y="-336.593" font-family="Helvetica,sans-Serif" font-size="10.00">64</text>
</a>
</g>
</g>
<!-- dir_a39be7dbb5064f10e7f9feb561d713d1&#45;&gt;dir_4ab6b4cc6a7edbff49100e9123df213f -->
<g id="edge4" class="edge"><title>dir_a39be7dbb5064f10e7f9feb561d713d1&#45;&gt;dir_4ab6b4cc6a7edbff49100e9123df213f</title>
<path fill="none" stroke="black" d="M76.3766,-359.778C74.7784,-338.873 73.2051,-302.616 78,-272 82.5131,-243.183 93.3542,-211.584 101.785,-189.863"/>
<polygon fill="black" stroke="black" points="105.13,-190.922 105.574,-180.337 98.6258,-188.335 105.13,-190.922"/>
<g id="a_edge4&#45;headlabel"><a xlink:href="dir_000188_000016.html" target="_top" xlink:title="1">
<text text-anchor="middle" x="106.44" y="-192.812" font-family="Helvetica,sans-Serif" font-size="10.00">1</text>
</a>
</g>
</g>
<!-- dir_a39be7dbb5064f10e7f9feb561d713d1&#45;&gt;dir_37c90836491b695b472bf98d1be8336b -->
<g id="edge5" class="edge"><title>dir_a39be7dbb5064f10e7f9feb561d713d1&#45;&gt;dir_37c90836491b695b472bf98d1be8336b</title>
<path fill="none" stroke="black" d="M61.0752,-359.853C38.1347,-334.712 0,-285.348 0,-235 0,-235 0,-235 0,-161 0,-113.012 37.9439,-68.9633 65.8715,-43.0419"/>
<polygon fill="black" stroke="black" points="68.3544,-45.516 73.443,-36.2232 63.67,-40.3144 68.3544,-45.516"/>
<g id="a_edge5&#45;headlabel"><a xlink:href="dir_000188_000122.html" target="_top" xlink:title="1">
<text text-anchor="middle" x="67.5833" y="-47.5313" font-family="Helvetica,sans-Serif" font-size="10.00">1</text>
</a>
</g>
</g>
<!-- dir_a39be7dbb5064f10e7f9feb561d713d1&#45;&gt;dir_85bf31a2e8d306e7598ffcb73f8df6bf -->
<g id="edge6" class="edge"><title>dir_a39be7dbb5064f10e7f9feb561d713d1&#45;&gt;dir_85bf31a2e8d306e7598ffcb73f8df6bf</title>
<path fill="none" stroke="black" d="M105.19,-360.46C119.536,-350.918 136.839,-338.044 150,-324 167.817,-304.987 183.407,-279.681 193.758,-260.915"/>
<polygon fill="black" stroke="black" points="196.885,-262.49 198.541,-252.025 190.721,-259.173 196.885,-262.49"/>
<g id="a_edge6&#45;headlabel"><a xlink:href="dir_000188_000164.html" target="_top" xlink:title="6">
<text text-anchor="middle" x="197.682" y="-264.5" font-family="Helvetica,sans-Serif" font-size="10.00">6</text>
</a>
</g>
</g>
<!-- dir_4ab6b4cc6a7edbff49100e9123df213f&#45;&gt;dir_2171f7ec022c5423887b07c69b2f5b48 -->
<g id="edge1" class="edge"><title>dir_4ab6b4cc6a7edbff49100e9123df213f&#45;&gt;dir_2171f7ec022c5423887b07c69b2f5b48</title>
<path fill="none" stroke="black" d="M118.702,-143.697C123.423,-135.389 130.016,-125.277 136.614,-116.141"/>
<polygon fill="black" stroke="black" points="139.437,-118.21 142.621,-108.104 133.83,-114.019 139.437,-118.21"/>
<g id="a_edge1&#45;headlabel"><a xlink:href="dir_000016_000043.html" target="_top" xlink:title="1">
<text text-anchor="middle" x="139.559" y="-120.289" font-family="Helvetica,sans-Serif" font-size="10.00">1</text>
</a>
</g>
</g>
<!-- dir_37c90836491b695b472bf98d1be8336b&#45;&gt;dir_4ab6b4cc6a7edbff49100e9123df213f -->
<g id="edge2" class="edge"><title>dir_37c90836491b695b472bf98d1be8336b&#45;&gt;dir_4ab6b4cc6a7edbff49100e9123df213f</title>
<path fill="none" stroke="black" d="M97.1789,-36.1893C100.251,-60.4244 105.887,-104.888 109.537,-133.679"/>
<polygon fill="black" stroke="black" points="106.099,-134.391 110.829,-143.871 113.043,-133.511 106.099,-134.391"/>
<g id="a_edge2&#45;headlabel"><a xlink:href="dir_000122_000016.html" target="_top" xlink:title="5">
<text text-anchor="middle" x="102.83" y="-128.682" font-family="Helvetica,sans-Serif" font-size="10.00">5</text>
</a>
</g>
</g>
<!-- dir_37c90836491b695b472bf98d1be8336b&#45;&gt;dir_2171f7ec022c5423887b07c69b2f5b48 -->
<g id="edge3" class="edge"><title>dir_37c90836491b695b472bf98d1be8336b&#45;&gt;dir_2171f7ec022c5423887b07c69b2f5b48</title>
<path fill="none" stroke="black" d="M116.778,-36.1043C125.419,-44.467 135.119,-54.6945 143.214,-63.9197"/>
<polygon fill="black" stroke="black" points="140.696,-66.3602 149.848,-71.6966 146.021,-61.8172 140.696,-66.3602"/>
<g id="a_edge3&#45;headlabel"><a xlink:href="dir_000122_000043.html" target="_top" xlink:title="5">
<text text-anchor="middle" x="136.203" y="-62.9681" font-family="Helvetica,sans-Serif" font-size="10.00">5</text>
</a>
</g>
</g>
<!-- dir_85bf31a2e8d306e7598ffcb73f8df6bf&#45;&gt;dir_4ab6b4cc6a7edbff49100e9123df213f -->
<g id="edge8" class="edge"><title>dir_85bf31a2e8d306e7598ffcb73f8df6bf&#45;&gt;dir_4ab6b4cc6a7edbff49100e9123df213f</title>
<path fill="none" stroke="black" d="M183.764,-215.697C171.812,-206.796 157.077,-195.823 144.153,-186.199"/>
<polygon fill="black" stroke="black" points="146.08,-183.27 135.969,-180.104 141.899,-188.884 146.08,-183.27"/>
<g id="a_edge8&#45;headlabel"><a xlink:href="dir_000164_000016.html" target="_top" xlink:title="2">
<text text-anchor="middle" x="150.658" y="-180.64" font-family="Helvetica,sans-Serif" font-size="10.00">2</text>
</a>
</g>
</g>
<!-- dir_85bf31a2e8d306e7598ffcb73f8df6bf&#45;&gt;dir_2171f7ec022c5423887b07c69b2f5b48 -->
<g id="edge9" class="edge"><title>dir_85bf31a2e8d306e7598ffcb73f8df6bf&#45;&gt;dir_2171f7ec022c5423887b07c69b2f5b48</title>
<path fill="none" stroke="black" d="M203.13,-215.712C198.896,-197.612 191.558,-168.472 183,-144 179.954,-135.289 176.127,-125.994 172.473,-117.66"/>
<polygon fill="black" stroke="black" points="175.609,-116.1 168.321,-108.411 169.223,-118.967 175.609,-116.1"/>
<g id="a_edge9&#45;headlabel"><a xlink:href="dir_000164_000043.html" target="_top" xlink:title="17">
<text text-anchor="middle" x="179.672" y="-115.717" font-family="Helvetica,sans-Serif" font-size="10.00">17</text>
</a>
</g>
</g>
<!-- dir_2171f7ec022c5423887b07c69b2f5b48&#45;&gt;dir_4ab6b4cc6a7edbff49100e9123df213f -->
<g id="edge14" class="edge"><title>dir_2171f7ec022c5423887b07c69b2f5b48&#45;&gt;dir_4ab6b4cc6a7edbff49100e9123df213f</title>
<path fill="none" stroke="black" d="M154.411,-108.104C149.72,-116.383 143.142,-126.488 136.545,-135.64"/>
<polygon fill="black" stroke="black" points="133.708,-133.589 130.534,-143.697 139.319,-137.774 133.708,-133.589"/>
<g id="a_edge14&#45;headlabel"><a xlink:href="dir_000043_000016.html" target="_top" xlink:title="15">
<text text-anchor="middle" x="133.582" y="-126.51" font-family="Helvetica,sans-Serif" font-size="10.00">15</text>
</a>
</g>
</g>
<!-- dir_2171f7ec022c5423887b07c69b2f5b48&#45;&gt;dir_37c90836491b695b472bf98d1be8336b -->
<g id="edge15" class="edge"><title>dir_2171f7ec022c5423887b07c69b2f5b48&#45;&gt;dir_37c90836491b695b472bf98d1be8336b</title>
<path fill="none" stroke="black" d="M138.017,-71.6966C129.359,-63.3046 119.664,-53.0705 111.594,-43.8613"/>
<polygon fill="black" stroke="black" points="114.136,-41.4482 104.988,-36.1043 108.807,-45.9869 114.136,-41.4482"/>
<g id="a_edge15&#45;headlabel"><a xlink:href="dir_000043_000122.html" target="_top" xlink:title="1">
<text text-anchor="middle" x="118.628" y="-39.8439" font-family="Helvetica,sans-Serif" font-size="10.00">1</text>
</a>
</g>
</g>
</g>
</svg>
