<?xml version="1.0" encoding="UTF-8" standalone="no"?>
<!DOCTYPE svg PUBLIC "-//W3C//DTD SVG 1.1//EN"
 "http://www.w3.org/Graphics/SVG/1.1/DTD/svg11.dtd">
<!-- Generated by graphviz version 2.36.0 (20140111.2315)
 -->
<!-- Title: /home/travis/build/AliceO2Group/AliceO2/Detectors/ITSMFT/ITS/simulation Pages: 1 -->
<svg width="284pt" height="375pt"
 viewBox="0.00 0.00 283.66 375.00" xmlns="http://www.w3.org/2000/svg" xmlns:xlink="http://www.w3.org/1999/xlink">
<g id="graph0" class="graph" transform="scale(1 1) rotate(0) translate(4 371)">
<title>/home/travis/build/AliceO2Group/AliceO2/Detectors/ITSMFT/ITS/simulation</title>
<g id="clust1" class="cluster"><title>clusterdir_871aad07cbf94d6cd423c3d8d5bdf4e9</title>
<g id="a_clust1"><a xlink:href="dir_871aad07cbf94d6cd423c3d8d5bdf4e9.html" target="_top" xlink:title="ITS">
<polygon fill="#ddddee" stroke="black" points="8,-200 8,-359 174,-359 174,-200 8,-200"/>
<text text-anchor="middle" x="91" y="-347" font-family="Helvetica,sans-Serif" font-size="10.00">ITS</text>
</a>
</g>
</g>
<g id="clust2" class="cluster"><title>clusterdir_e6f6998399f381fa585023934f76a907</title>
<g id="a_clust2"><a xlink:href="dir_e6f6998399f381fa585023934f76a907.html" target="_top">
<polygon fill="#eeeeff" stroke="black" points="16,-208 16,-332 166,-332 166,-208 16,-208"/>
</a>
</g>
</g>
<!-- dir_e6f6998399f381fa585023934f76a907 -->
<g id="node1" class="node"><title>dir_e6f6998399f381fa585023934f76a907</title>
<text text-anchor="middle" x="127" y="-303.5" font-family="Helvetica,sans-Serif" font-size="10.00">simulation</text>
</g>
<!-- dir_703936e7bdda211beb61e967f1c6d8f5 -->
<g id="node2" class="node"><title>dir_703936e7bdda211beb61e967f1c6d8f5</title>
<g id="a_node2"><a xlink:href="dir_703936e7bdda211beb61e967f1c6d8f5.html" target="_top" xlink:title="include">
<polygon fill="white" stroke="red" points="90,-252 36,-252 36,-216 90,-216 90,-252"/>
<text text-anchor="middle" x="63" y="-231.5" font-family="Helvetica,sans-Serif" font-size="10.00">include</text>
</a>
</g>
</g>
<!-- dir_37c90836491b695b472bf98d1be8336b -->
<g id="node6" class="node"><title>dir_37c90836491b695b472bf98d1be8336b</title>
<g id="a_node6"><a xlink:href="dir_37c90836491b695b472bf98d1be8336b.html" target="_top" xlink:title="Base">
<polygon fill="none" stroke="red" points="114,-180 60,-180 60,-144 114,-144 114,-180"/>
<text text-anchor="middle" x="87" y="-159.5" font-family="Helvetica,sans-Serif" font-size="10.00">Base</text>
</a>
</g>
</g>
<!-- dir_703936e7bdda211beb61e967f1c6d8f5&#45;&gt;dir_37c90836491b695b472bf98d1be8336b -->
<g id="edge15" class="edge"><title>dir_703936e7bdda211beb61e967f1c6d8f5&#45;&gt;dir_37c90836491b695b472bf98d1be8336b</title>
<path fill="none" stroke="black" d="M68.9326,-215.697C71.6064,-207.898 74.8256,-198.509 77.8014,-189.829"/>
<polygon fill="black" stroke="black" points="81.2032,-190.699 81.1357,-180.104 74.5815,-188.429 81.2032,-190.699"/>
<g id="a_edge15&#45;headlabel"><a xlink:href="dir_000134_000122.html" target="_top" xlink:title="1">
<text text-anchor="middle" x="82.7232" y="-192.52" font-family="Helvetica,sans-Serif" font-size="10.00">1</text>
</a>
</g>
</g>
<!-- dir_85bf31a2e8d306e7598ffcb73f8df6bf -->
<g id="node7" class="node"><title>dir_85bf31a2e8d306e7598ffcb73f8df6bf</title>
<g id="a_node7"><a xlink:href="dir_85bf31a2e8d306e7598ffcb73f8df6bf.html" target="_top" xlink:title="common">
<polygon fill="none" stroke="red" points="262,-180 208,-180 208,-144 262,-144 262,-180"/>
<text text-anchor="middle" x="235" y="-159.5" font-family="Helvetica,sans-Serif" font-size="10.00">common</text>
</a>
</g>
</g>
<!-- dir_703936e7bdda211beb61e967f1c6d8f5&#45;&gt;dir_85bf31a2e8d306e7598ffcb73f8df6bf -->
<g id="edge16" class="edge"><title>dir_703936e7bdda211beb61e967f1c6d8f5&#45;&gt;dir_85bf31a2e8d306e7598ffcb73f8df6bf</title>
<path fill="none" stroke="black" d="M90.2539,-221.908C119.441,-210.03 165.921,-191.114 198.309,-177.932"/>
<polygon fill="black" stroke="black" points="199.931,-181.051 207.874,-174.04 197.292,-174.568 199.931,-181.051"/>
<g id="a_edge16&#45;headlabel"><a xlink:href="dir_000134_000164.html" target="_top" xlink:title="4">
<text text-anchor="middle" x="197.671" y="-182.536" font-family="Helvetica,sans-Serif" font-size="10.00">4</text>
</a>
</g>
</g>
<!-- dir_2171f7ec022c5423887b07c69b2f5b48 -->
<g id="node8" class="node"><title>dir_2171f7ec022c5423887b07c69b2f5b48</title>
<g id="a_node8"><a xlink:href="dir_2171f7ec022c5423887b07c69b2f5b48.html" target="_top" xlink:title="DataFormats">
<polygon fill="none" stroke="red" points="156,-36 82,-36 82,-0 156,-0 156,-36"/>
<text text-anchor="middle" x="119" y="-15.5" font-family="Helvetica,sans-Serif" font-size="10.00">DataFormats</text>
</a>
</g>
</g>
<!-- dir_703936e7bdda211beb61e967f1c6d8f5&#45;&gt;dir_2171f7ec022c5423887b07c69b2f5b48 -->
<g id="edge17" class="edge"><title>dir_703936e7bdda211beb61e967f1c6d8f5&#45;&gt;dir_2171f7ec022c5423887b07c69b2f5b48</title>
<path fill="none" stroke="black" d="M56.8156,-215.714C51.2324,-197.616 44.7729,-168.478 51,-144 60.4931,-106.684 83.6324,-68.4723 100.283,-44.2874"/>
<polygon fill="black" stroke="black" points="103.194,-46.2319 106.086,-36.0395 97.4692,-42.2037 103.194,-46.2319"/>
<g id="a_edge17&#45;headlabel"><a xlink:href="dir_000134_000043.html" target="_top" xlink:title="1">
<text text-anchor="middle" x="103.448" y="-48.3056" font-family="Helvetica,sans-Serif" font-size="10.00">1</text>
</a>
</g>
</g>
<!-- dir_0355333a068ab019f0e92698f15a77e4 -->
<g id="node3" class="node"><title>dir_0355333a068ab019f0e92698f15a77e4</title>
<g id="a_node3"><a xlink:href="dir_0355333a068ab019f0e92698f15a77e4.html" target="_top" xlink:title="src">
<polygon fill="white" stroke="black" points="78,-324 24,-324 24,-288 78,-288 78,-324"/>
<text text-anchor="middle" x="51" y="-303.5" font-family="Helvetica,sans-Serif" font-size="10.00">src</text>
</a>
</g>
</g>
<!-- dir_0355333a068ab019f0e92698f15a77e4&#45;&gt;dir_703936e7bdda211beb61e967f1c6d8f5 -->
<g id="edge4" class="edge"><title>dir_0355333a068ab019f0e92698f15a77e4&#45;&gt;dir_703936e7bdda211beb61e967f1c6d8f5</title>
<path fill="none" stroke="black" d="M53.9663,-287.697C55.2887,-279.983 56.8779,-270.712 58.3522,-262.112"/>
<polygon fill="black" stroke="black" points="61.8278,-262.552 60.0678,-252.104 54.9284,-261.369 61.8278,-262.552"/>
<g id="a_edge4&#45;headlabel"><a xlink:href="dir_000158_000134.html" target="_top" xlink:title="8">
<text text-anchor="middle" x="64.019" y="-264.075" font-family="Helvetica,sans-Serif" font-size="10.00">8</text>
</a>
</g>
</g>
<!-- dir_eedff867f3c4e67d20b227cb6e0f96ab -->
<g id="node4" class="node"><title>dir_eedff867f3c4e67d20b227cb6e0f96ab</title>
<g id="a_node4"><a xlink:href="dir_eedff867f3c4e67d20b227cb6e0f96ab.html" target="_top" xlink:title="base">
<polygon fill="none" stroke="red" points="236,-252 182,-252 182,-216 236,-216 236,-252"/>
<text text-anchor="middle" x="209" y="-231.5" font-family="Helvetica,sans-Serif" font-size="10.00">base</text>
</a>
</g>
</g>
<!-- dir_0355333a068ab019f0e92698f15a77e4&#45;&gt;dir_eedff867f3c4e67d20b227cb6e0f96ab -->
<g id="edge1" class="edge"><title>dir_0355333a068ab019f0e92698f15a77e4&#45;&gt;dir_eedff867f3c4e67d20b227cb6e0f96ab</title>
<path fill="none" stroke="black" d="M78.0838,-292.097C81.0859,-290.701 84.1037,-289.312 87,-288 123.629,-271.413 133.126,-268.034 170,-252 170.83,-251.639 171.669,-251.274 172.516,-250.906"/>
<polygon fill="black" stroke="black" points="173.956,-254.096 181.728,-246.895 171.162,-247.678 173.956,-254.096"/>
<g id="a_edge1&#45;headlabel"><a xlink:href="dir_000158_000198.html" target="_top" xlink:title="5">
<text text-anchor="middle" x="171.793" y="-255.634" font-family="Helvetica,sans-Serif" font-size="10.00">5</text>
</a>
</g>
</g>
<!-- dir_4ab6b4cc6a7edbff49100e9123df213f -->
<g id="node5" class="node"><title>dir_4ab6b4cc6a7edbff49100e9123df213f</title>
<g id="a_node5"><a xlink:href="dir_4ab6b4cc6a7edbff49100e9123df213f.html" target="_top" xlink:title="Common">
<polygon fill="none" stroke="red" points="179.5,-108 124.5,-108 124.5,-72 179.5,-72 179.5,-108"/>
<text text-anchor="middle" x="152" y="-87.5" font-family="Helvetica,sans-Serif" font-size="10.00">Common</text>
</a>
</g>
</g>
<!-- dir_0355333a068ab019f0e92698f15a77e4&#45;&gt;dir_4ab6b4cc6a7edbff49100e9123df213f -->
<g id="edge2" class="edge"><title>dir_0355333a068ab019f0e92698f15a77e4&#45;&gt;dir_4ab6b4cc6a7edbff49100e9123df213f</title>
<path fill="none" stroke="black" d="M69.93,-287.859C79.729,-278.141 91.2335,-265.291 99,-252 124.32,-208.67 139.426,-151.62 146.69,-118.359"/>
<polygon fill="black" stroke="black" points="150.142,-118.95 148.775,-108.444 143.292,-117.509 150.142,-118.95"/>
<g id="a_edge2&#45;headlabel"><a xlink:href="dir_000158_000016.html" target="_top" xlink:title="1">
<text text-anchor="middle" x="152.18" y="-120.552" font-family="Helvetica,sans-Serif" font-size="10.00">1</text>
</a>
</g>
</g>
<!-- dir_0355333a068ab019f0e92698f15a77e4&#45;&gt;dir_85bf31a2e8d306e7598ffcb73f8df6bf -->
<g id="edge3" class="edge"><title>dir_0355333a068ab019f0e92698f15a77e4&#45;&gt;dir_85bf31a2e8d306e7598ffcb73f8df6bf</title>
<path fill="none" stroke="black" d="M78.2612,-291.377C81.1756,-290.147 84.1255,-288.993 87,-288 155.075,-264.485 200.084,-308.301 245,-252 258.872,-234.611 254.117,-208.863 247.221,-189.529"/>
<polygon fill="black" stroke="black" points="250.423,-188.107 243.507,-180.081 243.908,-190.668 250.423,-188.107"/>
<g id="a_edge3&#45;headlabel"><a xlink:href="dir_000158_000164.html" target="_top" xlink:title="4">
<text text-anchor="middle" x="254.381" y="-187.914" font-family="Helvetica,sans-Serif" font-size="10.00">4</text>
</a>
</g>
</g>
<!-- dir_0355333a068ab019f0e92698f15a77e4&#45;&gt;dir_2171f7ec022c5423887b07c69b2f5b48 -->
<g id="edge5" class="edge"><title>dir_0355333a068ab019f0e92698f15a77e4&#45;&gt;dir_2171f7ec022c5423887b07c69b2f5b48</title>
<path fill="none" stroke="black" d="M41.0461,-287.978C35.7281,-277.888 29.7281,-264.638 27,-252 22.1235,-229.409 24.0083,-222.917 27,-200 34.6197,-141.634 30.484,-122.334 61,-72 67.6297,-61.0649 77.182,-51.0311 86.6273,-42.7049"/>
<polygon fill="black" stroke="black" points="89.055,-45.2369 94.4697,-36.1302 84.5578,-39.8726 89.055,-45.2369"/>
<g id="a_edge5&#45;headlabel"><a xlink:href="dir_000158_000043.html" target="_top" xlink:title="2">
<text text-anchor="middle" x="88.1244" y="-47.2221" font-family="Helvetica,sans-Serif" font-size="10.00">2</text>
</a>
</g>
</g>
<!-- dir_eedff867f3c4e67d20b227cb6e0f96ab&#45;&gt;dir_4ab6b4cc6a7edbff49100e9123df213f -->
<g id="edge6" class="edge"><title>dir_eedff867f3c4e67d20b227cb6e0f96ab&#45;&gt;dir_4ab6b4cc6a7edbff49100e9123df213f</title>
<path fill="none" stroke="black" d="M202.124,-215.871C192.324,-191.457 174.248,-146.426 162.692,-117.635"/>
<polygon fill="black" stroke="black" points="165.873,-116.166 158.9,-108.189 159.377,-118.773 165.873,-116.166"/>
<g id="a_edge6&#45;headlabel"><a xlink:href="dir_000198_000016.html" target="_top" xlink:title="2">
<text text-anchor="middle" x="169.847" y="-115.944" font-family="Helvetica,sans-Serif" font-size="10.00">2</text>
</a>
</g>
</g>
<!-- dir_eedff867f3c4e67d20b227cb6e0f96ab&#45;&gt;dir_37c90836491b695b472bf98d1be8336b -->
<g id="edge7" class="edge"><title>dir_eedff867f3c4e67d20b227cb6e0f96ab&#45;&gt;dir_37c90836491b695b472bf98d1be8336b</title>
<path fill="none" stroke="black" d="M190.79,-215.748C184.497,-210.301 177.21,-204.529 170,-200 155.533,-190.914 138.456,-182.895 123.564,-176.665"/>
<polygon fill="black" stroke="black" points="124.724,-173.359 114.143,-172.837 122.089,-179.844 124.724,-173.359"/>
<g id="a_edge7&#45;headlabel"><a xlink:href="dir_000198_000122.html" target="_top" xlink:title="2">
<text text-anchor="middle" x="129.124" y="-169.582" font-family="Helvetica,sans-Serif" font-size="10.00">2</text>
</a>
</g>
</g>
<!-- dir_eedff867f3c4e67d20b227cb6e0f96ab&#45;&gt;dir_85bf31a2e8d306e7598ffcb73f8df6bf -->
<g id="edge8" class="edge"><title>dir_eedff867f3c4e67d20b227cb6e0f96ab&#45;&gt;dir_85bf31a2e8d306e7598ffcb73f8df6bf</title>
<path fill="none" stroke="black" d="M215.427,-215.697C218.355,-207.813 221.887,-198.304 225.14,-189.546"/>
<polygon fill="black" stroke="black" points="228.446,-190.697 228.647,-180.104 221.884,-188.26 228.446,-190.697"/>
<g id="a_edge8&#45;headlabel"><a xlink:href="dir_000198_000164.html" target="_top" xlink:title="2">
<text text-anchor="middle" x="229.856" y="-192.556" font-family="Helvetica,sans-Serif" font-size="10.00">2</text>
</a>
</g>
</g>
<!-- dir_eedff867f3c4e67d20b227cb6e0f96ab&#45;&gt;dir_2171f7ec022c5423887b07c69b2f5b48 -->
<g id="edge9" class="edge"><title>dir_eedff867f3c4e67d20b227cb6e0f96ab&#45;&gt;dir_2171f7ec022c5423887b07c69b2f5b48</title>
<path fill="none" stroke="black" d="M236.236,-217.535C249.351,-208.463 263.771,-195.691 271,-180 277.695,-165.468 276.258,-159.112 271,-144 253.902,-94.8574 203.356,-59.9471 165.208,-39.727"/>
<polygon fill="black" stroke="black" points="166.789,-36.6048 156.295,-35.1474 163.59,-42.8309 166.789,-36.6048"/>
<g id="a_edge9&#45;headlabel"><a xlink:href="dir_000198_000043.html" target="_top" xlink:title="1">
<text text-anchor="middle" x="171.284" y="-33.2223" font-family="Helvetica,sans-Serif" font-size="10.00">1</text>
</a>
</g>
</g>
<!-- dir_4ab6b4cc6a7edbff49100e9123df213f&#45;&gt;dir_2171f7ec022c5423887b07c69b2f5b48 -->
<g id="edge10" class="edge"><title>dir_4ab6b4cc6a7edbff49100e9123df213f&#45;&gt;dir_2171f7ec022c5423887b07c69b2f5b48</title>
<path fill="none" stroke="black" d="M137.927,-71.6966C133.397,-63.8132 128.696,-54.3042 124.943,-45.5464"/>
<polygon fill="black" stroke="black" points="128.13,-44.0907 121.168,-36.1043 121.63,-46.6891 128.13,-44.0907"/>
<g id="a_edge10&#45;headlabel"><a xlink:href="dir_000016_000043.html" target="_top" xlink:title="1">
<text text-anchor="middle" x="132.101" y="-43.8747" font-family="Helvetica,sans-Serif" font-size="10.00">1</text>
</a>
</g>
</g>
<!-- dir_37c90836491b695b472bf98d1be8336b&#45;&gt;dir_4ab6b4cc6a7edbff49100e9123df213f -->
<g id="edge11" class="edge"><title>dir_37c90836491b695b472bf98d1be8336b&#45;&gt;dir_4ab6b4cc6a7edbff49100e9123df213f</title>
<path fill="none" stroke="black" d="M103.067,-143.697C110.939,-135.22 120.555,-124.864 129.173,-115.583"/>
<polygon fill="black" stroke="black" points="131.878,-117.814 136.117,-108.104 126.748,-113.051 131.878,-117.814"/>
<g id="a_edge11&#45;headlabel"><a xlink:href="dir_000122_000016.html" target="_top" xlink:title="5">
<text text-anchor="middle" x="131.512" y="-119.88" font-family="Helvetica,sans-Serif" font-size="10.00">5</text>
</a>
</g>
</g>
<!-- dir_37c90836491b695b472bf98d1be8336b&#45;&gt;dir_2171f7ec022c5423887b07c69b2f5b48 -->
<g id="edge12" class="edge"><title>dir_37c90836491b695b472bf98d1be8336b&#45;&gt;dir_2171f7ec022c5423887b07c69b2f5b48</title>
<path fill="none" stroke="black" d="M86.2755,-143.871C89.1836,-119.564 98.9843,-74.8187 107.48,-46.0132"/>
<polygon fill="black" stroke="black" points="110.907,-46.7776 110.535,-36.1893 104.223,-44.6985 110.907,-46.7776"/>
<g id="a_edge12&#45;headlabel"><a xlink:href="dir_000122_000043.html" target="_top" xlink:title="5">
<text text-anchor="middle" x="112.551" y="-48.5532" font-family="Helvetica,sans-Serif" font-size="10.00">5</text>
</a>
</g>
</g>
<!-- dir_85bf31a2e8d306e7598ffcb73f8df6bf&#45;&gt;dir_4ab6b4cc6a7edbff49100e9123df213f -->
<g id="edge13" class="edge"><title>dir_85bf31a2e8d306e7598ffcb73f8df6bf&#45;&gt;dir_4ab6b4cc6a7edbff49100e9123df213f</title>
<path fill="none" stroke="black" d="M214.483,-143.697C204.131,-134.965 191.414,-124.24 180.161,-114.75"/>
<polygon fill="black" stroke="black" points="182.182,-111.876 172.281,-108.104 177.669,-117.227 182.182,-111.876"/>
<g id="a_edge13&#45;headlabel"><a xlink:href="dir_000164_000016.html" target="_top" xlink:title="2">
<text text-anchor="middle" x="186.76" y="-109.523" font-family="Helvetica,sans-Serif" font-size="10.00">2</text>
</a>
</g>
</g>
<!-- dir_85bf31a2e8d306e7598ffcb73f8df6bf&#45;&gt;dir_2171f7ec022c5423887b07c69b2f5b48 -->
<g id="edge14" class="edge"><title>dir_85bf31a2e8d306e7598ffcb73f8df6bf&#45;&gt;dir_2171f7ec022c5423887b07c69b2f5b48</title>
<path fill="none" stroke="black" d="M228.593,-143.954C220.914,-125.01 206.705,-94.1696 188,-72 178.516,-60.759 166.265,-50.4019 154.723,-41.8824"/>
<polygon fill="black" stroke="black" points="156.669,-38.9714 146.494,-36.0174 152.606,-44.6716 156.669,-38.9714"/>
<g id="a_edge14&#45;headlabel"><a xlink:href="dir_000164_000043.html" target="_top" xlink:title="17">
<text text-anchor="middle" x="161.244" y="-36.2456" font-family="Helvetica,sans-Serif" font-size="10.00">17</text>
</a>
</g>
</g>
<!-- dir_2171f7ec022c5423887b07c69b2f5b48&#45;&gt;dir_4ab6b4cc6a7edbff49100e9123df213f -->
<g id="edge18" class="edge"><title>dir_2171f7ec022c5423887b07c69b2f5b48&#45;&gt;dir_4ab6b4cc6a7edbff49100e9123df213f</title>
<path fill="none" stroke="black" d="M132.959,-36.1043C137.485,-43.9602 142.193,-53.4616 145.962,-62.232"/>
<polygon fill="black" stroke="black" points="142.787,-63.7184 149.758,-71.6966 149.284,-61.1124 142.787,-63.7184"/>
<g id="a_edge18&#45;headlabel"><a xlink:href="dir_000043_000016.html" target="_top" xlink:title="15">
<text text-anchor="middle" x="138.814" y="-58.9392" font-family="Helvetica,sans-Serif" font-size="10.00">15</text>
</a>
</g>
</g>
<!-- dir_2171f7ec022c5423887b07c69b2f5b48&#45;&gt;dir_37c90836491b695b472bf98d1be8336b -->
<g id="edge19" class="edge"><title>dir_2171f7ec022c5423887b07c69b2f5b48&#45;&gt;dir_37c90836491b695b472bf98d1be8336b</title>
<path fill="none" stroke="black" d="M119.717,-36.1893C116.798,-60.5311 106.992,-105.28 98.499,-134.059"/>
<polygon fill="black" stroke="black" points="95.0748,-133.283 95.4444,-143.871 101.759,-135.364 95.0748,-133.283"/>
<g id="a_edge19&#45;headlabel"><a xlink:href="dir_000043_000122.html" target="_top" xlink:title="1">
<text text-anchor="middle" x="93.4322" y="-126.507" font-family="Helvetica,sans-Serif" font-size="10.00">1</text>
</a>
</g>
</g>
</g>
</svg>
