<?xml version="1.0" encoding="UTF-8" standalone="no"?>
<!DOCTYPE svg PUBLIC "-//W3C//DTD SVG 1.1//EN"
 "http://www.w3.org/Graphics/SVG/1.1/DTD/svg11.dtd">
<!-- Generated by graphviz version 2.36.0 (20140111.2315)
 -->
<!-- Title: Graphical Class Hierarchy Pages: 1 -->
<svg width="482pt" height="811pt"
 viewBox="0.00 0.00 482.00 811.00" xmlns="http://www.w3.org/2000/svg" xmlns:xlink="http://www.w3.org/1999/xlink">
<g id="graph0" class="graph" transform="scale(1 1) rotate(0) translate(4 807)">
<title>Graphical Class Hierarchy</title>
<!-- Node1 -->
<g id="node1" class="node"><title>Node1</title>
<g id="a_node1"><a xlink:href="db/dfe/classFairMQDevice.html" target="_top" xlink:title="FairMQDevice">
<polygon fill="none" stroke="black" points="0,-355.5 0,-374.5 80,-374.5 80,-355.5 0,-355.5"/>
<text text-anchor="middle" x="40" y="-362.5" font-family="Helvetica,sans-Serif" font-size="10.00">FairMQDevice</text>
</a>
</g>
</g>
<!-- Node2 -->
<g id="node2" class="node"><title>Node2</title>
<g id="a_node2"><a xlink:href="d7/dd9/classo2_1_1alice__hlt_1_1EventSampler.html" target="_top" xlink:title="o2::alice_hlt::EventSampler">
<polygon fill="none" stroke="black" points="125.5,-693.5 125.5,-712.5 262.5,-712.5 262.5,-693.5 125.5,-693.5"/>
<text text-anchor="middle" x="194" y="-700.5" font-family="Helvetica,sans-Serif" font-size="10.00">o2::alice_hlt::EventSampler</text>
</a>
</g>
</g>
<!-- Node1&#45;&gt;Node2 -->
<g id="edge1" class="edge"><title>Node1&#45;&gt;Node2</title>
<path fill="none" stroke="midnightblue" d="M42.9651,-384.711C49.611,-447.429 73.2529,-640.78 116,-684 119.776,-687.818 124.189,-690.914 128.956,-693.418"/>
<polygon fill="midnightblue" stroke="midnightblue" points="46.4284,-384.174 41.9212,-374.586 39.4653,-384.892 46.4284,-384.174"/>
</g>
<!-- Node3 -->
<g id="node3" class="node"><title>Node3</title>
<g id="a_node3"><a xlink:href="d5/df3/classo2_1_1alice__hlt_1_1WrapperDevice.html" target="_top" xlink:title="o2::alice_hlt::WrapperDevice">
<polygon fill="none" stroke="black" points="122.5,-655.5 122.5,-674.5 265.5,-674.5 265.5,-655.5 122.5,-655.5"/>
<text text-anchor="middle" x="194" y="-662.5" font-family="Helvetica,sans-Serif" font-size="10.00">o2::alice_hlt::WrapperDevice</text>
</a>
</g>
</g>
<!-- Node1&#45;&gt;Node3 -->
<g id="edge2" class="edge"><title>Node1&#45;&gt;Node3</title>
<path fill="none" stroke="midnightblue" d="M43.6202,-384.588C51.6984,-442.089 77.9897,-608.701 116,-646 119.931,-649.857 124.514,-652.973 129.448,-655.485"/>
<polygon fill="midnightblue" stroke="midnightblue" points="47.0784,-384.044 42.2494,-374.613 40.1436,-384.997 47.0784,-384.044"/>
</g>
<!-- Node4 -->
<g id="node4" class="node"><title>Node4</title>
<g id="a_node4"><a xlink:href="da/df6/classo2_1_1Base_1_1O2Device.html" target="_top" xlink:title="o2::Base::O2Device">
<polygon fill="none" stroke="black" points="141.5,-617.5 141.5,-636.5 246.5,-636.5 246.5,-617.5 141.5,-617.5"/>
<text text-anchor="middle" x="194" y="-624.5" font-family="Helvetica,sans-Serif" font-size="10.00">o2::Base::O2Device</text>
</a>
</g>
</g>
<!-- Node1&#45;&gt;Node4 -->
<g id="edge3" class="edge"><title>Node1&#45;&gt;Node4</title>
<path fill="none" stroke="midnightblue" d="M40.9488,-384.778C41.9555,-430.999 51.1864,-546.807 116,-608 123.008,-614.617 131.941,-619.036 141.222,-621.964"/>
<polygon fill="midnightblue" stroke="midnightblue" points="44.4469,-384.564 40.8413,-374.601 37.4472,-384.638 44.4469,-384.564"/>
</g>
<!-- Node13 -->
<g id="node13" class="node"><title>Node13</title>
<g id="a_node13"><a xlink:href="d1/d6f/classo2_1_1CDB_1_1ConditionsMQClient.html" target="_top" xlink:title="o2::CDB::ConditionsMQClient">
<polygon fill="none" stroke="black" points="119.5,-579.5 119.5,-598.5 268.5,-598.5 268.5,-579.5 119.5,-579.5"/>
<text text-anchor="middle" x="194" y="-586.5" font-family="Helvetica,sans-Serif" font-size="10.00">o2::CDB::ConditionsMQClient</text>
</a>
</g>
</g>
<!-- Node1&#45;&gt;Node13 -->
<g id="edge12" class="edge"><title>Node1&#45;&gt;Node13</title>
<path fill="none" stroke="midnightblue" d="M42.2848,-385.003C46.0362,-426.086 60.5509,-520.278 116,-570 120.305,-573.861 125.271,-576.966 130.564,-579.46"/>
<polygon fill="midnightblue" stroke="midnightblue" points="45.7638,-384.598 41.4871,-374.905 38.7856,-385.149 45.7638,-384.598"/>
</g>
<!-- Node14 -->
<g id="node14" class="node"><title>Node14</title>
<g id="a_node14"><a xlink:href="df/d95/classo2_1_1Devices_1_1EPNReceiver.html" target="_top" xlink:title="Receives sub&#45;timeframes from the flpSenders and merges these into full timeframes. ">
<polygon fill="none" stroke="black" points="126.5,-541.5 126.5,-560.5 261.5,-560.5 261.5,-541.5 126.5,-541.5"/>
<text text-anchor="middle" x="194" y="-548.5" font-family="Helvetica,sans-Serif" font-size="10.00">o2::Devices::EPNReceiver</text>
</a>
</g>
</g>
<!-- Node1&#45;&gt;Node14 -->
<g id="edge13" class="edge"><title>Node1&#45;&gt;Node14</title>
<path fill="none" stroke="midnightblue" d="M44.181,-384.473C50.9171,-419.292 69.959,-492.198 116,-531 121.175,-535.361 127.19,-538.786 133.534,-541.472"/>
<polygon fill="midnightblue" stroke="midnightblue" points="47.6202,-383.822 42.4078,-374.598 40.7304,-385.06 47.6202,-383.822"/>
</g>
<!-- Node15 -->
<g id="node15" class="node"><title>Node15</title>
<g id="a_node15"><a xlink:href="d5/d70/classo2_1_1Devices_1_1EPNReceiverDevice.html" target="_top" xlink:title="Receives sub&#45;timeframes from the flpSenders and merges these into full timeframes. ">
<polygon fill="none" stroke="black" points="126.5,-492 126.5,-522 261.5,-522 261.5,-492 126.5,-492"/>
<text text-anchor="start" x="134.5" y="-510" font-family="Helvetica,sans-Serif" font-size="10.00">o2::Devices::EPNReceiver</text>
<text text-anchor="middle" x="194" y="-499" font-family="Helvetica,sans-Serif" font-size="10.00">Device</text>
</a>
</g>
</g>
<!-- Node1&#45;&gt;Node15 -->
<g id="edge14" class="edge"><title>Node1&#45;&gt;Node15</title>
<path fill="none" stroke="midnightblue" d="M48.4235,-384.244C59.3698,-410.14 82.2583,-455.956 116,-482 121.007,-485.865 126.633,-489.143 132.505,-491.922"/>
<polygon fill="midnightblue" stroke="midnightblue" points="51.5855,-382.727 44.5819,-374.778 45.0993,-385.36 51.5855,-382.727"/>
</g>
<!-- Node16 -->
<g id="node16" class="node"><title>Node16</title>
<g id="a_node16"><a xlink:href="da/d8b/classo2_1_1Devices_1_1FLPSender.html" target="_top" xlink:title="o2::Devices::FLPSender">
<polygon fill="none" stroke="black" points="132,-453.5 132,-472.5 256,-472.5 256,-453.5 132,-453.5"/>
<text text-anchor="middle" x="194" y="-460.5" font-family="Helvetica,sans-Serif" font-size="10.00">o2::Devices::FLPSender</text>
</a>
</g>
</g>
<!-- Node1&#45;&gt;Node16 -->
<g id="edge15" class="edge"><title>Node1&#45;&gt;Node16</title>
<path fill="none" stroke="midnightblue" d="M53.4585,-383.259C66.8154,-401.414 89.6869,-428.701 116,-444 122.666,-447.876 130.1,-450.965 137.647,-453.426"/>
<polygon fill="midnightblue" stroke="midnightblue" points="56.0235,-380.827 47.3731,-374.71 50.3206,-384.886 56.0235,-380.827"/>
</g>
<!-- Node17 -->
<g id="node17" class="node"><title>Node17</title>
<g id="a_node17"><a xlink:href="d3/db6/classo2_1_1Devices_1_1FLPSenderDevice.html" target="_top" xlink:title="o2::Devices::FLPSenderDevice">
<polygon fill="none" stroke="black" points="116.5,-415.5 116.5,-434.5 271.5,-434.5 271.5,-415.5 116.5,-415.5"/>
<text text-anchor="middle" x="194" y="-422.5" font-family="Helvetica,sans-Serif" font-size="10.00">o2::Devices::FLPSenderDevice</text>
</a>
</g>
</g>
<!-- Node1&#45;&gt;Node17 -->
<g id="edge16" class="edge"><title>Node1&#45;&gt;Node17</title>
<path fill="none" stroke="midnightblue" d="M64.413,-379.85C78.8363,-388.471 97.9625,-398.981 116,-406 125.495,-409.695 135.935,-412.841 145.98,-415.448"/>
<polygon fill="midnightblue" stroke="midnightblue" points="66.0313,-376.737 55.6726,-374.513 62.3832,-382.712 66.0313,-376.737"/>
</g>
<!-- Node18 -->
<g id="node18" class="node"><title>Node18</title>
<g id="a_node18"><a xlink:href="d9/dbe/classo2_1_1Devices_1_1FLPSyncSampler.html" target="_top" xlink:title="Publishes timeframes IDs for flpSenders (used only in test mode) ">
<polygon fill="none" stroke="black" points="118,-377.5 118,-396.5 270,-396.5 270,-377.5 118,-377.5"/>
<text text-anchor="middle" x="194" y="-384.5" font-family="Helvetica,sans-Serif" font-size="10.00">o2::Devices::FLPSyncSampler</text>
</a>
</g>
</g>
<!-- Node1&#45;&gt;Node18 -->
<g id="edge17" class="edge"><title>Node1&#45;&gt;Node18</title>
<path fill="none" stroke="midnightblue" d="M90.2106,-372.123C101.993,-373.828 114.761,-375.676 127.161,-377.471"/>
<polygon fill="midnightblue" stroke="midnightblue" points="90.542,-368.634 80.1438,-370.666 89.5393,-375.562 90.542,-368.634"/>
</g>
<!-- Node19 -->
<g id="node19" class="node"><title>Node19</title>
<g id="a_node19"><a xlink:href="d4/d56/classo2_1_1framework_1_1DataProcessingDevice.html" target="_top" xlink:title="o2::framework::DataProcessing\lDevice">
<polygon fill="none" stroke="black" points="116.5,-328 116.5,-358 271.5,-358 271.5,-328 116.5,-328"/>
<text text-anchor="start" x="124.5" y="-346" font-family="Helvetica,sans-Serif" font-size="10.00">o2::framework::DataProcessing</text>
<text text-anchor="middle" x="194" y="-335" font-family="Helvetica,sans-Serif" font-size="10.00">Device</text>
</a>
</g>
</g>
<!-- Node1&#45;&gt;Node19 -->
<g id="edge18" class="edge"><title>Node1&#45;&gt;Node19</title>
<path fill="none" stroke="midnightblue" d="M90.1493,-357.886C98.5853,-356.665 107.528,-355.371 116.48,-354.075"/>
<polygon fill="midnightblue" stroke="midnightblue" points="89.5393,-354.438 80.1438,-359.334 90.542,-361.366 89.5393,-354.438"/>
</g>
<!-- Node20 -->
<g id="node20" class="node"><title>Node20</title>
<g id="a_node20"><a xlink:href="de/d58/classo2_1_1framework_1_1DataSourceDevice.html" target="_top" xlink:title="o2::framework::DataSource\lDevice">
<polygon fill="none" stroke="black" points="125.5,-279 125.5,-309 262.5,-309 262.5,-279 125.5,-279"/>
<text text-anchor="start" x="133.5" y="-297" font-family="Helvetica,sans-Serif" font-size="10.00">o2::framework::DataSource</text>
<text text-anchor="middle" x="194" y="-286" font-family="Helvetica,sans-Serif" font-size="10.00">Device</text>
</a>
</g>
</g>
<!-- Node1&#45;&gt;Node20 -->
<g id="edge19" class="edge"><title>Node1&#45;&gt;Node20</title>
<path fill="none" stroke="midnightblue" d="M62.8815,-349.669C77.4457,-339.952 97.2761,-327.634 116,-319 123.913,-315.351 132.51,-312.003 140.995,-309.025"/>
<polygon fill="midnightblue" stroke="midnightblue" points="60.857,-346.813 54.5507,-355.326 64.7897,-352.603 60.857,-346.813"/>
</g>
<!-- Node21 -->
<g id="node21" class="node"><title>Node21</title>
<g id="a_node21"><a xlink:href="d3/d75/classo2_1_1mch_1_1DumpDigits.html" target="_top" xlink:title="o2::mch::DumpDigits">
<polygon fill="none" stroke="black" points="139,-240.5 139,-259.5 249,-259.5 249,-240.5 139,-240.5"/>
<text text-anchor="middle" x="194" y="-247.5" font-family="Helvetica,sans-Serif" font-size="10.00">o2::mch::DumpDigits</text>
</a>
</g>
</g>
<!-- Node1&#45;&gt;Node21 -->
<g id="edge20" class="edge"><title>Node1&#45;&gt;Node21</title>
<path fill="none" stroke="midnightblue" d="M50.7729,-346.307C63.0743,-324.638 86.2444,-289.423 116,-270 122.939,-265.47 130.856,-261.965 138.91,-259.253"/>
<polygon fill="midnightblue" stroke="midnightblue" points="47.6339,-344.752 45.901,-355.204 53.7738,-348.114 47.6339,-344.752"/>
</g>
<!-- Node22 -->
<g id="node22" class="node"><title>Node22</title>
<g id="a_node22"><a xlink:href="d7/dc2/classo2_1_1mch_1_1PreClusterFinderDevice.html" target="_top" xlink:title="o2::mch::PreClusterFinder\lDevice">
<polygon fill="none" stroke="black" points="128.5,-191 128.5,-221 259.5,-221 259.5,-191 128.5,-191"/>
<text text-anchor="start" x="136.5" y="-209" font-family="Helvetica,sans-Serif" font-size="10.00">o2::mch::PreClusterFinder</text>
<text text-anchor="middle" x="194" y="-198" font-family="Helvetica,sans-Serif" font-size="10.00">Device</text>
</a>
</g>
</g>
<!-- Node1&#45;&gt;Node22 -->
<g id="edge21" class="edge"><title>Node1&#45;&gt;Node22</title>
<path fill="none" stroke="midnightblue" d="M46.8109,-345.492C56.463,-316.39 78.539,-261.744 116,-231 120.672,-227.166 125.947,-223.914 131.49,-221.158"/>
<polygon fill="midnightblue" stroke="midnightblue" points="43.3899,-344.703 43.7138,-355.293 50.0645,-346.812 43.3899,-344.703"/>
</g>
<!-- Node23 -->
<g id="node23" class="node"><title>Node23</title>
<g id="a_node23"><a xlink:href="df/d14/classo2_1_1qc_1_1MergerDevice.html" target="_top" xlink:title="o2::qc::MergerDevice">
<polygon fill="none" stroke="black" points="139,-152.5 139,-171.5 249,-171.5 249,-152.5 139,-152.5"/>
<text text-anchor="middle" x="194" y="-159.5" font-family="Helvetica,sans-Serif" font-size="10.00">o2::qc::MergerDevice</text>
</a>
</g>
</g>
<!-- Node1&#45;&gt;Node23 -->
<g id="edge22" class="edge"><title>Node1&#45;&gt;Node23</title>
<path fill="none" stroke="midnightblue" d="M43.3205,-345.145C48.802,-307.496 66.0835,-225.602 116,-182 122.553,-176.276 130.544,-172.158 138.869,-169.202"/>
<polygon fill="midnightblue" stroke="midnightblue" points="39.8166,-344.945 41.9752,-355.318 46.7562,-345.863 39.8166,-344.945"/>
</g>
<!-- Node24 -->
<g id="node24" class="node"><title>Node24</title>
<g id="a_node24"><a xlink:href="d1/d14/classo2_1_1qc_1_1ProducerDevice.html" target="_top" xlink:title="o2::qc::ProducerDevice">
<polygon fill="none" stroke="black" points="134.5,-114.5 134.5,-133.5 253.5,-133.5 253.5,-114.5 134.5,-114.5"/>
<text text-anchor="middle" x="194" y="-121.5" font-family="Helvetica,sans-Serif" font-size="10.00">o2::qc::ProducerDevice</text>
</a>
</g>
</g>
<!-- Node1&#45;&gt;Node24 -->
<g id="edge23" class="edge"><title>Node1&#45;&gt;Node24</title>
<path fill="none" stroke="midnightblue" d="M41.6279,-345.163C44.1175,-301.755 56.3456,-197.849 116,-143 121.271,-138.154 127.577,-134.493 134.281,-131.735"/>
<polygon fill="midnightblue" stroke="midnightblue" points="38.1262,-345.124 41.1669,-355.273 45.1189,-345.443 38.1262,-345.124"/>
</g>
<!-- Node25 -->
<g id="node25" class="node"><title>Node25</title>
<g id="a_node25"><a xlink:href="d9/dd9/classo2_1_1qc_1_1ViewerDevice.html" target="_top" xlink:title="o2::qc::ViewerDevice">
<polygon fill="none" stroke="black" points="139,-76.5 139,-95.5 249,-95.5 249,-76.5 139,-76.5"/>
<text text-anchor="middle" x="194" y="-83.5" font-family="Helvetica,sans-Serif" font-size="10.00">o2::qc::ViewerDevice</text>
</a>
</g>
</g>
<!-- Node1&#45;&gt;Node25 -->
<g id="edge24" class="edge"><title>Node1&#45;&gt;Node25</title>
<path fill="none" stroke="midnightblue" d="M40.4757,-345.165C40.3346,-296.688 47.0377,-171.329 116,-105 122.351,-98.8913 130.339,-94.6494 138.749,-91.7228"/>
<polygon fill="midnightblue" stroke="midnightblue" points="36.9774,-345.32 40.6131,-355.272 43.9768,-345.225 36.9774,-345.32"/>
</g>
<!-- Node26 -->
<g id="node26" class="node"><title>Node26</title>
<g id="a_node26"><a xlink:href="d3/d79/classO2EPNex.html" target="_top" xlink:title="O2EPNex">
<polygon fill="none" stroke="black" points="163.5,-38.5 163.5,-57.5 224.5,-57.5 224.5,-38.5 163.5,-38.5"/>
<text text-anchor="middle" x="194" y="-45.5" font-family="Helvetica,sans-Serif" font-size="10.00">O2EPNex</text>
</a>
</g>
</g>
<!-- Node1&#45;&gt;Node26 -->
<g id="edge25" class="edge"><title>Node1&#45;&gt;Node26</title>
<path fill="none" stroke="midnightblue" d="M43.2999,-345.42C50.7133,-285.612 75.8604,-106.954 116,-67 128.394,-54.6638 147.441,-49.8913 163.49,-48.214"/>
<polygon fill="midnightblue" stroke="midnightblue" points="39.8149,-345.086 42.0882,-355.434 46.7642,-345.927 39.8149,-345.086"/>
</g>
<!-- Node27 -->
<g id="node27" class="node"><title>Node27</title>
<g id="a_node27"><a xlink:href="d4/d82/classO2FLPex.html" target="_top" xlink:title="O2FLPex">
<polygon fill="none" stroke="black" points="165,-0.5 165,-19.5 223,-19.5 223,-0.5 165,-0.5"/>
<text text-anchor="middle" x="194" y="-7.5" font-family="Helvetica,sans-Serif" font-size="10.00">O2FLPex</text>
</a>
</g>
</g>
<!-- Node1&#45;&gt;Node27 -->
<g id="edge26" class="edge"><title>Node1&#45;&gt;Node27</title>
<path fill="none" stroke="midnightblue" d="M42.7307,-345.09C48.7906,-279.97 71.1574,-74.8542 116,-29 128.611,-16.1042 148.479,-11.4312 164.874,-9.94226"/>
<polygon fill="midnightblue" stroke="midnightblue" points="39.2277,-344.967 41.8142,-355.241 46.1993,-345.597 39.2277,-344.967"/>
</g>
<!-- Node5 -->
<g id="node5" class="node"><title>Node5</title>
<g id="a_node5"><a xlink:href="d2/d4c/classo2_1_1DataFlow_1_1FakeTimeframeGeneratorDevice.html" target="_top" xlink:title="A device which writes to file the timeframes. ">
<polygon fill="none" stroke="black" points="316.5,-773 316.5,-803 465.5,-803 465.5,-773 316.5,-773"/>
<text text-anchor="start" x="324.5" y="-791" font-family="Helvetica,sans-Serif" font-size="10.00">o2::DataFlow::FakeTimeframe</text>
<text text-anchor="middle" x="391" y="-780" font-family="Helvetica,sans-Serif" font-size="10.00">GeneratorDevice</text>
</a>
</g>
</g>
<!-- Node4&#45;&gt;Node5 -->
<g id="edge4" class="edge"><title>Node4&#45;&gt;Node5</title>
<path fill="none" stroke="midnightblue" d="M256.165,-635.609C261.976,-638.259 267.403,-641.656 272,-646 311.544,-683.367 269.48,-724.579 308,-763 311.899,-766.889 316.384,-770.176 321.203,-772.954"/>
<polygon fill="midnightblue" stroke="midnightblue" points="257.374,-632.324 246.783,-632.031 254.88,-638.865 257.374,-632.324"/>
</g>
<!-- Node6 -->
<g id="node6" class="node"><title>Node6</title>
<g id="a_node6"><a xlink:href="d3/d5a/classo2_1_1DataFlow_1_1HeartbeatSampler.html" target="_top" xlink:title="A sampler for heartbeat triggers. ">
<polygon fill="none" stroke="black" points="311,-734.5 311,-753.5 471,-753.5 471,-734.5 311,-734.5"/>
<text text-anchor="middle" x="391" y="-741.5" font-family="Helvetica,sans-Serif" font-size="10.00">o2::DataFlow::HeartbeatSampler</text>
</a>
</g>
</g>
<!-- Node4&#45;&gt;Node6 -->
<g id="edge5" class="edge"><title>Node4&#45;&gt;Node6</title>
<path fill="none" stroke="midnightblue" d="M256.268,-636.539C261.938,-639.022 267.307,-642.125 272,-646 301.443,-670.308 278.524,-699.732 308,-724 313.204,-728.284 319.185,-731.675 325.496,-734.354"/>
<polygon fill="midnightblue" stroke="midnightblue" points="257.099,-633.115 246.506,-632.921 254.666,-639.678 257.099,-633.115"/>
</g>
<!-- Node7 -->
<g id="node7" class="node"><title>Node7</title>
<g id="a_node7"><a xlink:href="db/ded/classo2_1_1DataFlow_1_1SubframeBuilderDevice.html" target="_top" xlink:title="o2::DataFlow::SubframeBuilder\lDevice">
<polygon fill="none" stroke="black" points="314.5,-685 314.5,-715 467.5,-715 467.5,-685 314.5,-685"/>
<text text-anchor="start" x="322.5" y="-703" font-family="Helvetica,sans-Serif" font-size="10.00">o2::DataFlow::SubframeBuilder</text>
<text text-anchor="middle" x="391" y="-692" font-family="Helvetica,sans-Serif" font-size="10.00">Device</text>
</a>
</g>
</g>
<!-- Node4&#45;&gt;Node7 -->
<g id="edge6" class="edge"><title>Node4&#45;&gt;Node7</title>
<path fill="none" stroke="midnightblue" d="M256.408,-639.531C261.792,-641.41 267.065,-643.555 272,-646 290.41,-655.122 289.843,-665.385 308,-675 315.102,-678.761 322.857,-682.048 330.673,-684.893"/>
<polygon fill="midnightblue" stroke="midnightblue" points="257.234,-636.121 246.644,-636.429 255.115,-642.793 257.234,-636.121"/>
</g>
<!-- Node8 -->
<g id="node8" class="node"><title>Node8</title>
<g id="a_node8"><a xlink:href="d4/dea/classo2_1_1DataFlow_1_1TimeframeReaderDevice.html" target="_top" xlink:title="A device which writes to file the timeframes. ">
<polygon fill="none" stroke="black" points="311.5,-636 311.5,-666 470.5,-666 470.5,-636 311.5,-636"/>
<text text-anchor="start" x="319.5" y="-654" font-family="Helvetica,sans-Serif" font-size="10.00">o2::DataFlow::TimeframeReader</text>
<text text-anchor="middle" x="391" y="-643" font-family="Helvetica,sans-Serif" font-size="10.00">Device</text>
</a>
</g>
</g>
<!-- Node4&#45;&gt;Node8 -->
<g id="edge7" class="edge"><title>Node4&#45;&gt;Node8</title>
<path fill="none" stroke="midnightblue" d="M256.704,-634.594C273.997,-636.723 293.034,-639.066 311.175,-641.298"/>
<polygon fill="midnightblue" stroke="midnightblue" points="257.097,-631.116 246.744,-633.369 256.242,-638.064 257.097,-631.116"/>
</g>
<!-- Node9 -->
<g id="node9" class="node"><title>Node9</title>
<g id="a_node9"><a xlink:href="d8/d54/classo2_1_1DataFlow_1_1TimeframeValidatorDevice.html" target="_top" xlink:title="A validating device for time frame data (coming from EPN) ">
<polygon fill="none" stroke="black" points="308,-587 308,-617 474,-617 474,-587 308,-587"/>
<text text-anchor="start" x="316" y="-605" font-family="Helvetica,sans-Serif" font-size="10.00">o2::DataFlow::TimeframeValidator</text>
<text text-anchor="middle" x="391" y="-594" font-family="Helvetica,sans-Serif" font-size="10.00">Device</text>
</a>
</g>
</g>
<!-- Node4&#45;&gt;Node9 -->
<g id="edge8" class="edge"><title>Node4&#45;&gt;Node9</title>
<path fill="none" stroke="midnightblue" d="M257.101,-619.038C273.222,-616.972 290.837,-614.713 307.817,-612.536"/>
<polygon fill="midnightblue" stroke="midnightblue" points="256.218,-615.623 246.744,-620.366 257.108,-622.566 256.218,-615.623"/>
</g>
<!-- Node10 -->
<g id="node10" class="node"><title>Node10</title>
<g id="a_node10"><a xlink:href="d0/d3e/classo2_1_1DataFlow_1_1TimeframeWriterDevice.html" target="_top" xlink:title="A device which writes to file the timeframes. ">
<polygon fill="none" stroke="black" points="314,-538 314,-568 468,-568 468,-538 314,-538"/>
<text text-anchor="start" x="322" y="-556" font-family="Helvetica,sans-Serif" font-size="10.00">o2::DataFlow::TimeframeWriter</text>
<text text-anchor="middle" x="391" y="-545" font-family="Helvetica,sans-Serif" font-size="10.00">Device</text>
</a>
</g>
</g>
<!-- Node4&#45;&gt;Node10 -->
<g id="edge9" class="edge"><title>Node4&#45;&gt;Node10</title>
<path fill="none" stroke="midnightblue" d="M256.452,-614.556C261.827,-612.659 267.085,-610.486 272,-608 290.585,-598.599 289.676,-587.9 308,-578 314.94,-574.251 322.521,-570.982 330.18,-568.156"/>
<polygon fill="midnightblue" stroke="midnightblue" points="255.154,-611.297 246.699,-617.681 257.291,-617.963 255.154,-611.297"/>
</g>
<!-- Node11 -->
<g id="node11" class="node"><title>Node11</title>
<g id="a_node11"><a xlink:href="d7/dd8/classo2_1_1utilities_1_1DataPublisherDevice.html" target="_top" xlink:title="o2::utilities::DataPublisher\lDevice">
<polygon fill="none" stroke="black" points="325.5,-489 325.5,-519 456.5,-519 456.5,-489 325.5,-489"/>
<text text-anchor="start" x="333.5" y="-507" font-family="Helvetica,sans-Serif" font-size="10.00">o2::utilities::DataPublisher</text>
<text text-anchor="middle" x="391" y="-496" font-family="Helvetica,sans-Serif" font-size="10.00">Device</text>
</a>
</g>
</g>
<!-- Node4&#45;&gt;Node11 -->
<g id="edge10" class="edge"><title>Node4&#45;&gt;Node11</title>
<path fill="none" stroke="midnightblue" d="M256.287,-617.484C261.954,-614.997 267.316,-611.886 272,-608 301.695,-583.363 278.981,-554.43 308,-529 313.149,-524.488 319.095,-520.79 325.386,-517.76"/>
<polygon fill="midnightblue" stroke="midnightblue" points="254.686,-614.345 246.53,-621.107 257.123,-620.907 254.686,-614.345"/>
</g>
<!-- Node12 -->
<g id="node12" class="node"><title>Node12</title>
<g id="a_node12"><a xlink:href="de/d01/classO2MessageMonitor.html" target="_top" xlink:title="O2MessageMonitor">
<polygon fill="none" stroke="black" points="340.5,-450.5 340.5,-469.5 441.5,-469.5 441.5,-450.5 340.5,-450.5"/>
<text text-anchor="middle" x="391" y="-457.5" font-family="Helvetica,sans-Serif" font-size="10.00">O2MessageMonitor</text>
</a>
</g>
</g>
<!-- Node4&#45;&gt;Node12 -->
<g id="edge11" class="edge"><title>Node4&#45;&gt;Node12</title>
<path fill="none" stroke="midnightblue" d="M256.024,-618.617C261.909,-615.93 267.391,-612.463 272,-608 314.456,-566.892 265.489,-521.051 308,-480 316.749,-471.551 328.444,-466.479 340.256,-463.481"/>
<polygon fill="midnightblue" stroke="midnightblue" points="254.62,-615.406 246.514,-622.228 257.105,-621.951 254.62,-615.406"/>
</g>
</g>
</svg>
