<?xml version="1.0" encoding="UTF-8" standalone="no"?>
<!DOCTYPE svg PUBLIC "-//W3C//DTD SVG 1.1//EN"
 "http://www.w3.org/Graphics/SVG/1.1/DTD/svg11.dtd">
<!-- Generated by graphviz version 2.36.0 (20140111.2315)
 -->
<!-- Title: /home/travis/build/AliceO2Group/AliceO2/Detectors/ITSMFT/ITS/reconstruction/src/CAaux.cxx Pages: 1 -->
<!--zoomable 526 -->
<svg id="main" version="1.1" xmlns="http://www.w3.org/2000/svg" xmlns:xlink="http://www.w3.org/1999/xlink" xml:space="preserve" onload="init(evt)">
<style type="text/css"><![CDATA[
.edge:hover path { stroke: red; }
.edge:hover polygon { stroke: red; fill: red; }
]]></style>
<script type="text/javascript"><![CDATA[
var edges = document.getElementsByTagName('g');
if (edges && edges.length) {
  for (var i=0;i<edges.length;i++) {
    if (edges[i].id.substr(0,4)=='edge') {
      edges[i].setAttribute('class','edge');
    }
  }
}
]]></script>
        <defs>
                <circle id="rim" cx="0" cy="0" r="7"/>
                <circle id="rim2" cx="0" cy="0" r="3.5"/>
                <g id="zoomPlus">
                        <use xlink:href="#rim" fill="#404040">
                                <set attributeName="fill" to="#808080" begin="zoomplus.mouseover" end="zoomplus.mouseout"/>
                        </use>
                        <path d="M-4,0h8M0,-4v8" fill="none" stroke="white" stroke-width="1.5" pointer-events="none"/>
                </g>
                <g id="zoomMin">
                        <use xlink:href="#rim" fill="#404040">
                                <set attributeName="fill" to="#808080" begin="zoomminus.mouseover" end="zoomminus.mouseout"/>
                        </use>
                        <path d="M-4,0h8" fill="none" stroke="white" stroke-width="1.5" pointer-events="none"/>
                </g>
                <g id="dirArrow">
                        <path fill="none" stroke="white" stroke-width="1.5" d="M0,-3.0v7 M-2.5,-0.5L0,-3.0L2.5,-0.5"/>
                </g>
               <g id="resetDef">
                       <use xlink:href="#rim2" fill="#404040">
                               <set attributeName="fill" to="#808080" begin="reset.mouseover" end="reset.mouseout"/>
                       </use>
               </g>
        </defs>

<script type="text/javascript">
var viewWidth = 1989;
var viewHeight = 526;
var sectionId = 'dynsection-0';
</script>
<script xlink:href="../../svgpan.js"/>
<svg id="graph" class="graph">
<g id="viewport">
<title>/home/travis/build/AliceO2Group/AliceO2/Detectors/ITSMFT/ITS/reconstruction/src/CAaux.cxx</title>
<!-- Node1 -->
<g id="node1" class="node"><title>Node1</title>
<polygon fill="#bfbfbf" stroke="black" points="1248.5,-465 1248.5,-517 1397.5,-517 1397.5,-465 1248.5,-465"/>
<text text-anchor="start" x="1256.5" y="-505" font-family="Helvetica,sans-Serif" font-size="10.00">/home/travis/build</text>
<text text-anchor="start" x="1256.5" y="-494" font-family="Helvetica,sans-Serif" font-size="10.00">/AliceO2Group/AliceO2</text>
<text text-anchor="start" x="1256.5" y="-483" font-family="Helvetica,sans-Serif" font-size="10.00">/Detectors/ITSMFT/ITS</text>
<text text-anchor="middle" x="1323" y="-472" font-family="Helvetica,sans-Serif" font-size="10.00">/reconstruction/src/CAaux.cxx</text>
</g>
<!-- Node2 -->
<g id="node2" class="node"><title>Node2</title>
<g id="a_node2"><a xlink:href="../../d1/db5/CAaux_8h.html" target="_top" xlink:title="ITSReconstruction/CAaux.h">
<polygon fill="none" stroke="black" points="333,-408.5 333,-427.5 473,-427.5 473,-408.5 333,-408.5"/>
<text text-anchor="middle" x="403" y="-415.5" font-family="Helvetica,sans-Serif" font-size="10.00">ITSReconstruction/CAaux.h</text>
</a>
</g>
</g>
<!-- Node1&#45;&gt;Node2 -->
<g id="edge1" class="edge"><title>Node1&#45;&gt;Node2</title>
<path fill="none" stroke="midnightblue" d="M1248.49,-484.25C1077.7,-471.069 659.159,-438.769 483.101,-425.182"/>
<polygon fill="midnightblue" stroke="midnightblue" points="483.365,-421.692 473.125,-424.412 482.826,-428.671 483.365,-421.692"/>
</g>
<!-- Node6 -->
<g id="node6" class="node"><title>Node6</title>
<g id="a_node6"><a xlink:href="../../d6/d84/MathConstants_8h.html" target="_top" xlink:title="useful math constants ">
<polygon fill="none" stroke="black" points="1802.5,-6.5 1802.5,-25.5 1981.5,-25.5 1981.5,-6.5 1802.5,-6.5"/>
<text text-anchor="middle" x="1892" y="-13.5" font-family="Helvetica,sans-Serif" font-size="10.00">CommonConstants/MathConstants.h</text>
</a>
</g>
</g>
<!-- Node1&#45;&gt;Node6 -->
<g id="edge54" class="edge"><title>Node1&#45;&gt;Node6</title>
<path fill="none" stroke="midnightblue" d="M1397.58,-489.678C1563.57,-486.947 1949,-468.592 1949,-357 1949,-357 1949,-357 1949,-151 1949,-105.717 1921.1,-58.2017 1904.34,-33.7459"/>
<polygon fill="midnightblue" stroke="midnightblue" points="1907.17,-31.6958 1898.54,-25.5548 1901.46,-35.7394 1907.17,-31.6958"/>
</g>
<!-- Node3 -->
<g id="node3" class="node"><title>Node3</title>
<polygon fill="none" stroke="#bfbfbf" points="168,-6.5 168,-25.5 206,-25.5 206,-6.5 168,-6.5"/>
<text text-anchor="middle" x="187" y="-13.5" font-family="Helvetica,sans-Serif" font-size="10.00">array</text>
</g>
<!-- Node2&#45;&gt;Node3 -->
<g id="edge2" class="edge"><title>Node2&#45;&gt;Node3</title>
<path fill="none" stroke="midnightblue" d="M332.916,-411.762C293.373,-406.263 244.357,-395.011 206,-372 171.688,-351.416 167.348,-338.452 147,-304 107.384,-236.922 81.8817,-212.422 97,-136 103.343,-103.937 105.573,-94.2835 125,-68 135.77,-53.4293 151.59,-40.5055 164.554,-31.3132"/>
<polygon fill="midnightblue" stroke="midnightblue" points="166.684,-34.0965 172.975,-25.5712 162.741,-28.313 166.684,-34.0965"/>
</g>
<!-- Node4 -->
<g id="node4" class="node"><title>Node4</title>
<polygon fill="none" stroke="#bfbfbf" points="16,-6.5 16,-25.5 60,-25.5 60,-6.5 16,-6.5"/>
<text text-anchor="middle" x="38" y="-13.5" font-family="Helvetica,sans-Serif" font-size="10.00">cmath</text>
</g>
<!-- Node2&#45;&gt;Node4 -->
<g id="edge3" class="edge"><title>Node2&#45;&gt;Node4</title>
<path fill="none" stroke="midnightblue" d="M332.803,-409.31C217.341,-394.69 0,-358.005 0,-289 0,-289 0,-289 0,-151 0,-108.048 18.2941,-60.1895 29.4957,-34.9112"/>
<polygon fill="midnightblue" stroke="midnightblue" points="32.8057,-36.0895 33.7881,-25.5403 26.4415,-33.1743 32.8057,-36.0895"/>
</g>
<!-- Node5 -->
<g id="node5" class="node"><title>Node5</title>
<polygon fill="none" stroke="#bfbfbf" points="106,-142.5 106,-161.5 150,-161.5 150,-142.5 106,-142.5"/>
<text text-anchor="middle" x="128" y="-149.5" font-family="Helvetica,sans-Serif" font-size="10.00">vector</text>
</g>
<!-- Node2&#45;&gt;Node5 -->
<g id="edge4" class="edge"><title>Node2&#45;&gt;Node5</title>
<path fill="none" stroke="midnightblue" d="M363.365,-408.479C311.291,-395.21 220.543,-364.587 170,-304 137.542,-265.092 130.081,-202.894 128.426,-171.873"/>
<polygon fill="midnightblue" stroke="midnightblue" points="131.913,-171.484 128.035,-161.624 124.918,-171.75 131.913,-171.484"/>
</g>
<!-- Node2&#45;&gt;Node6 -->
<g id="edge5" class="edge"><title>Node2&#45;&gt;Node6</title>
<path fill="none" stroke="midnightblue" d="M473.21,-414.769C770.568,-404.865 1911,-362.118 1911,-289 1911,-289 1911,-289 1911,-151 1911,-109.451 1901.93,-61.3655 1896.33,-35.5985"/>
<polygon fill="midnightblue" stroke="midnightblue" points="1899.71,-34.7076 1894.11,-25.719 1892.89,-36.2433 1899.71,-34.7076"/>
</g>
<!-- Node7 -->
<g id="node7" class="node"><title>Node7</title>
<g id="a_node7"><a xlink:href="../../d7/d8b/DataFormats_2Reconstruction_2include_2ReconstructionDataFormats_2Track_8h.html" target="_top" xlink:title="ReconstructionDataFormats\l/Track.h">
<polygon fill="none" stroke="black" points="629,-341 629,-371 769,-371 769,-341 629,-341"/>
<text text-anchor="start" x="637" y="-359" font-family="Helvetica,sans-Serif" font-size="10.00">ReconstructionDataFormats</text>
<text text-anchor="middle" x="699" y="-348" font-family="Helvetica,sans-Serif" font-size="10.00">/Track.h</text>
</a>
</g>
</g>
<!-- Node2&#45;&gt;Node7 -->
<g id="edge6" class="edge"><title>Node2&#45;&gt;Node7</title>
<path fill="none" stroke="midnightblue" d="M445.095,-408.467C490.417,-399.28 563.562,-384.454 619.731,-373.068"/>
<polygon fill="midnightblue" stroke="midnightblue" points="620.549,-376.473 629.654,-371.057 619.158,-369.613 620.549,-376.473"/>
</g>
<!-- Node7&#45;&gt;Node3 -->
<g id="edge9" class="edge"><title>Node7&#45;&gt;Node3</title>
<path fill="none" stroke="midnightblue" d="M628.872,-345.138C580.93,-337.139 516.458,-323.888 462,-304 381.195,-274.49 173.331,-175.985 133,-100 126.332,-87.4377 127.37,-81.0606 133,-68 139.449,-53.0394 152.684,-40.4242 164.437,-31.4831"/>
<polygon fill="midnightblue" stroke="midnightblue" points="166.512,-34.3019 172.614,-25.6409 162.443,-28.6061 166.512,-34.3019"/>
</g>
<!-- Node7&#45;&gt;Node4 -->
<g id="edge11" class="edge"><title>Node7&#45;&gt;Node4</title>
<path fill="none" stroke="midnightblue" d="M628.859,-354.487C503.105,-349.583 239.168,-320.491 97,-168 61.1035,-129.497 46.1663,-66.6557 40.7233,-35.5902"/>
<polygon fill="midnightblue" stroke="midnightblue" points="44.1737,-35.0019 39.1263,-25.6867 37.263,-36.1164 44.1737,-35.0019"/>
</g>
<!-- Node7&#45;&gt;Node6 -->
<g id="edge16" class="edge"><title>Node7&#45;&gt;Node6</title>
<path fill="none" stroke="midnightblue" d="M769.359,-354.404C1022.64,-351.341 1873,-332.739 1873,-221 1873,-221 1873,-221 1873,-151 1873,-109.451 1882.07,-61.3655 1887.67,-35.5985"/>
<polygon fill="midnightblue" stroke="midnightblue" points="1891.11,-36.2433 1889.89,-25.719 1884.29,-34.7076 1891.11,-36.2433"/>
</g>
<!-- Node8 -->
<g id="node8" class="node"><title>Node8</title>
<polygon fill="none" stroke="#bfbfbf" points="597,-74.5 597,-93.5 653,-93.5 653,-74.5 597,-74.5"/>
<text text-anchor="middle" x="625" y="-81.5" font-family="Helvetica,sans-Serif" font-size="10.00">Rtypes.h</text>
</g>
<!-- Node7&#45;&gt;Node8 -->
<g id="edge7" class="edge"><title>Node7&#45;&gt;Node8</title>
<path fill="none" stroke="midnightblue" d="M641.398,-340.983C617.652,-333.067 591.061,-321.212 571,-304 544.389,-281.168 540.213,-269.831 531,-236 519.323,-193.117 508.27,-174.192 531,-136 538.167,-123.957 569.569,-108.383 594.131,-97.6299"/>
<polygon fill="midnightblue" stroke="midnightblue" points="595.666,-100.78 603.478,-93.6221 592.908,-94.3462 595.666,-100.78"/>
</g>
<!-- Node9 -->
<g id="node9" class="node"><title>Node9</title>
<polygon fill="none" stroke="#bfbfbf" points="580,-278.5 580,-297.5 636,-297.5 636,-278.5 580,-278.5"/>
<text text-anchor="middle" x="608" y="-285.5" font-family="Helvetica,sans-Serif" font-size="10.00">algorithm</text>
</g>
<!-- Node7&#45;&gt;Node9 -->
<g id="edge8" class="edge"><title>Node7&#45;&gt;Node9</title>
<path fill="none" stroke="midnightblue" d="M679.254,-340.679C664.135,-329.713 643.359,-314.645 628.142,-303.609"/>
<polygon fill="midnightblue" stroke="midnightblue" points="630.06,-300.676 619.91,-297.638 625.95,-306.342 630.06,-300.676"/>
</g>
<!-- Node10 -->
<g id="node10" class="node"><title>Node10</title>
<polygon fill="none" stroke="#bfbfbf" points="654.5,-278.5 654.5,-297.5 695.5,-297.5 695.5,-278.5 654.5,-278.5"/>
<text text-anchor="middle" x="675" y="-285.5" font-family="Helvetica,sans-Serif" font-size="10.00">cfloat</text>
</g>
<!-- Node7&#45;&gt;Node10 -->
<g id="edge10" class="edge"><title>Node7&#45;&gt;Node10</title>
<path fill="none" stroke="midnightblue" d="M693.792,-340.679C690.235,-330.898 685.491,-317.852 681.66,-307.315"/>
<polygon fill="midnightblue" stroke="midnightblue" points="684.917,-306.03 678.21,-297.828 678.339,-308.422 684.917,-306.03"/>
</g>
<!-- Node11 -->
<g id="node11" class="node"><title>Node11</title>
<polygon fill="none" stroke="#bfbfbf" points="752,-278.5 752,-297.5 798,-297.5 798,-278.5 752,-278.5"/>
<text text-anchor="middle" x="775" y="-285.5" font-family="Helvetica,sans-Serif" font-size="10.00">cstring</text>
</g>
<!-- Node7&#45;&gt;Node11 -->
<g id="edge12" class="edge"><title>Node7&#45;&gt;Node11</title>
<path fill="none" stroke="midnightblue" d="M715.491,-340.679C727.81,-329.981 744.627,-315.377 757.241,-304.422"/>
<polygon fill="midnightblue" stroke="midnightblue" points="759.579,-307.028 764.834,-297.828 754.989,-301.743 759.579,-307.028"/>
</g>
<!-- Node12 -->
<g id="node12" class="node"><title>Node12</title>
<polygon fill="none" stroke="#bfbfbf" points="1791,-74.5 1791,-93.5 1845,-93.5 1845,-74.5 1791,-74.5"/>
<text text-anchor="middle" x="1818" y="-81.5" font-family="Helvetica,sans-Serif" font-size="10.00">iostream</text>
</g>
<!-- Node7&#45;&gt;Node12 -->
<g id="edge13" class="edge"><title>Node7&#45;&gt;Node12</title>
<path fill="none" stroke="midnightblue" d="M769.03,-352.072C861.527,-347.145 1029.07,-334.545 1169,-304 1415.08,-250.283 1698.24,-135.536 1788.66,-97.5219"/>
<polygon fill="midnightblue" stroke="midnightblue" points="1790.15,-100.691 1798,-93.5775 1787.43,-94.2419 1790.15,-100.691"/>
</g>
<!-- Node13 -->
<g id="node13" class="node"><title>Node13</title>
<polygon fill="none" stroke="#bfbfbf" points="974.5,-278.5 974.5,-297.5 1057.5,-297.5 1057.5,-278.5 974.5,-278.5"/>
<text text-anchor="middle" x="1016" y="-285.5" font-family="Helvetica,sans-Serif" font-size="10.00">Math/SMatrix.h</text>
</g>
<!-- Node7&#45;&gt;Node13 -->
<g id="edge14" class="edge"><title>Node7&#45;&gt;Node13</title>
<path fill="none" stroke="midnightblue" d="M769.125,-343.462C822.991,-334.139 899.079,-319.974 965,-304 969.633,-302.877 974.473,-301.597 979.248,-300.268"/>
<polygon fill="midnightblue" stroke="midnightblue" points="980.222,-303.63 988.87,-297.508 978.292,-296.901 980.222,-303.63"/>
</g>
<!-- Node14 -->
<g id="node14" class="node"><title>Node14</title>
<polygon fill="none" stroke="#bfbfbf" points="1075.5,-278.5 1075.5,-297.5 1160.5,-297.5 1160.5,-278.5 1075.5,-278.5"/>
<text text-anchor="middle" x="1118" y="-285.5" font-family="Helvetica,sans-Serif" font-size="10.00">Math/SVector.h</text>
</g>
<!-- Node7&#45;&gt;Node14 -->
<g id="edge15" class="edge"><title>Node7&#45;&gt;Node14</title>
<path fill="none" stroke="midnightblue" d="M769.19,-348.258C843.437,-340.426 963.752,-325.735 1066,-304 1071.04,-302.929 1076.31,-301.628 1081.47,-300.245"/>
<polygon fill="midnightblue" stroke="midnightblue" points="1082.51,-303.59 1091.2,-297.524 1080.62,-296.849 1082.51,-303.59"/>
</g>
<!-- Node15 -->
<g id="node15" class="node"><title>Node15</title>
<g id="a_node15"><a xlink:href="../../dd/d76/Cartesian3D_8h.html" target="_top" xlink:title="MathUtils/Cartesian3D.h">
<polygon fill="none" stroke="black" points="911.5,-142.5 911.5,-161.5 1036.5,-161.5 1036.5,-142.5 911.5,-142.5"/>
<text text-anchor="middle" x="974" y="-149.5" font-family="Helvetica,sans-Serif" font-size="10.00">MathUtils/Cartesian3D.h</text>
</a>
</g>
</g>
<!-- Node7&#45;&gt;Node15 -->
<g id="edge17" class="edge"><title>Node7&#45;&gt;Node15</title>
<path fill="none" stroke="midnightblue" d="M704.139,-340.876C711.02,-323.326 724.535,-293.117 743,-272 793.669,-214.055 879.412,-180.488 930.967,-164.544"/>
<polygon fill="midnightblue" stroke="midnightblue" points="932.232,-167.818 940.802,-161.588 930.217,-161.114 932.232,-167.818"/>
</g>
<!-- Node25 -->
<g id="node25" class="node"><title>Node25</title>
<g id="a_node25"><a xlink:href="../../d9/ded/Utils_8h.html" target="_top" xlink:title="General auxilliary methods. ">
<polygon fill="none" stroke="black" points="142,-74.5 142,-93.5 232,-93.5 232,-74.5 142,-74.5"/>
<text text-anchor="middle" x="187" y="-81.5" font-family="Helvetica,sans-Serif" font-size="10.00">MathUtils/Utils.h</text>
</a>
</g>
</g>
<!-- Node7&#45;&gt;Node25 -->
<g id="edge29" class="edge"><title>Node7&#45;&gt;Node25</title>
<path fill="none" stroke="midnightblue" d="M647.345,-340.898C615.837,-331.693 575.023,-318.682 540,-304 420.094,-253.734 388.054,-241.78 281,-168 251.153,-147.43 220.368,-118.508 202.49,-100.799"/>
<polygon fill="midnightblue" stroke="midnightblue" points="204.773,-98.1314 195.234,-93.5212 199.816,-103.074 204.773,-98.1314"/>
</g>
<!-- Node26 -->
<g id="node26" class="node"><title>Node26</title>
<g id="a_node26"><a xlink:href="../../d4/de2/BaseCluster_8h.html" target="_top" xlink:title="ReconstructionDataFormats\l/BaseCluster.h">
<polygon fill="none" stroke="black" points="816,-273 816,-303 956,-303 956,-273 816,-273"/>
<text text-anchor="start" x="824" y="-291" font-family="Helvetica,sans-Serif" font-size="10.00">ReconstructionDataFormats</text>
<text text-anchor="middle" x="886" y="-280" font-family="Helvetica,sans-Serif" font-size="10.00">/BaseCluster.h</text>
</a>
</g>
</g>
<!-- Node7&#45;&gt;Node26 -->
<g id="edge33" class="edge"><title>Node7&#45;&gt;Node26</title>
<path fill="none" stroke="midnightblue" d="M739.116,-340.841C767.683,-330.759 806.249,-317.147 836.695,-306.402"/>
<polygon fill="midnightblue" stroke="midnightblue" points="838.006,-309.651 846.272,-303.022 835.677,-303.05 838.006,-309.651"/>
</g>
<!-- Node15&#45;&gt;Node8 -->
<g id="edge23" class="edge"><title>Node15&#45;&gt;Node8</title>
<path fill="none" stroke="midnightblue" d="M911.298,-145.133C847.426,-138.15 745.97,-124.264 661,-100 658.345,-99.2418 655.622,-98.3445 652.921,-97.3717"/>
<polygon fill="midnightblue" stroke="midnightblue" points="653.976,-94.0262 643.389,-93.6311 651.419,-100.542 653.976,-94.0262"/>
</g>
<!-- Node15&#45;&gt;Node12 -->
<g id="edge25" class="edge"><title>Node15&#45;&gt;Node12</title>
<path fill="none" stroke="midnightblue" d="M1036.79,-148.195C1213.91,-140.12 1709.27,-116.352 1781,-100 1784.24,-99.2605 1787.57,-98.271 1790.84,-97.1512"/>
<polygon fill="midnightblue" stroke="midnightblue" points="1792.23,-100.368 1800.31,-93.5207 1789.72,-93.832 1792.23,-100.368"/>
</g>
<!-- Node16 -->
<g id="node16" class="node"><title>Node16</title>
<polygon fill="none" stroke="#bfbfbf" points="1427.5,-69 1427.5,-99 1578.5,-99 1578.5,-69 1427.5,-69"/>
<text text-anchor="start" x="1435.5" y="-87" font-family="Helvetica,sans-Serif" font-size="10.00">Math/GenVector/Displacement</text>
<text text-anchor="middle" x="1503" y="-76" font-family="Helvetica,sans-Serif" font-size="10.00">Vector3D.h</text>
</g>
<!-- Node15&#45;&gt;Node16 -->
<g id="edge18" class="edge"><title>Node15&#45;&gt;Node16</title>
<path fill="none" stroke="midnightblue" d="M1036.65,-145.006C1120.76,-136.692 1275.04,-120.504 1417.28,-100.048"/>
<polygon fill="midnightblue" stroke="midnightblue" points="1418.1,-103.465 1427.49,-98.5681 1417.1,-96.5377 1418.1,-103.465"/>
</g>
<!-- Node17 -->
<g id="node17" class="node"><title>Node17</title>
<polygon fill="none" stroke="#bfbfbf" points="1597,-74.5 1597,-93.5 1773,-93.5 1773,-74.5 1597,-74.5"/>
<text text-anchor="middle" x="1685" y="-81.5" font-family="Helvetica,sans-Serif" font-size="10.00">Math/GenVector/PositionVector3D.h</text>
</g>
<!-- Node15&#45;&gt;Node17 -->
<g id="edge19" class="edge"><title>Node15&#45;&gt;Node17</title>
<path fill="none" stroke="midnightblue" d="M1036.8,-147.208C1147.96,-140.177 1386.55,-123.65 1587,-100 1598.89,-98.5977 1611.54,-96.8506 1623.68,-95.0494"/>
<polygon fill="midnightblue" stroke="midnightblue" points="1624.36,-98.4868 1633.72,-93.5301 1623.31,-91.5655 1624.36,-98.4868"/>
</g>
<!-- Node18 -->
<g id="node18" class="node"><title>Node18</title>
<polygon fill="none" stroke="#bfbfbf" points="813.5,-74.5 813.5,-93.5 962.5,-93.5 962.5,-74.5 813.5,-74.5"/>
<text text-anchor="middle" x="888" y="-81.5" font-family="Helvetica,sans-Serif" font-size="10.00">Math/GenVector/Rotation3D.h</text>
</g>
<!-- Node15&#45;&gt;Node18 -->
<g id="edge20" class="edge"><title>Node15&#45;&gt;Node18</title>
<path fill="none" stroke="midnightblue" d="M962.757,-142.372C948.722,-131.6 924.488,-113.002 907.424,-99.9065"/>
<polygon fill="midnightblue" stroke="midnightblue" points="909.31,-96.9421 899.246,-93.6305 905.048,-102.495 909.31,-96.9421"/>
</g>
<!-- Node19 -->
<g id="node19" class="node"><title>Node19</title>
<polygon fill="none" stroke="#bfbfbf" points="981,-74.5 981,-93.5 1137,-93.5 1137,-74.5 981,-74.5"/>
<text text-anchor="middle" x="1059" y="-81.5" font-family="Helvetica,sans-Serif" font-size="10.00">Math/GenVector/Transform3D.h</text>
</g>
<!-- Node15&#45;&gt;Node19 -->
<g id="edge21" class="edge"><title>Node15&#45;&gt;Node19</title>
<path fill="none" stroke="midnightblue" d="M985.112,-142.372C998.984,-131.6 1022.94,-113.002 1039.8,-99.9065"/>
<polygon fill="midnightblue" stroke="midnightblue" points="1042.13,-102.528 1047.89,-93.6305 1037.84,-96.999 1042.13,-102.528"/>
</g>
<!-- Node20 -->
<g id="node20" class="node"><title>Node20</title>
<polygon fill="none" stroke="#bfbfbf" points="1155,-74.5 1155,-93.5 1315,-93.5 1315,-74.5 1155,-74.5"/>
<text text-anchor="middle" x="1235" y="-81.5" font-family="Helvetica,sans-Serif" font-size="10.00">Math/GenVector/Translation3D.h</text>
</g>
<!-- Node15&#45;&gt;Node20 -->
<g id="edge22" class="edge"><title>Node15&#45;&gt;Node20</title>
<path fill="none" stroke="midnightblue" d="M1007.85,-142.439C1054.79,-130.57 1139.68,-109.103 1191.34,-96.0406"/>
<polygon fill="midnightblue" stroke="midnightblue" points="1192.37,-99.3904 1201.21,-93.5455 1190.65,-92.604 1192.37,-99.3904"/>
</g>
<!-- Node21 -->
<g id="node21" class="node"><title>Node21</title>
<polygon fill="none" stroke="#bfbfbf" points="1333,-74.5 1333,-93.5 1409,-93.5 1409,-74.5 1333,-74.5"/>
<text text-anchor="middle" x="1371" y="-81.5" font-family="Helvetica,sans-Serif" font-size="10.00">TGeoMatrix.h</text>
</g>
<!-- Node15&#45;&gt;Node21 -->
<g id="edge24" class="edge"><title>Node15&#45;&gt;Node21</title>
<path fill="none" stroke="midnightblue" d="M1036.53,-145.021C1107,-137.561 1224.68,-122.922 1324,-100 1328.23,-99.0249 1332.62,-97.8489 1336.94,-96.5895"/>
<polygon fill="midnightblue" stroke="midnightblue" points="1338.29,-99.8387 1346.82,-93.5551 1336.23,-93.1476 1338.29,-99.8387"/>
</g>
<!-- Node22 -->
<g id="node22" class="node"><title>Node22</title>
<g id="a_node22"><a xlink:href="../../d2/dd0/Cartesian2D_8h.html" target="_top" xlink:title="MathUtils/Cartesian2D.h">
<polygon fill="none" stroke="black" points="670.5,-74.5 670.5,-93.5 795.5,-93.5 795.5,-74.5 670.5,-74.5"/>
<text text-anchor="middle" x="733" y="-81.5" font-family="Helvetica,sans-Serif" font-size="10.00">MathUtils/Cartesian2D.h</text>
</a>
</g>
</g>
<!-- Node15&#45;&gt;Node22 -->
<g id="edge26" class="edge"><title>Node15&#45;&gt;Node22</title>
<path fill="none" stroke="midnightblue" d="M942.493,-142.372C899.254,-130.53 821.473,-109.229 773.82,-96.179"/>
<polygon fill="midnightblue" stroke="midnightblue" points="774.702,-92.7916 764.132,-93.5259 772.853,-99.543 774.702,-92.7916"/>
</g>
<!-- Node23 -->
<g id="node23" class="node"><title>Node23</title>
<polygon fill="none" stroke="#bfbfbf" points="748.5,-1 748.5,-31 899.5,-31 899.5,-1 748.5,-1"/>
<text text-anchor="start" x="756.5" y="-19" font-family="Helvetica,sans-Serif" font-size="10.00">Math/GenVector/Displacement</text>
<text text-anchor="middle" x="824" y="-8" font-family="Helvetica,sans-Serif" font-size="10.00">Vector2D.h</text>
</g>
<!-- Node22&#45;&gt;Node23 -->
<g id="edge27" class="edge"><title>Node22&#45;&gt;Node23</title>
<path fill="none" stroke="midnightblue" d="M744.897,-74.3717C757.779,-65.0286 778.78,-49.7966 795.907,-37.375"/>
<polygon fill="midnightblue" stroke="midnightblue" points="798.407,-39.8859 804.447,-31.1815 794.297,-34.2194 798.407,-39.8859"/>
</g>
<!-- Node24 -->
<g id="node24" class="node"><title>Node24</title>
<polygon fill="none" stroke="#bfbfbf" points="554,-6.5 554,-25.5 730,-25.5 730,-6.5 554,-6.5"/>
<text text-anchor="middle" x="642" y="-13.5" font-family="Helvetica,sans-Serif" font-size="10.00">Math/GenVector/PositionVector2D.h</text>
</g>
<!-- Node22&#45;&gt;Node24 -->
<g id="edge28" class="edge"><title>Node22&#45;&gt;Node24</title>
<path fill="none" stroke="midnightblue" d="M721.103,-74.3717C706.116,-63.5015 680.138,-44.6602 662.058,-31.5474"/>
<polygon fill="midnightblue" stroke="midnightblue" points="664.05,-28.6684 653.9,-25.6305 659.94,-34.3349 664.05,-28.6684"/>
</g>
<!-- Node25&#45;&gt;Node3 -->
<g id="edge30" class="edge"><title>Node25&#45;&gt;Node3</title>
<path fill="none" stroke="midnightblue" d="M187,-74.3717C187,-64.6426 187,-48.528 187,-35.8504"/>
<polygon fill="midnightblue" stroke="midnightblue" points="190.5,-35.8411 187,-25.8411 183.5,-35.8412 190.5,-35.8411"/>
</g>
<!-- Node25&#45;&gt;Node4 -->
<g id="edge31" class="edge"><title>Node25&#45;&gt;Node4</title>
<path fill="none" stroke="midnightblue" d="M167.521,-74.3717C141.865,-63.0075 96.541,-42.9309 66.8882,-29.7961"/>
<polygon fill="midnightblue" stroke="midnightblue" points="68.0446,-26.4804 57.4839,-25.6305 65.2096,-32.8806 68.0446,-26.4804"/>
</g>
<!-- Node25&#45;&gt;Node6 -->
<g id="edge32" class="edge"><title>Node25&#45;&gt;Node6</title>
<path fill="none" stroke="midnightblue" d="M232.036,-76.8774C257.02,-73.7142 288.678,-70.0889 317,-68 873.384,-26.9631 1542.75,-18.943 1792.06,-17.3782"/>
<polygon fill="midnightblue" stroke="midnightblue" points="1792.21,-20.8775 1802.18,-17.3168 1792.16,-13.8776 1792.21,-20.8775"/>
</g>
<!-- Node26&#45;&gt;Node12 -->
<g id="edge38" class="edge"><title>Node26&#45;&gt;Node12</title>
<path fill="none" stroke="midnightblue" d="M933.632,-272.947C1034.95,-243.524 1279.72,-174.952 1489,-136 1617.55,-112.073 1654.43,-132.846 1781,-100 1783.99,-99.2241 1787.06,-98.2638 1790.09,-97.2069"/>
<polygon fill="midnightblue" stroke="midnightblue" points="1791.41,-100.45 1799.5,-93.6085 1788.91,-93.9115 1791.41,-100.45"/>
</g>
<!-- Node26&#45;&gt;Node15 -->
<g id="edge53" class="edge"><title>Node26&#45;&gt;Node15</title>
<path fill="none" stroke="midnightblue" d="M870.621,-272.784C854.013,-255.667 831.841,-226.423 847,-204 860.507,-184.021 883.268,-171.867 905.821,-164.475"/>
<polygon fill="midnightblue" stroke="midnightblue" points="906.873,-167.813 915.446,-161.589 904.862,-161.108 906.873,-167.813"/>
</g>
<!-- Node27 -->
<g id="node27" class="node"><title>Node27</title>
<polygon fill="none" stroke="#bfbfbf" points="856.5,-210.5 856.5,-229.5 915.5,-229.5 915.5,-210.5 856.5,-210.5"/>
<text text-anchor="middle" x="886" y="-217.5" font-family="Helvetica,sans-Serif" font-size="10.00">TObject.h</text>
</g>
<!-- Node26&#45;&gt;Node27 -->
<g id="edge34" class="edge"><title>Node26&#45;&gt;Node27</title>
<path fill="none" stroke="midnightblue" d="M886,-272.679C886,-263.101 886,-250.394 886,-239.977"/>
<polygon fill="midnightblue" stroke="midnightblue" points="889.5,-239.828 886,-229.828 882.5,-239.828 889.5,-239.828"/>
</g>
<!-- Node28 -->
<g id="node28" class="node"><title>Node28</title>
<polygon fill="none" stroke="#bfbfbf" points="537.5,-74.5 537.5,-93.5 578.5,-93.5 578.5,-74.5 537.5,-74.5"/>
<text text-anchor="middle" x="558" y="-81.5" font-family="Helvetica,sans-Serif" font-size="10.00">bitset</text>
</g>
<!-- Node26&#45;&gt;Node28 -->
<g id="edge35" class="edge"><title>Node26&#45;&gt;Node28</title>
<path fill="none" stroke="midnightblue" d="M863.196,-272.956C803.071,-235.928 640.737,-135.954 580.714,-98.9885"/>
<polygon fill="midnightblue" stroke="midnightblue" points="582.341,-95.8798 571.99,-93.6161 578.67,-101.84 582.341,-95.8798"/>
</g>
<!-- Node29 -->
<g id="node29" class="node"><title>Node29</title>
<polygon fill="none" stroke="#bfbfbf" points="934,-210.5 934,-229.5 984,-229.5 984,-210.5 934,-210.5"/>
<text text-anchor="middle" x="959" y="-217.5" font-family="Helvetica,sans-Serif" font-size="10.00">iomanip</text>
</g>
<!-- Node26&#45;&gt;Node29 -->
<g id="edge36" class="edge"><title>Node26&#45;&gt;Node29</title>
<path fill="none" stroke="midnightblue" d="M901.84,-272.679C913.56,-262.082 929.518,-247.655 941.595,-236.736"/>
<polygon fill="midnightblue" stroke="midnightblue" points="944.165,-239.131 949.235,-229.828 939.47,-233.939 944.165,-239.131"/>
</g>
<!-- Node30 -->
<g id="node30" class="node"><title>Node30</title>
<polygon fill="none" stroke="#bfbfbf" points="1002.5,-210.5 1002.5,-229.5 1031.5,-229.5 1031.5,-210.5 1002.5,-210.5"/>
<text text-anchor="middle" x="1017" y="-217.5" font-family="Helvetica,sans-Serif" font-size="10.00">ios</text>
</g>
<!-- Node26&#45;&gt;Node30 -->
<g id="edge37" class="edge"><title>Node26&#45;&gt;Node30</title>
<path fill="none" stroke="midnightblue" d="M917.843,-272.974C939.376,-263.211 968.281,-249.558 993,-236 993.679,-235.628 994.364,-235.245 995.054,-234.853"/>
<polygon fill="midnightblue" stroke="midnightblue" points="997.172,-237.665 1003.96,-229.527 993.579,-231.658 997.172,-237.665"/>
</g>
<!-- Node31 -->
<g id="node31" class="node"><title>Node31</title>
<g id="a_node31"><a xlink:href="../../d4/d20/DetMatrixCache_8h.html" target="_top" xlink:title="DetectorsCommonDataFormats\l/DetMatrixCache.h">
<polygon fill="none" stroke="black" points="540,-205 540,-235 696,-235 696,-205 540,-205"/>
<text text-anchor="start" x="548" y="-223" font-family="Helvetica,sans-Serif" font-size="10.00">DetectorsCommonDataFormats</text>
<text text-anchor="middle" x="618" y="-212" font-family="Helvetica,sans-Serif" font-size="10.00">/DetMatrixCache.h</text>
</a>
</g>
</g>
<!-- Node26&#45;&gt;Node31 -->
<g id="edge39" class="edge"><title>Node26&#45;&gt;Node31</title>
<path fill="none" stroke="midnightblue" d="M828.836,-272.922C786.675,-262.539 729.186,-248.382 684.888,-237.472"/>
<polygon fill="midnightblue" stroke="midnightblue" points="685.623,-234.049 675.076,-235.056 683.949,-240.846 685.623,-234.049"/>
</g>
<!-- Node31&#45;&gt;Node3 -->
<g id="edge41" class="edge"><title>Node31&#45;&gt;Node3</title>
<path fill="none" stroke="midnightblue" d="M539.713,-212.09C463.93,-204.266 355.332,-189.712 319,-168 270.616,-139.085 278.931,-109.693 241,-68 229.521,-55.3825 215.487,-42.1873 204.603,-32.3804"/>
<polygon fill="midnightblue" stroke="midnightblue" points="206.786,-29.6385 196.988,-25.6072 202.134,-34.8687 206.786,-29.6385"/>
</g>
<!-- Node31&#45;&gt;Node5 -->
<g id="edge42" class="edge"><title>Node31&#45;&gt;Node5</title>
<path fill="none" stroke="midnightblue" d="M539.816,-208.469C430.4,-193.731 236.447,-167.607 160.129,-157.328"/>
<polygon fill="midnightblue" stroke="midnightblue" points="160.539,-153.851 150.162,-155.985 159.605,-160.789 160.539,-153.851"/>
</g>
<!-- Node31&#45;&gt;Node8 -->
<g id="edge52" class="edge"><title>Node31&#45;&gt;Node8</title>
<path fill="none" stroke="midnightblue" d="M618.749,-204.66C620.021,-180.32 622.601,-130.933 624.016,-103.837"/>
<polygon fill="midnightblue" stroke="midnightblue" points="627.518,-103.897 624.544,-93.7275 620.527,-103.531 627.518,-103.897"/>
</g>
<!-- Node31&#45;&gt;Node15 -->
<g id="edge51" class="edge"><title>Node31&#45;&gt;Node15</title>
<path fill="none" stroke="midnightblue" d="M693.934,-204.922C761.112,-192.468 857.583,-174.583 917.972,-163.387"/>
<polygon fill="midnightblue" stroke="midnightblue" points="918.883,-166.778 928.077,-161.514 917.607,-159.895 918.883,-166.778"/>
</g>
<!-- Node32 -->
<g id="node32" class="node"><title>Node32</title>
<polygon fill="none" stroke="#bfbfbf" points="540.5,-142.5 540.5,-161.5 611.5,-161.5 611.5,-142.5 540.5,-142.5"/>
<text text-anchor="middle" x="576" y="-149.5" font-family="Helvetica,sans-Serif" font-size="10.00">FairLogger.h</text>
</g>
<!-- Node31&#45;&gt;Node32 -->
<g id="edge40" class="edge"><title>Node31&#45;&gt;Node32</title>
<path fill="none" stroke="midnightblue" d="M608.887,-204.679C602.468,-194.592 593.839,-181.033 587.031,-170.335"/>
<polygon fill="midnightblue" stroke="midnightblue" points="589.94,-168.386 581.618,-161.828 584.034,-172.144 589.94,-168.386"/>
</g>
<!-- Node33 -->
<g id="node33" class="node"><title>Node33</title>
<g id="a_node33"><a xlink:href="../../d6/d31/DetID_8h.html" target="_top" xlink:title="DetectorsCommonDataFormats\l/DetID.h">
<polygon fill="none" stroke="black" points="328,-137 328,-167 484,-167 484,-137 328,-137"/>
<text text-anchor="start" x="336" y="-155" font-family="Helvetica,sans-Serif" font-size="10.00">DetectorsCommonDataFormats</text>
<text text-anchor="middle" x="406" y="-144" font-family="Helvetica,sans-Serif" font-size="10.00">/DetID.h</text>
</a>
</g>
</g>
<!-- Node31&#45;&gt;Node33 -->
<g id="edge43" class="edge"><title>Node31&#45;&gt;Node33</title>
<path fill="none" stroke="midnightblue" d="M572.781,-204.922C540.13,-194.757 495.859,-180.975 461.134,-170.164"/>
<polygon fill="midnightblue" stroke="midnightblue" points="461.738,-166.687 451.15,-167.056 459.657,-173.37 461.738,-166.687"/>
</g>
<!-- Node33&#45;&gt;Node3 -->
<g id="edge45" class="edge"><title>Node33&#45;&gt;Node3</title>
<path fill="none" stroke="midnightblue" d="M379.414,-136.853C361.461,-127.038 337.407,-113.372 317,-100 297.074,-86.9435 293.861,-81.1546 274,-68 253.555,-54.459 229.44,-40.4688 211.79,-30.5742"/>
<polygon fill="midnightblue" stroke="midnightblue" points="213.154,-27.3284 202.714,-25.5275 209.752,-33.4462 213.154,-27.3284"/>
</g>
<!-- Node33&#45;&gt;Node8 -->
<g id="edge44" class="edge"><title>Node33&#45;&gt;Node8</title>
<path fill="none" stroke="midnightblue" d="M461.496,-136.924C497.543,-127.399 545.392,-114.034 587,-100 589.558,-99.1372 592.195,-98.1994 594.832,-97.2279"/>
<polygon fill="midnightblue" stroke="midnightblue" points="596.142,-100.474 604.234,-93.6363 593.644,-93.9353 596.142,-100.474"/>
</g>
<!-- Node33&#45;&gt;Node25 -->
<g id="edge50" class="edge"><title>Node33&#45;&gt;Node25</title>
<path fill="none" stroke="midnightblue" d="M359.288,-136.922C319.328,-124.88 262.52,-107.76 225.222,-96.5191"/>
<polygon fill="midnightblue" stroke="midnightblue" points="225.835,-93.0482 215.25,-93.5138 223.815,-99.7505 225.835,-93.0482"/>
</g>
<!-- Node33&#45;&gt;Node28 -->
<g id="edge46" class="edge"><title>Node33&#45;&gt;Node28</title>
<path fill="none" stroke="midnightblue" d="M441.51,-136.896C465.999,-126.99 499.201,-113.201 528,-100 529.356,-99.3782 530.742,-98.7306 532.137,-98.0686"/>
<polygon fill="midnightblue" stroke="midnightblue" points="533.824,-101.14 541.278,-93.6114 530.756,-94.8484 533.824,-101.14"/>
</g>
<!-- Node34 -->
<g id="node34" class="node"><title>Node34</title>
<polygon fill="none" stroke="#bfbfbf" points="470.5,-74.5 470.5,-93.5 519.5,-93.5 519.5,-74.5 470.5,-74.5"/>
<text text-anchor="middle" x="495" y="-81.5" font-family="Helvetica,sans-Serif" font-size="10.00">cassert</text>
</g>
<!-- Node33&#45;&gt;Node34 -->
<g id="edge47" class="edge"><title>Node33&#45;&gt;Node34</title>
<path fill="none" stroke="midnightblue" d="M425.312,-136.679C440.099,-125.713 460.418,-110.645 475.301,-99.6085"/>
<polygon fill="midnightblue" stroke="midnightblue" points="477.404,-102.406 483.352,-93.6379 473.235,-96.7832 477.404,-102.406"/>
</g>
<!-- Node35 -->
<g id="node35" class="node"><title>Node35</title>
<polygon fill="none" stroke="#bfbfbf" points="326,-74.5 326,-93.5 372,-93.5 372,-74.5 326,-74.5"/>
<text text-anchor="middle" x="349" y="-81.5" font-family="Helvetica,sans-Serif" font-size="10.00">cstdint</text>
</g>
<!-- Node33&#45;&gt;Node35 -->
<g id="edge48" class="edge"><title>Node33&#45;&gt;Node35</title>
<path fill="none" stroke="midnightblue" d="M393.632,-136.679C384.744,-126.388 372.736,-112.484 363.414,-101.69"/>
<polygon fill="midnightblue" stroke="midnightblue" points="365.81,-99.1089 356.624,-93.8283 360.512,-103.684 365.81,-99.1089"/>
</g>
<!-- Node36 -->
<g id="node36" class="node"><title>Node36</title>
<polygon fill="none" stroke="#bfbfbf" points="390,-74.5 390,-93.5 452,-93.5 452,-74.5 390,-74.5"/>
<text text-anchor="middle" x="421" y="-81.5" font-family="Helvetica,sans-Serif" font-size="10.00">type_traits</text>
</g>
<!-- Node33&#45;&gt;Node36 -->
<g id="edge49" class="edge"><title>Node33&#45;&gt;Node36</title>
<path fill="none" stroke="midnightblue" d="M409.255,-136.679C411.455,-126.999 414.381,-114.123 416.763,-103.645"/>
<polygon fill="midnightblue" stroke="midnightblue" points="420.19,-104.355 418.994,-93.8283 413.364,-102.804 420.19,-104.355"/>
</g>
</g>
</svg>
        <g id="navigator" transform="translate(0 0)" fill="#404254">
                <rect fill="#f2f5e9" fill-opacity="0.5" stroke="#606060" stroke-width=".5" x="0" y="0" width="60" height="60"/>
                <use id="zoomplus" xlink:href="#zoomPlus" x="17" y="9" onmousedown="handleZoom(evt,'in')"/>
                <use id="zoomminus" xlink:href="#zoomMin" x="42" y="9" onmousedown="handleZoom(evt,'out')"/>
                <use id="reset" xlink:href="#resetDef" x="30" y="36" onmousedown="handleReset()"/>
                <g id="arrowUp" xlink:href="#dirArrow" transform="translate(30 24)" onmousedown="handlePan(0,-1)">
                  <use xlink:href="#rim" fill="#404040">
                        <set attributeName="fill" to="#808080" begin="arrowUp.mouseover" end="arrowUp.mouseout"/>
                  </use>
                  <path fill="none" stroke="white" stroke-width="1.5" d="M0,-3.0v7 M-2.5,-0.5L0,-3.0L2.5,-0.5"/>
                </g>
                <g id="arrowRight" xlink:href="#dirArrow" transform="rotate(90) translate(36 -43)" onmousedown="handlePan(1,0)">
                  <use xlink:href="#rim" fill="#404040">
                        <set attributeName="fill" to="#808080" begin="arrowRight.mouseover" end="arrowRight.mouseout"/>
                  </use>
                  <path fill="none" stroke="white" stroke-width="1.5" d="M0,-3.0v7 M-2.5,-0.5L0,-3.0L2.5,-0.5"/>
                </g>
                <g id="arrowDown" xlink:href="#dirArrow" transform="rotate(180) translate(-30 -48)" onmousedown="handlePan(0,1)">
                  <use xlink:href="#rim" fill="#404040">
                        <set attributeName="fill" to="#808080" begin="arrowDown.mouseover" end="arrowDown.mouseout"/>
                  </use>
                  <path fill="none" stroke="white" stroke-width="1.5" d="M0,-3.0v7 M-2.5,-0.5L0,-3.0L2.5,-0.5"/>
                </g>
                <g id="arrowLeft" xlink:href="#dirArrow" transform="rotate(270) translate(-36 17)" onmousedown="handlePan(-1,0)">
                  <use xlink:href="#rim" fill="#404040">
                        <set attributeName="fill" to="#808080" begin="arrowLeft.mouseover" end="arrowLeft.mouseout"/>
                  </use>
                  <path fill="none" stroke="white" stroke-width="1.5" d="M0,-3.0v7 M-2.5,-0.5L0,-3.0L2.5,-0.5"/>
                </g>
        </g>
        <svg viewBox="0 0 15 15" width="100%" height="30px" preserveAspectRatio="xMaxYMin meet">
         <g id="arrow_out" transform="scale(0.3 0.3)">
          <a xlink:href="CAaux_8cxx__incl_org.svg" target="_base">
           <rect id="button" ry="5" rx="5" y="6" x="6" height="38" width="38"
                fill="#f2f5e9" fill-opacity="0.5" stroke="#606060" stroke-width="1.0"/>
           <path id="arrow"
             d="M 11.500037,31.436501 C 11.940474,20.09759 22.043105,11.32322 32.158766,21.979434 L 37.068811,17.246167 C 37.068811,17.246167 37.088388,32 37.088388,32 L 22.160133,31.978069 C 22.160133,31.978069 26.997745,27.140456 26.997745,27.140456 C 18.528582,18.264221 13.291696,25.230495 11.500037,31.436501 z"
             style="fill:#404040;"/>
          </a>
         </g>
        </svg>
</svg>
