<?xml version="1.0" encoding="UTF-8" standalone="no"?>
<!DOCTYPE svg PUBLIC "-//W3C//DTD SVG 1.1//EN"
 "http://www.w3.org/Graphics/SVG/1.1/DTD/svg11.dtd">
<!-- Generated by graphviz version 2.36.0 (20140111.2315)
 -->
<!-- Title: /home/travis/build/AliceO2Group/AliceO2/Detectors/ITSMFT/ITS/reconstruction/include/ITSReconstruction/CATracker.h Pages: 1 -->
<!--zoomable 604 -->
<svg id="main" version="1.1" xmlns="http://www.w3.org/2000/svg" xmlns:xlink="http://www.w3.org/1999/xlink" xml:space="preserve" onload="init(evt)">
<style type="text/css"><![CDATA[
.edge:hover path { stroke: red; }
.edge:hover polygon { stroke: red; fill: red; }
]]></style>
<script type="text/javascript"><![CDATA[
var edges = document.getElementsByTagName('g');
if (edges && edges.length) {
  for (var i=0;i<edges.length;i++) {
    if (edges[i].id.substr(0,4)=='edge') {
      edges[i].setAttribute('class','edge');
    }
  }
}
]]></script>
        <defs>
                <circle id="rim" cx="0" cy="0" r="7"/>
                <circle id="rim2" cx="0" cy="0" r="3.5"/>
                <g id="zoomPlus">
                        <use xlink:href="#rim" fill="#404040">
                                <set attributeName="fill" to="#808080" begin="zoomplus.mouseover" end="zoomplus.mouseout"/>
                        </use>
                        <path d="M-4,0h8M0,-4v8" fill="none" stroke="white" stroke-width="1.5" pointer-events="none"/>
                </g>
                <g id="zoomMin">
                        <use xlink:href="#rim" fill="#404040">
                                <set attributeName="fill" to="#808080" begin="zoomminus.mouseover" end="zoomminus.mouseout"/>
                        </use>
                        <path d="M-4,0h8" fill="none" stroke="white" stroke-width="1.5" pointer-events="none"/>
                </g>
                <g id="dirArrow">
                        <path fill="none" stroke="white" stroke-width="1.5" d="M0,-3.0v7 M-2.5,-0.5L0,-3.0L2.5,-0.5"/>
                </g>
               <g id="resetDef">
                       <use xlink:href="#rim2" fill="#404040">
                               <set attributeName="fill" to="#808080" begin="reset.mouseover" end="reset.mouseout"/>
                       </use>
               </g>
        </defs>

<script type="text/javascript">
var viewWidth = 2287;
var viewHeight = 604;
var sectionId = 'dynsection-0';
</script>
<script xlink:href="../../svgpan.js"/>
<svg id="graph" class="graph">
<g id="viewport">
<title>/home/travis/build/AliceO2Group/AliceO2/Detectors/ITSMFT/ITS/reconstruction/include/ITSReconstruction/CATracker.h</title>
<!-- Node1 -->
<g id="node1" class="node"><title>Node1</title>
<polygon fill="#bfbfbf" stroke="black" points="57,-532.5 57,-595.5 217,-595.5 217,-532.5 57,-532.5"/>
<text text-anchor="start" x="65" y="-583.5" font-family="Helvetica,sans-Serif" font-size="10.00">/home/travis/build</text>
<text text-anchor="start" x="65" y="-572.5" font-family="Helvetica,sans-Serif" font-size="10.00">/AliceO2Group/AliceO2</text>
<text text-anchor="start" x="65" y="-561.5" font-family="Helvetica,sans-Serif" font-size="10.00">/Detectors/ITSMFT/ITS</text>
<text text-anchor="start" x="65" y="-550.5" font-family="Helvetica,sans-Serif" font-size="10.00">/reconstruction/include</text>
<text text-anchor="middle" x="137" y="-539.5" font-family="Helvetica,sans-Serif" font-size="10.00">/ITSReconstruction/CATracker.h</text>
</g>
<!-- Node2 -->
<g id="node2" class="node"><title>Node2</title>
<polygon fill="none" stroke="#bfbfbf" points="236,-6.5 236,-25.5 274,-25.5 274,-6.5 236,-6.5"/>
<text text-anchor="middle" x="255" y="-13.5" font-family="Helvetica,sans-Serif" font-size="10.00">array</text>
</g>
<!-- Node1&#45;&gt;Node2 -->
<g id="edge1" class="edge"><title>Node1&#45;&gt;Node2</title>
<path fill="none" stroke="midnightblue" d="M80.4859,-532.441C42.7477,-507.494 0,-468.345 0,-419 0,-419 0,-419 0,-151 0,-50.0937 158.403,-25.0078 225.517,-18.9076"/>
<polygon fill="midnightblue" stroke="midnightblue" points="226.156,-22.3669 235.834,-18.0556 225.579,-15.3906 226.156,-22.3669"/>
</g>
<!-- Node3 -->
<g id="node3" class="node"><title>Node3</title>
<polygon fill="none" stroke="#bfbfbf" points="67,-142.5 67,-161.5 111,-161.5 111,-142.5 67,-142.5"/>
<text text-anchor="middle" x="89" y="-149.5" font-family="Helvetica,sans-Serif" font-size="10.00">vector</text>
</g>
<!-- Node1&#45;&gt;Node3 -->
<g id="edge2" class="edge"><title>Node1&#45;&gt;Node3</title>
<path fill="none" stroke="midnightblue" d="M99.5723,-532.251C71.5373,-505.569 38,-464.204 38,-419 38,-419 38,-419 38,-287 38,-242.611 62.7474,-195.041 77.7644,-170.262"/>
<polygon fill="midnightblue" stroke="midnightblue" points="80.8101,-171.993 83.1497,-161.66 74.8768,-168.279 80.8101,-171.993"/>
</g>
<!-- Node4 -->
<g id="node4" class="node"><title>Node4</title>
<g id="a_node4"><a xlink:href="../../d5/df0/CATrackingStation_8h.html" target="_top" xlink:title="ITSReconstruction/CATracking\lStation.h">
<polygon fill="none" stroke="black" points="165.5,-465 165.5,-495 318.5,-495 318.5,-465 165.5,-465"/>
<text text-anchor="start" x="173.5" y="-483" font-family="Helvetica,sans-Serif" font-size="10.00">ITSReconstruction/CATracking</text>
<text text-anchor="middle" x="242" y="-472" font-family="Helvetica,sans-Serif" font-size="10.00">Station.h</text>
</a>
</g>
</g>
<!-- Node1&#45;&gt;Node4 -->
<g id="edge3" class="edge"><title>Node1&#45;&gt;Node4</title>
<path fill="none" stroke="midnightblue" d="M176.098,-532.466C189.458,-522.033 204.058,-510.631 216.113,-501.216"/>
<polygon fill="midnightblue" stroke="midnightblue" points="218.279,-503.966 224.006,-495.053 213.97,-498.449 218.279,-503.966"/>
</g>
<!-- Node7 -->
<g id="node7" class="node"><title>Node7</title>
<g id="a_node7"><a xlink:href="../../d1/db5/CAaux_8h.html" target="_top" xlink:title="ITSReconstruction/CAaux.h">
<polygon fill="none" stroke="black" points="120,-408.5 120,-427.5 260,-427.5 260,-408.5 120,-408.5"/>
<text text-anchor="middle" x="190" y="-415.5" font-family="Helvetica,sans-Serif" font-size="10.00">ITSReconstruction/CAaux.h</text>
</a>
</g>
</g>
<!-- Node1&#45;&gt;Node7 -->
<g id="edge60" class="edge"><title>Node1&#45;&gt;Node7</title>
<path fill="none" stroke="midnightblue" d="M139.237,-532.471C141.573,-512.33 146.331,-485.749 156,-464 160.665,-453.508 168.19,-443.186 174.976,-435.079"/>
<polygon fill="midnightblue" stroke="midnightblue" points="177.65,-437.339 181.63,-427.52 172.396,-432.714 177.65,-437.339"/>
</g>
<!-- Node10 -->
<g id="node10" class="node"><title>Node10</title>
<g id="a_node10"><a xlink:href="../../d7/d8b/DataFormats_2Reconstruction_2include_2ReconstructionDataFormats_2Track_8h.html" target="_top" xlink:title="ReconstructionDataFormats\l/Track.h">
<polygon fill="none" stroke="black" points="1302,-341 1302,-371 1442,-371 1442,-341 1302,-341"/>
<text text-anchor="start" x="1310" y="-359" font-family="Helvetica,sans-Serif" font-size="10.00">ReconstructionDataFormats</text>
<text text-anchor="middle" x="1372" y="-348" font-family="Helvetica,sans-Serif" font-size="10.00">/Track.h</text>
</a>
</g>
</g>
<!-- Node1&#45;&gt;Node10 -->
<g id="edge61" class="edge"><title>Node1&#45;&gt;Node10</title>
<path fill="none" stroke="midnightblue" d="M217.08,-549.642C440.414,-512.39 1068.38,-407.644 1291.83,-370.373"/>
<polygon fill="midnightblue" stroke="midnightblue" points="1292.55,-373.801 1301.84,-368.703 1291.4,-366.896 1292.55,-373.801"/>
</g>
<!-- Node4&#45;&gt;Node3 -->
<g id="edge5" class="edge"><title>Node4&#45;&gt;Node3</title>
<path fill="none" stroke="midnightblue" d="M179.42,-464.997C155.806,-457.231 130.069,-445.483 111,-428 85.0679,-404.225 76,-392.181 76,-357 76,-357 76,-357 76,-287 76,-245.669 82.2028,-197.501 86.0392,-171.661"/>
<polygon fill="midnightblue" stroke="midnightblue" points="89.5025,-172.166 87.5591,-161.751 82.5834,-171.105 89.5025,-172.166"/>
</g>
<!-- Node5 -->
<g id="node5" class="node"><title>Node5</title>
<polygon fill="none" stroke="#bfbfbf" points="332,-278.5 332,-297.5 388,-297.5 388,-278.5 332,-278.5"/>
<text text-anchor="middle" x="360" y="-285.5" font-family="Helvetica,sans-Serif" font-size="10.00">algorithm</text>
</g>
<!-- Node4&#45;&gt;Node5 -->
<g id="edge4" class="edge"><title>Node4&#45;&gt;Node5</title>
<path fill="none" stroke="midnightblue" d="M272.438,-464.942C288.09,-456.305 306.287,-443.844 318,-428 345.265,-391.119 354.989,-336.455 358.334,-307.912"/>
<polygon fill="midnightblue" stroke="midnightblue" points="361.841,-308.021 359.382,-297.716 354.878,-307.305 361.841,-308.021"/>
</g>
<!-- Node6 -->
<g id="node6" class="node"><title>Node6</title>
<polygon fill="none" stroke="#bfbfbf" points="294.5,-74.5 294.5,-93.5 343.5,-93.5 343.5,-74.5 294.5,-74.5"/>
<text text-anchor="middle" x="319" y="-81.5" font-family="Helvetica,sans-Serif" font-size="10.00">cassert</text>
</g>
<!-- Node4&#45;&gt;Node6 -->
<g id="edge6" class="edge"><title>Node4&#45;&gt;Node6</title>
<path fill="none" stroke="midnightblue" d="M254.846,-464.795C273.007,-443.184 304,-400.003 304,-357 304,-357 304,-357 304,-219 304,-177.605 311.157,-129.461 315.584,-103.643"/>
<polygon fill="midnightblue" stroke="midnightblue" points="319.04,-104.199 317.337,-93.7418 312.147,-102.978 319.04,-104.199"/>
</g>
<!-- Node4&#45;&gt;Node7 -->
<g id="edge7" class="edge"><title>Node4&#45;&gt;Node7</title>
<path fill="none" stroke="midnightblue" d="M229.677,-464.781C222.043,-455.972 212.209,-444.626 204.242,-435.433"/>
<polygon fill="midnightblue" stroke="midnightblue" points="206.761,-432.995 197.566,-427.731 201.471,-437.58 206.761,-432.995"/>
</g>
<!-- Node7&#45;&gt;Node2 -->
<g id="edge8" class="edge"><title>Node7&#45;&gt;Node2</title>
<path fill="none" stroke="midnightblue" d="M185.492,-408.266C175.426,-387.929 152,-335.593 152,-289 152,-289 152,-289 152,-151 152,-98.1219 203.041,-53.2879 233.263,-31.3761"/>
<polygon fill="midnightblue" stroke="midnightblue" points="235.359,-34.1806 241.535,-25.5716 231.338,-28.4506 235.359,-34.1806"/>
</g>
<!-- Node7&#45;&gt;Node3 -->
<g id="edge10" class="edge"><title>Node7&#45;&gt;Node3</title>
<path fill="none" stroke="midnightblue" d="M175.837,-408.466C163.897,-400.52 147.311,-387.576 138,-372 98.5182,-305.952 90.7914,-211.464 89.3217,-171.732"/>
<polygon fill="midnightblue" stroke="midnightblue" points="92.818,-171.547 89.0449,-161.647 85.8207,-171.739 92.818,-171.547"/>
</g>
<!-- Node8 -->
<g id="node8" class="node"><title>Node8</title>
<polygon fill="none" stroke="#bfbfbf" points="358,-6.5 358,-25.5 402,-25.5 402,-6.5 358,-6.5"/>
<text text-anchor="middle" x="380" y="-13.5" font-family="Helvetica,sans-Serif" font-size="10.00">cmath</text>
</g>
<!-- Node7&#45;&gt;Node8 -->
<g id="edge9" class="edge"><title>Node7&#45;&gt;Node8</title>
<path fill="none" stroke="midnightblue" d="M190,-408.309C190,-387.633 190,-333.889 190,-289 190,-289 190,-289 190,-219 190,-146.452 200.434,-119.03 252,-68 278.198,-42.0744 319.228,-28.8819 347.746,-22.4866"/>
<polygon fill="midnightblue" stroke="midnightblue" points="348.559,-25.8924 357.636,-20.427 347.132,-19.0394 348.559,-25.8924"/>
</g>
<!-- Node9 -->
<g id="node9" class="node"><title>Node9</title>
<g id="a_node9"><a xlink:href="../../d6/d84/MathConstants_8h.html" target="_top" xlink:title="useful math constants ">
<polygon fill="none" stroke="black" points="420.5,-6.5 420.5,-25.5 599.5,-25.5 599.5,-6.5 420.5,-6.5"/>
<text text-anchor="middle" x="510" y="-13.5" font-family="Helvetica,sans-Serif" font-size="10.00">CommonConstants/MathConstants.h</text>
</a>
</g>
</g>
<!-- Node7&#45;&gt;Node9 -->
<g id="edge11" class="edge"><title>Node7&#45;&gt;Node9</title>
<path fill="none" stroke="midnightblue" d="M199.625,-408.438C220.076,-389.248 266,-340.43 266,-289 266,-289 266,-289 266,-151 266,-113.157 258.212,-94.7305 285,-68 296.7,-56.3253 386.851,-38.5035 449.423,-27.315"/>
<polygon fill="midnightblue" stroke="midnightblue" points="450.364,-30.7029 459.599,-25.5103 449.141,-23.8104 450.364,-30.7029"/>
</g>
<!-- Node7&#45;&gt;Node10 -->
<g id="edge12" class="edge"><title>Node7&#45;&gt;Node10</title>
<path fill="none" stroke="midnightblue" d="M260.4,-413.426C467.345,-402.922 1072.9,-372.183 1291.84,-361.069"/>
<polygon fill="midnightblue" stroke="midnightblue" points="1292.16,-364.557 1301.97,-360.555 1291.8,-357.566 1292.16,-364.557"/>
</g>
<!-- Node10&#45;&gt;Node2 -->
<g id="edge15" class="edge"><title>Node10&#45;&gt;Node2</title>
<path fill="none" stroke="midnightblue" d="M1301.91,-353.231C1147.98,-348.812 784.673,-335.315 666,-304 480.278,-254.993 408.629,-247.004 285,-100 269.32,-81.3549 261.544,-53.8527 257.904,-35.688"/>
<polygon fill="midnightblue" stroke="midnightblue" points="261.333,-34.9806 256.137,-25.7472 254.441,-36.2054 261.333,-34.9806"/>
</g>
<!-- Node10&#45;&gt;Node5 -->
<g id="edge14" class="edge"><title>Node10&#45;&gt;Node5</title>
<path fill="none" stroke="midnightblue" d="M1301.66,-353.946C1108.76,-350.634 574.272,-338.523 402,-304 398.014,-303.201 393.897,-302.099 389.87,-300.852"/>
<polygon fill="midnightblue" stroke="midnightblue" points="390.765,-297.459 380.17,-297.542 388.504,-304.084 390.765,-297.459"/>
</g>
<!-- Node10&#45;&gt;Node8 -->
<g id="edge17" class="edge"><title>Node10&#45;&gt;Node8</title>
<path fill="none" stroke="midnightblue" d="M1442.03,-348.303C1641.36,-326.859 2186.27,-250.33 2008,-68 1945.96,-4.54481 497.272,-52.8016 411,-32 408.508,-31.3991 405.981,-30.5788 403.501,-29.6293"/>
<polygon fill="midnightblue" stroke="midnightblue" points="404.897,-26.4194 394.34,-25.519 402.031,-32.806 404.897,-26.4194"/>
</g>
<!-- Node10&#45;&gt;Node9 -->
<g id="edge22" class="edge"><title>Node10&#45;&gt;Node9</title>
<path fill="none" stroke="midnightblue" d="M1442.11,-354.326C1605.45,-352.108 2000.97,-342.753 2046,-304 2074.68,-279.314 2065,-258.843 2065,-221 2065,-221 2065,-221 2065,-151 2065,-112.6 2071.3,-91.5834 2041,-68 1984.52,-24.0498 940.445,-17.9523 609.644,-17.1246"/>
<polygon fill="midnightblue" stroke="midnightblue" points="609.603,-13.6246 599.594,-17.1005 609.586,-20.6245 609.603,-13.6246"/>
</g>
<!-- Node11 -->
<g id="node11" class="node"><title>Node11</title>
<polygon fill="none" stroke="#bfbfbf" points="750,-74.5 750,-93.5 806,-93.5 806,-74.5 750,-74.5"/>
<text text-anchor="middle" x="778" y="-81.5" font-family="Helvetica,sans-Serif" font-size="10.00">Rtypes.h</text>
</g>
<!-- Node10&#45;&gt;Node11 -->
<g id="edge13" class="edge"><title>Node10&#45;&gt;Node11</title>
<path fill="none" stroke="midnightblue" d="M1367.2,-340.71C1356.22,-310.368 1326.3,-239.397 1276,-204 1190.11,-143.564 915.219,-131.388 815,-100 812.362,-99.1739 809.649,-98.2413 806.947,-97.2553"/>
<polygon fill="midnightblue" stroke="midnightblue" points="807.958,-93.8937 797.369,-93.5458 805.43,-100.421 807.958,-93.8937"/>
</g>
<!-- Node12 -->
<g id="node12" class="node"><title>Node12</title>
<polygon fill="none" stroke="#bfbfbf" points="1931.5,-278.5 1931.5,-297.5 1972.5,-297.5 1972.5,-278.5 1931.5,-278.5"/>
<text text-anchor="middle" x="1952" y="-285.5" font-family="Helvetica,sans-Serif" font-size="10.00">cfloat</text>
</g>
<!-- Node10&#45;&gt;Node12 -->
<g id="edge16" class="edge"><title>Node10&#45;&gt;Node12</title>
<path fill="none" stroke="midnightblue" d="M1442,-355.352C1546.88,-354.341 1750.3,-346.405 1917,-304 1919.82,-303.282 1922.71,-302.367 1925.56,-301.343"/>
<polygon fill="midnightblue" stroke="midnightblue" points="1926.95,-304.555 1934.93,-297.578 1924.34,-298.06 1926.95,-304.555"/>
</g>
<!-- Node13 -->
<g id="node13" class="node"><title>Node13</title>
<polygon fill="none" stroke="#bfbfbf" points="1991,-278.5 1991,-297.5 2037,-297.5 2037,-278.5 1991,-278.5"/>
<text text-anchor="middle" x="2014" y="-285.5" font-family="Helvetica,sans-Serif" font-size="10.00">cstring</text>
</g>
<!-- Node10&#45;&gt;Node13 -->
<g id="edge18" class="edge"><title>Node10&#45;&gt;Node13</title>
<path fill="none" stroke="midnightblue" d="M1442.2,-352.139C1579.95,-346.031 1880.9,-330.103 1981,-304 1983.5,-303.347 1986.06,-302.517 1988.57,-301.583"/>
<polygon fill="midnightblue" stroke="midnightblue" points="1990.1,-304.736 1997.96,-297.625 1987.38,-298.287 1990.1,-304.736"/>
</g>
<!-- Node14 -->
<g id="node14" class="node"><title>Node14</title>
<polygon fill="none" stroke="#bfbfbf" points="1945,-74.5 1945,-93.5 1999,-93.5 1999,-74.5 1945,-74.5"/>
<text text-anchor="middle" x="1972" y="-81.5" font-family="Helvetica,sans-Serif" font-size="10.00">iostream</text>
</g>
<!-- Node10&#45;&gt;Node14 -->
<g id="edge19" class="edge"><title>Node10&#45;&gt;Node14</title>
<path fill="none" stroke="midnightblue" d="M1403.41,-340.864C1508.07,-293.768 1843.91,-142.64 1943.75,-97.7123"/>
<polygon fill="midnightblue" stroke="midnightblue" points="1945.24,-100.881 1952.92,-93.5851 1942.37,-94.4971 1945.24,-100.881"/>
</g>
<!-- Node15 -->
<g id="node15" class="node"><title>Node15</title>
<polygon fill="none" stroke="#bfbfbf" points="2093.5,-278.5 2093.5,-297.5 2176.5,-297.5 2176.5,-278.5 2093.5,-278.5"/>
<text text-anchor="middle" x="2135" y="-285.5" font-family="Helvetica,sans-Serif" font-size="10.00">Math/SMatrix.h</text>
</g>
<!-- Node10&#45;&gt;Node15 -->
<g id="edge20" class="edge"><title>Node10&#45;&gt;Node15</title>
<path fill="none" stroke="midnightblue" d="M1442.02,-354.335C1569.57,-352.154 1847.97,-342.911 2079,-304 2084.98,-302.993 2091.24,-301.63 2097.33,-300.134"/>
<polygon fill="midnightblue" stroke="midnightblue" points="2098.52,-303.44 2107.31,-297.53 2096.75,-296.666 2098.52,-303.44"/>
</g>
<!-- Node16 -->
<g id="node16" class="node"><title>Node16</title>
<polygon fill="none" stroke="#bfbfbf" points="2194.5,-278.5 2194.5,-297.5 2279.5,-297.5 2279.5,-278.5 2194.5,-278.5"/>
<text text-anchor="middle" x="2237" y="-285.5" font-family="Helvetica,sans-Serif" font-size="10.00">Math/SVector.h</text>
</g>
<!-- Node10&#45;&gt;Node16 -->
<g id="edge21" class="edge"><title>Node10&#45;&gt;Node16</title>
<path fill="none" stroke="midnightblue" d="M1442.2,-355.721C1583.79,-356.051 1913.28,-351.13 2185,-304 2190.5,-303.047 2196.24,-301.729 2201.82,-300.266"/>
<polygon fill="midnightblue" stroke="midnightblue" points="2202.92,-303.594 2211.6,-297.526 2201.03,-296.853 2202.92,-303.594"/>
</g>
<!-- Node17 -->
<g id="node17" class="node"><title>Node17</title>
<g id="a_node17"><a xlink:href="../../dd/d76/Cartesian3D_8h.html" target="_top" xlink:title="MathUtils/Cartesian3D.h">
<polygon fill="none" stroke="black" points="1203.5,-142.5 1203.5,-161.5 1328.5,-161.5 1328.5,-142.5 1203.5,-142.5"/>
<text text-anchor="middle" x="1266" y="-149.5" font-family="Helvetica,sans-Serif" font-size="10.00">MathUtils/Cartesian3D.h</text>
</a>
</g>
</g>
<!-- Node10&#45;&gt;Node17 -->
<g id="edge23" class="edge"><title>Node10&#45;&gt;Node17</title>
<path fill="none" stroke="midnightblue" d="M1373.44,-340.711C1375.57,-312.164 1376.63,-247.125 1348,-204 1336.42,-186.558 1316.63,-173.997 1299.39,-165.705"/>
<polygon fill="midnightblue" stroke="midnightblue" points="1300.7,-162.456 1290.14,-161.534 1297.82,-168.837 1300.7,-162.456"/>
</g>
<!-- Node27 -->
<g id="node27" class="node"><title>Node27</title>
<g id="a_node27"><a xlink:href="../../d9/ded/Utils_8h.html" target="_top" xlink:title="General auxilliary methods. ">
<polygon fill="none" stroke="black" points="400,-74.5 400,-93.5 490,-93.5 490,-74.5 400,-74.5"/>
<text text-anchor="middle" x="445" y="-81.5" font-family="Helvetica,sans-Serif" font-size="10.00">MathUtils/Utils.h</text>
</a>
</g>
</g>
<!-- Node10&#45;&gt;Node27 -->
<g id="edge35" class="edge"><title>Node10&#45;&gt;Node27</title>
<path fill="none" stroke="midnightblue" d="M1301.76,-351.231C1129.37,-340.95 690.306,-308.22 565,-236 509.502,-204.013 469.939,-135.514 453.486,-102.932"/>
<polygon fill="midnightblue" stroke="midnightblue" points="456.509,-101.147 448.965,-93.7072 450.223,-104.227 456.509,-101.147"/>
</g>
<!-- Node28 -->
<g id="node28" class="node"><title>Node28</title>
<g id="a_node28"><a xlink:href="../../d4/de2/BaseCluster_8h.html" target="_top" xlink:title="ReconstructionDataFormats\l/BaseCluster.h">
<polygon fill="none" stroke="black" points="1088,-273 1088,-303 1228,-303 1228,-273 1088,-273"/>
<text text-anchor="start" x="1096" y="-291" font-family="Helvetica,sans-Serif" font-size="10.00">ReconstructionDataFormats</text>
<text text-anchor="middle" x="1158" y="-280" font-family="Helvetica,sans-Serif" font-size="10.00">/BaseCluster.h</text>
</a>
</g>
</g>
<!-- Node10&#45;&gt;Node28 -->
<g id="edge39" class="edge"><title>Node10&#45;&gt;Node28</title>
<path fill="none" stroke="midnightblue" d="M1326.35,-340.922C1293.25,-330.714 1248.32,-316.857 1213.2,-306.025"/>
<polygon fill="midnightblue" stroke="midnightblue" points="1214.16,-302.659 1203.58,-303.056 1212.1,-309.348 1214.16,-302.659"/>
</g>
<!-- Node17&#45;&gt;Node11 -->
<g id="edge29" class="edge"><title>Node17&#45;&gt;Node11</title>
<path fill="none" stroke="midnightblue" d="M1226.16,-142.48C1214.25,-140.138 1201.13,-137.761 1189,-136 1023.74,-112.007 977.182,-139.785 815,-100 811.935,-99.2481 808.79,-98.2892 805.69,-97.2206"/>
<polygon fill="midnightblue" stroke="midnightblue" points="806.686,-93.8546 796.096,-93.5531 804.187,-100.393 806.686,-93.8546"/>
</g>
<!-- Node17&#45;&gt;Node14 -->
<g id="edge31" class="edge"><title>Node17&#45;&gt;Node14</title>
<path fill="none" stroke="midnightblue" d="M1304.62,-142.445C1316.84,-140.016 1330.44,-137.599 1343,-136 1604.49,-102.727 1677.93,-158.282 1935,-100 1938.24,-99.2644 1941.57,-98.2773 1944.84,-97.1588"/>
<polygon fill="midnightblue" stroke="midnightblue" points="1946.23,-100.376 1954.31,-93.5298 1943.72,-93.8395 1946.23,-100.376"/>
</g>
<!-- Node18 -->
<g id="node18" class="node"><title>Node18</title>
<polygon fill="none" stroke="#bfbfbf" points="918.5,-69 918.5,-99 1069.5,-99 1069.5,-69 918.5,-69"/>
<text text-anchor="start" x="926.5" y="-87" font-family="Helvetica,sans-Serif" font-size="10.00">Math/GenVector/Displacement</text>
<text text-anchor="middle" x="994" y="-76" font-family="Helvetica,sans-Serif" font-size="10.00">Vector3D.h</text>
</g>
<!-- Node17&#45;&gt;Node18 -->
<g id="edge24" class="edge"><title>Node17&#45;&gt;Node18</title>
<path fill="none" stroke="midnightblue" d="M1230.72,-142.439C1188.03,-132.08 1115.2,-114.41 1061.58,-101.397"/>
<polygon fill="midnightblue" stroke="midnightblue" points="1062.34,-97.9816 1051.8,-99.0247 1060.69,-104.784 1062.34,-97.9816"/>
</g>
<!-- Node19 -->
<g id="node19" class="node"><title>Node19</title>
<polygon fill="none" stroke="#bfbfbf" points="1088,-74.5 1088,-93.5 1264,-93.5 1264,-74.5 1088,-74.5"/>
<text text-anchor="middle" x="1176" y="-81.5" font-family="Helvetica,sans-Serif" font-size="10.00">Math/GenVector/PositionVector3D.h</text>
</g>
<!-- Node17&#45;&gt;Node19 -->
<g id="edge25" class="edge"><title>Node17&#45;&gt;Node19</title>
<path fill="none" stroke="midnightblue" d="M1254.23,-142.372C1239.41,-131.502 1213.72,-112.66 1195.84,-99.5474"/>
<polygon fill="midnightblue" stroke="midnightblue" points="1197.9,-96.7217 1187.77,-93.6305 1193.76,-102.367 1197.9,-96.7217"/>
</g>
<!-- Node20 -->
<g id="node20" class="node"><title>Node20</title>
<polygon fill="none" stroke="#bfbfbf" points="1281.5,-74.5 1281.5,-93.5 1430.5,-93.5 1430.5,-74.5 1281.5,-74.5"/>
<text text-anchor="middle" x="1356" y="-81.5" font-family="Helvetica,sans-Serif" font-size="10.00">Math/GenVector/Rotation3D.h</text>
</g>
<!-- Node17&#45;&gt;Node20 -->
<g id="edge26" class="edge"><title>Node17&#45;&gt;Node20</title>
<path fill="none" stroke="midnightblue" d="M1277.77,-142.372C1292.59,-131.502 1318.28,-112.66 1336.16,-99.5474"/>
<polygon fill="midnightblue" stroke="midnightblue" points="1338.24,-102.367 1344.23,-93.6305 1334.1,-96.7217 1338.24,-102.367"/>
</g>
<!-- Node21 -->
<g id="node21" class="node"><title>Node21</title>
<polygon fill="none" stroke="#bfbfbf" points="1449,-74.5 1449,-93.5 1605,-93.5 1605,-74.5 1449,-74.5"/>
<text text-anchor="middle" x="1527" y="-81.5" font-family="Helvetica,sans-Serif" font-size="10.00">Math/GenVector/Transform3D.h</text>
</g>
<!-- Node17&#45;&gt;Node21 -->
<g id="edge27" class="edge"><title>Node17&#45;&gt;Node21</title>
<path fill="none" stroke="midnightblue" d="M1299.85,-142.439C1346.79,-130.57 1431.68,-109.103 1483.34,-96.0406"/>
<polygon fill="midnightblue" stroke="midnightblue" points="1484.37,-99.3904 1493.21,-93.5455 1482.65,-92.604 1484.37,-99.3904"/>
</g>
<!-- Node22 -->
<g id="node22" class="node"><title>Node22</title>
<polygon fill="none" stroke="#bfbfbf" points="1623,-74.5 1623,-93.5 1783,-93.5 1783,-74.5 1623,-74.5"/>
<text text-anchor="middle" x="1703" y="-81.5" font-family="Helvetica,sans-Serif" font-size="10.00">Math/GenVector/Translation3D.h</text>
</g>
<!-- Node17&#45;&gt;Node22 -->
<g id="edge28" class="edge"><title>Node17&#45;&gt;Node22</title>
<path fill="none" stroke="midnightblue" d="M1307.48,-142.444C1318.96,-140.205 1331.44,-137.892 1343,-136 1462.91,-116.375 1493.85,-118.099 1614,-100 1623.76,-98.5295 1634.11,-96.8743 1644.16,-95.2144"/>
<polygon fill="midnightblue" stroke="midnightblue" points="1644.8,-98.657 1654.08,-93.5596 1643.64,-91.7524 1644.8,-98.657"/>
</g>
<!-- Node23 -->
<g id="node23" class="node"><title>Node23</title>
<polygon fill="none" stroke="#bfbfbf" points="824,-74.5 824,-93.5 900,-93.5 900,-74.5 824,-74.5"/>
<text text-anchor="middle" x="862" y="-81.5" font-family="Helvetica,sans-Serif" font-size="10.00">TGeoMatrix.h</text>
</g>
<!-- Node17&#45;&gt;Node23 -->
<g id="edge30" class="edge"><title>Node17&#45;&gt;Node23</title>
<path fill="none" stroke="midnightblue" d="M1224.93,-142.49C1213.34,-140.227 1200.7,-137.889 1189,-136 1065.14,-115.994 1031.49,-127.185 909,-100 904.767,-99.0605 900.37,-97.906 896.04,-96.6582"/>
<polygon fill="midnightblue" stroke="midnightblue" points="896.751,-93.2157 886.165,-93.6349 894.702,-99.9091 896.751,-93.2157"/>
</g>
<!-- Node24 -->
<g id="node24" class="node"><title>Node24</title>
<g id="a_node24"><a xlink:href="../../d2/dd0/Cartesian2D_8h.html" target="_top" xlink:title="MathUtils/Cartesian2D.h">
<polygon fill="none" stroke="black" points="1801.5,-74.5 1801.5,-93.5 1926.5,-93.5 1926.5,-74.5 1801.5,-74.5"/>
<text text-anchor="middle" x="1864" y="-81.5" font-family="Helvetica,sans-Serif" font-size="10.00">MathUtils/Cartesian2D.h</text>
</a>
</g>
</g>
<!-- Node17&#45;&gt;Node24 -->
<g id="edge32" class="edge"><title>Node17&#45;&gt;Node24</title>
<path fill="none" stroke="midnightblue" d="M1305.43,-142.436C1317.44,-140.065 1330.72,-137.683 1343,-136 1541.34,-108.817 1593.84,-128.471 1792,-100 1800.36,-98.7992 1809.2,-97.218 1817.72,-95.533"/>
<polygon fill="midnightblue" stroke="midnightblue" points="1818.43,-98.9598 1827.53,-93.5238 1817.03,-92.1022 1818.43,-98.9598"/>
</g>
<!-- Node25 -->
<g id="node25" class="node"><title>Node25</title>
<polygon fill="none" stroke="#bfbfbf" points="1879.5,-1 1879.5,-31 2030.5,-31 2030.5,-1 1879.5,-1"/>
<text text-anchor="start" x="1887.5" y="-19" font-family="Helvetica,sans-Serif" font-size="10.00">Math/GenVector/Displacement</text>
<text text-anchor="middle" x="1955" y="-8" font-family="Helvetica,sans-Serif" font-size="10.00">Vector2D.h</text>
</g>
<!-- Node24&#45;&gt;Node25 -->
<g id="edge33" class="edge"><title>Node24&#45;&gt;Node25</title>
<path fill="none" stroke="midnightblue" d="M1875.9,-74.3717C1888.78,-65.0286 1909.78,-49.7966 1926.91,-37.375"/>
<polygon fill="midnightblue" stroke="midnightblue" points="1929.41,-39.8859 1935.45,-31.1815 1925.3,-34.2194 1929.41,-39.8859"/>
</g>
<!-- Node26 -->
<g id="node26" class="node"><title>Node26</title>
<polygon fill="none" stroke="#bfbfbf" points="1685,-6.5 1685,-25.5 1861,-25.5 1861,-6.5 1685,-6.5"/>
<text text-anchor="middle" x="1773" y="-13.5" font-family="Helvetica,sans-Serif" font-size="10.00">Math/GenVector/PositionVector2D.h</text>
</g>
<!-- Node24&#45;&gt;Node26 -->
<g id="edge34" class="edge"><title>Node24&#45;&gt;Node26</title>
<path fill="none" stroke="midnightblue" d="M1852.1,-74.3717C1837.12,-63.5015 1811.14,-44.6602 1793.06,-31.5474"/>
<polygon fill="midnightblue" stroke="midnightblue" points="1795.05,-28.6684 1784.9,-25.6305 1790.94,-34.3349 1795.05,-28.6684"/>
</g>
<!-- Node27&#45;&gt;Node2 -->
<g id="edge36" class="edge"><title>Node27&#45;&gt;Node2</title>
<path fill="none" stroke="midnightblue" d="M420.161,-74.3717C385.038,-62.171 321.006,-39.9284 283.831,-27.015"/>
<polygon fill="midnightblue" stroke="midnightblue" points="284.699,-23.6114 274.104,-23.6362 282.402,-30.2239 284.699,-23.6114"/>
</g>
<!-- Node27&#45;&gt;Node8 -->
<g id="edge37" class="edge"><title>Node27&#45;&gt;Node8</title>
<path fill="none" stroke="midnightblue" d="M436.502,-74.3717C426.243,-63.9547 408.775,-46.2173 395.971,-33.2162"/>
<polygon fill="midnightblue" stroke="midnightblue" points="398.218,-30.5101 388.707,-25.8411 393.23,-35.4219 398.218,-30.5101"/>
</g>
<!-- Node27&#45;&gt;Node9 -->
<g id="edge38" class="edge"><title>Node27&#45;&gt;Node9</title>
<path fill="none" stroke="midnightblue" d="M453.498,-74.3717C463.757,-63.9547 481.225,-46.2173 494.029,-33.2162"/>
<polygon fill="midnightblue" stroke="midnightblue" points="496.77,-35.4219 501.293,-25.8411 491.782,-30.5101 496.77,-35.4219"/>
</g>
<!-- Node28&#45;&gt;Node14 -->
<g id="edge44" class="edge"><title>Node28&#45;&gt;Node14</title>
<path fill="none" stroke="midnightblue" d="M1193.96,-272.956C1217.64,-263.343 1249.13,-249.868 1276,-236 1352.2,-196.676 1359.31,-162.061 1441,-136 1650.72,-69.0957 1720.61,-149.962 1935,-100 1938.07,-99.2837 1941.22,-98.3478 1944.33,-97.2929"/>
<polygon fill="midnightblue" stroke="midnightblue" points="1945.82,-100.469 1953.93,-93.6415 1943.33,-93.926 1945.82,-100.469"/>
</g>
<!-- Node28&#45;&gt;Node17 -->
<g id="edge59" class="edge"><title>Node28&#45;&gt;Node17</title>
<path fill="none" stroke="midnightblue" d="M1162.88,-272.971C1169.43,-255.519 1182.3,-225.411 1200,-204 1212.11,-189.35 1229.15,-176.316 1242.88,-167.092"/>
<polygon fill="midnightblue" stroke="midnightblue" points="1244.86,-169.981 1251.34,-161.602 1241.05,-164.109 1244.86,-169.981"/>
</g>
<!-- Node29 -->
<g id="node29" class="node"><title>Node29</title>
<polygon fill="none" stroke="#bfbfbf" points="1208.5,-210.5 1208.5,-229.5 1267.5,-229.5 1267.5,-210.5 1208.5,-210.5"/>
<text text-anchor="middle" x="1238" y="-217.5" font-family="Helvetica,sans-Serif" font-size="10.00">TObject.h</text>
</g>
<!-- Node28&#45;&gt;Node29 -->
<g id="edge40" class="edge"><title>Node28&#45;&gt;Node29</title>
<path fill="none" stroke="midnightblue" d="M1175.36,-272.679C1188.33,-261.981 1206.03,-247.377 1219.31,-236.422"/>
<polygon fill="midnightblue" stroke="midnightblue" points="1221.81,-238.892 1227.3,-229.828 1217.36,-233.492 1221.81,-238.892"/>
</g>
<!-- Node30 -->
<g id="node30" class="node"><title>Node30</title>
<polygon fill="none" stroke="#bfbfbf" points="508.5,-74.5 508.5,-93.5 549.5,-93.5 549.5,-74.5 508.5,-74.5"/>
<text text-anchor="middle" x="529" y="-81.5" font-family="Helvetica,sans-Serif" font-size="10.00">bitset</text>
</g>
<!-- Node28&#45;&gt;Node30 -->
<g id="edge41" class="edge"><title>Node28&#45;&gt;Node30</title>
<path fill="none" stroke="midnightblue" d="M1087.97,-287.823C991.104,-287.16 811.673,-279.39 666,-236 602.752,-217.161 570.035,-223.287 534,-168 521.526,-148.862 522.563,-121.668 525.174,-103.691"/>
<polygon fill="midnightblue" stroke="midnightblue" points="528.661,-104.07 526.944,-93.615 521.767,-102.859 528.661,-104.07"/>
</g>
<!-- Node31 -->
<g id="node31" class="node"><title>Node31</title>
<polygon fill="none" stroke="#bfbfbf" points="1054,-210.5 1054,-229.5 1104,-229.5 1104,-210.5 1054,-210.5"/>
<text text-anchor="middle" x="1079" y="-217.5" font-family="Helvetica,sans-Serif" font-size="10.00">iomanip</text>
</g>
<!-- Node28&#45;&gt;Node31 -->
<g id="edge42" class="edge"><title>Node28&#45;&gt;Node31</title>
<path fill="none" stroke="midnightblue" d="M1140.86,-272.679C1128.05,-261.981 1110.57,-247.377 1097.46,-236.422"/>
<polygon fill="midnightblue" stroke="midnightblue" points="1099.49,-233.554 1089.57,-229.828 1095,-238.926 1099.49,-233.554"/>
</g>
<!-- Node32 -->
<g id="node32" class="node"><title>Node32</title>
<polygon fill="none" stroke="#bfbfbf" points="1122.5,-210.5 1122.5,-229.5 1151.5,-229.5 1151.5,-210.5 1122.5,-210.5"/>
<text text-anchor="middle" x="1137" y="-217.5" font-family="Helvetica,sans-Serif" font-size="10.00">ios</text>
</g>
<!-- Node28&#45;&gt;Node32 -->
<g id="edge43" class="edge"><title>Node28&#45;&gt;Node32</title>
<path fill="none" stroke="midnightblue" d="M1153.44,-272.679C1150.36,-262.999 1146.27,-250.123 1142.93,-239.645"/>
<polygon fill="midnightblue" stroke="midnightblue" points="1146.18,-238.296 1139.81,-229.828 1139.51,-240.419 1146.18,-238.296"/>
</g>
<!-- Node33 -->
<g id="node33" class="node"><title>Node33</title>
<g id="a_node33"><a xlink:href="../../d4/d20/DetMatrixCache_8h.html" target="_top" xlink:title="DetectorsCommonDataFormats\l/DetMatrixCache.h">
<polygon fill="none" stroke="black" points="675,-205 675,-235 831,-235 831,-205 675,-205"/>
<text text-anchor="start" x="683" y="-223" font-family="Helvetica,sans-Serif" font-size="10.00">DetectorsCommonDataFormats</text>
<text text-anchor="middle" x="753" y="-212" font-family="Helvetica,sans-Serif" font-size="10.00">/DetMatrixCache.h</text>
</a>
</g>
</g>
<!-- Node28&#45;&gt;Node33 -->
<g id="edge45" class="edge"><title>Node28&#45;&gt;Node33</title>
<path fill="none" stroke="midnightblue" d="M1087.92,-275.579C1019.59,-264.444 915.442,-247.472 841.446,-235.413"/>
<polygon fill="midnightblue" stroke="midnightblue" points="841.645,-231.9 831.212,-233.746 840.519,-238.809 841.645,-231.9"/>
</g>
<!-- Node33&#45;&gt;Node2 -->
<g id="edge47" class="edge"><title>Node33&#45;&gt;Node2</title>
<path fill="none" stroke="midnightblue" d="M674.816,-205.048C632.505,-196.441 579.695,-183.976 534,-168 467.568,-144.774 450.419,-137.71 391,-100 372.069,-87.9858 370.686,-80.392 352,-68 329.789,-53.2701 302.843,-39.3903 282.993,-29.8405"/>
<polygon fill="midnightblue" stroke="midnightblue" points="284.406,-26.637 273.87,-25.5155 281.407,-32.9621 284.406,-26.637"/>
</g>
<!-- Node33&#45;&gt;Node3 -->
<g id="edge48" class="edge"><title>Node33&#45;&gt;Node3</title>
<path fill="none" stroke="midnightblue" d="M674.878,-211.235C529.176,-196.752 221.656,-166.186 121.37,-156.217"/>
<polygon fill="midnightblue" stroke="midnightblue" points="121.548,-152.718 111.251,-155.212 120.856,-159.684 121.548,-152.718"/>
</g>
<!-- Node33&#45;&gt;Node11 -->
<g id="edge58" class="edge"><title>Node33&#45;&gt;Node11</title>
<path fill="none" stroke="midnightblue" d="M770.183,-204.879C780.091,-195.576 791.621,-182.469 797,-168 805.02,-146.428 796.258,-120.397 788.16,-103.308"/>
<polygon fill="midnightblue" stroke="midnightblue" points="791.036,-101.246 783.359,-93.9437 784.806,-104.439 791.036,-101.246"/>
</g>
<!-- Node33&#45;&gt;Node17 -->
<g id="edge57" class="edge"><title>Node33&#45;&gt;Node17</title>
<path fill="none" stroke="midnightblue" d="M831.193,-208.94C929.565,-196.284 1097.19,-174.718 1193.03,-162.388"/>
<polygon fill="midnightblue" stroke="midnightblue" points="1193.75,-165.825 1203.22,-161.077 1192.85,-158.882 1193.75,-165.825"/>
</g>
<!-- Node34 -->
<g id="node34" class="node"><title>Node34</title>
<polygon fill="none" stroke="#bfbfbf" points="717.5,-142.5 717.5,-161.5 788.5,-161.5 788.5,-142.5 717.5,-142.5"/>
<text text-anchor="middle" x="753" y="-149.5" font-family="Helvetica,sans-Serif" font-size="10.00">FairLogger.h</text>
</g>
<!-- Node33&#45;&gt;Node34 -->
<g id="edge46" class="edge"><title>Node33&#45;&gt;Node34</title>
<path fill="none" stroke="midnightblue" d="M753,-204.679C753,-195.101 753,-182.394 753,-171.977"/>
<polygon fill="midnightblue" stroke="midnightblue" points="756.5,-171.828 753,-161.828 749.5,-171.828 756.5,-171.828"/>
</g>
<!-- Node35 -->
<g id="node35" class="node"><title>Node35</title>
<g id="a_node35"><a xlink:href="../../d6/d31/DetID_8h.html" target="_top" xlink:title="DetectorsCommonDataFormats\l/DetID.h">
<polygon fill="none" stroke="black" points="543,-137 543,-167 699,-167 699,-137 543,-137"/>
<text text-anchor="start" x="551" y="-155" font-family="Helvetica,sans-Serif" font-size="10.00">DetectorsCommonDataFormats</text>
<text text-anchor="middle" x="621" y="-144" font-family="Helvetica,sans-Serif" font-size="10.00">/DetID.h</text>
</a>
</g>
</g>
<!-- Node33&#45;&gt;Node35 -->
<g id="edge49" class="edge"><title>Node33&#45;&gt;Node35</title>
<path fill="none" stroke="midnightblue" d="M724.683,-204.841C705.282,-195.141 679.348,-182.174 658.272,-171.636"/>
<polygon fill="midnightblue" stroke="midnightblue" points="659.78,-168.477 649.27,-167.135 656.649,-174.738 659.78,-168.477"/>
</g>
<!-- Node35&#45;&gt;Node2 -->
<g id="edge51" class="edge"><title>Node35&#45;&gt;Node2</title>
<path fill="none" stroke="midnightblue" d="M614.531,-136.902C605.025,-117.908 585.396,-84.5765 558,-68 555.057,-66.2192 359.989,-34.1728 284.437,-21.8097"/>
<polygon fill="midnightblue" stroke="midnightblue" points="284.628,-18.2946 274.194,-20.1344 283.498,-25.2028 284.628,-18.2946"/>
</g>
<!-- Node35&#45;&gt;Node6 -->
<g id="edge53" class="edge"><title>Node35&#45;&gt;Node6</title>
<path fill="none" stroke="midnightblue" d="M556.584,-136.922C494.481,-123.35 402.865,-103.328 353.514,-92.5427"/>
<polygon fill="midnightblue" stroke="midnightblue" points="354.167,-89.1029 343.65,-90.3871 352.672,-95.9415 354.167,-89.1029"/>
</g>
<!-- Node35&#45;&gt;Node11 -->
<g id="edge50" class="edge"><title>Node35&#45;&gt;Node11</title>
<path fill="none" stroke="midnightblue" d="M654.68,-136.841C682.446,-125.169 721.461,-108.768 748.126,-97.5585"/>
<polygon fill="midnightblue" stroke="midnightblue" points="749.485,-100.784 757.348,-93.6819 746.773,-94.3308 749.485,-100.784"/>
</g>
<!-- Node35&#45;&gt;Node27 -->
<g id="edge56" class="edge"><title>Node35&#45;&gt;Node27</title>
<path fill="none" stroke="midnightblue" d="M583.244,-136.841C551.754,-125.033 507.358,-108.384 477.447,-97.1676"/>
<polygon fill="midnightblue" stroke="midnightblue" points="478.49,-93.821 467.898,-93.5868 476.033,-100.375 478.49,-93.821"/>
</g>
<!-- Node35&#45;&gt;Node30 -->
<g id="edge52" class="edge"><title>Node35&#45;&gt;Node30</title>
<path fill="none" stroke="midnightblue" d="M601.037,-136.679C585.752,-125.713 564.748,-110.645 549.363,-99.6085"/>
<polygon fill="midnightblue" stroke="midnightblue" points="551.206,-96.6231 541.041,-93.6379 547.126,-102.311 551.206,-96.6231"/>
</g>
<!-- Node36 -->
<g id="node36" class="node"><title>Node36</title>
<polygon fill="none" stroke="#bfbfbf" points="606,-74.5 606,-93.5 652,-93.5 652,-74.5 606,-74.5"/>
<text text-anchor="middle" x="629" y="-81.5" font-family="Helvetica,sans-Serif" font-size="10.00">cstdint</text>
</g>
<!-- Node35&#45;&gt;Node36 -->
<g id="edge54" class="edge"><title>Node35&#45;&gt;Node36</title>
<path fill="none" stroke="midnightblue" d="M622.736,-136.679C623.897,-127.101 625.437,-114.394 626.7,-103.977"/>
<polygon fill="midnightblue" stroke="midnightblue" points="630.201,-104.177 627.93,-93.8283 623.252,-103.334 630.201,-104.177"/>
</g>
<!-- Node37 -->
<g id="node37" class="node"><title>Node37</title>
<polygon fill="none" stroke="#bfbfbf" points="670,-74.5 670,-93.5 732,-93.5 732,-74.5 670,-74.5"/>
<text text-anchor="middle" x="701" y="-81.5" font-family="Helvetica,sans-Serif" font-size="10.00">type_traits</text>
</g>
<!-- Node35&#45;&gt;Node37 -->
<g id="edge55" class="edge"><title>Node35&#45;&gt;Node37</title>
<path fill="none" stroke="midnightblue" d="M638.359,-136.679C651.327,-125.981 669.028,-111.377 682.306,-100.422"/>
<polygon fill="midnightblue" stroke="midnightblue" points="684.813,-102.892 690.299,-93.8283 680.358,-97.4923 684.813,-102.892"/>
</g>
</g>
</svg>
        <g id="navigator" transform="translate(0 0)" fill="#404254">
                <rect fill="#f2f5e9" fill-opacity="0.5" stroke="#606060" stroke-width=".5" x="0" y="0" width="60" height="60"/>
                <use id="zoomplus" xlink:href="#zoomPlus" x="17" y="9" onmousedown="handleZoom(evt,'in')"/>
                <use id="zoomminus" xlink:href="#zoomMin" x="42" y="9" onmousedown="handleZoom(evt,'out')"/>
                <use id="reset" xlink:href="#resetDef" x="30" y="36" onmousedown="handleReset()"/>
                <g id="arrowUp" xlink:href="#dirArrow" transform="translate(30 24)" onmousedown="handlePan(0,-1)">
                  <use xlink:href="#rim" fill="#404040">
                        <set attributeName="fill" to="#808080" begin="arrowUp.mouseover" end="arrowUp.mouseout"/>
                  </use>
                  <path fill="none" stroke="white" stroke-width="1.5" d="M0,-3.0v7 M-2.5,-0.5L0,-3.0L2.5,-0.5"/>
                </g>
                <g id="arrowRight" xlink:href="#dirArrow" transform="rotate(90) translate(36 -43)" onmousedown="handlePan(1,0)">
                  <use xlink:href="#rim" fill="#404040">
                        <set attributeName="fill" to="#808080" begin="arrowRight.mouseover" end="arrowRight.mouseout"/>
                  </use>
                  <path fill="none" stroke="white" stroke-width="1.5" d="M0,-3.0v7 M-2.5,-0.5L0,-3.0L2.5,-0.5"/>
                </g>
                <g id="arrowDown" xlink:href="#dirArrow" transform="rotate(180) translate(-30 -48)" onmousedown="handlePan(0,1)">
                  <use xlink:href="#rim" fill="#404040">
                        <set attributeName="fill" to="#808080" begin="arrowDown.mouseover" end="arrowDown.mouseout"/>
                  </use>
                  <path fill="none" stroke="white" stroke-width="1.5" d="M0,-3.0v7 M-2.5,-0.5L0,-3.0L2.5,-0.5"/>
                </g>
                <g id="arrowLeft" xlink:href="#dirArrow" transform="rotate(270) translate(-36 17)" onmousedown="handlePan(-1,0)">
                  <use xlink:href="#rim" fill="#404040">
                        <set attributeName="fill" to="#808080" begin="arrowLeft.mouseover" end="arrowLeft.mouseout"/>
                  </use>
                  <path fill="none" stroke="white" stroke-width="1.5" d="M0,-3.0v7 M-2.5,-0.5L0,-3.0L2.5,-0.5"/>
                </g>
        </g>
        <svg viewBox="0 0 15 15" width="100%" height="30px" preserveAspectRatio="xMaxYMin meet">
         <g id="arrow_out" transform="scale(0.3 0.3)">
          <a xlink:href="CATracker_8h__incl_org.svg" target="_base">
           <rect id="button" ry="5" rx="5" y="6" x="6" height="38" width="38"
                fill="#f2f5e9" fill-opacity="0.5" stroke="#606060" stroke-width="1.0"/>
           <path id="arrow"
             d="M 11.500037,31.436501 C 11.940474,20.09759 22.043105,11.32322 32.158766,21.979434 L 37.068811,17.246167 C 37.068811,17.246167 37.088388,32 37.088388,32 L 22.160133,31.978069 C 22.160133,31.978069 26.997745,27.140456 26.997745,27.140456 C 18.528582,18.264221 13.291696,25.230495 11.500037,31.436501 z"
             style="fill:#404040;"/>
          </a>
         </g>
        </svg>
</svg>
