<?xml version="1.0" encoding="UTF-8" standalone="no"?>
<!DOCTYPE svg PUBLIC "-//W3C//DTD SVG 1.1//EN"
 "http://www.w3.org/Graphics/SVG/1.1/DTD/svg11.dtd">
<!-- Generated by graphviz version 2.36.0 (20140111.2315)
 -->
<!-- Title: /home/travis/build/AliceO2Group/AliceO2/Detectors/ITSMFT/ITS/simulation/include/ITSSimulation/V3Layer.h Pages: 1 -->
<svg width="2537pt" height="468pt"
 viewBox="0.00 0.00 2537.00 468.00" xmlns="http://www.w3.org/2000/svg" xmlns:xlink="http://www.w3.org/1999/xlink">
<g id="graph0" class="graph" transform="scale(1 1) rotate(0) translate(4 464)">
<title>/home/travis/build/AliceO2Group/AliceO2/Detectors/ITSMFT/ITS/simulation/include/ITSSimulation/V3Layer.h</title>
<!-- Node1 -->
<g id="node1" class="node"><title>Node1</title>
<polygon fill="#bfbfbf" stroke="black" points="887,-396.5 887,-459.5 1049,-459.5 1049,-396.5 887,-396.5"/>
<text text-anchor="start" x="895" y="-447.5" font-family="Helvetica,sans-Serif" font-size="10.00">/home/travis/build</text>
<text text-anchor="start" x="895" y="-436.5" font-family="Helvetica,sans-Serif" font-size="10.00">/AliceO2Group/AliceO2</text>
<text text-anchor="start" x="895" y="-425.5" font-family="Helvetica,sans-Serif" font-size="10.00">/Detectors/ITSMFT/ITS</text>
<text text-anchor="start" x="895" y="-414.5" font-family="Helvetica,sans-Serif" font-size="10.00">/simulation/include/ITSSimulation</text>
<text text-anchor="middle" x="968" y="-403.5" font-family="Helvetica,sans-Serif" font-size="10.00">/V3Layer.h</text>
</g>
<!-- Node2 -->
<g id="node2" class="node"><title>Node2</title>
<polygon fill="none" stroke="#bfbfbf" points="969,-278.5 969,-297.5 1055,-297.5 1055,-278.5 969,-278.5"/>
<text text-anchor="middle" x="1012" y="-285.5" font-family="Helvetica,sans-Serif" font-size="10.00">TGeoManager.h</text>
</g>
<!-- Node1&#45;&gt;Node2 -->
<g id="edge1" class="edge"><title>Node1&#45;&gt;Node2</title>
<path fill="none" stroke="midnightblue" d="M977.765,-396.373C986.468,-369.077 998.917,-330.034 1006.16,-307.321"/>
<polygon fill="midnightblue" stroke="midnightblue" points="1009.55,-308.197 1009.26,-297.606 1002.88,-306.071 1009.55,-308.197"/>
</g>
<!-- Node3 -->
<g id="node3" class="node"><title>Node3</title>
<polygon fill="none" stroke="#bfbfbf" points="1191,-74.5 1191,-93.5 1247,-93.5 1247,-74.5 1191,-74.5"/>
<text text-anchor="middle" x="1219" y="-81.5" font-family="Helvetica,sans-Serif" font-size="10.00">Rtypes.h</text>
</g>
<!-- Node1&#45;&gt;Node3 -->
<g id="edge2" class="edge"><title>Node1&#45;&gt;Node3</title>
<path fill="none" stroke="midnightblue" d="M958.481,-396.369C950.707,-368.623 941,-326.473 941,-289 941,-289 941,-289 941,-219 941,-99.5428 1068.2,-136.311 1182,-100 1184.63,-99.1599 1187.34,-98.2175 1190.04,-97.2252"/>
<polygon fill="midnightblue" stroke="midnightblue" points="1191.56,-100.389 1199.62,-93.5057 1189.03,-93.8644 1191.56,-100.389"/>
</g>
<!-- Node4 -->
<g id="node4" class="node"><title>Node4</title>
<g id="a_node4"><a xlink:href="../../d1/d2f/V11Geometry_8h.html" target="_top" xlink:title="Definition of the V11Geometry class. ">
<polygon fill="none" stroke="black" points="764.5,-340.5 764.5,-359.5 913.5,-359.5 913.5,-340.5 764.5,-340.5"/>
<text text-anchor="middle" x="839" y="-347.5" font-family="Helvetica,sans-Serif" font-size="10.00">ITSSimulation/V11Geometry.h</text>
</a>
</g>
</g>
<!-- Node1&#45;&gt;Node4 -->
<g id="edge3" class="edge"><title>Node1&#45;&gt;Node4</title>
<path fill="none" stroke="midnightblue" d="M915.903,-396.307C897.432,-385.425 877.552,-373.713 862.632,-364.923"/>
<polygon fill="midnightblue" stroke="midnightblue" points="864.001,-361.667 853.609,-359.607 860.448,-367.698 864.001,-361.667"/>
</g>
<!-- Node7 -->
<g id="node7" class="node"><title>Node7</title>
<g id="a_node7"><a xlink:href="../../d6/d8d/ITSMFT_2ITS_2simulation_2include_2ITSSimulation_2Detector_8h.html" target="_top" xlink:title="ITSSimulation/Detector.h">
<polygon fill="none" stroke="black" points="1292.5,-340.5 1292.5,-359.5 1419.5,-359.5 1419.5,-340.5 1292.5,-340.5"/>
<text text-anchor="middle" x="1356" y="-347.5" font-family="Helvetica,sans-Serif" font-size="10.00">ITSSimulation/Detector.h</text>
</a>
</g>
</g>
<!-- Node1&#45;&gt;Node7 -->
<g id="edge7" class="edge"><title>Node1&#45;&gt;Node7</title>
<path fill="none" stroke="midnightblue" d="M1049.34,-411.068C1125.38,-396.173 1236.76,-374.357 1302.27,-361.524"/>
<polygon fill="midnightblue" stroke="midnightblue" points="1303.24,-364.901 1312.38,-359.544 1301.9,-358.031 1303.24,-364.901"/>
</g>
<!-- Node4&#45;&gt;Node3 -->
<g id="edge6" class="edge"><title>Node4&#45;&gt;Node3</title>
<path fill="none" stroke="midnightblue" d="M848.671,-340.248C857.489,-331.774 870.283,-318.162 878,-304 915.216,-235.704 868.201,-186.912 927,-136 970.264,-98.5394 1126.73,-114.862 1182,-100 1184.98,-99.1979 1188.05,-98.2205 1191.08,-97.1531"/>
<polygon fill="midnightblue" stroke="midnightblue" points="1192.4,-100.394 1200.48,-93.5417 1189.89,-93.8589 1192.4,-100.394"/>
</g>
<!-- Node5 -->
<g id="node5" class="node"><title>Node5</title>
<polygon fill="none" stroke="#bfbfbf" points="816.5,-278.5 816.5,-297.5 869.5,-297.5 869.5,-278.5 816.5,-278.5"/>
<text text-anchor="middle" x="843" y="-285.5" font-family="Helvetica,sans-Serif" font-size="10.00">TMath.h</text>
</g>
<!-- Node4&#45;&gt;Node5 -->
<g id="edge4" class="edge"><title>Node4&#45;&gt;Node5</title>
<path fill="none" stroke="midnightblue" d="M839.573,-340.403C840.137,-331.938 841.018,-318.728 841.745,-307.82"/>
<polygon fill="midnightblue" stroke="midnightblue" points="845.255,-307.791 842.428,-297.581 838.27,-307.326 845.255,-307.791"/>
</g>
<!-- Node6 -->
<g id="node6" class="node"><title>Node6</title>
<polygon fill="none" stroke="#bfbfbf" points="739.5,-278.5 739.5,-297.5 798.5,-297.5 798.5,-278.5 739.5,-278.5"/>
<text text-anchor="middle" x="769" y="-285.5" font-family="Helvetica,sans-Serif" font-size="10.00">TObject.h</text>
</g>
<!-- Node4&#45;&gt;Node6 -->
<g id="edge5" class="edge"><title>Node4&#45;&gt;Node6</title>
<path fill="none" stroke="midnightblue" d="M828.971,-340.403C817.951,-330.958 800.04,-315.606 786.657,-304.134"/>
<polygon fill="midnightblue" stroke="midnightblue" points="788.881,-301.431 779.011,-297.581 784.325,-306.746 788.881,-301.431"/>
</g>
<!-- Node7&#45;&gt;Node2 -->
<g id="edge55" class="edge"><title>Node7&#45;&gt;Node2</title>
<path fill="none" stroke="midnightblue" d="M1292.34,-341.575C1232.89,-334.079 1141.89,-321.163 1064,-304 1059.15,-302.932 1054.09,-301.665 1049.11,-300.328"/>
<polygon fill="midnightblue" stroke="midnightblue" points="1049.66,-296.849 1039.09,-297.524 1047.78,-303.59 1049.66,-296.849"/>
</g>
<!-- Node7&#45;&gt;Node3 -->
<g id="edge53" class="edge"><title>Node7&#45;&gt;Node3</title>
<path fill="none" stroke="midnightblue" d="M1348.66,-340.419C1341.36,-331.636 1330.1,-317.411 1322,-304 1279.11,-232.991 1241.11,-141.248 1225.97,-102.99"/>
<polygon fill="midnightblue" stroke="midnightblue" points="1229.23,-101.712 1222.32,-93.6794 1222.71,-104.267 1229.23,-101.712"/>
</g>
<!-- Node8 -->
<g id="node8" class="node"><title>Node8</title>
<polygon fill="none" stroke="#bfbfbf" points="2485,-210.5 2485,-229.5 2529,-229.5 2529,-210.5 2485,-210.5"/>
<text text-anchor="middle" x="2507" y="-217.5" font-family="Helvetica,sans-Serif" font-size="10.00">vector</text>
</g>
<!-- Node7&#45;&gt;Node8 -->
<g id="edge8" class="edge"><title>Node7&#45;&gt;Node8</title>
<path fill="none" stroke="midnightblue" d="M1419.64,-347.999C1550.64,-345.331 1859.73,-335.905 2117,-304 2277.72,-284.068 2320.91,-285.872 2475,-236 2477.13,-235.309 2479.31,-234.51 2481.48,-233.647"/>
<polygon fill="midnightblue" stroke="midnightblue" points="2482.96,-236.818 2490.71,-229.597 2480.15,-230.408 2482.96,-236.818"/>
</g>
<!-- Node9 -->
<g id="node9" class="node"><title>Node9</title>
<g id="a_node9"><a xlink:href="../../d1/d3a/Base_2include_2DetectorsBase_2Detector_8h.html" target="_top" xlink:title="DetectorsBase/Detector.h">
<polygon fill="none" stroke="black" points="1977.5,-278.5 1977.5,-297.5 2108.5,-297.5 2108.5,-278.5 1977.5,-278.5"/>
<text text-anchor="middle" x="2043" y="-285.5" font-family="Helvetica,sans-Serif" font-size="10.00">DetectorsBase/Detector.h</text>
</a>
</g>
</g>
<!-- Node7&#45;&gt;Node9 -->
<g id="edge9" class="edge"><title>Node7&#45;&gt;Node9</title>
<path fill="none" stroke="midnightblue" d="M1419.71,-343.436C1546.63,-332.351 1830.54,-307.556 1966.96,-295.641"/>
<polygon fill="midnightblue" stroke="midnightblue" points="1967.66,-299.093 1977.32,-294.736 1967.05,-292.12 1967.66,-299.093"/>
</g>
<!-- Node19 -->
<g id="node19" class="node"><title>Node19</title>
<g id="a_node19"><a xlink:href="../../d6/d31/DetID_8h.html" target="_top" xlink:title="DetectorsCommonDataFormats\l/DetID.h">
<polygon fill="none" stroke="black" points="1331,-273 1331,-303 1487,-303 1487,-273 1331,-273"/>
<text text-anchor="start" x="1339" y="-291" font-family="Helvetica,sans-Serif" font-size="10.00">DetectorsCommonDataFormats</text>
<text text-anchor="middle" x="1409" y="-280" font-family="Helvetica,sans-Serif" font-size="10.00">/DetID.h</text>
</a>
</g>
</g>
<!-- Node7&#45;&gt;Node19 -->
<g id="edge23" class="edge"><title>Node7&#45;&gt;Node19</title>
<path fill="none" stroke="midnightblue" d="M1363.59,-340.403C1370.44,-332.657 1380.79,-320.938 1389.88,-310.645"/>
<polygon fill="midnightblue" stroke="midnightblue" points="1392.51,-312.953 1396.51,-303.141 1387.27,-308.318 1392.51,-312.953"/>
</g>
<!-- Node27 -->
<g id="node27" class="node"><title>Node27</title>
<g id="a_node27"><a xlink:href="../../d0/dae/ITSMFT_2common_2simulation_2include_2ITSMFTSimulation_2Hit_8h.html" target="_top" xlink:title="ITSMFTSimulation/Hit.h">
<polygon fill="none" stroke="black" points="1073,-278.5 1073,-297.5 1195,-297.5 1195,-278.5 1073,-278.5"/>
<text text-anchor="middle" x="1134" y="-285.5" font-family="Helvetica,sans-Serif" font-size="10.00">ITSMFTSimulation/Hit.h</text>
</a>
</g>
</g>
<!-- Node7&#45;&gt;Node27 -->
<g id="edge34" class="edge"><title>Node7&#45;&gt;Node27</title>
<path fill="none" stroke="midnightblue" d="M1324.19,-340.403C1285.12,-329.844 1218.74,-311.903 1175.64,-300.254"/>
<polygon fill="midnightblue" stroke="midnightblue" points="1176.32,-296.811 1165.75,-297.581 1174.49,-303.569 1176.32,-296.811"/>
</g>
<!-- Node41 -->
<g id="node41" class="node"><title>Node41</title>
<polygon fill="none" stroke="#bfbfbf" points="1162.5,-210.5 1162.5,-229.5 1227.5,-229.5 1227.5,-210.5 1162.5,-210.5"/>
<text text-anchor="middle" x="1195" y="-217.5" font-family="Helvetica,sans-Serif" font-size="10.00">TVector3.h</text>
</g>
<!-- Node7&#45;&gt;Node41 -->
<g id="edge57" class="edge"><title>Node7&#45;&gt;Node41</title>
<path fill="none" stroke="midnightblue" d="M1320.62,-340.449C1297.71,-333.543 1268.27,-321.965 1247,-304 1225.83,-286.124 1210.55,-257.382 1202.23,-238.846"/>
<polygon fill="midnightblue" stroke="midnightblue" points="1205.38,-237.323 1198.24,-229.502 1198.95,-240.073 1205.38,-237.323"/>
</g>
<!-- Node42 -->
<g id="node42" class="node"><title>Node42</title>
<polygon fill="none" stroke="#bfbfbf" points="1505,-278.5 1505,-297.5 1567,-297.5 1567,-278.5 1505,-278.5"/>
<text text-anchor="middle" x="1536" y="-285.5" font-family="Helvetica,sans-Serif" font-size="10.00">TArrayD.h</text>
</g>
<!-- Node7&#45;&gt;Node42 -->
<g id="edge54" class="edge"><title>Node7&#45;&gt;Node42</title>
<path fill="none" stroke="midnightblue" d="M1384.02,-340.425C1412.38,-331.647 1457.42,-317.425 1496,-304 1498.6,-303.094 1501.29,-302.136 1503.99,-301.158"/>
<polygon fill="midnightblue" stroke="midnightblue" points="1505.47,-304.342 1513.64,-297.599 1503.05,-297.774 1505.47,-304.342"/>
</g>
<!-- Node43 -->
<g id="node43" class="node"><title>Node43</title>
<polygon fill="none" stroke="#bfbfbf" points="1585,-278.5 1585,-297.5 1677,-297.5 1677,-278.5 1585,-278.5"/>
<text text-anchor="middle" x="1631" y="-285.5" font-family="Helvetica,sans-Serif" font-size="10.00">TLorentzVector.h</text>
</g>
<!-- Node7&#45;&gt;Node43 -->
<g id="edge56" class="edge"><title>Node7&#45;&gt;Node43</title>
<path fill="none" stroke="midnightblue" d="M1401.47,-340.469C1445.88,-331.946 1515.32,-318.112 1575,-304 1580.07,-302.8 1585.39,-301.472 1590.63,-300.116"/>
<polygon fill="midnightblue" stroke="midnightblue" points="1591.79,-303.433 1600.57,-297.502 1590,-296.663 1591.79,-303.433"/>
</g>
<!-- Node9&#45;&gt;Node3 -->
<g id="edge18" class="edge"><title>Node9&#45;&gt;Node3</title>
<path fill="none" stroke="midnightblue" d="M1977.42,-284.042C1919.88,-279.344 1835.15,-267.222 1768,-236 1747.67,-226.546 1747.35,-216.89 1729,-204 1680.73,-170.083 1670.76,-155.282 1615,-136 1489.44,-92.5774 1329.92,-85.5874 1257.67,-84.8167"/>
<polygon fill="midnightblue" stroke="midnightblue" points="1257.28,-81.3139 1247.25,-84.743 1257.23,-88.3137 1257.28,-81.3139"/>
</g>
<!-- Node9&#45;&gt;Node8 -->
<g id="edge11" class="edge"><title>Node9&#45;&gt;Node8</title>
<path fill="none" stroke="midnightblue" d="M2108.68,-285.751C2194.47,-282.657 2348.64,-272.053 2475,-236 2477.34,-235.332 2479.72,-234.512 2482.08,-233.601"/>
<polygon fill="midnightblue" stroke="midnightblue" points="2483.67,-236.725 2491.44,-229.517 2480.87,-230.309 2483.67,-236.725"/>
</g>
<!-- Node10 -->
<g id="node10" class="node"><title>Node10</title>
<polygon fill="none" stroke="#bfbfbf" points="2271.5,-142.5 2271.5,-161.5 2306.5,-161.5 2306.5,-142.5 2271.5,-142.5"/>
<text text-anchor="middle" x="2289" y="-149.5" font-family="Helvetica,sans-Serif" font-size="10.00">map</text>
</g>
<!-- Node9&#45;&gt;Node10 -->
<g id="edge10" class="edge"><title>Node9&#45;&gt;Node10</title>
<path fill="none" stroke="midnightblue" d="M2108.53,-285.916C2153.78,-281.914 2212.82,-269.834 2253,-236 2272.58,-219.508 2281.82,-190.366 2285.95,-171.371"/>
<polygon fill="midnightblue" stroke="midnightblue" points="2289.39,-172.011 2287.83,-161.531 2282.52,-170.697 2289.39,-172.011"/>
</g>
<!-- Node11 -->
<g id="node11" class="node"><title>Node11</title>
<polygon fill="none" stroke="#bfbfbf" points="1777,-210.5 1777,-229.5 1829,-229.5 1829,-210.5 1777,-210.5"/>
<text text-anchor="middle" x="1803" y="-217.5" font-family="Helvetica,sans-Serif" font-size="10.00">memory</text>
</g>
<!-- Node9&#45;&gt;Node11 -->
<g id="edge12" class="edge"><title>Node9&#45;&gt;Node11</title>
<path fill="none" stroke="midnightblue" d="M2001.06,-278.444C1959.45,-269.506 1894.1,-254.253 1839,-236 1836.58,-235.199 1834.1,-234.309 1831.62,-233.374"/>
<polygon fill="midnightblue" stroke="midnightblue" points="1832.81,-230.084 1822.23,-229.637 1830.22,-236.588 1832.81,-230.084"/>
</g>
<!-- Node12 -->
<g id="node12" class="node"><title>Node12</title>
<polygon fill="none" stroke="#bfbfbf" points="1847.5,-210.5 1847.5,-229.5 1926.5,-229.5 1926.5,-210.5 1847.5,-210.5"/>
<text text-anchor="middle" x="1887" y="-217.5" font-family="Helvetica,sans-Serif" font-size="10.00">FairDetector.h</text>
</g>
<!-- Node9&#45;&gt;Node12 -->
<g id="edge13" class="edge"><title>Node9&#45;&gt;Node12</title>
<path fill="none" stroke="midnightblue" d="M2022.61,-278.372C1995.63,-266.958 1947.88,-246.756 1916.84,-233.625"/>
<polygon fill="midnightblue" stroke="midnightblue" points="1917.97,-230.304 1907.4,-229.63 1915.25,-236.75 1917.97,-230.304"/>
</g>
<!-- Node13 -->
<g id="node13" class="node"><title>Node13</title>
<polygon fill="none" stroke="#bfbfbf" points="1945,-210.5 1945,-229.5 2045,-229.5 2045,-210.5 1945,-210.5"/>
<text text-anchor="middle" x="1995" y="-217.5" font-family="Helvetica,sans-Serif" font-size="10.00">FairRootManager.h</text>
</g>
<!-- Node9&#45;&gt;Node13 -->
<g id="edge14" class="edge"><title>Node9&#45;&gt;Node13</title>
<path fill="none" stroke="midnightblue" d="M2036.72,-278.372C2029.29,-268.151 2016.73,-250.884 2007.33,-237.957"/>
<polygon fill="midnightblue" stroke="midnightblue" points="2010.14,-235.87 2001.43,-229.841 2004.48,-239.987 2010.14,-235.87"/>
</g>
<!-- Node14 -->
<g id="node14" class="node"><title>Node14</title>
<g id="a_node14"><a xlink:href="../../d0/d9a/MaterialManager_8h.html" target="_top" xlink:title="DetectorsBase/MaterialManager.h">
<polygon fill="none" stroke="black" points="2301.5,-210.5 2301.5,-229.5 2466.5,-229.5 2466.5,-210.5 2301.5,-210.5"/>
<text text-anchor="middle" x="2384" y="-217.5" font-family="Helvetica,sans-Serif" font-size="10.00">DetectorsBase/MaterialManager.h</text>
</a>
</g>
</g>
<!-- Node9&#45;&gt;Node14 -->
<g id="edge15" class="edge"><title>Node9&#45;&gt;Node14</title>
<path fill="none" stroke="midnightblue" d="M2087.23,-278.439C2149.45,-266.396 2262.71,-244.475 2329.88,-231.475"/>
<polygon fill="midnightblue" stroke="midnightblue" points="2330.7,-234.882 2339.85,-229.546 2329.37,-228.01 2330.7,-234.882"/>
</g>
<!-- Node15 -->
<g id="node15" class="node"><title>Node15</title>
<polygon fill="none" stroke="#bfbfbf" points="2063.5,-210.5 2063.5,-229.5 2116.5,-229.5 2116.5,-210.5 2063.5,-210.5"/>
<text text-anchor="middle" x="2090" y="-217.5" font-family="Helvetica,sans-Serif" font-size="10.00">cxxabi.h</text>
</g>
<!-- Node9&#45;&gt;Node15 -->
<g id="edge19" class="edge"><title>Node9&#45;&gt;Node15</title>
<path fill="none" stroke="midnightblue" d="M2049.14,-278.372C2056.35,-268.25 2068.48,-251.215 2077.66,-238.331"/>
<polygon fill="midnightblue" stroke="midnightblue" points="2080.75,-240.017 2083.7,-229.841 2075.05,-235.957 2080.75,-240.017"/>
</g>
<!-- Node16 -->
<g id="node16" class="node"><title>Node16</title>
<polygon fill="none" stroke="#bfbfbf" points="2134.5,-210.5 2134.5,-229.5 2185.5,-229.5 2185.5,-210.5 2134.5,-210.5"/>
<text text-anchor="middle" x="2160" y="-217.5" font-family="Helvetica,sans-Serif" font-size="10.00">typeinfo</text>
</g>
<!-- Node9&#45;&gt;Node16 -->
<g id="edge20" class="edge"><title>Node9&#45;&gt;Node16</title>
<path fill="none" stroke="midnightblue" d="M2058.3,-278.372C2078,-267.254 2112.49,-247.8 2135.78,-234.662"/>
<polygon fill="midnightblue" stroke="midnightblue" points="2137.71,-237.592 2144.7,-229.63 2134.27,-231.495 2137.71,-237.592"/>
</g>
<!-- Node17 -->
<g id="node17" class="node"><title>Node17</title>
<polygon fill="none" stroke="#bfbfbf" points="1659,-210.5 1659,-229.5 1721,-229.5 1721,-210.5 1659,-210.5"/>
<text text-anchor="middle" x="1690" y="-217.5" font-family="Helvetica,sans-Serif" font-size="10.00">type_traits</text>
</g>
<!-- Node9&#45;&gt;Node17 -->
<g id="edge21" class="edge"><title>Node9&#45;&gt;Node17</title>
<path fill="none" stroke="midnightblue" d="M1977.5,-279.201C1914.73,-271.013 1817.6,-256.469 1735,-236 1731.15,-235.047 1727.16,-233.922 1723.22,-232.723"/>
<polygon fill="midnightblue" stroke="midnightblue" points="1724.21,-229.365 1713.62,-229.649 1722.07,-236.032 1724.21,-229.365"/>
</g>
<!-- Node18 -->
<g id="node18" class="node"><title>Node18</title>
<polygon fill="none" stroke="#bfbfbf" points="2203.5,-210.5 2203.5,-229.5 2244.5,-229.5 2244.5,-210.5 2203.5,-210.5"/>
<text text-anchor="middle" x="2224" y="-217.5" font-family="Helvetica,sans-Serif" font-size="10.00">string</text>
</g>
<!-- Node9&#45;&gt;Node18 -->
<g id="edge22" class="edge"><title>Node9&#45;&gt;Node18</title>
<path fill="none" stroke="midnightblue" d="M2072.1,-278.479C2102.84,-269.179 2152.49,-253.289 2194,-236 2195.59,-235.338 2197.21,-234.629 2198.84,-233.892"/>
<polygon fill="midnightblue" stroke="midnightblue" points="2200.49,-236.984 2208,-229.511 2197.47,-230.669 2200.49,-236.984"/>
</g>
<!-- Node14&#45;&gt;Node3 -->
<g id="edge16" class="edge"><title>Node14&#45;&gt;Node3</title>
<path fill="none" stroke="midnightblue" d="M2379.96,-210.428C2371.09,-192.733 2348.05,-152.45 2315,-136 2218.76,-88.0929 1439.95,-85.0189 1257.25,-84.9613"/>
<polygon fill="midnightblue" stroke="midnightblue" points="1257.06,-81.4614 1247.06,-84.9611 1257.06,-88.4614 1257.06,-81.4614"/>
</g>
<!-- Node14&#45;&gt;Node10 -->
<g id="edge17" class="edge"><title>Node14&#45;&gt;Node10</title>
<path fill="none" stroke="midnightblue" d="M2371.58,-210.372C2355.86,-199.452 2328.57,-180.489 2309.68,-167.369"/>
<polygon fill="midnightblue" stroke="midnightblue" points="2311.63,-164.462 2301.42,-161.63 2307.64,-170.21 2311.63,-164.462"/>
</g>
<!-- Node19&#45;&gt;Node3 -->
<g id="edge24" class="edge"><title>Node19&#45;&gt;Node3</title>
<path fill="none" stroke="midnightblue" d="M1483.04,-272.976C1537.62,-261.887 1603.76,-246.567 1612,-236 1629.77,-213.219 1603.04,-144.748 1593,-136 1543.5,-92.8566 1342.33,-86.0068 1257.27,-85.0667"/>
<polygon fill="midnightblue" stroke="midnightblue" points="1257.28,-81.5668 1247.25,-84.9777 1257.22,-88.5665 1257.28,-81.5668"/>
</g>
<!-- Node19&#45;&gt;Node17 -->
<g id="edge29" class="edge"><title>Node19&#45;&gt;Node17</title>
<path fill="none" stroke="midnightblue" d="M1483.91,-272.981C1530.56,-263.717 1591.63,-250.614 1645,-236 1648.63,-235.006 1652.4,-233.889 1656.14,-232.725"/>
<polygon fill="midnightblue" stroke="midnightblue" points="1657.42,-235.989 1665.86,-229.584 1655.27,-229.327 1657.42,-235.989"/>
</g>
<!-- Node20 -->
<g id="node20" class="node"><title>Node20</title>
<polygon fill="none" stroke="#bfbfbf" points="1286,-142.5 1286,-161.5 1324,-161.5 1324,-142.5 1286,-142.5"/>
<text text-anchor="middle" x="1305" y="-149.5" font-family="Helvetica,sans-Serif" font-size="10.00">array</text>
</g>
<!-- Node19&#45;&gt;Node20 -->
<g id="edge25" class="edge"><title>Node19&#45;&gt;Node20</title>
<path fill="none" stroke="midnightblue" d="M1362.2,-272.997C1343.88,-265.102 1324.54,-253.259 1313,-236 1300.27,-216.955 1300.22,-189.739 1302.04,-171.732"/>
<polygon fill="midnightblue" stroke="midnightblue" points="1305.53,-172.004 1303.35,-161.636 1298.59,-171.101 1305.53,-172.004"/>
</g>
<!-- Node21 -->
<g id="node21" class="node"><title>Node21</title>
<polygon fill="none" stroke="#bfbfbf" points="1430.5,-210.5 1430.5,-229.5 1471.5,-229.5 1471.5,-210.5 1430.5,-210.5"/>
<text text-anchor="middle" x="1451" y="-217.5" font-family="Helvetica,sans-Serif" font-size="10.00">bitset</text>
</g>
<!-- Node19&#45;&gt;Node21 -->
<g id="edge26" class="edge"><title>Node19&#45;&gt;Node21</title>
<path fill="none" stroke="midnightblue" d="M1418.11,-272.679C1424.53,-262.592 1433.16,-249.033 1439.97,-238.335"/>
<polygon fill="midnightblue" stroke="midnightblue" points="1442.97,-240.144 1445.38,-229.828 1437.06,-236.386 1442.97,-240.144"/>
</g>
<!-- Node22 -->
<g id="node22" class="node"><title>Node22</title>
<polygon fill="none" stroke="#bfbfbf" points="1489.5,-210.5 1489.5,-229.5 1538.5,-229.5 1538.5,-210.5 1489.5,-210.5"/>
<text text-anchor="middle" x="1514" y="-217.5" font-family="Helvetica,sans-Serif" font-size="10.00">cassert</text>
</g>
<!-- Node19&#45;&gt;Node22 -->
<g id="edge27" class="edge"><title>Node19&#45;&gt;Node22</title>
<path fill="none" stroke="midnightblue" d="M1431.53,-272.841C1449.28,-261.681 1473.91,-246.198 1491.63,-235.063"/>
<polygon fill="midnightblue" stroke="midnightblue" points="1493.58,-237.967 1500.19,-229.682 1489.86,-232.04 1493.58,-237.967"/>
</g>
<!-- Node23 -->
<g id="node23" class="node"><title>Node23</title>
<polygon fill="none" stroke="#bfbfbf" points="1557,-210.5 1557,-229.5 1603,-229.5 1603,-210.5 1557,-210.5"/>
<text text-anchor="middle" x="1580" y="-217.5" font-family="Helvetica,sans-Serif" font-size="10.00">cstdint</text>
</g>
<!-- Node19&#45;&gt;Node23 -->
<g id="edge28" class="edge"><title>Node19&#45;&gt;Node23</title>
<path fill="none" stroke="midnightblue" d="M1449.45,-272.923C1477.12,-263.084 1514.52,-249.363 1547,-236 1548.64,-235.325 1550.32,-234.617 1552.01,-233.891"/>
<polygon fill="midnightblue" stroke="midnightblue" points="1553.87,-236.894 1561.6,-229.648 1551.04,-230.492 1553.87,-236.894"/>
</g>
<!-- Node24 -->
<g id="node24" class="node"><title>Node24</title>
<g id="a_node24"><a xlink:href="../../d9/ded/Utils_8h.html" target="_top" xlink:title="General auxilliary methods. ">
<polygon fill="none" stroke="black" points="1322,-210.5 1322,-229.5 1412,-229.5 1412,-210.5 1322,-210.5"/>
<text text-anchor="middle" x="1367" y="-217.5" font-family="Helvetica,sans-Serif" font-size="10.00">MathUtils/Utils.h</text>
</a>
</g>
</g>
<!-- Node19&#45;&gt;Node24 -->
<g id="edge30" class="edge"><title>Node19&#45;&gt;Node24</title>
<path fill="none" stroke="midnightblue" d="M1399.89,-272.679C1393.47,-262.592 1384.84,-249.033 1378.03,-238.335"/>
<polygon fill="midnightblue" stroke="midnightblue" points="1380.94,-236.386 1372.62,-229.828 1375.03,-240.144 1380.94,-236.386"/>
</g>
<!-- Node24&#45;&gt;Node20 -->
<g id="edge31" class="edge"><title>Node24&#45;&gt;Node20</title>
<path fill="none" stroke="midnightblue" d="M1358.89,-210.372C1349.11,-199.955 1332.45,-182.217 1320.23,-169.216"/>
<polygon fill="midnightblue" stroke="midnightblue" points="1322.7,-166.733 1313.31,-161.841 1317.6,-171.526 1322.7,-166.733"/>
</g>
<!-- Node25 -->
<g id="node25" class="node"><title>Node25</title>
<polygon fill="none" stroke="#bfbfbf" points="1343,-142.5 1343,-161.5 1387,-161.5 1387,-142.5 1343,-142.5"/>
<text text-anchor="middle" x="1365" y="-149.5" font-family="Helvetica,sans-Serif" font-size="10.00">cmath</text>
</g>
<!-- Node24&#45;&gt;Node25 -->
<g id="edge32" class="edge"><title>Node24&#45;&gt;Node25</title>
<path fill="none" stroke="midnightblue" d="M1366.74,-210.372C1366.44,-200.643 1365.96,-184.528 1365.57,-171.85"/>
<polygon fill="midnightblue" stroke="midnightblue" points="1369.07,-171.73 1365.27,-161.841 1362.07,-171.943 1369.07,-171.73"/>
</g>
<!-- Node26 -->
<g id="node26" class="node"><title>Node26</title>
<g id="a_node26"><a xlink:href="../../d6/d84/MathConstants_8h.html" target="_top" xlink:title="useful math constants ">
<polygon fill="none" stroke="black" points="1405.5,-142.5 1405.5,-161.5 1584.5,-161.5 1584.5,-142.5 1405.5,-142.5"/>
<text text-anchor="middle" x="1495" y="-149.5" font-family="Helvetica,sans-Serif" font-size="10.00">CommonConstants/MathConstants.h</text>
</a>
</g>
</g>
<!-- Node24&#45;&gt;Node26 -->
<g id="edge33" class="edge"><title>Node24&#45;&gt;Node26</title>
<path fill="none" stroke="midnightblue" d="M1383.73,-210.372C1405.49,-199.156 1443.7,-179.453 1469.18,-166.314"/>
<polygon fill="midnightblue" stroke="midnightblue" points="1470.98,-169.324 1478.26,-161.63 1467.77,-163.103 1470.98,-169.324"/>
</g>
<!-- Node27&#45;&gt;Node3 -->
<g id="edge50" class="edge"><title>Node27&#45;&gt;Node3</title>
<path fill="none" stroke="midnightblue" d="M1135.21,-278.036C1137.47,-262.55 1143.06,-229.953 1153,-204 1167.71,-165.584 1192.94,-124.373 1207.58,-101.942"/>
<polygon fill="midnightblue" stroke="midnightblue" points="1210.54,-103.812 1213.14,-93.5417 1204.7,-99.9476 1210.54,-103.812"/>
</g>
<!-- Node28 -->
<g id="node28" class="node"><title>Node28</title>
<g id="a_node28"><a xlink:href="../../d4/d25/BaseHits_8h.html" target="_top" xlink:title="SimulationDataFormat\l/BaseHits.h">
<polygon fill="none" stroke="black" points="711,-205 711,-235 825,-235 825,-205 711,-205"/>
<text text-anchor="start" x="719" y="-223" font-family="Helvetica,sans-Serif" font-size="10.00">SimulationDataFormat</text>
<text text-anchor="middle" x="768" y="-212" font-family="Helvetica,sans-Serif" font-size="10.00">/BaseHits.h</text>
</a>
</g>
</g>
<!-- Node27&#45;&gt;Node28 -->
<g id="edge35" class="edge"><title>Node27&#45;&gt;Node28</title>
<path fill="none" stroke="midnightblue" d="M1095.55,-278.467C1085.31,-276.276 1074.25,-273.98 1064,-272 985.714,-256.874 895.349,-241.623 835.262,-231.793"/>
<polygon fill="midnightblue" stroke="midnightblue" points="835.579,-228.298 825.146,-230.142 834.452,-235.207 835.579,-228.298"/>
</g>
<!-- Node36 -->
<g id="node36" class="node"><title>Node36</title>
<polygon fill="none" stroke="#bfbfbf" points="1119,-74.5 1119,-93.5 1173,-93.5 1173,-74.5 1119,-74.5"/>
<text text-anchor="middle" x="1146" y="-81.5" font-family="Helvetica,sans-Serif" font-size="10.00">iostream</text>
</g>
<!-- Node27&#45;&gt;Node36 -->
<g id="edge52" class="edge"><title>Node27&#45;&gt;Node36</title>
<path fill="none" stroke="midnightblue" d="M1119.81,-278.42C1083.78,-255.538 994.071,-191.044 1030,-136 1031.28,-134.035 1082.4,-112.026 1116.35,-97.5704"/>
<polygon fill="midnightblue" stroke="midnightblue" points="1118,-100.671 1125.83,-93.5367 1115.26,-94.2293 1118,-100.671"/>
</g>
<!-- Node40 -->
<g id="node40" class="node"><title>Node40</title>
<g id="a_node40"><a xlink:href="../../d7/dcd/MCCompLabel_8h.html" target="_top" xlink:title="SimulationDataFormat\l/MCCompLabel.h">
<polygon fill="none" stroke="black" points="1039,-137 1039,-167 1153,-167 1153,-137 1039,-137"/>
<text text-anchor="start" x="1047" y="-155" font-family="Helvetica,sans-Serif" font-size="10.00">SimulationDataFormat</text>
<text text-anchor="middle" x="1096" y="-144" font-family="Helvetica,sans-Serif" font-size="10.00">/MCCompLabel.h</text>
</a>
</g>
</g>
<!-- Node27&#45;&gt;Node40 -->
<g id="edge48" class="edge"><title>Node27&#45;&gt;Node40</title>
<path fill="none" stroke="midnightblue" d="M1131.51,-278.208C1125.75,-257.895 1111.35,-207.132 1102.76,-176.846"/>
<polygon fill="midnightblue" stroke="midnightblue" points="1106.09,-175.737 1099.99,-167.071 1099.35,-177.647 1106.09,-175.737"/>
</g>
<!-- Node27&#45;&gt;Node41 -->
<g id="edge51" class="edge"><title>Node27&#45;&gt;Node41</title>
<path fill="none" stroke="midnightblue" d="M1141.97,-278.372C1151.6,-267.955 1168,-250.217 1180.01,-237.216"/>
<polygon fill="midnightblue" stroke="midnightblue" points="1182.61,-239.561 1186.83,-229.841 1177.47,-234.809 1182.61,-239.561"/>
</g>
<!-- Node29 -->
<g id="node29" class="node"><title>Node29</title>
<g id="a_node29"><a xlink:href="../../dd/d76/Cartesian3D_8h.html" target="_top" xlink:title="MathUtils/Cartesian3D.h">
<polygon fill="none" stroke="black" points="649.5,-142.5 649.5,-161.5 774.5,-161.5 774.5,-142.5 649.5,-142.5"/>
<text text-anchor="middle" x="712" y="-149.5" font-family="Helvetica,sans-Serif" font-size="10.00">MathUtils/Cartesian3D.h</text>
</a>
</g>
</g>
<!-- Node28&#45;&gt;Node29 -->
<g id="edge36" class="edge"><title>Node28&#45;&gt;Node29</title>
<path fill="none" stroke="midnightblue" d="M755.849,-204.679C747.117,-194.388 735.32,-180.484 726.161,-169.69"/>
<polygon fill="midnightblue" stroke="midnightblue" points="728.629,-167.189 719.491,-161.828 723.292,-171.718 728.629,-167.189"/>
</g>
<!-- Node29&#45;&gt;Node3 -->
<g id="edge42" class="edge"><title>Node29&#45;&gt;Node3</title>
<path fill="none" stroke="midnightblue" d="M774.557,-145.185C893.39,-133.995 1143.4,-109.718 1182,-100 1185.06,-99.2295 1188.2,-98.2586 1191.3,-97.183"/>
<polygon fill="midnightblue" stroke="midnightblue" points="1192.81,-100.354 1200.89,-93.5071 1190.3,-93.8174 1192.81,-100.354"/>
</g>
<!-- Node30 -->
<g id="node30" class="node"><title>Node30</title>
<polygon fill="none" stroke="#bfbfbf" points="589.5,-69 589.5,-99 740.5,-99 740.5,-69 589.5,-69"/>
<text text-anchor="start" x="597.5" y="-87" font-family="Helvetica,sans-Serif" font-size="10.00">Math/GenVector/Displacement</text>
<text text-anchor="middle" x="665" y="-76" font-family="Helvetica,sans-Serif" font-size="10.00">Vector3D.h</text>
</g>
<!-- Node29&#45;&gt;Node30 -->
<g id="edge37" class="edge"><title>Node29&#45;&gt;Node30</title>
<path fill="none" stroke="midnightblue" d="M705.856,-142.372C699.568,-133.543 689.537,-119.456 680.987,-107.45"/>
<polygon fill="midnightblue" stroke="midnightblue" points="683.751,-105.297 675.099,-99.1815 678.049,-109.357 683.751,-105.297"/>
</g>
<!-- Node31 -->
<g id="node31" class="node"><title>Node31</title>
<polygon fill="none" stroke="#bfbfbf" points="759,-74.5 759,-93.5 935,-93.5 935,-74.5 759,-74.5"/>
<text text-anchor="middle" x="847" y="-81.5" font-family="Helvetica,sans-Serif" font-size="10.00">Math/GenVector/PositionVector3D.h</text>
</g>
<!-- Node29&#45;&gt;Node31 -->
<g id="edge38" class="edge"><title>Node29&#45;&gt;Node31</title>
<path fill="none" stroke="midnightblue" d="M729.649,-142.372C752.692,-131.106 793.247,-111.279 820.122,-98.1403"/>
<polygon fill="midnightblue" stroke="midnightblue" points="821.9,-101.167 829.347,-93.6305 818.826,-94.8783 821.9,-101.167"/>
</g>
<!-- Node32 -->
<g id="node32" class="node"><title>Node32</title>
<polygon fill="none" stroke="#bfbfbf" points="952.5,-74.5 952.5,-93.5 1101.5,-93.5 1101.5,-74.5 952.5,-74.5"/>
<text text-anchor="middle" x="1027" y="-81.5" font-family="Helvetica,sans-Serif" font-size="10.00">Math/GenVector/Rotation3D.h</text>
</g>
<!-- Node29&#45;&gt;Node32 -->
<g id="edge39" class="edge"><title>Node29&#45;&gt;Node32</title>
<path fill="none" stroke="midnightblue" d="M752.858,-142.439C810.099,-130.446 914.104,-108.654 976.241,-95.6351"/>
<polygon fill="midnightblue" stroke="midnightblue" points="977.145,-99.0219 986.215,-93.5455 975.709,-92.1707 977.145,-99.0219"/>
</g>
<!-- Node33 -->
<g id="node33" class="node"><title>Node33</title>
<polygon fill="none" stroke="#bfbfbf" points="0,-74.5 0,-93.5 156,-93.5 156,-74.5 0,-74.5"/>
<text text-anchor="middle" x="78" y="-81.5" font-family="Helvetica,sans-Serif" font-size="10.00">Math/GenVector/Transform3D.h</text>
</g>
<!-- Node29&#45;&gt;Node33 -->
<g id="edge40" class="edge"><title>Node29&#45;&gt;Node33</title>
<path fill="none" stroke="midnightblue" d="M649.477,-146.76C547.685,-139.501 339.916,-123.197 165,-100 154.752,-98.641 143.866,-96.9569 133.388,-95.2133"/>
<polygon fill="midnightblue" stroke="midnightblue" points="133.947,-91.7582 123.502,-93.5321 132.774,-98.6592 133.947,-91.7582"/>
</g>
<!-- Node34 -->
<g id="node34" class="node"><title>Node34</title>
<polygon fill="none" stroke="#bfbfbf" points="174,-74.5 174,-93.5 334,-93.5 334,-74.5 174,-74.5"/>
<text text-anchor="middle" x="254" y="-81.5" font-family="Helvetica,sans-Serif" font-size="10.00">Math/GenVector/Translation3D.h</text>
</g>
<!-- Node29&#45;&gt;Node34 -->
<g id="edge41" class="edge"><title>Node29&#45;&gt;Node34</title>
<path fill="none" stroke="midnightblue" d="M649.239,-142.902C575.748,-133.285 450.393,-116.468 343,-100 333.242,-98.5038 322.897,-96.8355 312.845,-95.1705"/>
<polygon fill="midnightblue" stroke="midnightblue" points="313.363,-91.7086 302.923,-93.5132 312.209,-98.613 313.363,-91.7086"/>
</g>
<!-- Node35 -->
<g id="node35" class="node"><title>Node35</title>
<polygon fill="none" stroke="#bfbfbf" points="352,-74.5 352,-93.5 428,-93.5 428,-74.5 352,-74.5"/>
<text text-anchor="middle" x="390" y="-81.5" font-family="Helvetica,sans-Serif" font-size="10.00">TGeoMatrix.h</text>
</g>
<!-- Node29&#45;&gt;Node35 -->
<g id="edge43" class="edge"><title>Node29&#45;&gt;Node35</title>
<path fill="none" stroke="midnightblue" d="M654.401,-142.478C598.445,-133.692 511.29,-118.665 437,-100 432.888,-98.9669 428.609,-97.7725 424.381,-96.5178"/>
<polygon fill="midnightblue" stroke="midnightblue" points="425.3,-93.1384 414.712,-93.5282 423.232,-99.8261 425.3,-93.1384"/>
</g>
<!-- Node29&#45;&gt;Node36 -->
<g id="edge44" class="edge"><title>Node29&#45;&gt;Node36</title>
<path fill="none" stroke="midnightblue" d="M774.826,-145.016C870.534,-135.55 1048.25,-116.5 1110,-100 1112.82,-99.2462 1115.71,-98.3207 1118.57,-97.3027"/>
<polygon fill="midnightblue" stroke="midnightblue" points="1119.98,-100.509 1128.02,-93.6007 1117.43,-93.9919 1119.98,-100.509"/>
</g>
<!-- Node37 -->
<g id="node37" class="node"><title>Node37</title>
<g id="a_node37"><a xlink:href="../../d2/dd0/Cartesian2D_8h.html" target="_top" xlink:title="MathUtils/Cartesian2D.h">
<polygon fill="none" stroke="black" points="446.5,-74.5 446.5,-93.5 571.5,-93.5 571.5,-74.5 446.5,-74.5"/>
<text text-anchor="middle" x="509" y="-81.5" font-family="Helvetica,sans-Serif" font-size="10.00">MathUtils/Cartesian2D.h</text>
</a>
</g>
</g>
<!-- Node29&#45;&gt;Node37 -->
<g id="edge45" class="edge"><title>Node29&#45;&gt;Node37</title>
<path fill="none" stroke="midnightblue" d="M685.461,-142.372C649.497,-130.679 585.163,-109.762 544.907,-96.6743"/>
<polygon fill="midnightblue" stroke="midnightblue" points="545.816,-93.2894 535.224,-93.5259 543.651,-99.9464 545.816,-93.2894"/>
</g>
<!-- Node38 -->
<g id="node38" class="node"><title>Node38</title>
<polygon fill="none" stroke="#bfbfbf" points="342.5,-1 342.5,-31 493.5,-31 493.5,-1 342.5,-1"/>
<text text-anchor="start" x="350.5" y="-19" font-family="Helvetica,sans-Serif" font-size="10.00">Math/GenVector/Displacement</text>
<text text-anchor="middle" x="418" y="-8" font-family="Helvetica,sans-Serif" font-size="10.00">Vector2D.h</text>
</g>
<!-- Node37&#45;&gt;Node38 -->
<g id="edge46" class="edge"><title>Node37&#45;&gt;Node38</title>
<path fill="none" stroke="midnightblue" d="M497.103,-74.3717C484.221,-65.0286 463.22,-49.7966 446.093,-37.375"/>
<polygon fill="midnightblue" stroke="midnightblue" points="447.703,-34.2194 437.553,-31.1815 443.593,-39.8859 447.703,-34.2194"/>
</g>
<!-- Node39 -->
<g id="node39" class="node"><title>Node39</title>
<polygon fill="none" stroke="#bfbfbf" points="512,-6.5 512,-25.5 688,-25.5 688,-6.5 512,-6.5"/>
<text text-anchor="middle" x="600" y="-13.5" font-family="Helvetica,sans-Serif" font-size="10.00">Math/GenVector/PositionVector2D.h</text>
</g>
<!-- Node37&#45;&gt;Node39 -->
<g id="edge47" class="edge"><title>Node37&#45;&gt;Node39</title>
<path fill="none" stroke="midnightblue" d="M520.897,-74.3717C535.884,-63.5015 561.862,-44.6602 579.942,-31.5474"/>
<polygon fill="midnightblue" stroke="midnightblue" points="582.06,-34.3349 588.1,-25.6305 577.95,-28.6684 582.06,-34.3349"/>
</g>
<!-- Node40&#45;&gt;Node3 -->
<g id="edge49" class="edge"><title>Node40&#45;&gt;Node3</title>
<path fill="none" stroke="midnightblue" d="M1122.39,-136.841C1143.57,-125.476 1173.1,-109.628 1193.93,-98.454"/>
<polygon fill="midnightblue" stroke="midnightblue" points="1195.66,-101.494 1202.82,-93.6819 1192.35,-95.326 1195.66,-101.494"/>
</g>
</g>
</svg>
