<?xml version="1.0" encoding="UTF-8" standalone="no"?>
<!DOCTYPE svg PUBLIC "-//W3C//DTD SVG 1.1//EN"
 "http://www.w3.org/Graphics/SVG/1.1/DTD/svg11.dtd">
<!-- Generated by graphviz version 2.36.0 (20140111.2315)
 -->
<!-- Title: default_delete Pages: 1 -->
<svg width="146pt" height="226pt"
 viewBox="0.00 0.00 146.00 226.00" xmlns="http://www.w3.org/2000/svg" xmlns:xlink="http://www.w3.org/1999/xlink">
<g id="graph0" class="graph" transform="scale(1 1) rotate(0) translate(4 222)">
<title>default_delete</title>
<!-- Node1 -->
<g id="node1" class="node"><title>Node1</title>
<polygon fill="#bfbfbf" stroke="black" points="30.5,-160.5 30.5,-217.5 107.5,-217.5 107.5,-160.5 30.5,-160.5"/>
<text text-anchor="middle" x="69" y="-205.5" font-family="Helvetica,sans-Serif" font-size="10.00">default_delete</text>
<polyline fill="none" stroke="black" points="30.5,-198.5 107.5,-198.5 "/>
<text text-anchor="middle" x="69" y="-186.5" font-family="Helvetica,sans-Serif" font-size="10.00"> </text>
<polyline fill="none" stroke="black" points="30.5,-179.5 107.5,-179.5 "/>
<text text-anchor="middle" x="69" y="-167.5" font-family="Helvetica,sans-Serif" font-size="10.00"> </text>
</g>
<!-- Node2 -->
<g id="node2" class="node"><title>Node2</title>
<g id="a_node2"><a xlink:href="../../df/d00/classo2_1_1framework_1_1InputRecord_1_1Deleter.html" target="_top" xlink:title="{o2::framework::InputRecord\l::Deleter\&lt; T \&gt;\n||+ Deleter()\l+ Deleter()\l+ Deleter()\l+ Deleter()\l+ operator=()\l+ operator()()\l}">
<polygon fill="none" stroke="black" points="0,-0.5 0,-123.5 138,-123.5 138,-0.5 0,-0.5"/>
<text text-anchor="start" x="8" y="-111.5" font-family="Helvetica,sans-Serif" font-size="10.00">o2::framework::InputRecord</text>
<text text-anchor="middle" x="69" y="-100.5" font-family="Helvetica,sans-Serif" font-size="10.00">::Deleter&lt; T &gt;</text>
<polyline fill="none" stroke="black" points="0,-93.5 138,-93.5 "/>
<text text-anchor="middle" x="69" y="-81.5" font-family="Helvetica,sans-Serif" font-size="10.00"> </text>
<polyline fill="none" stroke="black" points="0,-74.5 138,-74.5 "/>
<text text-anchor="start" x="8" y="-62.5" font-family="Helvetica,sans-Serif" font-size="10.00">+ Deleter()</text>
<text text-anchor="start" x="8" y="-51.5" font-family="Helvetica,sans-Serif" font-size="10.00">+ Deleter()</text>
<text text-anchor="start" x="8" y="-40.5" font-family="Helvetica,sans-Serif" font-size="10.00">+ Deleter()</text>
<text text-anchor="start" x="8" y="-29.5" font-family="Helvetica,sans-Serif" font-size="10.00">+ Deleter()</text>
<text text-anchor="start" x="8" y="-18.5" font-family="Helvetica,sans-Serif" font-size="10.00">+ operator=()</text>
<text text-anchor="start" x="8" y="-7.5" font-family="Helvetica,sans-Serif" font-size="10.00">+ operator()()</text>
</a>
</g>
</g>
<!-- Node1&#45;&gt;Node2 -->
<g id="edge1" class="edge"><title>Node1&#45;&gt;Node2</title>
<path fill="none" stroke="midnightblue" d="M69,-150.099C69,-141.739 69,-132.68 69,-123.672"/>
<polygon fill="none" stroke="midnightblue" points="65.5001,-150.258 69,-160.258 72.5001,-150.258 65.5001,-150.258"/>
</g>
</g>
</svg>
