<?xml version="1.0" encoding="UTF-8" standalone="no"?>
<!DOCTYPE svg PUBLIC "-//W3C//DTD SVG 1.1//EN"
 "http://www.w3.org/Graphics/SVG/1.1/DTD/svg11.dtd">
<!-- Generated by graphviz version 2.36.0 (20140111.2315)
 -->
<!-- Title: /home/travis/build/AliceO2Group/AliceO2/Detectors/ITSMFT/ITS/reconstruction/include/ITSReconstruction/CAaux.h Pages: 1 -->
<!--zoomable 480 -->
<svg id="main" version="1.1" xmlns="http://www.w3.org/2000/svg" xmlns:xlink="http://www.w3.org/1999/xlink" xml:space="preserve" onload="init(evt)">
<style type="text/css"><![CDATA[
.edge:hover path { stroke: red; }
.edge:hover polygon { stroke: red; fill: red; }
]]></style>
<script type="text/javascript"><![CDATA[
var edges = document.getElementsByTagName('g');
if (edges && edges.length) {
  for (var i=0;i<edges.length;i++) {
    if (edges[i].id.substr(0,4)=='edge') {
      edges[i].setAttribute('class','edge');
    }
  }
}
]]></script>
        <defs>
                <circle id="rim" cx="0" cy="0" r="7"/>
                <circle id="rim2" cx="0" cy="0" r="3.5"/>
                <g id="zoomPlus">
                        <use xlink:href="#rim" fill="#404040">
                                <set attributeName="fill" to="#808080" begin="zoomplus.mouseover" end="zoomplus.mouseout"/>
                        </use>
                        <path d="M-4,0h8M0,-4v8" fill="none" stroke="white" stroke-width="1.5" pointer-events="none"/>
                </g>
                <g id="zoomMin">
                        <use xlink:href="#rim" fill="#404040">
                                <set attributeName="fill" to="#808080" begin="zoomminus.mouseover" end="zoomminus.mouseout"/>
                        </use>
                        <path d="M-4,0h8" fill="none" stroke="white" stroke-width="1.5" pointer-events="none"/>
                </g>
                <g id="dirArrow">
                        <path fill="none" stroke="white" stroke-width="1.5" d="M0,-3.0v7 M-2.5,-0.5L0,-3.0L2.5,-0.5"/>
                </g>
               <g id="resetDef">
                       <use xlink:href="#rim2" fill="#404040">
                               <set attributeName="fill" to="#808080" begin="reset.mouseover" end="reset.mouseout"/>
                       </use>
               </g>
        </defs>

<script type="text/javascript">
var viewWidth = 2093;
var viewHeight = 480;
var sectionId = 'dynsection-0';
</script>
<script xlink:href="../../svgpan.js"/>
<svg id="graph" class="graph">
<g id="viewport">
<title>/home/travis/build/AliceO2Group/AliceO2/Detectors/ITSMFT/ITS/reconstruction/include/ITSReconstruction/CAaux.h</title>
<!-- Node1 -->
<g id="node1" class="node"><title>Node1</title>
<polygon fill="#bfbfbf" stroke="black" points="1521.5,-408.5 1521.5,-471.5 1664.5,-471.5 1664.5,-408.5 1521.5,-408.5"/>
<text text-anchor="start" x="1529.5" y="-459.5" font-family="Helvetica,sans-Serif" font-size="10.00">/home/travis/build</text>
<text text-anchor="start" x="1529.5" y="-448.5" font-family="Helvetica,sans-Serif" font-size="10.00">/AliceO2Group/AliceO2</text>
<text text-anchor="start" x="1529.5" y="-437.5" font-family="Helvetica,sans-Serif" font-size="10.00">/Detectors/ITSMFT/ITS</text>
<text text-anchor="start" x="1529.5" y="-426.5" font-family="Helvetica,sans-Serif" font-size="10.00">/reconstruction/include</text>
<text text-anchor="middle" x="1593" y="-415.5" font-family="Helvetica,sans-Serif" font-size="10.00">/ITSReconstruction/CAaux.h</text>
</g>
<!-- Node2 -->
<g id="node2" class="node"><title>Node2</title>
<polygon fill="none" stroke="#bfbfbf" points="1475,-6.5 1475,-25.5 1513,-25.5 1513,-6.5 1475,-6.5"/>
<text text-anchor="middle" x="1494" y="-13.5" font-family="Helvetica,sans-Serif" font-size="10.00">array</text>
</g>
<!-- Node1&#45;&gt;Node2 -->
<g id="edge1" class="edge"><title>Node1&#45;&gt;Node2</title>
<path fill="none" stroke="midnightblue" d="M1521.12,-438.755C1267.65,-437.409 425.029,-428.675 319,-372 278.393,-350.294 257,-335.045 257,-289 257,-289 257,-289 257,-151 257,-110.791 259.859,-90.77 293,-68 342.779,-33.7983 1284.81,-19.7463 1464.52,-17.3716"/>
<polygon fill="midnightblue" stroke="midnightblue" points="1464.61,-20.8708 1474.57,-17.2406 1464.52,-13.8714 1464.61,-20.8708"/>
</g>
<!-- Node3 -->
<g id="node3" class="node"><title>Node3</title>
<polygon fill="none" stroke="#bfbfbf" points="1844,-6.5 1844,-25.5 1888,-25.5 1888,-6.5 1844,-6.5"/>
<text text-anchor="middle" x="1866" y="-13.5" font-family="Helvetica,sans-Serif" font-size="10.00">cmath</text>
</g>
<!-- Node1&#45;&gt;Node3 -->
<g id="edge2" class="edge"><title>Node1&#45;&gt;Node3</title>
<path fill="none" stroke="midnightblue" d="M1521.19,-438.056C1254.05,-433.611 333,-409.542 333,-289 333,-289 333,-289 333,-151 333,-113.157 322.772,-92.0377 352,-68 402.227,-26.6929 1457.01,-34.4165 1522,-32 1636.68,-27.7356 1772.81,-21.4317 1833.73,-18.5452"/>
<polygon fill="midnightblue" stroke="midnightblue" points="1834.05,-22.0343 1843.87,-18.0635 1833.71,-15.0422 1834.05,-22.0343"/>
</g>
<!-- Node4 -->
<g id="node4" class="node"><title>Node4</title>
<polygon fill="none" stroke="#bfbfbf" points="1720,-142.5 1720,-161.5 1764,-161.5 1764,-142.5 1720,-142.5"/>
<text text-anchor="middle" x="1742" y="-149.5" font-family="Helvetica,sans-Serif" font-size="10.00">vector</text>
</g>
<!-- Node1&#45;&gt;Node4 -->
<g id="edge3" class="edge"><title>Node1&#45;&gt;Node4</title>
<path fill="none" stroke="midnightblue" d="M1664.52,-428.908C1735.7,-414.643 1841.29,-381.091 1891,-304 1916.77,-264.042 1887.92,-236.267 1853,-204 1830.51,-183.22 1798.09,-169.658 1774.08,-161.781"/>
<polygon fill="midnightblue" stroke="midnightblue" points="1774.95,-158.386 1764.36,-158.749 1772.87,-165.069 1774.95,-158.386"/>
</g>
<!-- Node5 -->
<g id="node5" class="node"><title>Node5</title>
<g id="a_node5"><a xlink:href="../../d6/d84/MathConstants_8h.html" target="_top" xlink:title="useful math constants ">
<polygon fill="none" stroke="black" points="1906.5,-6.5 1906.5,-25.5 2085.5,-25.5 2085.5,-6.5 1906.5,-6.5"/>
<text text-anchor="middle" x="1996" y="-13.5" font-family="Helvetica,sans-Serif" font-size="10.00">CommonConstants/MathConstants.h</text>
</a>
</g>
</g>
<!-- Node1&#45;&gt;Node5 -->
<g id="edge4" class="edge"><title>Node1&#45;&gt;Node5</title>
<path fill="none" stroke="midnightblue" d="M1664.64,-431.204C1796.21,-414.881 2063,-371.601 2063,-289 2063,-289 2063,-289 2063,-151 2063,-104.438 2030.24,-57.471 2010.53,-33.4336"/>
<polygon fill="midnightblue" stroke="midnightblue" points="2013.08,-31.0281 2003.95,-25.6584 2007.74,-35.5517 2013.08,-31.0281"/>
</g>
<!-- Node6 -->
<g id="node6" class="node"><title>Node6</title>
<g id="a_node6"><a xlink:href="../../d7/d8b/DataFormats_2Reconstruction_2include_2ReconstructionDataFormats_2Track_8h.html" target="_top" xlink:title="ReconstructionDataFormats\l/Track.h">
<polygon fill="none" stroke="black" points="1523,-341 1523,-371 1663,-371 1663,-341 1523,-341"/>
<text text-anchor="start" x="1531" y="-359" font-family="Helvetica,sans-Serif" font-size="10.00">ReconstructionDataFormats</text>
<text text-anchor="middle" x="1593" y="-348" font-family="Helvetica,sans-Serif" font-size="10.00">/Track.h</text>
</a>
</g>
</g>
<!-- Node1&#45;&gt;Node6 -->
<g id="edge5" class="edge"><title>Node1&#45;&gt;Node6</title>
<path fill="none" stroke="midnightblue" d="M1593,-408.466C1593,-399.502 1593,-389.822 1593,-381.302"/>
<polygon fill="midnightblue" stroke="midnightblue" points="1596.5,-381.272 1593,-371.272 1589.5,-381.272 1596.5,-381.272"/>
</g>
<!-- Node6&#45;&gt;Node2 -->
<g id="edge8" class="edge"><title>Node6&#45;&gt;Node2</title>
<path fill="none" stroke="midnightblue" d="M1522.75,-355.187C1252.52,-354.995 295,-345.529 295,-221 295,-221 295,-221 295,-151 295,-112.6 288.814,-91.7358 319,-68 365.428,-31.4928 1287.99,-19.314 1464.83,-17.3109"/>
<polygon fill="midnightblue" stroke="midnightblue" points="1464.98,-20.8095 1474.95,-17.1983 1464.91,-13.8099 1464.98,-20.8095"/>
</g>
<!-- Node6&#45;&gt;Node3 -->
<g id="edge10" class="edge"><title>Node6&#45;&gt;Node3</title>
<path fill="none" stroke="midnightblue" d="M1663.2,-351.594C1745.36,-346.296 1875.05,-333.44 1913,-304 1944.77,-279.353 1949,-261.209 1949,-221 1949,-221 1949,-221 1949,-151 1949,-113.157 1950.15,-100.033 1930,-68 1920.26,-52.5118 1904.12,-39.6996 1890.49,-30.7908"/>
<polygon fill="midnightblue" stroke="midnightblue" points="1892.32,-27.812 1881.98,-25.5113 1888.63,-33.7592 1892.32,-27.812"/>
</g>
<!-- Node6&#45;&gt;Node5 -->
<g id="edge15" class="edge"><title>Node6&#45;&gt;Node5</title>
<path fill="none" stroke="midnightblue" d="M1663.17,-351.893C1751.28,-346.78 1896.24,-333.987 1940,-304 1974.97,-280.037 1987,-263.393 1987,-221 1987,-221 1987,-221 1987,-151 1987,-109.954 1991.26,-61.9948 1993.91,-36.0394"/>
<polygon fill="midnightblue" stroke="midnightblue" points="1997.43,-36.0791 1995,-25.7661 1990.47,-35.3418 1997.43,-36.0791"/>
</g>
<!-- Node7 -->
<g id="node7" class="node"><title>Node7</title>
<polygon fill="none" stroke="#bfbfbf" points="1410,-74.5 1410,-93.5 1466,-93.5 1466,-74.5 1410,-74.5"/>
<text text-anchor="middle" x="1438" y="-81.5" font-family="Helvetica,sans-Serif" font-size="10.00">Rtypes.h</text>
</g>
<!-- Node6&#45;&gt;Node7 -->
<g id="edge6" class="edge"><title>Node6&#45;&gt;Node7</title>
<path fill="none" stroke="midnightblue" d="M1522.94,-351.163C1453.75,-345.734 1354.91,-333.011 1331,-304 1276.12,-237.413 1376.55,-137.961 1419.69,-100.243"/>
<polygon fill="midnightblue" stroke="midnightblue" points="1422.18,-102.718 1427.5,-93.5505 1417.63,-97.4046 1422.18,-102.718"/>
</g>
<!-- Node8 -->
<g id="node8" class="node"><title>Node8</title>
<polygon fill="none" stroke="#bfbfbf" points="1498,-278.5 1498,-297.5 1554,-297.5 1554,-278.5 1498,-278.5"/>
<text text-anchor="middle" x="1526" y="-285.5" font-family="Helvetica,sans-Serif" font-size="10.00">algorithm</text>
</g>
<!-- Node6&#45;&gt;Node8 -->
<g id="edge7" class="edge"><title>Node6&#45;&gt;Node8</title>
<path fill="none" stroke="midnightblue" d="M1578.46,-340.679C1567.81,-330.184 1553.34,-315.932 1542.3,-305.052"/>
<polygon fill="midnightblue" stroke="midnightblue" points="1544.54,-302.353 1534.96,-297.828 1539.63,-307.339 1544.54,-302.353"/>
</g>
<!-- Node9 -->
<g id="node9" class="node"><title>Node9</title>
<polygon fill="none" stroke="#bfbfbf" points="1572.5,-278.5 1572.5,-297.5 1613.5,-297.5 1613.5,-278.5 1572.5,-278.5"/>
<text text-anchor="middle" x="1593" y="-285.5" font-family="Helvetica,sans-Serif" font-size="10.00">cfloat</text>
</g>
<!-- Node6&#45;&gt;Node9 -->
<g id="edge9" class="edge"><title>Node6&#45;&gt;Node9</title>
<path fill="none" stroke="midnightblue" d="M1593,-340.679C1593,-331.101 1593,-318.394 1593,-307.977"/>
<polygon fill="midnightblue" stroke="midnightblue" points="1596.5,-307.828 1593,-297.828 1589.5,-307.828 1596.5,-307.828"/>
</g>
<!-- Node10 -->
<g id="node10" class="node"><title>Node10</title>
<polygon fill="none" stroke="#bfbfbf" points="1632,-278.5 1632,-297.5 1678,-297.5 1678,-278.5 1632,-278.5"/>
<text text-anchor="middle" x="1655" y="-285.5" font-family="Helvetica,sans-Serif" font-size="10.00">cstring</text>
</g>
<!-- Node6&#45;&gt;Node10 -->
<g id="edge11" class="edge"><title>Node6&#45;&gt;Node10</title>
<path fill="none" stroke="midnightblue" d="M1606.45,-340.679C1616.22,-330.286 1629.44,-316.208 1639.62,-305.37"/>
<polygon fill="midnightblue" stroke="midnightblue" points="1642.41,-307.513 1646.71,-297.828 1637.31,-302.72 1642.41,-307.513"/>
</g>
<!-- Node11 -->
<g id="node11" class="node"><title>Node11</title>
<polygon fill="none" stroke="#bfbfbf" points="361,-74.5 361,-93.5 415,-93.5 415,-74.5 361,-74.5"/>
<text text-anchor="middle" x="388" y="-81.5" font-family="Helvetica,sans-Serif" font-size="10.00">iostream</text>
</g>
<!-- Node6&#45;&gt;Node11 -->
<g id="edge12" class="edge"><title>Node6&#45;&gt;Node11</title>
<path fill="none" stroke="midnightblue" d="M1522.76,-350.389C1351.94,-337.479 903.052,-293.328 552,-168 499.163,-149.137 441.549,-117.036 410.64,-98.7766"/>
<polygon fill="midnightblue" stroke="midnightblue" points="412.32,-95.7036 401.939,-93.5843 408.733,-101.715 412.32,-95.7036"/>
</g>
<!-- Node12 -->
<g id="node12" class="node"><title>Node12</title>
<polygon fill="none" stroke="#bfbfbf" points="1696.5,-278.5 1696.5,-297.5 1779.5,-297.5 1779.5,-278.5 1696.5,-278.5"/>
<text text-anchor="middle" x="1738" y="-285.5" font-family="Helvetica,sans-Serif" font-size="10.00">Math/SMatrix.h</text>
</g>
<!-- Node6&#45;&gt;Node12 -->
<g id="edge13" class="edge"><title>Node6&#45;&gt;Node12</title>
<path fill="none" stroke="midnightblue" d="M1624.11,-340.841C1649.52,-329.272 1685.15,-313.055 1709.76,-301.855"/>
<polygon fill="midnightblue" stroke="midnightblue" points="1711.27,-305.01 1718.93,-297.682 1708.37,-298.639 1711.27,-305.01"/>
</g>
<!-- Node13 -->
<g id="node13" class="node"><title>Node13</title>
<polygon fill="none" stroke="#bfbfbf" points="1797.5,-278.5 1797.5,-297.5 1882.5,-297.5 1882.5,-278.5 1797.5,-278.5"/>
<text text-anchor="middle" x="1840" y="-285.5" font-family="Helvetica,sans-Serif" font-size="10.00">Math/SVector.h</text>
</g>
<!-- Node6&#45;&gt;Node13 -->
<g id="edge14" class="edge"><title>Node6&#45;&gt;Node13</title>
<path fill="none" stroke="midnightblue" d="M1648.15,-340.968C1687.26,-330.923 1740.93,-316.942 1788,-304 1792.29,-302.819 1796.78,-301.561 1801.24,-300.295"/>
<polygon fill="midnightblue" stroke="midnightblue" points="1802.23,-303.653 1810.88,-297.538 1800.31,-296.923 1802.23,-303.653"/>
</g>
<!-- Node14 -->
<g id="node14" class="node"><title>Node14</title>
<g id="a_node14"><a xlink:href="../../dd/d76/Cartesian3D_8h.html" target="_top" xlink:title="MathUtils/Cartesian3D.h">
<polygon fill="none" stroke="black" points="934.5,-142.5 934.5,-161.5 1059.5,-161.5 1059.5,-142.5 934.5,-142.5"/>
<text text-anchor="middle" x="997" y="-149.5" font-family="Helvetica,sans-Serif" font-size="10.00">MathUtils/Cartesian3D.h</text>
</a>
</g>
</g>
<!-- Node6&#45;&gt;Node14 -->
<g id="edge16" class="edge"><title>Node6&#45;&gt;Node14</title>
<path fill="none" stroke="midnightblue" d="M1522.94,-348.124C1462.39,-340.951 1373.05,-327.399 1298,-304 1229.28,-282.574 1215.38,-268.202 1151,-236 1104.43,-212.706 1051.17,-183.386 1021.06,-166.559"/>
<polygon fill="midnightblue" stroke="midnightblue" points="1022.57,-163.394 1012.14,-161.558 1019.15,-169.501 1022.57,-163.394"/>
</g>
<!-- Node24 -->
<g id="node24" class="node"><title>Node24</title>
<g id="a_node24"><a xlink:href="../../d9/ded/Utils_8h.html" target="_top" xlink:title="General auxilliary methods. ">
<polygon fill="none" stroke="black" points="1831,-74.5 1831,-93.5 1921,-93.5 1921,-74.5 1831,-74.5"/>
<text text-anchor="middle" x="1876" y="-81.5" font-family="Helvetica,sans-Serif" font-size="10.00">MathUtils/Utils.h</text>
</a>
</g>
</g>
<!-- Node6&#45;&gt;Node24 -->
<g id="edge28" class="edge"><title>Node6&#45;&gt;Node24</title>
<path fill="none" stroke="midnightblue" d="M1663.3,-353.063C1742.05,-349.237 1862.45,-337.854 1891,-304 1940.27,-245.578 1903.14,-144.294 1884.74,-103.154"/>
<polygon fill="midnightblue" stroke="midnightblue" points="1887.81,-101.45 1880.43,-93.8457 1881.46,-104.391 1887.81,-101.45"/>
</g>
<!-- Node25 -->
<g id="node25" class="node"><title>Node25</title>
<g id="a_node25"><a xlink:href="../../d4/de2/BaseCluster_8h.html" target="_top" xlink:title="ReconstructionDataFormats\l/BaseCluster.h">
<polygon fill="none" stroke="black" points="1340,-273 1340,-303 1480,-303 1480,-273 1340,-273"/>
<text text-anchor="start" x="1348" y="-291" font-family="Helvetica,sans-Serif" font-size="10.00">ReconstructionDataFormats</text>
<text text-anchor="middle" x="1410" y="-280" font-family="Helvetica,sans-Serif" font-size="10.00">/BaseCluster.h</text>
</a>
</g>
</g>
<!-- Node6&#45;&gt;Node25 -->
<g id="edge32" class="edge"><title>Node6&#45;&gt;Node25</title>
<path fill="none" stroke="midnightblue" d="M1553.74,-340.841C1525.91,-330.802 1488.37,-317.265 1458.64,-306.542"/>
<polygon fill="midnightblue" stroke="midnightblue" points="1459.47,-303.122 1448.88,-303.022 1457.1,-309.707 1459.47,-303.122"/>
</g>
<!-- Node14&#45;&gt;Node7 -->
<g id="edge22" class="edge"><title>Node14&#45;&gt;Node7</title>
<path fill="none" stroke="midnightblue" d="M1059.55,-148.136C1139.77,-143.323 1282.66,-130.894 1401,-100 1403.99,-99.2198 1407.06,-98.2567 1410.09,-97.198"/>
<polygon fill="midnightblue" stroke="midnightblue" points="1411.41,-100.44 1419.5,-93.5974 1408.91,-93.9028 1411.41,-100.44"/>
</g>
<!-- Node14&#45;&gt;Node11 -->
<g id="edge24" class="edge"><title>Node14&#45;&gt;Node11</title>
<path fill="none" stroke="midnightblue" d="M934.271,-145.934C790.666,-134.266 448.469,-106.034 424,-100 421.007,-99.2619 417.94,-98.3118 414.919,-97.2485"/>
<polygon fill="midnightblue" stroke="midnightblue" points="416.167,-93.9784 405.579,-93.5873 413.612,-100.496 416.167,-93.9784"/>
</g>
<!-- Node15 -->
<g id="node15" class="node"><title>Node15</title>
<polygon fill="none" stroke="#bfbfbf" points="705.5,-69 705.5,-99 856.5,-99 856.5,-69 705.5,-69"/>
<text text-anchor="start" x="713.5" y="-87" font-family="Helvetica,sans-Serif" font-size="10.00">Math/GenVector/Displacement</text>
<text text-anchor="middle" x="781" y="-76" font-family="Helvetica,sans-Serif" font-size="10.00">Vector3D.h</text>
</g>
<!-- Node14&#45;&gt;Node15 -->
<g id="edge17" class="edge"><title>Node14&#45;&gt;Node15</title>
<path fill="none" stroke="midnightblue" d="M968.762,-142.372C935.343,-132.16 878.904,-114.915 836.61,-101.992"/>
<polygon fill="midnightblue" stroke="midnightblue" points="837.589,-98.6312 827.002,-99.0562 835.543,-105.326 837.589,-98.6312"/>
</g>
<!-- Node16 -->
<g id="node16" class="node"><title>Node16</title>
<polygon fill="none" stroke="#bfbfbf" points="875,-74.5 875,-93.5 1051,-93.5 1051,-74.5 875,-74.5"/>
<text text-anchor="middle" x="963" y="-81.5" font-family="Helvetica,sans-Serif" font-size="10.00">Math/GenVector/PositionVector3D.h</text>
</g>
<!-- Node14&#45;&gt;Node16 -->
<g id="edge18" class="edge"><title>Node14&#45;&gt;Node16</title>
<path fill="none" stroke="midnightblue" d="M992.555,-142.372C987.442,-132.446 978.905,-115.874 972.317,-103.086"/>
<polygon fill="midnightblue" stroke="midnightblue" points="975.246,-101.128 967.555,-93.8411 969.023,-104.334 975.246,-101.128"/>
</g>
<!-- Node17 -->
<g id="node17" class="node"><title>Node17</title>
<polygon fill="none" stroke="#bfbfbf" points="1068.5,-74.5 1068.5,-93.5 1217.5,-93.5 1217.5,-74.5 1068.5,-74.5"/>
<text text-anchor="middle" x="1143" y="-81.5" font-family="Helvetica,sans-Serif" font-size="10.00">Math/GenVector/Rotation3D.h</text>
</g>
<!-- Node14&#45;&gt;Node17 -->
<g id="edge19" class="edge"><title>Node14&#45;&gt;Node17</title>
<path fill="none" stroke="midnightblue" d="M1016.09,-142.372C1041.23,-131.007 1085.64,-110.931 1114.69,-97.7961"/>
<polygon fill="midnightblue" stroke="midnightblue" points="1116.24,-100.939 1123.91,-93.6305 1113.35,-94.5605 1116.24,-100.939"/>
</g>
<!-- Node18 -->
<g id="node18" class="node"><title>Node18</title>
<polygon fill="none" stroke="#bfbfbf" points="1236,-74.5 1236,-93.5 1392,-93.5 1392,-74.5 1236,-74.5"/>
<text text-anchor="middle" x="1314" y="-81.5" font-family="Helvetica,sans-Serif" font-size="10.00">Math/GenVector/Transform3D.h</text>
</g>
<!-- Node14&#45;&gt;Node18 -->
<g id="edge20" class="edge"><title>Node14&#45;&gt;Node18</title>
<path fill="none" stroke="midnightblue" d="M1038.12,-142.439C1095.72,-130.446 1200.39,-108.654 1262.92,-95.6351"/>
<polygon fill="midnightblue" stroke="midnightblue" points="1263.88,-99.0104 1272.96,-93.5455 1262.45,-92.1574 1263.88,-99.0104"/>
</g>
<!-- Node19 -->
<g id="node19" class="node"><title>Node19</title>
<polygon fill="none" stroke="#bfbfbf" points="433,-74.5 433,-93.5 593,-93.5 593,-74.5 433,-74.5"/>
<text text-anchor="middle" x="513" y="-81.5" font-family="Helvetica,sans-Serif" font-size="10.00">Math/GenVector/Translation3D.h</text>
</g>
<!-- Node14&#45;&gt;Node19 -->
<g id="edge21" class="edge"><title>Node14&#45;&gt;Node19</title>
<path fill="none" stroke="midnightblue" d="M934.3,-143.661C856.306,-134.359 719.123,-117.424 602,-100 592.12,-98.5301 581.641,-96.8621 571.475,-95.1858"/>
<polygon fill="midnightblue" stroke="midnightblue" points="571.886,-91.7061 561.446,-93.5137 570.735,-98.6108 571.886,-91.7061"/>
</g>
<!-- Node20 -->
<g id="node20" class="node"><title>Node20</title>
<polygon fill="none" stroke="#bfbfbf" points="611,-74.5 611,-93.5 687,-93.5 687,-74.5 611,-74.5"/>
<text text-anchor="middle" x="649" y="-81.5" font-family="Helvetica,sans-Serif" font-size="10.00">TGeoMatrix.h</text>
</g>
<!-- Node14&#45;&gt;Node20 -->
<g id="edge23" class="edge"><title>Node14&#45;&gt;Node20</title>
<path fill="none" stroke="midnightblue" d="M934.217,-142.994C872.959,-134.567 777.375,-119.775 696,-100 691.88,-98.9988 687.596,-97.824 683.366,-96.5802"/>
<polygon fill="midnightblue" stroke="midnightblue" points="684.281,-93.2 673.694,-93.6016 682.221,-99.8899 684.281,-93.2"/>
</g>
<!-- Node21 -->
<g id="node21" class="node"><title>Node21</title>
<g id="a_node21"><a xlink:href="../../d2/dd0/Cartesian2D_8h.html" target="_top" xlink:title="MathUtils/Cartesian2D.h">
<polygon fill="none" stroke="black" points="103.5,-74.5 103.5,-93.5 228.5,-93.5 228.5,-74.5 103.5,-74.5"/>
<text text-anchor="middle" x="166" y="-81.5" font-family="Helvetica,sans-Serif" font-size="10.00">MathUtils/Cartesian2D.h</text>
</a>
</g>
</g>
<!-- Node14&#45;&gt;Node21 -->
<g id="edge25" class="edge"><title>Node14&#45;&gt;Node21</title>
<path fill="none" stroke="midnightblue" d="M934.28,-146.074C818.983,-137.01 565.587,-117.057 352,-100 314.832,-97.0319 273.489,-93.7007 239.237,-90.9328"/>
<polygon fill="midnightblue" stroke="midnightblue" points="239.097,-87.4102 228.848,-90.093 238.533,-94.3874 239.097,-87.4102"/>
</g>
<!-- Node22 -->
<g id="node22" class="node"><title>Node22</title>
<polygon fill="none" stroke="#bfbfbf" points="-0.5,-1 -0.5,-31 150.5,-31 150.5,-1 -0.5,-1"/>
<text text-anchor="start" x="7.5" y="-19" font-family="Helvetica,sans-Serif" font-size="10.00">Math/GenVector/Displacement</text>
<text text-anchor="middle" x="75" y="-8" font-family="Helvetica,sans-Serif" font-size="10.00">Vector2D.h</text>
</g>
<!-- Node21&#45;&gt;Node22 -->
<g id="edge26" class="edge"><title>Node21&#45;&gt;Node22</title>
<path fill="none" stroke="midnightblue" d="M154.103,-74.3717C141.221,-65.0286 120.22,-49.7966 103.093,-37.375"/>
<polygon fill="midnightblue" stroke="midnightblue" points="104.703,-34.2194 94.5532,-31.1815 100.593,-39.8859 104.703,-34.2194"/>
</g>
<!-- Node23 -->
<g id="node23" class="node"><title>Node23</title>
<polygon fill="none" stroke="#bfbfbf" points="169,-6.5 169,-25.5 345,-25.5 345,-6.5 169,-6.5"/>
<text text-anchor="middle" x="257" y="-13.5" font-family="Helvetica,sans-Serif" font-size="10.00">Math/GenVector/PositionVector2D.h</text>
</g>
<!-- Node21&#45;&gt;Node23 -->
<g id="edge27" class="edge"><title>Node21&#45;&gt;Node23</title>
<path fill="none" stroke="midnightblue" d="M177.897,-74.3717C192.884,-63.5015 218.862,-44.6602 236.942,-31.5474"/>
<polygon fill="midnightblue" stroke="midnightblue" points="239.06,-34.3349 245.1,-25.6305 234.95,-28.6684 239.06,-34.3349"/>
</g>
<!-- Node24&#45;&gt;Node2 -->
<g id="edge29" class="edge"><title>Node24&#45;&gt;Node2</title>
<path fill="none" stroke="midnightblue" d="M1847.03,-74.4499C1838.68,-72.1609 1829.52,-69.8197 1821,-68 1712.26,-44.7676 1581.05,-27.5153 1523.49,-20.4785"/>
<polygon fill="midnightblue" stroke="midnightblue" points="1523.65,-16.9727 1513.3,-19.2464 1522.81,-23.922 1523.65,-16.9727"/>
</g>
<!-- Node24&#45;&gt;Node3 -->
<g id="edge30" class="edge"><title>Node24&#45;&gt;Node3</title>
<path fill="none" stroke="midnightblue" d="M1874.69,-74.3717C1873.22,-64.6426 1870.78,-48.528 1868.86,-35.8504"/>
<polygon fill="midnightblue" stroke="midnightblue" points="1872.3,-35.2039 1867.34,-25.8411 1865.38,-36.2526 1872.3,-35.2039"/>
</g>
<!-- Node24&#45;&gt;Node5 -->
<g id="edge31" class="edge"><title>Node24&#45;&gt;Node5</title>
<path fill="none" stroke="midnightblue" d="M1891.69,-74.3717C1911.99,-63.2051 1947.59,-43.6266 1971.48,-30.4876"/>
<polygon fill="midnightblue" stroke="midnightblue" points="1973.23,-33.5165 1980.31,-25.6305 1969.86,-27.3829 1973.23,-33.5165"/>
</g>
<!-- Node25&#45;&gt;Node11 -->
<g id="edge37" class="edge"><title>Node25&#45;&gt;Node11</title>
<path fill="none" stroke="midnightblue" d="M1339.78,-278.771C1176.51,-258.542 759.68,-200.577 424,-100 421.355,-99.2075 418.639,-98.2868 415.942,-97.2989"/>
<polygon fill="midnightblue" stroke="midnightblue" points="417.003,-93.955 406.417,-93.5355 414.431,-100.465 417.003,-93.955"/>
</g>
<!-- Node25&#45;&gt;Node14 -->
<g id="edge52" class="edge"><title>Node25&#45;&gt;Node14</title>
<path fill="none" stroke="midnightblue" d="M1366.58,-272.913C1284.63,-246.322 1108.57,-189.2 1032.84,-164.629"/>
<polygon fill="midnightblue" stroke="midnightblue" points="1033.86,-161.279 1023.26,-161.522 1031.7,-167.937 1033.86,-161.279"/>
</g>
<!-- Node26 -->
<g id="node26" class="node"><title>Node26</title>
<polygon fill="none" stroke="#bfbfbf" points="1519.5,-210.5 1519.5,-229.5 1578.5,-229.5 1578.5,-210.5 1519.5,-210.5"/>
<text text-anchor="middle" x="1549" y="-217.5" font-family="Helvetica,sans-Serif" font-size="10.00">TObject.h</text>
</g>
<!-- Node25&#45;&gt;Node26 -->
<g id="edge33" class="edge"><title>Node25&#45;&gt;Node26</title>
<path fill="none" stroke="midnightblue" d="M1439.82,-272.841C1464.08,-261.323 1498.04,-245.199 1521.61,-234.004"/>
<polygon fill="midnightblue" stroke="midnightblue" points="1523.18,-237.133 1530.72,-229.682 1520.18,-230.809 1523.18,-237.133"/>
</g>
<!-- Node27 -->
<g id="node27" class="node"><title>Node27</title>
<polygon fill="none" stroke="#bfbfbf" points="1771.5,-74.5 1771.5,-93.5 1812.5,-93.5 1812.5,-74.5 1771.5,-74.5"/>
<text text-anchor="middle" x="1792" y="-81.5" font-family="Helvetica,sans-Serif" font-size="10.00">bitset</text>
</g>
<!-- Node25&#45;&gt;Node27 -->
<g id="edge34" class="edge"><title>Node25&#45;&gt;Node27</title>
<path fill="none" stroke="midnightblue" d="M1479.04,-272.923C1572.68,-252.441 1732.79,-212.034 1772,-168 1787.75,-150.308 1791.63,-122.355 1792.32,-103.849"/>
<polygon fill="midnightblue" stroke="midnightblue" points="1795.82,-103.757 1792.42,-93.7243 1788.82,-103.691 1795.82,-103.757"/>
</g>
<!-- Node28 -->
<g id="node28" class="node"><title>Node28</title>
<polygon fill="none" stroke="#bfbfbf" points="1747,-210.5 1747,-229.5 1797,-229.5 1797,-210.5 1747,-210.5"/>
<text text-anchor="middle" x="1772" y="-217.5" font-family="Helvetica,sans-Serif" font-size="10.00">iomanip</text>
</g>
<!-- Node25&#45;&gt;Node28 -->
<g id="edge35" class="edge"><title>Node25&#45;&gt;Node28</title>
<path fill="none" stroke="midnightblue" d="M1480.18,-273.519C1483.16,-272.996 1486.11,-272.487 1489,-272 1597.09,-253.772 1626.98,-263.845 1733,-236 1736.16,-235.171 1739.41,-234.17 1742.63,-233.083"/>
<polygon fill="midnightblue" stroke="midnightblue" points="1743.84,-236.365 1752.04,-229.65 1741.44,-229.789 1743.84,-236.365"/>
</g>
<!-- Node29 -->
<g id="node29" class="node"><title>Node29</title>
<polygon fill="none" stroke="#bfbfbf" points="1815.5,-210.5 1815.5,-229.5 1844.5,-229.5 1844.5,-210.5 1815.5,-210.5"/>
<text text-anchor="middle" x="1830" y="-217.5" font-family="Helvetica,sans-Serif" font-size="10.00">ios</text>
</g>
<!-- Node25&#45;&gt;Node29 -->
<g id="edge36" class="edge"><title>Node25&#45;&gt;Node29</title>
<path fill="none" stroke="midnightblue" d="M1480.16,-273.396C1483.15,-272.907 1486.1,-272.439 1489,-272 1629.19,-250.76 1672.13,-282.73 1806,-236 1807.07,-235.628 1808.14,-235.201 1809.2,-234.733"/>
<polygon fill="midnightblue" stroke="midnightblue" points="1811.23,-237.612 1818.33,-229.746 1807.87,-231.469 1811.23,-237.612"/>
</g>
<!-- Node30 -->
<g id="node30" class="node"><title>Node30</title>
<g id="a_node30"><a xlink:href="../../d4/d20/DetMatrixCache_8h.html" target="_top" xlink:title="DetectorsCommonDataFormats\l/DetMatrixCache.h">
<polygon fill="none" stroke="black" points="1345,-205 1345,-235 1501,-235 1501,-205 1345,-205"/>
<text text-anchor="start" x="1353" y="-223" font-family="Helvetica,sans-Serif" font-size="10.00">DetectorsCommonDataFormats</text>
<text text-anchor="middle" x="1423" y="-212" font-family="Helvetica,sans-Serif" font-size="10.00">/DetMatrixCache.h</text>
</a>
</g>
</g>
<!-- Node25&#45;&gt;Node30 -->
<g id="edge38" class="edge"><title>Node25&#45;&gt;Node30</title>
<path fill="none" stroke="midnightblue" d="M1412.82,-272.679C1414.41,-264.636 1416.42,-254.385 1418.25,-245.137"/>
<polygon fill="midnightblue" stroke="midnightblue" points="1421.69,-245.781 1420.18,-235.293 1414.82,-244.428 1421.69,-245.781"/>
</g>
<!-- Node30&#45;&gt;Node2 -->
<g id="edge40" class="edge"><title>Node30&#45;&gt;Node2</title>
<path fill="none" stroke="midnightblue" d="M1425.45,-204.919C1428.77,-187.934 1435.62,-158.821 1447,-136 1455.92,-118.101 1465.48,-118.095 1474,-100 1483.84,-79.0985 1489.11,-52.8822 1491.73,-35.5703"/>
<polygon fill="midnightblue" stroke="midnightblue" points="1495.2,-36.0069 1493.09,-25.625 1488.27,-35.059 1495.2,-36.0069"/>
</g>
<!-- Node30&#45;&gt;Node4 -->
<g id="edge41" class="edge"><title>Node30&#45;&gt;Node4</title>
<path fill="none" stroke="midnightblue" d="M1501.02,-205.451C1584.57,-190.901 1705.95,-169.634 1711,-168 1712.92,-167.379 1714.87,-166.661 1716.82,-165.882"/>
<polygon fill="midnightblue" stroke="midnightblue" points="1718.56,-168.934 1726.26,-161.652 1715.7,-162.546 1718.56,-168.934"/>
</g>
<!-- Node30&#45;&gt;Node7 -->
<g id="edge51" class="edge"><title>Node30&#45;&gt;Node7</title>
<path fill="none" stroke="midnightblue" d="M1418.66,-204.744C1414.22,-188.083 1408.69,-159.764 1414,-136 1416.63,-124.234 1422.29,-111.981 1427.45,-102.435"/>
<polygon fill="midnightblue" stroke="midnightblue" points="1430.58,-104.018 1432.5,-93.6001 1424.5,-100.544 1430.58,-104.018"/>
</g>
<!-- Node30&#45;&gt;Node14 -->
<g id="edge50" class="edge"><title>Node30&#45;&gt;Node14</title>
<path fill="none" stroke="midnightblue" d="M1344.87,-206.895C1263.6,-194.305 1137.85,-174.822 1061.88,-163.052"/>
<polygon fill="midnightblue" stroke="midnightblue" points="1062.38,-159.587 1051.96,-161.515 1061.31,-166.505 1062.38,-159.587"/>
</g>
<!-- Node31 -->
<g id="node31" class="node"><title>Node31</title>
<polygon fill="none" stroke="#bfbfbf" points="1456.5,-142.5 1456.5,-161.5 1527.5,-161.5 1527.5,-142.5 1456.5,-142.5"/>
<text text-anchor="middle" x="1492" y="-149.5" font-family="Helvetica,sans-Serif" font-size="10.00">FairLogger.h</text>
</g>
<!-- Node30&#45;&gt;Node31 -->
<g id="edge39" class="edge"><title>Node30&#45;&gt;Node31</title>
<path fill="none" stroke="midnightblue" d="M1437.97,-204.679C1448.94,-194.184 1463.84,-179.932 1475.22,-169.052"/>
<polygon fill="midnightblue" stroke="midnightblue" points="1477.96,-171.27 1482.77,-161.828 1473.12,-166.211 1477.96,-171.27"/>
</g>
<!-- Node32 -->
<g id="node32" class="node"><title>Node32</title>
<g id="a_node32"><a xlink:href="../../d6/d31/DetID_8h.html" target="_top" xlink:title="DetectorsCommonDataFormats\l/DetID.h">
<polygon fill="none" stroke="black" points="1546,-137 1546,-167 1702,-167 1702,-137 1546,-137"/>
<text text-anchor="start" x="1554" y="-155" font-family="Helvetica,sans-Serif" font-size="10.00">DetectorsCommonDataFormats</text>
<text text-anchor="middle" x="1624" y="-144" font-family="Helvetica,sans-Serif" font-size="10.00">/DetID.h</text>
</a>
</g>
</g>
<!-- Node30&#45;&gt;Node32 -->
<g id="edge42" class="edge"><title>Node30&#45;&gt;Node32</title>
<path fill="none" stroke="midnightblue" d="M1466.12,-204.841C1496.96,-194.715 1538.64,-181.03 1571.43,-170.262"/>
<polygon fill="midnightblue" stroke="midnightblue" points="1572.89,-173.467 1581.3,-167.022 1570.7,-166.816 1572.89,-173.467"/>
</g>
<!-- Node32&#45;&gt;Node2 -->
<g id="edge44" class="edge"><title>Node32&#45;&gt;Node2</title>
<path fill="none" stroke="midnightblue" d="M1599.33,-136.892C1584.33,-127.595 1565.37,-114.488 1551,-100 1531.15,-79.9887 1513.69,-52.2565 1503.49,-34.4695"/>
<polygon fill="midnightblue" stroke="midnightblue" points="1506.41,-32.5227 1498.47,-25.5011 1500.3,-35.9378 1506.41,-32.5227"/>
</g>
<!-- Node32&#45;&gt;Node7 -->
<g id="edge43" class="edge"><title>Node32&#45;&gt;Node7</title>
<path fill="none" stroke="midnightblue" d="M1584.1,-136.841C1550.68,-124.982 1503.49,-108.239 1471.88,-97.0216"/>
<polygon fill="midnightblue" stroke="midnightblue" points="1472.79,-93.6325 1462.2,-93.5868 1470.45,-100.229 1472.79,-93.6325"/>
</g>
<!-- Node32&#45;&gt;Node24 -->
<g id="edge49" class="edge"><title>Node32&#45;&gt;Node24</title>
<path fill="none" stroke="midnightblue" d="M1679.25,-136.901C1718.76,-126.767 1773.2,-112.705 1821,-100 1825.6,-98.7773 1830.41,-97.4846 1835.2,-96.1913"/>
<polygon fill="midnightblue" stroke="midnightblue" points="1836.16,-99.5559 1844.9,-93.5582 1834.33,-92.8004 1836.16,-99.5559"/>
</g>
<!-- Node32&#45;&gt;Node27 -->
<g id="edge45" class="edge"><title>Node32&#45;&gt;Node27</title>
<path fill="none" stroke="midnightblue" d="M1665.53,-136.99C1693.17,-127.34 1730.13,-113.809 1762,-100 1763.4,-99.3924 1764.83,-98.7516 1766.27,-98.0909"/>
<polygon fill="midnightblue" stroke="midnightblue" points="1768.15,-101.069 1775.65,-93.5816 1765.12,-94.7609 1768.15,-101.069"/>
</g>
<!-- Node33 -->
<g id="node33" class="node"><title>Node33</title>
<polygon fill="none" stroke="#bfbfbf" points="1704.5,-74.5 1704.5,-93.5 1753.5,-93.5 1753.5,-74.5 1704.5,-74.5"/>
<text text-anchor="middle" x="1729" y="-81.5" font-family="Helvetica,sans-Serif" font-size="10.00">cassert</text>
</g>
<!-- Node32&#45;&gt;Node33 -->
<g id="edge46" class="edge"><title>Node32&#45;&gt;Node33</title>
<path fill="none" stroke="midnightblue" d="M1646.53,-136.841C1664.28,-125.681 1688.91,-110.198 1706.63,-99.0625"/>
<polygon fill="midnightblue" stroke="midnightblue" points="1708.58,-101.967 1715.19,-93.6819 1704.86,-96.0404 1708.58,-101.967"/>
</g>
<!-- Node34 -->
<g id="node34" class="node"><title>Node34</title>
<polygon fill="none" stroke="#bfbfbf" points="1560,-74.5 1560,-93.5 1606,-93.5 1606,-74.5 1560,-74.5"/>
<text text-anchor="middle" x="1583" y="-81.5" font-family="Helvetica,sans-Serif" font-size="10.00">cstdint</text>
</g>
<!-- Node32&#45;&gt;Node34 -->
<g id="edge47" class="edge"><title>Node32&#45;&gt;Node34</title>
<path fill="none" stroke="midnightblue" d="M1615.1,-136.679C1608.84,-126.592 1600.41,-113.033 1593.77,-102.335"/>
<polygon fill="midnightblue" stroke="midnightblue" points="1596.73,-100.476 1588.48,-93.8283 1590.79,-104.17 1596.73,-100.476"/>
</g>
<!-- Node35 -->
<g id="node35" class="node"><title>Node35</title>
<polygon fill="none" stroke="#bfbfbf" points="1624,-74.5 1624,-93.5 1686,-93.5 1686,-74.5 1624,-74.5"/>
<text text-anchor="middle" x="1655" y="-81.5" font-family="Helvetica,sans-Serif" font-size="10.00">type_traits</text>
</g>
<!-- Node32&#45;&gt;Node35 -->
<g id="edge48" class="edge"><title>Node32&#45;&gt;Node35</title>
<path fill="none" stroke="midnightblue" d="M1630.73,-136.679C1635.37,-126.796 1641.58,-113.579 1646.55,-102.986"/>
<polygon fill="midnightblue" stroke="midnightblue" points="1649.77,-104.368 1650.85,-93.8283 1643.43,-101.392 1649.77,-104.368"/>
</g>
</g>
</svg>
        <g id="navigator" transform="translate(0 0)" fill="#404254">
                <rect fill="#f2f5e9" fill-opacity="0.5" stroke="#606060" stroke-width=".5" x="0" y="0" width="60" height="60"/>
                <use id="zoomplus" xlink:href="#zoomPlus" x="17" y="9" onmousedown="handleZoom(evt,'in')"/>
                <use id="zoomminus" xlink:href="#zoomMin" x="42" y="9" onmousedown="handleZoom(evt,'out')"/>
                <use id="reset" xlink:href="#resetDef" x="30" y="36" onmousedown="handleReset()"/>
                <g id="arrowUp" xlink:href="#dirArrow" transform="translate(30 24)" onmousedown="handlePan(0,-1)">
                  <use xlink:href="#rim" fill="#404040">
                        <set attributeName="fill" to="#808080" begin="arrowUp.mouseover" end="arrowUp.mouseout"/>
                  </use>
                  <path fill="none" stroke="white" stroke-width="1.5" d="M0,-3.0v7 M-2.5,-0.5L0,-3.0L2.5,-0.5"/>
                </g>
                <g id="arrowRight" xlink:href="#dirArrow" transform="rotate(90) translate(36 -43)" onmousedown="handlePan(1,0)">
                  <use xlink:href="#rim" fill="#404040">
                        <set attributeName="fill" to="#808080" begin="arrowRight.mouseover" end="arrowRight.mouseout"/>
                  </use>
                  <path fill="none" stroke="white" stroke-width="1.5" d="M0,-3.0v7 M-2.5,-0.5L0,-3.0L2.5,-0.5"/>
                </g>
                <g id="arrowDown" xlink:href="#dirArrow" transform="rotate(180) translate(-30 -48)" onmousedown="handlePan(0,1)">
                  <use xlink:href="#rim" fill="#404040">
                        <set attributeName="fill" to="#808080" begin="arrowDown.mouseover" end="arrowDown.mouseout"/>
                  </use>
                  <path fill="none" stroke="white" stroke-width="1.5" d="M0,-3.0v7 M-2.5,-0.5L0,-3.0L2.5,-0.5"/>
                </g>
                <g id="arrowLeft" xlink:href="#dirArrow" transform="rotate(270) translate(-36 17)" onmousedown="handlePan(-1,0)">
                  <use xlink:href="#rim" fill="#404040">
                        <set attributeName="fill" to="#808080" begin="arrowLeft.mouseover" end="arrowLeft.mouseout"/>
                  </use>
                  <path fill="none" stroke="white" stroke-width="1.5" d="M0,-3.0v7 M-2.5,-0.5L0,-3.0L2.5,-0.5"/>
                </g>
        </g>
        <svg viewBox="0 0 15 15" width="100%" height="30px" preserveAspectRatio="xMaxYMin meet">
         <g id="arrow_out" transform="scale(0.3 0.3)">
          <a xlink:href="CAaux_8h__incl_org.svg" target="_base">
           <rect id="button" ry="5" rx="5" y="6" x="6" height="38" width="38"
                fill="#f2f5e9" fill-opacity="0.5" stroke="#606060" stroke-width="1.0"/>
           <path id="arrow"
             d="M 11.500037,31.436501 C 11.940474,20.09759 22.043105,11.32322 32.158766,21.979434 L 37.068811,17.246167 C 37.068811,17.246167 37.088388,32 37.088388,32 L 22.160133,31.978069 C 22.160133,31.978069 26.997745,27.140456 26.997745,27.140456 C 18.528582,18.264221 13.291696,25.230495 11.500037,31.436501 z"
             style="fill:#404040;"/>
          </a>
         </g>
        </svg>
</svg>
