<?xml version="1.0" encoding="UTF-8" standalone="no"?>
<!DOCTYPE svg PUBLIC "-//W3C//DTD SVG 1.1//EN"
 "http://www.w3.org/Graphics/SVG/1.1/DTD/svg11.dtd">
<!-- Generated by graphviz version 2.36.0 (20140111.2315)
 -->
<!-- Title: type Pages: 1 -->
<svg width="222pt" height="204pt"
 viewBox="0.00 0.00 222.00 204.00" xmlns="http://www.w3.org/2000/svg" xmlns:xlink="http://www.w3.org/1999/xlink">
<g id="graph0" class="graph" transform="scale(1 1) rotate(0) translate(4 200)">
<title>type</title>
<!-- Node1 -->
<g id="node1" class="node"><title>Node1</title>
<polygon fill="#bfbfbf" stroke="black" points="89.5,-138.5 89.5,-195.5 124.5,-195.5 124.5,-138.5 89.5,-138.5"/>
<text text-anchor="middle" x="107" y="-183.5" font-family="Helvetica,sans-Serif" font-size="10.00">type</text>
<polyline fill="none" stroke="black" points="89.5,-176.5 124.5,-176.5 "/>
<text text-anchor="middle" x="107" y="-164.5" font-family="Helvetica,sans-Serif" font-size="10.00"> </text>
<polyline fill="none" stroke="black" points="89.5,-157.5 124.5,-157.5 "/>
<text text-anchor="middle" x="107" y="-145.5" font-family="Helvetica,sans-Serif" font-size="10.00"> </text>
</g>
<!-- Node2 -->
<g id="node2" class="node"><title>Node2</title>
<g id="a_node2"><a xlink:href="../../de/de6/structo2_1_1framework_1_1is__messageable.html" target="_top" xlink:title="{o2::framework::is_messageable\l\&lt; std::is_trivially_copyable\l\&lt; T \&gt;::value &amp;&amp;!std::is_polymorphic\l\&lt; T \&gt;::value &amp;&amp;!is_forced_non_messageable\l\&lt; T \&gt;::value, std::true_type, std::false_type \&gt;\n||}">
<polygon fill="none" stroke="black" points="-0.5,-0.5 -0.5,-101.5 214.5,-101.5 214.5,-0.5 -0.5,-0.5"/>
<text text-anchor="start" x="7.5" y="-89.5" font-family="Helvetica,sans-Serif" font-size="10.00">o2::framework::is_messageable</text>
<text text-anchor="start" x="7.5" y="-78.5" font-family="Helvetica,sans-Serif" font-size="10.00">&lt; std::is_trivially_copyable</text>
<text text-anchor="start" x="7.5" y="-67.5" font-family="Helvetica,sans-Serif" font-size="10.00">&lt; T &gt;::value &amp;&amp;!std::is_polymorphic</text>
<text text-anchor="start" x="7.5" y="-56.5" font-family="Helvetica,sans-Serif" font-size="10.00">&lt; T &gt;::value &amp;&amp;!is_forced_non_messageable</text>
<text text-anchor="middle" x="107" y="-45.5" font-family="Helvetica,sans-Serif" font-size="10.00">&lt; T &gt;::value, std::true_type, std::false_type &gt;</text>
<polyline fill="none" stroke="black" points="-0.5,-38.5 214.5,-38.5 "/>
<text text-anchor="middle" x="107" y="-26.5" font-family="Helvetica,sans-Serif" font-size="10.00"> </text>
<polyline fill="none" stroke="black" points="-0.5,-19.5 214.5,-19.5 "/>
<text text-anchor="middle" x="107" y="-7.5" font-family="Helvetica,sans-Serif" font-size="10.00"> </text>
</a>
</g>
</g>
<!-- Node1&#45;&gt;Node2 -->
<g id="edge1" class="edge"><title>Node1&#45;&gt;Node2</title>
<path fill="none" stroke="midnightblue" d="M107,-128.354C107,-119.796 107,-110.578 107,-101.608"/>
<polygon fill="none" stroke="midnightblue" points="103.5,-128.404 107,-138.404 110.5,-128.404 103.5,-128.404"/>
</g>
</g>
</svg>
