<?xml version="1.0" encoding="UTF-8" standalone="no"?>
<!DOCTYPE svg PUBLIC "-//W3C//DTD SVG 1.1//EN"
 "http://www.w3.org/Graphics/SVG/1.1/DTD/svg11.dtd">
<!-- Generated by graphviz version 2.36.0 (20140111.2315)
 -->
<!-- Title: /home/travis/build/AliceO2Group/AliceO2/DataFormats/Parameters/src/GRPObject.cxx Pages: 1 -->
<!--zoomable 310 -->
<svg id="main" version="1.1" xmlns="http://www.w3.org/2000/svg" xmlns:xlink="http://www.w3.org/1999/xlink" xml:space="preserve" onload="init(evt)">
<style type="text/css"><![CDATA[
.edge:hover path { stroke: red; }
.edge:hover polygon { stroke: red; fill: red; }
]]></style>
<script type="text/javascript"><![CDATA[
var edges = document.getElementsByTagName('g');
if (edges && edges.length) {
  for (var i=0;i<edges.length;i++) {
    if (edges[i].id.substr(0,4)=='edge') {
      edges[i].setAttribute('class','edge');
    }
  }
}
]]></script>
        <defs>
                <circle id="rim" cx="0" cy="0" r="7"/>
                <circle id="rim2" cx="0" cy="0" r="3.5"/>
                <g id="zoomPlus">
                        <use xlink:href="#rim" fill="#404040">
                                <set attributeName="fill" to="#808080" begin="zoomplus.mouseover" end="zoomplus.mouseout"/>
                        </use>
                        <path d="M-4,0h8M0,-4v8" fill="none" stroke="white" stroke-width="1.5" pointer-events="none"/>
                </g>
                <g id="zoomMin">
                        <use xlink:href="#rim" fill="#404040">
                                <set attributeName="fill" to="#808080" begin="zoomminus.mouseover" end="zoomminus.mouseout"/>
                        </use>
                        <path d="M-4,0h8" fill="none" stroke="white" stroke-width="1.5" pointer-events="none"/>
                </g>
                <g id="dirArrow">
                        <path fill="none" stroke="white" stroke-width="1.5" d="M0,-3.0v7 M-2.5,-0.5L0,-3.0L2.5,-0.5"/>
                </g>
               <g id="resetDef">
                       <use xlink:href="#rim2" fill="#404040">
                               <set attributeName="fill" to="#808080" begin="reset.mouseover" end="reset.mouseout"/>
                       </use>
               </g>
        </defs>

<script type="text/javascript">
var viewWidth = 909;
var viewHeight = 310;
var sectionId = 'dynsection-0';
</script>
<script xlink:href="../../svgpan.js"/>
<svg id="graph" class="graph">
<g id="viewport">
<title>/home/travis/build/AliceO2Group/AliceO2/DataFormats/Parameters/src/GRPObject.cxx</title>
<!-- Node1 -->
<g id="node1" class="node"><title>Node1</title>
<polygon fill="#bfbfbf" stroke="black" points="614.403,-249 614.403,-301 744.403,-301 744.403,-249 614.403,-249"/>
<text text-anchor="start" x="622.403" y="-289" font-family="Helvetica,sans-Serif" font-size="10.00">/home/travis/build</text>
<text text-anchor="start" x="622.403" y="-278" font-family="Helvetica,sans-Serif" font-size="10.00">/AliceO2Group/AliceO2</text>
<text text-anchor="start" x="622.403" y="-267" font-family="Helvetica,sans-Serif" font-size="10.00">/DataFormats/Parameters</text>
<text text-anchor="middle" x="679.403" y="-256" font-family="Helvetica,sans-Serif" font-size="10.00">/src/GRPObject.cxx</text>
</g>
<!-- Node2 -->
<g id="node2" class="node"><title>Node2</title>
<g id="a_node2"><a xlink:href="../../de/d28/GRPObject_8h.html" target="_top" xlink:title="Header of the General Run Parameters object. ">
<polygon fill="none" stroke="black" points="267.403,-181 267.403,-211 391.403,-211 391.403,-181 267.403,-181"/>
<text text-anchor="start" x="275.403" y="-199" font-family="Helvetica,sans-Serif" font-size="10.00">DataFormatsParameters</text>
<text text-anchor="middle" x="329.403" y="-188" font-family="Helvetica,sans-Serif" font-size="10.00">/GRPObject.h</text>
</a>
</g>
</g>
<!-- Node1&#45;&gt;Node2 -->
<g id="edge1" class="edge"><title>Node1&#45;&gt;Node2</title>
<path fill="none" stroke="midnightblue" d="M614.391,-259.697C553.874,-246.383 463.845,-226.577 401.228,-212.801"/>
<polygon fill="midnightblue" stroke="midnightblue" points="401.941,-209.375 391.423,-210.644 400.437,-216.211 401.941,-209.375"/>
</g>
<!-- Node14 -->
<g id="node14" class="node"><title>Node14</title>
<polygon fill="none" stroke="#bfbfbf" points="645.403,-0.5 645.403,-19.5 689.403,-19.5 689.403,-0.5 645.403,-0.5"/>
<text text-anchor="middle" x="667.403" y="-7.5" font-family="Helvetica,sans-Serif" font-size="10.00">cmath</text>
</g>
<!-- Node1&#45;&gt;Node14 -->
<g id="edge18" class="edge"><title>Node1&#45;&gt;Node14</title>
<path fill="none" stroke="midnightblue" d="M678.253,-248.782C675.862,-196.395 670.405,-76.7901 668.276,-30.1361"/>
<polygon fill="midnightblue" stroke="midnightblue" points="671.763,-29.762 667.811,-19.9319 664.77,-30.0811 671.763,-29.762"/>
</g>
<!-- Node16 -->
<g id="node16" class="node"><title>Node16</title>
<g id="a_node16"><a xlink:href="../../d3/d9d/PhysicsConstants_8h.html" target="_top" xlink:title="Header to collect physics constants. ">
<polygon fill="none" stroke="black" points="707.903,-186.5 707.903,-205.5 900.903,-205.5 900.903,-186.5 707.903,-186.5"/>
<text text-anchor="middle" x="804.403" y="-193.5" font-family="Helvetica,sans-Serif" font-size="10.00">CommonConstants/PhysicsConstants.h</text>
</a>
</g>
</g>
<!-- Node1&#45;&gt;Node16 -->
<g id="edge19" class="edge"><title>Node1&#45;&gt;Node16</title>
<path fill="none" stroke="midnightblue" d="M720.333,-248.787C740.759,-236.205 764.688,-221.464 781.783,-210.934"/>
<polygon fill="midnightblue" stroke="midnightblue" points="783.832,-213.783 790.511,-205.558 780.161,-207.823 783.832,-213.783"/>
</g>
<!-- Node3 -->
<g id="node3" class="node"><title>Node3</title>
<polygon fill="none" stroke="#bfbfbf" points="595.403,-56.5 595.403,-75.5 651.403,-75.5 651.403,-56.5 595.403,-56.5"/>
<text text-anchor="middle" x="623.403" y="-63.5" font-family="Helvetica,sans-Serif" font-size="10.00">Rtypes.h</text>
</g>
<!-- Node2&#45;&gt;Node3 -->
<g id="edge2" class="edge"><title>Node2&#45;&gt;Node3</title>
<path fill="none" stroke="midnightblue" d="M391.511,-194.534C443.575,-191.359 517.79,-180.073 571.403,-144 592.884,-129.547 607.869,-102.95 616.061,-85.118"/>
<polygon fill="midnightblue" stroke="midnightblue" points="619.338,-86.3572 620.096,-75.7895 612.913,-83.5778 619.338,-86.3572"/>
</g>
<!-- Node4 -->
<g id="node4" class="node"><title>Node4</title>
<polygon fill="none" stroke="#bfbfbf" points="76.4032,-56.5 76.4032,-75.5 122.403,-75.5 122.403,-56.5 76.4032,-56.5"/>
<text text-anchor="middle" x="99.4032" y="-63.5" font-family="Helvetica,sans-Serif" font-size="10.00">cstdint</text>
</g>
<!-- Node2&#45;&gt;Node4 -->
<g id="edge3" class="edge"><title>Node2&#45;&gt;Node4</title>
<path fill="none" stroke="midnightblue" d="M267.215,-194.389C182.965,-192.091 39.2727,-182.467 6.40322,-144 -2.83596,-133.188 -1.15224,-124.049 6.40322,-112 19.4233,-91.2357 45.0393,-79.8173 66.0957,-73.6835"/>
<polygon fill="midnightblue" stroke="midnightblue" points="67.2113,-77.0092 75.9911,-71.0791 65.4295,-70.2397 67.2113,-77.0092"/>
</g>
<!-- Node5 -->
<g id="node5" class="node"><title>Node5</title>
<polygon fill="none" stroke="#bfbfbf" points="15.9032,-118.5 15.9032,-137.5 56.9032,-137.5 56.9032,-118.5 15.9032,-118.5"/>
<text text-anchor="middle" x="36.4032" y="-125.5" font-family="Helvetica,sans-Serif" font-size="10.00">ctime</text>
</g>
<!-- Node2&#45;&gt;Node5 -->
<g id="edge4" class="edge"><title>Node2&#45;&gt;Node5</title>
<path fill="none" stroke="midnightblue" d="M267.282,-188.108C212.937,-180.884 132.435,-167.267 65.4032,-144 63.7465,-143.425 62.0667,-142.77 60.3936,-142.062"/>
<polygon fill="midnightblue" stroke="midnightblue" points="61.6245,-138.772 51.0912,-137.632 58.6144,-145.092 61.6245,-138.772"/>
</g>
<!-- Node6 -->
<g id="node6" class="node"><title>Node6</title>
<g id="a_node6"><a xlink:href="../../d4/dc6/LHCConstants_8h.html" target="_top" xlink:title="Header to collect LHC related constants. ">
<polygon fill="none" stroke="black" points="74.4032,-118.5 74.4032,-137.5 252.403,-137.5 252.403,-118.5 74.4032,-118.5"/>
<text text-anchor="middle" x="163.403" y="-125.5" font-family="Helvetica,sans-Serif" font-size="10.00">CommonConstants/LHCConstants.h</text>
</a>
</g>
</g>
<!-- Node2&#45;&gt;Node6 -->
<g id="edge5" class="edge"><title>Node2&#45;&gt;Node6</title>
<path fill="none" stroke="midnightblue" d="M293.792,-180.841C264.306,-169.118 222.821,-152.624 194.619,-141.411"/>
<polygon fill="midnightblue" stroke="midnightblue" points="195.825,-138.124 185.239,-137.682 193.239,-144.629 195.825,-138.124"/>
</g>
<!-- Node7 -->
<g id="node7" class="node"><title>Node7</title>
<g id="a_node7"><a xlink:href="../../da/d58/Units_8h.html" target="_top" xlink:title="Header to collect definitions for different units. ">
<polygon fill="none" stroke="black" points="270.403,-118.5 270.403,-137.5 388.403,-137.5 388.403,-118.5 270.403,-118.5"/>
<text text-anchor="middle" x="329.403" y="-125.5" font-family="Helvetica,sans-Serif" font-size="10.00">CommonTypes/Units.h</text>
</a>
</g>
</g>
<!-- Node2&#45;&gt;Node7 -->
<g id="edge6" class="edge"><title>Node2&#45;&gt;Node7</title>
<path fill="none" stroke="midnightblue" d="M329.403,-180.679C329.403,-171.101 329.403,-158.394 329.403,-147.977"/>
<polygon fill="midnightblue" stroke="midnightblue" points="332.903,-147.828 329.403,-137.828 325.903,-147.828 332.903,-147.828"/>
</g>
<!-- Node8 -->
<g id="node8" class="node"><title>Node8</title>
<g id="a_node8"><a xlink:href="../../d6/d31/DetID_8h.html" target="_top" xlink:title="DetectorsCommonDataFormats\l/DetID.h">
<polygon fill="none" stroke="black" points="406.403,-113 406.403,-143 562.403,-143 562.403,-113 406.403,-113"/>
<text text-anchor="start" x="414.403" y="-131" font-family="Helvetica,sans-Serif" font-size="10.00">DetectorsCommonDataFormats</text>
<text text-anchor="middle" x="484.403" y="-120" font-family="Helvetica,sans-Serif" font-size="10.00">/DetID.h</text>
</a>
</g>
</g>
<!-- Node2&#45;&gt;Node8 -->
<g id="edge7" class="edge"><title>Node2&#45;&gt;Node8</title>
<path fill="none" stroke="midnightblue" d="M362.655,-180.841C385.923,-170.933 417.195,-157.618 442.218,-146.963"/>
<polygon fill="midnightblue" stroke="midnightblue" points="443.644,-150.16 451.473,-143.022 440.901,-143.719 443.644,-150.16"/>
</g>
<!-- Node8&#45;&gt;Node3 -->
<g id="edge8" class="edge"><title>Node8&#45;&gt;Node3</title>
<path fill="none" stroke="midnightblue" d="M516.993,-112.933C540.339,-102.855 571.513,-89.3986 594.08,-79.6575"/>
<polygon fill="midnightblue" stroke="midnightblue" points="595.686,-82.7766 603.48,-75.6 592.912,-76.3498 595.686,-82.7766"/>
</g>
<!-- Node8&#45;&gt;Node4 -->
<g id="edge12" class="edge"><title>Node8&#45;&gt;Node4</title>
<path fill="none" stroke="midnightblue" d="M406.161,-113.431C403.205,-112.943 400.278,-112.465 397.403,-112 301.525,-96.4972 188.01,-79.817 132.845,-71.8177"/>
<polygon fill="midnightblue" stroke="midnightblue" points="133.011,-68.3053 122.613,-70.3365 132.008,-75.2331 133.011,-68.3053"/>
</g>
<!-- Node9 -->
<g id="node9" class="node"><title>Node9</title>
<polygon fill="none" stroke="#bfbfbf" points="380.403,-0.5 380.403,-19.5 418.403,-19.5 418.403,-0.5 380.403,-0.5"/>
<text text-anchor="middle" x="399.403" y="-7.5" font-family="Helvetica,sans-Serif" font-size="10.00">array</text>
</g>
<!-- Node8&#45;&gt;Node9 -->
<g id="edge9" class="edge"><title>Node8&#45;&gt;Node9</title>
<path fill="none" stroke="midnightblue" d="M459.237,-112.984C445.348,-104.062 428.848,-91.312 418.403,-76 408.983,-62.1902 404.166,-43.6689 401.744,-29.9301"/>
<polygon fill="midnightblue" stroke="midnightblue" points="405.159,-29.0987 400.226,-19.7227 398.235,-30.129 405.159,-29.0987"/>
</g>
<!-- Node10 -->
<g id="node10" class="node"><title>Node10</title>
<polygon fill="none" stroke="#bfbfbf" points="535.903,-56.5 535.903,-75.5 576.903,-75.5 576.903,-56.5 535.903,-56.5"/>
<text text-anchor="middle" x="556.403" y="-63.5" font-family="Helvetica,sans-Serif" font-size="10.00">bitset</text>
</g>
<!-- Node8&#45;&gt;Node10 -->
<g id="edge10" class="edge"><title>Node8&#45;&gt;Node10</title>
<path fill="none" stroke="midnightblue" d="M501.466,-112.781C512.468,-103.613 526.768,-91.6957 538.021,-82.3186"/>
<polygon fill="midnightblue" stroke="midnightblue" points="540.485,-84.8212 545.927,-75.7305 536.004,-79.4436 540.485,-84.8212"/>
</g>
<!-- Node11 -->
<g id="node11" class="node"><title>Node11</title>
<polygon fill="none" stroke="#bfbfbf" points="241.903,-56.5 241.903,-75.5 290.903,-75.5 290.903,-56.5 241.903,-56.5"/>
<text text-anchor="middle" x="266.403" y="-63.5" font-family="Helvetica,sans-Serif" font-size="10.00">cassert</text>
</g>
<!-- Node8&#45;&gt;Node11 -->
<g id="edge11" class="edge"><title>Node8&#45;&gt;Node11</title>
<path fill="none" stroke="midnightblue" d="M433.292,-112.933C392.515,-101.71 336.512,-86.2959 300.884,-76.4902"/>
<polygon fill="midnightblue" stroke="midnightblue" points="301.534,-73.0389 290.964,-73.7598 299.676,-79.788 301.534,-73.0389"/>
</g>
<!-- Node12 -->
<g id="node12" class="node"><title>Node12</title>
<polygon fill="none" stroke="#bfbfbf" points="309.403,-56.5 309.403,-75.5 371.403,-75.5 371.403,-56.5 309.403,-56.5"/>
<text text-anchor="middle" x="340.403" y="-63.5" font-family="Helvetica,sans-Serif" font-size="10.00">type_traits</text>
</g>
<!-- Node8&#45;&gt;Node12 -->
<g id="edge13" class="edge"><title>Node8&#45;&gt;Node12</title>
<path fill="none" stroke="midnightblue" d="M450.642,-112.933C426.347,-102.81 393.87,-89.2779 370.467,-79.5267"/>
<polygon fill="midnightblue" stroke="midnightblue" points="371.62,-76.2155 361.043,-75.6 368.928,-82.677 371.62,-76.2155"/>
</g>
<!-- Node13 -->
<g id="node13" class="node"><title>Node13</title>
<g id="a_node13"><a xlink:href="../../d9/ded/Utils_8h.html" target="_top" xlink:title="General auxilliary methods. ">
<polygon fill="none" stroke="black" points="427.403,-56.5 427.403,-75.5 517.403,-75.5 517.403,-56.5 427.403,-56.5"/>
<text text-anchor="middle" x="472.403" y="-63.5" font-family="Helvetica,sans-Serif" font-size="10.00">MathUtils/Utils.h</text>
</a>
</g>
</g>
<!-- Node8&#45;&gt;Node13 -->
<g id="edge14" class="edge"><title>Node8&#45;&gt;Node13</title>
<path fill="none" stroke="midnightblue" d="M481.559,-112.781C479.941,-104.691 477.896,-94.4617 476.148,-85.725"/>
<polygon fill="midnightblue" stroke="midnightblue" points="479.543,-84.8499 474.149,-75.7305 472.679,-86.2228 479.543,-84.8499"/>
</g>
<!-- Node13&#45;&gt;Node9 -->
<g id="edge15" class="edge"><title>Node13&#45;&gt;Node9</title>
<path fill="none" stroke="midnightblue" d="M460.675,-56.324C449.566,-48.1066 432.661,-35.6017 419.42,-25.8069"/>
<polygon fill="midnightblue" stroke="midnightblue" points="421.466,-22.9671 411.345,-19.8339 417.303,-28.5948 421.466,-22.9671"/>
</g>
<!-- Node13&#45;&gt;Node14 -->
<g id="edge16" class="edge"><title>Node13&#45;&gt;Node14</title>
<path fill="none" stroke="midnightblue" d="M503.302,-56.4435C539.426,-46.44 598.914,-29.9661 635.475,-19.8415"/>
<polygon fill="midnightblue" stroke="midnightblue" points="636.438,-23.2068 645.141,-17.1649 634.57,-16.4607 636.438,-23.2068"/>
</g>
<!-- Node15 -->
<g id="node15" class="node"><title>Node15</title>
<g id="a_node15"><a xlink:href="../../d6/d84/MathConstants_8h.html" target="_top" xlink:title="useful math constants ">
<polygon fill="none" stroke="black" points="436.903,-0.5 436.903,-19.5 615.903,-19.5 615.903,-0.5 436.903,-0.5"/>
<text text-anchor="middle" x="526.403" y="-7.5" font-family="Helvetica,sans-Serif" font-size="10.00">CommonConstants/MathConstants.h</text>
</a>
</g>
</g>
<!-- Node13&#45;&gt;Node15 -->
<g id="edge17" class="edge"><title>Node13&#45;&gt;Node15</title>
<path fill="none" stroke="midnightblue" d="M481.32,-56.083C489.184,-48.2195 500.834,-36.5688 510.322,-27.0813"/>
<polygon fill="midnightblue" stroke="midnightblue" points="513.056,-29.2971 517.652,-19.7511 508.106,-24.3473 513.056,-29.2971"/>
</g>
</g>
</svg>
        <g id="navigator" transform="translate(0 0)" fill="#404254">
                <rect fill="#f2f5e9" fill-opacity="0.5" stroke="#606060" stroke-width=".5" x="0" y="0" width="60" height="60"/>
                <use id="zoomplus" xlink:href="#zoomPlus" x="17" y="9" onmousedown="handleZoom(evt,'in')"/>
                <use id="zoomminus" xlink:href="#zoomMin" x="42" y="9" onmousedown="handleZoom(evt,'out')"/>
                <use id="reset" xlink:href="#resetDef" x="30" y="36" onmousedown="handleReset()"/>
                <g id="arrowUp" xlink:href="#dirArrow" transform="translate(30 24)" onmousedown="handlePan(0,-1)">
                  <use xlink:href="#rim" fill="#404040">
                        <set attributeName="fill" to="#808080" begin="arrowUp.mouseover" end="arrowUp.mouseout"/>
                  </use>
                  <path fill="none" stroke="white" stroke-width="1.5" d="M0,-3.0v7 M-2.5,-0.5L0,-3.0L2.5,-0.5"/>
                </g>
                <g id="arrowRight" xlink:href="#dirArrow" transform="rotate(90) translate(36 -43)" onmousedown="handlePan(1,0)">
                  <use xlink:href="#rim" fill="#404040">
                        <set attributeName="fill" to="#808080" begin="arrowRight.mouseover" end="arrowRight.mouseout"/>
                  </use>
                  <path fill="none" stroke="white" stroke-width="1.5" d="M0,-3.0v7 M-2.5,-0.5L0,-3.0L2.5,-0.5"/>
                </g>
                <g id="arrowDown" xlink:href="#dirArrow" transform="rotate(180) translate(-30 -48)" onmousedown="handlePan(0,1)">
                  <use xlink:href="#rim" fill="#404040">
                        <set attributeName="fill" to="#808080" begin="arrowDown.mouseover" end="arrowDown.mouseout"/>
                  </use>
                  <path fill="none" stroke="white" stroke-width="1.5" d="M0,-3.0v7 M-2.5,-0.5L0,-3.0L2.5,-0.5"/>
                </g>
                <g id="arrowLeft" xlink:href="#dirArrow" transform="rotate(270) translate(-36 17)" onmousedown="handlePan(-1,0)">
                  <use xlink:href="#rim" fill="#404040">
                        <set attributeName="fill" to="#808080" begin="arrowLeft.mouseover" end="arrowLeft.mouseout"/>
                  </use>
                  <path fill="none" stroke="white" stroke-width="1.5" d="M0,-3.0v7 M-2.5,-0.5L0,-3.0L2.5,-0.5"/>
                </g>
        </g>
        <svg viewBox="0 0 15 15" width="100%" height="30px" preserveAspectRatio="xMaxYMin meet">
         <g id="arrow_out" transform="scale(0.3 0.3)">
          <a xlink:href="GRPObject_8cxx__incl_org.svg" target="_base">
           <rect id="button" ry="5" rx="5" y="6" x="6" height="38" width="38"
                fill="#f2f5e9" fill-opacity="0.5" stroke="#606060" stroke-width="1.0"/>
           <path id="arrow"
             d="M 11.500037,31.436501 C 11.940474,20.09759 22.043105,11.32322 32.158766,21.979434 L 37.068811,17.246167 C 37.068811,17.246167 37.088388,32 37.088388,32 L 22.160133,31.978069 C 22.160133,31.978069 26.997745,27.140456 26.997745,27.140456 C 18.528582,18.264221 13.291696,25.230495 11.500037,31.436501 z"
             style="fill:#404040;"/>
          </a>
         </g>
        </svg>
</svg>
