<?xml version="1.0" encoding="UTF-8" standalone="no"?>
<!DOCTYPE svg PUBLIC "-//W3C//DTD SVG 1.1//EN"
 "http://www.w3.org/Graphics/SVG/1.1/DTD/svg11.dtd">
<!-- Generated by graphviz version 2.36.0 (20140111.2315)
 -->
<!-- Title: /home/travis/build/AliceO2Group/AliceO2/DataFormats/Detectors/TPC/include/DataFormatsTPC/Helpers.h Pages: 1 -->
<svg width="698pt" height="162pt"
 viewBox="0.00 0.00 698.00 162.00" xmlns="http://www.w3.org/2000/svg" xmlns:xlink="http://www.w3.org/1999/xlink">
<g id="graph0" class="graph" transform="scale(1 1) rotate(0) translate(4 158)">
<title>/home/travis/build/AliceO2Group/AliceO2/DataFormats/Detectors/TPC/include/DataFormatsTPC/Helpers.h</title>
<!-- Node1 -->
<g id="node1" class="node"><title>Node1</title>
<polygon fill="#bfbfbf" stroke="black" points="235,-90.5 235,-153.5 389,-153.5 389,-90.5 235,-90.5"/>
<text text-anchor="start" x="243" y="-141.5" font-family="Helvetica,sans-Serif" font-size="10.00">/home/travis/build</text>
<text text-anchor="start" x="243" y="-130.5" font-family="Helvetica,sans-Serif" font-size="10.00">/AliceO2Group/AliceO2</text>
<text text-anchor="start" x="243" y="-119.5" font-family="Helvetica,sans-Serif" font-size="10.00">/DataFormats/Detectors</text>
<text text-anchor="start" x="243" y="-108.5" font-family="Helvetica,sans-Serif" font-size="10.00">/TPC/include/DataFormatsTPC</text>
<text text-anchor="middle" x="312" y="-97.5" font-family="Helvetica,sans-Serif" font-size="10.00">/Helpers.h</text>
</g>
<!-- Node2 -->
<g id="node2" class="node"><title>Node2</title>
<g id="a_node2"><a xlink:href="../../dc/def/Helpers_8cxx.html" target="_top" xlink:title="/home/travis/build\l/AliceO2Group/AliceO2\l/DataFormats/Detectors\l/TPC/src/Helpers.cxx">
<polygon fill="none" stroke="black" points="0,-1 0,-53 122,-53 122,-1 0,-1"/>
<text text-anchor="start" x="8" y="-41" font-family="Helvetica,sans-Serif" font-size="10.00">/home/travis/build</text>
<text text-anchor="start" x="8" y="-30" font-family="Helvetica,sans-Serif" font-size="10.00">/AliceO2Group/AliceO2</text>
<text text-anchor="start" x="8" y="-19" font-family="Helvetica,sans-Serif" font-size="10.00">/DataFormats/Detectors</text>
<text text-anchor="middle" x="61" y="-8" font-family="Helvetica,sans-Serif" font-size="10.00">/TPC/src/Helpers.cxx</text>
</a>
</g>
</g>
<!-- Node1&#45;&gt;Node2 -->
<g id="edge1" class="edge"><title>Node1&#45;&gt;Node2</title>
<path fill="none" stroke="midnightblue" d="M225.363,-88.9521C195.464,-77.8863 161.759,-65.4052 131,-54 128.083,-52.9183 125.097,-51.8109 122.082,-50.6921"/>
<polygon fill="midnightblue" stroke="midnightblue" points="224.335,-92.3036 234.928,-92.492 226.764,-85.7387 224.335,-92.3036"/>
</g>
<!-- Node3 -->
<g id="node3" class="node"><title>Node3</title>
<g id="a_node3"><a xlink:href="../../d7/d3d/convertClusterToClusterHardware_8C.html" target="_top" xlink:title="/home/travis/build\l/AliceO2Group/AliceO2\l/macro/convertClusterToCluster\lHardware.C">
<polygon fill="none" stroke="black" points="140,-1 140,-53 296,-53 296,-1 140,-1"/>
<text text-anchor="start" x="148" y="-41" font-family="Helvetica,sans-Serif" font-size="10.00">/home/travis/build</text>
<text text-anchor="start" x="148" y="-30" font-family="Helvetica,sans-Serif" font-size="10.00">/AliceO2Group/AliceO2</text>
<text text-anchor="start" x="148" y="-19" font-family="Helvetica,sans-Serif" font-size="10.00">/macro/convertClusterToCluster</text>
<text text-anchor="middle" x="218" y="-8" font-family="Helvetica,sans-Serif" font-size="10.00">Hardware.C</text>
</a>
</g>
</g>
<!-- Node1&#45;&gt;Node3 -->
<g id="edge2" class="edge"><title>Node1&#45;&gt;Node3</title>
<path fill="none" stroke="midnightblue" d="M273.659,-83.0668C263.455,-72.9716 252.687,-62.3183 243.37,-53.1001"/>
<polygon fill="midnightblue" stroke="midnightblue" points="271.39,-85.7455 280.96,-90.2906 276.313,-80.7693 271.39,-85.7455"/>
</g>
<!-- Node4 -->
<g id="node4" class="node"><title>Node4</title>
<g id="a_node4"><a xlink:href="../../d1/df0/runCATrackingClusterNative_8C.html" target="_top" xlink:title="/home/travis/build\l/AliceO2Group/AliceO2\l/macro/runCATrackingClusterNative.C">
<polygon fill="none" stroke="black" points="314.5,-6.5 314.5,-47.5 499.5,-47.5 499.5,-6.5 314.5,-6.5"/>
<text text-anchor="start" x="322.5" y="-35.5" font-family="Helvetica,sans-Serif" font-size="10.00">/home/travis/build</text>
<text text-anchor="start" x="322.5" y="-24.5" font-family="Helvetica,sans-Serif" font-size="10.00">/AliceO2Group/AliceO2</text>
<text text-anchor="middle" x="407" y="-13.5" font-family="Helvetica,sans-Serif" font-size="10.00">/macro/runCATrackingClusterNative.C</text>
</a>
</g>
</g>
<!-- Node1&#45;&gt;Node4 -->
<g id="edge3" class="edge"><title>Node1&#45;&gt;Node4</title>
<path fill="none" stroke="midnightblue" d="M350.599,-83.2138C363.09,-70.9852 376.434,-57.9229 387.004,-47.5747"/>
<polygon fill="midnightblue" stroke="midnightblue" points="348.067,-80.794 343.37,-90.2906 352.964,-85.7962 348.067,-80.794"/>
</g>
<!-- Node5 -->
<g id="node5" class="node"><title>Node5</title>
<g id="a_node5"><a xlink:href="../../dc/daf/runHardwareClusterDecoderRoot_8C.html" target="_top" xlink:title="/home/travis/build\l/AliceO2Group/AliceO2\l/macro/runHardwareClusterDecoder\lRoot.C">
<polygon fill="none" stroke="black" points="517.5,-1 517.5,-53 690.5,-53 690.5,-1 517.5,-1"/>
<text text-anchor="start" x="525.5" y="-41" font-family="Helvetica,sans-Serif" font-size="10.00">/home/travis/build</text>
<text text-anchor="start" x="525.5" y="-30" font-family="Helvetica,sans-Serif" font-size="10.00">/AliceO2Group/AliceO2</text>
<text text-anchor="start" x="525.5" y="-19" font-family="Helvetica,sans-Serif" font-size="10.00">/macro/runHardwareClusterDecoder</text>
<text text-anchor="middle" x="604" y="-8" font-family="Helvetica,sans-Serif" font-size="10.00">Root.C</text>
</a>
</g>
</g>
<!-- Node1&#45;&gt;Node5 -->
<g id="edge4" class="edge"><title>Node1&#45;&gt;Node5</title>
<path fill="none" stroke="midnightblue" d="M398.88,-93.3295C439.037,-80.5397 486.373,-65.4633 525.449,-53.0181"/>
<polygon fill="midnightblue" stroke="midnightblue" points="397.568,-90.074 389.102,-96.4437 399.692,-96.7438 397.568,-90.074"/>
</g>
</g>
</svg>
