<?xml version="1.0" encoding="UTF-8" standalone="no"?>
<!DOCTYPE svg PUBLIC "-//W3C//DTD SVG 1.1//EN"
 "http://www.w3.org/Graphics/SVG/1.1/DTD/svg11.dtd">
<!-- Generated by graphviz version 2.36.0 (20140111.2315)
 -->
<!-- Title: /home/travis/build/AliceO2Group/AliceO2/DataFormats/Detectors/TPC/include/DataFormatsTPC/ClusterNative.h Pages: 1 -->
<svg width="2480pt" height="440pt"
 viewBox="0.00 0.00 2480.00 440.00" xmlns="http://www.w3.org/2000/svg" xmlns:xlink="http://www.w3.org/1999/xlink">
<g id="graph0" class="graph" transform="scale(1 1) rotate(0) translate(4 436)">
<title>/home/travis/build/AliceO2Group/AliceO2/DataFormats/Detectors/TPC/include/DataFormatsTPC/ClusterNative.h</title>
<!-- Node1 -->
<g id="node1" class="node"><title>Node1</title>
<polygon fill="#bfbfbf" stroke="black" points="1794,-368.5 1794,-431.5 1948,-431.5 1948,-368.5 1794,-368.5"/>
<text text-anchor="start" x="1802" y="-419.5" font-family="Helvetica,sans-Serif" font-size="10.00">/home/travis/build</text>
<text text-anchor="start" x="1802" y="-408.5" font-family="Helvetica,sans-Serif" font-size="10.00">/AliceO2Group/AliceO2</text>
<text text-anchor="start" x="1802" y="-397.5" font-family="Helvetica,sans-Serif" font-size="10.00">/DataFormats/Detectors</text>
<text text-anchor="start" x="1802" y="-386.5" font-family="Helvetica,sans-Serif" font-size="10.00">/TPC/include/DataFormatsTPC</text>
<text text-anchor="middle" x="1871" y="-375.5" font-family="Helvetica,sans-Serif" font-size="10.00">/ClusterNative.h</text>
</g>
<!-- Node2 -->
<g id="node2" class="node"><title>Node2</title>
<g id="a_node2"><a xlink:href="../../db/df1/Helpers_8h.html" target="_top" xlink:title="Helper class for memory management of TPC Data Formats, external from the actual data type classes to...">
<polygon fill="none" stroke="black" points="187,-168.5 187,-231.5 341,-231.5 341,-168.5 187,-168.5"/>
<text text-anchor="start" x="195" y="-219.5" font-family="Helvetica,sans-Serif" font-size="10.00">/home/travis/build</text>
<text text-anchor="start" x="195" y="-208.5" font-family="Helvetica,sans-Serif" font-size="10.00">/AliceO2Group/AliceO2</text>
<text text-anchor="start" x="195" y="-197.5" font-family="Helvetica,sans-Serif" font-size="10.00">/DataFormats/Detectors</text>
<text text-anchor="start" x="195" y="-186.5" font-family="Helvetica,sans-Serif" font-size="10.00">/TPC/include/DataFormatsTPC</text>
<text text-anchor="middle" x="264" y="-175.5" font-family="Helvetica,sans-Serif" font-size="10.00">/Helpers.h</text>
</a>
</g>
</g>
<!-- Node1&#45;&gt;Node2 -->
<g id="edge1" class="edge"><title>Node1&#45;&gt;Node2</title>
<path fill="none" stroke="midnightblue" d="M1783.47,-399.621C1479.31,-401.167 479.963,-400.904 355,-332 315.473,-310.205 289.389,-263.056 275.653,-231.675"/>
<polygon fill="midnightblue" stroke="midnightblue" points="1783.58,-403.121 1793.56,-399.568 1783.55,-396.121 1783.58,-403.121"/>
</g>
<!-- Node5 -->
<g id="node5" class="node"><title>Node5</title>
<g id="a_node5"><a xlink:href="../../d1/df0/runCATrackingClusterNative_8C.html" target="_top" xlink:title="/home/travis/build\l/AliceO2Group/AliceO2\l/macro/runCATrackingClusterNative.C">
<polygon fill="none" stroke="black" points="314.5,-84.5 314.5,-125.5 499.5,-125.5 499.5,-84.5 314.5,-84.5"/>
<text text-anchor="start" x="322.5" y="-113.5" font-family="Helvetica,sans-Serif" font-size="10.00">/home/travis/build</text>
<text text-anchor="start" x="322.5" y="-102.5" font-family="Helvetica,sans-Serif" font-size="10.00">/AliceO2Group/AliceO2</text>
<text text-anchor="middle" x="407" y="-91.5" font-family="Helvetica,sans-Serif" font-size="10.00">/macro/runCATrackingClusterNative.C</text>
</a>
</g>
</g>
<!-- Node1&#45;&gt;Node5 -->
<g id="edge35" class="edge"><title>Node1&#45;&gt;Node5</title>
<path fill="none" stroke="midnightblue" d="M1783.87,-396.698C1551.79,-390.124 922.448,-369.301 718,-332 571.415,-305.256 486.261,-352.052 398,-232 375.007,-200.725 388.111,-152.464 398.389,-125.656"/>
<polygon fill="midnightblue" stroke="midnightblue" points="1783.86,-400.199 1793.96,-396.981 1784.06,-393.201 1783.86,-400.199"/>
</g>
<!-- Node6 -->
<g id="node6" class="node"><title>Node6</title>
<g id="a_node6"><a xlink:href="../../dc/daf/runHardwareClusterDecoderRoot_8C.html" target="_top" xlink:title="/home/travis/build\l/AliceO2Group/AliceO2\l/macro/runHardwareClusterDecoder\lRoot.C">
<polygon fill="none" stroke="black" points="1770.5,-79 1770.5,-131 1943.5,-131 1943.5,-79 1770.5,-79"/>
<text text-anchor="start" x="1778.5" y="-119" font-family="Helvetica,sans-Serif" font-size="10.00">/home/travis/build</text>
<text text-anchor="start" x="1778.5" y="-108" font-family="Helvetica,sans-Serif" font-size="10.00">/AliceO2Group/AliceO2</text>
<text text-anchor="start" x="1778.5" y="-97" font-family="Helvetica,sans-Serif" font-size="10.00">/macro/runHardwareClusterDecoder</text>
<text text-anchor="middle" x="1857" y="-86" font-family="Helvetica,sans-Serif" font-size="10.00">Root.C</text>
</a>
</g>
</g>
<!-- Node1&#45;&gt;Node6 -->
<g id="edge36" class="edge"><title>Node1&#45;&gt;Node6</title>
<path fill="none" stroke="midnightblue" d="M1869.06,-358.37C1866.12,-296.943 1860.64,-182.218 1858.21,-131.376"/>
<polygon fill="midnightblue" stroke="midnightblue" points="1865.57,-358.652 1869.54,-368.473 1872.56,-358.317 1865.57,-358.652"/>
</g>
<!-- Node7 -->
<g id="node7" class="node"><title>Node7</title>
<g id="a_node7"><a xlink:href="../../d5/dc9/TrackTPC_8h.html" target="_top" xlink:title="/home/travis/build\l/AliceO2Group/AliceO2\l/DataFormats/Detectors\l/TPC/include/DataFormatsTPC\l/TrackTPC.h">
<polygon fill="none" stroke="black" points="1021,-268.5 1021,-331.5 1175,-331.5 1175,-268.5 1021,-268.5"/>
<text text-anchor="start" x="1029" y="-319.5" font-family="Helvetica,sans-Serif" font-size="10.00">/home/travis/build</text>
<text text-anchor="start" x="1029" y="-308.5" font-family="Helvetica,sans-Serif" font-size="10.00">/AliceO2Group/AliceO2</text>
<text text-anchor="start" x="1029" y="-297.5" font-family="Helvetica,sans-Serif" font-size="10.00">/DataFormats/Detectors</text>
<text text-anchor="start" x="1029" y="-286.5" font-family="Helvetica,sans-Serif" font-size="10.00">/TPC/include/DataFormatsTPC</text>
<text text-anchor="middle" x="1098" y="-275.5" font-family="Helvetica,sans-Serif" font-size="10.00">/TrackTPC.h</text>
</a>
</g>
</g>
<!-- Node1&#45;&gt;Node7 -->
<g id="edge6" class="edge"><title>Node1&#45;&gt;Node7</title>
<path fill="none" stroke="midnightblue" d="M1783.46,-387.901C1631.14,-368.591 1319.82,-329.122 1175.12,-310.777"/>
<polygon fill="midnightblue" stroke="midnightblue" points="1783.34,-391.414 1793.7,-389.2 1784.22,-384.47 1783.34,-391.414"/>
</g>
<!-- Node12 -->
<g id="node12" class="node"><title>Node12</title>
<g id="a_node12"><a xlink:href="../../df/d30/TPCCATracking_8h.html" target="_top" xlink:title="Decoder to convert TPC ClusterHardware to ClusterNative. ">
<polygon fill="none" stroke="black" points="435,-168.5 435,-231.5 585,-231.5 585,-168.5 435,-168.5"/>
<text text-anchor="start" x="443" y="-219.5" font-family="Helvetica,sans-Serif" font-size="10.00">/home/travis/build</text>
<text text-anchor="start" x="443" y="-208.5" font-family="Helvetica,sans-Serif" font-size="10.00">/AliceO2Group/AliceO2</text>
<text text-anchor="start" x="443" y="-197.5" font-family="Helvetica,sans-Serif" font-size="10.00">/Detectors/TPC/reconstruction</text>
<text text-anchor="start" x="443" y="-186.5" font-family="Helvetica,sans-Serif" font-size="10.00">/include/TPCReconstruction</text>
<text text-anchor="middle" x="510" y="-175.5" font-family="Helvetica,sans-Serif" font-size="10.00">/TPCCATracking.h</text>
</a>
</g>
</g>
<!-- Node1&#45;&gt;Node12 -->
<g id="edge32" class="edge"><title>Node1&#45;&gt;Node12</title>
<path fill="none" stroke="midnightblue" d="M1783.82,-396.717C1628.03,-391.636 1291.96,-376.126 1012,-332 823.309,-302.259 776.814,-287.388 594,-232 591.173,-231.144 588.304,-230.244 585.413,-229.311"/>
<polygon fill="midnightblue" stroke="midnightblue" points="1783.71,-400.215 1793.82,-397.037 1783.93,-393.219 1783.71,-400.215"/>
</g>
<!-- Node22 -->
<g id="node22" class="node"><title>Node22</title>
<g id="a_node22"><a xlink:href="../../da/d8a/ClusterNative_8cxx.html" target="_top" xlink:title="Unit test for the TPC ClusterNative data struct. ">
<polygon fill="none" stroke="black" points="2330.5,-274 2330.5,-326 2471.5,-326 2471.5,-274 2330.5,-274"/>
<text text-anchor="start" x="2338.5" y="-314" font-family="Helvetica,sans-Serif" font-size="10.00">/home/travis/build</text>
<text text-anchor="start" x="2338.5" y="-303" font-family="Helvetica,sans-Serif" font-size="10.00">/AliceO2Group/AliceO2</text>
<text text-anchor="start" x="2338.5" y="-292" font-family="Helvetica,sans-Serif" font-size="10.00">/DataFormats/Detectors</text>
<text text-anchor="middle" x="2401" y="-281" font-family="Helvetica,sans-Serif" font-size="10.00">/TPC/test/ClusterNative.cxx</text>
</a>
</g>
</g>
<!-- Node1&#45;&gt;Node22 -->
<g id="edge24" class="edge"><title>Node1&#45;&gt;Node22</title>
<path fill="none" stroke="midnightblue" d="M1958.53,-391.053C2049.02,-381.624 2193.9,-363.123 2316,-332 2322.7,-330.293 2329.6,-328.257 2336.45,-326.055"/>
<polygon fill="midnightblue" stroke="midnightblue" points="1957.9,-387.599 1948.31,-392.103 1958.62,-394.562 1957.9,-387.599"/>
</g>
<!-- Node23 -->
<g id="node23" class="node"><title>Node23</title>
<g id="a_node23"><a xlink:href="../../db/d19/DigitalCurrentClusterIntegrator_8h.html" target="_top" xlink:title="/home/travis/build\l/AliceO2Group/AliceO2\l/Detectors/TPC/reconstruction\l/include/TPCReconstruction\l/DigitalCurrentClusterIntegrator.h">
<polygon fill="none" stroke="black" points="1918.5,-268.5 1918.5,-331.5 2079.5,-331.5 2079.5,-268.5 1918.5,-268.5"/>
<text text-anchor="start" x="1926.5" y="-319.5" font-family="Helvetica,sans-Serif" font-size="10.00">/home/travis/build</text>
<text text-anchor="start" x="1926.5" y="-308.5" font-family="Helvetica,sans-Serif" font-size="10.00">/AliceO2Group/AliceO2</text>
<text text-anchor="start" x="1926.5" y="-297.5" font-family="Helvetica,sans-Serif" font-size="10.00">/Detectors/TPC/reconstruction</text>
<text text-anchor="start" x="1926.5" y="-286.5" font-family="Helvetica,sans-Serif" font-size="10.00">/include/TPCReconstruction</text>
<text text-anchor="middle" x="1999" y="-275.5" font-family="Helvetica,sans-Serif" font-size="10.00">/DigitalCurrentClusterIntegrator.h</text>
</a>
</g>
</g>
<!-- Node1&#45;&gt;Node23 -->
<g id="edge25" class="edge"><title>Node1&#45;&gt;Node23</title>
<path fill="none" stroke="midnightblue" d="M1919.18,-362.114C1932.3,-352.065 1946.38,-341.29 1958.99,-331.63"/>
<polygon fill="midnightblue" stroke="midnightblue" points="1916.96,-359.403 1911.15,-368.261 1921.22,-364.961 1916.96,-359.403"/>
</g>
<!-- Node24 -->
<g id="node24" class="node"><title>Node24</title>
<g id="a_node24"><a xlink:href="../../d2/d41/HardwareClusterDecoder_8h.html" target="_top" xlink:title="/home/travis/build\l/AliceO2Group/AliceO2\l/Detectors/TPC/reconstruction\l/include/TPCReconstruction\l/HardwareClusterDecoder.h">
<polygon fill="none" stroke="black" points="1880,-168.5 1880,-231.5 2030,-231.5 2030,-168.5 1880,-168.5"/>
<text text-anchor="start" x="1888" y="-219.5" font-family="Helvetica,sans-Serif" font-size="10.00">/home/travis/build</text>
<text text-anchor="start" x="1888" y="-208.5" font-family="Helvetica,sans-Serif" font-size="10.00">/AliceO2Group/AliceO2</text>
<text text-anchor="start" x="1888" y="-197.5" font-family="Helvetica,sans-Serif" font-size="10.00">/Detectors/TPC/reconstruction</text>
<text text-anchor="start" x="1888" y="-186.5" font-family="Helvetica,sans-Serif" font-size="10.00">/include/TPCReconstruction</text>
<text text-anchor="middle" x="1955" y="-175.5" font-family="Helvetica,sans-Serif" font-size="10.00">/HardwareClusterDecoder.h</text>
</a>
</g>
</g>
<!-- Node1&#45;&gt;Node24 -->
<g id="edge31" class="edge"><title>Node1&#45;&gt;Node24</title>
<path fill="none" stroke="midnightblue" d="M1879.27,-358.276C1885.5,-331.783 1895.32,-296.912 1909,-268 1914.91,-255.501 1923.04,-242.753 1930.82,-231.779"/>
<polygon fill="midnightblue" stroke="midnightblue" points="1875.78,-357.823 1876.98,-368.35 1882.61,-359.375 1875.78,-357.823"/>
</g>
<!-- Node25 -->
<g id="node25" class="node"><title>Node25</title>
<g id="a_node25"><a xlink:href="../../d1/dfd/runHardwareClusterDecoderRaw_8C.html" target="_top" xlink:title="/home/travis/build\l/AliceO2Group/AliceO2\l/Detectors/TPC/reconstruction\l/macro/runHardwareClusterDecoderRaw.C">
<polygon fill="none" stroke="black" points="1982,-79 1982,-131 2186,-131 2186,-79 1982,-79"/>
<text text-anchor="start" x="1990" y="-119" font-family="Helvetica,sans-Serif" font-size="10.00">/home/travis/build</text>
<text text-anchor="start" x="1990" y="-108" font-family="Helvetica,sans-Serif" font-size="10.00">/AliceO2Group/AliceO2</text>
<text text-anchor="start" x="1990" y="-97" font-family="Helvetica,sans-Serif" font-size="10.00">/Detectors/TPC/reconstruction</text>
<text text-anchor="middle" x="2084" y="-86" font-family="Helvetica,sans-Serif" font-size="10.00">/macro/runHardwareClusterDecoderRaw.C</text>
</a>
</g>
</g>
<!-- Node1&#45;&gt;Node25 -->
<g id="edge33" class="edge"><title>Node1&#45;&gt;Node25</title>
<path fill="none" stroke="midnightblue" d="M1958.48,-389.574C2050.21,-374.303 2188.7,-334.603 2245,-232 2258.68,-207.063 2261.1,-191.45 2245,-168 2231.01,-147.628 2209.32,-133.947 2186.34,-124.761"/>
<polygon fill="midnightblue" stroke="midnightblue" points="1957.69,-386.155 1948.37,-391.19 1958.8,-393.068 1957.69,-386.155"/>
</g>
<!-- Node26 -->
<g id="node26" class="node"><title>Node26</title>
<g id="a_node26"><a xlink:href="../../d4/d7c/HardwareClusterDecoder_8cxx.html" target="_top" xlink:title="/home/travis/build\l/AliceO2Group/AliceO2\l/Detectors/TPC/reconstruction\l/src/HardwareClusterDecoder.cxx">
<polygon fill="none" stroke="black" points="2214.5,-79 2214.5,-131 2379.5,-131 2379.5,-79 2214.5,-79"/>
<text text-anchor="start" x="2222.5" y="-119" font-family="Helvetica,sans-Serif" font-size="10.00">/home/travis/build</text>
<text text-anchor="start" x="2222.5" y="-108" font-family="Helvetica,sans-Serif" font-size="10.00">/AliceO2Group/AliceO2</text>
<text text-anchor="start" x="2222.5" y="-97" font-family="Helvetica,sans-Serif" font-size="10.00">/Detectors/TPC/reconstruction</text>
<text text-anchor="middle" x="2297" y="-86" font-family="Helvetica,sans-Serif" font-size="10.00">/src/HardwareClusterDecoder.cxx</text>
</a>
</g>
</g>
<!-- Node1&#45;&gt;Node26 -->
<g id="edge34" class="edge"><title>Node1&#45;&gt;Node26</title>
<path fill="none" stroke="midnightblue" d="M1958.53,-397.74C2027.25,-392.963 2122.74,-377.628 2193,-332 2263.27,-286.364 2286.76,-180.108 2294.02,-131.317"/>
<polygon fill="midnightblue" stroke="midnightblue" points="1957.92,-394.271 1948.16,-398.395 1958.36,-401.257 1957.92,-394.271"/>
</g>
<!-- Node3 -->
<g id="node3" class="node"><title>Node3</title>
<g id="a_node3"><a xlink:href="../../dc/def/Helpers_8cxx.html" target="_top" xlink:title="/home/travis/build\l/AliceO2Group/AliceO2\l/DataFormats/Detectors\l/TPC/src/Helpers.cxx">
<polygon fill="none" stroke="black" points="0,-79 0,-131 122,-131 122,-79 0,-79"/>
<text text-anchor="start" x="8" y="-119" font-family="Helvetica,sans-Serif" font-size="10.00">/home/travis/build</text>
<text text-anchor="start" x="8" y="-108" font-family="Helvetica,sans-Serif" font-size="10.00">/AliceO2Group/AliceO2</text>
<text text-anchor="start" x="8" y="-97" font-family="Helvetica,sans-Serif" font-size="10.00">/DataFormats/Detectors</text>
<text text-anchor="middle" x="61" y="-86" font-family="Helvetica,sans-Serif" font-size="10.00">/TPC/src/Helpers.cxx</text>
</a>
</g>
</g>
<!-- Node2&#45;&gt;Node3 -->
<g id="edge2" class="edge"><title>Node2&#45;&gt;Node3</title>
<path fill="none" stroke="midnightblue" d="M188.13,-164.242C164.041,-153.206 137.892,-141.226 115.607,-131.017"/>
<polygon fill="midnightblue" stroke="midnightblue" points="186.7,-167.436 197.249,-168.42 189.615,-161.072 186.7,-167.436"/>
</g>
<!-- Node4 -->
<g id="node4" class="node"><title>Node4</title>
<g id="a_node4"><a xlink:href="../../d7/d3d/convertClusterToClusterHardware_8C.html" target="_top" xlink:title="/home/travis/build\l/AliceO2Group/AliceO2\l/macro/convertClusterToCluster\lHardware.C">
<polygon fill="none" stroke="black" points="140,-79 140,-131 296,-131 296,-79 140,-79"/>
<text text-anchor="start" x="148" y="-119" font-family="Helvetica,sans-Serif" font-size="10.00">/home/travis/build</text>
<text text-anchor="start" x="148" y="-108" font-family="Helvetica,sans-Serif" font-size="10.00">/AliceO2Group/AliceO2</text>
<text text-anchor="start" x="148" y="-97" font-family="Helvetica,sans-Serif" font-size="10.00">/macro/convertClusterToCluster</text>
<text text-anchor="middle" x="218" y="-86" font-family="Helvetica,sans-Serif" font-size="10.00">Hardware.C</text>
</a>
</g>
</g>
<!-- Node2&#45;&gt;Node4 -->
<g id="edge3" class="edge"><title>Node2&#45;&gt;Node4</title>
<path fill="none" stroke="midnightblue" d="M244.362,-159.297C239.633,-149.735 234.709,-139.781 230.415,-131.1"/>
<polygon fill="midnightblue" stroke="midnightblue" points="241.24,-160.879 248.81,-168.291 247.514,-157.775 241.24,-160.879"/>
</g>
<!-- Node2&#45;&gt;Node5 -->
<g id="edge4" class="edge"><title>Node2&#45;&gt;Node5</title>
<path fill="none" stroke="midnightblue" d="M319.736,-162.752C339.208,-150.089 360.32,-136.358 376.901,-125.575"/>
<polygon fill="midnightblue" stroke="midnightblue" points="317.695,-159.905 311.22,-168.291 321.511,-165.773 317.695,-159.905"/>
</g>
<!-- Node2&#45;&gt;Node6 -->
<g id="edge5" class="edge"><title>Node2&#45;&gt;Node6</title>
<path fill="none" stroke="midnightblue" d="M350.935,-179.679C375.12,-175.038 401.479,-170.659 426,-168 1016.09,-104.012 1173.74,-218.189 1761,-132 1764.08,-131.549 1767.19,-131.032 1770.33,-130.462"/>
<polygon fill="midnightblue" stroke="midnightblue" points="350.215,-176.253 341.073,-181.608 351.559,-183.123 350.215,-176.253"/>
</g>
<!-- Node7&#45;&gt;Node5 -->
<g id="edge23" class="edge"><title>Node7&#45;&gt;Node5</title>
<path fill="none" stroke="midnightblue" d="M1010.7,-296.181C838.39,-289.781 467.574,-271.534 426,-232 397.304,-204.712 399.448,-153.982 403.334,-125.934"/>
<polygon fill="midnightblue" stroke="midnightblue" points="1010.64,-299.681 1020.76,-296.55 1010.89,-292.686 1010.64,-299.681"/>
</g>
<!-- Node8 -->
<g id="node8" class="node"><title>Node8</title>
<g id="a_node8"><a xlink:href="../../d6/da8/TrackTPC_8cxx.html" target="_top" xlink:title="Implementation of the TPC track. ">
<polygon fill="none" stroke="black" points="946.5,-174 946.5,-226 1069.5,-226 1069.5,-174 946.5,-174"/>
<text text-anchor="start" x="954.5" y="-214" font-family="Helvetica,sans-Serif" font-size="10.00">/home/travis/build</text>
<text text-anchor="start" x="954.5" y="-203" font-family="Helvetica,sans-Serif" font-size="10.00">/AliceO2Group/AliceO2</text>
<text text-anchor="start" x="954.5" y="-192" font-family="Helvetica,sans-Serif" font-size="10.00">/DataFormats/Detectors</text>
<text text-anchor="middle" x="1008" y="-181" font-family="Helvetica,sans-Serif" font-size="10.00">/TPC/src/TrackTPC.cxx</text>
</a>
</g>
</g>
<!-- Node7&#45;&gt;Node8 -->
<g id="edge7" class="edge"><title>Node7&#45;&gt;Node8</title>
<path fill="none" stroke="midnightblue" d="M1062.88,-260.756C1052.18,-249.104 1040.69,-236.598 1031.01,-226.054"/>
<polygon fill="midnightblue" stroke="midnightblue" points="1060.43,-263.263 1069.77,-268.261 1065.58,-258.528 1060.43,-263.263"/>
</g>
<!-- Node9 -->
<g id="node9" class="node"><title>Node9</title>
<g id="a_node9"><a xlink:href="../../d3/dac/MatchTPCITS_8h.html" target="_top" xlink:title="Class to perform TPC ITS matching. ">
<polygon fill="none" stroke="black" points="1126.5,-174 1126.5,-226 1319.5,-226 1319.5,-174 1126.5,-174"/>
<text text-anchor="start" x="1134.5" y="-214" font-family="Helvetica,sans-Serif" font-size="10.00">/home/travis/build</text>
<text text-anchor="start" x="1134.5" y="-203" font-family="Helvetica,sans-Serif" font-size="10.00">/AliceO2Group/AliceO2</text>
<text text-anchor="start" x="1134.5" y="-192" font-family="Helvetica,sans-Serif" font-size="10.00">/Detectors/GlobalTracking</text>
<text text-anchor="middle" x="1223" y="-181" font-family="Helvetica,sans-Serif" font-size="10.00">/include/GlobalTracking/MatchTPCITS.h</text>
</a>
</g>
</g>
<!-- Node7&#45;&gt;Node9 -->
<g id="edge8" class="edge"><title>Node7&#45;&gt;Node9</title>
<path fill="none" stroke="midnightblue" d="M1145.09,-262.084C1160.42,-250.06 1177.08,-237 1191.04,-226.054"/>
<polygon fill="midnightblue" stroke="midnightblue" points="1142.92,-259.337 1137.21,-268.261 1147.24,-264.846 1142.92,-259.337"/>
</g>
<!-- Node7&#45;&gt;Node12 -->
<g id="edge11" class="edge"><title>Node7&#45;&gt;Node12</title>
<path fill="none" stroke="midnightblue" d="M1010.4,-293.262C908.986,-285.265 737.511,-267.554 594,-232 591.133,-231.29 588.229,-230.514 585.309,-229.687"/>
<polygon fill="midnightblue" stroke="midnightblue" points="1010.35,-296.769 1020.59,-294.051 1010.89,-289.789 1010.35,-296.769"/>
</g>
<!-- Node13 -->
<g id="node13" class="node"><title>Node13</title>
<g id="a_node13"><a xlink:href="../../d1/d27/runCATracking_8C.html" target="_top" xlink:title="/home/travis/build\l/AliceO2Group/AliceO2\l/Detectors/TPC/reconstruction\l/macro/runCATracking.C">
<polygon fill="none" stroke="black" points="798,-79 798,-131 948,-131 948,-79 798,-79"/>
<text text-anchor="start" x="806" y="-119" font-family="Helvetica,sans-Serif" font-size="10.00">/home/travis/build</text>
<text text-anchor="start" x="806" y="-108" font-family="Helvetica,sans-Serif" font-size="10.00">/AliceO2Group/AliceO2</text>
<text text-anchor="start" x="806" y="-97" font-family="Helvetica,sans-Serif" font-size="10.00">/Detectors/TPC/reconstruction</text>
<text text-anchor="middle" x="873" y="-86" font-family="Helvetica,sans-Serif" font-size="10.00">/macro/runCATracking.C</text>
</a>
</g>
</g>
<!-- Node7&#45;&gt;Node13 -->
<g id="edge20" class="edge"><title>Node7&#45;&gt;Node13</title>
<path fill="none" stroke="midnightblue" d="M1102.38,-258.382C1103.17,-229.847 1099.28,-192.538 1078,-168 1045.85,-130.917 992.349,-115.592 948.066,-109.446"/>
<polygon fill="midnightblue" stroke="midnightblue" points="1098.88,-258.303 1101.9,-268.457 1105.87,-258.635 1098.88,-258.303"/>
</g>
<!-- Node16 -->
<g id="node16" class="node"><title>Node16</title>
<g id="a_node16"><a xlink:href="../../d9/d90/convertTracks_8C.html" target="_top" xlink:title="/home/travis/build\l/AliceO2Group/AliceO2\l/Detectors/TPC/reconstruction\l/macro/convertTracks.C">
<polygon fill="none" stroke="black" points="1338,-174 1338,-226 1488,-226 1488,-174 1338,-174"/>
<text text-anchor="start" x="1346" y="-214" font-family="Helvetica,sans-Serif" font-size="10.00">/home/travis/build</text>
<text text-anchor="start" x="1346" y="-203" font-family="Helvetica,sans-Serif" font-size="10.00">/AliceO2Group/AliceO2</text>
<text text-anchor="start" x="1346" y="-192" font-family="Helvetica,sans-Serif" font-size="10.00">/Detectors/TPC/reconstruction</text>
<text text-anchor="middle" x="1413" y="-181" font-family="Helvetica,sans-Serif" font-size="10.00">/macro/convertTracks.C</text>
</a>
</g>
</g>
<!-- Node7&#45;&gt;Node16 -->
<g id="edge16" class="edge"><title>Node7&#45;&gt;Node16</title>
<path fill="none" stroke="midnightblue" d="M1184.7,-275.211C1227.96,-262.969 1280.97,-247.408 1328,-232 1333.67,-230.142 1339.53,-228.152 1345.4,-226.111"/>
<polygon fill="midnightblue" stroke="midnightblue" points="1183.73,-271.847 1175.06,-277.93 1185.63,-278.584 1183.73,-271.847"/>
</g>
<!-- Node17 -->
<g id="node17" class="node"><title>Node17</title>
<g id="a_node17"><a xlink:href="../../d6/dee/dEdxRes_8C.html" target="_top" xlink:title="/home/travis/build\l/AliceO2Group/AliceO2\l/Detectors/TPC/reconstruction\l/macro/dEdxRes.C">
<polygon fill="none" stroke="black" points="1506,-174 1506,-226 1656,-226 1656,-174 1506,-174"/>
<text text-anchor="start" x="1514" y="-214" font-family="Helvetica,sans-Serif" font-size="10.00">/home/travis/build</text>
<text text-anchor="start" x="1514" y="-203" font-family="Helvetica,sans-Serif" font-size="10.00">/AliceO2Group/AliceO2</text>
<text text-anchor="start" x="1514" y="-192" font-family="Helvetica,sans-Serif" font-size="10.00">/Detectors/TPC/reconstruction</text>
<text text-anchor="middle" x="1581" y="-181" font-family="Helvetica,sans-Serif" font-size="10.00">/macro/dEdxRes.C</text>
</a>
</g>
</g>
<!-- Node7&#45;&gt;Node17 -->
<g id="edge17" class="edge"><title>Node7&#45;&gt;Node17</title>
<path fill="none" stroke="midnightblue" d="M1185.38,-288.966C1266.67,-278.534 1390.75,-259.8 1496,-232 1502.53,-230.275 1509.27,-228.255 1515.95,-226.088"/>
<polygon fill="midnightblue" stroke="midnightblue" points="1184.66,-285.528 1175.18,-290.259 1185.55,-292.473 1184.66,-285.528"/>
</g>
<!-- Node18 -->
<g id="node18" class="node"><title>Node18</title>
<g id="a_node18"><a xlink:href="../../d5/db8/RawClusterFinder_8C.html" target="_top" xlink:title="/home/travis/build\l/AliceO2Group/AliceO2\l/Detectors/TPC/reconstruction\l/macro/RawClusterFinder.C">
<polygon fill="none" stroke="black" points="1674,-174 1674,-226 1824,-226 1824,-174 1674,-174"/>
<text text-anchor="start" x="1682" y="-214" font-family="Helvetica,sans-Serif" font-size="10.00">/home/travis/build</text>
<text text-anchor="start" x="1682" y="-203" font-family="Helvetica,sans-Serif" font-size="10.00">/AliceO2Group/AliceO2</text>
<text text-anchor="start" x="1682" y="-192" font-family="Helvetica,sans-Serif" font-size="10.00">/Detectors/TPC/reconstruction</text>
<text text-anchor="middle" x="1749" y="-181" font-family="Helvetica,sans-Serif" font-size="10.00">/macro/RawClusterFinder.C</text>
</a>
</g>
</g>
<!-- Node7&#45;&gt;Node18 -->
<g id="edge18" class="edge"><title>Node7&#45;&gt;Node18</title>
<path fill="none" stroke="midnightblue" d="M1185.68,-294.926C1297.87,-288.283 1497.61,-271.621 1664,-232 1670.88,-230.363 1677.96,-228.343 1684.97,-226.126"/>
<polygon fill="midnightblue" stroke="midnightblue" points="1185.21,-291.448 1175.43,-295.52 1185.62,-298.436 1185.21,-291.448"/>
</g>
<!-- Node20 -->
<g id="node20" class="node"><title>Node20</title>
<g id="a_node20"><a xlink:href="../../db/d60/testTracks_8C.html" target="_top" xlink:title="/home/travis/build\l/AliceO2Group/AliceO2\l/Detectors/TPC/reconstruction\l/macro/testTracks.C">
<polygon fill="none" stroke="black" points="603,-174 603,-226 753,-226 753,-174 603,-174"/>
<text text-anchor="start" x="611" y="-214" font-family="Helvetica,sans-Serif" font-size="10.00">/home/travis/build</text>
<text text-anchor="start" x="611" y="-203" font-family="Helvetica,sans-Serif" font-size="10.00">/AliceO2Group/AliceO2</text>
<text text-anchor="start" x="611" y="-192" font-family="Helvetica,sans-Serif" font-size="10.00">/Detectors/TPC/reconstruction</text>
<text text-anchor="middle" x="678" y="-181" font-family="Helvetica,sans-Serif" font-size="10.00">/macro/testTracks.C</text>
</a>
</g>
</g>
<!-- Node7&#45;&gt;Node20 -->
<g id="edge21" class="edge"><title>Node7&#45;&gt;Node20</title>
<path fill="none" stroke="midnightblue" d="M1010.92,-285.493C942.561,-273.967 845.341,-255.531 762,-232 755.717,-230.226 749.234,-228.2 742.787,-226.052"/>
<polygon fill="midnightblue" stroke="midnightblue" points="1010.35,-288.946 1020.79,-287.143 1011.5,-282.042 1010.35,-288.946"/>
</g>
<!-- Node21 -->
<g id="node21" class="node"><title>Node21</title>
<g id="a_node21"><a xlink:href="../../d9/d59/testHitsDigitsClusters_8C.html" target="_top" xlink:title="/home/travis/build\l/AliceO2Group/AliceO2\l/Detectors/TPC/simulation\l/macro/testHitsDigitsClusters.C">
<polygon fill="none" stroke="black" points="771.5,-174 771.5,-226 928.5,-226 928.5,-174 771.5,-174"/>
<text text-anchor="start" x="779.5" y="-214" font-family="Helvetica,sans-Serif" font-size="10.00">/home/travis/build</text>
<text text-anchor="start" x="779.5" y="-203" font-family="Helvetica,sans-Serif" font-size="10.00">/AliceO2Group/AliceO2</text>
<text text-anchor="start" x="779.5" y="-192" font-family="Helvetica,sans-Serif" font-size="10.00">/Detectors/TPC/simulation</text>
<text text-anchor="middle" x="850" y="-181" font-family="Helvetica,sans-Serif" font-size="10.00">/macro/testHitsDigitsClusters.C</text>
</a>
</g>
</g>
<!-- Node7&#45;&gt;Node21 -->
<g id="edge22" class="edge"><title>Node7&#45;&gt;Node21</title>
<path fill="none" stroke="midnightblue" d="M1011.45,-264.799C979.167,-252.042 943.147,-237.808 913.336,-226.028"/>
<polygon fill="midnightblue" stroke="midnightblue" points="1010.3,-268.109 1020.89,-268.529 1012.88,-261.599 1010.3,-268.109"/>
</g>
<!-- Node10 -->
<g id="node10" class="node"><title>Node10</title>
<g id="a_node10"><a xlink:href="../../dc/d59/MatchTPCITS_8cxx.html" target="_top" xlink:title="/home/travis/build\l/AliceO2Group/AliceO2\l/Detectors/GlobalTracking\l/src/MatchTPCITS.cxx">
<polygon fill="none" stroke="black" points="1079.5,-79 1079.5,-131 1210.5,-131 1210.5,-79 1079.5,-79"/>
<text text-anchor="start" x="1087.5" y="-119" font-family="Helvetica,sans-Serif" font-size="10.00">/home/travis/build</text>
<text text-anchor="start" x="1087.5" y="-108" font-family="Helvetica,sans-Serif" font-size="10.00">/AliceO2Group/AliceO2</text>
<text text-anchor="start" x="1087.5" y="-97" font-family="Helvetica,sans-Serif" font-size="10.00">/Detectors/GlobalTracking</text>
<text text-anchor="middle" x="1145" y="-86" font-family="Helvetica,sans-Serif" font-size="10.00">/src/MatchTPCITS.cxx</text>
</a>
</g>
</g>
<!-- Node9&#45;&gt;Node10 -->
<g id="edge9" class="edge"><title>Node9&#45;&gt;Node10</title>
<path fill="none" stroke="midnightblue" d="M1195.22,-165.879C1185.61,-154.416 1175,-141.767 1166.02,-131.06"/>
<polygon fill="midnightblue" stroke="midnightblue" points="1192.58,-168.175 1201.69,-173.587 1197.94,-163.676 1192.58,-168.175"/>
</g>
<!-- Node11 -->
<g id="node11" class="node"><title>Node11</title>
<g id="a_node11"><a xlink:href="../../d9/d84/run__match__TPCITS_8C.html" target="_top" xlink:title="/home/travis/build\l/AliceO2Group/AliceO2\l/macro/run_match_TPCITS.C">
<polygon fill="none" stroke="black" points="1228.5,-84.5 1228.5,-125.5 1375.5,-125.5 1375.5,-84.5 1228.5,-84.5"/>
<text text-anchor="start" x="1236.5" y="-113.5" font-family="Helvetica,sans-Serif" font-size="10.00">/home/travis/build</text>
<text text-anchor="start" x="1236.5" y="-102.5" font-family="Helvetica,sans-Serif" font-size="10.00">/AliceO2Group/AliceO2</text>
<text text-anchor="middle" x="1302" y="-91.5" font-family="Helvetica,sans-Serif" font-size="10.00">/macro/run_match_TPCITS.C</text>
</a>
</g>
</g>
<!-- Node9&#45;&gt;Node11 -->
<g id="edge10" class="edge"><title>Node9&#45;&gt;Node11</title>
<path fill="none" stroke="midnightblue" d="M1251.11,-165.911C1262.51,-152.49 1275.29,-137.439 1285.2,-125.78"/>
<polygon fill="midnightblue" stroke="midnightblue" points="1248.39,-163.7 1244.59,-173.587 1253.73,-168.232 1248.39,-163.7"/>
</g>
<!-- Node12&#45;&gt;Node5 -->
<g id="edge15" class="edge"><title>Node12&#45;&gt;Node5</title>
<path fill="none" stroke="midnightblue" d="M468.53,-161.556C454.878,-149.23 440.247,-136.02 428.679,-125.575"/>
<polygon fill="midnightblue" stroke="midnightblue" points="466.221,-164.187 475.988,-168.291 470.912,-158.991 466.221,-164.187"/>
</g>
<!-- Node12&#45;&gt;Node13 -->
<g id="edge12" class="edge"><title>Node12&#45;&gt;Node13</title>
<path fill="none" stroke="midnightblue" d="M595.306,-167.737C668.957,-146.488 743.857,-130.44 797.994,-119.813"/>
<polygon fill="midnightblue" stroke="midnightblue" points="594.014,-164.468 585.395,-170.63 595.975,-171.187 594.014,-164.468"/>
</g>
<!-- Node15 -->
<g id="node15" class="node"><title>Node15</title>
<g id="a_node15"><a xlink:href="../../d8/ded/TPCCATracking_8cxx.html" target="_top" xlink:title="/home/travis/build\l/AliceO2Group/AliceO2\l/Detectors/TPC/reconstruction\l/src/TPCCATracking.cxx">
<polygon fill="none" stroke="black" points="517,-79 517,-131 667,-131 667,-79 517,-79"/>
<text text-anchor="start" x="525" y="-119" font-family="Helvetica,sans-Serif" font-size="10.00">/home/travis/build</text>
<text text-anchor="start" x="525" y="-108" font-family="Helvetica,sans-Serif" font-size="10.00">/AliceO2Group/AliceO2</text>
<text text-anchor="start" x="525" y="-97" font-family="Helvetica,sans-Serif" font-size="10.00">/Detectors/TPC/reconstruction</text>
<text text-anchor="middle" x="592" y="-86" font-family="Helvetica,sans-Serif" font-size="10.00">/src/TPCCATracking.cxx</text>
</a>
</g>
</g>
<!-- Node12&#45;&gt;Node15 -->
<g id="edge14" class="edge"><title>Node12&#45;&gt;Node15</title>
<path fill="none" stroke="midnightblue" d="M543.706,-160.773C552.53,-150.765 561.82,-140.229 569.869,-131.1"/>
<polygon fill="midnightblue" stroke="midnightblue" points="541.065,-158.475 537.077,-168.291 546.316,-163.105 541.065,-158.475"/>
</g>
<!-- Node14 -->
<g id="node14" class="node"><title>Node14</title>
<g id="a_node14"><a xlink:href="../../d3/d56/runTPC_8cxx.html" target="_top" xlink:title="/home/travis/build\l/AliceO2Group/AliceO2\l/run/runTPC.cxx">
<polygon fill="none" stroke="black" points="814,-0.5 814,-41.5 932,-41.5 932,-0.5 814,-0.5"/>
<text text-anchor="start" x="822" y="-29.5" font-family="Helvetica,sans-Serif" font-size="10.00">/home/travis/build</text>
<text text-anchor="start" x="822" y="-18.5" font-family="Helvetica,sans-Serif" font-size="10.00">/AliceO2Group/AliceO2</text>
<text text-anchor="middle" x="873" y="-7.5" font-family="Helvetica,sans-Serif" font-size="10.00">/run/runTPC.cxx</text>
</a>
</g>
</g>
<!-- Node13&#45;&gt;Node14 -->
<g id="edge13" class="edge"><title>Node13&#45;&gt;Node14</title>
<path fill="none" stroke="midnightblue" d="M873,-68.7604C873,-59.4912 873,-49.8211 873,-41.6965"/>
<polygon fill="midnightblue" stroke="midnightblue" points="869.5,-68.9517 873,-78.9517 876.5,-68.9518 869.5,-68.9517"/>
</g>
<!-- Node19 -->
<g id="node19" class="node"><title>Node19</title>
<g id="a_node19"><a xlink:href="../../df/da0/runRawClusterFinder_8C.html" target="_top" xlink:title="/home/travis/build\l/AliceO2Group/AliceO2\l/Detectors/TPC/reconstruction\l/macro/runRawClusterFinder.C">
<polygon fill="none" stroke="black" points="1600,-79 1600,-131 1752,-131 1752,-79 1600,-79"/>
<text text-anchor="start" x="1608" y="-119" font-family="Helvetica,sans-Serif" font-size="10.00">/home/travis/build</text>
<text text-anchor="start" x="1608" y="-108" font-family="Helvetica,sans-Serif" font-size="10.00">/AliceO2Group/AliceO2</text>
<text text-anchor="start" x="1608" y="-97" font-family="Helvetica,sans-Serif" font-size="10.00">/Detectors/TPC/reconstruction</text>
<text text-anchor="middle" x="1676" y="-86" font-family="Helvetica,sans-Serif" font-size="10.00">/macro/runRawClusterFinder.C</text>
</a>
</g>
</g>
<!-- Node18&#45;&gt;Node19 -->
<g id="edge19" class="edge"><title>Node18&#45;&gt;Node19</title>
<path fill="none" stroke="midnightblue" d="M1722.74,-165.548C1713.81,-154.173 1703.99,-141.664 1695.67,-131.06"/>
<polygon fill="midnightblue" stroke="midnightblue" points="1720.12,-167.882 1729.05,-173.587 1725.63,-163.56 1720.12,-167.882"/>
</g>
<!-- Node23&#45;&gt;Node24 -->
<g id="edge26" class="edge"><title>Node23&#45;&gt;Node24</title>
<path fill="none" stroke="midnightblue" d="M1981.02,-258.964C1976.93,-249.841 1972.64,-240.288 1968.75,-231.63"/>
<polygon fill="midnightblue" stroke="midnightblue" points="1977.91,-260.572 1985.2,-268.261 1984.3,-257.705 1977.91,-260.572"/>
</g>
<!-- Node27 -->
<g id="node27" class="node"><title>Node27</title>
<g id="a_node27"><a xlink:href="../../d1/d81/DigitalCurrentClusterIntegrator_8cxx.html" target="_top" xlink:title="/home/travis/build\l/AliceO2Group/AliceO2\l/Detectors/TPC/reconstruction\l/src/DigitalCurrentClusterIntegrator.cxx">
<polygon fill="none" stroke="black" points="2048,-174 2048,-226 2236,-226 2236,-174 2048,-174"/>
<text text-anchor="start" x="2056" y="-214" font-family="Helvetica,sans-Serif" font-size="10.00">/home/travis/build</text>
<text text-anchor="start" x="2056" y="-203" font-family="Helvetica,sans-Serif" font-size="10.00">/AliceO2Group/AliceO2</text>
<text text-anchor="start" x="2056" y="-192" font-family="Helvetica,sans-Serif" font-size="10.00">/Detectors/TPC/reconstruction</text>
<text text-anchor="middle" x="2142" y="-181" font-family="Helvetica,sans-Serif" font-size="10.00">/src/DigitalCurrentClusterIntegrator.cxx</text>
</a>
</g>
</g>
<!-- Node23&#45;&gt;Node27 -->
<g id="edge30" class="edge"><title>Node23&#45;&gt;Node27</title>
<path fill="none" stroke="midnightblue" d="M2052.38,-262.415C2070.06,-250.299 2089.32,-237.1 2105.44,-226.054"/>
<polygon fill="midnightblue" stroke="midnightblue" points="2050.12,-259.721 2043.85,-268.261 2054.08,-265.495 2050.12,-259.721"/>
</g>
<!-- Node24&#45;&gt;Node6 -->
<g id="edge29" class="edge"><title>Node24&#45;&gt;Node6</title>
<path fill="none" stroke="midnightblue" d="M1915.34,-161.361C1904.61,-151.179 1893.26,-140.408 1883.45,-131.1"/>
<polygon fill="midnightblue" stroke="midnightblue" points="1912.98,-163.946 1922.64,-168.291 1917.8,-158.868 1912.98,-163.946"/>
</g>
<!-- Node24&#45;&gt;Node25 -->
<g id="edge27" class="edge"><title>Node24&#45;&gt;Node25</title>
<path fill="none" stroke="midnightblue" d="M2005.99,-162.24C2020.47,-151.801 2035.9,-140.676 2049.18,-131.1"/>
<polygon fill="midnightblue" stroke="midnightblue" points="2003.66,-159.603 1997.6,-168.291 2007.76,-165.282 2003.66,-159.603"/>
</g>
<!-- Node24&#45;&gt;Node26 -->
<g id="edge28" class="edge"><title>Node24&#45;&gt;Node26</title>
<path fill="none" stroke="midnightblue" d="M2040.35,-167.713C2108.52,-147.766 2128.35,-147.907 2194,-132 2200.63,-130.393 2207.5,-128.707 2214.39,-126.999"/>
<polygon fill="midnightblue" stroke="midnightblue" points="2039,-164.465 2030.41,-170.665 2040.99,-171.176 2039,-164.465"/>
</g>
</g>
</svg>
