<?xml version="1.0" encoding="UTF-8" standalone="no"?>
<!DOCTYPE svg PUBLIC "-//W3C//DTD SVG 1.1//EN"
 "http://www.w3.org/Graphics/SVG/1.1/DTD/svg11.dtd">
<!-- Generated by graphviz version 2.36.0 (20140111.2315)
 -->
<!-- Title: /home/travis/build/AliceO2Group/AliceO2/Framework/Core/include/Framework/ControlService.h Pages: 1 -->
<!--zoomable 242 -->
<svg id="main" version="1.1" xmlns="http://www.w3.org/2000/svg" xmlns:xlink="http://www.w3.org/1999/xlink" xml:space="preserve" onload="init(evt)">
<style type="text/css"><![CDATA[
.edge:hover path { stroke: red; }
.edge:hover polygon { stroke: red; fill: red; }
]]></style>
<script type="text/javascript"><![CDATA[
var edges = document.getElementsByTagName('g');
if (edges && edges.length) {
  for (var i=0;i<edges.length;i++) {
    if (edges[i].id.substr(0,4)=='edge') {
      edges[i].setAttribute('class','edge');
    }
  }
}
]]></script>
        <defs>
                <circle id="rim" cx="0" cy="0" r="7"/>
                <circle id="rim2" cx="0" cy="0" r="3.5"/>
                <g id="zoomPlus">
                        <use xlink:href="#rim" fill="#404040">
                                <set attributeName="fill" to="#808080" begin="zoomplus.mouseover" end="zoomplus.mouseout"/>
                        </use>
                        <path d="M-4,0h8M0,-4v8" fill="none" stroke="white" stroke-width="1.5" pointer-events="none"/>
                </g>
                <g id="zoomMin">
                        <use xlink:href="#rim" fill="#404040">
                                <set attributeName="fill" to="#808080" begin="zoomminus.mouseover" end="zoomminus.mouseout"/>
                        </use>
                        <path d="M-4,0h8" fill="none" stroke="white" stroke-width="1.5" pointer-events="none"/>
                </g>
                <g id="dirArrow">
                        <path fill="none" stroke="white" stroke-width="1.5" d="M0,-3.0v7 M-2.5,-0.5L0,-3.0L2.5,-0.5"/>
                </g>
               <g id="resetDef">
                       <use xlink:href="#rim2" fill="#404040">
                               <set attributeName="fill" to="#808080" begin="reset.mouseover" end="reset.mouseout"/>
                       </use>
               </g>
        </defs>

<script type="text/javascript">
var viewWidth = 1411;
var viewHeight = 242;
var sectionId = 'dynsection-0';
</script>
<script xlink:href="../../svgpan.js"/>
<svg id="graph" class="graph">
<g id="viewport">
<title>/home/travis/build/AliceO2Group/AliceO2/Framework/Core/include/Framework/ControlService.h</title>
<!-- Node1 -->
<g id="node1" class="node"><title>Node1</title>
<polygon fill="#bfbfbf" stroke="black" points="702,-181 702,-233 846,-233 846,-181 702,-181"/>
<text text-anchor="start" x="710" y="-221" font-family="Helvetica,sans-Serif" font-size="10.00">/home/travis/build</text>
<text text-anchor="start" x="710" y="-210" font-family="Helvetica,sans-Serif" font-size="10.00">/AliceO2Group/AliceO2</text>
<text text-anchor="start" x="710" y="-199" font-family="Helvetica,sans-Serif" font-size="10.00">/Framework/Core/include</text>
<text text-anchor="middle" x="774" y="-188" font-family="Helvetica,sans-Serif" font-size="10.00">/Framework/ControlService.h</text>
</g>
<!-- Node2 -->
<g id="node2" class="node"><title>Node2</title>
<g id="a_node2"><a xlink:href="../../da/da1/TextControlService_8h.html" target="_top" xlink:title="/home/travis/build\l/AliceO2Group/AliceO2\l/Framework/Core/include\l/Framework/TextControlService.h">
<polygon fill="none" stroke="black" points="128,-91 128,-143 292,-143 292,-91 128,-91"/>
<text text-anchor="start" x="136" y="-131" font-family="Helvetica,sans-Serif" font-size="10.00">/home/travis/build</text>
<text text-anchor="start" x="136" y="-120" font-family="Helvetica,sans-Serif" font-size="10.00">/AliceO2Group/AliceO2</text>
<text text-anchor="start" x="136" y="-109" font-family="Helvetica,sans-Serif" font-size="10.00">/Framework/Core/include</text>
<text text-anchor="middle" x="210" y="-98" font-family="Helvetica,sans-Serif" font-size="10.00">/Framework/TextControlService.h</text>
</a>
</g>
</g>
<!-- Node1&#45;&gt;Node2 -->
<g id="edge1" class="edge"><title>Node1&#45;&gt;Node2</title>
<path fill="none" stroke="midnightblue" d="M691.811,-198.846C597.163,-189.768 437.317,-171.855 302,-144 298.749,-143.331 295.444,-142.607 292.114,-141.842"/>
<polygon fill="midnightblue" stroke="midnightblue" points="691.607,-202.342 701.893,-199.803 692.268,-195.374 691.607,-202.342"/>
</g>
<!-- Node5 -->
<g id="node5" class="node"><title>Node5</title>
<g id="a_node5"><a xlink:href="../../d2/da2/test__DataAllocator_8cxx.html" target="_top" xlink:title="/home/travis/build\l/AliceO2Group/AliceO2\l/Framework/Core/test/test\l_DataAllocator.cxx">
<polygon fill="none" stroke="black" points="310.5,-91 310.5,-143 441.5,-143 441.5,-91 310.5,-91"/>
<text text-anchor="start" x="318.5" y="-131" font-family="Helvetica,sans-Serif" font-size="10.00">/home/travis/build</text>
<text text-anchor="start" x="318.5" y="-120" font-family="Helvetica,sans-Serif" font-size="10.00">/AliceO2Group/AliceO2</text>
<text text-anchor="start" x="318.5" y="-109" font-family="Helvetica,sans-Serif" font-size="10.00">/Framework/Core/test/test</text>
<text text-anchor="middle" x="376" y="-98" font-family="Helvetica,sans-Serif" font-size="10.00">_DataAllocator.cxx</text>
</a>
</g>
</g>
<!-- Node1&#45;&gt;Node5 -->
<g id="edge4" class="edge"><title>Node1&#45;&gt;Node5</title>
<path fill="none" stroke="midnightblue" d="M691.913,-193.6C626.184,-182.868 531.924,-165.673 451,-144 447.938,-143.18 444.821,-142.298 441.684,-141.37"/>
<polygon fill="midnightblue" stroke="midnightblue" points="691.374,-197.058 701.805,-195.201 692.493,-190.148 691.374,-197.058"/>
</g>
<!-- Node6 -->
<g id="node6" class="node"><title>Node6</title>
<g id="a_node6"><a xlink:href="../../d0/d0b/test__ParallelProducer_8cxx.html" target="_top" xlink:title="/home/travis/build\l/AliceO2Group/AliceO2\l/Framework/Core/test/test\l_ParallelProducer.cxx">
<polygon fill="none" stroke="black" points="459.5,-91 459.5,-143 590.5,-143 590.5,-91 459.5,-91"/>
<text text-anchor="start" x="467.5" y="-131" font-family="Helvetica,sans-Serif" font-size="10.00">/home/travis/build</text>
<text text-anchor="start" x="467.5" y="-120" font-family="Helvetica,sans-Serif" font-size="10.00">/AliceO2Group/AliceO2</text>
<text text-anchor="start" x="467.5" y="-109" font-family="Helvetica,sans-Serif" font-size="10.00">/Framework/Core/test/test</text>
<text text-anchor="middle" x="525" y="-98" font-family="Helvetica,sans-Serif" font-size="10.00">_ParallelProducer.cxx</text>
</a>
</g>
</g>
<!-- Node1&#45;&gt;Node6 -->
<g id="edge5" class="edge"><title>Node1&#45;&gt;Node6</title>
<path fill="none" stroke="midnightblue" d="M693.288,-177.475C660.051,-165.729 622.043,-152.296 590.568,-141.173"/>
<polygon fill="midnightblue" stroke="midnightblue" points="692.385,-180.868 702.98,-180.901 694.718,-174.268 692.385,-180.868"/>
</g>
<!-- Node7 -->
<g id="node7" class="node"><title>Node7</title>
<g id="a_node7"><a xlink:href="../../da/d12/test__SimpleStatefulProcessing01_8cxx.html" target="_top" xlink:title="/home/travis/build\l/AliceO2Group/AliceO2\l/Framework/Core/test/test\l_SimpleStatefulProcessing01.cxx">
<polygon fill="none" stroke="black" points="609,-91 609,-143 773,-143 773,-91 609,-91"/>
<text text-anchor="start" x="617" y="-131" font-family="Helvetica,sans-Serif" font-size="10.00">/home/travis/build</text>
<text text-anchor="start" x="617" y="-120" font-family="Helvetica,sans-Serif" font-size="10.00">/AliceO2Group/AliceO2</text>
<text text-anchor="start" x="617" y="-109" font-family="Helvetica,sans-Serif" font-size="10.00">/Framework/Core/test/test</text>
<text text-anchor="middle" x="691" y="-98" font-family="Helvetica,sans-Serif" font-size="10.00">_SimpleStatefulProcessing01.cxx</text>
</a>
</g>
</g>
<!-- Node1&#45;&gt;Node7 -->
<g id="edge6" class="edge"><title>Node1&#45;&gt;Node7</title>
<path fill="none" stroke="midnightblue" d="M743.006,-173.139C733.628,-163.196 723.484,-152.441 714.666,-143.092"/>
<polygon fill="midnightblue" stroke="midnightblue" points="740.585,-175.674 749.993,-180.547 745.678,-170.871 740.585,-175.674"/>
</g>
<!-- Node8 -->
<g id="node8" class="node"><title>Node8</title>
<g id="a_node8"><a xlink:href="../../d3/d4e/test__SingleDataSource_8cxx.html" target="_top" xlink:title="/home/travis/build\l/AliceO2Group/AliceO2\l/Framework/Core/test/test\l_SingleDataSource.cxx">
<polygon fill="none" stroke="black" points="791.5,-91 791.5,-143 922.5,-143 922.5,-91 791.5,-91"/>
<text text-anchor="start" x="799.5" y="-131" font-family="Helvetica,sans-Serif" font-size="10.00">/home/travis/build</text>
<text text-anchor="start" x="799.5" y="-120" font-family="Helvetica,sans-Serif" font-size="10.00">/AliceO2Group/AliceO2</text>
<text text-anchor="start" x="799.5" y="-109" font-family="Helvetica,sans-Serif" font-size="10.00">/Framework/Core/test/test</text>
<text text-anchor="middle" x="857" y="-98" font-family="Helvetica,sans-Serif" font-size="10.00">_SingleDataSource.cxx</text>
</a>
</g>
</g>
<!-- Node1&#45;&gt;Node8 -->
<g id="edge7" class="edge"><title>Node1&#45;&gt;Node8</title>
<path fill="none" stroke="midnightblue" d="M804.994,-173.139C814.372,-163.196 824.516,-152.441 833.334,-143.092"/>
<polygon fill="midnightblue" stroke="midnightblue" points="802.322,-170.871 798.007,-180.547 807.415,-175.674 802.322,-170.871"/>
</g>
<!-- Node9 -->
<g id="node9" class="node"><title>Node9</title>
<g id="a_node9"><a xlink:href="../../d2/d5d/test__WorkflowOptions_8cxx.html" target="_top" xlink:title="/home/travis/build\l/AliceO2Group/AliceO2\l/Framework/Core/test/test\l_WorkflowOptions.cxx">
<polygon fill="none" stroke="black" points="940.5,-91 940.5,-143 1071.5,-143 1071.5,-91 940.5,-91"/>
<text text-anchor="start" x="948.5" y="-131" font-family="Helvetica,sans-Serif" font-size="10.00">/home/travis/build</text>
<text text-anchor="start" x="948.5" y="-120" font-family="Helvetica,sans-Serif" font-size="10.00">/AliceO2Group/AliceO2</text>
<text text-anchor="start" x="948.5" y="-109" font-family="Helvetica,sans-Serif" font-size="10.00">/Framework/Core/test/test</text>
<text text-anchor="middle" x="1006" y="-98" font-family="Helvetica,sans-Serif" font-size="10.00">_WorkflowOptions.cxx</text>
</a>
</g>
</g>
<!-- Node1&#45;&gt;Node9 -->
<g id="edge8" class="edge"><title>Node1&#45;&gt;Node9</title>
<path fill="none" stroke="midnightblue" d="M849.893,-177.213C879.032,-166.16 912.021,-153.647 940.142,-142.981"/>
<polygon fill="midnightblue" stroke="midnightblue" points="848.28,-174.081 840.171,-180.901 850.763,-180.626 848.28,-174.081"/>
</g>
<!-- Node10 -->
<g id="node10" class="node"><title>Node10</title>
<g id="a_node10"><a xlink:href="../../d3/d09/o2ParallelWorkflow_8cxx.html" target="_top" xlink:title="/home/travis/build\l/AliceO2Group/AliceO2\l/Framework/TestWorkflows\l/src/o2ParallelWorkflow.cxx">
<polygon fill="none" stroke="black" points="1089.5,-91 1089.5,-143 1228.5,-143 1228.5,-91 1089.5,-91"/>
<text text-anchor="start" x="1097.5" y="-131" font-family="Helvetica,sans-Serif" font-size="10.00">/home/travis/build</text>
<text text-anchor="start" x="1097.5" y="-120" font-family="Helvetica,sans-Serif" font-size="10.00">/AliceO2Group/AliceO2</text>
<text text-anchor="start" x="1097.5" y="-109" font-family="Helvetica,sans-Serif" font-size="10.00">/Framework/TestWorkflows</text>
<text text-anchor="middle" x="1159" y="-98" font-family="Helvetica,sans-Serif" font-size="10.00">/src/o2ParallelWorkflow.cxx</text>
</a>
</g>
</g>
<!-- Node1&#45;&gt;Node10 -->
<g id="edge9" class="edge"><title>Node1&#45;&gt;Node10</title>
<path fill="none" stroke="midnightblue" d="M856.383,-192.034C918.327,-180.875 1005.05,-163.852 1080,-144 1083.07,-143.187 1086.2,-142.321 1089.35,-141.418"/>
<polygon fill="midnightblue" stroke="midnightblue" points="855.502,-188.636 846.275,-193.842 856.735,-195.526 855.502,-188.636"/>
</g>
<!-- Node11 -->
<g id="node11" class="node"><title>Node11</title>
<g id="a_node11"><a xlink:href="../../db/d78/test__MakeDPLObjects_8cxx.html" target="_top" xlink:title="/home/travis/build\l/AliceO2Group/AliceO2\l/Framework/TestWorkflows\l/test/test_MakeDPLObjects.cxx">
<polygon fill="none" stroke="black" points="1246.5,-91 1246.5,-143 1403.5,-143 1403.5,-91 1246.5,-91"/>
<text text-anchor="start" x="1254.5" y="-131" font-family="Helvetica,sans-Serif" font-size="10.00">/home/travis/build</text>
<text text-anchor="start" x="1254.5" y="-120" font-family="Helvetica,sans-Serif" font-size="10.00">/AliceO2Group/AliceO2</text>
<text text-anchor="start" x="1254.5" y="-109" font-family="Helvetica,sans-Serif" font-size="10.00">/Framework/TestWorkflows</text>
<text text-anchor="middle" x="1325" y="-98" font-family="Helvetica,sans-Serif" font-size="10.00">/test/test_MakeDPLObjects.cxx</text>
</a>
</g>
</g>
<!-- Node1&#45;&gt;Node11 -->
<g id="edge10" class="edge"><title>Node1&#45;&gt;Node11</title>
<path fill="none" stroke="midnightblue" d="M856.576,-198.819C949.698,-189.826 1105.32,-172.095 1237,-144 1240.12,-143.335 1243.28,-142.616 1246.47,-141.854"/>
<polygon fill="midnightblue" stroke="midnightblue" points="855.993,-195.359 846.371,-199.794 856.659,-202.327 855.993,-195.359"/>
</g>
<!-- Node3 -->
<g id="node3" class="node"><title>Node3</title>
<g id="a_node3"><a xlink:href="../../d7/d54/runDataProcessing_8cxx.html" target="_top" xlink:title="/home/travis/build\l/AliceO2Group/AliceO2\l/Framework/Core/src/runDataProcessing.cxx">
<polygon fill="none" stroke="black" points="0,-6.5 0,-47.5 214,-47.5 214,-6.5 0,-6.5"/>
<text text-anchor="start" x="8" y="-35.5" font-family="Helvetica,sans-Serif" font-size="10.00">/home/travis/build</text>
<text text-anchor="start" x="8" y="-24.5" font-family="Helvetica,sans-Serif" font-size="10.00">/AliceO2Group/AliceO2</text>
<text text-anchor="middle" x="107" y="-13.5" font-family="Helvetica,sans-Serif" font-size="10.00">/Framework/Core/src/runDataProcessing.cxx</text>
</a>
</g>
</g>
<!-- Node2&#45;&gt;Node3 -->
<g id="edge2" class="edge"><title>Node2&#45;&gt;Node3</title>
<path fill="none" stroke="midnightblue" d="M172.735,-84.1619C158.436,-71.9452 142.548,-58.371 129.974,-47.6283"/>
<polygon fill="midnightblue" stroke="midnightblue" points="170.608,-86.948 180.484,-90.7827 175.155,-81.6259 170.608,-86.948"/>
</g>
<!-- Node4 -->
<g id="node4" class="node"><title>Node4</title>
<g id="a_node4"><a xlink:href="../../d3/dac/TextControlService_8cxx.html" target="_top" xlink:title="/home/travis/build\l/AliceO2Group/AliceO2\l/Framework/Core/src/TextControl\lService.cxx">
<polygon fill="none" stroke="black" points="232.5,-1 232.5,-53 395.5,-53 395.5,-1 232.5,-1"/>
<text text-anchor="start" x="240.5" y="-41" font-family="Helvetica,sans-Serif" font-size="10.00">/home/travis/build</text>
<text text-anchor="start" x="240.5" y="-30" font-family="Helvetica,sans-Serif" font-size="10.00">/AliceO2Group/AliceO2</text>
<text text-anchor="start" x="240.5" y="-19" font-family="Helvetica,sans-Serif" font-size="10.00">/Framework/Core/src/TextControl</text>
<text text-anchor="middle" x="314" y="-8" font-family="Helvetica,sans-Serif" font-size="10.00">Service.cxx</text>
</a>
</g>
</g>
<!-- Node2&#45;&gt;Node4 -->
<g id="edge3" class="edge"><title>Node2&#45;&gt;Node4</title>
<path fill="none" stroke="midnightblue" d="M247.532,-84.2423C259.587,-74.0416 272.77,-62.8871 284.193,-53.221"/>
<polygon fill="midnightblue" stroke="midnightblue" points="245.175,-81.6514 239.802,-90.7827 249.697,-86.9951 245.175,-81.6514"/>
</g>
</g>
</svg>
        <g id="navigator" transform="translate(0 0)" fill="#404254">
                <rect fill="#f2f5e9" fill-opacity="0.5" stroke="#606060" stroke-width=".5" x="0" y="0" width="60" height="60"/>
                <use id="zoomplus" xlink:href="#zoomPlus" x="17" y="9" onmousedown="handleZoom(evt,'in')"/>
                <use id="zoomminus" xlink:href="#zoomMin" x="42" y="9" onmousedown="handleZoom(evt,'out')"/>
                <use id="reset" xlink:href="#resetDef" x="30" y="36" onmousedown="handleReset()"/>
                <g id="arrowUp" xlink:href="#dirArrow" transform="translate(30 24)" onmousedown="handlePan(0,-1)">
                  <use xlink:href="#rim" fill="#404040">
                        <set attributeName="fill" to="#808080" begin="arrowUp.mouseover" end="arrowUp.mouseout"/>
                  </use>
                  <path fill="none" stroke="white" stroke-width="1.5" d="M0,-3.0v7 M-2.5,-0.5L0,-3.0L2.5,-0.5"/>
                </g>
                <g id="arrowRight" xlink:href="#dirArrow" transform="rotate(90) translate(36 -43)" onmousedown="handlePan(1,0)">
                  <use xlink:href="#rim" fill="#404040">
                        <set attributeName="fill" to="#808080" begin="arrowRight.mouseover" end="arrowRight.mouseout"/>
                  </use>
                  <path fill="none" stroke="white" stroke-width="1.5" d="M0,-3.0v7 M-2.5,-0.5L0,-3.0L2.5,-0.5"/>
                </g>
                <g id="arrowDown" xlink:href="#dirArrow" transform="rotate(180) translate(-30 -48)" onmousedown="handlePan(0,1)">
                  <use xlink:href="#rim" fill="#404040">
                        <set attributeName="fill" to="#808080" begin="arrowDown.mouseover" end="arrowDown.mouseout"/>
                  </use>
                  <path fill="none" stroke="white" stroke-width="1.5" d="M0,-3.0v7 M-2.5,-0.5L0,-3.0L2.5,-0.5"/>
                </g>
                <g id="arrowLeft" xlink:href="#dirArrow" transform="rotate(270) translate(-36 17)" onmousedown="handlePan(-1,0)">
                  <use xlink:href="#rim" fill="#404040">
                        <set attributeName="fill" to="#808080" begin="arrowLeft.mouseover" end="arrowLeft.mouseout"/>
                  </use>
                  <path fill="none" stroke="white" stroke-width="1.5" d="M0,-3.0v7 M-2.5,-0.5L0,-3.0L2.5,-0.5"/>
                </g>
        </g>
        <svg viewBox="0 0 15 15" width="100%" height="30px" preserveAspectRatio="xMaxYMin meet">
         <g id="arrow_out" transform="scale(0.3 0.3)">
          <a xlink:href="ControlService_8h__dep__incl_org.svg" target="_base">
           <rect id="button" ry="5" rx="5" y="6" x="6" height="38" width="38"
                fill="#f2f5e9" fill-opacity="0.5" stroke="#606060" stroke-width="1.0"/>
           <path id="arrow"
             d="M 11.500037,31.436501 C 11.940474,20.09759 22.043105,11.32322 32.158766,21.979434 L 37.068811,17.246167 C 37.068811,17.246167 37.088388,32 37.088388,32 L 22.160133,31.978069 C 22.160133,31.978069 26.997745,27.140456 26.997745,27.140456 C 18.528582,18.264221 13.291696,25.230495 11.500037,31.436501 z"
             style="fill:#404040;"/>
          </a>
         </g>
        </svg>
</svg>
