<?xml version="1.0" encoding="UTF-8" standalone="no"?>
<!DOCTYPE svg PUBLIC "-//W3C//DTD SVG 1.1//EN"
 "http://www.w3.org/Graphics/SVG/1.1/DTD/svg11.dtd">
<!-- Generated by graphviz version 2.36.0 (20140111.2315)
 -->
<!-- Title: /home/travis/build/AliceO2Group/AliceO2/Detectors/ITSMFT/ITS/simulation/include/ITSSimulation/Detector.h Pages: 1 -->
<!--zoomable 412 -->
<svg id="main" version="1.1" xmlns="http://www.w3.org/2000/svg" xmlns:xlink="http://www.w3.org/1999/xlink" xml:space="preserve" onload="init(evt)">
<style type="text/css"><![CDATA[
.edge:hover path { stroke: red; }
.edge:hover polygon { stroke: red; fill: red; }
]]></style>
<script type="text/javascript"><![CDATA[
var edges = document.getElementsByTagName('g');
if (edges && edges.length) {
  for (var i=0;i<edges.length;i++) {
    if (edges[i].id.substr(0,4)=='edge') {
      edges[i].setAttribute('class','edge');
    }
  }
}
]]></script>
        <defs>
                <circle id="rim" cx="0" cy="0" r="7"/>
                <circle id="rim2" cx="0" cy="0" r="3.5"/>
                <g id="zoomPlus">
                        <use xlink:href="#rim" fill="#404040">
                                <set attributeName="fill" to="#808080" begin="zoomplus.mouseover" end="zoomplus.mouseout"/>
                        </use>
                        <path d="M-4,0h8M0,-4v8" fill="none" stroke="white" stroke-width="1.5" pointer-events="none"/>
                </g>
                <g id="zoomMin">
                        <use xlink:href="#rim" fill="#404040">
                                <set attributeName="fill" to="#808080" begin="zoomminus.mouseover" end="zoomminus.mouseout"/>
                        </use>
                        <path d="M-4,0h8" fill="none" stroke="white" stroke-width="1.5" pointer-events="none"/>
                </g>
                <g id="dirArrow">
                        <path fill="none" stroke="white" stroke-width="1.5" d="M0,-3.0v7 M-2.5,-0.5L0,-3.0L2.5,-0.5"/>
                </g>
               <g id="resetDef">
                       <use xlink:href="#rim2" fill="#404040">
                               <set attributeName="fill" to="#808080" begin="reset.mouseover" end="reset.mouseout"/>
                       </use>
               </g>
        </defs>

<script type="text/javascript">
var viewWidth = 2088;
var viewHeight = 412;
var sectionId = 'dynsection-0';
</script>
<script xlink:href="../../svgpan.js"/>
<svg id="graph" class="graph">
<g id="viewport">
<title>/home/travis/build/AliceO2Group/AliceO2/Detectors/ITSMFT/ITS/simulation/include/ITSSimulation/Detector.h</title>
<!-- Node1 -->
<g id="node1" class="node"><title>Node1</title>
<polygon fill="#bfbfbf" stroke="black" points="1250,-340.5 1250,-403.5 1412,-403.5 1412,-340.5 1250,-340.5"/>
<text text-anchor="start" x="1258" y="-391.5" font-family="Helvetica,sans-Serif" font-size="10.00">/home/travis/build</text>
<text text-anchor="start" x="1258" y="-380.5" font-family="Helvetica,sans-Serif" font-size="10.00">/AliceO2Group/AliceO2</text>
<text text-anchor="start" x="1258" y="-369.5" font-family="Helvetica,sans-Serif" font-size="10.00">/Detectors/ITSMFT/ITS</text>
<text text-anchor="start" x="1258" y="-358.5" font-family="Helvetica,sans-Serif" font-size="10.00">/simulation/include/ITSSimulation</text>
<text text-anchor="middle" x="1331" y="-347.5" font-family="Helvetica,sans-Serif" font-size="10.00">/Detector.h</text>
</g>
<!-- Node2 -->
<g id="node2" class="node"><title>Node2</title>
<polygon fill="none" stroke="#bfbfbf" points="0,-210.5 0,-229.5 44,-229.5 44,-210.5 0,-210.5"/>
<text text-anchor="middle" x="22" y="-217.5" font-family="Helvetica,sans-Serif" font-size="10.00">vector</text>
</g>
<!-- Node1&#45;&gt;Node2 -->
<g id="edge1" class="edge"><title>Node1&#45;&gt;Node2</title>
<path fill="none" stroke="midnightblue" d="M1249.94,-368.345C1088.64,-362.353 716.271,-344.976 406,-304 247.602,-283.081 204.638,-286.332 53,-236 51.0849,-235.364 49.1359,-234.636 47.1953,-233.849"/>
<polygon fill="midnightblue" stroke="midnightblue" points="48.3131,-230.514 37.7575,-229.603 45.4412,-236.898 48.3131,-230.514"/>
</g>
<!-- Node3 -->
<g id="node3" class="node"><title>Node3</title>
<g id="a_node3"><a xlink:href="../../d1/d3a/Base_2include_2DetectorsBase_2Detector_8h.html" target="_top" xlink:title="DetectorsBase/Detector.h">
<polygon fill="none" stroke="black" points="415.5,-278.5 415.5,-297.5 546.5,-297.5 546.5,-278.5 415.5,-278.5"/>
<text text-anchor="middle" x="481" y="-285.5" font-family="Helvetica,sans-Serif" font-size="10.00">DetectorsBase/Detector.h</text>
</a>
</g>
</g>
<!-- Node1&#45;&gt;Node3 -->
<g id="edge2" class="edge"><title>Node1&#45;&gt;Node3</title>
<path fill="none" stroke="midnightblue" d="M1249.88,-363.175C1085.74,-347.339 716.286,-311.698 556.739,-296.307"/>
<polygon fill="midnightblue" stroke="midnightblue" points="556.828,-292.799 546.538,-295.322 556.155,-299.767 556.828,-292.799"/>
</g>
<!-- Node9 -->
<g id="node9" class="node"><title>Node9</title>
<polygon fill="none" stroke="#bfbfbf" points="832,-74.5 832,-93.5 888,-93.5 888,-74.5 832,-74.5"/>
<text text-anchor="middle" x="860" y="-81.5" font-family="Helvetica,sans-Serif" font-size="10.00">Rtypes.h</text>
</g>
<!-- Node1&#45;&gt;Node9 -->
<g id="edge46" class="edge"><title>Node1&#45;&gt;Node9</title>
<path fill="none" stroke="midnightblue" d="M1249.9,-361.237C1122.51,-343.982 885.13,-303.411 838,-236 809.497,-195.231 834.643,-133.03 850.071,-102.772"/>
<polygon fill="midnightblue" stroke="midnightblue" points="853.231,-104.284 854.84,-93.8116 847.052,-100.995 853.231,-104.284"/>
</g>
<!-- Node14 -->
<g id="node14" class="node"><title>Node14</title>
<g id="a_node14"><a xlink:href="../../d6/d31/DetID_8h.html" target="_top" xlink:title="DetectorsCommonDataFormats\l/DetID.h">
<polygon fill="none" stroke="black" points="1033,-273 1033,-303 1189,-303 1189,-273 1033,-273"/>
<text text-anchor="start" x="1041" y="-291" font-family="Helvetica,sans-Serif" font-size="10.00">DetectorsCommonDataFormats</text>
<text text-anchor="middle" x="1111" y="-280" font-family="Helvetica,sans-Serif" font-size="10.00">/DetID.h</text>
</a>
</g>
</g>
<!-- Node1&#45;&gt;Node14 -->
<g id="edge16" class="edge"><title>Node1&#45;&gt;Node14</title>
<path fill="none" stroke="midnightblue" d="M1249.71,-340.699C1218.85,-329.2 1184.76,-316.494 1158.1,-306.556"/>
<polygon fill="midnightblue" stroke="midnightblue" points="1159.23,-303.24 1148.63,-303.027 1156.78,-309.799 1159.23,-303.24"/>
</g>
<!-- Node22 -->
<g id="node22" class="node"><title>Node22</title>
<g id="a_node22"><a xlink:href="../../d0/dae/ITSMFT_2common_2simulation_2include_2ITSMFTSimulation_2Hit_8h.html" target="_top" xlink:title="ITSMFTSimulation/Hit.h">
<polygon fill="none" stroke="black" points="1270,-278.5 1270,-297.5 1392,-297.5 1392,-278.5 1270,-278.5"/>
<text text-anchor="middle" x="1331" y="-285.5" font-family="Helvetica,sans-Serif" font-size="10.00">ITSMFTSimulation/Hit.h</text>
</a>
</g>
</g>
<!-- Node1&#45;&gt;Node22 -->
<g id="edge27" class="edge"><title>Node1&#45;&gt;Node22</title>
<path fill="none" stroke="midnightblue" d="M1331,-340.466C1331,-329.47 1331,-317.396 1331,-307.709"/>
<polygon fill="midnightblue" stroke="midnightblue" points="1334.5,-307.64 1331,-297.64 1327.5,-307.64 1334.5,-307.64"/>
</g>
<!-- Node36 -->
<g id="node36" class="node"><title>Node36</title>
<polygon fill="none" stroke="#bfbfbf" points="1598.5,-210.5 1598.5,-229.5 1663.5,-229.5 1663.5,-210.5 1598.5,-210.5"/>
<text text-anchor="middle" x="1631" y="-217.5" font-family="Helvetica,sans-Serif" font-size="10.00">TVector3.h</text>
</g>
<!-- Node1&#45;&gt;Node36 -->
<g id="edge50" class="edge"><title>Node1&#45;&gt;Node36</title>
<path fill="none" stroke="midnightblue" d="M1362.74,-340.413C1391.33,-313.118 1430.18,-276.737 1439,-272 1497.5,-240.595 1520.11,-254.104 1584,-236 1587.79,-234.927 1591.73,-233.756 1595.64,-232.557"/>
<polygon fill="midnightblue" stroke="midnightblue" points="1596.73,-235.883 1605.23,-229.558 1594.65,-229.202 1596.73,-235.883"/>
</g>
<!-- Node37 -->
<g id="node37" class="node"><title>Node37</title>
<polygon fill="none" stroke="#bfbfbf" points="1448,-278.5 1448,-297.5 1510,-297.5 1510,-278.5 1448,-278.5"/>
<text text-anchor="middle" x="1479" y="-285.5" font-family="Helvetica,sans-Serif" font-size="10.00">TArrayD.h</text>
</g>
<!-- Node1&#45;&gt;Node37 -->
<g id="edge47" class="edge"><title>Node1&#45;&gt;Node37</title>
<path fill="none" stroke="midnightblue" d="M1386.11,-340.466C1409.62,-327.438 1435.87,-312.898 1454.45,-302.605"/>
<polygon fill="midnightblue" stroke="midnightblue" points="1456.36,-305.548 1463.41,-297.64 1452.96,-299.425 1456.36,-305.548"/>
</g>
<!-- Node38 -->
<g id="node38" class="node"><title>Node38</title>
<polygon fill="none" stroke="#bfbfbf" points="1528,-278.5 1528,-297.5 1614,-297.5 1614,-278.5 1528,-278.5"/>
<text text-anchor="middle" x="1571" y="-285.5" font-family="Helvetica,sans-Serif" font-size="10.00">TGeoManager.h</text>
</g>
<!-- Node1&#45;&gt;Node38 -->
<g id="edge48" class="edge"><title>Node1&#45;&gt;Node38</title>
<path fill="none" stroke="midnightblue" d="M1412.25,-343.239C1454.46,-328.816 1503.84,-311.946 1536.18,-300.897"/>
<polygon fill="midnightblue" stroke="midnightblue" points="1537.72,-304.069 1546.05,-297.524 1535.46,-297.445 1537.72,-304.069"/>
</g>
<!-- Node39 -->
<g id="node39" class="node"><title>Node39</title>
<polygon fill="none" stroke="#bfbfbf" points="1632,-278.5 1632,-297.5 1724,-297.5 1724,-278.5 1632,-278.5"/>
<text text-anchor="middle" x="1678" y="-285.5" font-family="Helvetica,sans-Serif" font-size="10.00">TLorentzVector.h</text>
</g>
<!-- Node1&#45;&gt;Node39 -->
<g id="edge49" class="edge"><title>Node1&#45;&gt;Node39</title>
<path fill="none" stroke="midnightblue" d="M1412.09,-353.324C1470.8,-340.299 1552,-321.821 1623,-304 1627.73,-302.813 1632.68,-301.527 1637.58,-300.224"/>
<polygon fill="midnightblue" stroke="midnightblue" points="1638.76,-303.531 1647.51,-297.552 1636.95,-296.771 1638.76,-303.531"/>
</g>
<!-- Node3&#45;&gt;Node2 -->
<g id="edge4" class="edge"><title>Node3&#45;&gt;Node2</title>
<path fill="none" stroke="midnightblue" d="M415.491,-285.896C330.344,-282.953 177.788,-272.51 53,-236 50.8087,-235.359 48.5813,-234.575 46.3774,-233.706"/>
<polygon fill="midnightblue" stroke="midnightblue" points="47.607,-230.421 37.0504,-229.522 44.742,-236.808 47.607,-230.421"/>
</g>
<!-- Node4 -->
<g id="node4" class="node"><title>Node4</title>
<polygon fill="none" stroke="#bfbfbf" points="239.5,-142.5 239.5,-161.5 274.5,-161.5 274.5,-142.5 239.5,-142.5"/>
<text text-anchor="middle" x="257" y="-149.5" font-family="Helvetica,sans-Serif" font-size="10.00">map</text>
</g>
<!-- Node3&#45;&gt;Node4 -->
<g id="edge3" class="edge"><title>Node3&#45;&gt;Node4</title>
<path fill="none" stroke="midnightblue" d="M415.314,-283.443C346.255,-278.167 244.287,-265.492 220,-236 203.301,-215.723 223.975,-186.712 240.472,-168.906"/>
<polygon fill="midnightblue" stroke="midnightblue" points="243.134,-171.188 247.608,-161.584 238.122,-166.302 243.134,-171.188"/>
</g>
<!-- Node5 -->
<g id="node5" class="node"><title>Node5</title>
<polygon fill="none" stroke="#bfbfbf" points="413,-210.5 413,-229.5 465,-229.5 465,-210.5 413,-210.5"/>
<text text-anchor="middle" x="439" y="-217.5" font-family="Helvetica,sans-Serif" font-size="10.00">memory</text>
</g>
<!-- Node3&#45;&gt;Node5 -->
<g id="edge5" class="edge"><title>Node3&#45;&gt;Node5</title>
<path fill="none" stroke="midnightblue" d="M475.509,-278.372C469.068,-268.25 458.228,-251.215 450.029,-238.331"/>
<polygon fill="midnightblue" stroke="midnightblue" points="452.948,-236.399 444.626,-229.841 447.042,-240.157 452.948,-236.399"/>
</g>
<!-- Node6 -->
<g id="node6" class="node"><title>Node6</title>
<polygon fill="none" stroke="#bfbfbf" points="483.5,-210.5 483.5,-229.5 562.5,-229.5 562.5,-210.5 483.5,-210.5"/>
<text text-anchor="middle" x="523" y="-217.5" font-family="Helvetica,sans-Serif" font-size="10.00">FairDetector.h</text>
</g>
<!-- Node3&#45;&gt;Node6 -->
<g id="edge6" class="edge"><title>Node3&#45;&gt;Node6</title>
<path fill="none" stroke="midnightblue" d="M486.491,-278.372C492.932,-268.25 503.772,-251.215 511.971,-238.331"/>
<polygon fill="midnightblue" stroke="midnightblue" points="514.958,-240.157 517.374,-229.841 509.052,-236.399 514.958,-240.157"/>
</g>
<!-- Node7 -->
<g id="node7" class="node"><title>Node7</title>
<polygon fill="none" stroke="#bfbfbf" points="581,-210.5 581,-229.5 681,-229.5 681,-210.5 581,-210.5"/>
<text text-anchor="middle" x="631" y="-217.5" font-family="Helvetica,sans-Serif" font-size="10.00">FairRootManager.h</text>
</g>
<!-- Node3&#45;&gt;Node7 -->
<g id="edge7" class="edge"><title>Node3&#45;&gt;Node7</title>
<path fill="none" stroke="midnightblue" d="M500.61,-278.372C526.438,-267.007 572.066,-246.931 601.918,-233.796"/>
<polygon fill="midnightblue" stroke="midnightblue" points="603.642,-236.862 611.385,-229.63 600.823,-230.454 603.642,-236.862"/>
</g>
<!-- Node8 -->
<g id="node8" class="node"><title>Node8</title>
<g id="a_node8"><a xlink:href="../../d0/d9a/MaterialManager_8h.html" target="_top" xlink:title="DetectorsBase/MaterialManager.h">
<polygon fill="none" stroke="black" points="229.5,-210.5 229.5,-229.5 394.5,-229.5 394.5,-210.5 229.5,-210.5"/>
<text text-anchor="middle" x="312" y="-217.5" font-family="Helvetica,sans-Serif" font-size="10.00">DetectorsBase/MaterialManager.h</text>
</a>
</g>
</g>
<!-- Node3&#45;&gt;Node8 -->
<g id="edge8" class="edge"><title>Node3&#45;&gt;Node8</title>
<path fill="none" stroke="midnightblue" d="M458.906,-278.372C429.346,-266.827 376.764,-246.293 343.181,-233.177"/>
<polygon fill="midnightblue" stroke="midnightblue" points="344.42,-229.903 333.831,-229.526 341.873,-236.424 344.42,-229.903"/>
</g>
<!-- Node3&#45;&gt;Node9 -->
<g id="edge11" class="edge"><title>Node3&#45;&gt;Node9</title>
<path fill="none" stroke="midnightblue" d="M546.532,-279.356C589.25,-272.407 645.176,-259.496 690,-236 698.913,-231.328 801.523,-138.261 842.88,-100.609"/>
<polygon fill="midnightblue" stroke="midnightblue" points="845.469,-102.985 850.505,-93.6634 840.755,-97.8103 845.469,-102.985"/>
</g>
<!-- Node10 -->
<g id="node10" class="node"><title>Node10</title>
<polygon fill="none" stroke="#bfbfbf" points="737.5,-210.5 737.5,-229.5 790.5,-229.5 790.5,-210.5 737.5,-210.5"/>
<text text-anchor="middle" x="764" y="-217.5" font-family="Helvetica,sans-Serif" font-size="10.00">cxxabi.h</text>
</g>
<!-- Node3&#45;&gt;Node10 -->
<g id="edge12" class="edge"><title>Node3&#45;&gt;Node10</title>
<path fill="none" stroke="midnightblue" d="M532.039,-278.437C581.375,-269.646 657.994,-254.638 723,-236 726.206,-235.081 729.521,-234.035 732.813,-232.932"/>
<polygon fill="midnightblue" stroke="midnightblue" points="734.217,-236.148 742.487,-229.526 731.892,-229.546 734.217,-236.148"/>
</g>
<!-- Node11 -->
<g id="node11" class="node"><title>Node11</title>
<polygon fill="none" stroke="#bfbfbf" points="62.5,-210.5 62.5,-229.5 113.5,-229.5 113.5,-210.5 62.5,-210.5"/>
<text text-anchor="middle" x="88" y="-217.5" font-family="Helvetica,sans-Serif" font-size="10.00">typeinfo</text>
</g>
<!-- Node3&#45;&gt;Node11 -->
<g id="edge13" class="edge"><title>Node3&#45;&gt;Node11</title>
<path fill="none" stroke="midnightblue" d="M415.353,-283.091C342.505,-277.513 222.026,-264.579 122,-236 119.503,-235.287 116.951,-234.427 114.422,-233.484"/>
<polygon fill="midnightblue" stroke="midnightblue" points="115.535,-230.157 104.956,-229.573 112.862,-236.626 115.535,-230.157"/>
</g>
<!-- Node12 -->
<g id="node12" class="node"><title>Node12</title>
<polygon fill="none" stroke="#bfbfbf" points="847,-210.5 847,-229.5 909,-229.5 909,-210.5 847,-210.5"/>
<text text-anchor="middle" x="878" y="-217.5" font-family="Helvetica,sans-Serif" font-size="10.00">type_traits</text>
</g>
<!-- Node3&#45;&gt;Node12 -->
<g id="edge14" class="edge"><title>Node3&#45;&gt;Node12</title>
<path fill="none" stroke="midnightblue" d="M537.376,-278.457C601.006,-268.699 707.574,-252.008 799,-236 811.355,-233.837 824.768,-231.345 836.975,-229.02"/>
<polygon fill="midnightblue" stroke="midnightblue" points="837.733,-232.439 846.895,-227.119 836.415,-225.564 837.733,-232.439"/>
</g>
<!-- Node13 -->
<g id="node13" class="node"><title>Node13</title>
<polygon fill="none" stroke="#bfbfbf" points="131.5,-210.5 131.5,-229.5 172.5,-229.5 172.5,-210.5 131.5,-210.5"/>
<text text-anchor="middle" x="152" y="-217.5" font-family="Helvetica,sans-Serif" font-size="10.00">string</text>
</g>
<!-- Node3&#45;&gt;Node13 -->
<g id="edge15" class="edge"><title>Node3&#45;&gt;Node13</title>
<path fill="none" stroke="midnightblue" d="M415.478,-280.075C355.226,-272.667 263.857,-258.795 187,-236 184.504,-235.26 181.948,-234.392 179.41,-233.455"/>
<polygon fill="midnightblue" stroke="midnightblue" points="180.452,-230.101 169.869,-229.608 177.834,-236.593 180.452,-230.101"/>
</g>
<!-- Node8&#45;&gt;Node4 -->
<g id="edge10" class="edge"><title>Node8&#45;&gt;Node4</title>
<path fill="none" stroke="midnightblue" d="M304.81,-210.372C296.211,-200.053 281.626,-182.551 270.821,-169.585"/>
<polygon fill="midnightblue" stroke="midnightblue" points="273.458,-167.283 264.368,-161.841 268.081,-171.764 273.458,-167.283"/>
</g>
<!-- Node8&#45;&gt;Node9 -->
<g id="edge9" class="edge"><title>Node8&#45;&gt;Node9</title>
<path fill="none" stroke="midnightblue" d="M347.113,-210.414C445.091,-186.456 720.894,-119.015 822.126,-94.261"/>
<polygon fill="midnightblue" stroke="midnightblue" points="823.042,-97.6404 831.924,-91.8652 821.379,-90.8407 823.042,-97.6404"/>
</g>
<!-- Node14&#45;&gt;Node9 -->
<g id="edge17" class="edge"><title>Node14&#45;&gt;Node9</title>
<path fill="none" stroke="midnightblue" d="M1034.57,-272.987C1007.76,-265.329 978.694,-253.656 956,-236 909.723,-199.996 879.5,-135 866.814,-103.334"/>
<polygon fill="midnightblue" stroke="midnightblue" points="869.931,-101.691 863.061,-93.626 863.402,-104.215 869.931,-101.691"/>
</g>
<!-- Node14&#45;&gt;Node12 -->
<g id="edge22" class="edge"><title>Node14&#45;&gt;Node12</title>
<path fill="none" stroke="midnightblue" d="M1056.06,-272.976C1018.45,-263.16 967.514,-249.445 923,-236 919.586,-234.969 916.038,-233.857 912.501,-232.722"/>
<polygon fill="midnightblue" stroke="midnightblue" points="913.269,-229.29 902.677,-229.506 911.092,-235.943 913.269,-229.29"/>
</g>
<!-- Node15 -->
<g id="node15" class="node"><title>Node15</title>
<polygon fill="none" stroke="#bfbfbf" points="1190,-142.5 1190,-161.5 1228,-161.5 1228,-142.5 1190,-142.5"/>
<text text-anchor="middle" x="1209" y="-149.5" font-family="Helvetica,sans-Serif" font-size="10.00">array</text>
</g>
<!-- Node14&#45;&gt;Node15 -->
<g id="edge18" class="edge"><title>Node14&#45;&gt;Node15</title>
<path fill="none" stroke="midnightblue" d="M1119.67,-272.859C1130.13,-256.065 1148.49,-227.382 1166,-204 1174.91,-192.099 1185.7,-179.307 1194.24,-169.512"/>
<polygon fill="midnightblue" stroke="midnightblue" points="1197.08,-171.588 1201.07,-161.773 1191.83,-166.959 1197.08,-171.588"/>
</g>
<!-- Node16 -->
<g id="node16" class="node"><title>Node16</title>
<polygon fill="none" stroke="#bfbfbf" points="1175.5,-210.5 1175.5,-229.5 1216.5,-229.5 1216.5,-210.5 1175.5,-210.5"/>
<text text-anchor="middle" x="1196" y="-217.5" font-family="Helvetica,sans-Serif" font-size="10.00">bitset</text>
</g>
<!-- Node14&#45;&gt;Node16 -->
<g id="edge19" class="edge"><title>Node14&#45;&gt;Node16</title>
<path fill="none" stroke="midnightblue" d="M1129.44,-272.679C1143.35,-261.879 1162.39,-247.098 1176.54,-236.11"/>
<polygon fill="midnightblue" stroke="midnightblue" points="1178.88,-238.726 1184.63,-229.828 1174.59,-233.197 1178.88,-238.726"/>
</g>
<!-- Node17 -->
<g id="node17" class="node"><title>Node17</title>
<polygon fill="none" stroke="#bfbfbf" points="1234.5,-210.5 1234.5,-229.5 1283.5,-229.5 1283.5,-210.5 1234.5,-210.5"/>
<text text-anchor="middle" x="1259" y="-217.5" font-family="Helvetica,sans-Serif" font-size="10.00">cassert</text>
</g>
<!-- Node14&#45;&gt;Node17 -->
<g id="edge20" class="edge"><title>Node14&#45;&gt;Node17</title>
<path fill="none" stroke="midnightblue" d="M1142.75,-272.841C1168.69,-261.272 1205.06,-245.055 1230.17,-233.855"/>
<polygon fill="midnightblue" stroke="midnightblue" points="1231.82,-236.951 1239.53,-229.682 1228.97,-230.558 1231.82,-236.951"/>
</g>
<!-- Node18 -->
<g id="node18" class="node"><title>Node18</title>
<polygon fill="none" stroke="#bfbfbf" points="965,-210.5 965,-229.5 1011,-229.5 1011,-210.5 965,-210.5"/>
<text text-anchor="middle" x="988" y="-217.5" font-family="Helvetica,sans-Serif" font-size="10.00">cstdint</text>
</g>
<!-- Node14&#45;&gt;Node18 -->
<g id="edge21" class="edge"><title>Node14&#45;&gt;Node18</title>
<path fill="none" stroke="midnightblue" d="M1084.61,-272.841C1063.43,-261.476 1033.9,-245.628 1013.07,-234.454"/>
<polygon fill="midnightblue" stroke="midnightblue" points="1014.65,-231.326 1004.18,-229.682 1011.34,-237.494 1014.65,-231.326"/>
</g>
<!-- Node19 -->
<g id="node19" class="node"><title>Node19</title>
<g id="a_node19"><a xlink:href="../../d9/ded/Utils_8h.html" target="_top" xlink:title="General auxilliary methods. ">
<polygon fill="none" stroke="black" points="1029,-210.5 1029,-229.5 1119,-229.5 1119,-210.5 1029,-210.5"/>
<text text-anchor="middle" x="1074" y="-217.5" font-family="Helvetica,sans-Serif" font-size="10.00">MathUtils/Utils.h</text>
</a>
</g>
</g>
<!-- Node14&#45;&gt;Node19 -->
<g id="edge23" class="edge"><title>Node14&#45;&gt;Node19</title>
<path fill="none" stroke="midnightblue" d="M1102.97,-272.679C1097.37,-262.694 1089.87,-249.307 1083.9,-238.66"/>
<polygon fill="midnightblue" stroke="midnightblue" points="1086.89,-236.84 1078.95,-229.828 1080.79,-240.263 1086.89,-236.84"/>
</g>
<!-- Node19&#45;&gt;Node15 -->
<g id="edge24" class="edge"><title>Node19&#45;&gt;Node15</title>
<path fill="none" stroke="midnightblue" d="M1092.08,-210.495C1113.24,-200.497 1149.3,-183.32 1180,-168 1181.14,-167.43 1182.31,-166.845 1183.48,-166.251"/>
<polygon fill="midnightblue" stroke="midnightblue" points="1185.17,-169.319 1192.48,-161.65 1181.98,-163.087 1185.17,-169.319"/>
</g>
<!-- Node20 -->
<g id="node20" class="node"><title>Node20</title>
<polygon fill="none" stroke="#bfbfbf" points="930,-142.5 930,-161.5 974,-161.5 974,-142.5 930,-142.5"/>
<text text-anchor="middle" x="952" y="-149.5" font-family="Helvetica,sans-Serif" font-size="10.00">cmath</text>
</g>
<!-- Node19&#45;&gt;Node20 -->
<g id="edge25" class="edge"><title>Node19&#45;&gt;Node20</title>
<path fill="none" stroke="midnightblue" d="M1058.05,-210.372C1037.41,-199.205 1001.22,-179.627 976.932,-166.488"/>
<polygon fill="midnightblue" stroke="midnightblue" points="978.414,-163.31 967.953,-161.63 975.083,-169.467 978.414,-163.31"/>
</g>
<!-- Node21 -->
<g id="node21" class="node"><title>Node21</title>
<g id="a_node21"><a xlink:href="../../d6/d84/MathConstants_8h.html" target="_top" xlink:title="useful math constants ">
<polygon fill="none" stroke="black" points="992.5,-142.5 992.5,-161.5 1171.5,-161.5 1171.5,-142.5 992.5,-142.5"/>
<text text-anchor="middle" x="1082" y="-149.5" font-family="Helvetica,sans-Serif" font-size="10.00">CommonConstants/MathConstants.h</text>
</a>
</g>
</g>
<!-- Node19&#45;&gt;Node21 -->
<g id="edge26" class="edge"><title>Node19&#45;&gt;Node21</title>
<path fill="none" stroke="midnightblue" d="M1075.05,-210.372C1076.23,-200.643 1078.18,-184.528 1079.72,-171.85"/>
<polygon fill="midnightblue" stroke="midnightblue" points="1083.2,-172.19 1080.93,-161.841 1076.25,-171.347 1083.2,-172.19"/>
</g>
<!-- Node22&#45;&gt;Node9 -->
<g id="edge43" class="edge"><title>Node22&#45;&gt;Node9</title>
<path fill="none" stroke="midnightblue" d="M1328.83,-278.31C1321.49,-251.09 1294.78,-167.424 1237,-136 1103.51,-63.4028 1044.41,-136.906 897,-100 893.939,-99.2335 890.796,-98.2652 887.697,-97.191"/>
<polygon fill="midnightblue" stroke="midnightblue" points="888.695,-93.8253 878.105,-93.5169 886.191,-100.362 888.695,-93.8253"/>
</g>
<!-- Node23 -->
<g id="node23" class="node"><title>Node23</title>
<g id="a_node23"><a xlink:href="../../d4/d25/BaseHits_8h.html" target="_top" xlink:title="SimulationDataFormat\l/BaseHits.h">
<polygon fill="none" stroke="black" points="1404,-205 1404,-235 1518,-235 1518,-205 1404,-205"/>
<text text-anchor="start" x="1412" y="-223" font-family="Helvetica,sans-Serif" font-size="10.00">SimulationDataFormat</text>
<text text-anchor="middle" x="1461" y="-212" font-family="Helvetica,sans-Serif" font-size="10.00">/BaseHits.h</text>
</a>
</g>
</g>
<!-- Node22&#45;&gt;Node23 -->
<g id="edge28" class="edge"><title>Node22&#45;&gt;Node23</title>
<path fill="none" stroke="midnightblue" d="M1348,-278.372C1367.16,-268.643 1398.9,-252.529 1423.87,-239.851"/>
<polygon fill="midnightblue" stroke="midnightblue" points="1425.73,-242.829 1433.07,-235.181 1422.57,-236.588 1425.73,-242.829"/>
</g>
<!-- Node31 -->
<g id="node31" class="node"><title>Node31</title>
<polygon fill="none" stroke="#bfbfbf" points="2026,-74.5 2026,-93.5 2080,-93.5 2080,-74.5 2026,-74.5"/>
<text text-anchor="middle" x="2053" y="-81.5" font-family="Helvetica,sans-Serif" font-size="10.00">iostream</text>
</g>
<!-- Node22&#45;&gt;Node31 -->
<g id="edge45" class="edge"><title>Node22&#45;&gt;Node31</title>
<path fill="none" stroke="midnightblue" d="M1367.57,-278.481C1415.81,-267.073 1497.98,-246.997 1527,-236 1556.37,-224.87 1560.55,-214.9 1590,-204 1773.18,-136.209 1831.4,-160.858 2017,-100 2019.57,-99.1588 2022.21,-98.2157 2024.83,-97.2229"/>
<polygon fill="midnightblue" stroke="midnightblue" points="2026.16,-100.461 2034.15,-93.5026 2023.57,-93.96 2026.16,-100.461"/>
</g>
<!-- Node35 -->
<g id="node35" class="node"><title>Node35</title>
<g id="a_node35"><a xlink:href="../../d7/dcd/MCCompLabel_8h.html" target="_top" xlink:title="SimulationDataFormat\l/MCCompLabel.h">
<polygon fill="none" stroke="black" points="1284,-137 1284,-167 1398,-167 1398,-137 1284,-137"/>
<text text-anchor="start" x="1292" y="-155" font-family="Helvetica,sans-Serif" font-size="10.00">SimulationDataFormat</text>
<text text-anchor="middle" x="1341" y="-144" font-family="Helvetica,sans-Serif" font-size="10.00">/MCCompLabel.h</text>
</a>
</g>
</g>
<!-- Node22&#45;&gt;Node35 -->
<g id="edge41" class="edge"><title>Node22&#45;&gt;Node35</title>
<path fill="none" stroke="midnightblue" d="M1331.66,-278.208C1333.17,-257.984 1336.93,-207.575 1339.19,-177.244"/>
<polygon fill="midnightblue" stroke="midnightblue" points="1342.7,-177.304 1339.95,-167.071 1335.72,-176.783 1342.7,-177.304"/>
</g>
<!-- Node22&#45;&gt;Node36 -->
<g id="edge44" class="edge"><title>Node22&#45;&gt;Node36</title>
<path fill="none" stroke="midnightblue" d="M1373.71,-278.453C1444.49,-264.279 1578.9,-237.324 1584,-236 1587.9,-234.988 1591.95,-233.842 1595.97,-232.644"/>
<polygon fill="midnightblue" stroke="midnightblue" points="1597.26,-235.909 1605.78,-229.611 1595.19,-229.221 1597.26,-235.909"/>
</g>
<!-- Node24 -->
<g id="node24" class="node"><title>Node24</title>
<g id="a_node24"><a xlink:href="../../dd/d76/Cartesian3D_8h.html" target="_top" xlink:title="MathUtils/Cartesian3D.h">
<polygon fill="none" stroke="black" points="1416.5,-142.5 1416.5,-161.5 1541.5,-161.5 1541.5,-142.5 1416.5,-142.5"/>
<text text-anchor="middle" x="1479" y="-149.5" font-family="Helvetica,sans-Serif" font-size="10.00">MathUtils/Cartesian3D.h</text>
</a>
</g>
</g>
<!-- Node23&#45;&gt;Node24 -->
<g id="edge29" class="edge"><title>Node23&#45;&gt;Node24</title>
<path fill="none" stroke="midnightblue" d="M1464.91,-204.679C1467.55,-194.999 1471.06,-182.123 1473.92,-171.645"/>
<polygon fill="midnightblue" stroke="midnightblue" points="1477.34,-172.397 1476.59,-161.828 1470.58,-170.555 1477.34,-172.397"/>
</g>
<!-- Node24&#45;&gt;Node9 -->
<g id="edge35" class="edge"><title>Node24&#45;&gt;Node9</title>
<path fill="none" stroke="midnightblue" d="M1442.91,-142.486C1431.48,-140.059 1418.76,-137.633 1407,-136 1181.93,-104.757 1118.36,-151.32 897,-100 893.926,-99.2872 890.774,-98.3535 887.671,-97.3"/>
<polygon fill="midnightblue" stroke="midnightblue" points="888.664,-93.933 878.073,-93.6502 886.176,-100.476 888.664,-93.933"/>
</g>
<!-- Node25 -->
<g id="node25" class="node"><title>Node25</title>
<polygon fill="none" stroke="#bfbfbf" points="1143.5,-69 1143.5,-99 1294.5,-99 1294.5,-69 1143.5,-69"/>
<text text-anchor="start" x="1151.5" y="-87" font-family="Helvetica,sans-Serif" font-size="10.00">Math/GenVector/Displacement</text>
<text text-anchor="middle" x="1219" y="-76" font-family="Helvetica,sans-Serif" font-size="10.00">Vector3D.h</text>
</g>
<!-- Node24&#45;&gt;Node25 -->
<g id="edge30" class="edge"><title>Node24&#45;&gt;Node25</title>
<path fill="none" stroke="midnightblue" d="M1445.28,-142.439C1404.7,-132.139 1335.65,-114.612 1284.48,-101.621"/>
<polygon fill="midnightblue" stroke="midnightblue" points="1285.05,-98.1554 1274.5,-99.0873 1283.33,-104.94 1285.05,-98.1554"/>
</g>
<!-- Node26 -->
<g id="node26" class="node"><title>Node26</title>
<polygon fill="none" stroke="#bfbfbf" points="1313,-74.5 1313,-93.5 1489,-93.5 1489,-74.5 1313,-74.5"/>
<text text-anchor="middle" x="1401" y="-81.5" font-family="Helvetica,sans-Serif" font-size="10.00">Math/GenVector/PositionVector3D.h</text>
</g>
<!-- Node24&#45;&gt;Node26 -->
<g id="edge31" class="edge"><title>Node24&#45;&gt;Node26</title>
<path fill="none" stroke="midnightblue" d="M1468.8,-142.372C1456.26,-131.758 1434.74,-113.545 1419.3,-100.485"/>
<polygon fill="midnightblue" stroke="midnightblue" points="1421.34,-97.6287 1411.45,-93.8411 1416.82,-102.972 1421.34,-97.6287"/>
</g>
<!-- Node27 -->
<g id="node27" class="node"><title>Node27</title>
<polygon fill="none" stroke="#bfbfbf" points="1506.5,-74.5 1506.5,-93.5 1655.5,-93.5 1655.5,-74.5 1506.5,-74.5"/>
<text text-anchor="middle" x="1581" y="-81.5" font-family="Helvetica,sans-Serif" font-size="10.00">Math/GenVector/Rotation3D.h</text>
</g>
<!-- Node24&#45;&gt;Node27 -->
<g id="edge32" class="edge"><title>Node24&#45;&gt;Node27</title>
<path fill="none" stroke="midnightblue" d="M1492.33,-142.372C1509.29,-131.403 1538.78,-112.317 1559.07,-99.1912"/>
<polygon fill="midnightblue" stroke="midnightblue" points="1561.17,-102.002 1567.66,-93.6305 1557.36,-96.1245 1561.17,-102.002"/>
</g>
<!-- Node28 -->
<g id="node28" class="node"><title>Node28</title>
<polygon fill="none" stroke="#bfbfbf" points="1674,-74.5 1674,-93.5 1830,-93.5 1830,-74.5 1674,-74.5"/>
<text text-anchor="middle" x="1752" y="-81.5" font-family="Helvetica,sans-Serif" font-size="10.00">Math/GenVector/Transform3D.h</text>
</g>
<!-- Node24&#45;&gt;Node28 -->
<g id="edge33" class="edge"><title>Node24&#45;&gt;Node28</title>
<path fill="none" stroke="midnightblue" d="M1514.41,-142.439C1563.61,-130.545 1652.67,-109.013 1706.67,-95.959"/>
<polygon fill="midnightblue" stroke="midnightblue" points="1707.76,-99.2975 1716.65,-93.5455 1706.11,-92.4935 1707.76,-99.2975"/>
</g>
<!-- Node29 -->
<g id="node29" class="node"><title>Node29</title>
<polygon fill="none" stroke="#bfbfbf" points="1848,-74.5 1848,-93.5 2008,-93.5 2008,-74.5 1848,-74.5"/>
<text text-anchor="middle" x="1928" y="-81.5" font-family="Helvetica,sans-Serif" font-size="10.00">Math/GenVector/Translation3D.h</text>
</g>
<!-- Node24&#45;&gt;Node29 -->
<g id="edge34" class="edge"><title>Node24&#45;&gt;Node29</title>
<path fill="none" stroke="midnightblue" d="M1520.07,-142.48C1531.66,-140.217 1544.3,-137.881 1556,-136 1681.18,-115.867 1713.57,-118.54 1839,-100 1848.88,-98.5393 1859.36,-96.876 1869.53,-95.2014"/>
<polygon fill="midnightblue" stroke="midnightblue" points="1870.27,-98.6265 1879.56,-93.5303 1869.12,-91.7217 1870.27,-98.6265"/>
</g>
<!-- Node30 -->
<g id="node30" class="node"><title>Node30</title>
<polygon fill="none" stroke="#bfbfbf" points="906,-74.5 906,-93.5 982,-93.5 982,-74.5 906,-74.5"/>
<text text-anchor="middle" x="944" y="-81.5" font-family="Helvetica,sans-Serif" font-size="10.00">TGeoMatrix.h</text>
</g>
<!-- Node24&#45;&gt;Node30 -->
<g id="edge36" class="edge"><title>Node24&#45;&gt;Node30</title>
<path fill="none" stroke="midnightblue" d="M1442.15,-142.443C1430.92,-140.072 1418.5,-137.689 1407,-136 1223.39,-109.027 1172.97,-136.437 991,-100 986.436,-99.0861 981.692,-97.8842 977.049,-96.5579"/>
<polygon fill="midnightblue" stroke="midnightblue" points="977.746,-93.1105 967.159,-93.5189 975.69,-99.8017 977.746,-93.1105"/>
</g>
<!-- Node24&#45;&gt;Node31 -->
<g id="edge37" class="edge"><title>Node24&#45;&gt;Node31</title>
<path fill="none" stroke="midnightblue" d="M1518.03,-142.498C1530.15,-140.101 1543.58,-137.688 1556,-136 1759.64,-108.307 1817.2,-148.124 2017,-100 2020,-99.2781 2023.07,-98.3385 2026.09,-97.2815"/>
<polygon fill="midnightblue" stroke="midnightblue" points="2027.39,-100.53 2035.43,-93.6275 2024.84,-94.0108 2027.39,-100.53"/>
</g>
<!-- Node32 -->
<g id="node32" class="node"><title>Node32</title>
<g id="a_node32"><a xlink:href="../../d2/dd0/Cartesian2D_8h.html" target="_top" xlink:title="MathUtils/Cartesian2D.h">
<polygon fill="none" stroke="black" points="1000.5,-74.5 1000.5,-93.5 1125.5,-93.5 1125.5,-74.5 1000.5,-74.5"/>
<text text-anchor="middle" x="1063" y="-81.5" font-family="Helvetica,sans-Serif" font-size="10.00">MathUtils/Cartesian2D.h</text>
</a>
</g>
</g>
<!-- Node24&#45;&gt;Node32 -->
<g id="edge38" class="edge"><title>Node24&#45;&gt;Node32</title>
<path fill="none" stroke="midnightblue" d="M1440.61,-142.452C1429.78,-140.189 1417.95,-137.86 1407,-136 1286.34,-115.506 1254.63,-120.664 1134,-100 1126.49,-98.7132 1118.56,-97.197 1110.84,-95.6316"/>
<polygon fill="midnightblue" stroke="midnightblue" points="1111.35,-92.1639 1100.85,-93.5607 1109.93,-99.0181 1111.35,-92.1639"/>
</g>
<!-- Node33 -->
<g id="node33" class="node"><title>Node33</title>
<polygon fill="none" stroke="#bfbfbf" points="896.5,-1 896.5,-31 1047.5,-31 1047.5,-1 896.5,-1"/>
<text text-anchor="start" x="904.5" y="-19" font-family="Helvetica,sans-Serif" font-size="10.00">Math/GenVector/Displacement</text>
<text text-anchor="middle" x="972" y="-8" font-family="Helvetica,sans-Serif" font-size="10.00">Vector2D.h</text>
</g>
<!-- Node32&#45;&gt;Node33 -->
<g id="edge39" class="edge"><title>Node32&#45;&gt;Node33</title>
<path fill="none" stroke="midnightblue" d="M1051.1,-74.3717C1038.22,-65.0286 1017.22,-49.7966 1000.09,-37.375"/>
<polygon fill="midnightblue" stroke="midnightblue" points="1001.7,-34.2194 991.553,-31.1815 997.593,-39.8859 1001.7,-34.2194"/>
</g>
<!-- Node34 -->
<g id="node34" class="node"><title>Node34</title>
<polygon fill="none" stroke="#bfbfbf" points="1066,-6.5 1066,-25.5 1242,-25.5 1242,-6.5 1066,-6.5"/>
<text text-anchor="middle" x="1154" y="-13.5" font-family="Helvetica,sans-Serif" font-size="10.00">Math/GenVector/PositionVector2D.h</text>
</g>
<!-- Node32&#45;&gt;Node34 -->
<g id="edge40" class="edge"><title>Node32&#45;&gt;Node34</title>
<path fill="none" stroke="midnightblue" d="M1074.9,-74.3717C1089.88,-63.5015 1115.86,-44.6602 1133.94,-31.5474"/>
<polygon fill="midnightblue" stroke="midnightblue" points="1136.06,-34.3349 1142.1,-25.6305 1131.95,-28.6684 1136.06,-34.3349"/>
</g>
<!-- Node35&#45;&gt;Node9 -->
<g id="edge42" class="edge"><title>Node35&#45;&gt;Node9</title>
<path fill="none" stroke="midnightblue" d="M1283.75,-138.33C1279.11,-137.479 1274.48,-136.688 1270,-136 1105.38,-110.747 1058.75,-139.7 897,-100 893.935,-99.2477 890.79,-98.2885 887.69,-97.2198"/>
<polygon fill="midnightblue" stroke="midnightblue" points="888.686,-93.8538 878.096,-93.5522 886.187,-100.392 888.686,-93.8538"/>
</g>
</g>
</svg>
        <g id="navigator" transform="translate(0 0)" fill="#404254">
                <rect fill="#f2f5e9" fill-opacity="0.5" stroke="#606060" stroke-width=".5" x="0" y="0" width="60" height="60"/>
                <use id="zoomplus" xlink:href="#zoomPlus" x="17" y="9" onmousedown="handleZoom(evt,'in')"/>
                <use id="zoomminus" xlink:href="#zoomMin" x="42" y="9" onmousedown="handleZoom(evt,'out')"/>
                <use id="reset" xlink:href="#resetDef" x="30" y="36" onmousedown="handleReset()"/>
                <g id="arrowUp" xlink:href="#dirArrow" transform="translate(30 24)" onmousedown="handlePan(0,-1)">
                  <use xlink:href="#rim" fill="#404040">
                        <set attributeName="fill" to="#808080" begin="arrowUp.mouseover" end="arrowUp.mouseout"/>
                  </use>
                  <path fill="none" stroke="white" stroke-width="1.5" d="M0,-3.0v7 M-2.5,-0.5L0,-3.0L2.5,-0.5"/>
                </g>
                <g id="arrowRight" xlink:href="#dirArrow" transform="rotate(90) translate(36 -43)" onmousedown="handlePan(1,0)">
                  <use xlink:href="#rim" fill="#404040">
                        <set attributeName="fill" to="#808080" begin="arrowRight.mouseover" end="arrowRight.mouseout"/>
                  </use>
                  <path fill="none" stroke="white" stroke-width="1.5" d="M0,-3.0v7 M-2.5,-0.5L0,-3.0L2.5,-0.5"/>
                </g>
                <g id="arrowDown" xlink:href="#dirArrow" transform="rotate(180) translate(-30 -48)" onmousedown="handlePan(0,1)">
                  <use xlink:href="#rim" fill="#404040">
                        <set attributeName="fill" to="#808080" begin="arrowDown.mouseover" end="arrowDown.mouseout"/>
                  </use>
                  <path fill="none" stroke="white" stroke-width="1.5" d="M0,-3.0v7 M-2.5,-0.5L0,-3.0L2.5,-0.5"/>
                </g>
                <g id="arrowLeft" xlink:href="#dirArrow" transform="rotate(270) translate(-36 17)" onmousedown="handlePan(-1,0)">
                  <use xlink:href="#rim" fill="#404040">
                        <set attributeName="fill" to="#808080" begin="arrowLeft.mouseover" end="arrowLeft.mouseout"/>
                  </use>
                  <path fill="none" stroke="white" stroke-width="1.5" d="M0,-3.0v7 M-2.5,-0.5L0,-3.0L2.5,-0.5"/>
                </g>
        </g>
        <svg viewBox="0 0 15 15" width="100%" height="30px" preserveAspectRatio="xMaxYMin meet">
         <g id="arrow_out" transform="scale(0.3 0.3)">
          <a xlink:href="ITSMFT_2ITS_2simulation_2include_2ITSSimulation_2Detector_8h__incl_org.svg" target="_base">
           <rect id="button" ry="5" rx="5" y="6" x="6" height="38" width="38"
                fill="#f2f5e9" fill-opacity="0.5" stroke="#606060" stroke-width="1.0"/>
           <path id="arrow"
             d="M 11.500037,31.436501 C 11.940474,20.09759 22.043105,11.32322 32.158766,21.979434 L 37.068811,17.246167 C 37.068811,17.246167 37.088388,32 37.088388,32 L 22.160133,31.978069 C 22.160133,31.978069 26.997745,27.140456 26.997745,27.140456 C 18.528582,18.264221 13.291696,25.230495 11.500037,31.436501 z"
             style="fill:#404040;"/>
          </a>
         </g>
        </svg>
</svg>
