<?xml version="1.0" encoding="UTF-8" standalone="no"?>
<!DOCTYPE svg PUBLIC "-//W3C//DTD SVG 1.1//EN"
 "http://www.w3.org/Graphics/SVG/1.1/DTD/svg11.dtd">
<!-- Generated by graphviz version 2.36.0 (20140111.2315)
 -->
<!-- Title: /home/travis/build/AliceO2Group/AliceO2/Framework/Core/include/Framework/runDataProcessing.h Pages: 1 -->
<svg width="3681pt" height="152pt"
 viewBox="0.00 0.00 3681.00 152.00" xmlns="http://www.w3.org/2000/svg" xmlns:xlink="http://www.w3.org/1999/xlink">
<g id="graph0" class="graph" transform="scale(1 1) rotate(0) translate(4 148)">
<title>/home/travis/build/AliceO2Group/AliceO2/Framework/Core/include/Framework/runDataProcessing.h</title>
<!-- Node1 -->
<g id="node1" class="node"><title>Node1</title>
<polygon fill="#bfbfbf" stroke="black" points="1678.5,-91 1678.5,-143 1841.5,-143 1841.5,-91 1678.5,-91"/>
<text text-anchor="start" x="1686.5" y="-131" font-family="Helvetica,sans-Serif" font-size="10.00">/home/travis/build</text>
<text text-anchor="start" x="1686.5" y="-120" font-family="Helvetica,sans-Serif" font-size="10.00">/AliceO2Group/AliceO2</text>
<text text-anchor="start" x="1686.5" y="-109" font-family="Helvetica,sans-Serif" font-size="10.00">/Framework/Core/include</text>
<text text-anchor="middle" x="1760" y="-98" font-family="Helvetica,sans-Serif" font-size="10.00">/Framework/runDataProcessing.h</text>
</g>
<!-- Node2 -->
<g id="node2" class="node"><title>Node2</title>
<g id="a_node2"><a xlink:href="../../d2/da2/test__DataAllocator_8cxx.html" target="_top" xlink:title="/home/travis/build\l/AliceO2Group/AliceO2\l/Framework/Core/test/test\l_DataAllocator.cxx">
<polygon fill="none" stroke="black" points="-0.5,-1 -0.5,-53 130.5,-53 130.5,-1 -0.5,-1"/>
<text text-anchor="start" x="7.5" y="-41" font-family="Helvetica,sans-Serif" font-size="10.00">/home/travis/build</text>
<text text-anchor="start" x="7.5" y="-30" font-family="Helvetica,sans-Serif" font-size="10.00">/AliceO2Group/AliceO2</text>
<text text-anchor="start" x="7.5" y="-19" font-family="Helvetica,sans-Serif" font-size="10.00">/Framework/Core/test/test</text>
<text text-anchor="middle" x="65" y="-8" font-family="Helvetica,sans-Serif" font-size="10.00">_DataAllocator.cxx</text>
</a>
</g>
</g>
<!-- Node1&#45;&gt;Node2 -->
<g id="edge1" class="edge"><title>Node1&#45;&gt;Node2</title>
<path fill="none" stroke="midnightblue" d="M1667.69,-116.091C1369.63,-115.815 435.15,-110.358 139,-54 136.325,-53.4909 133.616,-52.9026 130.894,-52.2506"/>
<polygon fill="midnightblue" stroke="midnightblue" points="1668.02,-119.591 1678.02,-116.098 1668.02,-112.591 1668.02,-119.591"/>
</g>
<!-- Node3 -->
<g id="node3" class="node"><title>Node3</title>
<g id="a_node3"><a xlink:href="../../d3/d4b/test__GenericSource_8cxx.html" target="_top" xlink:title="/home/travis/build\l/AliceO2Group/AliceO2\l/Framework/Core/test/test\l_GenericSource.cxx">
<polygon fill="none" stroke="black" points="148.5,-1 148.5,-53 279.5,-53 279.5,-1 148.5,-1"/>
<text text-anchor="start" x="156.5" y="-41" font-family="Helvetica,sans-Serif" font-size="10.00">/home/travis/build</text>
<text text-anchor="start" x="156.5" y="-30" font-family="Helvetica,sans-Serif" font-size="10.00">/AliceO2Group/AliceO2</text>
<text text-anchor="start" x="156.5" y="-19" font-family="Helvetica,sans-Serif" font-size="10.00">/Framework/Core/test/test</text>
<text text-anchor="middle" x="214" y="-8" font-family="Helvetica,sans-Serif" font-size="10.00">_GenericSource.cxx</text>
</a>
</g>
</g>
<!-- Node1&#45;&gt;Node3 -->
<g id="edge2" class="edge"><title>Node1&#45;&gt;Node3</title>
<path fill="none" stroke="midnightblue" d="M1668.11,-115.673C1389.05,-114.12 554.257,-105.203 288,-54 285.326,-53.4857 282.617,-52.8931 279.897,-52.2375"/>
<polygon fill="midnightblue" stroke="midnightblue" points="1668.18,-119.173 1678.2,-115.727 1668.22,-112.173 1668.18,-119.173"/>
</g>
<!-- Node4 -->
<g id="node4" class="node"><title>Node4</title>
<g id="a_node4"><a xlink:href="../../d3/d66/test__Parallel_8cxx.html" target="_top" xlink:title="/home/travis/build\l/AliceO2Group/AliceO2\l/Framework/Core/test/test\l_Parallel.cxx">
<polygon fill="none" stroke="black" points="297.5,-1 297.5,-53 428.5,-53 428.5,-1 297.5,-1"/>
<text text-anchor="start" x="305.5" y="-41" font-family="Helvetica,sans-Serif" font-size="10.00">/home/travis/build</text>
<text text-anchor="start" x="305.5" y="-30" font-family="Helvetica,sans-Serif" font-size="10.00">/AliceO2Group/AliceO2</text>
<text text-anchor="start" x="305.5" y="-19" font-family="Helvetica,sans-Serif" font-size="10.00">/Framework/Core/test/test</text>
<text text-anchor="middle" x="363" y="-8" font-family="Helvetica,sans-Serif" font-size="10.00">_Parallel.cxx</text>
</a>
</g>
</g>
<!-- Node1&#45;&gt;Node4 -->
<g id="edge3" class="edge"><title>Node1&#45;&gt;Node4</title>
<path fill="none" stroke="midnightblue" d="M1668.13,-115.162C1408.58,-112.244 673.365,-100.035 437,-54 434.327,-53.4794 431.62,-52.8814 428.9,-52.2213"/>
<polygon fill="midnightblue" stroke="midnightblue" points="1668.24,-118.663 1678.27,-115.274 1668.31,-111.664 1668.24,-118.663"/>
</g>
<!-- Node5 -->
<g id="node5" class="node"><title>Node5</title>
<g id="a_node5"><a xlink:href="../../d0/d0b/test__ParallelProducer_8cxx.html" target="_top" xlink:title="/home/travis/build\l/AliceO2Group/AliceO2\l/Framework/Core/test/test\l_ParallelProducer.cxx">
<polygon fill="none" stroke="black" points="446.5,-1 446.5,-53 577.5,-53 577.5,-1 446.5,-1"/>
<text text-anchor="start" x="454.5" y="-41" font-family="Helvetica,sans-Serif" font-size="10.00">/home/travis/build</text>
<text text-anchor="start" x="454.5" y="-30" font-family="Helvetica,sans-Serif" font-size="10.00">/AliceO2Group/AliceO2</text>
<text text-anchor="start" x="454.5" y="-19" font-family="Helvetica,sans-Serif" font-size="10.00">/Framework/Core/test/test</text>
<text text-anchor="middle" x="512" y="-8" font-family="Helvetica,sans-Serif" font-size="10.00">_ParallelProducer.cxx</text>
</a>
</g>
</g>
<!-- Node1&#45;&gt;Node5 -->
<g id="edge4" class="edge"><title>Node1&#45;&gt;Node5</title>
<path fill="none" stroke="midnightblue" d="M1668.26,-114.472C1429.59,-109.966 793.548,-94.4209 587,-54 583.889,-53.3913 580.732,-52.682 577.562,-51.8953"/>
<polygon fill="midnightblue" stroke="midnightblue" points="1668.23,-117.972 1678.29,-114.66 1668.36,-110.973 1668.23,-117.972"/>
</g>
<!-- Node6 -->
<g id="node6" class="node"><title>Node6</title>
<g id="a_node6"><a xlink:href="../../d5/d24/test__SimpleDataProcessingDevice01_8cxx.html" target="_top" xlink:title="/home/travis/build\l/AliceO2Group/AliceO2\l/Framework/Core/test/test\l_SimpleDataProcessingDevice01.cxx">
<polygon fill="none" stroke="black" points="596,-1 596,-53 778,-53 778,-1 596,-1"/>
<text text-anchor="start" x="604" y="-41" font-family="Helvetica,sans-Serif" font-size="10.00">/home/travis/build</text>
<text text-anchor="start" x="604" y="-30" font-family="Helvetica,sans-Serif" font-size="10.00">/AliceO2Group/AliceO2</text>
<text text-anchor="start" x="604" y="-19" font-family="Helvetica,sans-Serif" font-size="10.00">/Framework/Core/test/test</text>
<text text-anchor="middle" x="687" y="-8" font-family="Helvetica,sans-Serif" font-size="10.00">_SimpleDataProcessingDevice01.cxx</text>
</a>
</g>
</g>
<!-- Node1&#45;&gt;Node6 -->
<g id="edge5" class="edge"><title>Node1&#45;&gt;Node6</title>
<path fill="none" stroke="midnightblue" d="M1668.27,-115.962C1494.96,-114.608 1107.97,-105.47 787,-54 784.078,-53.5314 781.116,-53.0151 778.134,-52.4594"/>
<polygon fill="midnightblue" stroke="midnightblue" points="1668.35,-119.462 1678.37,-116.034 1668.4,-112.462 1668.35,-119.462"/>
</g>
<!-- Node7 -->
<g id="node7" class="node"><title>Node7</title>
<g id="a_node7"><a xlink:href="../../da/d12/test__SimpleStatefulProcessing01_8cxx.html" target="_top" xlink:title="/home/travis/build\l/AliceO2Group/AliceO2\l/Framework/Core/test/test\l_SimpleStatefulProcessing01.cxx">
<polygon fill="none" stroke="black" points="796,-1 796,-53 960,-53 960,-1 796,-1"/>
<text text-anchor="start" x="804" y="-41" font-family="Helvetica,sans-Serif" font-size="10.00">/home/travis/build</text>
<text text-anchor="start" x="804" y="-30" font-family="Helvetica,sans-Serif" font-size="10.00">/AliceO2Group/AliceO2</text>
<text text-anchor="start" x="804" y="-19" font-family="Helvetica,sans-Serif" font-size="10.00">/Framework/Core/test/test</text>
<text text-anchor="middle" x="878" y="-8" font-family="Helvetica,sans-Serif" font-size="10.00">_SimpleStatefulProcessing01.cxx</text>
</a>
</g>
</g>
<!-- Node1&#45;&gt;Node7 -->
<g id="edge6" class="edge"><title>Node1&#45;&gt;Node7</title>
<path fill="none" stroke="midnightblue" d="M1668.06,-114.742C1519.8,-111.386 1219.21,-99.0816 969,-54 966.089,-53.4756 963.138,-52.8964 960.166,-52.2726"/>
<polygon fill="midnightblue" stroke="midnightblue" points="1668.39,-118.25 1678.47,-114.969 1668.55,-111.252 1668.39,-118.25"/>
</g>
<!-- Node8 -->
<g id="node8" class="node"><title>Node8</title>
<g id="a_node8"><a xlink:href="../../d3/d4e/test__SingleDataSource_8cxx.html" target="_top" xlink:title="/home/travis/build\l/AliceO2Group/AliceO2\l/Framework/Core/test/test\l_SingleDataSource.cxx">
<polygon fill="none" stroke="black" points="978.5,-1 978.5,-53 1109.5,-53 1109.5,-1 978.5,-1"/>
<text text-anchor="start" x="986.5" y="-41" font-family="Helvetica,sans-Serif" font-size="10.00">/home/travis/build</text>
<text text-anchor="start" x="986.5" y="-30" font-family="Helvetica,sans-Serif" font-size="10.00">/AliceO2Group/AliceO2</text>
<text text-anchor="start" x="986.5" y="-19" font-family="Helvetica,sans-Serif" font-size="10.00">/Framework/Core/test/test</text>
<text text-anchor="middle" x="1044" y="-8" font-family="Helvetica,sans-Serif" font-size="10.00">_SingleDataSource.cxx</text>
</a>
</g>
</g>
<!-- Node1&#45;&gt;Node8 -->
<g id="edge7" class="edge"><title>Node1&#45;&gt;Node8</title>
<path fill="none" stroke="midnightblue" d="M1668.11,-114.077C1542.5,-109.878 1310.78,-96.517 1118,-54 1115.21,-53.3841 1112.38,-52.6943 1109.53,-51.9469"/>
<polygon fill="midnightblue" stroke="midnightblue" points="1668.34,-117.586 1678.45,-114.409 1668.57,-110.589 1668.34,-117.586"/>
</g>
<!-- Node9 -->
<g id="node9" class="node"><title>Node9</title>
<g id="a_node9"><a xlink:href="../../d1/d4f/test__TimePipeline_8cxx.html" target="_top" xlink:title="/home/travis/build\l/AliceO2Group/AliceO2\l/Framework/Core/test/test\l_TimePipeline.cxx">
<polygon fill="none" stroke="black" points="1127.5,-1 1127.5,-53 1258.5,-53 1258.5,-1 1127.5,-1"/>
<text text-anchor="start" x="1135.5" y="-41" font-family="Helvetica,sans-Serif" font-size="10.00">/home/travis/build</text>
<text text-anchor="start" x="1135.5" y="-30" font-family="Helvetica,sans-Serif" font-size="10.00">/AliceO2Group/AliceO2</text>
<text text-anchor="start" x="1135.5" y="-19" font-family="Helvetica,sans-Serif" font-size="10.00">/Framework/Core/test/test</text>
<text text-anchor="middle" x="1193" y="-8" font-family="Helvetica,sans-Serif" font-size="10.00">_TimePipeline.cxx</text>
</a>
</g>
</g>
<!-- Node1&#45;&gt;Node9 -->
<g id="edge8" class="edge"><title>Node1&#45;&gt;Node9</title>
<path fill="none" stroke="midnightblue" d="M1668.31,-110.325C1568.53,-102.797 1404.8,-86.4807 1267,-54 1264.22,-53.3439 1261.39,-52.6205 1258.55,-51.8453"/>
<polygon fill="midnightblue" stroke="midnightblue" points="1668.13,-113.821 1678.36,-111.07 1668.65,-106.84 1668.13,-113.821"/>
</g>
<!-- Node10 -->
<g id="node10" class="node"><title>Node10</title>
<g id="a_node10"><a xlink:href="../../d2/d5d/test__WorkflowOptions_8cxx.html" target="_top" xlink:title="/home/travis/build\l/AliceO2Group/AliceO2\l/Framework/Core/test/test\l_WorkflowOptions.cxx">
<polygon fill="none" stroke="black" points="1276.5,-1 1276.5,-53 1407.5,-53 1407.5,-1 1276.5,-1"/>
<text text-anchor="start" x="1284.5" y="-41" font-family="Helvetica,sans-Serif" font-size="10.00">/home/travis/build</text>
<text text-anchor="start" x="1284.5" y="-30" font-family="Helvetica,sans-Serif" font-size="10.00">/AliceO2Group/AliceO2</text>
<text text-anchor="start" x="1284.5" y="-19" font-family="Helvetica,sans-Serif" font-size="10.00">/Framework/Core/test/test</text>
<text text-anchor="middle" x="1342" y="-8" font-family="Helvetica,sans-Serif" font-size="10.00">_WorkflowOptions.cxx</text>
</a>
</g>
</g>
<!-- Node1&#45;&gt;Node10 -->
<g id="edge9" class="edge"><title>Node1&#45;&gt;Node10</title>
<path fill="none" stroke="midnightblue" d="M1668.14,-103.521C1598.34,-93.0596 1500.31,-76.2555 1416,-54 1413.24,-53.2701 1410.43,-52.485 1407.6,-51.6587"/>
<polygon fill="midnightblue" stroke="midnightblue" points="1667.82,-107.012 1678.23,-105.018 1668.85,-100.088 1667.82,-107.012"/>
</g>
<!-- Node11 -->
<g id="node11" class="node"><title>Node11</title>
<g id="a_node11"><a xlink:href="../../d2/dad/dataSamplingFullChain_8cxx.html" target="_top" xlink:title="/home/travis/build\l/AliceO2Group/AliceO2\l/Framework/TestWorkflows\l/src/dataSamplingFullChain.cxx">
<polygon fill="none" stroke="black" points="1425.5,-1 1425.5,-53 1580.5,-53 1580.5,-1 1425.5,-1"/>
<text text-anchor="start" x="1433.5" y="-41" font-family="Helvetica,sans-Serif" font-size="10.00">/home/travis/build</text>
<text text-anchor="start" x="1433.5" y="-30" font-family="Helvetica,sans-Serif" font-size="10.00">/AliceO2Group/AliceO2</text>
<text text-anchor="start" x="1433.5" y="-19" font-family="Helvetica,sans-Serif" font-size="10.00">/Framework/TestWorkflows</text>
<text text-anchor="middle" x="1503" y="-8" font-family="Helvetica,sans-Serif" font-size="10.00">/src/dataSamplingFullChain.cxx</text>
</a>
</g>
</g>
<!-- Node1&#45;&gt;Node11 -->
<g id="edge10" class="edge"><title>Node1&#45;&gt;Node11</title>
<path fill="none" stroke="midnightblue" d="M1677.23,-87.6588C1644.79,-76.5501 1607.87,-63.91 1576.4,-53.1328"/>
<polygon fill="midnightblue" stroke="midnightblue" points="1676.1,-90.9722 1686.7,-90.9005 1678.37,-84.3497 1676.1,-90.9722"/>
</g>
<!-- Node12 -->
<g id="node12" class="node"><title>Node12</title>
<g id="a_node12"><a xlink:href="../../d3/dbe/dataSamplingParallel_8cxx.html" target="_top" xlink:title="/home/travis/build\l/AliceO2Group/AliceO2\l/Framework/TestWorkflows\l/src/dataSamplingParallel.cxx">
<polygon fill="none" stroke="black" points="1599,-1 1599,-53 1745,-53 1745,-1 1599,-1"/>
<text text-anchor="start" x="1607" y="-41" font-family="Helvetica,sans-Serif" font-size="10.00">/home/travis/build</text>
<text text-anchor="start" x="1607" y="-30" font-family="Helvetica,sans-Serif" font-size="10.00">/AliceO2Group/AliceO2</text>
<text text-anchor="start" x="1607" y="-19" font-family="Helvetica,sans-Serif" font-size="10.00">/Framework/TestWorkflows</text>
<text text-anchor="middle" x="1672" y="-8" font-family="Helvetica,sans-Serif" font-size="10.00">/src/dataSamplingParallel.cxx</text>
</a>
</g>
</g>
<!-- Node1&#45;&gt;Node12 -->
<g id="edge11" class="edge"><title>Node1&#45;&gt;Node12</title>
<path fill="none" stroke="midnightblue" d="M1727.43,-83.4308C1717.41,-73.4069 1706.53,-62.5325 1697.09,-53.0921"/>
<polygon fill="midnightblue" stroke="midnightblue" points="1725,-85.9505 1734.55,-90.5468 1729.95,-81.0008 1725,-85.9505"/>
</g>
<!-- Node13 -->
<g id="node13" class="node"><title>Node13</title>
<g id="a_node13"><a xlink:href="../../de/da3/dataSamplingPodAndRoot_8cxx.html" target="_top" xlink:title="/home/travis/build\l/AliceO2Group/AliceO2\l/Framework/TestWorkflows\l/src/dataSamplingPodAndRoot.cxx">
<polygon fill="none" stroke="black" points="1763,-1 1763,-53 1933,-53 1933,-1 1763,-1"/>
<text text-anchor="start" x="1771" y="-41" font-family="Helvetica,sans-Serif" font-size="10.00">/home/travis/build</text>
<text text-anchor="start" x="1771" y="-30" font-family="Helvetica,sans-Serif" font-size="10.00">/AliceO2Group/AliceO2</text>
<text text-anchor="start" x="1771" y="-19" font-family="Helvetica,sans-Serif" font-size="10.00">/Framework/TestWorkflows</text>
<text text-anchor="middle" x="1848" y="-8" font-family="Helvetica,sans-Serif" font-size="10.00">/src/dataSamplingPodAndRoot.cxx</text>
</a>
</g>
</g>
<!-- Node1&#45;&gt;Node13 -->
<g id="edge12" class="edge"><title>Node1&#45;&gt;Node13</title>
<path fill="none" stroke="midnightblue" d="M1792.57,-83.4308C1802.59,-73.4069 1813.47,-62.5325 1822.91,-53.0921"/>
<polygon fill="midnightblue" stroke="midnightblue" points="1790.05,-81.0008 1785.45,-90.5468 1795,-85.9505 1790.05,-81.0008"/>
</g>
<!-- Node14 -->
<g id="node14" class="node"><title>Node14</title>
<g id="a_node14"><a xlink:href="../../db/d9e/dataSamplingTimePipeline_8cxx.html" target="_top" xlink:title="/home/travis/build\l/AliceO2Group/AliceO2\l/Framework/TestWorkflows\l/src/dataSamplingTimePipeline.cxx">
<polygon fill="none" stroke="black" points="1951,-1 1951,-53 2121,-53 2121,-1 1951,-1"/>
<text text-anchor="start" x="1959" y="-41" font-family="Helvetica,sans-Serif" font-size="10.00">/home/travis/build</text>
<text text-anchor="start" x="1959" y="-30" font-family="Helvetica,sans-Serif" font-size="10.00">/AliceO2Group/AliceO2</text>
<text text-anchor="start" x="1959" y="-19" font-family="Helvetica,sans-Serif" font-size="10.00">/Framework/TestWorkflows</text>
<text text-anchor="middle" x="2036" y="-8" font-family="Helvetica,sans-Serif" font-size="10.00">/src/dataSamplingTimePipeline.cxx</text>
</a>
</g>
</g>
<!-- Node1&#45;&gt;Node14 -->
<g id="edge13" class="edge"><title>Node1&#45;&gt;Node14</title>
<path fill="none" stroke="midnightblue" d="M1848.44,-87.8018C1883.39,-76.6586 1923.23,-63.9562 1957.17,-53.1328"/>
<polygon fill="midnightblue" stroke="midnightblue" points="1847.19,-84.5281 1838.72,-90.9005 1849.31,-91.1973 1847.19,-84.5281"/>
</g>
<!-- Node15 -->
<g id="node15" class="node"><title>Node15</title>
<g id="a_node15"><a xlink:href="../../d4/dbb/o2DiamondWorkflow_8cxx.html" target="_top" xlink:title="/home/travis/build\l/AliceO2Group/AliceO2\l/Framework/TestWorkflows\l/src/o2DiamondWorkflow.cxx">
<polygon fill="none" stroke="black" points="2139,-1 2139,-53 2285,-53 2285,-1 2139,-1"/>
<text text-anchor="start" x="2147" y="-41" font-family="Helvetica,sans-Serif" font-size="10.00">/home/travis/build</text>
<text text-anchor="start" x="2147" y="-30" font-family="Helvetica,sans-Serif" font-size="10.00">/AliceO2Group/AliceO2</text>
<text text-anchor="start" x="2147" y="-19" font-family="Helvetica,sans-Serif" font-size="10.00">/Framework/TestWorkflows</text>
<text text-anchor="middle" x="2212" y="-8" font-family="Helvetica,sans-Serif" font-size="10.00">/src/o2DiamondWorkflow.cxx</text>
</a>
</g>
</g>
<!-- Node1&#45;&gt;Node15 -->
<g id="edge14" class="edge"><title>Node1&#45;&gt;Node15</title>
<path fill="none" stroke="midnightblue" d="M1851.44,-104.34C1926.77,-93.8604 2036.07,-76.6407 2130,-54 2132.9,-53.3001 2135.85,-52.5508 2138.83,-51.7642"/>
<polygon fill="midnightblue" stroke="midnightblue" points="1850.93,-100.876 1841.5,-105.71 1851.89,-107.811 1850.93,-100.876"/>
</g>
<!-- Node16 -->
<g id="node16" class="node"><title>Node16</title>
<g id="a_node16"><a xlink:href="../../da/dfd/o2DummyWorkflow_8cxx.html" target="_top" xlink:title="/home/travis/build\l/AliceO2Group/AliceO2\l/Framework/TestWorkflows\l/src/o2DummyWorkflow.cxx">
<polygon fill="none" stroke="black" points="2303.5,-1 2303.5,-53 2444.5,-53 2444.5,-1 2303.5,-1"/>
<text text-anchor="start" x="2311.5" y="-41" font-family="Helvetica,sans-Serif" font-size="10.00">/home/travis/build</text>
<text text-anchor="start" x="2311.5" y="-30" font-family="Helvetica,sans-Serif" font-size="10.00">/AliceO2Group/AliceO2</text>
<text text-anchor="start" x="2311.5" y="-19" font-family="Helvetica,sans-Serif" font-size="10.00">/Framework/TestWorkflows</text>
<text text-anchor="middle" x="2374" y="-8" font-family="Helvetica,sans-Serif" font-size="10.00">/src/o2DummyWorkflow.cxx</text>
</a>
</g>
</g>
<!-- Node1&#45;&gt;Node16 -->
<g id="edge15" class="edge"><title>Node1&#45;&gt;Node16</title>
<path fill="none" stroke="midnightblue" d="M1851.93,-110.891C1959.06,-103.658 2140.96,-87.4056 2294,-54 2297,-53.346 2300.04,-52.6243 2303.1,-51.8504"/>
<polygon fill="midnightblue" stroke="midnightblue" points="1851.54,-107.408 1841.8,-111.563 1852.01,-114.393 1851.54,-107.408"/>
</g>
<!-- Node17 -->
<g id="node17" class="node"><title>Node17</title>
<g id="a_node17"><a xlink:href="../../d3/d09/o2ParallelWorkflow_8cxx.html" target="_top" xlink:title="/home/travis/build\l/AliceO2Group/AliceO2\l/Framework/TestWorkflows\l/src/o2ParallelWorkflow.cxx">
<polygon fill="none" stroke="black" points="2462.5,-1 2462.5,-53 2601.5,-53 2601.5,-1 2462.5,-1"/>
<text text-anchor="start" x="2470.5" y="-41" font-family="Helvetica,sans-Serif" font-size="10.00">/home/travis/build</text>
<text text-anchor="start" x="2470.5" y="-30" font-family="Helvetica,sans-Serif" font-size="10.00">/AliceO2Group/AliceO2</text>
<text text-anchor="start" x="2470.5" y="-19" font-family="Helvetica,sans-Serif" font-size="10.00">/Framework/TestWorkflows</text>
<text text-anchor="middle" x="2532" y="-8" font-family="Helvetica,sans-Serif" font-size="10.00">/src/o2ParallelWorkflow.cxx</text>
</a>
</g>
</g>
<!-- Node1&#45;&gt;Node17 -->
<g id="edge16" class="edge"><title>Node1&#45;&gt;Node17</title>
<path fill="none" stroke="midnightblue" d="M1851.89,-114.44C1985.52,-110.675 2240.71,-97.8262 2453,-54 2456.11,-53.3577 2459.27,-52.6339 2462.45,-51.8471"/>
<polygon fill="midnightblue" stroke="midnightblue" points="1851.6,-110.947 1841.7,-114.717 1851.79,-117.944 1851.6,-110.947"/>
</g>
<!-- Node18 -->
<g id="node18" class="node"><title>Node18</title>
<g id="a_node18"><a xlink:href="../../db/dbe/test__o2ITSCluserizer_8cxx.html" target="_top" xlink:title="/home/travis/build\l/AliceO2Group/AliceO2\l/Framework/TestWorkflows\l/src/test_o2ITSCluserizer.cxx">
<polygon fill="none" stroke="black" points="2619.5,-1 2619.5,-53 2766.5,-53 2766.5,-1 2619.5,-1"/>
<text text-anchor="start" x="2627.5" y="-41" font-family="Helvetica,sans-Serif" font-size="10.00">/home/travis/build</text>
<text text-anchor="start" x="2627.5" y="-30" font-family="Helvetica,sans-Serif" font-size="10.00">/AliceO2Group/AliceO2</text>
<text text-anchor="start" x="2627.5" y="-19" font-family="Helvetica,sans-Serif" font-size="10.00">/Framework/TestWorkflows</text>
<text text-anchor="middle" x="2693" y="-8" font-family="Helvetica,sans-Serif" font-size="10.00">/src/test_o2ITSCluserizer.cxx</text>
</a>
</g>
</g>
<!-- Node1&#45;&gt;Node18 -->
<g id="edge17" class="edge"><title>Node1&#45;&gt;Node18</title>
<path fill="none" stroke="midnightblue" d="M1851.76,-116.204C2008.58,-115.024 2337.64,-105.87 2610,-54 2613.12,-53.4068 2616.28,-52.7359 2619.46,-52.0041"/>
<polygon fill="midnightblue" stroke="midnightblue" points="1851.65,-112.705 1841.68,-116.271 1851.7,-119.705 1851.65,-112.705"/>
</g>
<!-- Node19 -->
<g id="node19" class="node"><title>Node19</title>
<g id="a_node19"><a xlink:href="../../d6/d4c/test__o2RootMessageWorkflow_8cxx.html" target="_top" xlink:title="/home/travis/build\l/AliceO2Group/AliceO2\l/Framework/TestWorkflows\l/src/test_o2RootMessageWorkflow.cxx">
<polygon fill="none" stroke="black" points="2784.5,-1 2784.5,-53 2973.5,-53 2973.5,-1 2784.5,-1"/>
<text text-anchor="start" x="2792.5" y="-41" font-family="Helvetica,sans-Serif" font-size="10.00">/home/travis/build</text>
<text text-anchor="start" x="2792.5" y="-30" font-family="Helvetica,sans-Serif" font-size="10.00">/AliceO2Group/AliceO2</text>
<text text-anchor="start" x="2792.5" y="-19" font-family="Helvetica,sans-Serif" font-size="10.00">/Framework/TestWorkflows</text>
<text text-anchor="middle" x="2879" y="-8" font-family="Helvetica,sans-Serif" font-size="10.00">/src/test_o2RootMessageWorkflow.cxx</text>
</a>
</g>
</g>
<!-- Node1&#45;&gt;Node19 -->
<g id="edge18" class="edge"><title>Node1&#45;&gt;Node19</title>
<path fill="none" stroke="midnightblue" d="M1851.94,-116.025C2030.79,-114.831 2437.6,-106.026 2775,-54 2778.13,-53.5178 2781.3,-52.985 2784.49,-52.4105"/>
<polygon fill="midnightblue" stroke="midnightblue" points="1851.76,-112.526 1841.79,-116.086 1851.81,-119.526 1851.76,-112.526"/>
</g>
<!-- Node20 -->
<g id="node20" class="node"><title>Node20</title>
<g id="a_node20"><a xlink:href="../../d1/d09/test__o2TPCSimulation_8cxx.html" target="_top" xlink:title="/home/travis/build\l/AliceO2Group/AliceO2\l/Framework/TestWorkflows\l/src/test_o2TPCSimulation.cxx">
<polygon fill="none" stroke="black" points="2991.5,-1 2991.5,-53 3144.5,-53 3144.5,-1 2991.5,-1"/>
<text text-anchor="start" x="2999.5" y="-41" font-family="Helvetica,sans-Serif" font-size="10.00">/home/travis/build</text>
<text text-anchor="start" x="2999.5" y="-30" font-family="Helvetica,sans-Serif" font-size="10.00">/AliceO2Group/AliceO2</text>
<text text-anchor="start" x="2999.5" y="-19" font-family="Helvetica,sans-Serif" font-size="10.00">/Framework/TestWorkflows</text>
<text text-anchor="middle" x="3068" y="-8" font-family="Helvetica,sans-Serif" font-size="10.00">/src/test_o2TPCSimulation.cxx</text>
</a>
</g>
</g>
<!-- Node1&#45;&gt;Node20 -->
<g id="edge19" class="edge"><title>Node1&#45;&gt;Node20</title>
<path fill="none" stroke="midnightblue" d="M1851.95,-114.224C2097.56,-109.02 2764.97,-91.7324 2982,-54 2985.07,-53.4656 2988.19,-52.8561 2991.33,-52.1863"/>
<polygon fill="midnightblue" stroke="midnightblue" points="1851.56,-110.732 1841.63,-114.441 1851.7,-117.73 1851.56,-110.732"/>
</g>
<!-- Node21 -->
<g id="node21" class="node"><title>Node21</title>
<g id="a_node21"><a xlink:href="../../da/d19/test__RawDeviceInjector_8cxx.html" target="_top" xlink:title="/home/travis/build\l/AliceO2Group/AliceO2\l/Framework/TestWorkflows\l/src/test_RawDeviceInjector.cxx">
<polygon fill="none" stroke="black" points="3163,-1 3163,-53 3323,-53 3323,-1 3163,-1"/>
<text text-anchor="start" x="3171" y="-41" font-family="Helvetica,sans-Serif" font-size="10.00">/home/travis/build</text>
<text text-anchor="start" x="3171" y="-30" font-family="Helvetica,sans-Serif" font-size="10.00">/AliceO2Group/AliceO2</text>
<text text-anchor="start" x="3171" y="-19" font-family="Helvetica,sans-Serif" font-size="10.00">/Framework/TestWorkflows</text>
<text text-anchor="middle" x="3243" y="-8" font-family="Helvetica,sans-Serif" font-size="10.00">/src/test_RawDeviceInjector.cxx</text>
</a>
</g>
</g>
<!-- Node1&#45;&gt;Node21 -->
<g id="edge20" class="edge"><title>Node1&#45;&gt;Node21</title>
<path fill="none" stroke="midnightblue" d="M1851.91,-114.745C2120.56,-110.628 2901.38,-95.3432 3153,-54 3156.21,-53.4726 3159.47,-52.8689 3162.75,-52.2041"/>
<polygon fill="midnightblue" stroke="midnightblue" points="1851.75,-111.247 1841.8,-114.899 1851.85,-118.246 1851.75,-111.247"/>
</g>
<!-- Node22 -->
<g id="node22" class="node"><title>Node22</title>
<g id="a_node22"><a xlink:href="../../db/d78/test__MakeDPLObjects_8cxx.html" target="_top" xlink:title="/home/travis/build\l/AliceO2Group/AliceO2\l/Framework/TestWorkflows\l/test/test_MakeDPLObjects.cxx">
<polygon fill="none" stroke="black" points="3341.5,-1 3341.5,-53 3498.5,-53 3498.5,-1 3341.5,-1"/>
<text text-anchor="start" x="3349.5" y="-41" font-family="Helvetica,sans-Serif" font-size="10.00">/home/travis/build</text>
<text text-anchor="start" x="3349.5" y="-30" font-family="Helvetica,sans-Serif" font-size="10.00">/AliceO2Group/AliceO2</text>
<text text-anchor="start" x="3349.5" y="-19" font-family="Helvetica,sans-Serif" font-size="10.00">/Framework/TestWorkflows</text>
<text text-anchor="middle" x="3420" y="-8" font-family="Helvetica,sans-Serif" font-size="10.00">/test/test_MakeDPLObjects.cxx</text>
</a>
</g>
</g>
<!-- Node1&#45;&gt;Node22 -->
<g id="edge21" class="edge"><title>Node1&#45;&gt;Node22</title>
<path fill="none" stroke="midnightblue" d="M1851.93,-115.36C2143.37,-112.863 3044.36,-101.409 3332,-54 3334.99,-53.5078 3338.01,-52.9454 3341.06,-52.326"/>
<polygon fill="midnightblue" stroke="midnightblue" points="1851.8,-111.861 1841.83,-115.446 1851.86,-118.861 1851.8,-111.861"/>
</g>
<!-- Node23 -->
<g id="node23" class="node"><title>Node23</title>
<g id="a_node23"><a xlink:href="../../dc/df2/SimpleMergerWorkflow_8cxx.html" target="_top" xlink:title="/home/travis/build\l/AliceO2Group/AliceO2\l/Utilities/QC/Workflow\l/src/SimpleMergerWorkflow.cxx">
<polygon fill="none" stroke="black" points="3517,-1 3517,-53 3673,-53 3673,-1 3517,-1"/>
<text text-anchor="start" x="3525" y="-41" font-family="Helvetica,sans-Serif" font-size="10.00">/home/travis/build</text>
<text text-anchor="start" x="3525" y="-30" font-family="Helvetica,sans-Serif" font-size="10.00">/AliceO2Group/AliceO2</text>
<text text-anchor="start" x="3525" y="-19" font-family="Helvetica,sans-Serif" font-size="10.00">/Utilities/QC/Workflow</text>
<text text-anchor="middle" x="3595" y="-8" font-family="Helvetica,sans-Serif" font-size="10.00">/src/SimpleMergerWorkflow.cxx</text>
</a>
</g>
</g>
<!-- Node1&#45;&gt;Node23 -->
<g id="edge22" class="edge"><title>Node1&#45;&gt;Node23</title>
<path fill="none" stroke="midnightblue" d="M1852.07,-115.785C2164.67,-114.577 3183.88,-106.601 3507,-54 3510.14,-53.4881 3513.34,-52.8974 3516.55,-52.2435"/>
<polygon fill="midnightblue" stroke="midnightblue" points="1851.68,-112.286 1841.69,-115.824 1851.71,-119.286 1851.68,-112.286"/>
</g>
</g>
</svg>
