<?xml version="1.0" encoding="UTF-8" standalone="no"?>
<!DOCTYPE svg PUBLIC "-//W3C//DTD SVG 1.1//EN"
 "http://www.w3.org/Graphics/SVG/1.1/DTD/svg11.dtd">
<!-- Generated by graphviz version 2.36.0 (20140111.2315)
 -->
<!-- Title: o2::TPC::ClusterHardware Pages: 1 -->
<svg width="224pt" height="238pt"
 viewBox="0.00 0.00 224.00 238.00" xmlns="http://www.w3.org/2000/svg" xmlns:xlink="http://www.w3.org/1999/xlink">
<g id="graph0" class="graph" transform="scale(1 1) rotate(0) translate(4 234)">
<title>o2::TPC::ClusterHardware</title>
<!-- Node1 -->
<g id="node1" class="node"><title>Node1</title>
<polygon fill="#bfbfbf" stroke="black" points="25.5,-1 25.5,-91 158.5,-91 158.5,-1 25.5,-1"/>
<text text-anchor="middle" x="92" y="-79" font-family="Helvetica,sans-Serif" font-size="10.00">o2::TPC::ClusterHardware</text>
<polyline fill="none" stroke="black" points="25.5,-72 158.5,-72 "/>
<text text-anchor="middle" x="92" y="-60" font-family="Helvetica,sans-Serif" font-size="10.00"> </text>
<polyline fill="none" stroke="black" points="25.5,-53 158.5,-53 "/>
<text text-anchor="start" x="33.5" y="-41" font-family="Helvetica,sans-Serif" font-size="10.00">+ getPad()</text>
<text text-anchor="start" x="33.5" y="-30" font-family="Helvetica,sans-Serif" font-size="10.00">+ getTimeLocal()</text>
<text text-anchor="start" x="33.5" y="-19" font-family="Helvetica,sans-Serif" font-size="10.00">+ getSigmaPad2()</text>
<text text-anchor="start" x="33.5" y="-8" font-family="Helvetica,sans-Serif" font-size="10.00">+ getSigmaTime2()</text>
</g>
<!-- Node2 -->
<g id="node2" class="node"><title>Node2</title>
<polygon fill="none" stroke="#bfbfbf" points="-0.5,-172.5 -0.5,-229.5 50.5,-229.5 50.5,-172.5 -0.5,-172.5"/>
<text text-anchor="middle" x="25" y="-217.5" font-family="Helvetica,sans-Serif" font-size="10.00">uint16_t</text>
<polyline fill="none" stroke="#bfbfbf" points="-0.5,-210.5 50.5,-210.5 "/>
<text text-anchor="middle" x="25" y="-198.5" font-family="Helvetica,sans-Serif" font-size="10.00"> </text>
<polyline fill="none" stroke="#bfbfbf" points="-0.5,-191.5 50.5,-191.5 "/>
<text text-anchor="middle" x="25" y="-179.5" font-family="Helvetica,sans-Serif" font-size="10.00"> </text>
</g>
<!-- Node2&#45;&gt;Node1 -->
<g id="edge1" class="edge"><title>Node2&#45;&gt;Node1</title>
<path fill="none" stroke="#404040" d="M33.511,-172.361C39.3875,-154.314 47.7823,-130.402 57,-110 58.1736,-107.402 59.4155,-104.768 60.7043,-102.125"/>
<polygon fill="none" stroke="#404040" points="60.7809,-101.973 59.929,-94.8128 66.2111,-91.2723 67.0631,-98.4329 60.7809,-101.973"/>
<text text-anchor="middle" x="72.5" y="-135" font-family="Helvetica,sans-Serif" font-size="10.00"> +qTot</text>
<text text-anchor="middle" x="72.5" y="-124" font-family="Helvetica,sans-Serif" font-size="10.00">+qMax</text>
</g>
<!-- Node3 -->
<g id="node3" class="node"><title>Node3</title>
<polygon fill="none" stroke="#bfbfbf" points="69,-172.5 69,-229.5 115,-229.5 115,-172.5 69,-172.5"/>
<text text-anchor="middle" x="92" y="-217.5" font-family="Helvetica,sans-Serif" font-size="10.00">uint8_t</text>
<polyline fill="none" stroke="#bfbfbf" points="69,-210.5 115,-210.5 "/>
<text text-anchor="middle" x="92" y="-198.5" font-family="Helvetica,sans-Serif" font-size="10.00"> </text>
<polyline fill="none" stroke="#bfbfbf" points="69,-191.5 115,-191.5 "/>
<text text-anchor="middle" x="92" y="-179.5" font-family="Helvetica,sans-Serif" font-size="10.00"> </text>
</g>
<!-- Node3&#45;&gt;Node1 -->
<g id="edge2" class="edge"><title>Node3&#45;&gt;Node1</title>
<path fill="none" stroke="#404040" d="M92,-172.293C92,-153.007 92,-126.619 92,-103.034"/>
<polygon fill="none" stroke="#404040" points="92.0001,-103.008 88,-97.0078 92,-91.0078 96,-97.0078 92.0001,-103.008"/>
<text text-anchor="middle" x="107.5" y="-135" font-family="Helvetica,sans-Serif" font-size="10.00"> +flags</text>
<text text-anchor="middle" x="107.5" y="-124" font-family="Helvetica,sans-Serif" font-size="10.00">+row</text>
</g>
<!-- Node4 -->
<g id="node4" class="node"><title>Node4</title>
<g id="a_node4"><a xlink:href="../../d4/dc3/classfloat.html" target="_top" xlink:title="{float\n||}">
<polygon fill="none" stroke="black" points="133.5,-172.5 133.5,-229.5 168.5,-229.5 168.5,-172.5 133.5,-172.5"/>
<text text-anchor="middle" x="151" y="-217.5" font-family="Helvetica,sans-Serif" font-size="10.00">float</text>
<polyline fill="none" stroke="black" points="133.5,-210.5 168.5,-210.5 "/>
<text text-anchor="middle" x="151" y="-198.5" font-family="Helvetica,sans-Serif" font-size="10.00"> </text>
<polyline fill="none" stroke="black" points="133.5,-191.5 168.5,-191.5 "/>
<text text-anchor="middle" x="151" y="-179.5" font-family="Helvetica,sans-Serif" font-size="10.00"> </text>
</a>
</g>
</g>
<!-- Node4&#45;&gt;Node1 -->
<g id="edge3" class="edge"><title>Node4&#45;&gt;Node1</title>
<path fill="none" stroke="#404040" d="M145.463,-172.254C141.403,-154.163 135.176,-130.242 127,-110 125.933,-107.357 124.778,-104.686 123.56,-102.012"/>
<polygon fill="none" stroke="#404040" points="123.492,-101.87 117.276,-98.215 118.259,-91.0713 124.475,-94.7265 123.492,-101.87"/>
<text text-anchor="middle" x="178.5" y="-146" font-family="Helvetica,sans-Serif" font-size="10.00"> +sigmaPad2Pre</text>
<text text-anchor="middle" x="178.5" y="-135" font-family="Helvetica,sans-Serif" font-size="10.00">+timePre</text>
<text text-anchor="middle" x="178.5" y="-124" font-family="Helvetica,sans-Serif" font-size="10.00">+sigmaTime2Pre</text>
<text text-anchor="middle" x="178.5" y="-113" font-family="Helvetica,sans-Serif" font-size="10.00">+padPre</text>
</g>
</g>
</svg>
