<?xml version="1.0" encoding="UTF-8" standalone="no"?>
<!DOCTYPE svg PUBLIC "-//W3C//DTD SVG 1.1//EN"
 "http://www.w3.org/Graphics/SVG/1.1/DTD/svg11.dtd">
<!-- Generated by graphviz version 2.36.0 (20140111.2315)
 -->
<!-- Title: /home/travis/build/AliceO2Group/AliceO2/Detectors/ITSMFT/ITS/reconstruction/src/CATracker.cxx Pages: 1 -->
<!--zoomable 650 -->
<svg id="main" version="1.1" xmlns="http://www.w3.org/2000/svg" xmlns:xlink="http://www.w3.org/1999/xlink" xml:space="preserve" onload="init(evt)">
<style type="text/css"><![CDATA[
.edge:hover path { stroke: red; }
.edge:hover polygon { stroke: red; fill: red; }
]]></style>
<script type="text/javascript"><![CDATA[
var edges = document.getElementsByTagName('g');
if (edges && edges.length) {
  for (var i=0;i<edges.length;i++) {
    if (edges[i].id.substr(0,4)=='edge') {
      edges[i].setAttribute('class','edge');
    }
  }
}
]]></script>
        <defs>
                <circle id="rim" cx="0" cy="0" r="7"/>
                <circle id="rim2" cx="0" cy="0" r="3.5"/>
                <g id="zoomPlus">
                        <use xlink:href="#rim" fill="#404040">
                                <set attributeName="fill" to="#808080" begin="zoomplus.mouseover" end="zoomplus.mouseout"/>
                        </use>
                        <path d="M-4,0h8M0,-4v8" fill="none" stroke="white" stroke-width="1.5" pointer-events="none"/>
                </g>
                <g id="zoomMin">
                        <use xlink:href="#rim" fill="#404040">
                                <set attributeName="fill" to="#808080" begin="zoomminus.mouseover" end="zoomminus.mouseout"/>
                        </use>
                        <path d="M-4,0h8" fill="none" stroke="white" stroke-width="1.5" pointer-events="none"/>
                </g>
                <g id="dirArrow">
                        <path fill="none" stroke="white" stroke-width="1.5" d="M0,-3.0v7 M-2.5,-0.5L0,-3.0L2.5,-0.5"/>
                </g>
               <g id="resetDef">
                       <use xlink:href="#rim2" fill="#404040">
                               <set attributeName="fill" to="#808080" begin="reset.mouseover" end="reset.mouseout"/>
                       </use>
               </g>
        </defs>

<script type="text/javascript">
var viewWidth = 2343;
var viewHeight = 650;
var sectionId = 'dynsection-0';
</script>
<script xlink:href="../../svgpan.js"/>
<svg id="graph" class="graph">
<g id="viewport">
<title>/home/travis/build/AliceO2Group/AliceO2/Detectors/ITSMFT/ITS/reconstruction/src/CATracker.cxx</title>
<!-- Node1 -->
<g id="node1" class="node"><title>Node1</title>
<polygon fill="#bfbfbf" stroke="black" points="2062.5,-589 2062.5,-641 2229.5,-641 2229.5,-589 2062.5,-589"/>
<text text-anchor="start" x="2070.5" y="-629" font-family="Helvetica,sans-Serif" font-size="10.00">/home/travis/build</text>
<text text-anchor="start" x="2070.5" y="-618" font-family="Helvetica,sans-Serif" font-size="10.00">/AliceO2Group/AliceO2</text>
<text text-anchor="start" x="2070.5" y="-607" font-family="Helvetica,sans-Serif" font-size="10.00">/Detectors/ITSMFT/ITS</text>
<text text-anchor="middle" x="2146" y="-596" font-family="Helvetica,sans-Serif" font-size="10.00">/reconstruction/src/CATracker.cxx</text>
</g>
<!-- Node2 -->
<g id="node2" class="node"><title>Node2</title>
<g id="a_node2"><a xlink:href="../../d0/d37/CATracker_8h.html" target="_top" xlink:title="ITSReconstruction/CATracker.h">
<polygon fill="none" stroke="black" points="1819.5,-532.5 1819.5,-551.5 1976.5,-551.5 1976.5,-532.5 1819.5,-532.5"/>
<text text-anchor="middle" x="1898" y="-539.5" font-family="Helvetica,sans-Serif" font-size="10.00">ITSReconstruction/CATracker.h</text>
</a>
</g>
</g>
<!-- Node1&#45;&gt;Node2 -->
<g id="edge1" class="edge"><title>Node1&#45;&gt;Node2</title>
<path fill="none" stroke="midnightblue" d="M2062.38,-590.062C2020.33,-578.022 1971.32,-563.991 1937.83,-554.402"/>
<polygon fill="midnightblue" stroke="midnightblue" points="1938.53,-550.964 1927.96,-551.576 1936.61,-557.693 1938.53,-550.964"/>
</g>
<!-- Node6 -->
<g id="node6" class="node"><title>Node6</title>
<polygon fill="none" stroke="#bfbfbf" points="2041,-278.5 2041,-297.5 2097,-297.5 2097,-278.5 2041,-278.5"/>
<text text-anchor="middle" x="2069" y="-285.5" font-family="Helvetica,sans-Serif" font-size="10.00">algorithm</text>
</g>
<!-- Node1&#45;&gt;Node6 -->
<g id="edge63" class="edge"><title>Node1&#45;&gt;Node6</title>
<path fill="none" stroke="midnightblue" d="M2140.02,-588.768C2125.08,-525.701 2086.37,-362.329 2073.35,-307.358"/>
<polygon fill="midnightblue" stroke="midnightblue" points="2076.75,-306.532 2071.04,-297.608 2069.94,-308.145 2076.75,-306.532"/>
</g>
<!-- Node7 -->
<g id="node7" class="node"><title>Node7</title>
<polygon fill="none" stroke="#bfbfbf" points="2102.5,-74.5 2102.5,-93.5 2151.5,-93.5 2151.5,-74.5 2102.5,-74.5"/>
<text text-anchor="middle" x="2127" y="-81.5" font-family="Helvetica,sans-Serif" font-size="10.00">cassert</text>
</g>
<!-- Node1&#45;&gt;Node7 -->
<g id="edge64" class="edge"><title>Node1&#45;&gt;Node7</title>
<path fill="none" stroke="midnightblue" d="M2151.8,-588.657C2157.39,-562.009 2165,-518.786 2165,-481 2165,-481 2165,-481 2165,-219 2165,-176.048 2146.71,-128.189 2135.5,-102.911"/>
<polygon fill="midnightblue" stroke="midnightblue" points="2138.56,-101.174 2131.21,-93.5403 2132.19,-104.09 2138.56,-101.174"/>
</g>
<!-- Node11 -->
<g id="node11" class="node"><title>Node11</title>
<g id="a_node11"><a xlink:href="../../d7/d8b/DataFormats_2Reconstruction_2include_2ReconstructionDataFormats_2Track_8h.html" target="_top" xlink:title="ReconstructionDataFormats\l/Track.h">
<polygon fill="none" stroke="black" points="1425,-341 1425,-371 1565,-371 1565,-341 1425,-341"/>
<text text-anchor="start" x="1433" y="-359" font-family="Helvetica,sans-Serif" font-size="10.00">ReconstructionDataFormats</text>
<text text-anchor="middle" x="1495" y="-348" font-family="Helvetica,sans-Serif" font-size="10.00">/Track.h</text>
</a>
</g>
</g>
<!-- Node1&#45;&gt;Node11 -->
<g id="edge67" class="edge"><title>Node1&#45;&gt;Node11</title>
<path fill="none" stroke="midnightblue" d="M2062.2,-607.208C1992.77,-599.556 1892.48,-583.765 1810,-552 1712.05,-514.276 1698.22,-483.301 1609,-428 1581.01,-410.649 1549.2,-390.83 1526.31,-376.549"/>
<polygon fill="midnightblue" stroke="midnightblue" points="1528.03,-373.498 1517.69,-371.173 1524.32,-379.436 1528.03,-373.498"/>
</g>
<!-- Node39 -->
<g id="node39" class="node"><title>Node39</title>
<polygon fill="none" stroke="#bfbfbf" points="2193,-532.5 2193,-551.5 2263,-551.5 2263,-532.5 2193,-532.5"/>
<text text-anchor="middle" x="2228" y="-539.5" font-family="Helvetica,sans-Serif" font-size="10.00">Riostream.h</text>
</g>
<!-- Node1&#45;&gt;Node39 -->
<g id="edge65" class="edge"><title>Node1&#45;&gt;Node39</title>
<path fill="none" stroke="midnightblue" d="M2175.14,-588.768C2186.79,-578.679 2199.84,-567.379 2210.06,-558.532"/>
<polygon fill="midnightblue" stroke="midnightblue" points="2212.62,-560.949 2217.89,-551.757 2208.04,-555.657 2212.62,-560.949"/>
</g>
<!-- Node40 -->
<g id="node40" class="node"><title>Node40</title>
<polygon fill="none" stroke="#bfbfbf" points="2281.5,-532.5 2281.5,-551.5 2334.5,-551.5 2334.5,-532.5 2281.5,-532.5"/>
<text text-anchor="middle" x="2308" y="-539.5" font-family="Helvetica,sans-Serif" font-size="10.00">TMath.h</text>
</g>
<!-- Node1&#45;&gt;Node40 -->
<g id="edge66" class="edge"><title>Node1&#45;&gt;Node40</title>
<path fill="none" stroke="midnightblue" d="M2203.12,-588.968C2228.75,-577.732 2257.89,-564.96 2278.94,-555.735"/>
<polygon fill="midnightblue" stroke="midnightblue" points="2280.53,-558.859 2288.29,-551.639 2277.72,-552.447 2280.53,-558.859"/>
</g>
<!-- Node3 -->
<g id="node3" class="node"><title>Node3</title>
<polygon fill="none" stroke="#bfbfbf" points="1533,-6.5 1533,-25.5 1571,-25.5 1571,-6.5 1533,-6.5"/>
<text text-anchor="middle" x="1552" y="-13.5" font-family="Helvetica,sans-Serif" font-size="10.00">array</text>
</g>
<!-- Node2&#45;&gt;Node3 -->
<g id="edge2" class="edge"><title>Node2&#45;&gt;Node3</title>
<path fill="none" stroke="midnightblue" d="M1819.23,-537.499C1462.54,-521.136 16,-449.102 16,-357 16,-357 16,-357 16,-151 16,-113.157 5.80602,-92.0793 35,-68 94.5716,-18.8652 1317.17,-16.9523 1522.78,-16.9787"/>
<polygon fill="midnightblue" stroke="midnightblue" points="1522.82,-20.4786 1532.82,-16.9817 1522.82,-13.4786 1522.82,-20.4786"/>
</g>
<!-- Node4 -->
<g id="node4" class="node"><title>Node4</title>
<polygon fill="none" stroke="#bfbfbf" points="1940,-142.5 1940,-161.5 1984,-161.5 1984,-142.5 1940,-142.5"/>
<text text-anchor="middle" x="1962" y="-149.5" font-family="Helvetica,sans-Serif" font-size="10.00">vector</text>
</g>
<!-- Node2&#45;&gt;Node4 -->
<g id="edge3" class="edge"><title>Node2&#45;&gt;Node4</title>
<path fill="none" stroke="midnightblue" d="M1902.08,-532.386C1908.9,-518.078 1923.13,-488.559 1936,-464 1959.5,-419.169 1975,-407.616 1975,-357 1975,-357 1975,-357 1975,-287 1975,-245.669 1968.8,-197.501 1964.96,-171.661"/>
<polygon fill="midnightblue" stroke="midnightblue" points="1968.42,-171.105 1963.44,-161.751 1961.5,-172.166 1968.42,-171.105"/>
</g>
<!-- Node5 -->
<g id="node5" class="node"><title>Node5</title>
<g id="a_node5"><a xlink:href="../../d5/df0/CATrackingStation_8h.html" target="_top" xlink:title="ITSReconstruction/CATracking\lStation.h">
<polygon fill="none" stroke="black" points="1945.5,-465 1945.5,-495 2098.5,-495 2098.5,-465 1945.5,-465"/>
<text text-anchor="start" x="1953.5" y="-483" font-family="Helvetica,sans-Serif" font-size="10.00">ITSReconstruction/CATracking</text>
<text text-anchor="middle" x="2022" y="-472" font-family="Helvetica,sans-Serif" font-size="10.00">Station.h</text>
</a>
</g>
</g>
<!-- Node2&#45;&gt;Node5 -->
<g id="edge4" class="edge"><title>Node2&#45;&gt;Node5</title>
<path fill="none" stroke="midnightblue" d="M1915.77,-532.403C1933.42,-523.86 1961.07,-510.483 1983.73,-499.517"/>
<polygon fill="midnightblue" stroke="midnightblue" points="1985.3,-502.647 1992.78,-495.141 1982.25,-496.346 1985.3,-502.647"/>
</g>
<!-- Node8 -->
<g id="node8" class="node"><title>Node8</title>
<g id="a_node8"><a xlink:href="../../d1/db5/CAaux_8h.html" target="_top" xlink:title="ITSReconstruction/CAaux.h">
<polygon fill="none" stroke="black" points="1807,-408.5 1807,-427.5 1947,-427.5 1947,-408.5 1807,-408.5"/>
<text text-anchor="middle" x="1877" y="-415.5" font-family="Helvetica,sans-Serif" font-size="10.00">ITSReconstruction/CAaux.h</text>
</a>
</g>
</g>
<!-- Node2&#45;&gt;Node8 -->
<g id="edge61" class="edge"><title>Node2&#45;&gt;Node8</title>
<path fill="none" stroke="midnightblue" d="M1896.49,-532.226C1893.1,-512.53 1884.82,-464.437 1880.22,-437.7"/>
<polygon fill="midnightblue" stroke="midnightblue" points="1883.64,-436.956 1878.5,-427.694 1876.74,-438.143 1883.64,-436.956"/>
</g>
<!-- Node2&#45;&gt;Node11 -->
<g id="edge62" class="edge"><title>Node2&#45;&gt;Node11</title>
<path fill="none" stroke="midnightblue" d="M1879.37,-532.494C1817.82,-504.393 1620.08,-414.107 1534.78,-375.162"/>
<polygon fill="midnightblue" stroke="midnightblue" points="1536.22,-371.974 1525.67,-371.004 1533.32,-378.341 1536.22,-371.974"/>
</g>
<!-- Node5&#45;&gt;Node4 -->
<g id="edge6" class="edge"><title>Node5&#45;&gt;Node4</title>
<path fill="none" stroke="midnightblue" d="M2020.26,-464.751C2017.65,-442.007 2013,-396.078 2013,-357 2013,-357 2013,-357 2013,-287 2013,-242.611 1988.25,-195.041 1973.24,-170.262"/>
<polygon fill="midnightblue" stroke="midnightblue" points="1976.12,-168.279 1967.85,-161.66 1970.19,-171.993 1976.12,-168.279"/>
</g>
<!-- Node5&#45;&gt;Node6 -->
<g id="edge5" class="edge"><title>Node5&#45;&gt;Node6</title>
<path fill="none" stroke="midnightblue" d="M2025.53,-464.719C2033.93,-430.786 2055.06,-345.342 2064.42,-307.514"/>
<polygon fill="midnightblue" stroke="midnightblue" points="2067.82,-308.347 2066.82,-297.799 2061.02,-306.666 2067.82,-308.347"/>
</g>
<!-- Node5&#45;&gt;Node7 -->
<g id="edge7" class="edge"><title>Node5&#45;&gt;Node7</title>
<path fill="none" stroke="midnightblue" d="M2036.6,-464.754C2065.45,-435 2127,-362.868 2127,-289 2127,-289 2127,-289 2127,-219 2127,-178.046 2127,-130.052 2127,-104.066"/>
<polygon fill="midnightblue" stroke="midnightblue" points="2130.5,-103.78 2127,-93.7798 2123.5,-103.78 2130.5,-103.78"/>
</g>
<!-- Node5&#45;&gt;Node8 -->
<g id="edge8" class="edge"><title>Node5&#45;&gt;Node8</title>
<path fill="none" stroke="midnightblue" d="M1988,-464.933C1963.54,-454.81 1930.84,-441.278 1907.27,-431.527"/>
<polygon fill="midnightblue" stroke="midnightblue" points="1908.36,-428.19 1897.78,-427.6 1905.69,-434.658 1908.36,-428.19"/>
</g>
<!-- Node8&#45;&gt;Node3 -->
<g id="edge9" class="edge"><title>Node8&#45;&gt;Node3</title>
<path fill="none" stroke="midnightblue" d="M1867.2,-408.457C1857.37,-399.703 1842.02,-385.5 1830,-372 1717.34,-245.458 1709.33,-197.429 1600,-68 1589.72,-55.8332 1577.4,-42.7654 1567.81,-32.9038"/>
<polygon fill="midnightblue" stroke="midnightblue" points="1570.3,-30.4458 1560.8,-25.7608 1565.3,-35.3493 1570.3,-30.4458"/>
</g>
<!-- Node8&#45;&gt;Node4 -->
<g id="edge11" class="edge"><title>Node8&#45;&gt;Node4</title>
<path fill="none" stroke="midnightblue" d="M1886.1,-408.206C1894.36,-399.703 1906.25,-386.071 1913,-372 1946,-303.242 1957.18,-211.589 1960.62,-172.256"/>
<polygon fill="midnightblue" stroke="midnightblue" points="1964.14,-172.059 1961.45,-161.812 1957.17,-171.502 1964.14,-172.059"/>
</g>
<!-- Node9 -->
<g id="node9" class="node"><title>Node9</title>
<polygon fill="none" stroke="#bfbfbf" points="1858,-6.5 1858,-25.5 1902,-25.5 1902,-6.5 1858,-6.5"/>
<text text-anchor="middle" x="1880" y="-13.5" font-family="Helvetica,sans-Serif" font-size="10.00">cmath</text>
</g>
<!-- Node8&#45;&gt;Node9 -->
<g id="edge10" class="edge"><title>Node8&#45;&gt;Node9</title>
<path fill="none" stroke="midnightblue" d="M1879.52,-408.397C1885.3,-387.91 1899,-334.547 1899,-289 1899,-289 1899,-289 1899,-151 1899,-109.451 1889.93,-61.3655 1884.33,-35.5985"/>
<polygon fill="midnightblue" stroke="midnightblue" points="1887.71,-34.7076 1882.11,-25.719 1880.89,-36.2433 1887.71,-34.7076"/>
</g>
<!-- Node10 -->
<g id="node10" class="node"><title>Node10</title>
<g id="a_node10"><a xlink:href="../../d6/d84/MathConstants_8h.html" target="_top" xlink:title="useful math constants ">
<polygon fill="none" stroke="black" points="1660.5,-6.5 1660.5,-25.5 1839.5,-25.5 1839.5,-6.5 1660.5,-6.5"/>
<text text-anchor="middle" x="1750" y="-13.5" font-family="Helvetica,sans-Serif" font-size="10.00">CommonConstants/MathConstants.h</text>
</a>
</g>
</g>
<!-- Node8&#45;&gt;Node10 -->
<g id="edge12" class="edge"><title>Node8&#45;&gt;Node10</title>
<path fill="none" stroke="midnightblue" d="M1870.38,-408.229C1855.96,-388.229 1823,-337.238 1823,-289 1823,-289 1823,-289 1823,-151 1823,-103.367 1786.99,-56.5428 1765.55,-32.8882"/>
<polygon fill="midnightblue" stroke="midnightblue" points="1768.05,-30.4338 1758.66,-25.5242 1762.94,-35.2171 1768.05,-30.4338"/>
</g>
<!-- Node8&#45;&gt;Node11 -->
<g id="edge13" class="edge"><title>Node8&#45;&gt;Node11</title>
<path fill="none" stroke="midnightblue" d="M1822.67,-408.467C1758.05,-398.317 1649.58,-381.28 1575.27,-369.609"/>
<polygon fill="midnightblue" stroke="midnightblue" points="1575.45,-366.093 1565.02,-367.999 1574.36,-373.008 1575.45,-366.093"/>
</g>
<!-- Node11&#45;&gt;Node3 -->
<g id="edge16" class="edge"><title>Node11&#45;&gt;Node3</title>
<path fill="none" stroke="midnightblue" d="M1433.76,-340.869C1386.71,-327.177 1333.99,-303.812 1361,-272 1424.84,-196.807 1515.88,-310.958 1580,-236 1628.54,-179.259 1600.09,-140.187 1581,-68 1577.8,-55.8881 1570.98,-43.6416 1564.76,-34.1859"/>
<polygon fill="midnightblue" stroke="midnightblue" points="1567.48,-31.9717 1558.89,-25.7688 1561.74,-35.9742 1567.48,-31.9717"/>
</g>
<!-- Node11&#45;&gt;Node6 -->
<g id="edge15" class="edge"><title>Node11&#45;&gt;Node6</title>
<path fill="none" stroke="midnightblue" d="M1565.1,-346.94C1687.32,-332.887 1935.48,-304.353 2030.65,-293.409"/>
<polygon fill="midnightblue" stroke="midnightblue" points="2031.16,-296.874 2040.7,-292.254 2030.36,-289.92 2031.16,-296.874"/>
</g>
<!-- Node11&#45;&gt;Node9 -->
<g id="edge18" class="edge"><title>Node11&#45;&gt;Node9</title>
<path fill="none" stroke="midnightblue" d="M1565.14,-344.012C1671.41,-325.356 1861,-283.338 1861,-221 1861,-221 1861,-221 1861,-151 1861,-109.451 1870.07,-61.3655 1875.67,-35.5985"/>
<polygon fill="midnightblue" stroke="midnightblue" points="1879.11,-36.2433 1877.89,-25.719 1872.29,-34.7076 1879.11,-36.2433"/>
</g>
<!-- Node11&#45;&gt;Node10 -->
<g id="edge23" class="edge"><title>Node11&#45;&gt;Node10</title>
<path fill="none" stroke="midnightblue" d="M1565.01,-346.016C1620.18,-337.62 1691.29,-323.455 1713,-304 1740.58,-279.284 1763.17,-126.885 1766,-100 1767.49,-85.8562 1768.15,-82.0582 1766,-68 1764.31,-56.9369 1760.66,-44.978 1757.27,-35.4229"/>
<polygon fill="midnightblue" stroke="midnightblue" points="1760.46,-33.9689 1753.68,-25.8323 1753.91,-36.4246 1760.46,-33.9689"/>
</g>
<!-- Node12 -->
<g id="node12" class="node"><title>Node12</title>
<polygon fill="none" stroke="#bfbfbf" points="1237,-74.5 1237,-93.5 1293,-93.5 1293,-74.5 1237,-74.5"/>
<text text-anchor="middle" x="1265" y="-81.5" font-family="Helvetica,sans-Serif" font-size="10.00">Rtypes.h</text>
</g>
<!-- Node11&#45;&gt;Node12 -->
<g id="edge14" class="edge"><title>Node11&#45;&gt;Node12</title>
<path fill="none" stroke="midnightblue" d="M1424.85,-354.43C1338.08,-352.062 1197.78,-342.235 1165,-304 1109.66,-239.446 1205.42,-139.19 1247.08,-100.742"/>
<polygon fill="midnightblue" stroke="midnightblue" points="1249.57,-103.212 1254.63,-93.9051 1244.87,-98.0231 1249.57,-103.212"/>
</g>
<!-- Node13 -->
<g id="node13" class="node"><title>Node13</title>
<polygon fill="none" stroke="#bfbfbf" points="1370.5,-278.5 1370.5,-297.5 1411.5,-297.5 1411.5,-278.5 1370.5,-278.5"/>
<text text-anchor="middle" x="1391" y="-285.5" font-family="Helvetica,sans-Serif" font-size="10.00">cfloat</text>
</g>
<!-- Node11&#45;&gt;Node13 -->
<g id="edge17" class="edge"><title>Node11&#45;&gt;Node13</title>
<path fill="none" stroke="midnightblue" d="M1472.69,-340.841C1455.1,-329.681 1430.71,-314.198 1413.16,-303.063"/>
<polygon fill="midnightblue" stroke="midnightblue" points="1415,-300.085 1404.68,-297.682 1411.25,-305.995 1415,-300.085"/>
</g>
<!-- Node14 -->
<g id="node14" class="node"><title>Node14</title>
<polygon fill="none" stroke="#bfbfbf" points="1430,-278.5 1430,-297.5 1476,-297.5 1476,-278.5 1430,-278.5"/>
<text text-anchor="middle" x="1453" y="-285.5" font-family="Helvetica,sans-Serif" font-size="10.00">cstring</text>
</g>
<!-- Node11&#45;&gt;Node14 -->
<g id="edge19" class="edge"><title>Node11&#45;&gt;Node14</title>
<path fill="none" stroke="midnightblue" d="M1485.89,-340.679C1479.47,-330.592 1470.84,-317.033 1464.03,-306.335"/>
<polygon fill="midnightblue" stroke="midnightblue" points="1466.94,-304.386 1458.62,-297.828 1461.03,-308.144 1466.94,-304.386"/>
</g>
<!-- Node15 -->
<g id="node15" class="node"><title>Node15</title>
<polygon fill="none" stroke="#bfbfbf" points="44,-74.5 44,-93.5 98,-93.5 98,-74.5 44,-74.5"/>
<text text-anchor="middle" x="71" y="-81.5" font-family="Helvetica,sans-Serif" font-size="10.00">iostream</text>
</g>
<!-- Node11&#45;&gt;Node15 -->
<g id="edge20" class="edge"><title>Node11&#45;&gt;Node15</title>
<path fill="none" stroke="midnightblue" d="M1424.91,-348.578C1338.57,-340.257 1187.52,-324.373 1059,-304 755.454,-255.885 680.887,-235.253 381,-168 258.569,-140.543 226.141,-139.353 107,-100 104.581,-99.201 102.095,-98.3128 99.6151,-97.379"/>
<polygon fill="midnightblue" stroke="midnightblue" points="100.812,-94.0885 90.2268,-93.6428 98.2239,-100.592 100.812,-94.0885"/>
</g>
<!-- Node16 -->
<g id="node16" class="node"><title>Node16</title>
<polygon fill="none" stroke="#bfbfbf" points="1494.5,-278.5 1494.5,-297.5 1577.5,-297.5 1577.5,-278.5 1494.5,-278.5"/>
<text text-anchor="middle" x="1536" y="-285.5" font-family="Helvetica,sans-Serif" font-size="10.00">Math/SMatrix.h</text>
</g>
<!-- Node11&#45;&gt;Node16 -->
<g id="edge21" class="edge"><title>Node11&#45;&gt;Node16</title>
<path fill="none" stroke="midnightblue" d="M1503.9,-340.679C1510.16,-330.592 1518.59,-317.033 1525.23,-306.335"/>
<polygon fill="midnightblue" stroke="midnightblue" points="1528.21,-308.17 1530.52,-297.828 1522.27,-304.476 1528.21,-308.17"/>
</g>
<!-- Node17 -->
<g id="node17" class="node"><title>Node17</title>
<polygon fill="none" stroke="#bfbfbf" points="1595.5,-278.5 1595.5,-297.5 1680.5,-297.5 1680.5,-278.5 1595.5,-278.5"/>
<text text-anchor="middle" x="1638" y="-285.5" font-family="Helvetica,sans-Serif" font-size="10.00">Math/SVector.h</text>
</g>
<!-- Node11&#45;&gt;Node17 -->
<g id="edge22" class="edge"><title>Node11&#45;&gt;Node17</title>
<path fill="none" stroke="midnightblue" d="M1525.68,-340.841C1550.63,-329.323 1585.57,-313.199 1609.83,-302.004"/>
<polygon fill="midnightblue" stroke="midnightblue" points="1611.58,-305.05 1619.19,-297.682 1608.64,-298.695 1611.58,-305.05"/>
</g>
<!-- Node18 -->
<g id="node18" class="node"><title>Node18</title>
<g id="a_node18"><a xlink:href="../../dd/d76/Cartesian3D_8h.html" target="_top" xlink:title="MathUtils/Cartesian3D.h">
<polygon fill="none" stroke="black" points="798.5,-142.5 798.5,-161.5 923.5,-161.5 923.5,-142.5 798.5,-142.5"/>
<text text-anchor="middle" x="861" y="-149.5" font-family="Helvetica,sans-Serif" font-size="10.00">MathUtils/Cartesian3D.h</text>
</a>
</g>
</g>
<!-- Node11&#45;&gt;Node18 -->
<g id="edge24" class="edge"><title>Node11&#45;&gt;Node18</title>
<path fill="none" stroke="midnightblue" d="M1424.83,-352.298C1350.52,-347.8 1230.56,-335.828 1132,-304 1070.32,-284.084 1059.66,-267.471 1003,-236 960.612,-212.455 911.981,-183.627 884.038,-166.884"/>
<polygon fill="midnightblue" stroke="midnightblue" points="885.769,-163.841 875.393,-161.695 882.165,-169.843 885.769,-163.841"/>
</g>
<!-- Node28 -->
<g id="node28" class="node"><title>Node28</title>
<g id="a_node28"><a xlink:href="../../d9/ded/Utils_8h.html" target="_top" xlink:title="General auxilliary methods. ">
<polygon fill="none" stroke="black" points="1667,-74.5 1667,-93.5 1757,-93.5 1757,-74.5 1667,-74.5"/>
<text text-anchor="middle" x="1712" y="-81.5" font-family="Helvetica,sans-Serif" font-size="10.00">MathUtils/Utils.h</text>
</a>
</g>
</g>
<!-- Node11&#45;&gt;Node28 -->
<g id="edge36" class="edge"><title>Node11&#45;&gt;Node28</title>
<path fill="none" stroke="midnightblue" d="M1565.04,-345.095C1613.74,-336.691 1672.73,-322.962 1689,-304 1738.71,-246.065 1724.86,-145.259 1716.37,-103.716"/>
<polygon fill="midnightblue" stroke="midnightblue" points="1719.77,-102.887 1714.22,-93.8629 1712.93,-104.379 1719.77,-102.887"/>
</g>
<!-- Node29 -->
<g id="node29" class="node"><title>Node29</title>
<g id="a_node29"><a xlink:href="../../d4/de2/BaseCluster_8h.html" target="_top" xlink:title="ReconstructionDataFormats\l/BaseCluster.h">
<polygon fill="none" stroke="black" points="1174,-273 1174,-303 1314,-303 1314,-273 1174,-273"/>
<text text-anchor="start" x="1182" y="-291" font-family="Helvetica,sans-Serif" font-size="10.00">ReconstructionDataFormats</text>
<text text-anchor="middle" x="1244" y="-280" font-family="Helvetica,sans-Serif" font-size="10.00">/BaseCluster.h</text>
</a>
</g>
</g>
<!-- Node11&#45;&gt;Node29 -->
<g id="edge40" class="edge"><title>Node11&#45;&gt;Node29</title>
<path fill="none" stroke="midnightblue" d="M1441.46,-340.922C1402.14,-330.583 1348.59,-316.501 1307.17,-305.61"/>
<polygon fill="midnightblue" stroke="midnightblue" points="1308.02,-302.214 1297.46,-303.056 1306.24,-308.984 1308.02,-302.214"/>
</g>
<!-- Node18&#45;&gt;Node12 -->
<g id="edge30" class="edge"><title>Node18&#45;&gt;Node12</title>
<path fill="none" stroke="midnightblue" d="M923.619,-147.024C997.429,-141.259 1123.3,-128.035 1228,-100 1230.98,-99.2011 1234.05,-98.2258 1237.08,-97.1598"/>
<polygon fill="midnightblue" stroke="midnightblue" points="1238.4,-100.401 1246.49,-93.55 1235.9,-93.8653 1238.4,-100.401"/>
</g>
<!-- Node18&#45;&gt;Node15 -->
<g id="edge32" class="edge"><title>Node18&#45;&gt;Node15</title>
<path fill="none" stroke="midnightblue" d="M798.409,-146.833C618.288,-134.834 111.201,-100.989 107,-100 103.935,-99.2787 100.796,-98.3245 97.7108,-97.2458"/>
<polygon fill="midnightblue" stroke="midnightblue" points="98.7822,-93.9064 88.1948,-93.5087 96.2234,-100.422 98.7822,-93.9064"/>
</g>
<!-- Node19 -->
<g id="node19" class="node"><title>Node19</title>
<polygon fill="none" stroke="#bfbfbf" points="354.5,-69 354.5,-99 505.5,-99 505.5,-69 354.5,-69"/>
<text text-anchor="start" x="362.5" y="-87" font-family="Helvetica,sans-Serif" font-size="10.00">Math/GenVector/Displacement</text>
<text text-anchor="middle" x="430" y="-76" font-family="Helvetica,sans-Serif" font-size="10.00">Vector3D.h</text>
</g>
<!-- Node18&#45;&gt;Node19 -->
<g id="edge25" class="edge"><title>Node18&#45;&gt;Node19</title>
<path fill="none" stroke="midnightblue" d="M799.668,-142.495C732.538,-133.065 621.474,-117.111 515.44,-100.044"/>
<polygon fill="midnightblue" stroke="midnightblue" points="515.955,-96.5819 505.525,-98.4423 514.839,-103.492 515.955,-96.5819"/>
</g>
<!-- Node20 -->
<g id="node20" class="node"><title>Node20</title>
<polygon fill="none" stroke="#bfbfbf" points="524,-74.5 524,-93.5 700,-93.5 700,-74.5 524,-74.5"/>
<text text-anchor="middle" x="612" y="-81.5" font-family="Helvetica,sans-Serif" font-size="10.00">Math/GenVector/PositionVector3D.h</text>
</g>
<!-- Node18&#45;&gt;Node20 -->
<g id="edge26" class="edge"><title>Node18&#45;&gt;Node20</title>
<path fill="none" stroke="midnightblue" d="M828.703,-142.439C784.015,-130.594 703.27,-109.192 653.961,-96.1223"/>
<polygon fill="midnightblue" stroke="midnightblue" points="654.803,-92.7245 644.24,-93.5455 653.009,-99.4909 654.803,-92.7245"/>
</g>
<!-- Node21 -->
<g id="node21" class="node"><title>Node21</title>
<polygon fill="none" stroke="#bfbfbf" points="717.5,-74.5 717.5,-93.5 866.5,-93.5 866.5,-74.5 717.5,-74.5"/>
<text text-anchor="middle" x="792" y="-81.5" font-family="Helvetica,sans-Serif" font-size="10.00">Math/GenVector/Rotation3D.h</text>
</g>
<!-- Node18&#45;&gt;Node21 -->
<g id="edge27" class="edge"><title>Node18&#45;&gt;Node21</title>
<path fill="none" stroke="midnightblue" d="M851.979,-142.372C840.986,-131.856 822.195,-113.882 808.57,-100.85"/>
<polygon fill="midnightblue" stroke="midnightblue" points="810.889,-98.2241 801.243,-93.8411 806.05,-103.283 810.889,-98.2241"/>
</g>
<!-- Node22 -->
<g id="node22" class="node"><title>Node22</title>
<polygon fill="none" stroke="#bfbfbf" points="885,-74.5 885,-93.5 1041,-93.5 1041,-74.5 885,-74.5"/>
<text text-anchor="middle" x="963" y="-81.5" font-family="Helvetica,sans-Serif" font-size="10.00">Math/GenVector/Transform3D.h</text>
</g>
<!-- Node18&#45;&gt;Node22 -->
<g id="edge28" class="edge"><title>Node18&#45;&gt;Node22</title>
<path fill="none" stroke="midnightblue" d="M874.335,-142.372C891.287,-131.403 920.783,-112.317 941.068,-99.1912"/>
<polygon fill="midnightblue" stroke="midnightblue" points="943.168,-102.002 949.662,-93.6305 939.365,-96.1245 943.168,-102.002"/>
</g>
<!-- Node23 -->
<g id="node23" class="node"><title>Node23</title>
<polygon fill="none" stroke="#bfbfbf" points="1059,-74.5 1059,-93.5 1219,-93.5 1219,-74.5 1059,-74.5"/>
<text text-anchor="middle" x="1139" y="-81.5" font-family="Helvetica,sans-Serif" font-size="10.00">Math/GenVector/Translation3D.h</text>
</g>
<!-- Node18&#45;&gt;Node23 -->
<g id="edge29" class="edge"><title>Node18&#45;&gt;Node23</title>
<path fill="none" stroke="midnightblue" d="M897.059,-142.439C947.264,-130.52 1038.23,-108.924 1093.18,-95.8777"/>
<polygon fill="midnightblue" stroke="midnightblue" points="1094.08,-99.2608 1103.01,-93.5455 1092.47,-92.4501 1094.08,-99.2608"/>
</g>
<!-- Node24 -->
<g id="node24" class="node"><title>Node24</title>
<polygon fill="none" stroke="#bfbfbf" points="260,-74.5 260,-93.5 336,-93.5 336,-74.5 260,-74.5"/>
<text text-anchor="middle" x="298" y="-81.5" font-family="Helvetica,sans-Serif" font-size="10.00">TGeoMatrix.h</text>
</g>
<!-- Node18&#45;&gt;Node24 -->
<g id="edge31" class="edge"><title>Node18&#45;&gt;Node24</title>
<path fill="none" stroke="midnightblue" d="M798.087,-146.447C680.153,-137.637 430.073,-117.575 345,-100 340.539,-99.0783 335.902,-97.8921 331.356,-96.5911"/>
<polygon fill="midnightblue" stroke="midnightblue" points="332.238,-93.2008 321.651,-93.6178 330.187,-99.8937 332.238,-93.2008"/>
</g>
<!-- Node25 -->
<g id="node25" class="node"><title>Node25</title>
<g id="a_node25"><a xlink:href="../../d2/dd0/Cartesian2D_8h.html" target="_top" xlink:title="MathUtils/Cartesian2D.h">
<polygon fill="none" stroke="black" points="116.5,-74.5 116.5,-93.5 241.5,-93.5 241.5,-74.5 116.5,-74.5"/>
<text text-anchor="middle" x="179" y="-81.5" font-family="Helvetica,sans-Serif" font-size="10.00">MathUtils/Cartesian2D.h</text>
</a>
</g>
</g>
<!-- Node18&#45;&gt;Node25 -->
<g id="edge33" class="edge"><title>Node18&#45;&gt;Node25</title>
<path fill="none" stroke="midnightblue" d="M798.299,-146.734C664.639,-137.481 355.377,-115.178 251,-100 242.825,-98.8113 234.184,-97.2654 225.834,-95.6188"/>
<polygon fill="midnightblue" stroke="midnightblue" points="226.343,-92.1505 215.845,-93.5776 224.942,-99.0088 226.343,-92.1505"/>
</g>
<!-- Node26 -->
<g id="node26" class="node"><title>Node26</title>
<polygon fill="none" stroke="#bfbfbf" points="194.5,-1 194.5,-31 345.5,-31 345.5,-1 194.5,-1"/>
<text text-anchor="start" x="202.5" y="-19" font-family="Helvetica,sans-Serif" font-size="10.00">Math/GenVector/Displacement</text>
<text text-anchor="middle" x="270" y="-8" font-family="Helvetica,sans-Serif" font-size="10.00">Vector2D.h</text>
</g>
<!-- Node25&#45;&gt;Node26 -->
<g id="edge34" class="edge"><title>Node25&#45;&gt;Node26</title>
<path fill="none" stroke="midnightblue" d="M190.897,-74.3717C203.779,-65.0286 224.78,-49.7966 241.907,-37.375"/>
<polygon fill="midnightblue" stroke="midnightblue" points="244.407,-39.8859 250.447,-31.1815 240.297,-34.2194 244.407,-39.8859"/>
</g>
<!-- Node27 -->
<g id="node27" class="node"><title>Node27</title>
<polygon fill="none" stroke="#bfbfbf" points="0,-6.5 0,-25.5 176,-25.5 176,-6.5 0,-6.5"/>
<text text-anchor="middle" x="88" y="-13.5" font-family="Helvetica,sans-Serif" font-size="10.00">Math/GenVector/PositionVector2D.h</text>
</g>
<!-- Node25&#45;&gt;Node27 -->
<g id="edge35" class="edge"><title>Node25&#45;&gt;Node27</title>
<path fill="none" stroke="midnightblue" d="M167.103,-74.3717C152.116,-63.5015 126.138,-44.6602 108.058,-31.5474"/>
<polygon fill="midnightblue" stroke="midnightblue" points="110.05,-28.6684 99.8996,-25.6305 105.94,-34.3349 110.05,-28.6684"/>
</g>
<!-- Node28&#45;&gt;Node3 -->
<g id="edge37" class="edge"><title>Node28&#45;&gt;Node3</title>
<path fill="none" stroke="midnightblue" d="M1691.08,-74.3717C1662.95,-62.7689 1612.81,-42.0841 1581.04,-28.9782"/>
<polygon fill="midnightblue" stroke="midnightblue" points="1582,-25.5883 1571.42,-25.0104 1579.33,-32.0594 1582,-25.5883"/>
</g>
<!-- Node28&#45;&gt;Node9 -->
<g id="edge38" class="edge"><title>Node28&#45;&gt;Node9</title>
<path fill="none" stroke="midnightblue" d="M1736.8,-74.3697C1764.24,-64.6662 1809.65,-48.1473 1848,-32 1849.63,-31.3124 1851.3,-30.5892 1852.99,-29.8469"/>
<polygon fill="midnightblue" stroke="midnightblue" points="1854.86,-32.8388 1862.51,-25.5061 1851.96,-26.4694 1854.86,-32.8388"/>
</g>
<!-- Node28&#45;&gt;Node10 -->
<g id="edge39" class="edge"><title>Node28&#45;&gt;Node10</title>
<path fill="none" stroke="midnightblue" d="M1716.97,-74.3717C1722.74,-64.3478 1732.41,-47.5455 1739.8,-34.7076"/>
<polygon fill="midnightblue" stroke="midnightblue" points="1742.95,-36.2537 1744.91,-25.8411 1736.89,-32.761 1742.95,-36.2537"/>
</g>
<!-- Node29&#45;&gt;Node15 -->
<g id="edge45" class="edge"><title>Node29&#45;&gt;Node15</title>
<path fill="none" stroke="midnightblue" d="M1173.97,-273.704C1027.24,-246.075 676.627,-181.263 381,-136 259.59,-117.411 225.61,-131.898 107,-100 104.18,-99.2417 101.289,-98.3132 98.4302,-97.2934"/>
<polygon fill="midnightblue" stroke="midnightblue" points="99.5748,-93.9828 88.9873,-93.5889 97.0183,-100.499 99.5748,-93.9828"/>
</g>
<!-- Node29&#45;&gt;Node18 -->
<g id="edge60" class="edge"><title>Node29&#45;&gt;Node18</title>
<path fill="none" stroke="midnightblue" d="M1203.74,-272.913C1128.13,-246.462 966.191,-189.803 895.359,-165.021"/>
<polygon fill="midnightblue" stroke="midnightblue" points="896.185,-161.602 885.59,-161.603 893.873,-168.209 896.185,-161.602"/>
</g>
<!-- Node30 -->
<g id="node30" class="node"><title>Node30</title>
<polygon fill="none" stroke="#bfbfbf" points="1396.5,-210.5 1396.5,-229.5 1455.5,-229.5 1455.5,-210.5 1396.5,-210.5"/>
<text text-anchor="middle" x="1426" y="-217.5" font-family="Helvetica,sans-Serif" font-size="10.00">TObject.h</text>
</g>
<!-- Node29&#45;&gt;Node30 -->
<g id="edge41" class="edge"><title>Node29&#45;&gt;Node30</title>
<path fill="none" stroke="midnightblue" d="M1283.04,-272.841C1315.75,-260.982 1361.92,-244.239 1392.85,-233.022"/>
<polygon fill="midnightblue" stroke="midnightblue" points="1394.11,-236.286 1402.32,-229.587 1391.73,-229.706 1394.11,-236.286"/>
</g>
<!-- Node31 -->
<g id="node31" class="node"><title>Node31</title>
<polygon fill="none" stroke="#bfbfbf" points="1531.5,-74.5 1531.5,-93.5 1572.5,-93.5 1572.5,-74.5 1531.5,-74.5"/>
<text text-anchor="middle" x="1552" y="-81.5" font-family="Helvetica,sans-Serif" font-size="10.00">bitset</text>
</g>
<!-- Node29&#45;&gt;Node31 -->
<g id="edge42" class="edge"><title>Node29&#45;&gt;Node31</title>
<path fill="none" stroke="midnightblue" d="M1277.85,-272.801C1298.72,-263.469 1325.67,-250.358 1348,-236 1366.86,-223.872 1366.88,-213.893 1387,-204 1450.85,-172.605 1495.76,-221.212 1543,-168 1558.53,-150.504 1558.06,-122.074 1555.58,-103.454"/>
<polygon fill="midnightblue" stroke="midnightblue" points="1559.03,-102.848 1553.96,-93.5467 1552.12,-103.982 1559.03,-102.848"/>
</g>
<!-- Node32 -->
<g id="node32" class="node"><title>Node32</title>
<polygon fill="none" stroke="#bfbfbf" points="1474,-210.5 1474,-229.5 1524,-229.5 1524,-210.5 1474,-210.5"/>
<text text-anchor="middle" x="1499" y="-217.5" font-family="Helvetica,sans-Serif" font-size="10.00">iomanip</text>
</g>
<!-- Node29&#45;&gt;Node32 -->
<g id="edge43" class="edge"><title>Node29&#45;&gt;Node32</title>
<path fill="none" stroke="midnightblue" d="M1314.23,-274.027C1357.86,-265.156 1414.81,-252.1 1464,-236 1466.42,-235.208 1468.9,-234.315 1471.37,-233.37"/>
<polygon fill="midnightblue" stroke="midnightblue" points="1472.77,-236.581 1480.71,-229.563 1470.13,-230.099 1472.77,-236.581"/>
</g>
<!-- Node33 -->
<g id="node33" class="node"><title>Node33</title>
<polygon fill="none" stroke="#bfbfbf" points="1542.5,-210.5 1542.5,-229.5 1571.5,-229.5 1571.5,-210.5 1542.5,-210.5"/>
<text text-anchor="middle" x="1557" y="-217.5" font-family="Helvetica,sans-Serif" font-size="10.00">ios</text>
</g>
<!-- Node29&#45;&gt;Node33 -->
<g id="edge44" class="edge"><title>Node29&#45;&gt;Node33</title>
<path fill="none" stroke="midnightblue" d="M1314.12,-274.462C1318.82,-273.628 1323.48,-272.801 1328,-272 1419.09,-255.869 1446.63,-269.125 1533,-236 1534.06,-235.595 1535.11,-235.142 1536.17,-234.653"/>
<polygon fill="midnightblue" stroke="midnightblue" points="1538.23,-237.51 1545.27,-229.588 1534.83,-231.394 1538.23,-237.51"/>
</g>
<!-- Node34 -->
<g id="node34" class="node"><title>Node34</title>
<g id="a_node34"><a xlink:href="../../d4/d20/DetMatrixCache_8h.html" target="_top" xlink:title="DetectorsCommonDataFormats\l/DetMatrixCache.h">
<polygon fill="none" stroke="black" points="1183,-205 1183,-235 1339,-235 1339,-205 1183,-205"/>
<text text-anchor="start" x="1191" y="-223" font-family="Helvetica,sans-Serif" font-size="10.00">DetectorsCommonDataFormats</text>
<text text-anchor="middle" x="1261" y="-212" font-family="Helvetica,sans-Serif" font-size="10.00">/DetMatrixCache.h</text>
</a>
</g>
</g>
<!-- Node29&#45;&gt;Node34 -->
<g id="edge46" class="edge"><title>Node29&#45;&gt;Node34</title>
<path fill="none" stroke="midnightblue" d="M1247.69,-272.679C1249.76,-264.636 1252.4,-254.385 1254.78,-245.137"/>
<polygon fill="midnightblue" stroke="midnightblue" points="1258.21,-245.85 1257.32,-235.293 1251.43,-244.104 1258.21,-245.85"/>
</g>
<!-- Node34&#45;&gt;Node3 -->
<g id="edge48" class="edge"><title>Node34&#45;&gt;Node3</title>
<path fill="none" stroke="midnightblue" d="M1262.11,-204.763C1263.91,-187.624 1268.53,-158.359 1280,-136 1298.4,-100.139 1305.47,-88.7896 1340,-68 1398.6,-32.7187 1480.09,-21.8346 1522.97,-18.4842"/>
<polygon fill="midnightblue" stroke="midnightblue" points="1523.27,-21.9719 1533,-17.7844 1522.78,-14.9889 1523.27,-21.9719"/>
</g>
<!-- Node34&#45;&gt;Node4 -->
<g id="edge49" class="edge"><title>Node34&#45;&gt;Node4</title>
<path fill="none" stroke="midnightblue" d="M1339.26,-209.313C1355.06,-207.462 1371.55,-205.604 1387,-204 1593.45,-182.56 1842.21,-162.43 1929.69,-155.524"/>
<polygon fill="midnightblue" stroke="midnightblue" points="1930.08,-159.004 1939.78,-154.729 1929.53,-152.025 1930.08,-159.004"/>
</g>
<!-- Node34&#45;&gt;Node12 -->
<g id="edge59" class="edge"><title>Node34&#45;&gt;Node12</title>
<path fill="none" stroke="midnightblue" d="M1255.71,-204.898C1250.18,-188.381 1242.86,-160.198 1247,-136 1248.93,-124.718 1253.11,-112.616 1256.95,-103.033"/>
<polygon fill="midnightblue" stroke="midnightblue" points="1260.19,-104.355 1260.87,-93.7818 1253.74,-101.626 1260.19,-104.355"/>
</g>
<!-- Node34&#45;&gt;Node18 -->
<g id="edge58" class="edge"><title>Node34&#45;&gt;Node18</title>
<path fill="none" stroke="midnightblue" d="M1182.93,-206.118C1106.86,-193.568 992.757,-174.74 922.796,-163.196"/>
<polygon fill="midnightblue" stroke="midnightblue" points="923.241,-159.723 912.805,-161.548 922.101,-166.629 923.241,-159.723"/>
</g>
<!-- Node35 -->
<g id="node35" class="node"><title>Node35</title>
<polygon fill="none" stroke="#bfbfbf" points="1463.5,-142.5 1463.5,-161.5 1534.5,-161.5 1534.5,-142.5 1463.5,-142.5"/>
<text text-anchor="middle" x="1499" y="-149.5" font-family="Helvetica,sans-Serif" font-size="10.00">FairLogger.h</text>
</g>
<!-- Node34&#45;&gt;Node35 -->
<g id="edge47" class="edge"><title>Node34&#45;&gt;Node35</title>
<path fill="none" stroke="midnightblue" d="M1317.85,-204.988C1356.43,-195.23 1408.5,-181.579 1454,-168 1457.42,-166.98 1460.97,-165.876 1464.51,-164.745"/>
<polygon fill="midnightblue" stroke="midnightblue" points="1465.91,-167.967 1474.33,-161.536 1463.74,-161.313 1465.91,-167.967"/>
</g>
<!-- Node36 -->
<g id="node36" class="node"><title>Node36</title>
<g id="a_node36"><a xlink:href="../../d6/d31/DetID_8h.html" target="_top" xlink:title="DetectorsCommonDataFormats\l/DetID.h">
<polygon fill="none" stroke="black" points="1289,-137 1289,-167 1445,-167 1445,-137 1289,-137"/>
<text text-anchor="start" x="1297" y="-155" font-family="Helvetica,sans-Serif" font-size="10.00">DetectorsCommonDataFormats</text>
<text text-anchor="middle" x="1367" y="-144" font-family="Helvetica,sans-Serif" font-size="10.00">/DetID.h</text>
</a>
</g>
</g>
<!-- Node34&#45;&gt;Node36 -->
<g id="edge50" class="edge"><title>Node34&#45;&gt;Node36</title>
<path fill="none" stroke="midnightblue" d="M1283.74,-204.841C1298.83,-195.446 1318.84,-182.985 1335.46,-172.635"/>
<polygon fill="midnightblue" stroke="midnightblue" points="1337.66,-175.392 1344.3,-167.135 1333.96,-169.45 1337.66,-175.392"/>
</g>
<!-- Node36&#45;&gt;Node3 -->
<g id="edge52" class="edge"><title>Node36&#45;&gt;Node3</title>
<path fill="none" stroke="midnightblue" d="M1411.46,-136.984C1434.21,-128.491 1461.56,-116.151 1483,-100 1507.47,-81.5627 1528.83,-52.8203 1541.07,-34.4566"/>
<polygon fill="midnightblue" stroke="midnightblue" points="1544.11,-36.2048 1546.61,-25.9092 1538.23,-32.3985 1544.11,-36.2048"/>
</g>
<!-- Node36&#45;&gt;Node7 -->
<g id="edge54" class="edge"><title>Node36&#45;&gt;Node7</title>
<path fill="none" stroke="midnightblue" d="M1445.2,-137.156C1448.17,-136.745 1451.11,-136.358 1454,-136 1697.47,-105.855 1992.86,-90.9053 2092.38,-86.4593"/>
<polygon fill="midnightblue" stroke="midnightblue" points="2092.63,-89.9518 2102.47,-86.0149 2092.33,-82.9585 2092.63,-89.9518"/>
</g>
<!-- Node36&#45;&gt;Node12 -->
<g id="edge51" class="edge"><title>Node36&#45;&gt;Node12</title>
<path fill="none" stroke="midnightblue" d="M1345.12,-136.841C1328.03,-125.784 1304.38,-110.481 1287.21,-99.3701"/>
<polygon fill="midnightblue" stroke="midnightblue" points="1288.71,-96.1759 1278.42,-93.6819 1284.91,-102.053 1288.71,-96.1759"/>
</g>
<!-- Node36&#45;&gt;Node28 -->
<g id="edge57" class="edge"><title>Node36&#45;&gt;Node28</title>
<path fill="none" stroke="midnightblue" d="M1440.59,-136.922C1505.56,-124.494 1598.79,-106.657 1657.34,-95.4568"/>
<polygon fill="midnightblue" stroke="midnightblue" points="1658.33,-98.8305 1667.5,-93.5138 1657.02,-91.9551 1658.33,-98.8305"/>
</g>
<!-- Node36&#45;&gt;Node31 -->
<g id="edge53" class="edge"><title>Node36&#45;&gt;Node31</title>
<path fill="none" stroke="midnightblue" d="M1411.3,-136.934C1441.33,-127.154 1481.82,-113.497 1517,-100 1519.11,-99.192 1521.27,-98.3328 1523.45,-97.4505"/>
<polygon fill="midnightblue" stroke="midnightblue" points="1524.98,-100.605 1532.85,-93.5212 1522.28,-94.146 1524.98,-100.605"/>
</g>
<!-- Node37 -->
<g id="node37" class="node"><title>Node37</title>
<polygon fill="none" stroke="#bfbfbf" points="1349,-74.5 1349,-93.5 1395,-93.5 1395,-74.5 1349,-74.5"/>
<text text-anchor="middle" x="1372" y="-81.5" font-family="Helvetica,sans-Serif" font-size="10.00">cstdint</text>
</g>
<!-- Node36&#45;&gt;Node37 -->
<g id="edge55" class="edge"><title>Node36&#45;&gt;Node37</title>
<path fill="none" stroke="midnightblue" d="M1368.08,-136.679C1368.81,-127.101 1369.77,-114.394 1370.56,-103.977"/>
<polygon fill="midnightblue" stroke="midnightblue" points="1374.07,-104.064 1371.33,-93.8283 1367.09,-103.535 1374.07,-104.064"/>
</g>
<!-- Node38 -->
<g id="node38" class="node"><title>Node38</title>
<polygon fill="none" stroke="#bfbfbf" points="1413,-74.5 1413,-93.5 1475,-93.5 1475,-74.5 1413,-74.5"/>
<text text-anchor="middle" x="1444" y="-81.5" font-family="Helvetica,sans-Serif" font-size="10.00">type_traits</text>
</g>
<!-- Node36&#45;&gt;Node38 -->
<g id="edge56" class="edge"><title>Node36&#45;&gt;Node38</title>
<path fill="none" stroke="midnightblue" d="M1383.71,-136.679C1396.19,-125.981 1413.23,-111.377 1426.01,-100.422"/>
<polygon fill="midnightblue" stroke="midnightblue" points="1428.39,-102.994 1433.7,-93.8283 1423.83,-97.6788 1428.39,-102.994"/>
</g>
</g>
</svg>
        <g id="navigator" transform="translate(0 0)" fill="#404254">
                <rect fill="#f2f5e9" fill-opacity="0.5" stroke="#606060" stroke-width=".5" x="0" y="0" width="60" height="60"/>
                <use id="zoomplus" xlink:href="#zoomPlus" x="17" y="9" onmousedown="handleZoom(evt,'in')"/>
                <use id="zoomminus" xlink:href="#zoomMin" x="42" y="9" onmousedown="handleZoom(evt,'out')"/>
                <use id="reset" xlink:href="#resetDef" x="30" y="36" onmousedown="handleReset()"/>
                <g id="arrowUp" xlink:href="#dirArrow" transform="translate(30 24)" onmousedown="handlePan(0,-1)">
                  <use xlink:href="#rim" fill="#404040">
                        <set attributeName="fill" to="#808080" begin="arrowUp.mouseover" end="arrowUp.mouseout"/>
                  </use>
                  <path fill="none" stroke="white" stroke-width="1.5" d="M0,-3.0v7 M-2.5,-0.5L0,-3.0L2.5,-0.5"/>
                </g>
                <g id="arrowRight" xlink:href="#dirArrow" transform="rotate(90) translate(36 -43)" onmousedown="handlePan(1,0)">
                  <use xlink:href="#rim" fill="#404040">
                        <set attributeName="fill" to="#808080" begin="arrowRight.mouseover" end="arrowRight.mouseout"/>
                  </use>
                  <path fill="none" stroke="white" stroke-width="1.5" d="M0,-3.0v7 M-2.5,-0.5L0,-3.0L2.5,-0.5"/>
                </g>
                <g id="arrowDown" xlink:href="#dirArrow" transform="rotate(180) translate(-30 -48)" onmousedown="handlePan(0,1)">
                  <use xlink:href="#rim" fill="#404040">
                        <set attributeName="fill" to="#808080" begin="arrowDown.mouseover" end="arrowDown.mouseout"/>
                  </use>
                  <path fill="none" stroke="white" stroke-width="1.5" d="M0,-3.0v7 M-2.5,-0.5L0,-3.0L2.5,-0.5"/>
                </g>
                <g id="arrowLeft" xlink:href="#dirArrow" transform="rotate(270) translate(-36 17)" onmousedown="handlePan(-1,0)">
                  <use xlink:href="#rim" fill="#404040">
                        <set attributeName="fill" to="#808080" begin="arrowLeft.mouseover" end="arrowLeft.mouseout"/>
                  </use>
                  <path fill="none" stroke="white" stroke-width="1.5" d="M0,-3.0v7 M-2.5,-0.5L0,-3.0L2.5,-0.5"/>
                </g>
        </g>
        <svg viewBox="0 0 15 15" width="100%" height="30px" preserveAspectRatio="xMaxYMin meet">
         <g id="arrow_out" transform="scale(0.3 0.3)">
          <a xlink:href="CATracker_8cxx__incl_org.svg" target="_base">
           <rect id="button" ry="5" rx="5" y="6" x="6" height="38" width="38"
                fill="#f2f5e9" fill-opacity="0.5" stroke="#606060" stroke-width="1.0"/>
           <path id="arrow"
             d="M 11.500037,31.436501 C 11.940474,20.09759 22.043105,11.32322 32.158766,21.979434 L 37.068811,17.246167 C 37.068811,17.246167 37.088388,32 37.088388,32 L 22.160133,31.978069 C 22.160133,31.978069 26.997745,27.140456 26.997745,27.140456 C 18.528582,18.264221 13.291696,25.230495 11.500037,31.436501 z"
             style="fill:#404040;"/>
          </a>
         </g>
        </svg>
</svg>
