<?xml version="1.0" encoding="UTF-8" standalone="no"?>
<!DOCTYPE svg PUBLIC "-//W3C//DTD SVG 1.1//EN"
 "http://www.w3.org/Graphics/SVG/1.1/DTD/svg11.dtd">
<!-- Generated by graphviz version 2.36.0 (20140111.2315)
 -->
<!-- Title: /home/travis/build/AliceO2Group/AliceO2/DataFormats/Detectors/TPC/include/DataFormatsTPC/Cluster.h Pages: 1 -->
<!--zoomable 440 -->
<svg id="main" version="1.1" xmlns="http://www.w3.org/2000/svg" xmlns:xlink="http://www.w3.org/1999/xlink" xml:space="preserve" onload="init(evt)">
<style type="text/css"><![CDATA[
.edge:hover path { stroke: red; }
.edge:hover polygon { stroke: red; fill: red; }
]]></style>
<script type="text/javascript"><![CDATA[
var edges = document.getElementsByTagName('g');
if (edges && edges.length) {
  for (var i=0;i<edges.length;i++) {
    if (edges[i].id.substr(0,4)=='edge') {
      edges[i].setAttribute('class','edge');
    }
  }
}
]]></script>
        <defs>
                <circle id="rim" cx="0" cy="0" r="7"/>
                <circle id="rim2" cx="0" cy="0" r="3.5"/>
                <g id="zoomPlus">
                        <use xlink:href="#rim" fill="#404040">
                                <set attributeName="fill" to="#808080" begin="zoomplus.mouseover" end="zoomplus.mouseout"/>
                        </use>
                        <path d="M-4,0h8M0,-4v8" fill="none" stroke="white" stroke-width="1.5" pointer-events="none"/>
                </g>
                <g id="zoomMin">
                        <use xlink:href="#rim" fill="#404040">
                                <set attributeName="fill" to="#808080" begin="zoomminus.mouseover" end="zoomminus.mouseout"/>
                        </use>
                        <path d="M-4,0h8" fill="none" stroke="white" stroke-width="1.5" pointer-events="none"/>
                </g>
                <g id="dirArrow">
                        <path fill="none" stroke="white" stroke-width="1.5" d="M0,-3.0v7 M-2.5,-0.5L0,-3.0L2.5,-0.5"/>
                </g>
               <g id="resetDef">
                       <use xlink:href="#rim2" fill="#404040">
                               <set attributeName="fill" to="#808080" begin="reset.mouseover" end="reset.mouseout"/>
                       </use>
               </g>
        </defs>

<script type="text/javascript">
var viewWidth = 2268;
var viewHeight = 440;
var sectionId = 'dynsection-1';
</script>
<script xlink:href="../../svgpan.js"/>
<svg id="graph" class="graph">
<g id="viewport">
<title>/home/travis/build/AliceO2Group/AliceO2/DataFormats/Detectors/TPC/include/DataFormatsTPC/Cluster.h</title>
<!-- Node1 -->
<g id="node1" class="node"><title>Node1</title>
<polygon fill="#bfbfbf" stroke="black" points="1259.59,-368.5 1259.59,-431.5 1413.59,-431.5 1413.59,-368.5 1259.59,-368.5"/>
<text text-anchor="start" x="1267.59" y="-419.5" font-family="Helvetica,sans-Serif" font-size="10.00">/home/travis/build</text>
<text text-anchor="start" x="1267.59" y="-408.5" font-family="Helvetica,sans-Serif" font-size="10.00">/AliceO2Group/AliceO2</text>
<text text-anchor="start" x="1267.59" y="-397.5" font-family="Helvetica,sans-Serif" font-size="10.00">/DataFormats/Detectors</text>
<text text-anchor="start" x="1267.59" y="-386.5" font-family="Helvetica,sans-Serif" font-size="10.00">/TPC/include/DataFormatsTPC</text>
<text text-anchor="middle" x="1336.59" y="-375.5" font-family="Helvetica,sans-Serif" font-size="10.00">/Cluster.h</text>
</g>
<!-- Node2 -->
<g id="node2" class="node"><title>Node2</title>
<g id="a_node2"><a xlink:href="../../d5/dc9/TrackTPC_8h.html" target="_top" xlink:title="/home/travis/build\l/AliceO2Group/AliceO2\l/DataFormats/Detectors\l/TPC/include/DataFormatsTPC\l/TrackTPC.h">
<polygon fill="none" stroke="black" points="1135.59,-268.5 1135.59,-331.5 1289.59,-331.5 1289.59,-268.5 1135.59,-268.5"/>
<text text-anchor="start" x="1143.59" y="-319.5" font-family="Helvetica,sans-Serif" font-size="10.00">/home/travis/build</text>
<text text-anchor="start" x="1143.59" y="-308.5" font-family="Helvetica,sans-Serif" font-size="10.00">/AliceO2Group/AliceO2</text>
<text text-anchor="start" x="1143.59" y="-297.5" font-family="Helvetica,sans-Serif" font-size="10.00">/DataFormats/Detectors</text>
<text text-anchor="start" x="1143.59" y="-286.5" font-family="Helvetica,sans-Serif" font-size="10.00">/TPC/include/DataFormatsTPC</text>
<text text-anchor="middle" x="1212.59" y="-275.5" font-family="Helvetica,sans-Serif" font-size="10.00">/TrackTPC.h</text>
</a>
</g>
</g>
<!-- Node1&#45;&gt;Node2 -->
<g id="edge1" class="edge"><title>Node1&#45;&gt;Node2</title>
<path fill="none" stroke="midnightblue" d="M1289.56,-361.83C1276.95,-351.862 1263.46,-341.199 1251.35,-331.63"/>
<polygon fill="midnightblue" stroke="midnightblue" points="1287.68,-364.806 1297.7,-368.261 1292.03,-359.315 1287.68,-364.806"/>
</g>
<!-- Node7 -->
<g id="node7" class="node"><title>Node7</title>
<g id="a_node7"><a xlink:href="../../df/d30/TPCCATracking_8h.html" target="_top" xlink:title="Decoder to convert TPC ClusterHardware to ClusterNative. ">
<polygon fill="none" stroke="black" points="937.595,-168.5 937.595,-231.5 1087.59,-231.5 1087.59,-168.5 937.595,-168.5"/>
<text text-anchor="start" x="945.595" y="-219.5" font-family="Helvetica,sans-Serif" font-size="10.00">/home/travis/build</text>
<text text-anchor="start" x="945.595" y="-208.5" font-family="Helvetica,sans-Serif" font-size="10.00">/AliceO2Group/AliceO2</text>
<text text-anchor="start" x="945.595" y="-197.5" font-family="Helvetica,sans-Serif" font-size="10.00">/Detectors/TPC/reconstruction</text>
<text text-anchor="start" x="945.595" y="-186.5" font-family="Helvetica,sans-Serif" font-size="10.00">/include/TPCReconstruction</text>
<text text-anchor="middle" x="1012.59" y="-175.5" font-family="Helvetica,sans-Serif" font-size="10.00">/TPCCATracking.h</text>
</a>
</g>
</g>
<!-- Node1&#45;&gt;Node7 -->
<g id="edge32" class="edge"><title>Node1&#45;&gt;Node7</title>
<path fill="none" stroke="midnightblue" d="M1249.6,-382.546C1209.85,-372.288 1163.51,-356.281 1126.59,-332 1086.42,-305.576 1052.05,-261.226 1031.85,-231.545"/>
<polygon fill="midnightblue" stroke="midnightblue" points="1249,-386.005 1259.55,-385.032 1250.7,-379.214 1249,-386.005"/>
</g>
<!-- Node8 -->
<g id="node8" class="node"><title>Node8</title>
<g id="a_node8"><a xlink:href="../../d1/d27/runCATracking_8C.html" target="_top" xlink:title="/home/travis/build\l/AliceO2Group/AliceO2\l/Detectors/TPC/reconstruction\l/macro/runCATracking.C">
<polygon fill="none" stroke="black" points="787.595,-79 787.595,-131 937.595,-131 937.595,-79 787.595,-79"/>
<text text-anchor="start" x="795.595" y="-119" font-family="Helvetica,sans-Serif" font-size="10.00">/home/travis/build</text>
<text text-anchor="start" x="795.595" y="-108" font-family="Helvetica,sans-Serif" font-size="10.00">/AliceO2Group/AliceO2</text>
<text text-anchor="start" x="795.595" y="-97" font-family="Helvetica,sans-Serif" font-size="10.00">/Detectors/TPC/reconstruction</text>
<text text-anchor="middle" x="862.595" y="-86" font-family="Helvetica,sans-Serif" font-size="10.00">/macro/runCATracking.C</text>
</a>
</g>
</g>
<!-- Node1&#45;&gt;Node8 -->
<g id="edge37" class="edge"><title>Node1&#45;&gt;Node8</title>
<path fill="none" stroke="midnightblue" d="M1249.36,-394.808C1143.26,-384.487 968.119,-349.483 885.595,-232 864.505,-201.977 861.047,-158.312 861.253,-131.063"/>
<polygon fill="midnightblue" stroke="midnightblue" points="1249.13,-398.301 1259.41,-395.731 1249.77,-391.33 1249.13,-398.301"/>
</g>
<!-- Node12 -->
<g id="node12" class="node"><title>Node12</title>
<g id="a_node12"><a xlink:href="../../d9/d90/convertTracks_8C.html" target="_top" xlink:title="/home/travis/build\l/AliceO2Group/AliceO2\l/Detectors/TPC/reconstruction\l/macro/convertTracks.C">
<polygon fill="none" stroke="black" points="1497.59,-174 1497.59,-226 1647.59,-226 1647.59,-174 1497.59,-174"/>
<text text-anchor="start" x="1505.59" y="-214" font-family="Helvetica,sans-Serif" font-size="10.00">/home/travis/build</text>
<text text-anchor="start" x="1505.59" y="-203" font-family="Helvetica,sans-Serif" font-size="10.00">/AliceO2Group/AliceO2</text>
<text text-anchor="start" x="1505.59" y="-192" font-family="Helvetica,sans-Serif" font-size="10.00">/Detectors/TPC/reconstruction</text>
<text text-anchor="middle" x="1572.59" y="-181" font-family="Helvetica,sans-Serif" font-size="10.00">/macro/convertTracks.C</text>
</a>
</g>
</g>
<!-- Node1&#45;&gt;Node12 -->
<g id="edge33" class="edge"><title>Node1&#45;&gt;Node12</title>
<path fill="none" stroke="midnightblue" d="M1326.42,-358.336C1321.87,-329.945 1321.37,-292.831 1341.59,-268 1383.8,-216.184 1423.66,-251.478 1487.59,-232 1493.6,-230.169 1499.81,-228.153 1506.01,-226.055"/>
<polygon fill="midnightblue" stroke="midnightblue" points="1323.01,-359.153 1328.25,-368.363 1329.89,-357.897 1323.01,-359.153"/>
</g>
<!-- Node13 -->
<g id="node13" class="node"><title>Node13</title>
<g id="a_node13"><a xlink:href="../../d6/dee/dEdxRes_8C.html" target="_top" xlink:title="/home/travis/build\l/AliceO2Group/AliceO2\l/Detectors/TPC/reconstruction\l/macro/dEdxRes.C">
<polygon fill="none" stroke="black" points="1665.59,-174 1665.59,-226 1815.59,-226 1815.59,-174 1665.59,-174"/>
<text text-anchor="start" x="1673.59" y="-214" font-family="Helvetica,sans-Serif" font-size="10.00">/home/travis/build</text>
<text text-anchor="start" x="1673.59" y="-203" font-family="Helvetica,sans-Serif" font-size="10.00">/AliceO2Group/AliceO2</text>
<text text-anchor="start" x="1673.59" y="-192" font-family="Helvetica,sans-Serif" font-size="10.00">/Detectors/TPC/reconstruction</text>
<text text-anchor="middle" x="1740.59" y="-181" font-family="Helvetica,sans-Serif" font-size="10.00">/macro/dEdxRes.C</text>
</a>
</g>
</g>
<!-- Node1&#45;&gt;Node13 -->
<g id="edge34" class="edge"><title>Node1&#45;&gt;Node13</title>
<path fill="none" stroke="midnightblue" d="M1338.84,-358.354C1342.76,-328.697 1353.04,-289.988 1379.59,-268 1427.23,-228.549 1595.51,-246.685 1655.59,-232 1662.46,-230.322 1669.54,-228.276 1676.54,-226.043"/>
<polygon fill="midnightblue" stroke="midnightblue" points="1335.35,-358.094 1337.7,-368.424 1342.3,-358.88 1335.35,-358.094"/>
</g>
<!-- Node14 -->
<g id="node14" class="node"><title>Node14</title>
<g id="a_node14"><a xlink:href="../../d5/db8/RawClusterFinder_8C.html" target="_top" xlink:title="/home/travis/build\l/AliceO2Group/AliceO2\l/Detectors/TPC/reconstruction\l/macro/RawClusterFinder.C">
<polygon fill="none" stroke="black" points="693.595,-174 693.595,-226 843.595,-226 843.595,-174 693.595,-174"/>
<text text-anchor="start" x="701.595" y="-214" font-family="Helvetica,sans-Serif" font-size="10.00">/home/travis/build</text>
<text text-anchor="start" x="701.595" y="-203" font-family="Helvetica,sans-Serif" font-size="10.00">/AliceO2Group/AliceO2</text>
<text text-anchor="start" x="701.595" y="-192" font-family="Helvetica,sans-Serif" font-size="10.00">/Detectors/TPC/reconstruction</text>
<text text-anchor="middle" x="768.595" y="-181" font-family="Helvetica,sans-Serif" font-size="10.00">/macro/RawClusterFinder.C</text>
</a>
</g>
</g>
<!-- Node1&#45;&gt;Node14 -->
<g id="edge35" class="edge"><title>Node1&#45;&gt;Node14</title>
<path fill="none" stroke="midnightblue" d="M1249.06,-395.186C1129.11,-388.551 921.245,-371.597 857.595,-332 817.555,-307.092 791.22,-256.765 778.196,-226.254"/>
<polygon fill="midnightblue" stroke="midnightblue" points="1249.15,-398.695 1259.32,-395.74 1249.53,-391.706 1249.15,-398.695"/>
</g>
<!-- Node16 -->
<g id="node16" class="node"><title>Node16</title>
<g id="a_node16"><a xlink:href="../../db/d60/testTracks_8C.html" target="_top" xlink:title="/home/travis/build\l/AliceO2Group/AliceO2\l/Detectors/TPC/reconstruction\l/macro/testTracks.C">
<polygon fill="none" stroke="black" points="1833.59,-174 1833.59,-226 1983.59,-226 1983.59,-174 1833.59,-174"/>
<text text-anchor="start" x="1841.59" y="-214" font-family="Helvetica,sans-Serif" font-size="10.00">/home/travis/build</text>
<text text-anchor="start" x="1841.59" y="-203" font-family="Helvetica,sans-Serif" font-size="10.00">/AliceO2Group/AliceO2</text>
<text text-anchor="start" x="1841.59" y="-192" font-family="Helvetica,sans-Serif" font-size="10.00">/Detectors/TPC/reconstruction</text>
<text text-anchor="middle" x="1908.59" y="-181" font-family="Helvetica,sans-Serif" font-size="10.00">/macro/testTracks.C</text>
</a>
</g>
</g>
<!-- Node1&#45;&gt;Node16 -->
<g id="edge38" class="edge"><title>Node1&#45;&gt;Node16</title>
<path fill="none" stroke="midnightblue" d="M1360.4,-359.567C1383.46,-321.511 1415.29,-269.422 1417.59,-268 1494.68,-220.447 1735.18,-251.685 1823.59,-232 1830.8,-230.396 1838.23,-228.335 1845.55,-226.041"/>
<polygon fill="midnightblue" stroke="midnightblue" points="1357.23,-358.049 1355.04,-368.416 1363.22,-361.674 1357.23,-358.049"/>
</g>
<!-- Node17 -->
<g id="node17" class="node"><title>Node17</title>
<g id="a_node17"><a xlink:href="../../d9/d59/testHitsDigitsClusters_8C.html" target="_top" xlink:title="/home/travis/build\l/AliceO2Group/AliceO2\l/Detectors/TPC/simulation\l/macro/testHitsDigitsClusters.C">
<polygon fill="none" stroke="black" points="2002.09,-174 2002.09,-226 2159.09,-226 2159.09,-174 2002.09,-174"/>
<text text-anchor="start" x="2010.09" y="-214" font-family="Helvetica,sans-Serif" font-size="10.00">/home/travis/build</text>
<text text-anchor="start" x="2010.09" y="-203" font-family="Helvetica,sans-Serif" font-size="10.00">/AliceO2Group/AliceO2</text>
<text text-anchor="start" x="2010.09" y="-192" font-family="Helvetica,sans-Serif" font-size="10.00">/Detectors/TPC/simulation</text>
<text text-anchor="middle" x="2080.59" y="-181" font-family="Helvetica,sans-Serif" font-size="10.00">/macro/testHitsDigitsClusters.C</text>
</a>
</g>
</g>
<!-- Node1&#45;&gt;Node17 -->
<g id="edge42" class="edge"><title>Node1&#45;&gt;Node17</title>
<path fill="none" stroke="midnightblue" d="M1383.63,-361.654C1393.77,-352.512 1404.01,-342.361 1412.59,-332 1433.7,-306.53 1422.4,-285.311 1450.59,-268 1553.27,-204.949 1873.53,-256.033 1991.59,-232 1999.29,-230.433 2007.23,-228.365 2015.05,-226.037"/>
<polygon fill="midnightblue" stroke="midnightblue" points="1381.12,-359.201 1375.92,-368.435 1385.74,-364.456 1381.12,-359.201"/>
</g>
<!-- Node18 -->
<g id="node18" class="node"><title>Node18</title>
<g id="a_node18"><a xlink:href="../../d6/dbf/TPC_2src_2Cluster_8cxx.html" target="_top" xlink:title="/home/travis/build\l/AliceO2Group/AliceO2\l/DataFormats/Detectors\l/TPC/src/Cluster.cxx">
<polygon fill="none" stroke="black" points="1459.59,-274 1459.59,-326 1581.59,-326 1581.59,-274 1459.59,-274"/>
<text text-anchor="start" x="1467.59" y="-314" font-family="Helvetica,sans-Serif" font-size="10.00">/home/travis/build</text>
<text text-anchor="start" x="1467.59" y="-303" font-family="Helvetica,sans-Serif" font-size="10.00">/AliceO2Group/AliceO2</text>
<text text-anchor="start" x="1467.59" y="-292" font-family="Helvetica,sans-Serif" font-size="10.00">/DataFormats/Detectors</text>
<text text-anchor="middle" x="1520.59" y="-281" font-family="Helvetica,sans-Serif" font-size="10.00">/TPC/src/Cluster.cxx</text>
</a>
</g>
</g>
<!-- Node1&#45;&gt;Node18 -->
<g id="edge19" class="edge"><title>Node1&#45;&gt;Node18</title>
<path fill="none" stroke="midnightblue" d="M1403.18,-363.534C1426.45,-351.141 1452.07,-337.495 1473.43,-326.121"/>
<polygon fill="midnightblue" stroke="midnightblue" points="1401.24,-360.605 1394.06,-368.395 1404.53,-366.784 1401.24,-360.605"/>
</g>
<!-- Node19 -->
<g id="node19" class="node"><title>Node19</title>
<g id="a_node19"><a xlink:href="../../d2/df8/BoxClusterer_8h.html" target="_top" xlink:title="Class for TPC cluster finding. ">
<polygon fill="none" stroke="black" points="557.595,-268.5 557.595,-331.5 707.595,-331.5 707.595,-268.5 557.595,-268.5"/>
<text text-anchor="start" x="565.595" y="-319.5" font-family="Helvetica,sans-Serif" font-size="10.00">/home/travis/build</text>
<text text-anchor="start" x="565.595" y="-308.5" font-family="Helvetica,sans-Serif" font-size="10.00">/AliceO2Group/AliceO2</text>
<text text-anchor="start" x="565.595" y="-297.5" font-family="Helvetica,sans-Serif" font-size="10.00">/Detectors/TPC/reconstruction</text>
<text text-anchor="start" x="565.595" y="-286.5" font-family="Helvetica,sans-Serif" font-size="10.00">/include/TPCReconstruction</text>
<text text-anchor="middle" x="632.595" y="-275.5" font-family="Helvetica,sans-Serif" font-size="10.00">/BoxClusterer.h</text>
</a>
</g>
</g>
<!-- Node1&#45;&gt;Node19 -->
<g id="edge20" class="edge"><title>Node1&#45;&gt;Node19</title>
<path fill="none" stroke="midnightblue" d="M1249.1,-390.454C1140.34,-379.345 949.199,-358.23 786.595,-332 760.882,-327.852 732.922,-322.485 707.97,-317.385"/>
<polygon fill="midnightblue" stroke="midnightblue" points="1249.06,-393.968 1259.36,-391.497 1249.77,-387.004 1249.06,-393.968"/>
</g>
<!-- Node21 -->
<g id="node21" class="node"><title>Node21</title>
<g id="a_node21"><a xlink:href="../../d8/d0f/TPC_2reconstruction_2src_2ClustererTask_8cxx.html" target="_top" xlink:title="/home/travis/build\l/AliceO2Group/AliceO2\l/Detectors/TPC/reconstruction\l/src/ClustererTask.cxx">
<polygon fill="none" stroke="black" points="116.595,-79 116.595,-131 266.595,-131 266.595,-79 116.595,-79"/>
<text text-anchor="start" x="124.595" y="-119" font-family="Helvetica,sans-Serif" font-size="10.00">/home/travis/build</text>
<text text-anchor="start" x="124.595" y="-108" font-family="Helvetica,sans-Serif" font-size="10.00">/AliceO2Group/AliceO2</text>
<text text-anchor="start" x="124.595" y="-97" font-family="Helvetica,sans-Serif" font-size="10.00">/Detectors/TPC/reconstruction</text>
<text text-anchor="middle" x="191.595" y="-86" font-family="Helvetica,sans-Serif" font-size="10.00">/src/ClustererTask.cxx</text>
</a>
</g>
</g>
<!-- Node1&#45;&gt;Node21 -->
<g id="edge40" class="edge"><title>Node1&#45;&gt;Node21</title>
<path fill="none" stroke="midnightblue" d="M1249.25,-399.535C1076.02,-399.18 677.256,-391.294 348.595,-332 195.263,-304.337 105.737,-356.901 12.5946,-232 -4.40971,-209.198 -3.90207,-191.172 12.5946,-168 36.1505,-134.912 78.6374,-119.32 116.308,-112.043"/>
<polygon fill="midnightblue" stroke="midnightblue" points="1249.33,-403.035 1259.33,-399.548 1249.34,-396.035 1249.33,-403.035"/>
</g>
<!-- Node24 -->
<g id="node24" class="node"><title>Node24</title>
<g id="a_node24"><a xlink:href="../../de/df6/HwClusterer_8h.html" target="_top" xlink:title="Class for TPC HW cluster finding. ">
<polygon fill="none" stroke="black" points="357.595,-268.5 357.595,-331.5 507.595,-331.5 507.595,-268.5 357.595,-268.5"/>
<text text-anchor="start" x="365.595" y="-319.5" font-family="Helvetica,sans-Serif" font-size="10.00">/home/travis/build</text>
<text text-anchor="start" x="365.595" y="-308.5" font-family="Helvetica,sans-Serif" font-size="10.00">/AliceO2Group/AliceO2</text>
<text text-anchor="start" x="365.595" y="-297.5" font-family="Helvetica,sans-Serif" font-size="10.00">/Detectors/TPC/reconstruction</text>
<text text-anchor="start" x="365.595" y="-286.5" font-family="Helvetica,sans-Serif" font-size="10.00">/include/TPCReconstruction</text>
<text text-anchor="middle" x="432.595" y="-275.5" font-family="Helvetica,sans-Serif" font-size="10.00">/HwClusterer.h</text>
</a>
</g>
</g>
<!-- Node1&#45;&gt;Node24 -->
<g id="edge27" class="edge"><title>Node1&#45;&gt;Node24</title>
<path fill="none" stroke="midnightblue" d="M1249.15,-396.594C1103.06,-391.453 800.538,-376.021 548.595,-332 535.247,-329.668 521.199,-326.521 507.667,-323.125"/>
<polygon fill="midnightblue" stroke="midnightblue" points="1249.28,-400.1 1259.39,-396.946 1249.52,-393.104 1249.28,-400.1"/>
</g>
<!-- Node27 -->
<g id="node27" class="node"><title>Node27</title>
<g id="a_node27"><a xlink:href="../../d4/d0e/readClusterMCtruth_8C.html" target="_top" xlink:title="/home/travis/build\l/AliceO2Group/AliceO2\l/Detectors/TPC/reconstruction\l/macro/readClusterMCtruth.C">
<polygon fill="none" stroke="black" points="1599.59,-274 1599.59,-326 1749.59,-326 1749.59,-274 1599.59,-274"/>
<text text-anchor="start" x="1607.59" y="-314" font-family="Helvetica,sans-Serif" font-size="10.00">/home/travis/build</text>
<text text-anchor="start" x="1607.59" y="-303" font-family="Helvetica,sans-Serif" font-size="10.00">/AliceO2Group/AliceO2</text>
<text text-anchor="start" x="1607.59" y="-292" font-family="Helvetica,sans-Serif" font-size="10.00">/Detectors/TPC/reconstruction</text>
<text text-anchor="middle" x="1674.59" y="-281" font-family="Helvetica,sans-Serif" font-size="10.00">/macro/readClusterMCtruth.C</text>
</a>
</g>
</g>
<!-- Node1&#45;&gt;Node27 -->
<g id="edge36" class="edge"><title>Node1&#45;&gt;Node27</title>
<path fill="none" stroke="midnightblue" d="M1423.83,-378.182C1473.11,-365.875 1535.67,-349.336 1590.59,-332 1596.38,-330.175 1602.35,-328.187 1608.31,-326.128"/>
<polygon fill="midnightblue" stroke="midnightblue" points="1422.7,-374.857 1413.84,-380.665 1424.39,-381.65 1422.7,-374.857"/>
</g>
<!-- Node28 -->
<g id="node28" class="node"><title>Node28</title>
<g id="a_node28"><a xlink:href="../../dc/dab/ClusterContainer_8cxx.html" target="_top" xlink:title="/home/travis/build\l/AliceO2Group/AliceO2\l/Detectors/TPC/reconstruction\l/src/ClusterContainer.cxx">
<polygon fill="none" stroke="black" points="1767.59,-274 1767.59,-326 1917.59,-326 1917.59,-274 1767.59,-274"/>
<text text-anchor="start" x="1775.59" y="-314" font-family="Helvetica,sans-Serif" font-size="10.00">/home/travis/build</text>
<text text-anchor="start" x="1775.59" y="-303" font-family="Helvetica,sans-Serif" font-size="10.00">/AliceO2Group/AliceO2</text>
<text text-anchor="start" x="1775.59" y="-292" font-family="Helvetica,sans-Serif" font-size="10.00">/Detectors/TPC/reconstruction</text>
<text text-anchor="middle" x="1842.59" y="-281" font-family="Helvetica,sans-Serif" font-size="10.00">/src/ClusterContainer.cxx</text>
</a>
</g>
</g>
<!-- Node1&#45;&gt;Node28 -->
<g id="edge39" class="edge"><title>Node1&#45;&gt;Node28</title>
<path fill="none" stroke="midnightblue" d="M1423.91,-390.058C1509.76,-380.11 1644.06,-361.445 1757.59,-332 1764.13,-330.304 1770.87,-328.304 1777.56,-326.148"/>
<polygon fill="midnightblue" stroke="midnightblue" points="1423.48,-386.584 1413.94,-391.199 1424.28,-393.539 1423.48,-386.584"/>
</g>
<!-- Node29 -->
<g id="node29" class="node"><title>Node29</title>
<g id="a_node29"><a xlink:href="../../d6/dc6/HwClusterFinder_8cxx.html" target="_top" xlink:title="/home/travis/build\l/AliceO2Group/AliceO2\l/Detectors/TPC/reconstruction\l/src/HwClusterFinder.cxx">
<polygon fill="none" stroke="black" points="1935.59,-274 1935.59,-326 2085.59,-326 2085.59,-274 1935.59,-274"/>
<text text-anchor="start" x="1943.59" y="-314" font-family="Helvetica,sans-Serif" font-size="10.00">/home/travis/build</text>
<text text-anchor="start" x="1943.59" y="-303" font-family="Helvetica,sans-Serif" font-size="10.00">/AliceO2Group/AliceO2</text>
<text text-anchor="start" x="1943.59" y="-292" font-family="Helvetica,sans-Serif" font-size="10.00">/Detectors/TPC/reconstruction</text>
<text text-anchor="middle" x="2010.59" y="-281" font-family="Helvetica,sans-Serif" font-size="10.00">/src/HwClusterFinder.cxx</text>
</a>
</g>
</g>
<!-- Node1&#45;&gt;Node29 -->
<g id="edge41" class="edge"><title>Node1&#45;&gt;Node29</title>
<path fill="none" stroke="midnightblue" d="M1424.07,-395.504C1540.08,-389.407 1750.57,-373.256 1925.59,-332 1932.63,-330.342 1939.88,-328.279 1947.04,-326.01"/>
<polygon fill="midnightblue" stroke="midnightblue" points="1423.64,-392.021 1413.83,-396.029 1424,-399.012 1423.64,-392.021"/>
</g>
<!-- Node30 -->
<g id="node30" class="node"><title>Node30</title>
<g id="a_node30"><a xlink:href="../../d7/d3d/convertClusterToClusterHardware_8C.html" target="_top" xlink:title="/home/travis/build\l/AliceO2Group/AliceO2\l/macro/convertClusterToCluster\lHardware.C">
<polygon fill="none" stroke="black" points="2103.59,-274 2103.59,-326 2259.59,-326 2259.59,-274 2103.59,-274"/>
<text text-anchor="start" x="2111.59" y="-314" font-family="Helvetica,sans-Serif" font-size="10.00">/home/travis/build</text>
<text text-anchor="start" x="2111.59" y="-303" font-family="Helvetica,sans-Serif" font-size="10.00">/AliceO2Group/AliceO2</text>
<text text-anchor="start" x="2111.59" y="-292" font-family="Helvetica,sans-Serif" font-size="10.00">/macro/convertClusterToCluster</text>
<text text-anchor="middle" x="2181.59" y="-281" font-family="Helvetica,sans-Serif" font-size="10.00">Hardware.C</text>
</a>
</g>
</g>
<!-- Node1&#45;&gt;Node30 -->
<g id="edge43" class="edge"><title>Node1&#45;&gt;Node30</title>
<path fill="none" stroke="midnightblue" d="M1424.23,-398.326C1566.34,-395.658 1855.21,-383.679 2093.59,-332 2101.03,-330.387 2108.71,-328.321 2116.28,-326.024"/>
<polygon fill="midnightblue" stroke="midnightblue" points="1423.77,-394.833 1413.84,-398.509 1423.9,-401.832 1423.77,-394.833"/>
</g>
<!-- Node3 -->
<g id="node3" class="node"><title>Node3</title>
<g id="a_node3"><a xlink:href="../../d6/da8/TrackTPC_8cxx.html" target="_top" xlink:title="Implementation of the TPC track. ">
<polygon fill="none" stroke="black" points="1106.09,-174 1106.09,-226 1229.09,-226 1229.09,-174 1106.09,-174"/>
<text text-anchor="start" x="1114.09" y="-214" font-family="Helvetica,sans-Serif" font-size="10.00">/home/travis/build</text>
<text text-anchor="start" x="1114.09" y="-203" font-family="Helvetica,sans-Serif" font-size="10.00">/AliceO2Group/AliceO2</text>
<text text-anchor="start" x="1114.09" y="-192" font-family="Helvetica,sans-Serif" font-size="10.00">/DataFormats/Detectors</text>
<text text-anchor="middle" x="1167.59" y="-181" font-family="Helvetica,sans-Serif" font-size="10.00">/TPC/src/TrackTPC.cxx</text>
</a>
</g>
</g>
<!-- Node2&#45;&gt;Node3 -->
<g id="edge2" class="edge"><title>Node2&#45;&gt;Node3</title>
<path fill="none" stroke="midnightblue" d="M1194.27,-259.086C1189.14,-247.917 1183.71,-236.096 1179.1,-226.054"/>
<polygon fill="midnightblue" stroke="midnightblue" points="1191.13,-260.634 1198.48,-268.261 1197.49,-257.713 1191.13,-260.634"/>
</g>
<!-- Node4 -->
<g id="node4" class="node"><title>Node4</title>
<g id="a_node4"><a xlink:href="../../d3/dac/MatchTPCITS_8h.html" target="_top" xlink:title="Class to perform TPC ITS matching. ">
<polygon fill="none" stroke="black" points="1286.09,-174 1286.09,-226 1479.09,-226 1479.09,-174 1286.09,-174"/>
<text text-anchor="start" x="1294.09" y="-214" font-family="Helvetica,sans-Serif" font-size="10.00">/home/travis/build</text>
<text text-anchor="start" x="1294.09" y="-203" font-family="Helvetica,sans-Serif" font-size="10.00">/AliceO2Group/AliceO2</text>
<text text-anchor="start" x="1294.09" y="-192" font-family="Helvetica,sans-Serif" font-size="10.00">/Detectors/GlobalTracking</text>
<text text-anchor="middle" x="1382.59" y="-181" font-family="Helvetica,sans-Serif" font-size="10.00">/include/GlobalTracking/MatchTPCITS.h</text>
</a>
</g>
</g>
<!-- Node2&#45;&gt;Node4 -->
<g id="edge3" class="edge"><title>Node2&#45;&gt;Node4</title>
<path fill="none" stroke="midnightblue" d="M1274.63,-263.239C1296.03,-250.9 1319.54,-237.351 1339.13,-226.054"/>
<polygon fill="midnightblue" stroke="midnightblue" points="1272.83,-260.234 1265.92,-268.261 1276.33,-266.299 1272.83,-260.234"/>
</g>
<!-- Node2&#45;&gt;Node7 -->
<g id="edge6" class="edge"><title>Node2&#45;&gt;Node7</title>
<path fill="none" stroke="midnightblue" d="M1141.01,-263.923C1119.41,-253.337 1095.87,-241.806 1074.92,-231.541"/>
<polygon fill="midnightblue" stroke="midnightblue" points="1139.62,-267.138 1150.14,-268.395 1142.7,-260.852 1139.62,-267.138"/>
</g>
<!-- Node2&#45;&gt;Node8 -->
<g id="edge15" class="edge"><title>Node2&#45;&gt;Node8</title>
<path fill="none" stroke="midnightblue" d="M1125.2,-296.998C1064.47,-291.477 984.681,-275.527 928.595,-232 911.378,-218.639 886.529,-163.808 872.755,-131.041"/>
<polygon fill="midnightblue" stroke="midnightblue" points="1125.29,-300.517 1135.54,-297.855 1125.87,-293.541 1125.29,-300.517"/>
</g>
<!-- Node11 -->
<g id="node11" class="node"><title>Node11</title>
<g id="a_node11"><a xlink:href="../../d1/df0/runCATrackingClusterNative_8C.html" target="_top" xlink:title="/home/travis/build\l/AliceO2Group/AliceO2\l/macro/runCATrackingClusterNative.C">
<polygon fill="none" stroke="black" points="1123.09,-84.5 1123.09,-125.5 1308.09,-125.5 1308.09,-84.5 1123.09,-84.5"/>
<text text-anchor="start" x="1131.09" y="-113.5" font-family="Helvetica,sans-Serif" font-size="10.00">/home/travis/build</text>
<text text-anchor="start" x="1131.09" y="-102.5" font-family="Helvetica,sans-Serif" font-size="10.00">/AliceO2Group/AliceO2</text>
<text text-anchor="middle" x="1215.59" y="-91.5" font-family="Helvetica,sans-Serif" font-size="10.00">/macro/runCATrackingClusterNative.C</text>
</a>
</g>
</g>
<!-- Node2&#45;&gt;Node11 -->
<g id="edge18" class="edge"><title>Node2&#45;&gt;Node11</title>
<path fill="none" stroke="midnightblue" d="M1230.23,-258.787C1233.29,-250.112 1235.99,-240.877 1237.59,-232 1242.65,-204.008 1242.42,-196.032 1237.59,-168 1235.08,-153.367 1229.44,-137.608 1224.51,-125.639"/>
<polygon fill="midnightblue" stroke="midnightblue" points="1226.9,-257.702 1226.67,-268.294 1233.46,-260.155 1226.9,-257.702"/>
</g>
<!-- Node2&#45;&gt;Node12 -->
<g id="edge11" class="edge"><title>Node2&#45;&gt;Node12</title>
<path fill="none" stroke="midnightblue" d="M1299.76,-269.041C1301.05,-268.686 1302.32,-268.339 1303.59,-268 1384.11,-246.516 1407.32,-254.344 1487.59,-232 1493.95,-230.231 1500.51,-228.208 1507.03,-226.062"/>
<polygon fill="midnightblue" stroke="midnightblue" points="1298.47,-265.772 1289.82,-271.899 1300.4,-272.5 1298.47,-265.772"/>
</g>
<!-- Node2&#45;&gt;Node13 -->
<g id="edge12" class="edge"><title>Node2&#45;&gt;Node13</title>
<path fill="none" stroke="midnightblue" d="M1299.76,-276.534C1313.69,-273.382 1328,-270.404 1341.59,-268 1479.92,-243.544 1518.89,-264.288 1655.59,-232 1662.63,-230.339 1669.88,-228.274 1677.04,-226.004"/>
<polygon fill="midnightblue" stroke="midnightblue" points="1298.66,-273.197 1289.7,-278.853 1300.23,-280.018 1298.66,-273.197"/>
</g>
<!-- Node2&#45;&gt;Node14 -->
<g id="edge13" class="edge"><title>Node2&#45;&gt;Node14</title>
<path fill="none" stroke="midnightblue" d="M1125.56,-281.366C1061.78,-268.257 973.167,-249.661 895.595,-232 878.776,-228.171 860.75,-223.883 843.717,-219.747"/>
<polygon fill="midnightblue" stroke="midnightblue" points="1125.08,-284.84 1135.58,-283.421 1126.49,-277.982 1125.08,-284.84"/>
</g>
<!-- Node2&#45;&gt;Node16 -->
<g id="edge16" class="edge"><title>Node2&#45;&gt;Node16</title>
<path fill="none" stroke="midnightblue" d="M1299.72,-281.079C1325.36,-276.279 1353.53,-271.466 1379.59,-268 1575.85,-241.899 1630.18,-274.299 1823.59,-232 1830.81,-230.423 1838.24,-228.38 1845.56,-226.095"/>
<polygon fill="midnightblue" stroke="midnightblue" points="1298.83,-277.686 1289.65,-282.987 1300.13,-284.564 1298.83,-277.686"/>
</g>
<!-- Node2&#45;&gt;Node17 -->
<g id="edge17" class="edge"><title>Node2&#45;&gt;Node17</title>
<path fill="none" stroke="midnightblue" d="M1299.85,-284.085C1336.17,-278.325 1378.83,-272.139 1417.59,-268 1671.76,-240.865 1741.02,-282.508 1991.59,-232 1999.29,-230.448 2007.23,-228.388 2015.06,-226.066"/>
<polygon fill="midnightblue" stroke="midnightblue" points="1299.1,-280.66 1289.78,-285.696 1300.21,-287.572 1299.1,-280.66"/>
</g>
<!-- Node5 -->
<g id="node5" class="node"><title>Node5</title>
<g id="a_node5"><a xlink:href="../../dc/d59/MatchTPCITS_8cxx.html" target="_top" xlink:title="/home/travis/build\l/AliceO2Group/AliceO2\l/Detectors/GlobalTracking\l/src/MatchTPCITS.cxx">
<polygon fill="none" stroke="black" points="1326.09,-79 1326.09,-131 1457.09,-131 1457.09,-79 1326.09,-79"/>
<text text-anchor="start" x="1334.09" y="-119" font-family="Helvetica,sans-Serif" font-size="10.00">/home/travis/build</text>
<text text-anchor="start" x="1334.09" y="-108" font-family="Helvetica,sans-Serif" font-size="10.00">/AliceO2Group/AliceO2</text>
<text text-anchor="start" x="1334.09" y="-97" font-family="Helvetica,sans-Serif" font-size="10.00">/Detectors/GlobalTracking</text>
<text text-anchor="middle" x="1391.59" y="-86" font-family="Helvetica,sans-Serif" font-size="10.00">/src/MatchTPCITS.cxx</text>
</a>
</g>
</g>
<!-- Node4&#45;&gt;Node5 -->
<g id="edge4" class="edge"><title>Node4&#45;&gt;Node5</title>
<path fill="none" stroke="midnightblue" d="M1386.03,-163.549C1387.07,-152.722 1388.2,-141.046 1389.17,-131.06"/>
<polygon fill="midnightblue" stroke="midnightblue" points="1382.53,-163.297 1385.05,-173.587 1389.5,-163.971 1382.53,-163.297"/>
</g>
<!-- Node6 -->
<g id="node6" class="node"><title>Node6</title>
<g id="a_node6"><a xlink:href="../../d9/d84/run__match__TPCITS_8C.html" target="_top" xlink:title="/home/travis/build\l/AliceO2Group/AliceO2\l/macro/run_match_TPCITS.C">
<polygon fill="none" stroke="black" points="1475.09,-84.5 1475.09,-125.5 1622.09,-125.5 1622.09,-84.5 1475.09,-84.5"/>
<text text-anchor="start" x="1483.09" y="-113.5" font-family="Helvetica,sans-Serif" font-size="10.00">/home/travis/build</text>
<text text-anchor="start" x="1483.09" y="-102.5" font-family="Helvetica,sans-Serif" font-size="10.00">/AliceO2Group/AliceO2</text>
<text text-anchor="middle" x="1548.59" y="-91.5" font-family="Helvetica,sans-Serif" font-size="10.00">/macro/run_match_TPCITS.C</text>
</a>
</g>
</g>
<!-- Node4&#45;&gt;Node6 -->
<g id="edge5" class="edge"><title>Node4&#45;&gt;Node6</title>
<path fill="none" stroke="midnightblue" d="M1436.3,-168.914C1461.66,-154.703 1491.22,-138.145 1513.64,-125.584"/>
<polygon fill="midnightblue" stroke="midnightblue" points="1434.53,-165.892 1427.52,-173.833 1437.95,-171.999 1434.53,-165.892"/>
</g>
<!-- Node7&#45;&gt;Node8 -->
<g id="edge7" class="edge"><title>Node7&#45;&gt;Node8</title>
<path fill="none" stroke="midnightblue" d="M954.248,-162.825C937.139,-152.218 918.813,-140.855 903.079,-131.1"/>
<polygon fill="midnightblue" stroke="midnightblue" points="952.72,-165.996 963.063,-168.291 956.409,-160.046 952.72,-165.996"/>
</g>
<!-- Node10 -->
<g id="node10" class="node"><title>Node10</title>
<g id="a_node10"><a xlink:href="../../d8/ded/TPCCATracking_8cxx.html" target="_top" xlink:title="/home/travis/build\l/AliceO2Group/AliceO2\l/Detectors/TPC/reconstruction\l/src/TPCCATracking.cxx">
<polygon fill="none" stroke="black" points="955.595,-79 955.595,-131 1105.59,-131 1105.59,-79 955.595,-79"/>
<text text-anchor="start" x="963.595" y="-119" font-family="Helvetica,sans-Serif" font-size="10.00">/home/travis/build</text>
<text text-anchor="start" x="963.595" y="-108" font-family="Helvetica,sans-Serif" font-size="10.00">/AliceO2Group/AliceO2</text>
<text text-anchor="start" x="963.595" y="-97" font-family="Helvetica,sans-Serif" font-size="10.00">/Detectors/TPC/reconstruction</text>
<text text-anchor="middle" x="1030.59" y="-86" font-family="Helvetica,sans-Serif" font-size="10.00">/src/TPCCATracking.cxx</text>
</a>
</g>
</g>
<!-- Node7&#45;&gt;Node10 -->
<g id="edge9" class="edge"><title>Node7&#45;&gt;Node10</title>
<path fill="none" stroke="midnightblue" d="M1020.45,-158.409C1022.25,-149.121 1024.11,-139.513 1025.74,-131.1"/>
<polygon fill="midnightblue" stroke="midnightblue" points="1017,-157.808 1018.54,-168.291 1023.87,-159.138 1017,-157.808"/>
</g>
<!-- Node7&#45;&gt;Node11 -->
<g id="edge10" class="edge"><title>Node7&#45;&gt;Node11</title>
<path fill="none" stroke="midnightblue" d="M1088.48,-164.236C1116.95,-151.191 1148.3,-136.827 1172.75,-125.629"/>
<polygon fill="midnightblue" stroke="midnightblue" points="1086.98,-161.072 1079.35,-168.42 1089.89,-167.436 1086.98,-161.072"/>
</g>
<!-- Node9 -->
<g id="node9" class="node"><title>Node9</title>
<g id="a_node9"><a xlink:href="../../d3/d56/runTPC_8cxx.html" target="_top" xlink:title="/home/travis/build\l/AliceO2Group/AliceO2\l/run/runTPC.cxx">
<polygon fill="none" stroke="black" points="642.595,-0.5 642.595,-41.5 760.595,-41.5 760.595,-0.5 642.595,-0.5"/>
<text text-anchor="start" x="650.595" y="-29.5" font-family="Helvetica,sans-Serif" font-size="10.00">/home/travis/build</text>
<text text-anchor="start" x="650.595" y="-18.5" font-family="Helvetica,sans-Serif" font-size="10.00">/AliceO2Group/AliceO2</text>
<text text-anchor="middle" x="701.595" y="-7.5" font-family="Helvetica,sans-Serif" font-size="10.00">/run/runTPC.cxx</text>
</a>
</g>
</g>
<!-- Node8&#45;&gt;Node9 -->
<g id="edge8" class="edge"><title>Node8&#45;&gt;Node9</title>
<path fill="none" stroke="midnightblue" d="M804.392,-74.3565C782.967,-63.4444 759.255,-51.3673 740.008,-41.5645"/>
<polygon fill="midnightblue" stroke="midnightblue" points="802.915,-77.532 813.414,-78.9517 806.092,-71.2945 802.915,-77.532"/>
</g>
<!-- Node15 -->
<g id="node15" class="node"><title>Node15</title>
<g id="a_node15"><a xlink:href="../../df/da0/runRawClusterFinder_8C.html" target="_top" xlink:title="/home/travis/build\l/AliceO2Group/AliceO2\l/Detectors/TPC/reconstruction\l/macro/runRawClusterFinder.C">
<polygon fill="none" stroke="black" points="617.595,-79 617.595,-131 769.595,-131 769.595,-79 617.595,-79"/>
<text text-anchor="start" x="625.595" y="-119" font-family="Helvetica,sans-Serif" font-size="10.00">/home/travis/build</text>
<text text-anchor="start" x="625.595" y="-108" font-family="Helvetica,sans-Serif" font-size="10.00">/AliceO2Group/AliceO2</text>
<text text-anchor="start" x="625.595" y="-97" font-family="Helvetica,sans-Serif" font-size="10.00">/Detectors/TPC/reconstruction</text>
<text text-anchor="middle" x="693.595" y="-86" font-family="Helvetica,sans-Serif" font-size="10.00">/macro/runRawClusterFinder.C</text>
</a>
</g>
</g>
<!-- Node14&#45;&gt;Node15 -->
<g id="edge14" class="edge"><title>Node14&#45;&gt;Node15</title>
<path fill="none" stroke="midnightblue" d="M741.617,-165.548C732.444,-154.173 722.356,-141.664 713.804,-131.06"/>
<polygon fill="midnightblue" stroke="midnightblue" points="739.098,-168 748.1,-173.587 744.547,-163.606 739.098,-168"/>
</g>
<!-- Node19&#45;&gt;Node14 -->
<g id="edge25" class="edge"><title>Node19&#45;&gt;Node14</title>
<path fill="none" stroke="midnightblue" d="M683.366,-262.415C700.179,-250.299 718.497,-237.1 733.826,-226.054"/>
<polygon fill="midnightblue" stroke="midnightblue" points="681.32,-259.575 675.253,-268.261 685.412,-265.254 681.32,-259.575"/>
</g>
<!-- Node20 -->
<g id="node20" class="node"><title>Node20</title>
<g id="a_node20"><a xlink:href="../../de/d64/TPC_2reconstruction_2include_2TPCReconstruction_2ClustererTask_8h.html" target="_top" xlink:title="/home/travis/build\l/AliceO2Group/AliceO2\l/Detectors/TPC/reconstruction\l/include/TPCReconstruction\l/ClustererTask.h">
<polygon fill="none" stroke="black" points="357.595,-168.5 357.595,-231.5 507.595,-231.5 507.595,-168.5 357.595,-168.5"/>
<text text-anchor="start" x="365.595" y="-219.5" font-family="Helvetica,sans-Serif" font-size="10.00">/home/travis/build</text>
<text text-anchor="start" x="365.595" y="-208.5" font-family="Helvetica,sans-Serif" font-size="10.00">/AliceO2Group/AliceO2</text>
<text text-anchor="start" x="365.595" y="-197.5" font-family="Helvetica,sans-Serif" font-size="10.00">/Detectors/TPC/reconstruction</text>
<text text-anchor="start" x="365.595" y="-186.5" font-family="Helvetica,sans-Serif" font-size="10.00">/include/TPCReconstruction</text>
<text text-anchor="middle" x="432.595" y="-175.5" font-family="Helvetica,sans-Serif" font-size="10.00">/ClustererTask.h</text>
</a>
</g>
</g>
<!-- Node19&#45;&gt;Node20 -->
<g id="edge21" class="edge"><title>Node19&#45;&gt;Node20</title>
<path fill="none" stroke="midnightblue" d="M561.009,-263.923C539.405,-253.337 515.873,-241.806 494.923,-231.541"/>
<polygon fill="midnightblue" stroke="midnightblue" points="559.616,-267.138 570.136,-268.395 562.696,-260.852 559.616,-267.138"/>
</g>
<!-- Node23 -->
<g id="node23" class="node"><title>Node23</title>
<g id="a_node23"><a xlink:href="../../da/d67/BoxClusterer_8cxx.html" target="_top" xlink:title="/home/travis/build\l/AliceO2Group/AliceO2\l/Detectors/TPC/reconstruction\l/src/BoxClusterer.cxx">
<polygon fill="none" stroke="black" points="525.595,-174 525.595,-226 675.595,-226 675.595,-174 525.595,-174"/>
<text text-anchor="start" x="533.595" y="-214" font-family="Helvetica,sans-Serif" font-size="10.00">/home/travis/build</text>
<text text-anchor="start" x="533.595" y="-203" font-family="Helvetica,sans-Serif" font-size="10.00">/AliceO2Group/AliceO2</text>
<text text-anchor="start" x="533.595" y="-192" font-family="Helvetica,sans-Serif" font-size="10.00">/Detectors/TPC/reconstruction</text>
<text text-anchor="middle" x="600.595" y="-181" font-family="Helvetica,sans-Serif" font-size="10.00">/src/BoxClusterer.cxx</text>
</a>
</g>
</g>
<!-- Node19&#45;&gt;Node23 -->
<g id="edge26" class="edge"><title>Node19&#45;&gt;Node23</title>
<path fill="none" stroke="midnightblue" d="M619.452,-258.751C615.837,-247.681 612.022,-235.995 608.775,-226.054"/>
<polygon fill="midnightblue" stroke="midnightblue" points="616.126,-259.841 622.557,-268.261 622.78,-257.669 616.126,-259.841"/>
</g>
<!-- Node20&#45;&gt;Node21 -->
<g id="edge22" class="edge"><title>Node20&#45;&gt;Node21</title>
<path fill="none" stroke="midnightblue" d="M347.729,-166.251C317.771,-154.69 284.583,-141.883 256.536,-131.06"/>
<polygon fill="midnightblue" stroke="midnightblue" points="346.742,-169.622 357.332,-169.957 349.263,-163.091 346.742,-169.622"/>
</g>
<!-- Node22 -->
<g id="node22" class="node"><title>Node22</title>
<g id="a_node22"><a xlink:href="../../df/d9b/run__clus__tpc_8C.html" target="_top" xlink:title="/home/travis/build\l/AliceO2Group/AliceO2\l/macro/run_clus_tpc.C">
<polygon fill="none" stroke="black" points="427.595,-84.5 427.595,-125.5 545.595,-125.5 545.595,-84.5 427.595,-84.5"/>
<text text-anchor="start" x="435.595" y="-113.5" font-family="Helvetica,sans-Serif" font-size="10.00">/home/travis/build</text>
<text text-anchor="start" x="435.595" y="-102.5" font-family="Helvetica,sans-Serif" font-size="10.00">/AliceO2Group/AliceO2</text>
<text text-anchor="middle" x="486.595" y="-91.5" font-family="Helvetica,sans-Serif" font-size="10.00">/macro/run_clus_tpc.C</text>
</a>
</g>
</g>
<!-- Node20&#45;&gt;Node22 -->
<g id="edge23" class="edge"><title>Node20&#45;&gt;Node22</title>
<path fill="none" stroke="midnightblue" d="M455.533,-159.494C462.341,-147.77 469.501,-135.439 475.229,-125.575"/>
<polygon fill="midnightblue" stroke="midnightblue" points="452.42,-157.885 450.426,-168.291 458.474,-161.4 452.42,-157.885"/>
</g>
<!-- Node22&#45;&gt;Node9 -->
<g id="edge24" class="edge"><title>Node22&#45;&gt;Node9</title>
<path fill="none" stroke="midnightblue" d="M547.231,-80.8737C579.765,-68.4653 619.42,-53.3412 650.39,-41.5291"/>
<polygon fill="midnightblue" stroke="midnightblue" points="545.916,-77.6293 537.819,-84.4631 548.41,-84.1697 545.916,-77.6293"/>
</g>
<!-- Node24&#45;&gt;Node14 -->
<g id="edge29" class="edge"><title>Node24&#45;&gt;Node14</title>
<path fill="none" stroke="midnightblue" d="M517.714,-276.247C528.116,-273.468 538.598,-270.669 548.595,-268 608.59,-251.984 624.367,-250.657 683.595,-232 689.438,-230.159 695.473,-228.16 701.507,-226.093"/>
<polygon fill="midnightblue" stroke="midnightblue" points="516.542,-272.937 507.784,-278.9 518.349,-279.7 516.542,-272.937"/>
</g>
<!-- Node24&#45;&gt;Node20 -->
<g id="edge28" class="edge"><title>Node24&#45;&gt;Node20</title>
<path fill="none" stroke="midnightblue" d="M432.595,-258.099C432.595,-249.238 432.595,-240.015 432.595,-231.63"/>
<polygon fill="midnightblue" stroke="midnightblue" points="429.095,-258.261 432.595,-268.261 436.095,-258.261 429.095,-258.261"/>
</g>
<!-- Node25 -->
<g id="node25" class="node"><title>Node25</title>
<g id="a_node25"><a xlink:href="../../dc/dc3/testClustererData_8C.html" target="_top" xlink:title="/home/travis/build\l/AliceO2Group/AliceO2\l/Detectors/TPC/reconstruction\l/macro/testClustererData.C">
<polygon fill="none" stroke="black" points="189.595,-174 189.595,-226 339.595,-226 339.595,-174 189.595,-174"/>
<text text-anchor="start" x="197.595" y="-214" font-family="Helvetica,sans-Serif" font-size="10.00">/home/travis/build</text>
<text text-anchor="start" x="197.595" y="-203" font-family="Helvetica,sans-Serif" font-size="10.00">/AliceO2Group/AliceO2</text>
<text text-anchor="start" x="197.595" y="-192" font-family="Helvetica,sans-Serif" font-size="10.00">/Detectors/TPC/reconstruction</text>
<text text-anchor="middle" x="264.595" y="-181" font-family="Helvetica,sans-Serif" font-size="10.00">/macro/testClustererData.C</text>
</a>
</g>
</g>
<!-- Node24&#45;&gt;Node25 -->
<g id="edge30" class="edge"><title>Node24&#45;&gt;Node25</title>
<path fill="none" stroke="midnightblue" d="M371.008,-263.075C349.932,-250.78 326.825,-237.301 307.544,-226.054"/>
<polygon fill="midnightblue" stroke="midnightblue" points="369.498,-266.246 379.899,-268.261 373.025,-260.199 369.498,-266.246"/>
</g>
<!-- Node26 -->
<g id="node26" class="node"><title>Node26</title>
<g id="a_node26"><a xlink:href="../../d4/d6c/HwClusterer_8cxx.html" target="_top" xlink:title="/home/travis/build\l/AliceO2Group/AliceO2\l/Detectors/TPC/reconstruction\l/src/HwClusterer.cxx">
<polygon fill="none" stroke="black" points="21.5946,-174 21.5946,-226 171.595,-226 171.595,-174 21.5946,-174"/>
<text text-anchor="start" x="29.5946" y="-214" font-family="Helvetica,sans-Serif" font-size="10.00">/home/travis/build</text>
<text text-anchor="start" x="29.5946" y="-203" font-family="Helvetica,sans-Serif" font-size="10.00">/AliceO2Group/AliceO2</text>
<text text-anchor="start" x="29.5946" y="-192" font-family="Helvetica,sans-Serif" font-size="10.00">/Detectors/TPC/reconstruction</text>
<text text-anchor="middle" x="96.5946" y="-181" font-family="Helvetica,sans-Serif" font-size="10.00">/src/HwClusterer.cxx</text>
</a>
</g>
</g>
<!-- Node24&#45;&gt;Node26 -->
<g id="edge31" class="edge"><title>Node24&#45;&gt;Node26</title>
<path fill="none" stroke="midnightblue" d="M347.412,-278.467C298.313,-266.105 235.607,-249.422 180.595,-232 174.815,-230.17 168.847,-228.178 162.882,-226.115"/>
<polygon fill="midnightblue" stroke="midnightblue" points="346.808,-281.923 357.359,-280.959 348.509,-275.133 346.808,-281.923"/>
</g>
</g>
</svg>
        <g id="navigator" transform="translate(0 0)" fill="#404254">
                <rect fill="#f2f5e9" fill-opacity="0.5" stroke="#606060" stroke-width=".5" x="0" y="0" width="60" height="60"/>
                <use id="zoomplus" xlink:href="#zoomPlus" x="17" y="9" onmousedown="handleZoom(evt,'in')"/>
                <use id="zoomminus" xlink:href="#zoomMin" x="42" y="9" onmousedown="handleZoom(evt,'out')"/>
                <use id="reset" xlink:href="#resetDef" x="30" y="36" onmousedown="handleReset()"/>
                <g id="arrowUp" xlink:href="#dirArrow" transform="translate(30 24)" onmousedown="handlePan(0,-1)">
                  <use xlink:href="#rim" fill="#404040">
                        <set attributeName="fill" to="#808080" begin="arrowUp.mouseover" end="arrowUp.mouseout"/>
                  </use>
                  <path fill="none" stroke="white" stroke-width="1.5" d="M0,-3.0v7 M-2.5,-0.5L0,-3.0L2.5,-0.5"/>
                </g>
                <g id="arrowRight" xlink:href="#dirArrow" transform="rotate(90) translate(36 -43)" onmousedown="handlePan(1,0)">
                  <use xlink:href="#rim" fill="#404040">
                        <set attributeName="fill" to="#808080" begin="arrowRight.mouseover" end="arrowRight.mouseout"/>
                  </use>
                  <path fill="none" stroke="white" stroke-width="1.5" d="M0,-3.0v7 M-2.5,-0.5L0,-3.0L2.5,-0.5"/>
                </g>
                <g id="arrowDown" xlink:href="#dirArrow" transform="rotate(180) translate(-30 -48)" onmousedown="handlePan(0,1)">
                  <use xlink:href="#rim" fill="#404040">
                        <set attributeName="fill" to="#808080" begin="arrowDown.mouseover" end="arrowDown.mouseout"/>
                  </use>
                  <path fill="none" stroke="white" stroke-width="1.5" d="M0,-3.0v7 M-2.5,-0.5L0,-3.0L2.5,-0.5"/>
                </g>
                <g id="arrowLeft" xlink:href="#dirArrow" transform="rotate(270) translate(-36 17)" onmousedown="handlePan(-1,0)">
                  <use xlink:href="#rim" fill="#404040">
                        <set attributeName="fill" to="#808080" begin="arrowLeft.mouseover" end="arrowLeft.mouseout"/>
                  </use>
                  <path fill="none" stroke="white" stroke-width="1.5" d="M0,-3.0v7 M-2.5,-0.5L0,-3.0L2.5,-0.5"/>
                </g>
        </g>
        <svg viewBox="0 0 15 15" width="100%" height="30px" preserveAspectRatio="xMaxYMin meet">
         <g id="arrow_out" transform="scale(0.3 0.3)">
          <a xlink:href="TPC_2include_2DataFormatsTPC_2Cluster_8h__dep__incl_org.svg" target="_base">
           <rect id="button" ry="5" rx="5" y="6" x="6" height="38" width="38"
                fill="#f2f5e9" fill-opacity="0.5" stroke="#606060" stroke-width="1.0"/>
           <path id="arrow"
             d="M 11.500037,31.436501 C 11.940474,20.09759 22.043105,11.32322 32.158766,21.979434 L 37.068811,17.246167 C 37.068811,17.246167 37.088388,32 37.088388,32 L 22.160133,31.978069 C 22.160133,31.978069 26.997745,27.140456 26.997745,27.140456 C 18.528582,18.264221 13.291696,25.230495 11.500037,31.436501 z"
             style="fill:#404040;"/>
          </a>
         </g>
        </svg>
</svg>
