<?xml version="1.0" encoding="UTF-8" standalone="no"?>
<!DOCTYPE svg PUBLIC "-//W3C//DTD SVG 1.1//EN"
 "http://www.w3.org/Graphics/SVG/1.1/DTD/svg11.dtd">
<!-- Generated by graphviz version 2.36.0 (20140111.2315)
 -->
<!-- Title: o2::TPC::ClusterHardwareContainer Pages: 1 -->
<svg width="405pt" height="356pt"
 viewBox="0.00 0.00 405.00 356.00" xmlns="http://www.w3.org/2000/svg" xmlns:xlink="http://www.w3.org/1999/xlink">
<g id="graph0" class="graph" transform="scale(1 1) rotate(0) translate(4 352)">
<title>o2::TPC::ClusterHardwareContainer</title>
<!-- Node1 -->
<g id="node1" class="node"><title>Node1</title>
<polygon fill="#bfbfbf" stroke="black" points="71.5,-1 71.5,-69 204.5,-69 204.5,-1 71.5,-1"/>
<text text-anchor="start" x="79.5" y="-57" font-family="Helvetica,sans-Serif" font-size="10.00">o2::TPC::ClusterHardware</text>
<text text-anchor="middle" x="138" y="-46" font-family="Helvetica,sans-Serif" font-size="10.00">Container</text>
<polyline fill="none" stroke="black" points="71.5,-39 204.5,-39 "/>
<text text-anchor="middle" x="138" y="-27" font-family="Helvetica,sans-Serif" font-size="10.00"> </text>
<polyline fill="none" stroke="black" points="71.5,-20 204.5,-20 "/>
<text text-anchor="middle" x="138" y="-8" font-family="Helvetica,sans-Serif" font-size="10.00"> </text>
</g>
<!-- Node2 -->
<g id="node2" class="node"><title>Node2</title>
<polygon fill="none" stroke="#bfbfbf" points="-0.5,-135.5 -0.5,-192.5 50.5,-192.5 50.5,-135.5 -0.5,-135.5"/>
<text text-anchor="middle" x="25" y="-180.5" font-family="Helvetica,sans-Serif" font-size="10.00">uint64_t</text>
<polyline fill="none" stroke="#bfbfbf" points="-0.5,-173.5 50.5,-173.5 "/>
<text text-anchor="middle" x="25" y="-161.5" font-family="Helvetica,sans-Serif" font-size="10.00"> </text>
<polyline fill="none" stroke="#bfbfbf" points="-0.5,-154.5 50.5,-154.5 "/>
<text text-anchor="middle" x="25" y="-142.5" font-family="Helvetica,sans-Serif" font-size="10.00"> </text>
</g>
<!-- Node2&#45;&gt;Node1 -->
<g id="edge1" class="edge"><title>Node2&#45;&gt;Node1</title>
<path fill="none" stroke="#404040" d="M24.9143,-135.363C26.1562,-120.089 29.9265,-101.525 40,-88 45.8483,-80.1481 53.2379,-73.3641 61.3262,-67.5336"/>
<polygon fill="none" stroke="#404040" points="61.4413,-67.4583 64.2712,-60.8257 71.4821,-60.8868 68.6522,-67.5195 61.4413,-67.4583"/>
<text text-anchor="middle" x="56.5" y="-91.5" font-family="Helvetica,sans-Serif" font-size="10.00"> +mDH</text>
</g>
<!-- Node3 -->
<g id="node3" class="node"><title>Node3</title>
<polygon fill="none" stroke="#bfbfbf" points="100.5,-290.5 100.5,-347.5 151.5,-347.5 151.5,-290.5 100.5,-290.5"/>
<text text-anchor="middle" x="126" y="-335.5" font-family="Helvetica,sans-Serif" font-size="10.00">uint16_t</text>
<polyline fill="none" stroke="#bfbfbf" points="100.5,-328.5 151.5,-328.5 "/>
<text text-anchor="middle" x="126" y="-316.5" font-family="Helvetica,sans-Serif" font-size="10.00"> </text>
<polyline fill="none" stroke="#bfbfbf" points="100.5,-309.5 151.5,-309.5 "/>
<text text-anchor="middle" x="126" y="-297.5" font-family="Helvetica,sans-Serif" font-size="10.00"> </text>
</g>
<!-- Node3&#45;&gt;Node1 -->
<g id="edge2" class="edge"><title>Node3&#45;&gt;Node1</title>
<path fill="none" stroke="#404040" d="M115.145,-290.206C101.461,-251.305 81.3872,-178.584 96,-118 99.0979,-105.156 104.569,-92.0639 110.56,-80.2204"/>
<polygon fill="none" stroke="#404040" points="110.743,-79.8785 110.045,-72.7012 116.402,-69.2969 117.1,-76.4742 110.743,-79.8785"/>
<text text-anchor="middle" x="140.5" y="-167" font-family="Helvetica,sans-Serif" font-size="10.00"> +numberOfClusters</text>
<text text-anchor="middle" x="140.5" y="-156" font-family="Helvetica,sans-Serif" font-size="10.00">+CRU</text>
</g>
<!-- Node5 -->
<g id="node5" class="node"><title>Node5</title>
<g id="a_node5"><a xlink:href="../../db/d62/structo2_1_1TPC_1_1ClusterHardware.html" target="_top" xlink:title="{o2::TPC::ClusterHardware\n||+ getPad()\l+ getTimeLocal()\l+ getSigmaPad2()\l+ getSigmaTime2()\l}">
<polygon fill="none" stroke="black" points="194.5,-119 194.5,-209 327.5,-209 327.5,-119 194.5,-119"/>
<text text-anchor="middle" x="261" y="-197" font-family="Helvetica,sans-Serif" font-size="10.00">o2::TPC::ClusterHardware</text>
<polyline fill="none" stroke="black" points="194.5,-190 327.5,-190 "/>
<text text-anchor="middle" x="261" y="-178" font-family="Helvetica,sans-Serif" font-size="10.00"> </text>
<polyline fill="none" stroke="black" points="194.5,-171 327.5,-171 "/>
<text text-anchor="start" x="202.5" y="-159" font-family="Helvetica,sans-Serif" font-size="10.00">+ getPad()</text>
<text text-anchor="start" x="202.5" y="-148" font-family="Helvetica,sans-Serif" font-size="10.00">+ getTimeLocal()</text>
<text text-anchor="start" x="202.5" y="-137" font-family="Helvetica,sans-Serif" font-size="10.00">+ getSigmaPad2()</text>
<text text-anchor="start" x="202.5" y="-126" font-family="Helvetica,sans-Serif" font-size="10.00">+ getSigmaTime2()</text>
</a>
</g>
</g>
<!-- Node3&#45;&gt;Node5 -->
<g id="edge5" class="edge"><title>Node3&#45;&gt;Node5</title>
<path fill="none" stroke="#404040" d="M146.976,-290.178C160.947,-272.056 179.984,-248.128 198,-228 200.959,-224.694 204.047,-221.337 207.196,-217.983"/>
<polygon fill="none" stroke="#404040" points="207.345,-217.827 208.595,-210.725 215.632,-209.148 214.382,-216.25 207.345,-217.827"/>
<text text-anchor="middle" x="213.5" y="-253" font-family="Helvetica,sans-Serif" font-size="10.00"> +qTot</text>
<text text-anchor="middle" x="213.5" y="-242" font-family="Helvetica,sans-Serif" font-size="10.00">+qMax</text>
</g>
<!-- Node4 -->
<g id="node4" class="node"><title>Node4</title>
<polygon fill="none" stroke="#bfbfbf" points="345.5,-135.5 345.5,-192.5 396.5,-192.5 396.5,-135.5 345.5,-135.5"/>
<text text-anchor="middle" x="371" y="-180.5" font-family="Helvetica,sans-Serif" font-size="10.00">uint32_t</text>
<polyline fill="none" stroke="#bfbfbf" points="345.5,-173.5 396.5,-173.5 "/>
<text text-anchor="middle" x="371" y="-161.5" font-family="Helvetica,sans-Serif" font-size="10.00"> </text>
<polyline fill="none" stroke="#bfbfbf" points="345.5,-154.5 396.5,-154.5 "/>
<text text-anchor="middle" x="371" y="-142.5" font-family="Helvetica,sans-Serif" font-size="10.00"> </text>
</g>
<!-- Node4&#45;&gt;Node1 -->
<g id="edge3" class="edge"><title>Node4&#45;&gt;Node1</title>
<path fill="none" stroke="#404040" d="M353.047,-135.242C348.077,-128.994 342.298,-122.799 336,-118 300.6,-91.022 255.05,-71.3517 216.565,-58.0503"/>
<polygon fill="none" stroke="#404040" points="216.244,-57.9427 209.283,-59.8265 204.867,-54.1258 211.828,-52.242 216.244,-57.9427"/>
<text text-anchor="middle" x="343" y="-91.5" font-family="Helvetica,sans-Serif" font-size="10.00"> +timeBinOffset</text>
</g>
<!-- Node5&#45;&gt;Node1 -->
<g id="edge4" class="edge"><title>Node5&#45;&gt;Node1</title>
<path fill="none" stroke="#404040" d="M218.326,-118.938C205.472,-105.666 191.404,-91.141 178.684,-78.0065"/>
<polygon fill="none" stroke="#404040" points="178.472,-77.7882 171.424,-76.261 170.124,-69.1682 177.171,-70.6954 178.472,-77.7882"/>
<text text-anchor="middle" x="222" y="-91.5" font-family="Helvetica,sans-Serif" font-size="10.00"> +clusters</text>
</g>
<!-- Node6 -->
<g id="node6" class="node"><title>Node6</title>
<polygon fill="none" stroke="#bfbfbf" points="208,-290.5 208,-347.5 254,-347.5 254,-290.5 208,-290.5"/>
<text text-anchor="middle" x="231" y="-335.5" font-family="Helvetica,sans-Serif" font-size="10.00">uint8_t</text>
<polyline fill="none" stroke="#bfbfbf" points="208,-328.5 254,-328.5 "/>
<text text-anchor="middle" x="231" y="-316.5" font-family="Helvetica,sans-Serif" font-size="10.00"> </text>
<polyline fill="none" stroke="#bfbfbf" points="208,-309.5 254,-309.5 "/>
<text text-anchor="middle" x="231" y="-297.5" font-family="Helvetica,sans-Serif" font-size="10.00"> </text>
</g>
<!-- Node6&#45;&gt;Node5 -->
<g id="edge6" class="edge"><title>Node6&#45;&gt;Node5</title>
<path fill="none" stroke="#404040" d="M231.701,-290.162C232.586,-272.244 234.571,-248.548 239,-228 239.524,-225.567 240.116,-223.098 240.759,-220.618"/>
<polygon fill="none" stroke="#404040" points="240.782,-220.54 238.593,-213.669 244.093,-209.006 246.282,-215.877 240.782,-220.54"/>
<text text-anchor="middle" x="254.5" y="-253" font-family="Helvetica,sans-Serif" font-size="10.00"> +flags</text>
<text text-anchor="middle" x="254.5" y="-242" font-family="Helvetica,sans-Serif" font-size="10.00">+row</text>
</g>
<!-- Node7 -->
<g id="node7" class="node"><title>Node7</title>
<g id="a_node7"><a xlink:href="../../d4/dc3/classfloat.html" target="_top" xlink:title="{float\n||}">
<polygon fill="none" stroke="black" points="272.5,-290.5 272.5,-347.5 307.5,-347.5 307.5,-290.5 272.5,-290.5"/>
<text text-anchor="middle" x="290" y="-335.5" font-family="Helvetica,sans-Serif" font-size="10.00">float</text>
<polyline fill="none" stroke="black" points="272.5,-328.5 307.5,-328.5 "/>
<text text-anchor="middle" x="290" y="-316.5" font-family="Helvetica,sans-Serif" font-size="10.00"> </text>
<polyline fill="none" stroke="black" points="272.5,-309.5 307.5,-309.5 "/>
<text text-anchor="middle" x="290" y="-297.5" font-family="Helvetica,sans-Serif" font-size="10.00"> </text>
</a>
</g>
</g>
<!-- Node7&#45;&gt;Node5 -->
<g id="edge7" class="edge"><title>Node7&#45;&gt;Node5</title>
<path fill="none" stroke="#404040" d="M284.748,-290.293C281.093,-271.007 276.091,-244.619 271.621,-221.034"/>
<polygon fill="none" stroke="#404040" points="271.576,-220.798 266.529,-215.648 269.341,-209.008 274.389,-214.158 271.576,-220.798"/>
<text text-anchor="middle" x="318.5" y="-264" font-family="Helvetica,sans-Serif" font-size="10.00"> +sigmaPad2Pre</text>
<text text-anchor="middle" x="318.5" y="-253" font-family="Helvetica,sans-Serif" font-size="10.00">+timePre</text>
<text text-anchor="middle" x="318.5" y="-242" font-family="Helvetica,sans-Serif" font-size="10.00">+sigmaTime2Pre</text>
<text text-anchor="middle" x="318.5" y="-231" font-family="Helvetica,sans-Serif" font-size="10.00">+padPre</text>
</g>
</g>
</svg>
