<?xml version="1.0" encoding="UTF-8" standalone="no"?>
<!DOCTYPE svg PUBLIC "-//W3C//DTD SVG 1.1//EN"
 "http://www.w3.org/Graphics/SVG/1.1/DTD/svg11.dtd">
<!-- Generated by graphviz version 2.36.0 (20140111.2315)
 -->
<!-- Title: /home/travis/build/AliceO2Group/AliceO2/Detectors/ITSMFT/ITS/reconstruction/include/ITSReconstruction/CATrackingStation.h Pages: 1 -->
<svg width="2064pt" height="536pt"
 viewBox="0.00 0.00 2064.00 536.00" xmlns="http://www.w3.org/2000/svg" xmlns:xlink="http://www.w3.org/1999/xlink">
<g id="graph0" class="graph" transform="scale(1 1) rotate(0) translate(4 532)">
<title>/home/travis/build/AliceO2Group/AliceO2/Detectors/ITSMFT/ITS/reconstruction/include/ITSReconstruction/CATrackingStation.h</title>
<!-- Node1 -->
<g id="node1" class="node"><title>Node1</title>
<polygon fill="#bfbfbf" stroke="black" points="-0.5,-464.5 -0.5,-527.5 194.5,-527.5 194.5,-464.5 -0.5,-464.5"/>
<text text-anchor="start" x="7.5" y="-515.5" font-family="Helvetica,sans-Serif" font-size="10.00">/home/travis/build</text>
<text text-anchor="start" x="7.5" y="-504.5" font-family="Helvetica,sans-Serif" font-size="10.00">/AliceO2Group/AliceO2</text>
<text text-anchor="start" x="7.5" y="-493.5" font-family="Helvetica,sans-Serif" font-size="10.00">/Detectors/ITSMFT/ITS</text>
<text text-anchor="start" x="7.5" y="-482.5" font-family="Helvetica,sans-Serif" font-size="10.00">/reconstruction/include</text>
<text text-anchor="middle" x="97" y="-471.5" font-family="Helvetica,sans-Serif" font-size="10.00">/ITSReconstruction/CATrackingStation.h</text>
</g>
<!-- Node2 -->
<g id="node2" class="node"><title>Node2</title>
<polygon fill="none" stroke="#bfbfbf" points="60,-278.5 60,-297.5 116,-297.5 116,-278.5 60,-278.5"/>
<text text-anchor="middle" x="88" y="-285.5" font-family="Helvetica,sans-Serif" font-size="10.00">algorithm</text>
</g>
<!-- Node1&#45;&gt;Node2 -->
<g id="edge1" class="edge"><title>Node1&#45;&gt;Node2</title>
<path fill="none" stroke="midnightblue" d="M89.8021,-464.494C87.455,-453.111 85.1563,-440.03 84,-428 79.8953,-385.296 83.4166,-334.901 85.9545,-308.07"/>
<polygon fill="midnightblue" stroke="midnightblue" points="89.4683,-308.108 86.9887,-297.807 82.5036,-307.406 89.4683,-308.108"/>
</g>
<!-- Node3 -->
<g id="node3" class="node"><title>Node3</title>
<polygon fill="none" stroke="#bfbfbf" points="110,-142.5 110,-161.5 154,-161.5 154,-142.5 110,-142.5"/>
<text text-anchor="middle" x="132" y="-149.5" font-family="Helvetica,sans-Serif" font-size="10.00">vector</text>
</g>
<!-- Node1&#45;&gt;Node3 -->
<g id="edge2" class="edge"><title>Node1&#45;&gt;Node3</title>
<path fill="none" stroke="midnightblue" d="M81.022,-464.237C60.6162,-420.789 30.2855,-339.246 51,-272 63.7954,-230.462 96.5886,-190.441 116.303,-169.047"/>
<polygon fill="midnightblue" stroke="midnightblue" points="119.062,-171.224 123.386,-161.551 113.974,-166.416 119.062,-171.224"/>
</g>
<!-- Node4 -->
<g id="node4" class="node"><title>Node4</title>
<polygon fill="none" stroke="#bfbfbf" points="1940.5,-74.5 1940.5,-93.5 1989.5,-93.5 1989.5,-74.5 1940.5,-74.5"/>
<text text-anchor="middle" x="1965" y="-81.5" font-family="Helvetica,sans-Serif" font-size="10.00">cassert</text>
</g>
<!-- Node1&#45;&gt;Node4 -->
<g id="edge3" class="edge"><title>Node1&#45;&gt;Node4</title>
<path fill="none" stroke="midnightblue" d="M194.817,-493.287C591.088,-485.716 2056,-451.346 2056,-357 2056,-357 2056,-357 2056,-219 2056,-168.504 2011.23,-122.918 1984.49,-100.198"/>
<polygon fill="midnightblue" stroke="midnightblue" points="1986.47,-97.2956 1976.53,-93.6482 1982.03,-102.703 1986.47,-97.2956"/>
</g>
<!-- Node5 -->
<g id="node5" class="node"><title>Node5</title>
<g id="a_node5"><a xlink:href="../../d1/db5/CAaux_8h.html" target="_top" xlink:title="ITSReconstruction/CAaux.h">
<polygon fill="none" stroke="black" points="93,-408.5 93,-427.5 233,-427.5 233,-408.5 93,-408.5"/>
<text text-anchor="middle" x="163" y="-415.5" font-family="Helvetica,sans-Serif" font-size="10.00">ITSReconstruction/CAaux.h</text>
</a>
</g>
</g>
<!-- Node1&#45;&gt;Node5 -->
<g id="edge4" class="edge"><title>Node1&#45;&gt;Node5</title>
<path fill="none" stroke="midnightblue" d="M123.845,-464.088C132.41,-454.225 141.549,-443.701 148.841,-435.304"/>
<polygon fill="midnightblue" stroke="midnightblue" points="151.515,-437.563 155.429,-427.718 146.229,-432.974 151.515,-437.563"/>
</g>
<!-- Node5&#45;&gt;Node3 -->
<g id="edge7" class="edge"><title>Node5&#45;&gt;Node3</title>
<path fill="none" stroke="midnightblue" d="M161.969,-408.216C157.573,-370.786 140.352,-224.126 134.2,-171.732"/>
<polygon fill="midnightblue" stroke="midnightblue" points="137.646,-171.073 133.004,-161.55 130.694,-171.89 137.646,-171.073"/>
</g>
<!-- Node6 -->
<g id="node6" class="node"><title>Node6</title>
<polygon fill="none" stroke="#bfbfbf" points="1855,-6.5 1855,-25.5 1893,-25.5 1893,-6.5 1855,-6.5"/>
<text text-anchor="middle" x="1874" y="-13.5" font-family="Helvetica,sans-Serif" font-size="10.00">array</text>
</g>
<!-- Node5&#45;&gt;Node6 -->
<g id="edge5" class="edge"><title>Node5&#45;&gt;Node6</title>
<path fill="none" stroke="midnightblue" d="M233.172,-415.9C571.491,-410.148 2018,-380.22 2018,-289 2018,-289 2018,-289 2018,-151 2018,-113.055 2022.69,-96.8123 1998,-68 1973.82,-39.7889 1931.59,-26.9308 1903.22,-21.2476"/>
<polygon fill="midnightblue" stroke="midnightblue" points="1903.55,-17.7512 1893.09,-19.4037 1902.3,-24.638 1903.55,-17.7512"/>
</g>
<!-- Node7 -->
<g id="node7" class="node"><title>Node7</title>
<polygon fill="none" stroke="#bfbfbf" points="95,-6.5 95,-25.5 139,-25.5 139,-6.5 95,-6.5"/>
<text text-anchor="middle" x="117" y="-13.5" font-family="Helvetica,sans-Serif" font-size="10.00">cmath</text>
</g>
<!-- Node5&#45;&gt;Node7 -->
<g id="edge6" class="edge"><title>Node5&#45;&gt;Node7</title>
<path fill="none" stroke="midnightblue" d="M150.659,-408.324C127.306,-391.215 76.6981,-350.707 51,-304 32.7576,-270.844 32,-258.843 32,-221 32,-221 32,-221 32,-151 32,-101.497 73.8769,-55.469 98.8436,-32.4264"/>
<polygon fill="midnightblue" stroke="midnightblue" points="101.449,-34.7923 106.577,-25.5213 96.7868,-29.5707 101.449,-34.7923"/>
</g>
<!-- Node8 -->
<g id="node8" class="node"><title>Node8</title>
<g id="a_node8"><a xlink:href="../../d6/d84/MathConstants_8h.html" target="_top" xlink:title="useful math constants ">
<polygon fill="none" stroke="black" points="157.5,-6.5 157.5,-25.5 336.5,-25.5 336.5,-6.5 157.5,-6.5"/>
<text text-anchor="middle" x="247" y="-13.5" font-family="Helvetica,sans-Serif" font-size="10.00">CommonConstants/MathConstants.h</text>
</a>
</g>
</g>
<!-- Node5&#45;&gt;Node8 -->
<g id="edge8" class="edge"><title>Node5&#45;&gt;Node8</title>
<path fill="none" stroke="midnightblue" d="M165.18,-408.374C170.17,-387.84 182,-334.381 182,-289 182,-289 182,-289 182,-151 182,-104.713 213.784,-57.6362 232.901,-33.5081"/>
<polygon fill="midnightblue" stroke="midnightblue" points="235.665,-35.6571 239.288,-25.7011 230.247,-31.2245 235.665,-35.6571"/>
</g>
<!-- Node9 -->
<g id="node9" class="node"><title>Node9</title>
<g id="a_node9"><a xlink:href="../../d7/d8b/DataFormats_2Reconstruction_2include_2ReconstructionDataFormats_2Track_8h.html" target="_top" xlink:title="ReconstructionDataFormats\l/Track.h">
<polygon fill="none" stroke="black" points="378,-341 378,-371 518,-371 518,-341 378,-341"/>
<text text-anchor="start" x="386" y="-359" font-family="Helvetica,sans-Serif" font-size="10.00">ReconstructionDataFormats</text>
<text text-anchor="middle" x="448" y="-348" font-family="Helvetica,sans-Serif" font-size="10.00">/Track.h</text>
</a>
</g>
</g>
<!-- Node5&#45;&gt;Node9 -->
<g id="edge9" class="edge"><title>Node5&#45;&gt;Node9</title>
<path fill="none" stroke="midnightblue" d="M203.531,-408.467C247.078,-399.299 317.304,-384.515 371.34,-373.139"/>
<polygon fill="midnightblue" stroke="midnightblue" points="372.167,-376.542 381.231,-371.057 370.725,-369.692 372.167,-376.542"/>
</g>
<!-- Node9&#45;&gt;Node2 -->
<g id="edge11" class="edge"><title>Node9&#45;&gt;Node2</title>
<path fill="none" stroke="midnightblue" d="M377.734,-342.118C302.644,-328.351 186.355,-307.032 126.499,-296.058"/>
<polygon fill="midnightblue" stroke="midnightblue" points="126.816,-292.558 116.348,-294.197 125.553,-299.443 126.816,-292.558"/>
</g>
<!-- Node9&#45;&gt;Node6 -->
<g id="edge12" class="edge"><title>Node9&#45;&gt;Node6</title>
<path fill="none" stroke="midnightblue" d="M518.119,-352.305C809.811,-340.638 1912,-291.866 1912,-221 1912,-221 1912,-221 1912,-151 1912,-108.048 1893.71,-60.1895 1882.5,-34.9112"/>
<polygon fill="midnightblue" stroke="midnightblue" points="1885.56,-33.1743 1878.21,-25.5403 1879.19,-36.0895 1885.56,-33.1743"/>
</g>
<!-- Node9&#45;&gt;Node7 -->
<g id="edge14" class="edge"><title>Node9&#45;&gt;Node7</title>
<path fill="none" stroke="midnightblue" d="M377.833,-348.18C342.072,-341.658 299.763,-328.91 269,-304 222.277,-266.167 147.918,-92.2051 124.39,-35.1674"/>
<polygon fill="midnightblue" stroke="midnightblue" points="127.526,-33.5899 120.495,-25.6641 121.049,-36.2445 127.526,-33.5899"/>
</g>
<!-- Node9&#45;&gt;Node8 -->
<g id="edge19" class="edge"><title>Node9&#45;&gt;Node8</title>
<path fill="none" stroke="midnightblue" d="M377.672,-345.509C349.527,-338.376 318.895,-325.883 298,-304 232.821,-235.738 252.242,-193.449 239,-100 235.898,-78.1059 239.346,-52.7891 242.632,-35.929"/>
<polygon fill="midnightblue" stroke="midnightblue" points="246.139,-36.2634 244.798,-25.7537 239.292,-34.8055 246.139,-36.2634"/>
</g>
<!-- Node10 -->
<g id="node10" class="node"><title>Node10</title>
<polygon fill="none" stroke="#bfbfbf" points="1548,-74.5 1548,-93.5 1604,-93.5 1604,-74.5 1548,-74.5"/>
<text text-anchor="middle" x="1576" y="-81.5" font-family="Helvetica,sans-Serif" font-size="10.00">Rtypes.h</text>
</g>
<!-- Node9&#45;&gt;Node10 -->
<g id="edge10" class="edge"><title>Node9&#45;&gt;Node10</title>
<path fill="none" stroke="midnightblue" d="M518.32,-354.194C635.701,-351.766 878.553,-342.118 1080,-304 1182.65,-284.577 1208.82,-276.77 1305,-236 1402.22,-194.79 1509.47,-128.138 1554.37,-99.1824"/>
<polygon fill="midnightblue" stroke="midnightblue" points="1556.5,-101.977 1562.98,-93.5986 1552.69,-96.1041 1556.5,-101.977"/>
</g>
<!-- Node11 -->
<g id="node11" class="node"><title>Node11</title>
<polygon fill="none" stroke="#bfbfbf" points="324.5,-278.5 324.5,-297.5 365.5,-297.5 365.5,-278.5 324.5,-278.5"/>
<text text-anchor="middle" x="345" y="-285.5" font-family="Helvetica,sans-Serif" font-size="10.00">cfloat</text>
</g>
<!-- Node9&#45;&gt;Node11 -->
<g id="edge13" class="edge"><title>Node9&#45;&gt;Node11</title>
<path fill="none" stroke="midnightblue" d="M425.904,-340.841C408.647,-329.784 384.766,-314.481 367.426,-303.37"/>
<polygon fill="midnightblue" stroke="midnightblue" points="368.857,-300.13 358.549,-297.682 365.08,-306.024 368.857,-300.13"/>
</g>
<!-- Node12 -->
<g id="node12" class="node"><title>Node12</title>
<polygon fill="none" stroke="#bfbfbf" points="384,-278.5 384,-297.5 430,-297.5 430,-278.5 384,-278.5"/>
<text text-anchor="middle" x="407" y="-285.5" font-family="Helvetica,sans-Serif" font-size="10.00">cstring</text>
</g>
<!-- Node9&#45;&gt;Node12 -->
<g id="edge15" class="edge"><title>Node9&#45;&gt;Node12</title>
<path fill="none" stroke="midnightblue" d="M439.104,-340.679C432.837,-330.592 424.414,-317.033 417.768,-306.335"/>
<polygon fill="midnightblue" stroke="midnightblue" points="420.734,-304.476 412.484,-297.828 414.788,-308.17 420.734,-304.476"/>
</g>
<!-- Node13 -->
<g id="node13" class="node"><title>Node13</title>
<polygon fill="none" stroke="#bfbfbf" points="248,-74.5 248,-93.5 302,-93.5 302,-74.5 248,-74.5"/>
<text text-anchor="middle" x="275" y="-81.5" font-family="Helvetica,sans-Serif" font-size="10.00">iostream</text>
</g>
<!-- Node9&#45;&gt;Node13 -->
<g id="edge16" class="edge"><title>Node9&#45;&gt;Node13</title>
<path fill="none" stroke="midnightblue" d="M377.966,-342.579C354.778,-335.095 330.871,-323.126 315,-304 289.691,-273.5 279.261,-151.312 276.114,-103.92"/>
<polygon fill="midnightblue" stroke="midnightblue" points="279.599,-103.577 275.48,-93.8157 272.613,-104.015 279.599,-103.577"/>
</g>
<!-- Node14 -->
<g id="node14" class="node"><title>Node14</title>
<polygon fill="none" stroke="#bfbfbf" points="448.5,-278.5 448.5,-297.5 531.5,-297.5 531.5,-278.5 448.5,-278.5"/>
<text text-anchor="middle" x="490" y="-285.5" font-family="Helvetica,sans-Serif" font-size="10.00">Math/SMatrix.h</text>
</g>
<!-- Node9&#45;&gt;Node14 -->
<g id="edge17" class="edge"><title>Node9&#45;&gt;Node14</title>
<path fill="none" stroke="midnightblue" d="M457.113,-340.679C463.532,-330.592 472.161,-317.033 478.969,-306.335"/>
<polygon fill="midnightblue" stroke="midnightblue" points="481.966,-308.144 484.382,-297.828 476.06,-304.386 481.966,-308.144"/>
</g>
<!-- Node15 -->
<g id="node15" class="node"><title>Node15</title>
<polygon fill="none" stroke="#bfbfbf" points="549.5,-278.5 549.5,-297.5 634.5,-297.5 634.5,-278.5 549.5,-278.5"/>
<text text-anchor="middle" x="592" y="-285.5" font-family="Helvetica,sans-Serif" font-size="10.00">Math/SVector.h</text>
</g>
<!-- Node9&#45;&gt;Node15 -->
<g id="edge18" class="edge"><title>Node9&#45;&gt;Node15</title>
<path fill="none" stroke="midnightblue" d="M478.892,-340.841C504.134,-329.272 539.515,-313.055 563.953,-301.855"/>
<polygon fill="midnightblue" stroke="midnightblue" points="565.425,-305.03 573.058,-297.682 562.509,-298.667 565.425,-305.03"/>
</g>
<!-- Node16 -->
<g id="node16" class="node"><title>Node16</title>
<g id="a_node16"><a xlink:href="../../dd/d76/Cartesian3D_8h.html" target="_top" xlink:title="MathUtils/Cartesian3D.h">
<polygon fill="none" stroke="black" points="856.5,-142.5 856.5,-161.5 981.5,-161.5 981.5,-142.5 856.5,-142.5"/>
<text text-anchor="middle" x="919" y="-149.5" font-family="Helvetica,sans-Serif" font-size="10.00">MathUtils/Cartesian3D.h</text>
</a>
</g>
</g>
<!-- Node9&#45;&gt;Node16 -->
<g id="edge20" class="edge"><title>Node9&#45;&gt;Node16</title>
<path fill="none" stroke="midnightblue" d="M518.242,-345.677C564.534,-338.017 625.828,-324.944 677,-304 766.905,-267.202 861.121,-198.137 900.253,-167.861"/>
<polygon fill="midnightblue" stroke="midnightblue" points="902.431,-170.6 908.16,-161.688 898.124,-165.082 902.431,-170.6"/>
</g>
<!-- Node26 -->
<g id="node26" class="node"><title>Node26</title>
<g id="a_node26"><a xlink:href="../../d9/ded/Utils_8h.html" target="_top" xlink:title="General auxilliary methods. ">
<polygon fill="none" stroke="black" points="320,-74.5 320,-93.5 410,-93.5 410,-74.5 320,-74.5"/>
<text text-anchor="middle" x="365" y="-81.5" font-family="Helvetica,sans-Serif" font-size="10.00">MathUtils/Utils.h</text>
</a>
</g>
</g>
<!-- Node9&#45;&gt;Node26 -->
<g id="edge32" class="edge"><title>Node9&#45;&gt;Node26</title>
<path fill="none" stroke="midnightblue" d="M518.282,-350.991C584.957,-343.992 671.103,-324.773 643,-272 591.485,-175.263 465.204,-119.625 402.121,-96.9905"/>
<polygon fill="midnightblue" stroke="midnightblue" points="403.156,-93.6443 392.561,-93.64 400.84,-100.25 403.156,-93.6443"/>
</g>
<!-- Node27 -->
<g id="node27" class="node"><title>Node27</title>
<g id="a_node27"><a xlink:href="../../d4/de2/BaseCluster_8h.html" target="_top" xlink:title="ReconstructionDataFormats\l/BaseCluster.h">
<polygon fill="none" stroke="black" points="931,-273 931,-303 1071,-303 1071,-273 931,-273"/>
<text text-anchor="start" x="939" y="-291" font-family="Helvetica,sans-Serif" font-size="10.00">ReconstructionDataFormats</text>
<text text-anchor="middle" x="1001" y="-280" font-family="Helvetica,sans-Serif" font-size="10.00">/BaseCluster.h</text>
</a>
</g>
</g>
<!-- Node9&#45;&gt;Node27 -->
<g id="edge36" class="edge"><title>Node9&#45;&gt;Node27</title>
<path fill="none" stroke="midnightblue" d="M518.038,-346.641C620.804,-334.376 811.974,-311.56 920.428,-298.616"/>
<polygon fill="midnightblue" stroke="midnightblue" points="921.145,-302.056 930.66,-297.395 920.315,-295.105 921.145,-302.056"/>
</g>
<!-- Node16&#45;&gt;Node10 -->
<g id="edge26" class="edge"><title>Node16&#45;&gt;Node10</title>
<path fill="none" stroke="midnightblue" d="M981.661,-145.637C1015.52,-142.752 1058.04,-139.151 1096,-136 1292.86,-119.66 1346.81,-145.634 1539,-100 1542.07,-99.2709 1545.22,-98.3267 1548.32,-97.2669"/>
<polygon fill="midnightblue" stroke="midnightblue" points="1549.82,-100.441 1557.92,-93.6097 1547.33,-93.9003 1549.82,-100.441"/>
</g>
<!-- Node16&#45;&gt;Node13 -->
<g id="edge28" class="edge"><title>Node16&#45;&gt;Node13</title>
<path fill="none" stroke="midnightblue" d="M856.47,-148.219C722.82,-141.875 413.202,-124.928 311,-100 308.005,-99.2695 304.937,-98.3243 301.915,-97.264"/>
<polygon fill="midnightblue" stroke="midnightblue" points="303.163,-93.9936 292.575,-93.6062 300.61,-100.512 303.163,-93.9936"/>
</g>
<!-- Node17 -->
<g id="node17" class="node"><title>Node17</title>
<polygon fill="none" stroke="#bfbfbf" points="843.5,-69 843.5,-99 994.5,-99 994.5,-69 843.5,-69"/>
<text text-anchor="start" x="851.5" y="-87" font-family="Helvetica,sans-Serif" font-size="10.00">Math/GenVector/Displacement</text>
<text text-anchor="middle" x="919" y="-76" font-family="Helvetica,sans-Serif" font-size="10.00">Vector3D.h</text>
</g>
<!-- Node16&#45;&gt;Node17 -->
<g id="edge21" class="edge"><title>Node16&#45;&gt;Node17</title>
<path fill="none" stroke="midnightblue" d="M919,-142.372C919,-133.971 919,-120.811 919,-109.213"/>
<polygon fill="midnightblue" stroke="midnightblue" points="922.5,-109.181 919,-99.1815 915.5,-109.181 922.5,-109.181"/>
</g>
<!-- Node18 -->
<g id="node18" class="node"><title>Node18</title>
<polygon fill="none" stroke="#bfbfbf" points="1013,-74.5 1013,-93.5 1189,-93.5 1189,-74.5 1013,-74.5"/>
<text text-anchor="middle" x="1101" y="-81.5" font-family="Helvetica,sans-Serif" font-size="10.00">Math/GenVector/PositionVector3D.h</text>
</g>
<!-- Node16&#45;&gt;Node18 -->
<g id="edge22" class="edge"><title>Node16&#45;&gt;Node18</title>
<path fill="none" stroke="midnightblue" d="M942.793,-142.372C974.764,-130.778 1031.74,-110.116 1067.89,-97.0087"/>
<polygon fill="midnightblue" stroke="midnightblue" points="1069.28,-100.225 1077.49,-93.5259 1066.9,-93.6447 1069.28,-100.225"/>
</g>
<!-- Node19 -->
<g id="node19" class="node"><title>Node19</title>
<polygon fill="none" stroke="#bfbfbf" points="1206.5,-74.5 1206.5,-93.5 1355.5,-93.5 1355.5,-74.5 1206.5,-74.5"/>
<text text-anchor="middle" x="1281" y="-81.5" font-family="Helvetica,sans-Serif" font-size="10.00">Math/GenVector/Rotation3D.h</text>
</g>
<!-- Node16&#45;&gt;Node19 -->
<g id="edge23" class="edge"><title>Node16&#45;&gt;Node19</title>
<path fill="none" stroke="midnightblue" d="M965.954,-142.439C1032.14,-130.372 1152.74,-108.384 1223.99,-95.3945"/>
<polygon fill="midnightblue" stroke="midnightblue" points="1224.92,-98.7825 1234.13,-93.5455 1223.66,-91.896 1224.92,-98.7825"/>
</g>
<!-- Node20 -->
<g id="node20" class="node"><title>Node20</title>
<polygon fill="none" stroke="#bfbfbf" points="1374,-74.5 1374,-93.5 1530,-93.5 1530,-74.5 1374,-74.5"/>
<text text-anchor="middle" x="1452" y="-81.5" font-family="Helvetica,sans-Serif" font-size="10.00">Math/GenVector/Transform3D.h</text>
</g>
<!-- Node16&#45;&gt;Node20 -->
<g id="edge24" class="edge"><title>Node16&#45;&gt;Node20</title>
<path fill="none" stroke="midnightblue" d="M981.779,-144.899C1068.08,-136.262 1228.12,-119.352 1364,-100 1373.9,-98.5905 1384.39,-96.9391 1394.56,-95.2571"/>
<polygon fill="midnightblue" stroke="midnightblue" points="1395.3,-98.6821 1404.58,-93.5727 1394.14,-91.779 1395.3,-98.6821"/>
</g>
<!-- Node21 -->
<g id="node21" class="node"><title>Node21</title>
<polygon fill="none" stroke="#bfbfbf" points="428,-74.5 428,-93.5 588,-93.5 588,-74.5 428,-74.5"/>
<text text-anchor="middle" x="508" y="-81.5" font-family="Helvetica,sans-Serif" font-size="10.00">Math/GenVector/Translation3D.h</text>
</g>
<!-- Node16&#45;&gt;Node21 -->
<g id="edge25" class="edge"><title>Node16&#45;&gt;Node21</title>
<path fill="none" stroke="midnightblue" d="M863.992,-142.457C799.865,-132.458 690.702,-115.316 597,-100 587.703,-98.4804 577.865,-96.8473 568.252,-95.2378"/>
<polygon fill="midnightblue" stroke="midnightblue" points="568.79,-91.7792 558.348,-93.5749 567.631,-98.6825 568.79,-91.7792"/>
</g>
<!-- Node22 -->
<g id="node22" class="node"><title>Node22</title>
<polygon fill="none" stroke="#bfbfbf" points="606,-74.5 606,-93.5 682,-93.5 682,-74.5 606,-74.5"/>
<text text-anchor="middle" x="644" y="-81.5" font-family="Helvetica,sans-Serif" font-size="10.00">TGeoMatrix.h</text>
</g>
<!-- Node16&#45;&gt;Node22 -->
<g id="edge27" class="edge"><title>Node16&#45;&gt;Node22</title>
<path fill="none" stroke="midnightblue" d="M875.434,-142.456C829.34,-133.136 754.62,-117.231 691,-100 687.112,-98.9469 683.066,-97.7745 679.051,-96.5621"/>
<polygon fill="midnightblue" stroke="midnightblue" points="679.834,-93.14 669.245,-93.5114 677.754,-99.8241 679.834,-93.14"/>
</g>
<!-- Node23 -->
<g id="node23" class="node"><title>Node23</title>
<g id="a_node23"><a xlink:href="../../d2/dd0/Cartesian2D_8h.html" target="_top" xlink:title="MathUtils/Cartesian2D.h">
<polygon fill="none" stroke="black" points="700.5,-74.5 700.5,-93.5 825.5,-93.5 825.5,-74.5 700.5,-74.5"/>
<text text-anchor="middle" x="763" y="-81.5" font-family="Helvetica,sans-Serif" font-size="10.00">MathUtils/Cartesian2D.h</text>
</a>
</g>
</g>
<!-- Node16&#45;&gt;Node23 -->
<g id="edge29" class="edge"><title>Node16&#45;&gt;Node23</title>
<path fill="none" stroke="midnightblue" d="M898.606,-142.372C871.628,-130.958 823.878,-110.756 792.841,-97.6252"/>
<polygon fill="midnightblue" stroke="midnightblue" points="793.973,-94.3035 783.399,-93.6305 791.245,-100.75 793.973,-94.3035"/>
</g>
<!-- Node24 -->
<g id="node24" class="node"><title>Node24</title>
<polygon fill="none" stroke="#bfbfbf" points="596.5,-1 596.5,-31 747.5,-31 747.5,-1 596.5,-1"/>
<text text-anchor="start" x="604.5" y="-19" font-family="Helvetica,sans-Serif" font-size="10.00">Math/GenVector/Displacement</text>
<text text-anchor="middle" x="672" y="-8" font-family="Helvetica,sans-Serif" font-size="10.00">Vector2D.h</text>
</g>
<!-- Node23&#45;&gt;Node24 -->
<g id="edge30" class="edge"><title>Node23&#45;&gt;Node24</title>
<path fill="none" stroke="midnightblue" d="M751.103,-74.3717C738.221,-65.0286 717.22,-49.7966 700.093,-37.375"/>
<polygon fill="midnightblue" stroke="midnightblue" points="701.703,-34.2194 691.553,-31.1815 697.593,-39.8859 701.703,-34.2194"/>
</g>
<!-- Node25 -->
<g id="node25" class="node"><title>Node25</title>
<polygon fill="none" stroke="#bfbfbf" points="766,-6.5 766,-25.5 942,-25.5 942,-6.5 766,-6.5"/>
<text text-anchor="middle" x="854" y="-13.5" font-family="Helvetica,sans-Serif" font-size="10.00">Math/GenVector/PositionVector2D.h</text>
</g>
<!-- Node23&#45;&gt;Node25 -->
<g id="edge31" class="edge"><title>Node23&#45;&gt;Node25</title>
<path fill="none" stroke="midnightblue" d="M774.897,-74.3717C789.884,-63.5015 815.862,-44.6602 833.942,-31.5474"/>
<polygon fill="midnightblue" stroke="midnightblue" points="836.06,-34.3349 842.1,-25.6305 831.95,-28.6684 836.06,-34.3349"/>
</g>
<!-- Node26&#45;&gt;Node6 -->
<g id="edge33" class="edge"><title>Node26&#45;&gt;Node6</title>
<path fill="none" stroke="midnightblue" d="M390.822,-74.4932C399.66,-71.9402 409.672,-69.4383 419,-68 708.177,-23.4098 1664.34,-17.7595 1844.56,-17.0866"/>
<polygon fill="midnightblue" stroke="midnightblue" points="1844.64,-20.5865 1854.63,-17.0513 1844.61,-13.5866 1844.64,-20.5865"/>
</g>
<!-- Node26&#45;&gt;Node7 -->
<g id="edge34" class="edge"><title>Node26&#45;&gt;Node7</title>
<path fill="none" stroke="midnightblue" d="M335.367,-74.4608C327.471,-72.2699 318.931,-69.9758 311,-68 239.01,-50.0653 218.09,-56.3225 148,-32 146.094,-31.3385 144.151,-30.5906 142.215,-29.7908"/>
<polygon fill="midnightblue" stroke="midnightblue" points="143.34,-26.4579 132.787,-25.5165 140.45,-32.8333 143.34,-26.4579"/>
</g>
<!-- Node26&#45;&gt;Node8 -->
<g id="edge35" class="edge"><title>Node26&#45;&gt;Node8</title>
<path fill="none" stroke="midnightblue" d="M349.574,-74.3717C329.697,-63.2545 294.915,-43.7997 271.427,-30.6624"/>
<polygon fill="midnightblue" stroke="midnightblue" points="272.866,-27.4574 262.43,-25.6305 269.449,-33.5667 272.866,-27.4574"/>
</g>
<!-- Node27&#45;&gt;Node13 -->
<g id="edge41" class="edge"><title>Node27&#45;&gt;Node13</title>
<path fill="none" stroke="midnightblue" d="M938.33,-272.909C816.161,-244.806 538.222,-177.759 311,-100 308.59,-99.1752 306.11,-98.2688 303.634,-97.3226"/>
<polygon fill="midnightblue" stroke="midnightblue" points="304.837,-94.0343 294.253,-93.5647 302.234,-100.532 304.837,-94.0343"/>
</g>
<!-- Node27&#45;&gt;Node16 -->
<g id="edge56" class="edge"><title>Node27&#45;&gt;Node16</title>
<path fill="none" stroke="midnightblue" d="M976.649,-272.963C963.282,-264.033 947.532,-251.283 938,-236 925.743,-216.348 921.372,-189.661 919.826,-171.912"/>
<polygon fill="midnightblue" stroke="midnightblue" points="923.304,-171.454 919.163,-161.702 916.318,-171.908 923.304,-171.454"/>
</g>
<!-- Node28 -->
<g id="node28" class="node"><title>Node28</title>
<polygon fill="none" stroke="#bfbfbf" points="1237.5,-210.5 1237.5,-229.5 1296.5,-229.5 1296.5,-210.5 1237.5,-210.5"/>
<text text-anchor="middle" x="1267" y="-217.5" font-family="Helvetica,sans-Serif" font-size="10.00">TObject.h</text>
</g>
<!-- Node27&#45;&gt;Node28 -->
<g id="edge37" class="edge"><title>Node27&#45;&gt;Node28</title>
<path fill="none" stroke="midnightblue" d="M1071.23,-273.981C1116.43,-264.927 1176.2,-251.689 1228,-236 1230.96,-235.104 1234.01,-234.09 1237.05,-233.023"/>
<polygon fill="midnightblue" stroke="midnightblue" points="1238.39,-236.261 1246.55,-229.51 1235.96,-229.696 1238.39,-236.261"/>
</g>
<!-- Node29 -->
<g id="node29" class="node"><title>Node29</title>
<polygon fill="none" stroke="#bfbfbf" points="1804.5,-74.5 1804.5,-93.5 1845.5,-93.5 1845.5,-74.5 1804.5,-74.5"/>
<text text-anchor="middle" x="1825" y="-81.5" font-family="Helvetica,sans-Serif" font-size="10.00">bitset</text>
</g>
<!-- Node27&#45;&gt;Node29 -->
<g id="edge38" class="edge"><title>Node27&#45;&gt;Node29</title>
<path fill="none" stroke="midnightblue" d="M1071.2,-281.403C1232.95,-267.611 1627,-228.643 1744,-168 1774.11,-152.393 1799.66,-121.392 1813.62,-102.011"/>
<polygon fill="midnightblue" stroke="midnightblue" points="1816.67,-103.755 1819.51,-93.548 1810.93,-99.7565 1816.67,-103.755"/>
</g>
<!-- Node30 -->
<g id="node30" class="node"><title>Node30</title>
<polygon fill="none" stroke="#bfbfbf" points="947,-210.5 947,-229.5 997,-229.5 997,-210.5 947,-210.5"/>
<text text-anchor="middle" x="972" y="-217.5" font-family="Helvetica,sans-Serif" font-size="10.00">iomanip</text>
</g>
<!-- Node27&#45;&gt;Node30 -->
<g id="edge39" class="edge"><title>Node27&#45;&gt;Node30</title>
<path fill="none" stroke="midnightblue" d="M994.707,-272.679C990.365,-262.796 984.558,-249.579 979.903,-238.986"/>
<polygon fill="midnightblue" stroke="midnightblue" points="983.106,-237.576 975.879,-229.828 976.698,-240.391 983.106,-237.576"/>
</g>
<!-- Node31 -->
<g id="node31" class="node"><title>Node31</title>
<polygon fill="none" stroke="#bfbfbf" points="1015.5,-210.5 1015.5,-229.5 1044.5,-229.5 1044.5,-210.5 1015.5,-210.5"/>
<text text-anchor="middle" x="1030" y="-217.5" font-family="Helvetica,sans-Serif" font-size="10.00">ios</text>
</g>
<!-- Node27&#45;&gt;Node31 -->
<g id="edge40" class="edge"><title>Node27&#45;&gt;Node31</title>
<path fill="none" stroke="midnightblue" d="M1007.29,-272.679C1011.64,-262.796 1017.44,-249.579 1022.1,-238.986"/>
<polygon fill="midnightblue" stroke="midnightblue" points="1025.3,-240.391 1026.12,-229.828 1018.89,-237.576 1025.3,-240.391"/>
</g>
<!-- Node32 -->
<g id="node32" class="node"><title>Node32</title>
<g id="a_node32"><a xlink:href="../../d4/d20/DetMatrixCache_8h.html" target="_top" xlink:title="DetectorsCommonDataFormats\l/DetMatrixCache.h">
<polygon fill="none" stroke="black" points="1063,-205 1063,-235 1219,-235 1219,-205 1063,-205"/>
<text text-anchor="start" x="1071" y="-223" font-family="Helvetica,sans-Serif" font-size="10.00">DetectorsCommonDataFormats</text>
<text text-anchor="middle" x="1141" y="-212" font-family="Helvetica,sans-Serif" font-size="10.00">/DetMatrixCache.h</text>
</a>
</g>
</g>
<!-- Node27&#45;&gt;Node32 -->
<g id="edge42" class="edge"><title>Node27&#45;&gt;Node32</title>
<path fill="none" stroke="midnightblue" d="M1031.03,-272.841C1051.7,-263.098 1079.36,-250.058 1101.77,-239.494"/>
<polygon fill="midnightblue" stroke="midnightblue" points="1103.46,-242.565 1111.02,-235.135 1100.48,-236.234 1103.46,-242.565"/>
</g>
<!-- Node32&#45;&gt;Node3 -->
<g id="edge45" class="edge"><title>Node32&#45;&gt;Node3</title>
<path fill="none" stroke="midnightblue" d="M1062.86,-205.206C1059.53,-204.769 1056.23,-204.364 1053,-204 706.555,-165.009 283.291,-155.452 164.407,-153.465"/>
<polygon fill="midnightblue" stroke="midnightblue" points="164.229,-149.962 154.174,-153.3 164.117,-156.961 164.229,-149.962"/>
</g>
<!-- Node32&#45;&gt;Node6 -->
<g id="edge44" class="edge"><title>Node32&#45;&gt;Node6</title>
<path fill="none" stroke="midnightblue" d="M1219.2,-205.133C1222.17,-204.729 1225.11,-204.349 1228,-204 1456.23,-176.435 1525.18,-238.495 1744,-168 1798.71,-150.375 1820.29,-146.551 1854,-100 1867.76,-81.0025 1872.15,-53.7756 1873.5,-35.753"/>
<polygon fill="midnightblue" stroke="midnightblue" points="1877,-35.8102 1874,-25.6471 1870.01,-35.4586 1877,-35.8102"/>
</g>
<!-- Node32&#45;&gt;Node10 -->
<g id="edge55" class="edge"><title>Node32&#45;&gt;Node10</title>
<path fill="none" stroke="midnightblue" d="M1193.66,-204.966C1270.33,-184.15 1416.86,-142.909 1539,-100 1541.4,-99.1557 1543.88,-98.2447 1546.36,-97.3035"/>
<polygon fill="midnightblue" stroke="midnightblue" points="1547.75,-100.517 1555.78,-93.6014 1545.19,-94.0021 1547.75,-100.517"/>
</g>
<!-- Node32&#45;&gt;Node16 -->
<g id="edge54" class="edge"><title>Node32&#45;&gt;Node16</title>
<path fill="none" stroke="midnightblue" d="M1093.65,-204.922C1052.97,-192.828 995.062,-175.613 957.262,-164.375"/>
<polygon fill="midnightblue" stroke="midnightblue" points="958.22,-161.009 947.637,-161.514 956.225,-167.718 958.22,-161.009"/>
</g>
<!-- Node33 -->
<g id="node33" class="node"><title>Node33</title>
<polygon fill="none" stroke="#bfbfbf" points="1105.5,-142.5 1105.5,-161.5 1176.5,-161.5 1176.5,-142.5 1105.5,-142.5"/>
<text text-anchor="middle" x="1141" y="-149.5" font-family="Helvetica,sans-Serif" font-size="10.00">FairLogger.h</text>
</g>
<!-- Node32&#45;&gt;Node33 -->
<g id="edge43" class="edge"><title>Node32&#45;&gt;Node33</title>
<path fill="none" stroke="midnightblue" d="M1141,-204.679C1141,-195.101 1141,-182.394 1141,-171.977"/>
<polygon fill="midnightblue" stroke="midnightblue" points="1144.5,-171.828 1141,-161.828 1137.5,-171.828 1144.5,-171.828"/>
</g>
<!-- Node34 -->
<g id="node34" class="node"><title>Node34</title>
<g id="a_node34"><a xlink:href="../../d6/d31/DetID_8h.html" target="_top" xlink:title="DetectorsCommonDataFormats\l/DetID.h">
<polygon fill="none" stroke="black" points="1579,-137 1579,-167 1735,-167 1735,-137 1579,-137"/>
<text text-anchor="start" x="1587" y="-155" font-family="Helvetica,sans-Serif" font-size="10.00">DetectorsCommonDataFormats</text>
<text text-anchor="middle" x="1657" y="-144" font-family="Helvetica,sans-Serif" font-size="10.00">/DetID.h</text>
</a>
</g>
</g>
<!-- Node32&#45;&gt;Node34 -->
<g id="edge46" class="edge"><title>Node32&#45;&gt;Node34</title>
<path fill="none" stroke="midnightblue" d="M1219.22,-205.314C1222.18,-204.859 1225.12,-204.419 1228,-204 1345.62,-186.881 1482.02,-171.412 1568.87,-162.112"/>
<polygon fill="midnightblue" stroke="midnightblue" points="1569.38,-165.578 1578.95,-161.036 1568.63,-158.617 1569.38,-165.578"/>
</g>
<!-- Node34&#45;&gt;Node4 -->
<g id="edge50" class="edge"><title>Node34&#45;&gt;Node4</title>
<path fill="none" stroke="midnightblue" d="M1722.7,-136.922C1786.2,-123.315 1879.96,-103.224 1930.19,-92.4586"/>
<polygon fill="midnightblue" stroke="midnightblue" points="1931.18,-95.8264 1940.23,-90.3087 1929.71,-88.9818 1931.18,-95.8264"/>
</g>
<!-- Node34&#45;&gt;Node6 -->
<g id="edge48" class="edge"><title>Node34&#45;&gt;Node6</title>
<path fill="none" stroke="midnightblue" d="M1650.72,-136.959C1643.73,-118.937 1635.33,-87.6573 1651,-68 1674.9,-38.0119 1789.65,-24.2448 1844.58,-19.2913"/>
<polygon fill="midnightblue" stroke="midnightblue" points="1845.06,-22.7629 1854.72,-18.4159 1844.46,-15.7888 1845.06,-22.7629"/>
</g>
<!-- Node34&#45;&gt;Node10 -->
<g id="edge47" class="edge"><title>Node34&#45;&gt;Node10</title>
<path fill="none" stroke="midnightblue" d="M1639.42,-136.679C1626.29,-125.981 1608.37,-111.377 1594.93,-100.422"/>
<polygon fill="midnightblue" stroke="midnightblue" points="1596.8,-97.4317 1586.83,-93.8283 1592.38,-102.858 1596.8,-97.4317"/>
</g>
<!-- Node34&#45;&gt;Node26 -->
<g id="edge53" class="edge"><title>Node34&#45;&gt;Node26</title>
<path fill="none" stroke="midnightblue" d="M1578.61,-148.267C1315.36,-139.024 476.275,-109.012 419,-100 413.089,-99.0699 406.901,-97.7211 400.911,-96.2083"/>
<polygon fill="midnightblue" stroke="midnightblue" points="401.668,-92.7872 391.101,-93.5526 399.839,-99.544 401.668,-92.7872"/>
</g>
<!-- Node34&#45;&gt;Node29 -->
<g id="edge49" class="edge"><title>Node34&#45;&gt;Node29</title>
<path fill="none" stroke="midnightblue" d="M1697.86,-136.928C1725.31,-127.199 1762.14,-113.603 1794,-100 1795.59,-99.3221 1797.21,-98.6063 1798.84,-97.8698"/>
<polygon fill="midnightblue" stroke="midnightblue" points="1800.51,-100.956 1808.08,-93.5443 1797.54,-94.6167 1800.51,-100.956"/>
</g>
<!-- Node35 -->
<g id="node35" class="node"><title>Node35</title>
<polygon fill="none" stroke="#bfbfbf" points="1660,-74.5 1660,-93.5 1706,-93.5 1706,-74.5 1660,-74.5"/>
<text text-anchor="middle" x="1683" y="-81.5" font-family="Helvetica,sans-Serif" font-size="10.00">cstdint</text>
</g>
<!-- Node34&#45;&gt;Node35 -->
<g id="edge51" class="edge"><title>Node34&#45;&gt;Node35</title>
<path fill="none" stroke="midnightblue" d="M1662.64,-136.679C1666.49,-126.898 1671.63,-113.852 1675.79,-103.315"/>
<polygon fill="midnightblue" stroke="midnightblue" points="1679.11,-104.415 1679.52,-93.8283 1672.6,-101.85 1679.11,-104.415"/>
</g>
<!-- Node36 -->
<g id="node36" class="node"><title>Node36</title>
<polygon fill="none" stroke="#bfbfbf" points="1724,-74.5 1724,-93.5 1786,-93.5 1786,-74.5 1724,-74.5"/>
<text text-anchor="middle" x="1755" y="-81.5" font-family="Helvetica,sans-Serif" font-size="10.00">type_traits</text>
</g>
<!-- Node34&#45;&gt;Node36 -->
<g id="edge52" class="edge"><title>Node34&#45;&gt;Node36</title>
<path fill="none" stroke="midnightblue" d="M1678.26,-136.679C1694.7,-125.611 1717.34,-110.363 1733.77,-99.3002"/>
<polygon fill="midnightblue" stroke="midnightblue" points="1735.83,-102.127 1742.17,-93.6379 1731.92,-96.3209 1735.83,-102.127"/>
</g>
</g>
</svg>
