<?xml version="1.0" encoding="UTF-8" standalone="no"?>
<!DOCTYPE svg PUBLIC "-//W3C//DTD SVG 1.1//EN"
 "http://www.w3.org/Graphics/SVG/1.1/DTD/svg11.dtd">
<!-- Generated by graphviz version 2.36.0 (20140111.2315)
 -->
<!-- Title: o2::framework::ProcessingContext Pages: 1 -->
<svg width="482pt" height="392pt"
 viewBox="0.00 0.00 482.00 392.00" xmlns="http://www.w3.org/2000/svg" xmlns:xlink="http://www.w3.org/1999/xlink">
<g id="graph0" class="graph" transform="scale(1 1) rotate(0) translate(4 388)">
<title>o2::framework::ProcessingContext</title>
<!-- Node1 -->
<g id="node1" class="node"><title>Node1</title>
<polygon fill="#bfbfbf" stroke="black" points="173,-0.5 173,-101.5 307,-101.5 307,-0.5 173,-0.5"/>
<text text-anchor="start" x="181" y="-89.5" font-family="Helvetica,sans-Serif" font-size="10.00">o2::framework::Processing</text>
<text text-anchor="middle" x="240" y="-78.5" font-family="Helvetica,sans-Serif" font-size="10.00">Context</text>
<polyline fill="none" stroke="black" points="173,-71.5 307,-71.5 "/>
<text text-anchor="middle" x="240" y="-59.5" font-family="Helvetica,sans-Serif" font-size="10.00"> </text>
<polyline fill="none" stroke="black" points="173,-52.5 307,-52.5 "/>
<text text-anchor="start" x="181" y="-40.5" font-family="Helvetica,sans-Serif" font-size="10.00">+ ProcessingContext()</text>
<text text-anchor="start" x="181" y="-29.5" font-family="Helvetica,sans-Serif" font-size="10.00">+ inputs()</text>
<text text-anchor="start" x="181" y="-18.5" font-family="Helvetica,sans-Serif" font-size="10.00">+ services()</text>
<text text-anchor="start" x="181" y="-7.5" font-family="Helvetica,sans-Serif" font-size="10.00">+ allocator()</text>
</g>
<!-- Node2 -->
<g id="node2" class="node"><title>Node2</title>
<g id="a_node2"><a xlink:href="../../df/d82/classo2_1_1framework_1_1DataAllocator.html" target="_top" xlink:title="{o2::framework::DataAllocator\n||+ DataAllocator()\l+ newChunk()\l+ adoptChunk()\l+ make()\l+ make()\l+ make()\l+ make()\l+ make()\l+ make()\l+ adopt()\l+ snapshot()\l+ snapshot()\l+ snapshot()\l+ snapshot()\l+ snapshot()\l+ snapshot()\l+ snapshot()\l}">
<polygon fill="none" stroke="black" points="0,-150.5 0,-383.5 144,-383.5 144,-150.5 0,-150.5"/>
<text text-anchor="middle" x="72" y="-371.5" font-family="Helvetica,sans-Serif" font-size="10.00">o2::framework::DataAllocator</text>
<polyline fill="none" stroke="black" points="0,-364.5 144,-364.5 "/>
<text text-anchor="middle" x="72" y="-352.5" font-family="Helvetica,sans-Serif" font-size="10.00"> </text>
<polyline fill="none" stroke="black" points="0,-345.5 144,-345.5 "/>
<text text-anchor="start" x="8" y="-333.5" font-family="Helvetica,sans-Serif" font-size="10.00">+ DataAllocator()</text>
<text text-anchor="start" x="8" y="-322.5" font-family="Helvetica,sans-Serif" font-size="10.00">+ newChunk()</text>
<text text-anchor="start" x="8" y="-311.5" font-family="Helvetica,sans-Serif" font-size="10.00">+ adoptChunk()</text>
<text text-anchor="start" x="8" y="-300.5" font-family="Helvetica,sans-Serif" font-size="10.00">+ make()</text>
<text text-anchor="start" x="8" y="-289.5" font-family="Helvetica,sans-Serif" font-size="10.00">+ make()</text>
<text text-anchor="start" x="8" y="-278.5" font-family="Helvetica,sans-Serif" font-size="10.00">+ make()</text>
<text text-anchor="start" x="8" y="-267.5" font-family="Helvetica,sans-Serif" font-size="10.00">+ make()</text>
<text text-anchor="start" x="8" y="-256.5" font-family="Helvetica,sans-Serif" font-size="10.00">+ make()</text>
<text text-anchor="start" x="8" y="-245.5" font-family="Helvetica,sans-Serif" font-size="10.00">+ make()</text>
<text text-anchor="start" x="8" y="-234.5" font-family="Helvetica,sans-Serif" font-size="10.00">+ adopt()</text>
<text text-anchor="start" x="8" y="-223.5" font-family="Helvetica,sans-Serif" font-size="10.00">+ snapshot()</text>
<text text-anchor="start" x="8" y="-212.5" font-family="Helvetica,sans-Serif" font-size="10.00">+ snapshot()</text>
<text text-anchor="start" x="8" y="-201.5" font-family="Helvetica,sans-Serif" font-size="10.00">+ snapshot()</text>
<text text-anchor="start" x="8" y="-190.5" font-family="Helvetica,sans-Serif" font-size="10.00">+ snapshot()</text>
<text text-anchor="start" x="8" y="-179.5" font-family="Helvetica,sans-Serif" font-size="10.00">+ snapshot()</text>
<text text-anchor="start" x="8" y="-168.5" font-family="Helvetica,sans-Serif" font-size="10.00">+ snapshot()</text>
<text text-anchor="start" x="8" y="-157.5" font-family="Helvetica,sans-Serif" font-size="10.00">+ snapshot()</text>
</a>
</g>
</g>
<!-- Node2&#45;&gt;Node1 -->
<g id="edge1" class="edge"><title>Node2&#45;&gt;Node1</title>
<path fill="none" stroke="#404040" d="M144.067,-161.546C147.05,-157.622 150.034,-153.761 153,-150 163.26,-136.991 174.723,-123.452 185.874,-110.739"/>
<polygon fill="none" stroke="#404040" points="185.966,-110.635 186.946,-103.49 193.917,-101.647 192.938,-108.791 185.966,-110.635"/>
<text text-anchor="middle" x="204" y="-123.5" font-family="Helvetica,sans-Serif" font-size="10.00"> +mAllocator</text>
</g>
<!-- Node3 -->
<g id="node3" class="node"><title>Node3</title>
<g id="a_node3"><a xlink:href="../../d7/d13/classo2_1_1framework_1_1ServiceRegistry.html" target="_top" xlink:title="{o2::framework::ServiceRegistry\n||+ registerService()\l+ get()\l}">
<polygon fill="none" stroke="black" points="162.5,-233 162.5,-301 317.5,-301 317.5,-233 162.5,-233"/>
<text text-anchor="middle" x="240" y="-289" font-family="Helvetica,sans-Serif" font-size="10.00">o2::framework::ServiceRegistry</text>
<polyline fill="none" stroke="black" points="162.5,-282 317.5,-282 "/>
<text text-anchor="middle" x="240" y="-270" font-family="Helvetica,sans-Serif" font-size="10.00"> </text>
<polyline fill="none" stroke="black" points="162.5,-263 317.5,-263 "/>
<text text-anchor="start" x="170.5" y="-251" font-family="Helvetica,sans-Serif" font-size="10.00">+ registerService()</text>
<text text-anchor="start" x="170.5" y="-240" font-family="Helvetica,sans-Serif" font-size="10.00">+ get()</text>
</a>
</g>
</g>
<!-- Node3&#45;&gt;Node1 -->
<g id="edge2" class="edge"><title>Node3&#45;&gt;Node1</title>
<path fill="none" stroke="#404040" d="M240,-232.562C240,-200.952 240,-152.741 240,-114.085"/>
<polygon fill="none" stroke="#404040" points="240,-113.903 236,-107.903 240,-101.903 244,-107.903 240,-113.903"/>
<text text-anchor="middle" x="268" y="-123.5" font-family="Helvetica,sans-Serif" font-size="10.00"> +mServices</text>
</g>
<!-- Node4 -->
<g id="node4" class="node"><title>Node4</title>
<g id="a_node4"><a xlink:href="../../df/d24/classo2_1_1framework_1_1InputRecord.html" target="_top" xlink:title="{o2::framework::InputRecord\n||+ InputRecord()\l+ getPos()\l+ getPos()\l+ getByPos()\l+ get()\l+ get()\l+ get()\l+ get()\l+ get()\l+ get()\l+ get()\l+ get()\l+ size()\l+ begin()\l+ end()\l}">
<polygon fill="none" stroke="black" points="336,-161.5 336,-372.5 474,-372.5 474,-161.5 336,-161.5"/>
<text text-anchor="middle" x="405" y="-360.5" font-family="Helvetica,sans-Serif" font-size="10.00">o2::framework::InputRecord</text>
<polyline fill="none" stroke="black" points="336,-353.5 474,-353.5 "/>
<text text-anchor="middle" x="405" y="-341.5" font-family="Helvetica,sans-Serif" font-size="10.00"> </text>
<polyline fill="none" stroke="black" points="336,-334.5 474,-334.5 "/>
<text text-anchor="start" x="344" y="-322.5" font-family="Helvetica,sans-Serif" font-size="10.00">+ InputRecord()</text>
<text text-anchor="start" x="344" y="-311.5" font-family="Helvetica,sans-Serif" font-size="10.00">+ getPos()</text>
<text text-anchor="start" x="344" y="-300.5" font-family="Helvetica,sans-Serif" font-size="10.00">+ getPos()</text>
<text text-anchor="start" x="344" y="-289.5" font-family="Helvetica,sans-Serif" font-size="10.00">+ getByPos()</text>
<text text-anchor="start" x="344" y="-278.5" font-family="Helvetica,sans-Serif" font-size="10.00">+ get()</text>
<text text-anchor="start" x="344" y="-267.5" font-family="Helvetica,sans-Serif" font-size="10.00">+ get()</text>
<text text-anchor="start" x="344" y="-256.5" font-family="Helvetica,sans-Serif" font-size="10.00">+ get()</text>
<text text-anchor="start" x="344" y="-245.5" font-family="Helvetica,sans-Serif" font-size="10.00">+ get()</text>
<text text-anchor="start" x="344" y="-234.5" font-family="Helvetica,sans-Serif" font-size="10.00">+ get()</text>
<text text-anchor="start" x="344" y="-223.5" font-family="Helvetica,sans-Serif" font-size="10.00">+ get()</text>
<text text-anchor="start" x="344" y="-212.5" font-family="Helvetica,sans-Serif" font-size="10.00">+ get()</text>
<text text-anchor="start" x="344" y="-201.5" font-family="Helvetica,sans-Serif" font-size="10.00">+ get()</text>
<text text-anchor="start" x="344" y="-190.5" font-family="Helvetica,sans-Serif" font-size="10.00">+ size()</text>
<text text-anchor="start" x="344" y="-179.5" font-family="Helvetica,sans-Serif" font-size="10.00">+ begin()</text>
<text text-anchor="start" x="344" y="-168.5" font-family="Helvetica,sans-Serif" font-size="10.00">+ end()</text>
</a>
</g>
</g>
<!-- Node4&#45;&gt;Node1 -->
<g id="edge3" class="edge"><title>Node4&#45;&gt;Node1</title>
<path fill="none" stroke="#404040" d="M335.845,-163.07C332.561,-158.622 329.27,-154.248 326,-150 315.238,-136.018 311.615,-133.282 300,-120 297.409,-117.037 294.752,-114.004 292.066,-110.944"/>
<polygon fill="none" stroke="#404040" points="291.882,-110.734 284.917,-108.867 283.961,-101.72 290.926,-103.587 291.882,-110.734"/>
<text text-anchor="middle" x="333.5" y="-123.5" font-family="Helvetica,sans-Serif" font-size="10.00"> +mInputs</text>
</g>
</g>
</svg>
